<svg width="31" height="20" viewBox="0 0 31 20" fill="none" xmlns="http://www.w3.org/2000/svg">
<g clip-path="url(#clip0_7_72093)">
<path d="M28.6773 7.84065L28.677 7.84084H28.6774C28.5097 8.09453 28.4487 8.39995 28.3976 8.71834C28.3349 9.10604 28.2688 9.47821 28.1318 9.84306C27.9671 10.2804 27.6906 10.7677 27.2093 11.1491C26.7091 9.79407 25.9809 8.54984 25.072 7.4617C25.6455 7.23236 26.2084 7.23593 26.6712 7.31229C27.0556 7.37595 27.4108 7.50477 27.7779 7.64431C28.0789 7.75931 28.3738 7.85927 28.6773 7.84065ZM23.0927 2.25365L23.0925 2.25393L23.0929 2.25384C23.0743 2.55737 23.1742 2.85235 23.2891 3.15363C23.4286 3.52082 23.5573 3.87617 23.621 4.26076C23.6974 4.72415 23.7008 5.28797 23.471 5.86222C22.3818 4.95415 21.1364 4.22738 19.7809 3.72882C20.163 3.24334 20.6522 2.96491 21.0913 2.79951C21.456 2.66241 21.828 2.5963 22.2157 2.53349C22.5338 2.48243 22.8391 2.42159 23.0927 2.25365ZM27.7974 13.3424C28.4044 13.4322 28.8874 13.7154 29.2483 14.0116C29.5493 14.2591 29.7925 14.5483 30.0407 14.8529C30.2439 15.1028 30.4493 15.337 30.7213 15.4727H27.9809C27.98 14.7464 27.9169 14.0348 27.7974 13.3424ZM7.83535 2.25384L7.83554 2.25403V2.25374C8.08912 2.42159 8.39449 2.48243 8.71265 2.53368C9.10017 2.5964 9.47218 2.6625 9.83686 2.79951C10.276 2.96491 10.7653 3.24343 11.1473 3.72892C9.79156 4.22738 8.54638 4.95425 7.45713 5.86231C7.22733 5.28806 7.23071 4.72424 7.30722 4.26076C7.37085 3.87626 7.49961 3.52082 7.6391 3.15354C7.75395 2.85245 7.85396 2.55737 7.83535 2.25384ZM2.25084 7.84093L2.25112 7.84103L2.25103 7.84074C2.55443 7.85927 2.84937 7.75931 3.15042 7.64441C3.51745 7.50486 3.87264 7.37604 4.25696 7.31229C4.71986 7.23603 5.28277 7.23255 5.8562 7.4618C4.94723 8.54993 4.21937 9.79426 3.71897 11.1492C3.23764 10.7677 2.96112 10.2806 2.79645 9.84315C2.65942 9.47831 2.59334 9.10613 2.53065 8.71834C2.47952 8.40004 2.41861 8.09454 2.25084 7.84093ZM0.207031 15.4727C0.479038 15.337 0.684312 15.1029 0.887707 14.8529C1.13575 14.5484 1.37899 14.2592 1.67995 14.0118C2.04096 13.7155 2.5236 13.4322 3.13078 13.3425C3.01132 14.0348 2.94825 14.7464 2.94749 15.4727H0.207031ZM15.464 0.20874V0.209021L15.4642 0.20874C15.5999 0.480963 15.8339 0.686421 16.0838 0.889906C16.3881 1.13806 16.6774 1.38141 16.9246 1.6825C17.2226 2.04594 17.5076 2.53264 17.5954 3.14545C16.9026 3.0265 16.1908 2.96387 15.4641 2.96387C14.7375 2.96387 14.0256 3.0265 13.3328 3.14545C13.4206 2.53274 13.7056 2.04593 14.0035 1.68259C14.2509 1.38141 14.54 1.13806 14.8444 0.889811C15.0943 0.686514 15.3283 0.480963 15.464 0.20874Z" fill="#F0792E"/>
<path d="M12.9175 15.4754L13.8593 15.4727C13.983 14.6769 13.741 14.0642 12.9364 14.2104C12.2583 14.3336 11.53 15.0075 11.0898 15.4727L12.3315 15.4672C12.4699 15.3762 12.7407 15.2724 12.8519 15.3497C12.8935 15.3787 12.9152 15.4197 12.9175 15.4754Z" fill="#003D71"/>
<path d="M17.152 15.4724H18.3269C18.3828 14.0843 18.1593 12.6509 17.5142 11.4107C16.9275 10.2823 15.9577 9.5153 14.7022 9.32997C12.8694 9.05944 11.0201 9.83567 9.45656 10.9462C7.75422 12.1553 6.34907 13.7975 5.12109 15.4724L6.67315 15.4702C8.0704 13.4888 11.2842 10.4808 13.6483 10.4612C14.4017 10.455 15.1678 10.6318 15.7341 11.1374C16.1445 11.5037 16.642 12.2151 16.6177 12.7924C16.6032 13.1348 16.2995 13.2397 16.0083 13.1337C15.7821 13.0513 15.6223 12.8444 15.464 12.6269C14.9496 11.9204 14.1472 11.5746 13.2671 11.6951C12.2174 11.8386 10.9162 12.6541 10.077 13.3957C9.35327 14.0353 8.68886 14.7353 8.06213 15.4724H9.73083C10.3424 14.7337 10.9882 14.1038 11.8184 13.5864C12.0811 13.4227 12.4047 13.2496 12.7447 13.1326C13.6026 12.8376 14.4563 12.9123 14.8353 13.9809C14.9843 14.401 15.0062 14.7695 14.9628 15.4449L14.9627 15.4724H16.0973L16.1002 15.4377C16.1011 15.0679 16.093 14.8187 16.1264 14.4522C16.155 14.1363 16.2532 13.809 16.5464 13.7701C17.1697 13.6395 17.1398 15.0266 17.152 15.4724Z" fill="#003D71"/>
<path d="M19.5645 15.4729H20.7491C20.8064 14.185 20.6961 12.6593 20.2796 11.327C20.1974 11.0642 20.1035 10.8091 19.9968 10.5655C19.7446 9.98979 19.4053 9.46866 19.0008 8.98703C18.5511 8.45199 18.0154 7.97093 17.4114 7.59198C17.2332 7.48017 17.0484 7.37692 16.8576 7.28364V7.28346C16.6683 7.19084 16.4725 7.10799 16.271 7.03644L16.2702 7.03615C13.9632 6.21667 11.6299 6.79947 9.67268 7.86448C9.29108 8.0722 8.92386 8.29806 8.57422 8.5353C8.22467 8.77236 7.89186 9.02145 7.57887 9.27543H7.57878L7.57821 9.27599C7.20667 9.57746 6.7418 9.98998 6.28172 10.4775C6.19111 10.5735 6.10163 10.6713 6.0146 10.7702C5.78178 11.0342 5.42302 11.4044 5.52952 11.7871C5.61382 12.0906 6.00529 12.0012 6.14167 11.8967C6.35099 11.7843 6.58089 11.6062 6.77761 11.4397C7.04397 11.2141 7.29558 10.9712 7.55932 10.7425C8.6261 9.81733 9.738 9.10382 10.8333 8.62097C11.072 8.51575 11.311 8.42106 11.5492 8.33737C11.7865 8.25396 12.0226 8.18174 12.2566 8.12091L12.2578 8.12062C14.2958 7.59122 16.5104 7.93416 17.9283 9.59692C19.2942 11.1985 19.5436 13.3424 19.5645 15.4729ZM4.86557 13.6623C4.99283 13.5434 5.12254 13.3884 5.2577 13.2167C5.4468 12.9767 5.46579 12.7444 5.39107 12.5766C5.36325 12.514 5.32217 12.4601 5.27226 12.4184C5.22273 12.377 5.16427 12.3474 5.1012 12.333C4.94706 12.2977 4.76275 12.3529 4.60625 12.5434C4.42927 12.7587 4.1849 13.1272 4.13499 13.453C4.12568 13.514 4.12315 13.5733 4.12944 13.629C4.13555 13.6832 4.15003 13.7347 4.17437 13.7817L4.17456 13.7822L4.17465 13.7821C4.2145 13.8586 4.28171 13.899 4.37137 13.9024C4.39008 13.903 4.41028 13.9022 4.43181 13.8998C4.45277 13.8975 4.47551 13.8933 4.49967 13.8877L4.49976 13.8879L4.50089 13.8876C4.62157 13.8586 4.74226 13.7774 4.86557 13.6623Z" fill="#003D71"/>
<path d="M22.5277 15.4732L22.5362 15.4731H22.5404C22.6644 15.4798 22.8795 15.4227 23.0036 15.2133C23.0283 15.1715 23.0496 15.1236 23.0656 15.0693C23.0821 15.014 23.0935 14.9513 23.0983 14.8808H23.0983L23.0992 14.8664C23.1934 11.5747 22.1856 8.84972 20.4747 6.99842C20.1425 6.63894 19.7831 6.3119 19.3998 6.01993C19.0168 5.72815 18.6104 5.47172 18.1838 5.253L18.1837 5.2531L18.1769 5.24971L18.1768 5.24952C16.7387 4.51429 15.1078 4.23191 13.507 4.3676C13.1946 4.39402 12.8843 4.43624 12.5776 4.49388C12.2701 4.55171 11.9652 4.62515 11.6648 4.71383L11.6606 4.71514C10.0143 5.20232 8.48225 6.16944 7.23378 7.4384C6.99063 7.68561 6.75829 7.94391 6.53854 8.212C6.42923 8.34515 6.32283 8.48093 6.21973 8.61878C7.09524 7.86305 8.03458 7.20012 9.01705 6.67345C9.23831 6.55488 9.46088 6.44345 9.6841 6.3402C9.90761 6.23667 10.1339 6.1401 10.3626 6.05115L10.3633 6.05086L10.3639 6.05058C11.2319 5.7131 12.0876 5.49786 12.9435 5.40167C13.7994 5.30547 14.6558 5.32832 15.5255 5.46664C16.1444 5.56519 16.7486 5.7273 17.2928 5.95411C17.3983 5.99811 17.5023 6.04485 17.604 6.09421C17.7044 6.14292 17.8032 6.19464 17.9 6.24936H17.9002L17.9017 6.25012L17.9016 6.25021C19.8177 7.29989 21.1489 9.45378 21.7352 11.8856C21.8495 12.3599 21.9356 12.8444 21.9921 13.3324C22.0486 13.8202 22.0756 14.3135 22.0723 14.8058V14.806L22.072 14.8343C22.0817 15.0977 22.172 15.318 22.3266 15.4172C22.3554 15.4356 22.3866 15.45 22.4197 15.4593H22.4199C22.4538 15.469 22.4898 15.4738 22.5277 15.4732Z" fill="#003D71"/>
<path d="M19.1016 4.50269C23.7084 6.02497 27.0377 10.3591 27.057 15.4728H24.7776C24.9285 11.0058 22.9798 6.97375 19.1016 4.50269Z" fill="#F0792E"/>
<path d="M5.72607 19.0595H4.80403L4.57573 19.8632H3.84082L4.81315 16.7853H5.7443L6.74398 19.8632H5.97712L5.72607 19.0595ZM4.90902 18.5389H5.61648C5.43094 17.9375 5.31073 17.525 5.25593 17.3012H5.24672L5.10066 17.8858L4.90902 18.5389ZM9.11291 19.0595H8.19077L7.96256 19.8632H7.22766L8.19989 16.7853H9.13114L10.1308 19.8632H9.36395L9.11291 19.0595ZM8.29576 18.5389H9.00331C8.81768 17.9375 8.69747 17.525 8.64267 17.3012H8.63356L8.4875 17.8858L8.29576 18.5389ZM10.8335 19.8496V16.8264C11.1378 16.7807 11.4634 16.7578 11.8103 16.7578C12.4662 16.7578 12.9371 16.8948 13.2224 17.1696C13.5077 17.4443 13.65 17.8036 13.65 18.2466C13.65 18.7703 13.4879 19.1759 13.163 19.4637C12.8382 19.7513 12.3369 19.8952 11.6598 19.8952C11.3463 19.8952 11.0709 19.88 10.8335 19.8496ZM11.541 17.3287V19.3335C11.5806 19.3427 11.6659 19.3472 11.7967 19.3472C12.1481 19.3472 12.4205 19.2544 12.613 19.0694C12.8055 18.8844 12.9014 18.6195 12.9014 18.274C12.9014 17.9574 12.8139 17.7161 12.6381 17.5501C12.4623 17.3843 12.209 17.3012 11.8788 17.3012C11.7404 17.3012 11.6278 17.3104 11.541 17.3287ZM14.4075 16.7853H15.115V17.968H16.3247V16.7853H17.0322V19.8632H16.3247V18.58H15.115V19.8632H14.4075V16.7853ZM19.5973 19.0595H18.6753L18.447 19.8632H17.712L18.6844 16.7853H19.6156L20.6153 19.8632H19.8484L19.5973 19.0595ZM18.7802 18.5389H19.4878C19.3022 17.9375 19.182 17.525 19.1272 17.3012H19.118L18.972 17.8858L18.7802 18.5389ZM22.9841 19.0595H22.062L21.8338 19.8632H21.0989L22.0711 16.7853H23.0024L24.002 19.8632H23.2352L22.9841 19.0595ZM22.167 18.5389H22.8745C22.6889 17.9375 22.5687 17.525 22.5139 17.3012H22.5048L22.3587 17.8858L22.167 18.5389ZM24.7047 19.8632V16.8264C24.9635 16.7807 25.2814 16.7578 25.6588 16.7578C26.1244 16.7578 26.4591 16.8347 26.663 16.9885C26.8669 17.1422 26.9688 17.3622 26.9688 17.6484C26.9688 17.8189 26.9179 17.9726 26.8152 18.1104C26.7125 18.2481 26.5793 18.3455 26.4165 18.4019V18.4201C26.6083 18.4917 26.7467 18.6805 26.8319 18.9864C26.9887 19.5375 27.0738 19.8297 27.0875 19.8632H26.3664C26.3055 19.7491 26.2324 19.5101 26.1472 19.1462C26.1046 18.9636 26.0468 18.8357 25.9738 18.7627C25.9007 18.6896 25.7835 18.653 25.6222 18.653H25.4031V19.8632H24.7047ZM25.4031 17.3012V18.1461H25.6953C25.8718 18.1461 26.011 18.1058 26.113 18.0258C26.2149 17.946 26.2659 17.8386 26.2659 17.7031C26.2659 17.5676 26.2203 17.4626 26.1282 17.3888C26.0362 17.315 25.9052 17.2785 25.7364 17.2785C25.5705 17.2785 25.4594 17.2861 25.4031 17.3012Z" fill="#003D71"/>
</g>
<defs>
<clipPath id="clip0_7_72093">
<rect width="31" height="20" fill="white"/>
</clipPath>
</defs>
</svg>
