<svg width="27" height="27" viewBox="0 0 27 27" fill="none" xmlns="http://www.w3.org/2000/svg">
<g clip-path="url(#clip0_178_6895)">
<path d="M25.8477 22.5759C26.6027 21.2618 27 19.7731 27 18.2461C27 13.4483 23.073 9.54492 18.2461 9.54492C17.9658 9.54492 17.6885 9.55872 17.4149 9.58488C17.4411 9.30906 17.4551 9.03179 17.4551 8.75391C17.4551 3.92706 13.5517 0 8.75395 0C3.94317 0 4.24968e-05 3.94437 4.24968e-05 8.75391C4.24968e-05 10.2803 0.396992 11.7684 1.15134 13.082L0.0406232 16.4138C-0.0541338 16.6981 0.0198179 17.0116 0.231785 17.2233C0.443959 17.4355 0.757275 17.509 1.04113 17.4145C1.06235 17.4075 2.99457 16.7634 4.377 16.3054C5.68176 17.0489 7.22094 17.4551 8.75395 17.4551C9.03183 17.4551 9.3091 17.4411 9.58493 17.4149C9.55877 17.6885 9.54496 17.9657 9.54496 18.2461C9.54496 23.0729 13.4483 27 18.2461 27C19.7711 27 21.2586 26.6035 22.5714 25.8503C23.9633 26.3091 25.9425 26.9541 25.9639 26.9611C26.0444 26.9872 26.1268 27 26.2088 27C26.4158 27 26.6183 26.9188 26.7689 26.7676C26.9794 26.5567 27.0536 26.2452 26.9605 25.962L25.8477 22.5759ZM8.75395 15.873C7.38656 15.873 6.01671 15.4821 4.89651 14.7722C4.69629 14.6453 4.44971 14.6148 4.22477 14.6894C3.58536 14.9008 2.75315 15.1772 2.04165 15.4139L2.76757 13.2359C2.84275 13.0104 2.81247 12.763 2.68517 12.5621C1.96357 11.4248 1.58207 10.1079 1.58207 8.75391C1.58207 4.79924 4.79949 1.58203 8.75395 1.58203C12.6794 1.58203 15.8731 4.79924 15.8731 8.75391C15.8731 9.13932 15.8416 9.5235 15.7806 9.90129C12.9618 10.7356 10.7356 12.9617 9.90133 15.7806C9.52354 15.8415 9.13936 15.873 8.75395 15.873ZM24.2315 22.725L24.97 24.9724C24.2375 24.7328 23.3737 24.4496 22.7226 24.2343C22.4974 24.1598 22.2511 24.1902 22.0508 24.3171C20.9144 25.0373 19.5987 25.418 18.2461 25.418C14.3205 25.418 11.127 22.2006 11.127 18.2461C11.127 14.3205 14.3205 11.127 18.2461 11.127C22.2006 11.127 25.418 14.3205 25.418 18.2461C25.418 19.6001 25.0365 20.917 24.3149 22.0543C24.1882 22.2541 24.1575 22.5001 24.2315 22.725Z" fill="#20446C"/>
<path d="M18.4115 13.9677L18.4115 13.9677C19.7548 13.9948 20.8612 15.0657 20.9309 16.4066C20.9679 17.1202 20.7176 17.7988 20.2265 18.3161C19.8508 18.7119 19.3738 18.9721 18.8508 19.0723V19.8193C18.8508 20.0911 18.6305 20.3114 18.3586 20.3114C18.0867 20.3114 17.8664 20.0911 17.8664 19.8193V18.6266C17.8664 18.3548 18.0867 18.1344 18.3586 18.1344C18.7993 18.1344 19.2087 17.9585 19.5127 17.6383C19.8164 17.3185 19.9708 16.8997 19.9478 16.4577C19.9049 15.6304 19.2211 14.9686 18.3917 14.9519C17.5866 14.9357 16.8937 15.5242 16.7825 16.3204L18.4115 13.9677ZM18.4115 13.9677C17.1074 13.9419 15.9877 14.8942 15.8076 16.1845L15.8076 16.1845M18.4115 13.9677L15.8076 16.1845M15.8076 16.1845C15.7911 16.3026 15.7828 16.4232 15.7828 16.543M15.8076 16.1845L15.7828 16.543M15.7828 16.543C15.7828 16.8148 16.0031 17.0352 16.275 17.0352M15.7828 16.543L16.275 17.0352M16.275 17.0352C16.5469 17.0352 16.7672 16.8148 16.7672 16.543M16.275 17.0352L16.7672 16.543M16.7672 16.543C16.7672 16.4684 16.7724 16.3934 16.7825 16.3204L16.7672 16.543Z" fill="#F0792E" stroke="#F0792E" stroke-width="0.2"/>
<path d="M6.3457 8.73224C6.3457 9.16915 5.9916 9.52325 5.55469 9.52325C5.11777 9.52325 4.76367 9.16915 4.76367 8.73224C4.76367 8.29533 5.11777 7.94122 5.55469 7.94122C5.9916 7.94122 6.3457 8.29533 6.3457 8.73224Z" fill="#F0792E"/>
<path d="M9.29688 8.73224C9.29688 9.16915 8.94277 9.52325 8.50586 9.52325C8.06895 9.52325 7.71484 9.16915 7.71484 8.73224C7.71484 8.29533 8.06895 7.94122 8.50586 7.94122C8.94277 7.94122 9.29688 8.29533 9.29688 8.73224Z" fill="#F0792E"/>
<path d="M12.2461 8.73224C12.2461 9.16915 11.892 9.52325 11.4551 9.52325C11.0182 9.52325 10.6641 9.16915 10.6641 8.73224C10.6641 8.29533 11.0182 7.94122 11.4551 7.94122C11.892 7.94122 12.2461 8.29533 12.2461 8.73224Z" fill="#F0792E"/>
<path d="M19.2793 21.665C19.2793 22.102 18.9252 22.4561 18.4883 22.4561C18.0514 22.4561 17.6973 22.102 17.6973 21.665C17.6973 21.2281 18.0514 20.874 18.4883 20.874C18.9252 20.874 19.2793 21.2281 19.2793 21.665Z" fill="#F0792E"/>
</g>
<defs>
<clipPath id="clip0_178_6895">
<rect width="27" height="27" fill="white"/>
</clipPath>
</defs>
</svg>
