<svg width="2" height="4" viewBox="0 0 2 4" fill="none" xmlns="http://www.w3.org/2000/svg">
<path opacity="0.81" d="M0.310903 4.00009C0.285526 4.00007 0.260227 3.99726 0.235463 3.99171C0.195925 3.9819 0.158708 3.9644 0.125935 3.94019C0.0931609 3.91599 0.0654746 3.88556 0.0444582 3.85065C0.0234418 3.81574 0.00950742 3.77703 0.00344931 3.73673C-0.00260879 3.69644 -0.000673531 3.65533 0.00914937 3.61579L0.837572 0.236743C0.857209 0.156688 0.907834 0.0877034 0.978309 0.0449853C1.04878 0.00226719 1.13334 -0.0106863 1.21337 0.00895707C1.2934 0.0286004 1.36235 0.0792455 1.40505 0.149743C1.44776 0.220241 1.46072 0.304809 1.44108 0.384865L0.611258 3.76393C0.594509 3.83106 0.555903 3.89071 0.50152 3.93347C0.447138 3.97623 0.380074 3.99966 0.310903 4.00009Z" fill="white"/>
</svg>
