<svg width="28" height="2" viewBox="0 0 28 2" fill="none" xmlns="http://www.w3.org/2000/svg">
<path d="M27.5228 0.807884L0.505972 0.000241854C0.440265 -0.00182246 0.374817 0.00934522 0.313509 0.0330816C0.2522 0.0568181 0.196279 0.0926395 0.149081 0.138417C0.101883 0.184194 0.0643617 0.238994 0.0387506 0.299561C0.0131395 0.360128 -3.23367e-05 0.425226 5.96142e-08 0.490988V0.93112C-1.15859e-05 1.06043 0.0508846 1.18454 0.141669 1.2766C0.232454 1.36865 0.355813 1.42123 0.485066 1.42297L27.5008 1.79598C27.5659 1.797 27.6305 1.78506 27.6909 1.76086C27.7514 1.73665 27.8063 1.70067 27.8527 1.65499C27.8991 1.60932 27.9359 1.55488 27.961 1.49483C27.9862 1.43478 27.9991 1.37033 27.9991 1.30523C28.0006 1.17646 27.9516 1.05224 27.8625 0.959247C27.7735 0.866254 27.6515 0.811908 27.5228 0.807884Z" fill="#90B9E7"/>
</svg>
