<svg width="24" height="24" viewBox="0 0 24 24" fill="none" xmlns="http://www.w3.org/2000/svg">
<path d="M10.4023 2.40015C5.99354 2.40015 2.40234 5.99134 2.40234 10.4001C2.40234 14.809 5.99354 18.4002 10.4023 18.4002C12.3195 18.4002 14.0802 17.7193 15.4602 16.5892L20.2367 21.3658C20.3104 21.4426 20.3987 21.5039 20.4964 21.5461C20.5941 21.5883 20.6993 21.6106 20.8057 21.6117C20.9121 21.6128 21.0177 21.5926 21.1163 21.5524C21.2148 21.5122 21.3043 21.4527 21.3796 21.3774C21.4549 21.3021 21.5143 21.2126 21.5546 21.1141C21.5948 21.0155 21.615 20.91 21.6139 20.8035C21.6128 20.6971 21.5905 20.5919 21.5483 20.4942C21.506 20.3965 21.4447 20.3082 21.368 20.2345L16.5914 15.458C17.7215 14.0781 18.4023 12.3174 18.4023 10.4001C18.4023 5.99134 14.8111 2.40015 10.4023 2.40015ZM10.4023 4.00015C13.9464 4.00015 16.8023 6.85605 16.8023 10.4001C16.8023 13.9442 13.9464 16.8001 10.4023 16.8001C6.85824 16.8001 4.00234 13.9442 4.00234 10.4001C4.00234 6.85605 6.85824 4.00015 10.4023 4.00015Z" fill="#434B53" stroke="#434B53"/>
</svg>
