<svg width="18" height="18" viewBox="0 0 18 18" fill="none" xmlns="http://www.w3.org/2000/svg">
<path d="M17.9942 8.68575C18.0564 10.4647 17.5896 12.2221 16.6529 13.7358C15.7162 15.2494 14.3517 16.4513 12.7319 17.1894C11.1122 17.9276 9.30988 18.1688 7.55301 17.8827C5.79613 17.5965 4.16357 16.7958 2.86178 15.5818C1.55998 14.3677 0.647426 12.795 0.239508 11.0623C-0.16841 9.32965 -0.0533692 7.51494 0.570086 5.84766C1.19354 4.18039 2.2974 2.73544 3.74208 1.69553C5.18676 0.655631 6.90737 0.0674824 8.68632 0.00546928C11.0717 -0.0776831 13.3924 0.790115 15.1379 2.41797C16.8835 4.04582 17.9109 6.3004 17.9942 8.68575Z" fill="#20446C"/>
<g opacity="0.1">
<path opacity="0.1" d="M8.68569 0.00662667C6.30035 0.0899302 4.04578 1.11736 2.41794 2.86292C0.790101 4.60847 -0.0776825 6.92917 0.00546929 9.31453C0.00546929 9.31453 6.33929 9.37787 7.7788 6.77811C9.21831 4.17834 8.68569 0.00662667 8.68569 0.00662667Z" fill="white"/>
</g>
<path d="M15.6885 8.62254C15.7361 9.97515 15.3815 11.3115 14.6694 12.4625C13.9573 13.6135 12.9197 14.5273 11.6881 15.0884C10.4564 15.6496 9.08599 15.8327 7.75022 15.6147C6.41444 15.3966 5.17336 14.7873 4.18404 13.8637C3.19471 12.94 2.5016 11.7437 2.19243 10.426C1.88326 9.10837 1.97191 7.7286 2.44718 6.46134C2.92245 5.19408 3.76297 4.09629 4.86237 3.30688C5.96177 2.51748 7.27063 2.07196 8.62332 2.02668C10.4344 1.96607 12.1956 2.62658 13.5202 3.8632C14.8448 5.09983 15.6246 6.81153 15.6885 8.62254Z" fill="#20446C"/>
<g opacity="0.2">
<path opacity="0.2" d="M15.6885 8.62254C15.7361 9.97515 15.3815 11.3115 14.6694 12.4625C13.9573 13.6135 12.9197 14.5273 11.6881 15.0884C10.4564 15.6496 9.08599 15.8327 7.75022 15.6147C6.41444 15.3966 5.17336 14.7873 4.18404 13.8637C3.19471 12.94 2.5016 11.7437 2.19243 10.426C1.88326 9.10837 1.97191 7.7286 2.44718 6.46134C2.92245 5.19408 3.76297 4.09629 4.86237 3.30688C5.96177 2.51748 7.27063 2.07196 8.62332 2.02668C10.4344 1.96607 12.1956 2.62658 13.5202 3.8632C14.8448 5.09983 15.6246 6.81153 15.6885 8.62254Z" fill="#20446C"/>
</g>
<path d="M15.8941 8.90162C15.9405 10.2354 15.5904 11.553 14.8881 12.6879C14.1857 13.8227 13.1626 14.7238 11.9482 15.2773C10.7337 15.8307 9.38245 16.0116 8.06519 15.7971C6.74793 15.5826 5.52385 14.9824 4.54771 14.0723C3.57157 13.1621 2.8872 11.983 2.58115 10.684C2.2751 9.38492 2.36109 8.0243 2.82827 6.77412C3.29545 5.52395 4.12283 4.44037 5.2058 3.6604C6.28876 2.88042 7.57868 2.43906 8.91246 2.39213C10.7014 2.32996 12.4418 2.98075 13.751 4.20143C15.0602 5.4221 15.8311 7.11273 15.8941 8.90162Z" fill="#F0792E"/>
<path d="M10.9518 7.27091C11.1821 7.27091 11.3687 7.08689 11.3687 6.85982C11.3687 6.63292 11.1821 6.44873 10.9518 6.44873H7.64934C7.41902 6.44873 7.23236 6.63292 7.23236 6.85982C7.23236 7.08689 7.41902 7.27091 7.64934 7.27091H8.59584C8.98725 7.27027 9.34282 7.49541 9.50489 7.84644H7.65341C7.42326 7.84644 7.23643 8.03063 7.23643 8.25753C7.23643 8.4846 7.42326 8.66862 7.65341 8.66862H9.50489C9.34135 9.01869 8.9866 9.24319 8.59584 9.24415H7.64934C7.47831 9.24431 7.32455 9.34725 7.26119 9.50381C7.19783 9.66038 7.23757 9.83927 7.36153 9.95537L9.72168 12.1547C9.7997 12.2267 9.90264 12.2663 10.0093 12.2657C10.124 12.265 10.2336 12.2191 10.3138 12.1383C10.3897 12.0593 10.4305 11.9538 10.4274 11.8451C10.4244 11.7364 10.3774 11.6333 10.2971 11.5586L8.69585 10.0663C9.50814 10.0201 10.1932 9.45339 10.3805 8.6728H10.9518C11.1821 8.6728 11.3687 8.48877 11.3687 8.26171C11.3687 8.03465 11.1821 7.85062 10.9518 7.85062H10.3805C10.332 7.64587 10.2473 7.45093 10.1304 7.27509H10.9518V7.27091Z" fill="white"/>
<g opacity="0.2">
<path opacity="0.2" d="M15.8941 8.90162C15.9405 10.2354 15.5904 11.553 14.8881 12.6879C14.1857 13.8227 13.1626 14.7238 11.9482 15.2773C10.7337 15.8307 9.38245 16.0116 8.06519 15.7971C6.74793 15.5826 5.52385 14.9824 4.54771 14.0723C3.57157 13.1621 2.8872 11.983 2.58115 10.684C2.2751 9.38492 2.36109 8.0243 2.82827 6.77412C3.29545 5.52395 4.12283 4.44037 5.2058 3.6604C6.28876 2.88042 7.57868 2.43906 8.91246 2.39213C10.7014 2.32996 12.4418 2.98075 13.751 4.20143C15.0602 5.4221 15.8311 7.11273 15.8941 8.90162Z" fill="white"/>
</g>
<path d="M9.26264 15.9523H9.31734L9.47857 15.9379L9.74344 15.912C9.8634 15.9037 9.98267 15.8873 10.1004 15.8631L10.5467 15.7767C10.6308 15.761 10.7136 15.7389 10.7943 15.7105L11.062 15.6299C11.1595 15.605 11.2556 15.5753 11.3499 15.5406L11.6378 15.4197C11.7386 15.3765 11.8451 15.3391 11.9459 15.2872L12.2626 15.1203C12.728 14.8687 13.1636 14.5655 13.561 14.2162L13.8748 13.914L14.0332 13.7585C14.0821 13.7009 14.1282 13.6433 14.18 13.5857C14.275 13.4677 14.3815 13.3554 14.4679 13.2287L14.7385 12.8401L14.8076 12.7393C14.8307 12.7076 14.8479 12.6702 14.8681 12.6357L14.989 12.4226L15.1099 12.2067C15.1531 12.1347 15.179 12.0541 15.2165 11.9792C15.2827 11.8238 15.3547 11.6712 15.4151 11.5128L15.5792 11.0205C15.7727 10.3264 15.863 9.60757 15.847 8.88716C15.8136 8.16687 15.6728 7.45559 15.4295 6.77682C15.3633 6.6156 15.3 6.45437 15.2337 6.29603C15.1675 6.13768 15.0783 5.99373 15.0005 5.84402C14.9642 5.76897 14.9238 5.69593 14.8796 5.62521L14.7443 5.41792L14.609 5.21351C14.586 5.17896 14.5658 5.14441 14.5428 5.11274L14.465 5.01774L14.1771 4.64922C14.0735 4.53118 13.9612 4.42465 13.8576 4.31525L13.6992 4.15403C13.6445 4.1022 13.5869 4.05614 13.5294 4.0072L13.1983 3.71929C12.7762 3.39843 12.3194 3.12608 11.8365 2.9074L11.5112 2.76345C11.4046 2.71739 11.2952 2.69148 11.1945 2.65405L10.8893 2.55328C10.7943 2.51874 10.6935 2.50722 10.6014 2.48131L10.3279 2.42085C10.2447 2.39905 10.16 2.38365 10.0745 2.37479L9.6254 2.32008C9.50619 2.30335 9.38589 2.29565 9.26552 2.29705H9.00065H8.83654H9.26552C9.38575 2.29346 9.50607 2.29924 9.6254 2.31432L10.0774 2.36327C10.1636 2.37228 10.2492 2.38671 10.3336 2.40646L10.6215 2.46691C10.7137 2.48994 10.8144 2.50146 10.9094 2.53601L11.2146 2.6339C11.3183 2.66845 11.4305 2.69724 11.5371 2.7433L11.8653 2.88437C12.3523 3.10281 12.8138 3.37411 13.2415 3.69338L13.5754 3.98129L13.7482 4.12812L13.9065 4.28934C14.013 4.40162 14.1282 4.50815 14.2318 4.62619L14.5197 4.99758L14.5975 5.09259L14.6666 5.19336L14.8019 5.40065L14.9401 5.60794C14.989 5.67703 15.0207 5.75765 15.0639 5.82963C15.1416 5.97933 15.2251 6.11753 15.3 6.28451C15.3748 6.4515 15.4295 6.60696 15.4957 6.77107C16.0089 8.14505 16.0614 9.64861 15.6454 11.0551L15.4842 11.5531C15.4209 11.7144 15.346 11.867 15.2798 12.0224C15.2424 12.1002 15.2165 12.1808 15.1733 12.2527C15.1301 12.3247 15.0898 12.3967 15.0495 12.4687L14.9286 12.6846C14.9084 12.7191 14.8883 12.7566 14.8652 12.7911L14.7961 12.8919L14.5082 13.2834C14.4132 13.4101 14.3067 13.5224 14.2203 13.6404L14.0706 13.8132L13.9123 13.9715L13.5956 14.2767C13.1922 14.6264 12.7509 14.9296 12.2799 15.1807L11.9632 15.3448C11.8595 15.3967 11.753 15.4312 11.6494 15.4744L11.3615 15.5953C11.267 15.6299 11.171 15.6597 11.0736 15.6846L10.8029 15.7623C10.7212 15.7898 10.6374 15.811 10.5524 15.8256L10.1062 15.9062C9.98751 15.9293 9.86716 15.9428 9.74632 15.9465L9.48145 15.9667H9.31734L9.26264 15.9523Z" fill="#263238"/>
<path d="M1.4883 13.4882C1.47129 13.4669 1.4568 13.4437 1.44512 13.4191L1.32708 13.2176C1.27813 13.1312 1.21767 13.0218 1.15722 12.8893C1.09676 12.7569 1.01902 12.6158 0.955682 12.446L0.84916 12.184C0.811733 12.0919 0.782941 11.994 0.748393 11.8961C0.673539 11.6946 0.61884 11.4757 0.552623 11.2425C0.430092 10.7382 0.346358 10.2252 0.302151 9.70802C0.268027 9.18911 0.274767 8.66832 0.322307 8.15047C0.351097 7.91439 0.374125 7.68694 0.41731 7.47965C0.437463 7.37313 0.451861 7.27236 0.474893 7.17447C0.497925 7.07659 0.520952 6.98734 0.541105 6.88657C0.581411 6.70807 0.633233 6.5526 0.676418 6.41441C0.709122 6.29614 0.748533 6.17983 0.794458 6.06605L0.880825 5.85012C0.887788 5.8238 0.898455 5.79859 0.912498 5.77527C0.908841 5.80281 0.902079 5.82985 0.892343 5.85588L0.820368 6.07468C0.78582 6.16969 0.748392 6.28773 0.710965 6.42593C0.673538 6.56412 0.624597 6.71383 0.58717 6.89521C0.567977 6.98542 0.547826 7.08139 0.526713 7.18311C0.503681 7.27812 0.492165 7.38177 0.472012 7.48541C0.431706 7.6927 0.411556 7.91726 0.385645 8.15334C0.340164 8.66751 0.335345 9.18446 0.371245 9.69939C0.41269 10.2135 0.493538 10.7236 0.61308 11.2253C0.676418 11.4556 0.731117 11.6744 0.800213 11.8759C0.834761 11.9738 0.863559 12.0746 0.898107 12.1638L0.998865 12.4287C1.0622 12.5986 1.13418 12.7425 1.19176 12.875C1.24934 13.0074 1.30404 13.1168 1.3501 13.206L1.45663 13.4133C1.47123 13.4364 1.48194 13.4617 1.4883 13.4882Z" fill="white"/>
<path d="M9.22435 1.82795C9.15161 1.83546 9.07828 1.83546 9.00554 1.82795H8.74643C8.64854 1.82795 8.53339 1.82795 8.40671 1.82795C8.28003 1.82795 8.14472 1.84235 7.99501 1.85962C7.8453 1.8769 7.69271 1.89705 7.52861 1.92296C6.81539 2.04587 6.1251 2.27693 5.48162 2.60817C5.33479 2.68878 5.19372 2.76076 5.06992 2.84137C4.95013 2.90934 4.83387 2.98333 4.72156 3.06306C4.61503 3.13215 4.52578 3.20125 4.43366 3.26171C4.34153 3.32217 4.28682 3.37399 4.23212 3.42005C4.17736 3.469 4.11862 3.5133 4.0565 3.55249C4.10582 3.49814 4.15871 3.44717 4.21485 3.3999C4.26667 3.35096 4.33288 3.29338 4.41062 3.23292C4.48835 3.17246 4.57761 3.09473 4.68413 3.02275C4.79065 2.95077 4.90005 2.87016 5.02961 2.79243C5.15916 2.71469 5.29448 2.63408 5.44131 2.55347C5.76468 2.38479 6.10061 2.24137 6.44609 2.12449C6.79171 2.00907 7.14599 1.92146 7.50557 1.8625C7.67256 1.83947 7.8309 1.81356 7.98061 1.80492C8.13032 1.79628 8.26851 1.78477 8.39519 1.78189C8.52187 1.77901 8.63703 1.78189 8.73779 1.78189C8.83856 1.78189 8.92494 1.78189 8.99403 1.79916C9.07142 1.80301 9.1484 1.81263 9.22435 1.82795Z" fill="white"/>
<path d="M10.3937 17.4897C10.3433 17.513 10.29 17.5294 10.2353 17.5387C10.1317 17.5674 9.97909 17.5991 9.79195 17.6308C8.80219 17.7946 7.78787 17.7256 6.82942 17.4293C6.64804 17.3745 6.50122 17.3198 6.40333 17.2795C6.35128 17.2615 6.30113 17.2383 6.25361 17.2104C6.30788 17.2187 6.36102 17.2332 6.41197 17.2536C6.51273 17.2882 6.65956 17.3342 6.84382 17.3861C7.79967 17.6531 8.80022 17.7207 9.78331 17.5847C9.97333 17.5588 10.1259 17.5329 10.2296 17.5127C10.283 17.4979 10.3382 17.4901 10.3937 17.4897Z" fill="white"/>
</svg>
