<svg width="7" height="9" viewBox="0 0 7 9" fill="none" xmlns="http://www.w3.org/2000/svg">
<path d="M0 7.69003L3.80723 9.00005L6.46505 1.31316L2.65782 0L0 7.69003ZM6.06039 1.50841L3.61356 8.60327L0.399934 7.50109L2.84361 0.399932L6.06039 1.50841Z" fill="white"/>
<path opacity="0.5" d="M3.21905 1.00095L2.89155 1.94567C2.87334 1.99648 2.83593 2.03814 2.78736 2.06168C2.73879 2.08523 2.68292 2.08881 2.63175 2.07163C2.58068 2.05377 2.53876 2.01641 2.51516 1.96772C2.49155 1.91904 2.48819 1.86299 2.50579 1.81183L2.83329 0.867112C2.8515 0.816297 2.8889 0.774645 2.93747 0.751095C2.98605 0.727546 3.04191 0.723975 3.09309 0.741149C3.14416 0.759015 3.18607 0.796371 3.20968 0.845054C3.23328 0.893737 3.23665 0.949786 3.21905 1.00095Z" fill="#20446C"/>
<path opacity="0.5" d="M3.95523 7.18574L3.62772 8.13046C3.60951 8.18127 3.57211 8.22293 3.52354 8.24647C3.47496 8.27002 3.4191 8.2736 3.36792 8.25642C3.31711 8.23821 3.27546 8.20081 3.25191 8.15223C3.22836 8.10366 3.22479 8.0478 3.24196 7.99662L3.56946 7.0519C3.58767 7.00108 3.62508 6.95943 3.67365 6.93588C3.72222 6.91233 3.77809 6.90876 3.82927 6.92594C3.88033 6.9438 3.92225 6.98116 3.94586 7.02984C3.96946 7.07853 3.97283 7.13458 3.95523 7.18574Z" fill="#20446C"/>
</svg>
