<svg width="39" height="39" viewBox="0 0 39 39" fill="none" xmlns="http://www.w3.org/2000/svg">
<circle cx="19.5" cy="19.5" r="19.5" fill="#FFEEE3"/>
<path d="M12.3575 27.0578H12.1114C9.64792 26.9605 7.47095 25.4268 6.55052 23.14C5.63008 20.8533 6.13757 18.2395 7.84683 16.4631C9.02582 15.2344 10.6551 14.5398 12.3581 14.5398C14.0612 14.5398 15.6905 15.2344 16.8695 16.4631C17.5833 17.2073 18.1041 18.1149 18.3864 19.1066C18.5388 19.6589 18.6167 20.2291 18.6183 20.802C18.617 21.1188 18.594 21.4352 18.5496 21.7488C18.3998 22.7034 18.0328 23.6109 17.477 24.4014C16.3038 26.0665 14.3947 27.0581 12.3575 27.0604V27.0578ZM12.3575 15.1887C10.8312 15.1882 9.37066 15.8095 8.31253 16.9092C7.2544 18.0089 6.69005 19.4922 6.74961 21.017C6.87148 23.9395 9.2118 26.2817 12.1347 26.4063C14.0372 26.4791 15.8472 25.5836 16.9433 24.0271C17.4422 23.3217 17.7724 22.5113 17.9084 21.6582C17.9483 21.3758 17.9691 21.0911 17.9706 20.8059C17.9691 20.2921 17.8994 19.7808 17.7633 19.2854C17.509 18.3964 17.0416 17.5828 16.4018 16.9151C15.3474 15.8105 13.886 15.1865 12.3588 15.1887H12.3575Z" fill="#F0792E"/>
<path d="M26.0322 27.0602H16.4851C15.8457 27.0586 15.2758 26.646 15.06 26.0284C15.0075 25.8785 15.0671 25.7115 15.2016 25.632C15.8951 25.2191 16.4926 24.656 16.9524 23.9819C17.0131 23.8934 17.1121 23.8406 17.2176 23.8406H26.0322C26.8725 23.8391 27.556 24.5346 27.5616 25.3969V25.4854C27.5627 25.9024 27.402 26.3028 27.1151 26.5982C26.8282 26.8936 26.4386 27.0598 26.0322 27.0602ZM15.786 26.0389C15.949 26.2674 16.2091 26.4016 16.4851 26.3996H26.0322C26.5211 26.3989 26.9172 25.9924 26.9179 25.4907V25.3969C26.9169 25.1569 26.823 24.9271 26.6569 24.7581C26.4908 24.5891 26.2661 24.4948 26.0322 24.4959H17.3824C16.944 25.1036 16.4034 25.6262 15.786 26.0389Z" fill="#F0792E"/>
<path d="M26.0223 24.5563H17.1482C17.0282 24.5536 16.9194 24.4836 16.8652 24.3742C16.8109 24.2649 16.8201 24.1339 16.889 24.0336C17.3839 23.3127 17.7107 22.4856 17.8442 21.6159C17.8691 21.4551 18.0049 21.3366 18.1643 21.3367H26.0223C26.8705 21.3359 27.5592 22.0362 27.562 22.9021V22.9908C27.5578 23.8561 26.8699 24.5555 26.0223 24.5563ZM17.7379 23.8946H26.0223C26.5145 23.8939 26.9133 23.4867 26.914 22.9842V22.8955C26.9119 22.3947 26.5129 21.9902 26.0223 21.9917H18.4352C18.3023 22.6595 18.067 23.3017 17.7379 23.8946Z" fill="#F0792E"/>
<path d="M26.0602 22.0519H18.3691C18.2774 22.052 18.1902 22.0108 18.13 21.9388C18.0697 21.8669 18.0422 21.7713 18.0547 21.6767C18.0945 21.3865 18.1153 21.0939 18.1168 20.8008C18.1154 20.2767 18.0472 19.7551 17.914 19.2498C17.8874 19.1504 17.907 19.0438 17.967 18.9617C18.027 18.8797 18.1205 18.8318 18.2195 18.8323H26.0614C26.8897 18.8323 27.5611 19.532 27.5611 20.3952V20.4877C27.5576 21.35 26.8877 22.0482 26.0602 22.0519ZM18.7291 21.3913H26.0602C26.5419 21.3913 26.9323 20.9844 26.9323 20.4824V20.3952C26.9323 19.8968 26.5447 19.4928 26.0665 19.4928H18.6226C18.7073 19.9232 18.7498 20.3614 18.7494 20.8008C18.7557 20.9897 18.7494 21.1852 18.7291 21.3913Z" fill="#F0792E"/>
<path d="M26.0535 19.5482H18.2031C18.061 19.5488 17.9361 19.4503 17.8983 19.3079C17.6485 18.4006 17.1899 17.5702 16.5622 16.8885C16.4734 16.7932 16.448 16.6519 16.4979 16.5297C16.5478 16.4076 16.6632 16.3284 16.7908 16.3286H26.0535C26.4542 16.329 26.8384 16.4949 27.1214 16.7899C27.4044 17.0849 27.563 17.4848 27.5623 17.9014V17.9833C27.5596 18.8479 26.885 19.5475 26.0535 19.5482ZM18.433 18.8879H26.0535C26.5358 18.8872 26.9266 18.4808 26.9273 17.9793V17.9014C26.9266 17.3999 26.5358 16.9936 26.0535 16.9929H17.4792C17.8976 17.5649 18.2217 18.2053 18.4381 18.8879H18.433Z" fill="#F0792E"/>
<path d="M26.0418 17.0441H16.7118C16.6244 17.0442 16.5407 17.0076 16.4803 16.9425C16.1101 16.5451 15.6861 16.2049 15.2214 15.9326C15.1456 15.8886 15.0909 15.8141 15.0705 15.7269C15.0503 15.6455 15.0404 15.5618 15.041 15.4778V15.3907C15.0417 14.526 15.7218 13.8252 16.5609 13.8245H26.0418C26.8809 13.8252 27.5609 14.526 27.5616 15.3907V15.4778C27.5609 16.3425 26.8809 17.0433 26.0418 17.0441ZM16.8461 16.3848H26.0418C26.5279 16.3848 26.922 15.9787 26.922 15.4778V15.3907C26.922 14.8898 26.5279 14.4837 26.0418 14.4837H16.5609C16.0751 14.4844 15.6814 14.8901 15.6807 15.3907V15.4501C16.1041 15.7125 16.4954 16.0263 16.8461 16.3848Z" fill="#F0792E"/>
<path d="M26.2601 14.462H16.6366C15.7554 14.462 15.041 13.7587 15.041 12.8911C15.041 12.0234 15.7554 11.3201 16.6366 11.3201H26.2601C27.1414 11.3201 27.8558 12.0234 27.8558 12.8911C27.8558 13.7587 27.1414 14.462 26.2601 14.462ZM16.6366 11.9644C16.1169 11.9644 15.6955 12.3793 15.6955 12.8911C15.6955 13.4028 16.1169 13.8177 16.6366 13.8177H26.2601C26.7799 13.8177 27.2013 13.4028 27.2013 12.8911C27.2013 12.3793 26.7799 11.9644 26.2601 11.9644H16.6366ZM32.4057 26.7026C32.1905 26.7013 31.9777 26.6574 31.7801 26.5737C31.39 26.411 31.0822 26.1015 30.9253 25.7141L27.3309 16.9248C27.0899 16.3355 27.2331 15.6613 27.6938 15.2165C28.1545 14.7716 28.8419 14.6438 29.4357 14.8925C29.8258 15.0544 30.1337 15.3636 30.2904 15.7508L33.8849 24.54C34.214 25.3447 33.8185 26.2597 33.0013 26.584C32.8125 26.6613 32.6102 26.7016 32.4057 26.7026ZM28.8113 15.4144C28.4988 15.4152 28.2068 15.5682 28.0318 15.8232C27.8567 16.0781 27.8212 16.4018 27.9369 16.6877L31.5327 25.477C31.6247 25.7056 31.8063 25.8881 32.0366 25.9834C32.3869 26.1305 32.7926 26.0553 33.0646 25.7929C33.3365 25.5305 33.4211 25.1326 33.2788 24.7849L29.6844 15.9956C29.54 15.6455 29.1951 15.4159 28.8113 15.4144Z" fill="#F0792E"/>
<path d="M30.5382 12.2031C30.3599 12.2031 30.2153 12.0574 30.2153 11.8776C30.2146 10.907 29.4344 10.1204 28.4717 10.1197C28.2934 10.1197 28.1488 9.97398 28.1488 9.79419C28.1488 9.61441 28.2934 9.46866 28.4717 9.46866C29.4344 9.46794 30.2146 8.68134 30.2153 7.71079C30.2153 7.531 30.3599 7.38525 30.5382 7.38525C30.7166 7.38525 30.8611 7.531 30.8611 7.71079C30.8625 8.68104 31.6424 9.46723 32.6048 9.46866C32.7831 9.46866 32.9277 9.61441 32.9277 9.79419C32.9277 9.97398 32.7831 10.1197 32.6048 10.1197C31.6424 10.1212 30.8625 10.9073 30.8611 11.8776C30.8615 11.964 30.8276 12.047 30.7669 12.1082C30.7063 12.1693 30.624 12.2035 30.5382 12.2031ZM29.6703 9.79419C30.0299 10.0051 30.329 10.3066 30.5382 10.6692C30.7482 10.3072 31.0471 10.0058 31.4062 9.79419C31.0471 9.58255 30.7482 9.28118 30.5382 8.91916C30.329 9.28176 30.0299 9.5833 29.6703 9.79419ZM10.6336 32.4265C10.4552 32.4265 10.3107 32.2808 10.3107 32.101C10.3093 31.1307 9.52943 30.3445 8.56704 30.3431C8.38871 30.3431 8.24414 30.1973 8.24414 30.0176C8.24414 29.8378 8.38871 29.692 8.56704 29.692C9.52943 29.6906 10.3093 28.9044 10.3107 27.9342C10.3107 27.7544 10.4552 27.6086 10.6336 27.6086C10.8119 27.6086 10.9565 27.7544 10.9565 27.9342C10.9579 28.9044 11.7377 29.6906 12.7001 29.692C12.8784 29.692 13.023 29.8378 13.023 30.0176C13.023 30.1973 12.8784 30.3431 12.7001 30.3431C11.7377 30.3445 10.9579 31.1307 10.9565 32.101C10.9565 32.1873 10.9225 32.2701 10.8619 32.3312C10.8013 32.3922 10.7192 32.4265 10.6336 32.4265ZM9.76563 30.0176C10.1245 30.2277 10.4235 30.5278 10.6336 30.8887C10.8431 30.5264 11.1421 30.2249 11.5015 30.0137C11.1426 29.8035 10.8437 29.5034 10.6336 29.1425C10.424 29.5048 10.125 29.8063 9.76563 30.0176Z" fill="#F0792E"/>
<path fill-rule="evenodd" clip-rule="evenodd" d="M12.6418 26.735C15.9421 26.735 18.6175 24.0595 18.6175 20.7592C18.6175 17.4589 15.9421 14.7834 12.6418 14.7834C9.34145 14.7834 6.66602 17.4589 6.66602 20.7592C6.66602 24.0595 9.34145 26.735 12.6418 26.735ZM10.6475 21.3357L12.2077 24.0599H13.0497L11.473 21.4596C11.9133 21.399 12.2655 21.2587 12.5297 21.0386C12.7993 20.8129 12.9534 20.4992 12.9919 20.0975H14.0651V19.5692H12.9754C12.9259 19.2004 12.769 18.9088 12.5049 18.6941H14.0651V18.1658H10.6475V18.6941H10.8291C11.2474 18.6941 11.5721 18.7629 11.8032 18.9005C12.0399 19.0381 12.1857 19.261 12.2407 19.5692H10.6475V20.0975H12.249C12.2105 20.4277 12.0729 20.6561 11.8362 20.7827C11.6051 20.9092 11.2694 20.9725 10.8291 20.9725H10.6475V21.3357Z" fill="#F0792E"/>
</svg>
