<svg width="14" height="14" viewBox="0 0 14 14" fill="none" xmlns="http://www.w3.org/2000/svg">
<path d="M8.73189 14.0001C8.6806 14.0001 8.62992 13.9889 8.58338 13.9674C8.53683 13.9458 8.49554 13.9144 8.46236 13.8753L7.69909 12.9725C7.14445 13.038 6.58336 13.0253 6.03223 12.9349L5.22808 13.8023C5.1782 13.8562 5.11275 13.8931 5.04087 13.908C4.96898 13.9229 4.89426 13.9149 4.82712 13.8852L3.38229 13.2476C3.31512 13.2179 3.25884 13.168 3.22124 13.1048C3.18364 13.0417 3.16658 12.9684 3.17242 12.8951L3.27073 11.7172C2.83271 11.3707 2.4453 10.9645 2.11974 10.5106L0.937809 10.5559C0.864881 10.5583 0.792946 10.5385 0.731572 10.499C0.670199 10.4595 0.622303 10.4023 0.594279 10.3349L0.0243006 8.86306C-0.00254572 8.79456 -0.00727709 8.71937 0.0107492 8.64803C0.0287756 8.57669 0.0686595 8.51279 0.124823 8.46527L1.02839 7.70173C0.962582 7.14695 0.974848 6.58568 1.06484 6.03431L0.198836 5.22988C0.14475 5.1799 0.107671 5.11424 0.0928123 5.0421C0.0779533 4.96995 0.08606 4.89496 0.115991 4.82767L0.752243 3.38346C0.782057 3.31607 0.83211 3.25964 0.895456 3.22202C0.958802 3.18439 1.03229 3.16744 1.10571 3.17351L2.28322 3.27186C2.62899 2.83345 3.03466 2.44586 3.48833 2.12046L3.44416 0.938139C3.44098 0.865185 3.46051 0.793039 3.50009 0.731677C3.53966 0.670315 3.59732 0.622763 3.66508 0.595591L5.1364 0.0243177C5.20488 -0.00253782 5.28005 -0.0072843 5.35136 0.0107482C5.42268 0.0287807 5.48656 0.0686851 5.53406 0.124868L6.29845 1.02875C6.85304 0.962944 7.4141 0.975213 7.96529 1.06521L8.76833 0.198907C8.8183 0.144801 8.88394 0.10771 8.95606 0.0928462C9.02817 0.077982 9.10314 0.0860916 9.17041 0.116033L10.6152 0.752503C10.6824 0.782501 10.7386 0.832648 10.776 0.896001C10.8134 0.959354 10.8302 1.03277 10.824 1.10609L10.7257 2.28401C11.164 2.63016 11.5518 3.03593 11.8778 3.48954L13.0586 3.44534C13.1315 3.44289 13.2035 3.46272 13.2649 3.5022C13.3262 3.54169 13.3741 3.59894 13.4021 3.66634L13.9732 5.13817C13.9996 5.20683 14.004 5.282 13.9858 5.35327C13.9676 5.42454 13.9277 5.48839 13.8716 5.53596L12.9691 6.30061C13.0346 6.85544 13.0219 7.41671 12.9316 7.96803L13.7987 8.77135C13.8525 8.82151 13.8894 8.88718 13.9042 8.95924C13.9191 9.03131 13.9111 9.1062 13.8815 9.17356L13.2442 10.6189C13.2149 10.6864 13.1651 10.7429 13.1018 10.7804C13.0386 10.8179 12.965 10.8345 12.8918 10.8277L11.7143 10.7294C11.3681 11.1674 10.9625 11.555 10.5092 11.8808L10.5545 13.062C10.5577 13.1351 10.5382 13.2074 10.4987 13.269C10.4591 13.3305 10.4014 13.3783 10.3336 13.4056L8.86222 13.9769C8.82052 13.9924 8.77638 14.0003 8.73189 14.0001ZM7.90012 12.4531L8.77386 13.4874L10.0629 12.9869L10.0121 11.6333L10.1226 11.557C10.6152 11.2202 11.0495 10.8052 11.4083 10.3283L11.4901 10.2178L12.8377 10.3283L13.3966 9.06306L12.4025 8.14261L12.4279 8.01002C12.5377 7.42312 12.5512 6.82222 12.4676 6.231L12.4489 6.0973L13.4817 5.22215L12.9824 3.93264L11.6293 3.98457L11.553 3.87408C11.2164 3.38127 10.8015 2.94681 10.3247 2.58788L10.2143 2.50721L10.3247 1.15803L9.05995 0.600015L8.13982 1.5945L8.00726 1.56908C7.4205 1.45956 6.81982 1.4465 6.22886 1.53041L6.0952 1.54919L5.22035 0.51493L3.93128 1.01548L3.9832 2.36799L3.87274 2.44533C3.38039 2.78202 2.94612 3.19666 2.58699 3.67297L2.50635 3.78347L1.15762 3.67297L0.599807 4.93927L1.59395 5.85862L1.56964 5.99232C1.45924 6.57879 1.44581 7.17941 1.52987 7.77023L1.54866 7.90504L0.514751 8.77908L1.01514 10.0686L2.36717 10.0178L2.44449 10.1283C2.78163 10.6204 3.19691 11.0541 3.67391 11.4123L3.78437 11.494L3.67391 12.8421L4.93978 13.4012L5.85882 12.4067L5.99247 12.4321C6.5788 12.542 7.17912 12.5555 7.76977 12.4719L7.90012 12.4531ZM7.03852 11.0465C6.38956 11.0459 5.75016 10.8901 5.17369 10.5919C4.59721 10.2938 4.10039 9.86203 3.72472 9.33268C3.70608 9.30634 3.69281 9.27659 3.68567 9.24512C3.67852 9.21366 3.67764 9.18109 3.68308 9.14928C3.68852 9.11747 3.70015 9.08704 3.71734 9.05974C3.73453 9.03243 3.75694 9.00878 3.78326 8.99014C3.80959 8.97149 3.83933 8.95822 3.87079 8.95107C3.90225 8.94392 3.93481 8.94303 3.96661 8.94847C3.9984 8.95391 4.02882 8.96556 4.05611 8.98276C4.08341 8.99996 4.10705 9.02236 4.12569 9.0487C4.58053 9.69126 5.23518 10.1652 5.98752 10.3965C6.73986 10.6278 7.54758 10.6035 8.28468 10.3275C9.02178 10.0514 9.64682 9.53902 10.0623 8.8703C10.4777 8.20158 10.6603 7.41411 10.5814 6.63073C10.5025 5.84735 10.1667 5.11211 9.62622 4.53971C9.08579 3.96731 8.37117 3.58992 7.59383 3.46644C6.8165 3.34295 6.02017 3.48031 5.32906 3.85707C4.63795 4.23384 4.09093 4.82883 3.77333 5.54922C3.6706 5.78158 3.59284 6.02419 3.54136 6.27299C3.53484 6.30455 3.52216 6.33451 3.50405 6.36117C3.48595 6.38783 3.46276 6.41067 3.43584 6.42837C3.40891 6.44607 3.37877 6.45828 3.34713 6.46433C3.31548 6.47037 3.28296 6.47013 3.25141 6.4636C3.21986 6.45707 3.1899 6.44439 3.16325 6.42628C3.1366 6.40817 3.11376 6.38498 3.09607 6.35804C3.07838 6.33111 3.06617 6.30095 3.06012 6.2693C3.05408 6.23764 3.05432 6.2051 3.06085 6.17354C3.11963 5.8911 3.20774 5.61557 3.32375 5.35143C3.61935 4.68487 4.0893 4.11045 4.68402 3.68877C5.27874 3.26709 5.97618 3.01377 6.70281 2.95553C7.42945 2.89728 8.15832 3.03627 8.81258 3.35784C9.46683 3.67941 10.0222 4.17164 10.4201 4.78262C10.8181 5.39359 11.0438 6.10066 11.0735 6.82927C11.1033 7.55787 10.9359 8.281 10.5891 8.92238C10.2423 9.56377 9.72884 10.0997 9.10296 10.4735C8.47709 10.8473 7.76197 11.0453 7.03301 11.0465H7.03852Z" fill="#90B9E7"/>
</svg>
