<svg width="16" height="17" viewBox="0 0 16 17" fill="none" xmlns="http://www.w3.org/2000/svg">
<path d="M12.1491 8.08938L12.0455 8.03425L11.9651 8.11964C11.7094 8.39111 11.4223 8.64146 11.0927 8.86745L10.8742 9.01717L11.1126 9.13245C13.0077 10.0488 14.2692 11.7617 14.2692 13.7033C14.2692 13.9029 14.1394 14.12 13.8346 14.3408C13.5327 14.5595 13.0847 14.7618 12.5141 14.9338C11.3747 15.2772 9.78169 15.4892 7.98766 15.4892C6.19364 15.4892 4.60062 15.2772 3.46125 14.9338C2.8906 14.7618 2.44262 14.5595 2.14069 14.3408C1.83589 14.12 1.70614 13.9029 1.70614 13.7033C1.70614 11.7617 2.9676 10.0488 4.86269 9.13245L5.10107 9.01718L4.88268 8.86746C4.55303 8.64146 4.266 8.39114 4.01023 8.11964L3.92979 8.03425L3.82623 8.08938C1.63081 9.25812 0.153414 11.3312 0.153414 13.7033C0.153414 14.089 0.280045 14.5445 0.690936 14.9885C1.09868 15.4291 1.77929 15.851 2.87469 16.191C4.24092 16.6151 6.05687 16.8464 7.98771 16.8464C9.91854 16.8464 11.7345 16.6151 13.1007 16.191C14.1961 15.851 14.8767 15.4291 15.2845 14.9885C15.6954 14.5445 15.822 14.089 15.822 13.7033C15.8219 11.3312 14.3445 9.25812 12.1491 8.08938Z" fill="white" stroke="white" stroke-width="0.3"/>
<path d="M7.98789 9.0706C10.4963 9.0706 12.4261 7.02636 12.4261 4.61215C12.4261 2.19682 10.4953 0.153664 7.98789 0.153664C5.47947 0.153664 3.54971 2.1979 3.54971 4.61211C3.54971 7.02745 5.4805 9.0706 7.98789 9.0706ZM7.98789 1.51084C9.56902 1.51084 10.8733 2.8921 10.8733 4.61211C10.8733 6.33213 9.56902 7.71338 7.98789 7.71338C6.40677 7.71338 5.10244 6.33213 5.10244 4.61211C5.10244 2.8921 6.40677 1.51084 7.98789 1.51084Z" fill="white" stroke="white" stroke-width="0.3"/>
</svg>
