<svg width="304" height="168" viewBox="0 0 304 168" fill="none" xmlns="http://www.w3.org/2000/svg">
<g filter="url(#filter0_d_7_39190)">
<rect width="304" height="168" rx="10" fill="white"/>
<rect x="0.5" y="0.5" width="303" height="167" rx="9.5" stroke="#F0792E"/>
</g>
<path d="M31.5 11.0327C31.5 12.127 30.6029 13.2513 28.8469 14.1319C27.1205 14.9977 24.7004 15.5477 22 15.5477C19.2996 15.5477 16.8795 14.9977 15.1531 14.1319C13.3971 13.2513 12.5 12.127 12.5 11.0327C12.5 9.93854 13.3971 8.8142 15.1531 7.93361C16.8795 7.0678 19.2996 6.51782 22 6.51782C24.7004 6.51782 27.1205 7.0678 28.8469 7.93361C30.6029 8.8142 31.5 9.93854 31.5 11.0327Z" fill="white" stroke="#F0792E"/>
<g filter="url(#filter1_d_7_39190)">
<ellipse cx="22" cy="11.0329" rx="6" ry="3.00896" fill="#F0792E"/>
<path d="M27.5 11.0329C27.5 11.5732 27.0506 12.196 26.0185 12.7136C25.0159 13.2164 23.5959 13.5418 22 13.5418C20.4041 13.5418 18.9841 13.2164 17.9815 12.7136C16.9494 12.196 16.5 11.5732 16.5 11.0329C16.5 10.4926 16.9494 9.86976 17.9815 9.35217C18.9841 8.84938 20.4041 8.52393 22 8.52393C23.5959 8.52393 25.0159 8.84938 26.0185 9.35217C27.0506 9.86976 27.5 10.4926 27.5 11.0329Z" stroke="#F0792E"/>
</g>
<path opacity="0.5" d="M0 21.0627L304 21.0628" stroke="#434B53" stroke-opacity="0.25"/>
<defs>
<filter id="filter0_d_7_39190" x="-20" y="-16" width="344" height="208" filterUnits="userSpaceOnUse" color-interpolation-filters="sRGB">
<feFlood flood-opacity="0" result="BackgroundImageFix"/>
<feColorMatrix in="SourceAlpha" type="matrix" values="0 0 0 0 0 0 0 0 0 0 0 0 0 0 0 0 0 0 127 0" result="hardAlpha"/>
<feOffset dy="4"/>
<feGaussianBlur stdDeviation="10"/>
<feColorMatrix type="matrix" values="0 0 0 0 0.9375 0 0 0 0 0.9375 0 0 0 0 0.9375 0 0 0 0.12 0"/>
<feBlend mode="normal" in2="BackgroundImageFix" result="effect1_dropShadow_7_39190"/>
<feBlend mode="normal" in="SourceGraphic" in2="effect1_dropShadow_7_39190" result="shape"/>
</filter>
<filter id="filter1_d_7_39190" x="12" y="8.02393" width="20" height="14.0178" filterUnits="userSpaceOnUse" color-interpolation-filters="sRGB">
<feFlood flood-opacity="0" result="BackgroundImageFix"/>
<feColorMatrix in="SourceAlpha" type="matrix" values="0 0 0 0 0 0 0 0 0 0 0 0 0 0 0 0 0 0 127 0" result="hardAlpha"/>
<feOffset dy="4"/>
<feGaussianBlur stdDeviation="2"/>
<feColorMatrix type="matrix" values="0 0 0 0 0.941667 0 0 0 0 0.937743 0 0 0 0 0.937743 0 0 0 0.25 0"/>
<feBlend mode="normal" in2="BackgroundImageFix" result="effect1_dropShadow_7_39190"/>
<feBlend mode="normal" in="SourceGraphic" in2="effect1_dropShadow_7_39190" result="shape"/>
</filter>
</defs>
</svg>
