<svg width="1" height="13" viewBox="0 0 1 13" fill="none" xmlns="http://www.w3.org/2000/svg">
<path d="M0.200037 13.0001H0.193475C0.167268 12.9994 0.141455 12.9935 0.11753 12.9828C0.0936039 12.972 0.0720376 12.9567 0.0540659 12.9376C0.0360942 12.9185 0.0220786 12.896 0.0128191 12.8715C0.00355965 12.847 -0.000763463 12.8208 0.000110347 12.7946L0.0186867 12.1935C0.0190935 12.1671 0.0248162 12.1411 0.0355028 12.1169C0.0461895 12.0928 0.0616158 12.071 0.0808836 12.053C0.100151 12.0349 0.122868 12.0209 0.147655 12.0118C0.172441 12.0028 0.198796 11.9988 0.225161 12.0001C0.251419 12.0009 0.277254 12.0069 0.301187 12.0178C0.325119 12.0286 0.346679 12.0441 0.364637 12.0633C0.382595 12.0825 0.396597 12.105 0.405844 12.1296C0.41509 12.1542 0.419401 12.1804 0.418526 12.2066L0.399949 12.8066C0.398248 12.8585 0.376435 12.9077 0.339126 12.9438C0.301817 12.9799 0.251942 13.0001 0.200037 13.0001ZM0.2623 11.0001H0.255752C0.229544 10.9994 0.203732 10.9935 0.179807 10.9828C0.155881 10.9721 0.134314 10.9567 0.116343 10.9376C0.0983711 10.9185 0.0843421 10.896 0.0750827 10.8715C0.0658232 10.847 0.0615134 10.8208 0.0623873 10.7946L0.0809636 10.1935C0.0827021 10.1405 0.105426 10.0903 0.144147 10.054C0.182868 10.0178 0.234403 9.99836 0.287424 10.0001C0.340446 10.0018 0.390611 10.0246 0.426874 10.0633C0.463136 10.1021 0.482528 10.1536 0.480789 10.2067L0.462226 10.8067C0.459973 10.8582 0.43792 10.9068 0.40067 10.9425C0.363419 10.9781 0.313842 10.998 0.2623 10.9979V11.0001ZM0.324577 9.00011H0.318016C0.291808 8.99941 0.265996 8.99352 0.24207 8.9828C0.218144 8.97207 0.196578 8.95672 0.178606 8.93763C0.160635 8.91853 0.146619 8.89607 0.13736 8.87153C0.1281 8.84699 0.123777 8.82086 0.124651 8.79465L0.143227 8.19356C0.143488 8.16721 0.149063 8.14118 0.15963 8.11703C0.170197 8.09289 0.185536 8.07113 0.204717 8.05306C0.223899 8.035 0.246536 8.021 0.271262 8.0119C0.295987 8.0028 0.322296 7.99879 0.348608 8.00012C0.401733 8.00183 0.452015 8.02453 0.488457 8.06324C0.524899 8.10195 0.544538 8.15352 0.543066 8.20668L0.52449 8.80667C0.522519 8.85848 0.500624 8.90752 0.463373 8.94357C0.426123 8.97961 0.3764 8.99987 0.324577 9.00011ZM0.385747 7.00013C0.359396 6.99943 0.333446 6.99351 0.309388 6.98273C0.28533 6.97195 0.263637 6.95652 0.245564 6.93732C0.227491 6.91813 0.213392 6.89554 0.204077 6.87087C0.194763 6.8462 0.190415 6.81993 0.191288 6.79357L0.209865 6.19358C0.212138 6.14072 0.235035 6.09086 0.273635 6.0547C0.312236 6.01853 0.363467 5.99895 0.416339 6.00014C0.442597 6.00099 0.468432 6.007 0.492365 6.01784C0.516297 6.02869 0.537857 6.04414 0.555815 6.06332C0.573773 6.08251 0.587775 6.10504 0.597022 6.12964C0.606268 6.15425 0.610579 6.18043 0.609704 6.2067L0.591127 6.80669C0.589415 6.85955 0.566847 6.90957 0.528357 6.94582C0.489868 6.98208 0.43859 7.0016 0.385747 7.00013ZM0.448024 5.00015H0.441463C0.415205 4.9993 0.389369 4.99329 0.365437 4.98244C0.341505 4.9716 0.319945 4.95615 0.301987 4.93697C0.284029 4.91778 0.270026 4.89525 0.26078 4.87064C0.251534 4.84604 0.247223 4.81986 0.248098 4.79359L0.266674 4.1936C0.266928 4.16715 0.272536 4.14102 0.28317 4.1168C0.293805 4.09258 0.309238 4.07077 0.328538 4.05269C0.347838 4.03461 0.370615 4.02063 0.395469 4.0116C0.420323 4.00257 0.446747 3.99868 0.473148 4.00016C0.499406 4.00101 0.525242 4.00702 0.549174 4.01786C0.573106 4.0287 0.594666 4.04416 0.612624 4.06334C0.630583 4.08253 0.644585 4.10506 0.653831 4.12966C0.663078 4.15426 0.667388 4.18044 0.666513 4.20671L0.647937 4.80671C0.646235 4.85861 0.624423 4.90781 0.587114 4.94391C0.549805 4.98001 0.499929 5.00018 0.448024 5.00015ZM0.510288 3.00017H0.50374C0.477482 2.99932 0.451646 2.9933 0.427714 2.98246C0.403782 2.97162 0.382222 2.95617 0.364264 2.93698C0.346305 2.9178 0.332303 2.89526 0.323057 2.87066C0.31381 2.84606 0.3095 2.81988 0.310375 2.79361L0.328938 2.19362C0.329494 2.16726 0.335323 2.14128 0.346061 2.1172C0.356798 2.09312 0.372232 2.07143 0.391468 2.05341C0.410704 2.03539 0.433346 2.0214 0.458066 2.01226C0.482785 2.00311 0.509083 1.99901 0.535412 2.00018C0.56167 2.00103 0.587505 2.00704 0.611438 2.01788C0.63537 2.02872 0.65693 2.04418 0.674888 2.06336C0.692846 2.08254 0.706848 2.10508 0.716095 2.12968C0.725341 2.15428 0.729652 2.18046 0.728777 2.20673L0.7102 2.80673C0.708505 2.85844 0.686852 2.90748 0.649777 2.94355C0.612702 2.97962 0.563097 2.99991 0.511381 3.00017H0.510288ZM0.572564 1.00019H0.566003C0.539745 0.99934 0.51391 0.993324 0.489978 0.982482C0.466045 0.97164 0.444485 0.956186 0.426527 0.937003C0.408569 0.917819 0.394567 0.895283 0.38532 0.870682C0.376074 0.846081 0.371763 0.819899 0.372638 0.793632L0.391215 0.193637C0.391771 0.167277 0.397586 0.141294 0.408324 0.117217C0.419062 0.0931389 0.434509 0.0714526 0.453745 0.0534304C0.472981 0.0354083 0.495623 0.021414 0.520343 0.0122721C0.545062 0.0031302 0.57136 -0.000975921 0.597689 0.000195274C0.623947 0.0010424 0.649782 0.00705868 0.673714 0.0179003C0.697647 0.0287419 0.719207 0.0441961 0.737165 0.0633794C0.755123 0.0825628 0.769125 0.1051 0.778372 0.1297C0.787618 0.154301 0.791929 0.180483 0.791054 0.206751L0.772477 0.806746C0.770776 0.858644 0.748963 0.907845 0.711654 0.943945C0.674345 0.980045 0.62447 1.00021 0.572564 1.00019Z" fill="#90B9E7"/>
</svg>
