<svg width="23" height="26" viewBox="0 0 23 26" fill="none" xmlns="http://www.w3.org/2000/svg">
<path d="M18.1052 20.7074C16.4299 23.7268 13.2462 25.6024 9.79656 25.6024C4.56079 25.6024 0.301089 21.3427 0.301089 16.1068C0.301089 12.0539 2.83074 8.49347 6.62725 7.15338L4.91399 0.700322C4.88869 0.604838 4.90916 0.503123 4.9693 0.424929C5.02944 0.346736 5.12251 0.300837 5.22117 0.300837H14.3718C14.4705 0.300837 14.5636 0.346609 14.6238 0.424929C14.6841 0.50325 14.7044 0.604838 14.6791 0.700322L12.9659 7.15363C14.9356 7.85127 16.6359 9.1939 17.7771 10.9599C17.8724 11.1074 17.8301 11.3041 17.6827 11.3993C17.5354 11.4947 17.3386 11.4524 17.2431 11.3049C16.1265 9.57712 14.4369 8.28368 12.4858 7.66271C12.3242 7.61135 12.2314 7.44212 12.2749 7.27823L13.9586 0.936555H10.1144V3.6629C10.1144 3.83848 9.97215 3.98076 9.79656 3.98076C9.62098 3.98076 9.47871 3.83848 9.47871 3.6629V0.936555H5.63451L7.31815 7.27823C7.36164 7.44212 7.26882 7.61135 7.10735 7.66271C3.41662 8.83714 0.936808 12.2306 0.936808 16.1068C0.936808 20.9922 4.91132 24.9667 9.79656 24.9667C13.0152 24.9667 15.9859 23.2165 17.5493 20.399C17.6345 20.2454 17.8279 20.1901 17.9814 20.2752C18.1349 20.3604 18.1903 20.5539 18.1052 20.7074ZM22.6995 15.8222C22.6995 17.8763 21.0283 19.5475 18.9742 19.5475C16.92 19.5475 15.2489 17.8763 15.2489 15.8222C15.2489 13.768 16.92 12.0969 18.9742 12.0969C21.0283 12.0969 22.6995 13.768 22.6995 15.8222ZM22.0638 15.8222C22.0638 14.1186 20.6778 12.7326 18.9742 12.7326C17.2706 12.7326 15.8846 14.1186 15.8846 15.8222C15.8846 17.5258 17.2706 18.9118 18.9742 18.9118C20.6778 18.9118 22.0638 17.5258 22.0638 15.8222ZM20.6818 14.5847C20.5494 14.4696 20.3485 14.4837 20.2334 14.6162L18.579 16.5203L17.748 15.5784C17.6319 15.4468 17.431 15.4342 17.2994 15.5503C17.1677 15.6664 17.1553 15.8673 17.2713 15.9989L18.3425 17.213C18.4029 17.2814 18.4896 17.3206 18.5808 17.3206H18.5821C18.6736 17.3202 18.7607 17.2804 18.8208 17.2112L20.7134 15.0331C20.8286 14.9006 20.8145 14.6999 20.6818 14.5847Z" fill="#F0792E" stroke="#F0792E" stroke-width="0.581481"/>
</svg>
