<svg width="68" height="10" viewBox="0 0 68 10" fill="none" xmlns="http://www.w3.org/2000/svg">
<path opacity="0.35" d="M48.8335 2.6971C48.8335 1.48782 49.8138 0.507511 51.0231 0.507511H63.4227C64.632 0.507511 65.6123 1.48782 65.6123 2.6971V6.47157C65.6123 7.68085 64.632 8.66116 63.4227 8.66116H51.0231C49.8138 8.66116 48.8335 7.68085 48.8335 6.47157V2.6971Z" stroke="black"/>
<path opacity="0.4" d="M66.9263 2.9671V6.20153C67.577 5.92759 68.0001 5.29034 68.0001 4.58432C68.0001 3.87829 67.577 3.24104 66.9263 2.9671Z" fill="black"/>
<path d="M49.9453 2.96693C49.9453 2.22276 50.5485 1.61949 51.2927 1.61949H63.1528C63.8969 1.61949 64.5002 2.22276 64.5002 2.96693V6.20185C64.5002 6.94602 63.8969 7.54929 63.1528 7.54929H51.2927C50.5485 7.54929 49.9453 6.94602 49.9453 6.20185V2.96693Z" fill="black"/>
<path fill-rule="evenodd" clip-rule="evenodd" d="M31.0379 1.84147C32.8296 1.84154 34.5529 2.53002 35.8515 3.76461C35.9493 3.85992 36.1056 3.85872 36.2019 3.76191L37.1367 2.81853C37.1854 2.76943 37.2126 2.70292 37.2122 2.63372C37.2118 2.56452 37.1838 2.49834 37.1345 2.44981C33.7261 -0.816603 28.349 -0.816603 24.9407 2.44981C24.8913 2.4983 24.8633 2.56447 24.8628 2.63367C24.8624 2.70287 24.8895 2.7694 24.9383 2.81853L25.8733 3.76191C25.9695 3.85886 26.1259 3.86007 26.2237 3.76461C27.5224 2.52994 29.2459 1.84146 31.0379 1.84147ZM31.0378 4.91066C32.0223 4.9106 32.9716 5.27653 33.7014 5.93733C33.8001 6.03111 33.9556 6.02908 34.0518 5.93275L34.9855 4.98937C35.0346 4.93989 35.0619 4.87276 35.0612 4.803C35.0605 4.73325 35.0319 4.66669 34.9817 4.61822C32.7595 2.55111 29.3181 2.55111 27.0959 4.61822C27.0457 4.66669 27.017 4.73328 27.0164 4.80306C27.0157 4.87284 27.0431 4.93996 27.0924 4.98937L28.0258 5.93275C28.122 6.02908 28.2775 6.03111 28.3762 5.93733C29.1054 5.27696 30.054 4.91107 31.0378 4.91066ZM32.9081 6.9757C32.9096 7.04565 32.8821 7.11309 32.8321 7.16209L31.2171 8.79198C31.1697 8.83988 31.1052 8.86684 31.0378 8.86684C30.9705 8.86684 30.9059 8.83988 30.8586 8.79198L29.2433 7.16209C29.1934 7.11305 29.1659 7.04559 29.1674 6.97564C29.1689 6.90569 29.1991 6.83945 29.2511 6.79256C30.2825 5.92017 31.7931 5.92017 32.8246 6.79256C32.8765 6.83949 32.9067 6.90575 32.9081 6.9757Z" fill="black"/>
<path fill-rule="evenodd" clip-rule="evenodd" d="M12.9377 0.271643H12.1291C11.6825 0.271643 11.3205 0.633669 11.3205 1.08025V8.08819C11.3205 8.53477 11.6825 8.8968 12.1291 8.8968H12.9377C13.3843 8.8968 13.7463 8.53477 13.7463 8.08819V1.08025C13.7463 0.633669 13.3843 0.271643 12.9377 0.271643ZM8.35564 2.1584H9.16425C9.61083 2.1584 9.97286 2.52043 9.97286 2.96701V8.0882C9.97286 8.53478 9.61083 8.89681 9.16425 8.89681H8.35564C7.90906 8.89681 7.54703 8.53478 7.54703 8.0882V2.96701C7.54703 2.52043 7.90906 2.1584 8.35564 2.1584ZM5.39073 4.04514H4.58212C4.13554 4.04514 3.77351 4.40717 3.77351 4.85375V8.08818C3.77351 8.53476 4.13554 8.89679 4.58212 8.89679H5.39073C5.83731 8.89679 6.19934 8.53476 6.19934 8.08818V4.85375C6.19934 4.40717 5.83731 4.04514 5.39073 4.04514ZM1.61722 5.66236H0.808608C0.362026 5.66236 0 6.02438 0 6.47097V8.08818C0 8.53476 0.362026 8.89679 0.808608 8.89679H1.61722C2.0638 8.89679 2.42583 8.53476 2.42583 8.08818V6.47097C2.42583 6.02438 2.0638 5.66236 1.61722 5.66236Z" fill="black"/>
</svg>
