<svg width="20" height="14" viewBox="0 0 20 14" fill="none" xmlns="http://www.w3.org/2000/svg">
<path opacity="0.8" d="M19.5787 4.0777C19.5067 3.96439 19.4098 3.86893 19.2955 3.79854C19.1812 3.72815 19.0524 3.68467 18.9188 3.67139L4.89793 2.12718L4.62289 1.07141C4.56755 0.88096 4.45697 0.711207 4.30516 0.58364C4.15335 0.456072 3.96712 0.37642 3.77004 0.354763L1.11554 0.0103062C0.532402 -0.0654108 0.0494759 0.284377 0.00363512 0.786669C-0.0422056 1.28896 0.350106 1.72087 0.920451 1.78912L2.89053 2.02587L5.82861 13.3301C5.88214 13.5247 5.99868 13.6959 6.15995 13.8171C6.32123 13.9383 6.51814 14.0026 6.71984 13.9998L17.1001 13.7748C17.3217 13.7718 17.5334 13.6826 17.6904 13.5262C17.8474 13.3697 17.9374 13.1582 17.9412 12.9366C17.9467 12.8246 17.929 12.7126 17.8891 12.6077C17.8493 12.5029 17.7882 12.4074 17.7097 12.3273C17.6312 12.2472 17.537 12.1841 17.4331 12.1422C17.3291 12.1002 17.2175 12.0802 17.1054 12.0834L7.51085 12.1901L7.00447 10.2129L17.3453 10.4699C17.539 10.4654 17.7262 10.3992 17.8796 10.2808C18.033 10.1625 18.1446 9.99818 18.1981 9.81193L19.6821 4.83167C19.7188 4.70578 19.7285 4.57357 19.7107 4.44365C19.6929 4.31374 19.6479 4.18905 19.5787 4.0777ZM6.7209 13.5274V13.056V13.5274ZM17.3005 9.52612L6.53328 9.25844L5.17298 3.25974L17.9967 4.65571L17.3005 9.52612Z" fill="white"/>
</svg>
