<svg width="27" height="27" viewBox="0 0 27 27" fill="none" xmlns="http://www.w3.org/2000/svg">
<path d="M24.969 7.32578L24.9682 7.30477C24.9565 7.04543 24.9486 6.77104 24.9439 6.46576C24.9219 4.97705 23.7384 3.74562 22.2495 3.6624C19.1452 3.48916 16.7437 2.47691 14.6918 0.476925L14.6743 0.46024C14.0051 -0.153413 12.9955 -0.153413 12.326 0.46024L12.3085 0.476925C10.2566 2.47691 7.85513 3.48916 4.75081 3.66261C3.2621 3.74562 2.07847 4.97705 2.05642 6.46597C2.05189 6.76919 2.04386 7.04357 2.03212 7.30477L2.03088 7.35359C1.97053 10.5191 1.89554 14.4587 3.21349 18.0345C3.93817 20.0009 5.0357 21.7103 6.47539 23.1154C8.11509 24.7155 10.2628 25.9859 12.8587 26.891C12.9432 26.9205 13.0309 26.9444 13.1203 26.9623C13.2464 26.9874 13.3733 27 13.5002 27C13.6271 27 13.7542 26.9874 13.88 26.9623C13.9694 26.9444 14.0578 26.9203 14.1427 26.8906C16.7355 25.9838 18.8809 24.7128 20.5192 23.1129C21.9582 21.7074 23.0558 19.9977 23.7811 18.0308C25.104 14.4443 25.0292 10.4973 24.969 7.32578ZM22.2946 17.4827C20.9046 21.2515 18.067 23.8398 13.6198 25.3951C13.604 25.4004 13.5871 25.4052 13.5696 25.4087C13.5236 25.4177 13.4769 25.4177 13.4303 25.4085C13.413 25.405 13.3961 25.4004 13.3805 25.3951C8.92856 23.8427 6.08915 21.2559 4.70014 17.4868C3.4854 14.1907 3.5542 10.5743 3.61497 7.38387L3.61538 7.36616C3.62774 7.09198 3.63598 6.80483 3.64051 6.48925C3.6504 5.82821 4.17692 5.2813 4.83919 5.24443C6.59589 5.14638 8.13919 4.8069 9.55725 4.20664C10.9735 3.6072 12.2312 2.76221 13.4021 1.62348C13.4616 1.57322 13.5389 1.57301 13.5982 1.62348C14.7693 2.76221 16.0271 3.6072 17.4431 4.20664C18.8611 4.8069 20.4044 5.14638 22.1614 5.24443C22.8236 5.2813 23.3501 5.82821 23.3598 6.48945C23.3646 6.80668 23.3728 7.09383 23.3852 7.36616C23.4457 10.5603 23.5129 14.1796 22.2946 17.4827Z" fill="#20446C"/>
<path d="M20.0357 8.467H6.6794C5.85991 8.467 5.19375 9.1332 5.19375 9.95265V13.9596C5.19375 14.779 5.85991 15.4452 6.6794 15.4452H20.0358C20.8552 15.4452 21.5214 14.779 21.5214 13.9596V9.95265C21.5214 9.1332 20.8552 8.467 20.0357 8.467ZM20.5536 13.9596C20.5536 14.2449 20.3211 14.4774 20.0358 14.4774H6.6794C6.3941 14.4774 6.16159 14.2449 6.16159 13.9596V9.95265C6.16159 9.66736 6.3941 9.43484 6.6794 9.43484H20.0358C20.3211 9.43484 20.5536 9.66736 20.5536 9.95265V13.9596Z" fill="#20446C" stroke="#20446C" stroke-width="0.3"/>
<path d="M9.5065 11.2882C9.41391 11.1278 9.2088 11.074 9.05031 11.1659L8.6838 11.3775V10.9543C8.6838 10.7697 8.53445 10.6204 8.34988 10.6204C8.16532 10.6204 8.01596 10.7697 8.01596 10.9543V11.3775L7.64946 11.1659C7.48999 11.074 7.28555 11.1278 7.19326 11.2882C7.10098 11.448 7.15576 11.6521 7.31554 11.7444L7.68201 11.956L7.31554 12.1676C7.15576 12.2599 7.10098 12.464 7.19326 12.6238C7.25522 12.7311 7.36741 12.7908 7.48283 12.7908C7.53958 12.7908 7.59696 12.7764 7.64946 12.7461L8.01596 12.5345V12.9577C8.01596 13.1423 8.16532 13.2917 8.34988 13.2917C8.53445 13.2917 8.6838 13.1423 8.6838 12.9577V12.5345L9.05031 12.7461C9.10281 12.7764 9.16019 12.7908 9.21694 12.7908C9.33239 12.7908 9.44455 12.7311 9.5065 12.6238C9.59879 12.464 9.54401 12.2599 9.38423 12.1676L9.01775 11.956L9.38423 11.7444C9.54401 11.6521 9.59879 11.448 9.5065 11.2882Z" fill="#F0792E"/>
<path d="M12.8444 11.2882C12.7515 11.1278 12.547 11.074 12.3882 11.1659L12.0217 11.3775V10.9543C12.0217 10.7697 11.8723 10.6204 11.6878 10.6204C11.5032 10.6204 11.3539 10.7697 11.3539 10.9543V11.3775L10.9873 11.1659C10.8276 11.074 10.6231 11.1278 10.5312 11.2882C10.4389 11.448 10.4937 11.6521 10.6534 11.7444L11.0199 11.956L10.6534 12.1676C10.4937 12.2599 10.4389 12.464 10.5312 12.6238C10.5931 12.7311 10.7053 12.7908 10.8207 12.7908C10.8775 12.7908 10.9349 12.7764 10.9873 12.7461L11.3539 12.5345V12.9577C11.3539 13.1423 11.5032 13.2917 11.6878 13.2917C11.8723 13.2917 12.0217 13.1423 12.0217 12.9577V12.5345L12.3882 12.7461C12.4407 12.7764 12.4981 12.7908 12.5548 12.7908C12.6703 12.7908 12.7824 12.7311 12.8444 12.6238C12.9367 12.464 12.8819 12.2599 12.7221 12.1676L12.3556 11.956L12.7221 11.7444C12.8819 11.6521 12.9367 11.448 12.8444 11.2882Z" fill="#F0792E"/>
<path d="M16.1842 11.2882C16.0916 11.1278 15.8865 11.074 15.728 11.1659L15.3615 11.3775V10.9543C15.3615 10.7697 15.2122 10.6204 15.0276 10.6204C14.8431 10.6204 14.6937 10.7697 14.6937 10.9543V11.3775L14.3272 11.1659C14.1677 11.074 13.9633 11.1278 13.871 11.2882C13.7787 11.448 13.8335 11.6521 13.9933 11.7444L14.3597 11.956L13.9933 12.1676C13.8335 12.2599 13.7787 12.464 13.871 12.6238C13.9329 12.7311 14.0451 12.7908 14.1606 12.7908C14.2173 12.7908 14.2747 12.7764 14.3272 12.7461L14.6937 12.5345V12.9577C14.6937 13.1423 14.8431 13.2917 15.0276 13.2917C15.2122 13.2917 15.3615 13.1423 15.3615 12.9577V12.5345L15.728 12.7461C15.7805 12.7764 15.8379 12.7908 15.8947 12.7908C16.0101 12.7908 16.1223 12.7311 16.1842 12.6238C16.2765 12.464 16.2217 12.2599 16.062 12.1676L15.6955 11.956L16.062 11.7444C16.2217 11.6521 16.2765 11.448 16.1842 11.2882Z" fill="#F0792E"/>
<path d="M19.5221 11.2882C19.4298 11.1278 19.2247 11.074 19.0659 11.1659L18.6994 11.3775V10.9543C18.6994 10.7697 18.5501 10.6204 18.3655 10.6204C18.1809 10.6204 18.0316 10.7697 18.0316 10.9543V11.3775L17.6651 11.1659C17.505 11.074 17.3015 11.1278 17.2089 11.2882C17.1166 11.448 17.1714 11.6521 17.3312 11.7444L17.6976 11.956L17.3312 12.1676C17.1714 12.2599 17.1166 12.464 17.2089 12.6238C17.2708 12.7311 17.383 12.7908 17.4985 12.7908C17.5552 12.7908 17.6126 12.7764 17.6651 12.7461L18.0316 12.5345V12.9577C18.0316 13.1423 18.1809 13.2917 18.3655 13.2917C18.5501 13.2917 18.6994 13.1423 18.6994 12.9577V12.5345L19.0659 12.7461C19.1184 12.7764 19.1758 12.7908 19.2326 12.7908C19.348 12.7908 19.4602 12.7311 19.5221 12.6238C19.6144 12.464 19.5596 12.2599 19.3999 12.1676L19.0334 11.956L19.3999 11.7444C19.5596 11.6521 19.6144 11.448 19.5221 11.2882Z" fill="#F0792E"/>
</svg>
