<svg width="142" height="123" viewBox="0 0 142 123" fill="none" xmlns="http://www.w3.org/2000/svg">
<path d="M123.367 111.814L123.174 111.972C105.441 126.409 81.8862 127.062 64.7171 111.518C55.7766 103.418 39.897 104.967 28.5357 102.038C-10.6372 91.935 -3.86657 43.8755 15.4861 20.6418C32.9475 -0.321985 70.7794 -5.06077 96.2013 5.25635C118.552 14.3204 134.267 34.569 139.872 55.7443C140.436 57.867 140.894 60.0094 141.247 62.1715C144.194 80.1938 138.538 99.3386 123.367 111.814Z" fill="white"/>
<path d="M51.1445 4.93813C51.5749 6.09661 51.6492 7.35915 51.3581 8.56598C51.067 9.77281 50.4235 10.8697 49.5091 11.7178C48.5947 12.5659 47.4505 13.1271 46.2213 13.3304C44.9921 13.5337 43.733 13.3699 42.6036 12.8598C41.4742 12.3497 40.5251 11.5163 39.8764 10.4648C39.2278 9.41343 38.9087 8.19136 38.9596 6.95328C39.0105 5.71521 39.4292 4.51678 40.1625 3.50967C40.8958 2.50256 41.9109 1.73203 43.0793 1.29559C43.8537 1.00521 44.6767 0.869097 45.5013 0.895019C46.3258 0.920941 47.1357 1.10839 47.8847 1.44666C48.6337 1.78493 49.3071 2.26739 49.8665 2.86648C50.4258 3.46556 50.8601 4.16952 51.1445 4.93813Z" fill="#F9C0A8"/>
<path d="M49.7388 5.46753C50.0667 6.35048 50.1233 7.31273 49.9014 8.23249C49.6795 9.15225 49.1891 9.98818 48.4922 10.6345C47.7953 11.2808 46.9233 11.7084 45.9865 11.8632C45.0497 12.0181 44.0903 11.8931 43.2296 11.5042C42.369 11.1154 41.6457 10.48 41.1515 9.67859C40.6573 8.87718 40.4143 7.94574 40.4533 7.00215C40.4922 6.05857 40.8114 5.14526 41.3704 4.37781C41.9294 3.61036 42.7031 3.02327 43.5935 2.69085C44.1837 2.46967 44.8108 2.36604 45.4391 2.38589C46.0674 2.40574 46.6845 2.54868 47.2552 2.80654C47.8259 3.0644 48.3389 3.43213 48.7651 3.88872C49.1912 4.3453 49.5221 4.88179 49.7388 5.46753Z" fill="#FCD3C3"/>
<path d="M45.2957 4.54238C45.443 4.40948 45.4577 4.18603 45.3284 4.04323C45.1992 3.90053 44.9749 3.8924 44.8276 4.02531L42.7147 5.93096C42.5673 6.06386 42.5527 6.28741 42.6819 6.43011C42.8112 6.57291 43.0354 6.58094 43.1827 6.44803L43.7883 5.90186C44.0384 5.67559 44.394 5.612 44.6976 5.73925L43.513 6.80764C43.3657 6.94045 43.351 7.16409 43.4802 7.30679C43.6095 7.44959 43.8338 7.45752 43.981 7.32471L45.1656 6.25633C45.2603 6.57085 45.1611 6.91675 44.9117 7.14284L44.3061 7.68902C44.1967 7.78781 44.157 7.94127 44.2056 8.0763C44.2542 8.21133 44.3814 8.3009 44.5268 8.30239L47.289 8.32365C47.3798 8.32387 47.4683 8.28942 47.5362 8.22745C47.6092 8.16087 47.6532 8.06874 47.6584 7.97169C47.662 7.87821 47.6281 7.78826 47.5643 7.72168C47.5004 7.65509 47.4117 7.61733 47.3178 7.6167L45.4437 7.60221C45.9371 7.10439 46.0528 6.35267 45.7283 5.75366L46.0937 5.42404C46.2411 5.29114 46.2558 5.06769 46.1265 4.92488C45.9972 4.78208 45.773 4.77406 45.6257 4.90696L45.2602 5.23659C45.1126 5.13583 44.9474 5.0621 44.7725 5.019L45.298 4.54501L45.2957 4.54238Z" fill="#F38D5D"/>
<path d="M49.6867 5.32974C49.659 5.33405 49.5691 5.15244 49.3697 4.83765C49.0921 4.39425 48.7464 3.99719 48.3452 3.66071C48.0689 3.4324 47.7683 3.23468 47.4488 3.07098C47.0809 2.88657 46.6905 2.7501 46.2869 2.66492C46.0701 2.61762 45.8499 2.58701 45.6281 2.57337C45.1591 2.54196 44.6875 2.58104 44.229 2.68929C43.9884 2.74692 43.7524 2.82234 43.5228 2.91492C43.2941 3.01015 43.0724 3.12151 42.8594 3.24813C42.6537 3.37295 42.4577 3.51328 42.2734 3.66788C42.0941 3.8153 41.9271 3.97682 41.7738 4.15085C41.6251 4.31829 41.489 4.49637 41.3666 4.68361C41.138 5.02754 40.9546 5.39895 40.8209 5.7887C40.705 6.12939 40.6275 6.48153 40.5897 6.83863C40.5369 7.36088 40.5657 7.88741 40.675 8.39948C40.7528 8.76449 40.8186 8.96393 40.7919 8.97435C40.7651 8.98478 40.6591 8.80097 40.5373 8.43655C40.3682 7.91635 40.2981 7.36852 40.3306 6.82104C40.3796 5.99821 40.6404 5.19997 41.0881 4.50318C41.352 4.09064 41.6754 3.71869 42.0478 3.3994C42.2451 3.23079 42.4556 3.07821 42.6772 2.94317C42.9059 2.80478 43.1447 2.68393 43.3915 2.58171C43.6395 2.48137 43.8948 2.40034 44.155 2.33934C44.4079 2.27878 44.6651 2.23878 44.9241 2.21971C45.173 2.20196 45.4227 2.20393 45.6709 2.2256C45.9088 2.24442 46.1448 2.28148 46.3766 2.33645C46.803 2.43907 47.213 2.59843 47.5958 2.81027C47.9264 2.99234 48.2338 3.21291 48.5116 3.4674C48.9168 3.83577 49.249 4.27647 49.4914 4.76708C49.6608 5.11314 49.7076 5.3218 49.6867 5.32974Z" fill="#F38D5D"/>
<path d="M83.1118 88.3299C82.9482 89.295 82.4991 90.1906 81.8214 90.9032C81.1437 91.6158 80.2679 92.1134 79.3047 92.3331C78.3416 92.5528 77.3344 92.4847 76.4107 92.1373C75.487 91.79 74.6883 91.1791 74.1156 90.3819C73.5429 89.5847 73.222 88.637 73.1935 87.6589C73.165 86.6807 73.4302 85.716 73.9555 84.8869C74.4808 84.0577 75.2426 83.4013 76.1445 83.0009C77.0464 82.6004 78.0479 82.4738 79.0222 82.6371C79.6685 82.7446 80.2869 82.9771 80.8423 83.3214C81.3976 83.6658 81.8789 84.1151 82.2587 84.6438C82.6385 85.1724 82.9093 85.7701 83.0557 86.4026C83.2021 87.035 83.2211 87.6899 83.1118 88.3299Z" fill="#F9C0A8"/>
<path d="M81.938 88.1343C81.8133 88.8698 81.471 89.5523 80.9545 90.0953C80.438 90.6383 79.7705 91.0175 79.0365 91.1849C78.3025 91.3522 77.535 91.3002 76.8311 91.0354C76.1272 90.7707 75.5185 90.305 75.0822 89.6974C74.6458 89.0899 74.4014 88.3677 74.3798 87.6222C74.3582 86.8768 74.5604 86.1417 74.9608 85.5098C75.3613 84.878 75.9419 84.378 76.6293 84.0729C77.3167 83.7678 78.0799 83.6715 78.8224 83.7961C79.3148 83.8781 79.786 84.0554 80.2091 84.3178C80.6322 84.5802 80.9989 84.9226 81.2883 85.3255C81.5776 85.7284 81.7839 86.1838 81.8954 86.6657C82.0069 87.1477 82.0214 87.6467 81.938 88.1343Z" fill="#FCD3C3"/>
<path d="M79.2575 85.7371C79.4112 85.7043 79.5098 85.5569 79.4777 85.4077C79.4456 85.2587 79.295 85.1643 79.1412 85.1971L76.9371 85.6675C76.7834 85.7003 76.6849 85.8479 76.717 85.9969C76.7491 86.1461 76.8997 86.2404 77.0534 86.2076L77.6851 86.0727C77.9463 86.0165 78.2154 86.1138 78.3732 86.3213L77.1375 86.585C76.9839 86.6178 76.8853 86.7654 76.9174 86.9144C76.9495 87.0636 77.1002 87.1578 77.2538 87.125L78.4895 86.8613C78.4299 87.1145 78.2249 87.3125 77.9642 87.3688L77.3325 87.5036C77.2184 87.5281 77.1303 87.6176 77.1101 87.7295C77.09 87.8414 77.1418 87.9532 77.241 88.0118L79.1272 89.1202C79.1895 89.1563 79.2638 89.1677 79.3349 89.1521C79.4113 89.1353 79.478 89.0896 79.5201 89.0251C79.5596 88.9624 79.5719 88.8873 79.5545 88.8163C79.537 88.7453 79.4912 88.6843 79.427 88.6467L78.1472 87.8946C78.6828 87.7485 79.0599 87.2787 79.0745 86.7393L79.4558 86.6579C79.6095 86.6251 79.7081 86.4777 79.6759 86.3285C79.6438 86.1794 79.4932 86.0851 79.3395 86.1179L78.9583 86.1993C78.8969 86.0717 78.8128 85.9557 78.7099 85.8569L79.2581 85.7399L79.2575 85.7371Z" fill="#F38D5D"/>
<path d="M81.9591 88.0207C81.9384 88.0127 81.9486 87.8525 81.9365 87.5576C81.9217 87.1435 81.8419 86.7343 81.6999 86.3446C81.6008 86.0786 81.4729 85.8239 81.3186 85.5851C81.1393 85.3129 80.9255 85.0647 80.6824 84.8465C80.5524 84.7282 80.4135 84.6199 80.2668 84.5228C79.9575 84.3155 79.6185 84.1555 79.2611 84.0482C79.0733 83.9925 78.8815 83.9508 78.6874 83.9234C78.4928 83.8981 78.2966 83.8867 78.1003 83.8892C77.9098 83.8933 77.7198 83.912 77.5321 83.945C77.3508 83.9752 77.1722 84.0198 76.9981 84.0785C76.8298 84.1345 76.666 84.2027 76.5078 84.2827C76.2148 84.4281 75.9419 84.6102 75.6959 84.8246C75.4814 85.0124 75.2887 85.2232 75.1214 85.4532C74.8783 85.7906 74.6896 86.1631 74.5618 86.5577C74.4706 86.8389 74.4367 87.0017 74.4142 86.9983C74.3917 86.9948 74.3918 86.8268 74.4526 86.5286C74.5426 86.1048 74.7115 85.7012 74.9506 85.3385C75.3101 84.7935 75.8052 84.3493 76.3882 84.0486C76.7326 83.8702 77.1018 83.7431 77.4837 83.6716C77.6858 83.634 77.8906 83.6127 78.0962 83.6079C78.3078 83.6035 78.5195 83.6152 78.7293 83.6428C78.9391 83.6722 79.1463 83.7177 79.349 83.7789C79.5464 83.8375 79.7387 83.9119 79.9239 84.0014C80.1017 84.0878 80.2722 84.188 80.4339 84.3012C80.5896 84.4083 80.7368 84.5271 80.874 84.6567C81.1259 84.8959 81.344 85.1676 81.5227 85.4645C81.6773 85.7203 81.8008 85.9933 81.8906 86.2779C82.0227 86.691 82.076 87.1249 82.048 87.5574C82.0271 87.8619 81.9765 88.0235 81.9591 88.0207Z" fill="#F38D5D"/>
<path d="M35.2453 9.2803C35.5862 10.198 35.6451 11.1981 35.4146 12.154C35.184 13.11 34.6743 13.9789 33.9501 14.6507C33.2258 15.3225 32.3196 15.767 31.3459 15.928C30.3723 16.089 29.3751 15.9593 28.4805 15.5552C27.5859 15.1512 26.8341 14.4909 26.3204 13.6581C25.8066 12.8252 25.5538 11.8571 25.5942 10.8764C25.6345 9.89571 25.966 8.94641 26.5469 8.14865C27.1277 7.35089 27.9317 6.74054 28.8571 6.39484C29.4705 6.16483 30.1224 6.05702 30.7755 6.07756C31.4286 6.0981 32.0701 6.2466 32.6633 6.51456C33.2566 6.78252 33.79 7.1647 34.233 7.63926C34.676 8.11382 35.02 8.67145 35.2453 9.2803Z" fill="#F9C0A8"/>
<path d="M34.1274 9.69921C34.3871 10.3986 34.4319 11.1607 34.2562 11.8892C34.0804 12.6177 33.692 13.2798 33.14 13.7917C32.588 14.3037 31.8973 14.6424 31.1553 14.765C30.4133 14.8876 29.6534 14.7887 28.9717 14.4806C28.29 14.1726 27.7172 13.6694 27.3257 13.0346C26.9343 12.3999 26.7418 11.6621 26.7727 10.9147C26.8035 10.1674 27.0563 9.44395 27.4991 8.83609C27.9418 8.22822 28.5546 7.76321 29.2599 7.49991C29.7274 7.32473 30.2241 7.24265 30.7217 7.25837C31.2194 7.2741 31.7082 7.38731 32.1602 7.59155C32.6122 7.79579 33.0186 8.08706 33.3561 8.4487C33.6937 8.81034 33.9557 9.23527 34.1274 9.69921Z" fill="#FCD3C3"/>
<path d="M30.6117 8.96386C30.7284 8.8586 30.74 8.68163 30.6376 8.56852C30.5353 8.4555 30.3576 8.44906 30.2409 8.55433L28.5673 10.0636C28.4505 10.1689 28.439 10.346 28.5413 10.459C28.6437 10.5721 28.8213 10.5784 28.938 10.4732L29.4177 10.0406C29.6158 9.86139 29.8975 9.81102 30.1379 9.91181L29.1996 10.758C29.083 10.8632 29.0714 11.0403 29.1737 11.1533C29.2761 11.2664 29.4537 11.2727 29.5704 11.1675L30.5087 10.3213C30.5837 10.5705 30.5051 10.8444 30.3075 11.0235L29.8278 11.4561C29.7412 11.5343 29.7097 11.6559 29.7482 11.7628C29.7867 11.8697 29.8875 11.9407 30.0027 11.9419L32.1906 11.9587C32.2625 11.9589 32.3326 11.9316 32.3864 11.8825C32.4442 11.8298 32.479 11.7568 32.4832 11.68C32.4861 11.6059 32.4592 11.5347 32.4086 11.4819C32.358 11.4292 32.2878 11.3993 32.2134 11.3988L30.729 11.3873C31.1198 10.993 31.2114 10.3977 30.9543 9.92322L31.2438 9.66216C31.3605 9.55689 31.3722 9.37992 31.2698 9.26682C31.1674 9.15371 30.9898 9.14736 30.8731 9.25262L30.5836 9.51369C30.4667 9.43389 30.3358 9.37549 30.1973 9.34135L30.6135 8.96594L30.6117 8.96386Z" fill="#F38D5D"/>
<path d="M34.0905 9.59131C34.0686 9.59472 33.9974 9.45088 33.8395 9.20154C33.6196 8.85035 33.3458 8.53585 33.028 8.26934C32.8091 8.0885 32.5711 7.93189 32.318 7.80223C32.0266 7.65617 31.7173 7.54808 31.3977 7.48061C31.226 7.44315 31.0516 7.4189 30.8759 7.4081C30.5044 7.38322 30.1309 7.41417 29.7677 7.49991C29.5772 7.54556 29.3902 7.6053 29.2084 7.67862C29.0272 7.75406 28.8516 7.84226 28.6829 7.94255C28.52 8.04141 28.3648 8.15257 28.2187 8.27501C28.0768 8.39178 27.9445 8.51971 27.8231 8.65756C27.7053 8.79018 27.5975 8.93123 27.5006 9.07953C27.3195 9.35194 27.1742 9.64613 27.0683 9.95483C26.9765 10.2247 26.9151 10.5036 26.8852 10.7864C26.8434 11.2001 26.8662 11.6171 26.9528 12.0227C27.0144 12.3118 27.0665 12.4698 27.0453 12.4781C27.0241 12.4863 26.9402 12.3407 26.8437 12.0521C26.7098 11.6401 26.6542 11.2061 26.6799 10.7725C26.7187 10.1208 26.9254 9.48852 27.2799 8.93663C27.489 8.60987 27.7451 8.31526 28.0401 8.06237C28.1963 7.92881 28.363 7.80796 28.5386 7.701C28.7197 7.59139 28.9089 7.49567 29.1044 7.4147C29.3008 7.33523 29.503 7.27104 29.7091 7.22273C29.9094 7.17477 30.1131 7.14308 30.3183 7.12798C30.5154 7.11392 30.7132 7.11548 30.9098 7.13264C31.0982 7.14755 31.2851 7.17691 31.4688 7.22045C31.8065 7.30172 32.1313 7.42795 32.4344 7.59574C32.6962 7.73995 32.9397 7.91466 33.1598 8.11622C33.4807 8.40799 33.7439 8.75706 33.9359 9.14564C34.0701 9.41974 34.1071 9.58502 34.0905 9.59131Z" fill="#F38D5D"/>
<path d="M72.4372 95.5445C72.2306 96.763 71.6637 97.8935 70.8081 98.7931C69.9525 99.6927 68.8468 100.321 67.6308 100.598C66.4149 100.876 65.1433 100.79 63.9771 100.351C62.8109 99.9125 61.8025 99.1412 61.0794 98.1348C60.3564 97.1283 59.9512 95.932 59.9152 94.6971C59.8792 93.4623 60.214 92.2444 60.8771 91.1977C61.5403 90.1509 62.5021 89.3223 63.6408 88.8168C64.7794 88.3112 66.0438 88.1514 67.2739 88.3576C68.0898 88.4934 68.8706 88.787 69.5717 89.2216C70.2728 89.6563 70.8805 90.2236 71.36 90.891C71.8395 91.5585 72.1814 92.313 72.3663 93.1114C72.5511 93.9099 72.5752 94.7367 72.4372 95.5445Z" fill="#F9C0A8"/>
<path d="M70.9546 95.2978C70.7971 96.2265 70.365 97.0881 69.7129 97.7737C69.0608 98.4592 68.2181 98.938 67.2914 99.1493C66.3647 99.3606 65.3957 99.2949 64.5069 98.9606C63.6182 98.6263 62.8498 98.0384 62.2989 97.2714C61.748 96.5043 61.4394 95.5925 61.4121 94.6513C61.3848 93.7102 61.6401 92.7821 62.1457 91.9844C62.6512 91.1867 63.3843 90.5553 64.2522 90.1702C65.12 89.785 66.0836 89.6634 67.021 89.8207C67.6427 89.9243 68.2376 90.1481 68.7718 90.4794C69.306 90.8107 69.769 91.243 70.1343 91.7517C70.4996 92.2603 70.76 92.8353 70.9008 93.4437C71.0415 94.0522 71.0598 94.6822 70.9546 95.2978Z" fill="#FCD3C3"/>
<path d="M67.5688 92.272C67.7629 92.2306 67.8873 92.0444 67.8468 91.8561C67.8063 91.6679 67.6161 91.5488 67.422 91.5902L64.6393 92.1841C64.4452 92.2255 64.3208 92.4119 64.3613 92.6C64.4019 92.7883 64.592 92.9074 64.7861 92.8659L65.5836 92.6957C65.9133 92.6248 66.2532 92.7475 66.4524 93.0095L64.8923 93.3425C64.6983 93.3839 64.5738 93.5702 64.6143 93.7584C64.6549 93.9467 64.8451 94.0657 65.0391 94.0243L66.5992 93.6913C66.5239 94.011 66.2651 94.261 65.936 94.3321L65.1384 94.5023C64.9943 94.5332 64.8831 94.6462 64.8577 94.7874C64.8323 94.9287 64.8977 95.0699 65.0229 95.1439L67.4043 96.5432C67.4829 96.5889 67.5768 96.6032 67.6665 96.5835C67.763 96.5624 67.8472 96.5046 67.9003 96.4232C67.9502 96.344 67.9658 96.2492 67.9438 96.1596C67.9217 96.07 67.8638 95.9929 67.7828 95.9454L66.167 94.9959C66.8433 94.8115 67.3193 94.2183 67.3378 93.5373L67.8191 93.4346C68.0132 93.3931 68.1376 93.2069 68.0971 93.0187C68.0566 92.8304 67.8664 92.7113 67.6723 92.7527L67.191 92.8555C67.1135 92.6944 67.0074 92.548 66.8774 92.4232L67.5696 92.2755L67.5688 92.272Z" fill="#F38D5D"/>
<path d="M70.9795 95.152C70.9534 95.1419 70.9663 94.9396 70.9511 94.5673C70.9323 94.0445 70.8316 93.5279 70.6523 93.0359C70.5272 92.7 70.3657 92.3785 70.1709 92.077C69.9445 91.7334 69.6746 91.42 69.3677 91.1444C69.2036 90.9951 69.0282 90.8584 68.8429 90.7357C68.4525 90.4741 68.0245 90.2721 67.5733 90.1366C67.3361 90.0663 67.094 90.0136 66.8489 89.979C66.6032 89.9471 66.3555 89.9327 66.1078 89.9358C65.8671 89.9411 65.6273 89.9646 65.3903 90.0064C65.1614 90.0444 64.936 90.1008 64.7162 90.1749C64.5037 90.2455 64.2968 90.3317 64.0972 90.4327C63.7272 90.6162 63.3827 90.8462 63.072 91.1169C62.8013 91.3539 62.558 91.6201 62.3467 91.9105C62.0399 92.3364 61.8015 92.8068 61.6402 93.3049C61.525 93.6599 61.4823 93.8655 61.4539 93.8611C61.4255 93.8568 61.4256 93.6446 61.5024 93.2681C61.6161 92.7331 61.8293 92.2236 62.1311 91.7657C62.585 91.0776 63.2101 90.5168 63.9461 90.1371C64.381 89.9118 64.8471 89.7514 65.3292 89.6611C65.5844 89.6137 65.843 89.5868 66.1025 89.5807C66.3697 89.5751 66.6369 89.5899 66.9018 89.6248C67.1667 89.6618 67.4283 89.7193 67.6842 89.7966C67.9335 89.8705 68.1762 89.9645 68.4101 90.0775C68.6345 90.1865 68.8498 90.3131 69.0539 90.456C69.2505 90.5912 69.4363 90.7413 69.6096 90.9048C69.9276 91.2068 70.203 91.5499 70.4285 91.9247C70.6238 92.2476 70.7797 92.5924 70.8931 92.9517C71.0598 93.4733 71.1272 94.021 71.0918 94.5671C71.0654 94.9515 71.0016 95.1555 70.9795 95.152Z" fill="#F38D5D"/>
<g clip-path="url(#clip0_7_73518)">
<path d="M107.78 37.5073L87.1211 35.522L84.1368 66.3115L104.796 68.2968L107.78 37.5073Z" fill="white" stroke="#263238" stroke-width="0.0891923" stroke-linecap="round" stroke-linejoin="round"/>
<path d="M88.4691 37.7668L93.8473 38.2728" stroke="#263238" stroke-width="0.178385" stroke-linecap="round" stroke-linejoin="round"/>
<path d="M88.3711 38.7918L92.0288 39.1346" stroke="#263238" stroke-width="0.178385" stroke-linecap="round" stroke-linejoin="round"/>
<path d="M89.4503 41.3325L104.92 42.786" stroke="#263238" stroke-width="0.178385" stroke-linecap="round" stroke-linejoin="round"/>
<path d="M89.3531 42.3537L104.822 43.8096" stroke="#263238" stroke-width="0.178385" stroke-linecap="round" stroke-linejoin="round"/>
<path d="M89.2419 43.5472L102.434 44.7888" stroke="#263238" stroke-width="0.178385" stroke-linecap="round" stroke-linejoin="round"/>
<path d="M90.4632 44.7601L89.2051 44.6418L89.0868 45.8895L90.3449 46.0077L90.4632 44.7601Z" stroke="#263238" stroke-width="0.0891923" stroke-linecap="round" stroke-linejoin="round"/>
<path d="M92.7405 44.9723L91.4824 44.854L91.3642 46.1016L92.6222 46.2199L92.7405 44.9723Z" stroke="#263238" stroke-width="0.0891923" stroke-linecap="round" stroke-linejoin="round"/>
<path d="M95.0257 45.1891L93.7676 45.0708L93.6493 46.3184L94.9074 46.4367L95.0257 45.1891Z" stroke="#263238" stroke-width="0.0891923" stroke-linecap="round" stroke-linejoin="round"/>
<path d="M97.305 45.4037L96.0469 45.2854L95.9286 46.533L97.1867 46.6513L97.305 45.4037Z" stroke="#263238" stroke-width="0.0891923" stroke-linecap="round" stroke-linejoin="round"/>
<path d="M88.6294 41.2525C88.6241 41.3148 88.6002 41.3741 88.5609 41.4229C88.5215 41.4717 88.4683 41.5077 88.4082 41.5264C88.3481 41.5452 88.2837 41.5457 88.2232 41.5281C88.1627 41.5104 88.1089 41.4753 88.0686 41.4272C88.0282 41.3792 88.0032 41.3203 87.9967 41.2581C87.9902 41.1959 88.0024 41.1332 88.032 41.078C88.0615 41.0228 88.1069 40.9775 88.1624 40.948C88.2179 40.9185 88.2811 40.906 88.3438 40.9122C88.4269 40.9203 88.5035 40.9606 88.5569 41.0243C88.6104 41.088 88.6364 41.17 88.6294 41.2525Z" fill="#263238"/>
<path d="M88.8858 47.3029L104.355 48.7563" stroke="#263238" stroke-width="0.178385" stroke-linecap="round" stroke-linejoin="round"/>
<path d="M88.7886 48.3239L104.258 49.7797" stroke="#263238" stroke-width="0.178385" stroke-linecap="round" stroke-linejoin="round"/>
<path d="M88.675 49.5223L101.868 50.7613" stroke="#263238" stroke-width="0.178385" stroke-linecap="round" stroke-linejoin="round"/>
<path d="M89.8967 50.7301L88.6387 50.6118L88.5204 51.8594L89.7785 51.9777L89.8967 50.7301Z" stroke="#263238" stroke-width="0.0891923" stroke-linecap="round" stroke-linejoin="round"/>
<path d="M92.178 50.9447L90.9199 50.8264L90.8017 52.074L92.0597 52.1923L92.178 50.9447Z" stroke="#263238" stroke-width="0.0891923" stroke-linecap="round" stroke-linejoin="round"/>
<path d="M94.4593 51.1615L93.2012 51.0432L93.0829 52.2908L94.341 52.4091L94.4593 51.1615Z" stroke="#263238" stroke-width="0.0891923" stroke-linecap="round" stroke-linejoin="round"/>
<path d="M96.7385 51.3736L95.4805 51.2554L95.3622 52.503L96.6203 52.6213L96.7385 51.3736Z" stroke="#263238" stroke-width="0.0891923" stroke-linecap="round" stroke-linejoin="round"/>
<path d="M88.0647 47.2254C88.0589 47.2876 88.0347 47.3466 87.995 47.395C87.9554 47.4435 87.9021 47.4791 87.8419 47.4975C87.7818 47.5158 87.7175 47.516 87.6572 47.4981C87.5969 47.4801 87.5433 47.4448 87.5032 47.3967C87.4632 47.3485 87.4384 47.2896 87.4321 47.2275C87.4258 47.1654 87.4383 47.1028 87.4679 47.0478C87.4975 46.9927 87.5429 46.9476 87.5984 46.9182C87.6539 46.8888 87.717 46.8764 87.7796 46.8826C87.8631 46.8909 87.94 46.9316 87.9934 46.9958C88.0468 47.06 88.0724 47.1425 88.0647 47.2254Z" fill="#263238"/>
<path d="M88.3179 53.2715L103.787 54.7272" stroke="#263238" stroke-width="0.178385" stroke-linecap="round" stroke-linejoin="round"/>
<path d="M88.2218 54.2973L103.689 55.7502" stroke="#263238" stroke-width="0.178385" stroke-linecap="round" stroke-linejoin="round"/>
<path d="M88.1067 55.4932L101.299 56.7323" stroke="#263238" stroke-width="0.178385" stroke-linecap="round" stroke-linejoin="round"/>
<path d="M89.3342 56.701L88.0762 56.5828L87.9579 57.8304L89.216 57.9486L89.3342 56.701Z" stroke="#263238" stroke-width="0.0891923" stroke-linecap="round" stroke-linejoin="round"/>
<path d="M91.6135 56.9156L90.3555 56.7974L90.2372 58.045L91.4953 58.1633L91.6135 56.9156Z" stroke="#263238" stroke-width="0.0891923" stroke-linecap="round" stroke-linejoin="round"/>
<path d="M93.8948 57.1324L92.6367 57.0142L92.5185 58.2618L93.7765 58.38L93.8948 57.1324Z" stroke="#263238" stroke-width="0.0891923" stroke-linecap="round" stroke-linejoin="round"/>
<path d="M96.1702 57.347L94.9121 57.2288L94.7939 58.4764L96.0519 58.5946L96.1702 57.347Z" stroke="#263238" stroke-width="0.0891923" stroke-linecap="round" stroke-linejoin="round"/>
<path d="M87.4964 53.1963C87.4906 53.2585 87.4663 53.3175 87.4267 53.366C87.387 53.4144 87.3337 53.4501 87.2736 53.4684C87.2134 53.4868 87.1491 53.487 87.0888 53.469C87.0285 53.4511 86.9749 53.4158 86.9349 53.3676C86.8948 53.3194 86.8701 53.2606 86.8638 53.1984C86.8575 53.1363 86.8699 53.0738 86.8995 53.0187C86.9291 52.9637 86.9746 52.9186 87.0301 52.8892C87.0856 52.8598 87.1486 52.8474 87.2113 52.8536C87.2948 52.8618 87.3716 52.9025 87.425 52.9667C87.4784 53.031 87.5041 53.1135 87.4964 53.1963Z" fill="#263238"/>
<path d="M87.7379 59.4128L103.205 60.8681" stroke="#263238" stroke-width="0.178385" stroke-linecap="round" stroke-linejoin="round"/>
<path d="M87.6402 60.4389L103.107 61.8943" stroke="#263238" stroke-width="0.178385" stroke-linecap="round" stroke-linejoin="round"/>
<path d="M87.5232 61.6324L100.715 62.8739" stroke="#263238" stroke-width="0.178385" stroke-linecap="round" stroke-linejoin="round"/>
<path d="M88.7522 62.8426L87.4941 62.7244L87.3759 63.972L88.634 64.0903L88.7522 62.8426Z" stroke="#263238" stroke-width="0.0891923" stroke-linecap="round" stroke-linejoin="round"/>
<path d="M91.0276 63.0572L89.7695 62.939L89.6513 64.1866L90.9094 64.3049L91.0276 63.0572Z" stroke="#263238" stroke-width="0.0891923" stroke-linecap="round" stroke-linejoin="round"/>
<path d="M93.3089 63.2716L92.0508 63.1533L91.9325 64.401L93.1906 64.5192L93.3089 63.2716Z" stroke="#263238" stroke-width="0.0891923" stroke-linecap="round" stroke-linejoin="round"/>
<path d="M95.594 63.4862L94.3359 63.3679L94.2177 64.6156L95.4758 64.7338L95.594 63.4862Z" stroke="#263238" stroke-width="0.0891923" stroke-linecap="round" stroke-linejoin="round"/>
<path d="M86.9236 59.337C86.9178 59.3986 86.8938 59.4571 86.8546 59.5051C86.8154 59.5531 86.7627 59.5885 86.7031 59.6068C86.6436 59.6251 86.5799 59.6254 86.5202 59.6079C86.4604 59.5903 86.4072 59.5555 86.3673 59.508C86.3274 59.4605 86.3026 59.4023 86.2961 59.3408C86.2895 59.2793 86.3015 59.2173 86.3304 59.1626C86.3594 59.1079 86.4041 59.0629 86.4588 59.0334C86.5136 59.0038 86.5759 58.9911 86.638 58.9967C86.6793 59.0004 86.7194 59.0122 86.7561 59.0313C86.7928 59.0505 86.8254 59.0766 86.8519 59.1082C86.8784 59.1398 86.8984 59.1763 86.9107 59.2156C86.923 59.2548 86.9274 59.2961 86.9236 59.337Z" fill="#263238"/>
<path d="M89.6078 45.1832L89.76 45.468L90.4629 44.7624" stroke="#263238" stroke-width="0.178385" stroke-linecap="round" stroke-linejoin="round"/>
<path d="M93.6117 51.5067L93.7635 51.7939L94.4668 51.0859" stroke="#263238" stroke-width="0.178385" stroke-linecap="round" stroke-linejoin="round"/>
<path d="M90.7504 57.3875L90.9046 57.6752L91.6054 56.9667" stroke="#263238" stroke-width="0.178385" stroke-linecap="round" stroke-linejoin="round"/>
<path d="M94.7055 63.9044L94.8572 64.1916L95.5605 63.4836" stroke="#263238" stroke-width="0.178385" stroke-linecap="round" stroke-linejoin="round"/>
</g>
<path opacity="0.2" d="M86.435 69.1857C86.435 69.1857 85.8489 80.97 85.8412 81.6585C85.8334 82.347 86.5473 86.5295 86.5473 86.5295L83.3979 91.6679L85.7992 93.7715L90.8747 89.29C90.8747 89.29 94.8852 92.0077 95.4685 95.6496C96.0518 99.2914 100.422 102.131 104.611 112.339C108.799 122.547 115.658 90.4696 115.658 90.4696L102.118 71.8875L86.435 69.1857Z" fill="black" fill-opacity="0.7"/>
<path d="M127.611 117.332L105.284 120.001C105.284 120.001 102.391 99.5837 100.244 96.2844C98.0962 92.9851 98.5859 91.6956 97.5651 89.494C96.953 88.1644 93.6864 85.5841 91.1515 83.0695C90.9304 82.852 90.7157 82.6348 90.5101 82.4212C90.4205 82.3335 90.3374 82.2399 90.254 82.1526C89.9179 81.7906 89.6063 81.4391 89.3319 81.0955C89.2314 80.9733 89.133 80.8513 89.0366 80.7293C88.5706 80.1649 88.2348 79.5069 88.0528 78.8013C88.0448 78.7697 88.04 78.7374 88.0386 78.7049C88.0314 78.6669 88.0269 78.6285 88.0253 78.5899C87.9888 78.1094 87.9524 77.5609 87.9182 76.9662C87.9237 76.8491 87.9046 76.7246 87.8949 76.6006L87.8832 76.4518C87.8537 75.9561 87.8193 75.4294 87.7764 74.8868C87.7334 74.3441 87.6876 73.7303 87.6283 73.1375C87.6099 72.9328 87.5915 72.728 87.5672 72.5168C87.5437 72.2871 87.5171 72.0573 87.4907 71.8243L87.4159 71.2277C87.4175 71.1938 87.4034 71.1622 87.4016 71.1343L87.3098 70.435C87.3025 70.4096 87.2985 70.3835 87.2979 70.3572C87.2637 70.1548 87.2326 69.9556 87.1953 69.753C87.1199 69.3015 87.0315 68.8587 86.9457 68.4283C86.769 67.6177 86.5299 66.8215 86.2305 66.0467C84.8009 62.4479 86.818 63.8197 85.9985 54.696C85.9985 54.696 87.0189 52.6379 89.5626 54.4424C89.7591 54.5828 89.9482 54.733 90.129 54.8926C90.6405 55.3427 91.0863 55.8609 91.4534 56.4321C91.951 57.2098 92.318 58.0618 92.5402 58.9551C92.9011 60.4039 92.9507 61.911 92.6861 63.3792C92.6861 63.3792 94.3399 70.1487 95.3065 71.7176C96.273 73.2864 100.984 64.7627 100.755 63.7324C100.679 63.2715 100.627 62.8072 100.599 62.3411C100.588 62.1892 100.577 62.0312 100.563 61.8575C100.549 61.6839 100.539 61.5104 100.529 61.3277C100.533 61.2414 100.515 61.1479 100.507 61.0579C100.509 61.0209 100.511 60.9839 100.512 60.95C100.492 60.6 100.465 60.2281 100.443 59.844C100.448 59.7361 100.431 59.6334 100.423 59.5342L100.394 58.9767C100.393 58.9458 100.395 58.915 100.398 58.8843C100.403 58.7795 100.383 58.6704 100.379 58.559C100.364 58.3421 100.353 58.1222 100.342 57.9024C100.33 57.6825 100.322 57.5246 100.312 57.3357C100.292 56.9795 100.274 56.6234 100.256 56.2797C100.244 56.0227 100.231 55.7688 100.22 55.5212C100.223 55.4657 100.226 55.4102 100.213 55.3571C100.146 53.9948 100.096 52.8804 100.082 52.3978C100.082 52.3978 97.1793 47.6818 96.9697 45.5157C96.7601 43.3496 96.8867 41.0852 98.2377 40.2259C101.436 38.1974 100.358 41.6613 101.681 43.1699C103.004 44.6785 105.008 47.1679 106.177 47.968C107.254 48.7173 108.118 51.4582 108.239 51.8717C108.108 51.2724 106.797 45.378 106.819 44.2052C106.837 42.9705 106.193 36.4036 107.923 34.1414C109.654 31.8792 111.726 33.7973 111.904 34.2691C112.082 34.7409 111.84 41.0618 112.327 42.8457C112.815 44.6296 114.856 52.0693 114.856 52.0693C114.856 52.0693 115.295 44.9484 115.986 41.7843C116.678 38.6201 118.197 36.1934 119.577 36.117C120.956 36.0406 122.155 37.5958 122.155 37.5958C122.155 37.5958 121.37 42.6552 121.47 43.8369C121.57 45.0185 120.987 49.2413 121.53 51.5622C121.53 51.5622 121.745 45.484 122.736 44.7528C123.728 44.0216 124.566 43.6877 125.077 44.2464C125.589 44.8052 125.533 48.3981 125.976 50.5876C126.419 52.7772 126.21 55.7141 126.409 59.106C126.607 62.4979 127.797 67.2498 127.389 69.9147C126.98 72.5795 125.8 79.1801 124.919 83.0457C124.037 86.9113 122.008 92.1741 122.008 92.1741C122.008 92.1741 122.68 95.0634 122.403 97.5986C122.126 100.134 127.611 117.332 127.611 117.332Z" fill="white"/>
<path opacity="0.8" d="M112.288 42.8405C112.65 44.1644 113.86 48.5836 114.461 50.79C114.461 50.79 111.26 52.8894 111.238 54.9827C111.217 57.076 110.37 61.2615 108.984 61.0751C107.599 60.8886 108.16 52.121 107.759 50.6254C108.014 51.2553 108.169 51.7971 108.202 51.9006C108.117 51.5166 106.751 45.4003 106.773 44.2028C106.787 43.9193 106.748 43.3583 106.717 42.631L106.718 42.6155C106.718 42.6155 109.932 39.8525 112.106 41.7414C112.139 42.1117 112.2 42.4791 112.288 42.8405Z" fill="#FFE4C8"/>
<path opacity="0.8" d="M121.363 45.8032C119.857 47.0876 117.569 49.3696 117.185 51.6588C117.185 51.6588 117.684 58.1261 117.207 60.9113L114.814 52.0834C114.814 52.0834 115.253 44.9626 115.944 41.7984L116.003 41.5386C117.798 40.7398 119.754 40.3594 121.722 40.427C121.547 41.5554 121.452 42.6945 121.438 43.836C121.448 44.4927 121.423 45.1493 121.363 45.8032Z" fill="#FFE4C8"/>
<path opacity="0.4" d="M122.697 44.7398C122.662 44.7629 122.574 44.8236 122.448 44.9226C122.528 44.7871 122.615 44.6562 122.71 44.5304L122.697 44.7398Z" fill="#92E3A9"/>
<path opacity="0.8" d="M122.584 62.5393C122.584 62.5393 121.058 55.5845 121.302 50.0545C121.384 48.0073 121.713 46.1541 122.444 44.9255C122.524 44.7901 122.612 44.6591 122.706 44.5333L122.697 44.7337C123.044 44.4616 123.427 44.2367 123.836 44.065C123.276 44.8416 122.603 46.3818 123.173 48.9759C124.072 53.0158 122.892 57.8464 122.584 62.5393Z" fill="#FFE4C8"/>
<path opacity="0.8" d="M96.3993 74.4184C96.3993 74.4184 96.5839 80.9851 91.1501 83.0741C90.9291 82.8566 90.7143 82.6394 90.5087 82.4258C90.4191 82.3381 90.336 82.2446 90.2526 82.1572C89.9165 81.7952 89.6051 81.4406 89.3305 81.1001C89.227 80.9747 89.1359 80.853 89.0353 80.7339C88.5692 80.1696 88.2334 79.5115 88.0514 78.8059C88.0437 78.7743 88.039 78.742 88.0373 78.7095C88.03 78.6716 88.0256 78.6331 88.024 78.5946C87.9874 78.114 87.951 77.5656 87.9168 76.9708C87.9224 76.8537 87.9033 76.7293 87.8936 76.6052L87.8819 76.4564C87.8525 75.9577 87.818 75.434 87.775 74.8914C87.7321 74.3488 87.6862 73.735 87.6269 73.1422C87.6054 72.9373 87.5872 72.7294 87.5658 72.5214C87.5423 72.2917 87.5159 72.0588 87.4893 71.829L87.4145 71.2323L87.4002 71.139C87.3676 70.9057 87.3377 70.6788 87.3018 70.4485C87.2963 70.4228 87.2923 70.3969 87.2898 70.3707C87.2557 70.1683 87.2247 69.9661 87.1873 69.7666C87.1087 69.315 87.0204 68.8721 86.9377 68.4419C89.1388 66.5388 93.9395 68.0276 91.808 63.2773C91.808 63.2773 93.1825 59.3641 90.121 54.9062C92.2701 56.7908 93.2661 59.9735 92.6792 63.3682C92.6792 63.3682 94.3332 70.1345 95.2996 71.7065C96.266 73.2784 100.977 64.7516 100.748 63.7182C100.672 63.2586 100.621 62.7952 100.596 62.3302C100.581 62.1782 100.57 62.0201 100.559 61.8466C100.549 61.6731 100.532 61.4993 100.522 61.3135C100.526 61.2303 100.509 61.1368 100.5 61.0468C100.502 61.0099 100.504 60.9729 100.506 60.939C100.485 60.5858 100.462 60.2171 100.436 59.8298C100.441 59.725 100.424 59.6223 100.417 59.52C100.426 59.3351 100.397 59.1484 100.387 58.9626C100.387 58.9317 100.388 58.9008 100.391 58.8701C100.396 58.7653 100.377 58.6563 100.372 58.5449C100.358 58.3248 100.349 58.1082 100.335 57.8882L100.306 57.3184C100.285 56.9653 100.268 56.6093 100.25 56.2655C100.24 56.0056 100.227 55.7517 100.214 55.507C100.216 55.4515 100.219 55.3961 100.206 55.3429C100.274 55.7508 101.502 63.263 102.321 65.041C103.138 66.8653 98.7656 76.0755 96.3993 74.4184Z" fill="#FFE4C8"/>
<path opacity="0.8" d="M124.88 83.0384C123.998 86.9071 121.969 92.1668 121.969 92.1668C121.969 92.1668 122.641 95.0561 122.364 97.5913C122.288 98.2735 122.636 100.02 123.176 102.211C123.014 101.728 121.257 96.5409 121.385 94.7647C121.511 92.9173 120.999 92.3647 120.048 90.0243C119.096 87.6839 117.49 87.8577 117.49 87.8577C117.49 87.8577 116.594 93.542 115.325 89.7192C114.056 85.8964 113.98 81.5157 118.361 66.5265C118.361 66.5265 118.823 68.4544 118.092 74.0817C117.362 79.709 118.647 81.4846 118.647 81.4846C120.873 78.0413 122.686 74.3532 124.048 70.4947C124.048 70.4947 123.26 77.0645 122.696 80.0463C122.132 83.0281 124.362 76.6382 125.894 72.6985C127.321 68.9979 127.448 67.5737 127.095 64.8757C127.361 66.7757 127.544 68.5853 127.344 69.8917C126.942 72.5538 125.761 79.1605 124.88 83.0384Z" fill="#FFE4C8"/>
<path opacity="0.8" d="M99.2402 94.5405C100.239 96.2901 102.775 98.6565 104.061 104.93C105.348 111.203 104.027 117.939 104.027 117.939L99.2402 94.5405Z" fill="#FFE4C8"/>
<path opacity="0.8" d="M92.4284 58.9565C92.4284 58.9565 86.7713 61.4673 86.1145 66.0695C84.6849 62.4708 86.702 63.8425 85.8825 54.7188C85.8825 54.7188 86.9029 52.6607 89.4466 54.4653C89.6431 54.6056 89.8322 54.7559 90.013 54.9154C90.5245 55.3656 90.9702 55.8837 91.3374 56.455L92.4284 58.9565Z" fill="#FFE4C8" fill-opacity="0.7"/>
<path d="M105.283 120.003C105.283 120.003 102.393 99.586 100.243 96.2866C98.0921 92.9871 98.585 91.6978 97.5642 89.4961C96.5434 87.2945 88.2662 81.6586 88.0339 78.5894C87.8017 75.5203 87.6497 69.6502 86.217 66.0513C84.7842 62.4524 86.8045 63.8243 85.982 54.6974C85.982 54.6974 87.0179 52.6431 89.5491 54.4471C92.0803 56.251 93.3119 59.6736 92.6763 63.3717C92.6763 63.3717 94.3303 70.1381 95.2998 71.7102C96.2693 73.2823 100.971 64.755 100.745 63.7218C100.519 62.6886 100.106 53.9703 100.05 52.383C100.05 52.383 97.148 47.6639 96.9385 45.4979C96.7289 43.3318 96.8555 41.0674 98.2064 40.2112C101.405 38.1826 100.327 41.6466 101.649 43.1552C102.972 44.6638 104.977 47.147 106.143 47.95C107.308 48.753 108.222 51.9009 108.222 51.9009C108.222 51.9009 106.763 45.4249 106.788 44.1874C106.812 42.9499 106.162 36.3857 107.892 34.1236C109.623 31.8614 111.695 33.7795 111.873 34.2513C112.05 34.7231 111.809 41.044 112.299 42.8249C112.79 44.6059 114.821 52.0513 114.821 52.0513C114.821 52.0513 115.263 44.9306 115.955 41.7664C116.647 38.6023 118.169 36.1757 119.545 36.0992C120.922 36.0226 122.123 37.5779 122.123 37.5779C122.123 37.5779 121.338 42.6374 121.435 43.8189C121.532 45.0004 120.956 49.2203 121.499 51.5444C121.499 51.5444 121.713 45.4662 122.705 44.735C123.697 44.0037 124.535 43.6699 125.046 44.2286C125.557 44.7873 125.502 48.3803 125.945 50.5698C126.388 52.7594 126.182 55.6965 126.377 59.0882C126.572 62.4799 127.766 67.2319 127.358 69.8937C126.949 72.5555 125.769 79.1623 124.884 83.0277C124 86.8932 121.98 92.1564 121.98 92.1564C121.98 92.1564 122.652 95.0457 122.372 97.5808C122.092 100.116 127.619 117.344 127.619 117.344" stroke="#263238" stroke-width="0.0891923" stroke-linecap="round" stroke-linejoin="round"/>
<path d="M114.811 52.0664C115.385 53.5951 116.678 59.9928 117.204 60.8983C117.47 61.3971 117.873 61.8115 118.367 62.0935" stroke="#263238" stroke-width="0.0891923" stroke-linecap="round" stroke-linejoin="round"/>
<path d="M121.489 51.5503C121.489 51.5503 121.29 52.8382 121.802 57.0049C122.313 61.1715 122.576 62.9448 122.931 63.8853" stroke="#263238" stroke-width="0.0891923" stroke-linecap="round" stroke-linejoin="round"/>
<path d="M108.207 51.9153C108.951 54.4746 109.25 58.5111 109.685 59.7428C110.121 60.9745 110.552 61.2453 110.552 61.2453" stroke="#263238" stroke-width="0.0891923" stroke-linecap="round" stroke-linejoin="round"/>
<path d="M109.318 58.0227C109.82 58.4381 110.208 58.9719 110.445 59.5746" stroke="#263238" stroke-width="0.0891923" stroke-linecap="round" stroke-linejoin="round"/>
<path d="M95.2988 71.7122C95.2988 71.7122 95.6141 75.0728 97.7414 74.9177" stroke="#263238" stroke-width="0.0891923" stroke-linecap="round" stroke-linejoin="round"/>
<path d="M100.747 63.7253C100.747 63.7253 101.104 67.7212 100.125 69.3614" stroke="#263238" stroke-width="0.0891923" stroke-linecap="round" stroke-linejoin="round"/>
<path d="M117.662 64.5683C117.662 64.5683 119.044 65.4959 117.972 67.9809C116.9 70.4659 114.759 80.5638 114.759 80.5638" stroke="#263238" stroke-width="0.0891923" stroke-linecap="round" stroke-linejoin="round"/>
<path d="M123.727 67.5364C124.214 69.8455 124.265 69.9066 123.17 72.6624C122.076 75.4182 120.175 82.1945 120.175 82.1945" stroke="#263238" stroke-width="0.0891923" stroke-linecap="round" stroke-linejoin="round"/>
<path d="M121.969 92.1482C121.969 92.1482 121.121 90.2542 121.968 88.7499" stroke="#263238" stroke-width="0.0891923" stroke-linecap="round" stroke-linejoin="round"/>
<path d="M100.242 96.2881C100.242 96.2881 102.439 99.6642 103.288 103.365" stroke="#263238" stroke-width="0.0891923" stroke-linecap="round" stroke-linejoin="round"/>
<path d="M120.273 39.9017L120.939 39.3094L121.23 39.2429L121.197 39.5503L120.578 40.2592L120.273 39.9017Z" fill="#757575" stroke="#263238" stroke-width="0.0891923" stroke-linecap="round" stroke-linejoin="round"/>
<path d="M120.773 40.2698L119.627 42.5413L90.0542 77.8709L87.0492 75.7725L91.5153 70.7586L117.982 40.9741L120.253 39.6952C120.383 39.7385 120.499 39.8142 120.59 39.9149C120.681 40.0156 120.744 40.1379 120.773 40.2698Z" fill="#20446C"/>
<path opacity="0.3" d="M120.771 40.2698L119.625 42.5413L90.0522 77.8709L87.0473 75.7725L91.5134 70.7586C93.4538 70.6532 93.7249 71.7905 93.7249 71.7905L119.162 42.0219C118.964 41.1816 117.961 40.9732 117.961 40.9732L120.233 39.6943C120.366 39.7349 120.486 39.8096 120.58 39.9106C120.675 40.0117 120.741 40.1356 120.771 40.2698Z" fill="black" fill-opacity="0.7"/>
<path d="M120.773 40.2698L119.627 42.5413L90.0542 77.8709L87.0492 75.7725L91.5153 70.7586L117.982 40.9741L120.253 39.6952C120.383 39.7385 120.499 39.8142 120.59 39.9149C120.681 40.0156 120.744 40.1379 120.773 40.2698Z" stroke="#263238" stroke-width="0.0891923" stroke-linecap="round" stroke-linejoin="round"/>
<path d="M99.6484 67.4509C99.6484 67.4509 96.2388 73.3924 93.0575 77.5594L90.8976 78.0033C90.8976 78.0033 85.7708 82.5781 82.6679 84.8336C82.1412 84.4749 81.6689 84.0436 81.2656 83.5529C81.2656 83.5529 85.8915 75.7078 90.8293 70.8336C91.3699 71.0545 91.8751 71.3523 92.3287 71.7174C92.919 72.1718 93.4371 72.7108 93.866 73.3165L99.4074 67.0625L99.6484 67.4509Z" fill="#F0792E"/>
<path opacity="0.3" d="M99.6487 67.4499C99.6487 67.4499 96.2391 73.3914 93.0578 77.5584L90.8979 78.0023C90.8979 78.0023 85.7711 82.5771 82.6682 84.8326L82.8114 83.5328C86.2856 78.7959 90.6577 73.657 92.3291 71.7164C92.9193 72.1708 93.4375 72.7098 93.8664 73.3155L90.7763 77.0111L92.4569 76.7822L99.4083 67.0492L99.6487 67.4499Z" fill="black" fill-opacity="0.7"/>
<path d="M99.6484 67.4509C99.6484 67.4509 96.2388 73.3924 93.0575 77.5594L90.8976 78.0033C90.8976 78.0033 85.7708 82.5781 82.6679 84.8336C82.1412 84.4749 81.6689 84.0436 81.2656 83.5529C81.2656 83.5529 85.8915 75.7078 90.8293 70.8336C91.3699 71.0545 91.8751 71.3523 92.3287 71.7174C92.919 72.1718 93.4371 72.7108 93.866 73.3165L99.4074 67.0625L99.6484 67.4509Z" stroke="#263238" stroke-width="0.0891923" stroke-linecap="round" stroke-linejoin="round"/>
<path d="M110.551 61.2466L101.46 69.1542L100.008 70.4257C101.075 68.0547 100.792 64.285 100.753 63.8415C100.755 63.8281 100.755 63.8148 100.755 63.8014C100.758 63.7789 100.759 63.7562 100.759 63.7336C100.683 63.2739 100.632 62.8106 100.606 62.3455C100.591 62.1935 100.58 62.0354 100.569 61.8619C100.559 61.6884 100.542 61.5147 100.532 61.3289C100.536 61.2456 100.519 61.1521 100.511 61.0622C100.512 61.0252 100.514 60.9882 100.516 60.9543C100.495 60.6042 100.469 60.2323 100.447 59.8451C100.451 59.7404 100.434 59.6376 100.427 59.5353C100.436 59.3504 100.407 59.1637 100.397 58.9779C100.397 58.947 100.398 58.9161 100.402 58.8854C100.406 58.7806 100.387 58.6716 100.383 58.5602C100.368 58.3402 100.36 58.1235 100.345 57.9035L100.316 57.3338C100.295 56.9806 100.278 56.6246 100.26 56.2808C100.247 56.0208 100.234 55.7699 100.224 55.5223C100.227 55.4669 100.229 55.4114 100.216 55.3583C100.15 53.9959 100.099 52.8815 100.085 52.3989C100.085 52.3989 97.1827 47.6829 96.9733 45.5138C96.7639 43.3446 96.8903 41.0833 98.2412 40.2271C101.439 38.1985 100.362 41.6625 101.684 43.1711C103.007 44.6797 105.012 47.169 106.18 47.9691C107.349 48.7692 108.256 51.9199 108.256 51.9199C109 54.479 109.299 58.512 109.735 59.7467C110.17 60.9813 110.551 61.2466 110.551 61.2466Z" fill="white"/>
<path d="M109.318 58.0227C109.82 58.4381 110.208 58.9719 110.445 59.5746" stroke="#263238" stroke-width="0.0891923" stroke-linecap="round" stroke-linejoin="round"/>
<path opacity="0.8" d="M101.636 43.1674C102.946 44.6877 104.952 47.1494 106.12 47.9587C105.956 47.8675 103.788 46.6955 102.493 47.8231C101.146 48.9946 100.05 52.3866 100.05 52.3866C100.05 52.3866 97.1475 47.6706 96.9381 45.5015C96.7287 43.3323 96.8551 41.071 98.206 40.2148C101.392 38.1856 100.32 41.6499 101.636 43.1674Z" fill="#FFE4C8"/>
<path opacity="0.8" d="M101.457 69.1563L100.005 70.4217C101.072 68.0507 100.788 64.281 100.75 63.8374C100.756 63.8018 100.757 63.7656 100.755 63.7296C100.679 63.2699 100.628 62.8065 100.603 62.3415C100.588 62.1895 100.577 62.0314 100.566 61.8579C100.556 61.6844 100.539 61.5106 100.529 61.3248C100.533 61.2416 100.516 61.1481 100.507 61.0582C100.509 61.0212 100.511 60.9842 100.512 60.9503C100.492 60.5972 100.469 60.2285 100.443 59.8411C100.448 59.7363 100.431 59.6336 100.424 59.5313C100.432 59.3464 100.404 59.1597 100.394 58.9739C100.394 58.943 100.395 58.9121 100.398 58.8814C100.403 58.7766 100.383 58.6676 100.379 58.5562C100.365 58.3362 100.356 58.1195 100.342 57.8995L100.313 57.3298C100.292 56.9766 100.275 56.6206 100.257 56.2768C100.247 56.0169 100.234 55.763 100.221 55.5183C100.223 55.4629 100.226 55.4074 100.213 55.3542C100.281 55.7621 101.509 63.2743 102.328 65.0524C102.603 65.7141 102.207 67.3881 101.457 69.1563Z" fill="#FFE4C8"/>
<path d="M110.549 61.2452C110.549 61.2452 110.121 60.9746 109.683 59.7429C109.244 58.5111 108.948 54.4752 108.204 51.9161C108.204 51.9161 107.293 48.7837 106.125 47.9652C104.957 47.1466 102.948 44.691 101.632 43.1704C100.316 41.6497 101.388 38.1855 98.1889 40.2264C96.8377 41.0888 96.7052 43.3467 96.921 45.5131C97.1368 47.6794 100.033 52.3982 100.033 52.3982C100.088 53.9855 100.499 62.7067 100.728 63.737" stroke="#263238" stroke-width="0.0891923" stroke-linecap="round" stroke-linejoin="round"/>
<path d="M100.747 63.7253C100.747 63.7253 101.104 67.7212 100.125 69.3614" stroke="#263238" stroke-width="0.0891923" stroke-linecap="round" stroke-linejoin="round"/>
<path opacity="0.2" d="M47.1543 66.0542C47.1543 66.0542 48.6979 75.2061 44.1069 81.5949C39.516 87.9837 36.1412 89.5807 34.5688 91.4767C32.9965 93.3726 26.6742 104.078 26.6742 104.078L20.8471 83.9537L28.7834 59.771L47.1543 66.0542Z" fill="black" fill-opacity="0.7"/>
<g clip-path="url(#clip1_7_73518)">
<path d="M44.2387 28.7705L24.6562 35.5728L34.987 64.7689L54.5695 57.9666L44.2387 28.7705Z" fill="white" stroke="#263238" stroke-width="0.0891923" stroke-linecap="round" stroke-linejoin="round"/>
<path d="M26.8278 37.0518L31.9212 35.271" stroke="#263238" stroke-width="0.178385" stroke-linecap="round" stroke-linejoin="round"/>
<path d="M27.173 38.0203L30.6365 36.8079" stroke="#263238" stroke-width="0.178385" stroke-linecap="round" stroke-linejoin="round"/>
<path d="M29.2321 39.8775L43.8817 34.7538" stroke="#263238" stroke-width="0.178385" stroke-linecap="round" stroke-linejoin="round"/>
<path d="M29.5753 40.8453L44.2255 35.724" stroke="#263238" stroke-width="0.178385" stroke-linecap="round" stroke-linejoin="round"/>
<path d="M29.9795 41.9756L42.4734 37.6081" stroke="#263238" stroke-width="0.178385" stroke-linecap="round" stroke-linejoin="round"/>
<path d="M31.6016 42.5677L30.4102 42.9844L30.8312 44.1663L32.0226 43.7497L31.6016 42.5677Z" stroke="#263238" stroke-width="0.0891923" stroke-linecap="round" stroke-linejoin="round"/>
<path d="M33.7617 41.8124L32.5703 42.229L32.9913 43.4109L34.1828 42.9943L33.7617 41.8124Z" stroke="#263238" stroke-width="0.0891923" stroke-linecap="round" stroke-linejoin="round"/>
<path d="M35.9219 41.0567L34.7305 41.4734L35.1515 42.6553L36.3429 42.2387L35.9219 41.0567Z" stroke="#263238" stroke-width="0.0891923" stroke-linecap="round" stroke-linejoin="round"/>
<path d="M38.0781 40.3011L36.8867 40.7178L37.3078 41.8997L38.4992 41.4831L38.0781 40.3011Z" stroke="#263238" stroke-width="0.0891923" stroke-linecap="round" stroke-linejoin="round"/>
<path d="M28.4513 40.1456C28.4728 40.2044 28.4763 40.2681 28.4612 40.3288C28.4461 40.3895 28.4132 40.4444 28.3666 40.4864C28.32 40.5285 28.2618 40.5558 28.1994 40.565C28.1371 40.5741 28.0734 40.5647 28.0165 40.5378C27.9595 40.511 27.9119 40.468 27.8796 40.4142C27.8474 40.3605 27.832 40.2985 27.8354 40.236C27.8388 40.1736 27.8608 40.1136 27.8987 40.0637C27.9365 40.0137 27.9885 39.9761 28.0481 39.9556C28.1269 39.9283 28.2134 39.933 28.2889 39.9686C28.3643 40.0042 28.4227 40.0678 28.4513 40.1456Z" fill="#263238"/>
<path d="M31.2458 45.5347L45.8954 40.411" stroke="#263238" stroke-width="0.178385" stroke-linecap="round" stroke-linejoin="round"/>
<path d="M31.5928 46.5023L46.2431 41.381" stroke="#263238" stroke-width="0.178385" stroke-linecap="round" stroke-linejoin="round"/>
<path d="M31.9938 47.634L44.487 43.264" stroke="#263238" stroke-width="0.178385" stroke-linecap="round" stroke-linejoin="round"/>
<path d="M33.6152 48.2213L32.4238 48.6379L32.8449 49.8199L34.0363 49.4032L33.6152 48.2213Z" stroke="#263238" stroke-width="0.0891923" stroke-linecap="round" stroke-linejoin="round"/>
<path d="M35.7774 47.4681L34.5859 47.8848L35.007 49.0667L36.1984 48.6501L35.7774 47.4681Z" stroke="#263238" stroke-width="0.0891923" stroke-linecap="round" stroke-linejoin="round"/>
<path d="M37.9336 46.7125L36.7422 47.1292L37.1632 48.3111L38.3546 47.8944L37.9336 46.7125Z" stroke="#263238" stroke-width="0.0891923" stroke-linecap="round" stroke-linejoin="round"/>
<path d="M40.0957 45.9593L38.9043 46.376L39.3253 47.5579L40.5167 47.1413L40.0957 45.9593Z" stroke="#263238" stroke-width="0.0891923" stroke-linecap="round" stroke-linejoin="round"/>
<path d="M30.4658 45.8064C30.4868 45.8652 30.4898 45.9289 30.4744 45.9894C30.4589 46.0499 30.4256 46.1044 30.3788 46.1462C30.332 46.1879 30.2738 46.2148 30.2115 46.2237C30.1492 46.2325 30.0856 46.2227 30.0289 46.1957C29.9721 46.1687 29.9248 46.1255 29.8927 46.0718C29.8607 46.018 29.8455 45.956 29.8491 45.8937C29.8526 45.8314 29.8747 45.7715 29.9126 45.7217C29.9505 45.6719 30.0025 45.6344 30.062 45.6139C30.1412 45.5866 30.2281 45.5916 30.3038 45.6276C30.3794 45.6637 30.4377 45.7279 30.4658 45.8064Z" fill="#263238"/>
<path d="M33.2628 51.1905L47.913 46.0691" stroke="#263238" stroke-width="0.178385" stroke-linecap="round" stroke-linejoin="round"/>
<path d="M33.6032 52.1605L48.2504 47.0373" stroke="#263238" stroke-width="0.178385" stroke-linecap="round" stroke-linejoin="round"/>
<path d="M34.0094 53.2929L46.5026 48.9229" stroke="#263238" stroke-width="0.178385" stroke-linecap="round" stroke-linejoin="round"/>
<path d="M35.6309 53.8802L34.4395 54.2969L34.8605 55.4788L36.0519 55.0622L35.6309 53.8802Z" stroke="#263238" stroke-width="0.0891923" stroke-linecap="round" stroke-linejoin="round"/>
<path d="M37.793 53.1249L36.6016 53.5415L37.0226 54.7234L38.214 54.3068L37.793 53.1249Z" stroke="#263238" stroke-width="0.0891923" stroke-linecap="round" stroke-linejoin="round"/>
<path d="M39.9531 52.3717L38.7617 52.7883L39.1828 53.9703L40.3742 53.5536L39.9531 52.3717Z" stroke="#263238" stroke-width="0.0891923" stroke-linecap="round" stroke-linejoin="round"/>
<path d="M42.1113 51.6161L40.9199 52.0327L41.341 53.2146L42.5324 52.798L42.1113 51.6161Z" stroke="#263238" stroke-width="0.0891923" stroke-linecap="round" stroke-linejoin="round"/>
<path d="M32.4814 51.4631C32.5025 51.5219 32.5055 51.5856 32.49 51.6461C32.4745 51.7066 32.4413 51.7612 32.3945 51.8029C32.3477 51.8446 32.2894 51.8716 32.2271 51.8804C32.1648 51.8892 32.1013 51.8795 32.0445 51.8524C31.9878 51.8254 31.9404 51.7823 31.9084 51.7285C31.8764 51.6747 31.8612 51.6127 31.8647 51.5504C31.8682 51.4881 31.8904 51.4282 31.9283 51.3784C31.9662 51.3286 32.0181 51.2911 32.0776 51.2707C32.1568 51.2434 32.2438 51.2483 32.3194 51.2844C32.3951 51.3204 32.4533 51.3847 32.4814 51.4631Z" fill="#263238"/>
<path d="M35.3331 57.0055L49.9809 51.8847" stroke="#263238" stroke-width="0.178385" stroke-linecap="round" stroke-linejoin="round"/>
<path d="M35.6768 57.9755L50.3246 52.8546" stroke="#263238" stroke-width="0.178385" stroke-linecap="round" stroke-linejoin="round"/>
<path d="M36.0791 59.1082L48.573 54.7405" stroke="#263238" stroke-width="0.178385" stroke-linecap="round" stroke-linejoin="round"/>
<path d="M37.7051 59.6979L36.5137 60.1145L36.9347 61.2964L38.1261 60.8798L37.7051 59.6979Z" stroke="#263238" stroke-width="0.0891923" stroke-linecap="round" stroke-linejoin="round"/>
<path d="M39.8613 58.9447L38.6699 59.3613L39.091 60.5433L40.2824 60.1266L39.8613 58.9447Z" stroke="#263238" stroke-width="0.0891923" stroke-linecap="round" stroke-linejoin="round"/>
<path d="M42.0234 58.1891L40.832 58.6057L41.2531 59.7877L42.4445 59.371L42.0234 58.1891Z" stroke="#263238" stroke-width="0.0891923" stroke-linecap="round" stroke-linejoin="round"/>
<path d="M44.1816 57.4334L42.9902 57.8501L43.4113 59.032L44.6027 58.6154L44.1816 57.4334Z" stroke="#263238" stroke-width="0.0891923" stroke-linecap="round" stroke-linejoin="round"/>
<path d="M34.5639 57.2771C34.5848 57.3353 34.5878 57.3984 34.5725 57.4583C34.5573 57.5183 34.5244 57.5724 34.4782 57.6138C34.4319 57.6552 34.3743 57.682 34.3126 57.691C34.251 57.6999 34.188 57.6905 34.1317 57.6639C34.0754 57.6374 34.0282 57.5949 33.9963 57.5418C33.9643 57.4887 33.9488 57.4275 33.952 57.3657C33.9551 57.304 33.9766 57.2446 34.0137 57.1949C34.0509 57.1453 34.102 57.1078 34.1607 57.087C34.1998 57.0732 34.2412 57.0672 34.2826 57.0693C34.324 57.0713 34.3646 57.0815 34.402 57.0991C34.4395 57.1168 34.473 57.1416 34.5008 57.1721C34.5286 57.2027 34.5501 57.2383 34.5639 57.2771Z" fill="#263238"/>
<path d="M31.0069 43.3073L31.2655 43.5025L31.6044 42.5691" stroke="#263238" stroke-width="0.178385" stroke-linecap="round" stroke-linejoin="round"/>
<path d="M37.3135 47.3813L37.5728 47.5788L37.911 46.6431" stroke="#263238" stroke-width="0.178385" stroke-linecap="round" stroke-linejoin="round"/>
<path d="M37.208 53.9106L37.4697 54.1075L37.8055 53.1724" stroke="#263238" stroke-width="0.178385" stroke-linecap="round" stroke-linejoin="round"/>
<path d="M43.5557 58.1828L43.815 58.3803L44.1532 57.4446" stroke="#263238" stroke-width="0.178385" stroke-linecap="round" stroke-linejoin="round"/>
</g>
<path d="M42.6398 62.08C43.4872 59.6492 46.7081 51.8916 46.5 48.3819C46.484 48.0897 46.4306 47.8007 46.3408 47.5218C45.4666 44.8669 41.374 44.9254 39.7051 47.0113C37.8699 49.3056 36.2687 53.5138 36.0173 56.1027C35.8459 57.3979 35.3579 58.6321 34.5954 59.6986C34.3322 60.0937 34.0384 60.468 33.7166 60.8182L25.4486 38.5702C24.4719 39.2985 23.6081 40.1638 22.8843 41.1386C22.4771 41.6819 22.2012 42.3101 22.0777 42.9752C21.7847 45.1236 18.8999 53.8331 17.6992 57.5105C17.6767 57.5898 17.6482 57.6625 17.6258 57.7387C16.4695 61.273 18.4381 74.6988 17.5087 78.525C16.5792 82.3513 16.1246 82.2462 15.8848 84.984C15.7114 86.9836 12.52 92.9386 8.96223 99.0368C6.91991 102.529 4.77527 106.069 3.00295 108.947L26.8591 109.103C27.4071 106.263 27.9748 103.269 28.5008 100.365C28.7268 99.158 29.0216 97.9644 29.3839 96.7901C30.0078 94.7193 30.7375 92.8543 31.1866 91.7636C31.7693 90.1568 32.2647 88.5203 32.6707 86.861C35.5756 84.0987 39.4237 79.7195 40.6217 76.6875L40.6228 76.6659C40.9108 76.0442 41.0256 75.3576 40.9551 74.677C40.8653 74.1166 40.8285 73.5492 40.845 72.9821C40.8955 69.6237 41.9306 64.1035 42.6398 62.08Z" fill="white"/>
<path opacity="0.8" d="M34.6004 59.7161C33.7944 61.145 32.8375 62.5265 32.2011 64.1396C31.5646 65.7526 30.9326 65.9573 29.2056 67.1601C27.4787 68.3629 26.3625 66.1939 26.3625 66.1939C26.3625 66.1939 28.676 64.0336 28.0027 62.7412C27.3294 61.4489 24.7236 58.1895 24.9686 56.459C25.2136 54.7285 23.5728 50.7706 23.5728 50.7706C23.5728 50.7706 27.8462 48.5585 27.1728 45.6907C26.8059 44.138 24.7001 42.3945 22.8839 41.1373C23.6077 40.1625 24.4716 39.2972 25.4482 38.5689L33.7216 60.8357C34.0434 60.4855 34.3372 60.1112 34.6004 59.7161Z" fill="#FFE4C8"/>
<path opacity="0.8" d="M18.8632 72.386C18.9106 72.5736 20.0541 77.0576 18.8247 78.8432C17.5953 80.6288 16.3063 83.0109 16.7455 85.54C17.0935 87.5582 13.0096 94.5921 8.9707 99.0395C12.5191 92.9408 15.7105 86.9858 15.8933 84.9867C16.133 82.2489 16.5877 82.354 17.5171 78.5277C18.4466 74.7014 16.4624 61.275 17.6343 57.7414C17.6567 57.6652 17.6852 57.5924 17.7077 57.5132C18.2414 61.6068 19.5505 69.7715 19.8917 72.3917C20.3145 75.7263 18.9193 72.5215 18.8632 72.386Z" fill="#FFE4C8"/>
<path opacity="0.8" d="M26.169 99.443C29.4964 87.8076 39.2385 79.2237 40.6231 76.6733C39.425 79.7052 35.5801 84.0846 32.672 86.8468C32.2661 88.506 31.7707 90.1426 31.1879 91.7494C30.7451 92.8403 30.0154 94.7053 29.3852 96.7758C26.5399 99.7973 26.169 99.443 26.169 99.443Z" fill="#FFE4C8"/>
<path opacity="0.8" d="M42.6396 62.082C41.9179 64.105 40.8953 69.6257 40.855 72.9692C40.4651 70.847 39.6496 68.1424 39.6701 64.4273C39.7042 58.1274 43.2032 60.5551 42.0934 57.3979C40.9836 54.2406 37.2101 58.0396 39.2879 51.5683C40.8075 46.8403 44.4741 47.0612 46.3406 47.5238C46.4304 47.8027 46.4839 48.0917 46.4998 48.3839C46.7079 51.8936 43.4867 59.6574 42.6396 62.082Z" fill="#FFE4C8"/>
<path d="M33.7224 60.8353C33.1066 61.886 32.5933 62.9921 32.1893 64.1389C31.7275 65.6307 29.763 65.321 28.6982 66.2094" stroke="#263238" stroke-width="0.0891923" stroke-linecap="round" stroke-linejoin="round"/>
<path d="M26.3984 57.8257C26.3984 57.8257 29.0436 58.8784 30.5486 60.1703C32.0536 61.4622 33.1977 61.7977 33.1977 61.7977" stroke="#263238" stroke-width="0.0891923" stroke-linecap="round" stroke-linejoin="round"/>
<path d="M24.9995 51.1646C24.9995 51.1646 27.139 51.8688 28.7816 51.1901C28.8909 50.4245 29.0638 49.6692 29.2988 48.9318" stroke="#263238" stroke-width="0.0891923" stroke-linecap="round" stroke-linejoin="round"/>
<path d="M29.2832 51.5232C29.2832 51.5232 29.2904 51.8325 30.3947 51.885" stroke="#263238" stroke-width="0.0891923" stroke-linecap="round" stroke-linejoin="round"/>
<path d="M32.6684 86.8531C31.0842 88.2858 29.8354 90.0427 29.0089 92.0017" stroke="#263238" stroke-width="0.0891923" stroke-linecap="round" stroke-linejoin="round"/>
<path d="M17.466 58.3888C17.2812 60.2334 19.1622 66.8963 19.6746 70.1888C20.187 73.4813 20.3237 75.7984 20.3237 75.7984" stroke="#263238" stroke-width="0.0891923" stroke-linecap="round" stroke-linejoin="round"/>
<path d="M6.93993 102.617C10.1976 97.3729 13.3473 91.9658 15.7378 86.0838C16.0315 85.236 15.7478 84.1012 16.0414 83.2533C19.2376 75.6212 16.4154 67.3845 17.3212 59.4581C17.9103 56.3446 19.0746 53.2338 20.242 50.1232C20.8282 47.8591 21.1276 45.3126 22.0014 43.0498C22.8701 41.3551 23.7397 39.3763 25.4567 38.5808C28.2959 45.9348 31.1241 53.3224 33.7301 60.8476C35.1015 60.1499 35.4073 58.4563 35.6906 57.0365C36.5715 53.6404 37.4482 50.5282 38.8989 47.706C40.3448 45.4457 43.7923 44.6183 45.7891 46.6161C46.3599 47.2368 46.6642 48.0522 46.6376 48.8898C46.0425 52.8525 44.584 56.8234 43.1308 60.4857C42.5466 62.1816 41.9665 63.5965 41.6699 65.2937C41.668 65.8589 41.6639 66.1429 41.6618 66.7112C40.7862 69.5392 41.3463 72.0926 41.0425 74.9262C40.1527 80.0208 35.8336 83.3923 32.6481 87.0555C31.7724 89.8835 30.8937 92.7113 29.7429 95.5386C28.2903 99.7786 27.6878 104.028 27.063 108.153" stroke="#263238" stroke-width="0.0891923" stroke-linecap="round" stroke-linejoin="round"/>
<g clip-path="url(#clip2_7_73518)">
<path d="M81.7174 23.874L55.8613 22.6433L54.0197 61.3273L79.8759 62.5579L81.7174 23.874Z" fill="white" stroke="#263238" stroke-width="0.0891923" stroke-linecap="round" stroke-linejoin="round"/>
<path d="M57.6712 25.3686L64.4017 25.6754" stroke="#263238" stroke-width="0.178385" stroke-linecap="round" stroke-linejoin="round"/>
<path d="M57.6159 26.6565L62.1933 26.8634" stroke="#263238" stroke-width="0.178385" stroke-linecap="round" stroke-linejoin="round"/>
<path d="M59.1162 29.7669L78.4753 30.647" stroke="#263238" stroke-width="0.178385" stroke-linecap="round" stroke-linejoin="round"/>
<path d="M59.06 31.0508L78.4187 31.9339" stroke="#263238" stroke-width="0.178385" stroke-linecap="round" stroke-linejoin="round"/>
<path d="M58.9909 32.5517L75.5002 33.3048" stroke="#263238" stroke-width="0.178385" stroke-linecap="round" stroke-linejoin="round"/>
<path d="M60.5881 33.993L59.0137 33.9214L58.9424 35.4888L60.5168 35.5604L60.5881 33.993Z" stroke="#263238" stroke-width="0.0891923" stroke-linecap="round" stroke-linejoin="round"/>
<path d="M63.4357 34.1222L61.8613 34.0505L61.79 35.6179L63.3644 35.6895L63.4357 34.1222Z" stroke="#263238" stroke-width="0.0891923" stroke-linecap="round" stroke-linejoin="round"/>
<path d="M66.2951 34.2489L64.7207 34.1772L64.6494 35.7446L66.2238 35.8162L66.2951 34.2489Z" stroke="#263238" stroke-width="0.0891923" stroke-linecap="round" stroke-linejoin="round"/>
<path d="M69.1506 34.3807L67.5762 34.3091L67.5049 35.8764L69.0793 35.9481L69.1506 34.3807Z" stroke="#263238" stroke-width="0.0891923" stroke-linecap="round" stroke-linejoin="round"/>
<path d="M58.0882 29.7181C58.0854 29.7963 58.0593 29.8719 58.0132 29.9353C57.9671 29.9987 57.9031 30.047 57.8294 30.074C57.7556 30.1011 57.6754 30.1057 57.599 30.0873C57.5226 30.0689 57.4534 30.0282 57.4002 29.9706C57.347 29.9129 57.3123 29.8408 57.3004 29.7634C57.2885 29.6861 57.2999 29.6069 57.3333 29.5361C57.3667 29.4652 57.4205 29.4059 57.4879 29.3656C57.5553 29.3253 57.6332 29.3059 57.7117 29.3098C57.8158 29.3149 57.9136 29.3607 57.9841 29.4371C58.0545 29.5135 58.0919 29.6144 58.0882 29.7181Z" fill="#263238"/>
<path d="M58.7744 37.2652L78.1336 38.1451" stroke="#263238" stroke-width="0.178385" stroke-linecap="round" stroke-linejoin="round"/>
<path d="M58.7182 38.5515L78.0769 39.4345" stroke="#263238" stroke-width="0.178385" stroke-linecap="round" stroke-linejoin="round"/>
<path d="M58.6506 40.0553L75.1603 40.8052" stroke="#263238" stroke-width="0.178385" stroke-linecap="round" stroke-linejoin="round"/>
<path d="M60.2463 41.492L58.6719 41.4204L58.6006 42.9878L60.175 43.0594L60.2463 41.492Z" stroke="#263238" stroke-width="0.0891923" stroke-linecap="round" stroke-linejoin="round"/>
<path d="M63.0998 41.6261L61.5254 41.5544L61.4541 43.1218L63.0285 43.1934L63.0998 41.6261Z" stroke="#263238" stroke-width="0.0891923" stroke-linecap="round" stroke-linejoin="round"/>
<path d="M65.9514 41.7528L64.377 41.6812L64.3057 43.2485L65.8801 43.3201L65.9514 41.7528Z" stroke="#263238" stroke-width="0.0891923" stroke-linecap="round" stroke-linejoin="round"/>
<path d="M68.8068 41.8844L67.2324 41.8127L67.1611 43.3801L68.7355 43.4517L68.8068 41.8844Z" stroke="#263238" stroke-width="0.0891923" stroke-linecap="round" stroke-linejoin="round"/>
<path d="M57.7463 37.2219C57.7429 37.2999 57.7163 37.3752 57.6698 37.4382C57.6233 37.5012 57.5591 37.549 57.4853 37.5756C57.4115 37.6022 57.3314 37.6063 57.2552 37.5875C57.179 37.5688 57.1101 37.5279 57.0573 37.4701C57.0044 37.4122 56.97 37.3401 56.9584 37.2628C56.9468 37.1855 56.9584 37.1066 56.992 37.0359C57.0255 36.9653 57.0793 36.9061 57.1467 36.866C57.214 36.8259 57.2918 36.8065 57.3702 36.8105C57.4748 36.8158 57.573 36.862 57.6434 36.9391C57.7139 37.0161 57.7508 37.1178 57.7463 37.2219Z" fill="#263238"/>
<path d="M58.433 44.7685L77.7918 45.6515" stroke="#263238" stroke-width="0.178385" stroke-linecap="round" stroke-linejoin="round"/>
<path d="M58.374 46.0536L77.7301 46.933" stroke="#263238" stroke-width="0.178385" stroke-linecap="round" stroke-linejoin="round"/>
<path d="M58.3088 47.5543L74.8186 48.3042" stroke="#263238" stroke-width="0.178385" stroke-linecap="round" stroke-linejoin="round"/>
<path d="M59.9045 48.9935L58.3301 48.9219L58.2588 50.4892L59.8332 50.5609L59.9045 48.9935Z" stroke="#263238" stroke-width="0.0891923" stroke-linecap="round" stroke-linejoin="round"/>
<path d="M62.7561 49.1251L61.1816 49.0535L61.1103 50.6208L62.6848 50.6925L62.7561 49.1251Z" stroke="#263238" stroke-width="0.0891923" stroke-linecap="round" stroke-linejoin="round"/>
<path d="M65.6154 49.2567L64.041 49.1851L63.9697 50.7524L65.5441 50.8241L65.6154 49.2567Z" stroke="#263238" stroke-width="0.0891923" stroke-linecap="round" stroke-linejoin="round"/>
<path d="M68.465 49.3834L66.8906 49.3118L66.8193 50.8791L68.3937 50.9508L68.465 49.3834Z" stroke="#263238" stroke-width="0.0891923" stroke-linecap="round" stroke-linejoin="round"/>
<path d="M57.4025 44.7233C57.3991 44.8014 57.3725 44.8767 57.326 44.9397C57.2796 45.0026 57.2154 45.0505 57.1416 45.077C57.0678 45.1036 56.9877 45.1078 56.9115 45.089C56.8353 45.0702 56.7664 45.0293 56.7135 44.9715C56.6607 44.9137 56.6263 44.8416 56.6146 44.7643C56.603 44.687 56.6147 44.608 56.6482 44.5374C56.6817 44.4667 56.7356 44.4076 56.8029 44.3674C56.8703 44.3273 56.9481 44.308 57.0265 44.312C57.131 44.3172 57.2292 44.3635 57.2997 44.4405C57.3701 44.5176 57.4071 44.6192 57.4025 44.7233Z" fill="#263238"/>
<path d="M58.0853 52.4822L77.441 53.3647" stroke="#263238" stroke-width="0.178385" stroke-linecap="round" stroke-linejoin="round"/>
<path d="M58.0268 53.7688L77.3825 54.6513" stroke="#263238" stroke-width="0.178385" stroke-linecap="round" stroke-linejoin="round"/>
<path d="M57.9557 55.2698L74.465 56.0227" stroke="#263238" stroke-width="0.178385" stroke-linecap="round" stroke-linejoin="round"/>
<path d="M59.5568 56.712L57.9824 56.6404L57.9111 58.2078L59.4855 58.2794L59.5568 56.712Z" stroke="#263238" stroke-width="0.0891923" stroke-linecap="round" stroke-linejoin="round"/>
<path d="M62.4084 56.8412L60.834 56.7695L60.7627 58.3369L62.3371 58.4085L62.4084 56.8412Z" stroke="#263238" stroke-width="0.0891923" stroke-linecap="round" stroke-linejoin="round"/>
<path d="M65.26 56.9703L63.6855 56.8987L63.6143 58.466L65.1887 58.5377L65.26 56.9703Z" stroke="#263238" stroke-width="0.0891923" stroke-linecap="round" stroke-linejoin="round"/>
<path d="M68.1193 57.0995L66.5449 57.0278L66.4736 58.5952L68.048 58.6668L68.1193 57.0995Z" stroke="#263238" stroke-width="0.0891923" stroke-linecap="round" stroke-linejoin="round"/>
<path d="M57.0687 52.438C57.0653 52.5153 57.039 52.5899 56.993 52.6523C56.9471 52.7147 56.8836 52.7622 56.8105 52.7886C56.7375 52.8151 56.6582 52.8195 56.5827 52.8011C56.5071 52.7827 56.4388 52.7425 56.3862 52.6855C56.3336 52.6284 56.2992 52.5572 56.2873 52.4807C56.2753 52.4042 56.2864 52.3259 56.3192 52.2557C56.3519 52.1856 56.4049 52.1266 56.4712 52.0864C56.5376 52.0461 56.6145 52.0264 56.6922 52.0297C56.7439 52.0318 56.7946 52.0441 56.8415 52.0658C56.8884 52.0875 56.9305 52.1182 56.9655 52.1561C57.0004 52.1941 57.0276 52.2385 57.0453 52.2868C57.063 52.3352 57.0709 52.3866 57.0687 52.438Z" fill="#263238"/>
<path d="M59.547 34.5716L59.754 34.9186L60.5865 33.9936" stroke="#263238" stroke-width="0.178385" stroke-linecap="round" stroke-linejoin="round"/>
<path d="M64.9161 42.2389L65.1227 42.5888L65.9556 41.6608" stroke="#263238" stroke-width="0.178385" stroke-linecap="round" stroke-linejoin="round"/>
<path d="M61.7169 49.767L61.9265 50.1174L62.7564 49.1889" stroke="#263238" stroke-width="0.178385" stroke-linecap="round" stroke-linejoin="round"/>
<path d="M67.0392 57.6778L67.2457 58.0278L68.0787 57.0998" stroke="#263238" stroke-width="0.178385" stroke-linecap="round" stroke-linejoin="round"/>
</g>
<defs>
<clipPath id="clip0_7_73518">
<rect width="23.8896" height="33.0067" fill="white" transform="matrix(0.995413 0.095661 -0.0964725 0.995336 85.6602 34.3391)"/>
</clipPath>
<clipPath id="clip1_7_73518">
<rect width="23.8621" height="33.0454" fill="white" transform="matrix(0.944636 -0.328131 0.333572 0.942721 22.8301 35.1101)"/>
</clipPath>
<clipPath id="clip2_7_73518">
<rect width="29.7961" height="41.323" fill="white" transform="matrix(0.998869 0.0475432 -0.0475523 0.998869 53.9668 21.2534)"/>
</clipPath>
</defs>
</svg>
