<svg width="33" height="33" viewBox="0 0 33 33" fill="none" xmlns="http://www.w3.org/2000/svg">
<path d="M16.4999 10.6067C16.9688 10.6067 17.4184 10.4205 17.75 10.089C18.0815 9.75742 18.2677 9.30776 18.2677 8.83889C18.2677 8.37003 18.0815 7.92037 17.75 7.58883C17.4184 7.25729 16.9688 7.07103 16.4999 7.07103C16.031 7.07103 15.5814 7.25729 15.2498 7.58883C14.9183 7.92037 14.732 8.37003 14.732 8.83889C14.732 9.30776 14.9183 9.75742 15.2498 10.089C15.5814 10.4205 16.031 10.6067 16.4999 10.6067ZM17.5488 2.70443C17.245 2.48045 16.8774 2.35962 16.4999 2.35962C16.1224 2.35962 15.7548 2.48045 15.451 2.70443L4.25454 10.9603C2.88268 11.9727 3.59807 14.1507 5.30346 14.1507H5.89275V22.6859C5.19453 22.9769 4.59807 23.468 4.17859 24.0974C3.7591 24.7269 3.53537 25.4664 3.53561 26.2228V27.9907C3.53561 28.4786 3.93161 28.8746 4.41954 28.8746H28.5802C28.8147 28.8746 29.0395 28.7815 29.2053 28.6157C29.371 28.4499 29.4642 28.2251 29.4642 27.9907V26.2228C29.4642 25.4666 29.2403 24.7273 28.8209 24.0981C28.4014 23.4689 27.8051 22.978 27.107 22.6871V14.1507H27.6951C29.4017 14.1507 30.1171 11.9727 28.7441 10.9603L17.5488 2.70443ZM7.66061 22.3925V14.1507H10.607V22.3925H7.66061ZM25.3392 14.1507V22.3925H22.3927V14.1507H25.3392ZM20.6249 14.1507V22.3925H17.3838V14.1507H20.6249ZM15.616 14.1507V22.3925H12.3749V14.1507H15.616ZM5.30346 12.3829L16.4999 4.12696L27.6951 12.3829H5.30346ZM5.30346 26.2228C5.30346 25.0843 6.22746 24.1603 7.36596 24.1603H25.6338C26.7723 24.1603 27.6963 25.0843 27.6963 26.2228V27.1067H5.30346V26.2228Z" fill="#F0792E"/>
</svg>
