<svg width="2" height="4" viewBox="0 0 2 4" fill="none" xmlns="http://www.w3.org/2000/svg">
<path opacity="0.81" d="M1.13897 3.99984C1.06951 3.99965 1.00212 3.97619 0.947537 3.93322C0.892954 3.89024 0.854324 3.83023 0.837815 3.76274L0.0110256 0.391551C9.04866e-05 0.35167 -0.00274817 0.309994 0.0026775 0.268998C0.00810316 0.228001 0.0216857 0.188506 0.0426184 0.152846C0.0635511 0.117185 0.0914096 0.0860773 0.124555 0.0613642C0.157701 0.0366511 0.195462 0.0188343 0.235604 0.00895787C0.275747 -0.000918564 0.317459 -0.00264736 0.358282 0.00386707C0.399105 0.0103815 0.438209 0.0250119 0.473288 0.046892C0.508367 0.0687722 0.538712 0.0974536 0.562527 0.131256C0.586341 0.165059 0.603144 0.203291 0.611947 0.243697L1.44013 3.61628C1.45947 3.69599 1.4464 3.78012 1.40379 3.8502C1.36118 3.92028 1.29252 3.97058 1.21287 3.99007C1.18879 3.99662 1.16393 3.99991 1.13897 3.99984Z" fill="white"/>
</svg>
