<svg width="25" height="2" viewBox="0 0 25 2" fill="none" xmlns="http://www.w3.org/2000/svg">
<path d="M24.5655 0.230984L0.442267 5.15476e-05C0.383497 -0.000852835 0.325158 0.0101515 0.270752 0.0324003C0.216346 0.0546491 0.166996 0.0876804 0.125689 0.12951C0.0843826 0.171339 0.0519675 0.221099 0.0303938 0.275792C0.00882014 0.330485 -0.00145705 0.38898 0.000166267 0.447755L0.00778297 0.836638C0.00950401 0.952012 0.056902 1.06199 0.13958 1.14245C0.222258 1.22291 0.333469 1.26728 0.448807 1.26583L24.5644 1.10787C24.6226 1.1079 24.6803 1.09624 24.7339 1.0736C24.7875 1.05096 24.8361 1.01779 24.8767 0.976049C24.9173 0.934311 24.9491 0.884853 24.9703 0.830598C24.9915 0.776343 25.0016 0.718391 25 0.660171C24.9982 0.545935 24.9518 0.436941 24.8705 0.356666C24.7892 0.276391 24.6797 0.231257 24.5655 0.230984Z" fill="#7D97F4"/>
</svg>
