<svg width="6" height="6" viewBox="0 0 6 6" fill="none" xmlns="http://www.w3.org/2000/svg">
<path d="M3.00198 6C2.51454 5.99946 2.03454 5.88032 1.60339 5.65287C1.17223 5.42541 0.802844 5.09645 0.527098 4.69437C0.251352 4.29228 0.0775104 3.82913 0.0205729 3.34486C-0.0363645 2.86059 0.0253109 2.36974 0.200273 1.91462C0.397701 1.40572 0.730195 0.960348 1.16193 0.62649C1.59367 0.292631 2.10829 0.0829398 2.65034 0.0200055C3.1924 -0.0429288 3.74135 0.0432802 4.23805 0.269344C4.73475 0.495408 5.16037 0.852758 5.46907 1.3029C5.77777 1.75304 5.95785 2.2789 5.9899 2.82384C6.02194 3.36878 5.90473 3.91214 5.65091 4.39538C5.3971 4.87862 5.01629 5.28342 4.54951 5.56618C4.08272 5.84893 3.54767 5.99893 3.00198 6ZM0.634695 2.08257C0.45435 2.55055 0.416764 3.06151 0.526701 3.55085C0.636638 4.0402 0.889159 4.48595 1.25233 4.83174C1.61549 5.17752 2.073 5.40783 2.56701 5.49353C3.06101 5.57923 3.56932 5.51647 4.02767 5.31319C4.48603 5.10992 4.87383 4.77525 5.14206 4.35151C5.41028 3.92777 5.54689 3.43398 5.53459 2.93258C5.5223 2.43118 5.36165 1.94469 5.07298 1.53462C4.7843 1.12454 4.38055 0.809305 3.91279 0.628758C3.28531 0.387459 2.58777 0.405006 1.97321 0.677558C1.35866 0.95011 0.877278 1.4554 0.634695 2.08257Z" fill="#90B9E7"/>
</svg>
