<svg width="35" height="24" viewBox="0 0 35 24" fill="none" xmlns="http://www.w3.org/2000/svg">
<path d="M8.82433 5.59229L8.82433 5.59229C11.1735 5.56604 13.5176 5.36768 15.8378 4.99879C15.8872 4.98873 15.9377 4.98534 15.9879 4.98871M8.82433 5.59229L15.9818 5.08998M8.82433 5.59229L8.82369 5.5923C8.6695 5.595 8.5227 5.65884 8.41558 5.76977C8.30846 5.88071 8.2498 6.02966 8.25249 6.18384C8.25519 6.33803 8.31903 6.48484 8.42997 6.59196C8.4849 6.645 8.54974 6.6867 8.62078 6.71468C8.69154 6.74255 8.76707 6.75626 8.8431 6.75506M8.82433 5.59229L8.84226 6.65361M15.9879 4.98871C15.9882 4.98873 15.9884 4.98875 15.9887 4.98876L15.9818 5.08998M15.9879 4.98871C15.9877 4.9887 15.9874 4.98868 15.9871 4.98867L15.9818 5.08998M15.9879 4.98871C16.5878 5.02057 17.1697 5.20414 17.6793 5.52225L17.6853 5.52603L17.6852 5.52623C17.7842 5.5982 17.858 5.6996 17.8961 5.81599C17.9341 5.93237 17.9344 6.05779 17.897 6.17437C17.8595 6.29094 17.7863 6.39272 17.6876 6.46519C17.5889 6.53766 17.4698 6.57713 17.3474 6.57796L17.3467 6.57796C17.2133 6.57794 17.0839 6.53312 16.9791 6.45083M15.9818 5.08998C16.5647 5.12081 17.1303 5.29916 17.6255 5.60831C17.7073 5.66772 17.7682 5.75143 17.7996 5.8475C17.831 5.94358 17.8313 6.04711 17.8004 6.14334C17.7695 6.23958 17.709 6.3236 17.6275 6.38342C17.546 6.44325 17.4478 6.47582 17.3467 6.47651C17.2337 6.47649 17.1241 6.4377 17.0362 6.3666M16.9791 6.45083C16.9813 6.45209 16.9835 6.45335 16.9857 6.45462L17.0362 6.3666M16.9791 6.45083C16.9768 6.44906 16.9746 6.44728 16.9724 6.44548L17.0362 6.3666M16.9791 6.45083C16.674 6.27733 16.3332 6.17617 15.9829 6.15512M17.0362 6.3666C16.7126 6.18117 16.3503 6.07386 15.9779 6.05321M15.9779 6.05321L15.9937 6.15343C15.9901 6.15399 15.9865 6.15455 15.9829 6.15512M15.9779 6.05321C13.621 6.42352 11.2404 6.62417 8.85474 6.65361H8.84226M15.9779 6.05321L15.9723 6.1545C15.9759 6.1547 15.9794 6.1549 15.9829 6.15512M15.9829 6.15512C13.6247 6.5251 11.2429 6.7256 8.85599 6.75505L8.85474 6.75506V6.75506H8.8431M8.8431 6.75506C8.84342 6.75505 8.84373 6.75505 8.84404 6.75504L8.84226 6.65361M8.8431 6.75506H8.84226V6.65361" fill="#F0792E" stroke="#F0792E" stroke-width="0.2"/>
<path d="M14.0709 8.51311C14.0504 8.50032 14.0338 8.48213 14.023 8.46054C14.0122 8.43895 14.0075 8.4148 14.0095 8.39072L19.8282 8.25058C19.7529 8.1892 19.6607 8.15211 19.5639 8.14422C19.4671 8.13634 19.3701 8.15803 19.2859 8.20643C16.8089 9.62943 15.0788 9.15718 14.0709 8.51311ZM14.0709 8.51311L14.0709 8.5131L14.0709 8.51311ZM26.3982 18.1725C25.9676 18.173 25.5479 18.0371 25.1995 17.7842L25.098 17.7139C25.0979 17.7138 25.0977 17.7137 25.0976 17.7136C25.0798 17.7014 25.0555 17.6817 25.0327 17.66L19.3903 13.5966C19.3269 13.5531 19.2727 13.4974 19.2309 13.4329C19.1889 13.3679 19.1603 13.2952 19.1468 13.219C19.1332 13.1429 19.135 13.0648 19.152 12.9893C19.169 12.9139 19.2009 12.8426 19.2458 12.7796C19.2907 12.7166 19.3477 12.6632 19.4135 12.6225C19.4793 12.5819 19.5526 12.5548 19.629 12.5428C19.7055 12.5308 19.7835 12.5342 19.8586 12.5527C19.9333 12.5712 20.0037 12.6043 20.0655 12.6502L20.4486 12.9231L20.4491 12.9235L25.7353 16.7354L28.3668 15.5415L28.2693 15.5696L28.3667 15.5413C28.4574 15.8541 28.4726 16.184 28.4112 16.5038C28.3498 16.8236 28.2135 17.1243 28.0134 17.3813M26.3982 18.1725C26.398 18.1725 26.3979 18.1725 26.3978 18.1725L26.398 18.071L26.3982 18.1725ZM26.3982 18.1725C26.71 18.173 27.0178 18.102 27.2979 17.9648C27.5779 17.8276 27.8227 17.628 28.0134 17.3813M28.0134 17.3813C28.0135 17.3812 28.0135 17.3811 28.0136 17.381L27.9333 17.3189L28.0134 17.3813ZM27.6956 14.5308L19.8923 8.17195C19.8011 8.09758 19.6894 8.05266 19.5721 8.04311C19.4548 8.03356 19.3374 8.05983 19.2353 8.11846C18.0103 8.82228 16.9766 9.05369 16.1299 9.0335C15.2832 9.01331 14.6165 8.74135 14.1255 8.42762L14.1255 8.42762L14.1246 8.42704C14.1199 8.42412 14.1162 8.41996 14.1137 8.41503C14.1112 8.4101 14.1101 8.40458 14.1106 8.39907L14.1107 8.39909L14.1109 8.39356C14.1111 8.3857 14.1135 8.37805 14.1178 8.37147C14.1221 8.36488 14.1282 8.35962 14.1353 8.35627L14.1353 8.35638L14.1396 8.3541L18.4654 6.05685C18.4654 6.05681 18.4655 6.05677 18.4656 6.05674C18.6161 5.97761 18.7808 5.92901 18.9502 5.91375C19.1195 5.89849 19.2901 5.91683 19.4523 5.96771C19.4524 5.96776 19.4526 5.96781 19.4527 5.96786L22.0075 6.79724C22.0076 6.79726 22.0077 6.79728 22.0077 6.79731C23.0008 7.12419 24.078 7.08514 25.0447 6.68723C25.0448 6.68721 25.0448 6.6872 25.0448 6.68718L26.1581 6.23132L26.1582 6.2313C26.2288 6.20233 26.2931 6.15972 26.3473 6.10591C26.4015 6.05211 26.4445 5.98815 26.474 5.9177C26.5035 5.84725 26.5188 5.77169 26.519 5.69532C26.5193 5.61896 26.5046 5.54329 26.4756 5.47263C26.4466 5.40197 26.404 5.33771 26.3502 5.28352L26.2782 5.355L26.3502 5.28352C26.2964 5.22933 26.2324 5.18627 26.162 5.15679C26.0915 5.12732 26.016 5.11201 25.9396 5.11173C25.8632 5.11146 25.7876 5.12623 25.7169 5.15519C25.7169 5.1552 25.7169 5.1552 25.7169 5.15521L24.6025 5.61161L24.6024 5.61165C23.8913 5.90379 23.0993 5.93234 22.369 5.69215L22.3686 5.69202L19.8101 4.86174L19.8101 4.86173L19.8095 4.86153C19.4997 4.76325 19.1736 4.72724 18.8499 4.75559C18.5262 4.78394 18.2113 4.87609 17.9234 5.02672L17.9228 5.02701L13.5985 7.32353C13.5983 7.32361 13.5982 7.32368 13.598 7.32376C13.4112 7.42083 13.2531 7.56514 13.1394 7.74233C13.0256 7.91965 12.9603 8.12371 12.9499 8.33415C12.9396 8.54459 12.9846 8.75406 13.0805 8.94169C13.1763 9.12931 13.3197 9.28853 13.4963 9.40347L13.497 9.40392C14.4936 10.0408 16.5611 10.8328 19.4614 9.31898L26.9655 15.4327L26.9656 15.4328C27.1032 15.5447 27.2029 15.6963 27.2512 15.8669L27.2511 15.8669L27.2515 15.8681C27.2917 16.0039 27.2987 16.1474 27.2718 16.2865C27.2449 16.4254 27.185 16.5559 27.0971 16.6669C26.9535 16.8466 26.7464 16.9644 26.5185 16.9959C26.2905 17.0274 26.0591 16.9703 25.8721 16.8362L25.871 16.8354L25.7849 16.7755C25.7693 16.7613 25.7528 16.748 25.7355 16.7356L27.6956 14.5308Z" fill="#F0792E" stroke="#F0792E" stroke-width="0.2"/>
<path d="M18.0281 16.3352L18.028 16.3352L18.0295 16.3362L23.2175 20.0172C23.5491 20.2527 23.9426 20.3844 24.3481 20.3965L24.3491 20.3984L24.4119 20.3983C24.849 20.3979 25.2747 20.259 25.628 20.0017C25.9813 19.7443 26.244 19.3817 26.3785 18.9659C26.513 18.55 26.5123 18.1022 26.3766 17.6867C26.2409 17.2713 25.9772 16.9094 25.6231 16.6531L25.6229 16.653L20.4507 12.9258L20.4508 12.9257L20.4459 12.9225C20.3206 12.8428 20.1696 12.814 20.0237 12.842C19.8779 12.8701 19.7484 12.9529 19.6616 13.0735C19.5749 13.194 19.5376 13.3432 19.5574 13.4904C19.5772 13.6375 19.6525 13.7716 19.768 13.865L19.7679 13.8651L19.7725 13.8684L24.9417 17.5939C25.1252 17.7377 25.2463 17.9467 25.2797 18.1775C25.3133 18.4089 25.2561 18.6443 25.1201 18.8345C24.9842 19.0247 24.78 19.1551 24.5502 19.1983C24.321 19.2414 24.0841 19.1945 23.8886 19.0674L18.7022 15.3879L18.7022 15.3879L18.7007 15.3869C18.5749 15.3009 18.4203 15.2677 18.2702 15.2945C18.1201 15.3214 17.9866 15.4061 17.8984 15.5305C17.8102 15.6548 17.7743 15.8088 17.7986 15.9593C17.8228 16.1098 17.9052 16.2448 18.0281 16.3352Z" fill="#F0792E" stroke="#F0792E" stroke-width="0.2"/>
<path d="M17.0473 17.7865L17.0474 17.7865L21.6964 21.0068C21.7876 21.0699 21.8902 21.1143 21.9985 21.1377C22.1069 21.161 22.2187 21.1628 22.3277 21.1429C22.4367 21.123 22.5408 21.0819 22.6338 21.0218C22.7269 20.9617 22.8072 20.8839 22.8701 20.7928C22.9955 20.61 23.0442 20.3853 23.0057 20.167C22.9673 19.9486 22.8448 19.7541 22.6645 19.6251C22.6644 19.6251 22.6644 19.625 22.6643 19.625L18.0388 16.3439C17.9754 16.3004 17.9212 16.2448 17.8795 16.1802C17.8376 16.1154 17.809 16.0429 17.7954 15.9669C17.7818 15.8909 17.7835 15.813 17.8003 15.7377C17.8172 15.6623 17.8488 15.5911 17.8935 15.5281C17.9382 15.4652 17.9949 15.4117 18.0604 15.371C18.126 15.3302 18.199 15.3028 18.2752 15.2905C18.3514 15.2783 18.4293 15.2813 18.5043 15.2994C18.579 15.3175 18.6495 15.3502 18.7115 15.3957L23.3373 18.677L23.3376 18.6772C23.7665 18.9837 24.058 19.4461 24.1496 19.9652C24.2412 20.4843 24.1255 21.0186 23.8274 21.4534C23.6783 21.6707 23.4877 21.8564 23.2665 21.9996C23.0452 22.1428 22.7978 22.2408 22.5384 22.2877C22.4176 22.3098 22.295 22.3207 22.1722 22.3205M17.0473 17.7865L22.1724 22.2191M17.0473 17.7865C16.9205 17.6987 16.764 17.6649 16.6123 17.6925C16.4605 17.72 16.3259 17.8068 16.2381 17.9336C16.1503 18.0604 16.1165 18.2169 16.1441 18.3687C16.1716 18.5204 16.2584 18.655 16.3852 18.7428L16.4429 18.6594L16.3852 18.7428L21.0341 21.963L17.0473 17.7865ZM22.1722 22.3205L22.1724 22.2191M22.1722 22.3205C22.1723 22.3205 22.1723 22.3205 22.1724 22.3205L22.1724 22.2191M22.1722 22.3205C21.7653 22.3204 21.3682 22.1956 21.0342 21.9631L21.0343 21.9632L21.0921 21.8798C21.4091 22.1005 21.7861 22.219 22.1724 22.2191" fill="#F0792E" stroke="#F0792E" stroke-width="0.2"/>
<path d="M19.4284 23.8954L19.4284 23.8984C19.075 23.8967 18.7281 23.8023 18.4226 23.6247C18.4225 23.6246 18.4224 23.6246 18.4224 23.6246L15.8421 22.137L15.8415 22.1366C15.709 22.059 15.6127 21.9321 15.5734 21.7836C15.5342 21.6352 15.5552 21.4773 15.632 21.3443C15.7088 21.2114 15.835 21.1142 15.9832 21.074C16.1313 21.0337 16.2894 21.0538 16.4228 21.1296L16.4234 21.1299L19.0027 22.6173C19.0028 22.6174 19.003 22.6174 19.0031 22.6175C19.1981 22.7274 19.4283 22.7568 19.6447 22.6995C19.8611 22.6421 20.0466 22.5023 20.1615 22.3101C20.2702 22.1263 20.3048 21.9078 20.2581 21.6994C20.2114 21.4908 20.0869 21.308 19.91 21.1881L19.9092 21.1875L19.9092 21.1875L16.612 18.9035L16.612 18.9035C16.5492 18.86 16.4957 18.8046 16.4543 18.7404C16.413 18.6762 16.3847 18.6045 16.3711 18.5294C16.3574 18.4543 16.3587 18.3772 16.3749 18.3026C16.391 18.2279 16.4217 18.1572 16.4652 18.0945C16.5087 18.0317 16.5641 17.9781 16.6283 17.9368C16.6925 17.8954 16.7642 17.8672 16.8393 17.8535C16.9144 17.8399 16.9915 17.8412 17.0661 17.8573C17.1407 17.8735 17.2114 17.9042 17.2742 17.9477L19.4284 23.8954ZM19.4284 23.8954L19.4284 23.8984H19.4286L19.4284 23.8954ZM20.5708 20.2312L17.2742 17.9477L19.4289 23.8984C19.8575 23.8977 20.2746 23.7601 20.6195 23.5059C20.9645 23.2515 21.2193 22.8936 21.3468 22.4844C21.4743 22.0751 21.4677 21.6359 21.3282 21.2306C21.1886 20.8253 20.9233 20.4752 20.5709 20.2312C20.5709 20.2312 20.5708 20.2312 20.5708 20.2312Z" fill="#F0792E" stroke="#F0792E" stroke-width="0.2"/>
<path d="M12.6539 20.0537L12.6539 20.0536L13.9357 18.9307L13.9358 18.9306L12.6539 20.0537ZM12.6539 20.0537C12.3431 20.3261 12.1228 20.6868 12.0225 21.0878C11.9221 21.4887 11.9465 21.9107 12.0923 22.2974C12.2382 22.6841 12.4985 23.0171 12.8386 23.2519C13.1786 23.4867 13.5822 23.6122 13.9954 23.6116M12.6539 20.0537L15.3342 23.1098M15.3342 23.1098L15.3341 23.1098C14.9638 23.4344 14.4878 23.6127 13.9954 23.6116M15.3342 23.1098L16.6161 21.9844L15.3342 23.1098ZM13.9954 23.6116C13.9953 23.6116 13.9953 23.6116 13.9952 23.6116L13.9954 23.5101L13.9956 23.6116C13.9955 23.6116 13.9955 23.6116 13.9954 23.6116ZM15.2752 19.5883L15.2753 19.5883C15.4517 19.5885 15.6238 19.6424 15.7688 19.7428C15.9138 19.8433 16.0248 19.9855 16.087 20.1506C16.1492 20.3156 16.1597 20.4957 16.117 20.6669C16.0743 20.838 15.9805 20.9921 15.8481 21.1087L14.5664 22.234C14.5664 22.234 14.5663 22.234 14.5663 22.234C14.4806 22.3093 14.3808 22.3669 14.2728 22.4036C14.1647 22.4403 14.0505 22.4554 13.9366 22.4479C13.7066 22.4329 13.492 22.3271 13.34 22.1539C13.2648 22.0681 13.2072 21.9683 13.1705 21.8603C13.1337 21.7522 13.1187 21.638 13.1261 21.5241C13.1336 21.4102 13.1634 21.2989 13.2138 21.1966C13.2643 21.0942 13.3344 21.0028 13.4202 20.9276C13.4202 20.9276 13.4202 20.9276 13.4202 20.9275L14.7026 19.8031L14.7026 19.803C14.8609 19.6641 15.0645 19.5877 15.2752 19.5883Z" fill="#F0792E" stroke="#F0792E" stroke-width="0.2"/>
<path d="M14.8065 17.1112C14.9585 17.2981 15.0763 17.5107 15.154 17.7391C15.2399 17.9918 15.2753 18.2588 15.2579 18.5251C15.2406 18.7914 15.171 19.0516 15.0531 19.291C14.9352 19.5304 14.7713 19.7442 14.5707 19.9201L14.5707 19.9202L12.4275 21.7998C12.4275 21.7999 12.4274 21.7999 12.4274 21.8C12.0581 22.1259 11.5824 22.3055 11.0898 22.3047M14.8065 17.1112L11.09 22.2033C11.0473 22.2033 11.0046 22.2033 10.9619 22.1994M14.8065 17.1112L14.8077 17.11L14.7437 17.037C14.7352 17.0274 14.7266 17.0178 14.718 17.0083M14.8065 17.1112L14.718 17.0083M11.0898 22.3047L11.09 22.2033V22.3047H11.0898ZM11.0898 22.3047H11.0881C11.047 22.3047 11.001 22.3047 10.9542 22.3006M10.9542 22.3006C10.9546 22.3006 10.9551 22.3006 10.9555 22.3007L10.9619 22.1994M10.9542 22.3006C10.6882 22.2838 10.4281 22.2145 10.1889 22.0967C9.94953 21.9788 9.73584 21.8147 9.56019 21.6138C9.38193 21.4134 9.24499 21.1797 9.15722 20.9262C9.06939 20.6726 9.03251 20.4041 9.0487 20.1362C9.06489 19.8683 9.13383 19.6062 9.25156 19.365C9.36929 19.1238 9.53349 18.9083 9.73474 18.7307L9.73493 18.7305L11.8764 16.8506C11.8764 16.8506 11.8764 16.8506 11.8764 16.8506C12.0769 16.6746 12.3101 16.5398 12.5627 16.4539C12.8153 16.368 13.0824 16.3327 13.3486 16.35C13.6149 16.3673 13.8751 16.4369 14.1145 16.5548C14.3297 16.6607 14.5242 16.8039 14.6892 16.9774L14.6901 16.9766L14.718 17.0083M10.9542 22.3006C10.9537 22.3005 10.9532 22.3005 10.9528 22.3005L10.9619 22.1994M10.9619 22.1994L14.718 17.0083M13.2746 17.51C13.3877 17.5171 13.4982 17.5465 13.5999 17.5964C13.7019 17.6464 13.793 17.7161 13.8679 17.8015L13.868 17.8016L13.8819 17.8174C13.9572 17.9031 14.0148 18.0029 14.0516 18.111C14.0883 18.219 14.1034 18.3333 14.096 18.4472C14.0886 18.5611 14.0588 18.6724 14.0083 18.7748C13.9579 18.8772 13.8877 18.9686 13.8019 19.0439L13.8019 19.0439L11.6604 20.9238L11.66 20.9242C11.5747 21 11.4752 21.058 11.3672 21.0948C11.2592 21.1317 11.145 21.1466 11.0312 21.1388C10.8584 21.1266 10.6931 21.0639 10.5556 20.9584C10.4182 20.853 10.3148 20.7094 10.2583 20.5456C10.2018 20.3818 10.1948 20.205 10.238 20.0372C10.2812 19.8697 10.3726 19.7185 10.5009 19.6024L12.6419 17.723L12.6419 17.7229C12.792 17.5909 12.9831 17.5154 13.1822 17.5087H13.2132C13.233 17.5087 13.2538 17.5092 13.2746 17.51Z" fill="#F0792E" stroke="#F0792E" stroke-width="0.2"/>
<path d="M7.13685 19.8499L7.13687 19.8499L7.08526 19.7883C6.73068 19.3834 6.55124 18.8543 6.58636 18.3172C6.62151 17.7798 6.86863 17.2782 7.27342 16.9229L9.7561 14.7435C9.95658 14.5674 10.1898 14.4326 10.4424 14.3466C10.695 14.2607 10.9621 14.2254 11.2284 14.2427C11.4946 14.26 11.7549 14.3296 11.9943 14.4475C12.2336 14.5654 12.4474 14.7294 12.6234 14.9299L12.6235 14.93L12.6777 14.9919C13.0329 15.3968 13.2127 15.9263 13.1775 16.4638C13.1424 17.0014 12.8952 17.5029 12.4902 17.8582L10.0078 20.0373C10.0078 20.0374 10.0077 20.0374 10.0077 20.0375C9.63793 20.364 9.16139 20.5437 8.66812 20.5427M7.13685 19.8499L8.66833 20.4412M7.13685 19.8499L7.13822 19.8514C7.31392 20.0525 7.52772 20.2167 7.76727 20.3347C8.00642 20.4525 8.2665 20.5217 8.53253 20.5386M7.13685 19.8499L8.54019 20.4374M8.66812 20.5427L8.66833 20.4412M8.66812 20.5427H8.66833V20.4412M8.66812 20.5427H8.6665C8.62579 20.5427 8.57976 20.5427 8.53253 20.5386M8.66833 20.4412C8.62609 20.4412 8.58338 20.4412 8.54019 20.4374M8.53253 20.5386C8.53297 20.5386 8.53341 20.5386 8.53385 20.5386L8.54019 20.4374M8.53253 20.5386C8.53209 20.5385 8.53165 20.5385 8.5312 20.5384L8.54019 20.4374M11.0932 15.4016H11.0934C11.1119 15.4016 11.1301 15.4024 11.1501 15.4041L11.1501 15.4042L11.1524 15.4043C11.2661 15.4113 11.3773 15.4408 11.4795 15.4911C11.5818 15.5414 11.673 15.6114 11.748 15.6972L11.8013 15.7581L11.8014 15.7583C11.8767 15.844 11.9344 15.9438 11.9711 16.0519C12.0079 16.1599 12.023 16.2742 12.0155 16.3881C12.0081 16.502 11.9783 16.6133 11.9279 16.7157C11.8774 16.8181 11.8073 16.9095 11.7215 16.9848L11.7215 16.9848L9.23876 19.1642C9.0656 19.3161 8.83922 19.3932 8.60931 19.3783C8.37941 19.3635 8.16479 19.258 8.01259 19.0851L7.95851 19.0234L7.95847 19.0233C7.80637 18.8499 7.72939 18.6231 7.74446 18.3929C7.75953 18.1627 7.86542 17.9479 8.03885 17.7958L8.03887 17.7958L10.5216 15.6164L10.5216 15.6163C10.6796 15.4775 10.8829 15.4011 11.0932 15.4016ZM11.1587 15.3031C11.1361 15.3011 11.115 15.3002 11.0934 15.3002L11.8244 15.6304C11.7406 15.5345 11.6386 15.4562 11.5243 15.4001C11.4101 15.3439 11.2858 15.3109 11.1587 15.3031Z" fill="#F0792E" stroke="#F0792E" stroke-width="0.2"/>
<path d="M5.22275 14.8286L5.22296 14.8284L6.77744 13.464C6.77745 13.464 6.77745 13.464 6.77746 13.464C6.97794 13.2879 7.21114 13.153 7.46375 13.0671C7.71637 12.9812 7.98344 12.9458 8.24971 12.9632C8.51599 12.9805 8.77624 13.0501 9.01561 13.168C9.25497 13.2859 9.46876 13.4498 9.64475 13.6504L9.64485 13.6505L9.66152 13.6696C9.83761 13.8701 9.97248 14.1033 10.0584 14.3559C10.1444 14.6085 10.1797 14.8756 10.1624 15.1419C10.1451 15.4081 10.0754 15.6684 9.95753 15.9077C9.83961 16.1471 9.67568 16.3609 9.47512 16.5369C9.47512 16.5369 9.47511 16.5369 9.47511 16.5369L7.92083 17.9011C7.92076 17.9012 7.9207 17.9013 7.92064 17.9013L7.92061 17.9013L5.22275 14.8286ZM5.22275 14.8286C4.9197 15.0961 4.70274 15.4474 4.5993 15.8381C4.49585 16.2289 4.51056 16.6415 4.64157 17.0239C4.77258 17.4062 5.014 17.7412 5.33533 17.9864C5.65616 18.2312 6.04227 18.3756 6.44499 18.4014C6.49218 18.406 6.53896 18.406 6.57933 18.406H6.58114H6.58138V18.3045L5.22275 14.8286ZM8.11477 14.1216V14.1216C8.1274 14.1216 8.13873 14.1219 8.15187 14.1223C8.15951 14.1225 8.16776 14.1228 8.17724 14.123C8.29034 14.1302 8.40092 14.1597 8.50262 14.2098C8.60492 14.2601 8.69622 14.3303 8.77122 14.4161L8.77128 14.4162L8.78808 14.4354L8.78819 14.4355C8.8635 14.5213 8.92117 14.6211 8.95791 14.7291C8.99465 14.8372 9.00974 14.9515 9.00232 15.0654C8.99489 15.1793 8.9651 15.2906 8.91465 15.393C8.86419 15.4954 8.79406 15.5868 8.70826 15.6621L8.70824 15.6621L7.15427 17.0261C7.15418 17.0261 7.15409 17.0262 7.154 17.0263C7.06643 17.102 6.9647 17.1596 6.85472 17.1958C6.74462 17.232 6.62843 17.246 6.51289 17.2369C6.39735 17.2279 6.28475 17.196 6.18162 17.1431C6.07849 17.0902 5.98689 17.0174 5.91212 16.9289L5.91213 16.9289L5.91084 16.9274C5.83554 16.8416 5.77787 16.7418 5.74113 16.6338C5.70439 16.5257 5.6893 16.4115 5.69672 16.2976C5.70415 16.1837 5.73394 16.0723 5.78439 15.97C5.83485 15.8676 5.90498 15.7761 5.99078 15.7008L5.9908 15.7008L7.54531 14.3364L7.54537 14.3363C7.70279 14.1979 7.90521 14.1216 8.11477 14.1216Z" fill="#F0792E" stroke="#F0792E" stroke-width="0.2"/>
<path d="M5.36227 15.6383L5.36267 15.6386C5.44772 15.7026 5.54847 15.7418 5.65368 15.7522L5.65763 15.7585L5.71346 15.7588C5.83578 15.7596 5.95521 15.7217 6.05477 15.6506C6.15433 15.5796 6.22893 15.4789 6.26796 15.363C6.30699 15.247 6.30845 15.1217 6.27216 15.0049C6.23589 14.8882 6.16378 14.7859 6.06607 14.7126C6.06597 14.7125 6.06587 14.7124 6.06578 14.7123L4.4264 13.4649L4.42639 13.4649C4.36562 13.4187 4.29634 13.3849 4.2225 13.3654C4.14866 13.346 4.07172 13.3413 3.99606 13.3516C3.84325 13.3723 3.70496 13.4529 3.6116 13.5757C3.56537 13.6365 3.53156 13.7057 3.51211 13.7796C3.49266 13.8534 3.48794 13.9304 3.49822 14.006C3.50851 14.0817 3.5336 14.1546 3.57205 14.2205C3.6105 14.2865 3.66157 14.3442 3.72234 14.3905C3.72234 14.3905 3.72235 14.3905 3.72235 14.3905L5.36227 15.6383Z" fill="#F0792E" stroke="#F0792E" stroke-width="0.2"/>
<path d="M27.8082 16.2865L27.8084 16.2865C27.8848 16.2863 27.9605 16.2711 28.031 16.2417C28.1015 16.2123 28.1655 16.1693 28.2193 16.1151C28.2194 16.1151 28.2194 16.1151 28.2195 16.115L30.9122 13.4223L30.9122 13.4223L30.9134 13.4211C31.0193 13.3114 31.0779 13.1645 31.0766 13.0121C31.0753 12.8597 31.0141 12.7139 30.9063 12.6061C30.7985 12.4983 30.6527 12.4371 30.5003 12.4358C30.3478 12.4345 30.201 12.4931 30.0913 12.599L30.0913 12.599L30.09 12.6002L27.3971 15.2941C27.3971 15.2941 27.3971 15.2941 27.3971 15.2941C27.3159 15.3754 27.2605 15.479 27.2381 15.5917C27.2157 15.7045 27.2272 15.8214 27.2712 15.9276C27.3152 16.0338 27.3897 16.1246 27.4852 16.1885C27.5808 16.2524 27.6932 16.2865 27.8082 16.2865Z" fill="#F0792E" stroke="#F0792E" stroke-width="0.2"/>
<path d="M31.479 15.2907C31.5782 15.2912 31.6759 15.2661 31.7626 15.2179L31.7631 15.2177L34.5615 13.645L34.5119 13.5565L34.5616 13.6449L34.5615 13.645C34.6715 13.5834 34.7584 13.4877 34.8093 13.3724C34.8601 13.257 34.8721 13.1283 34.8435 13.0056C34.8435 13.0056 34.8435 13.0055 34.8434 13.0055L31.9894 0.553052L31.9894 0.553031C31.9675 0.457887 31.9221 0.36977 31.8573 0.296809C31.7924 0.223847 31.7102 0.168386 31.6183 0.135543C31.5264 0.1027 31.4277 0.0935323 31.3313 0.108884C31.2349 0.124236 31.1439 0.163614 31.0667 0.223386L31.1288 0.303594L31.0667 0.223386L25.2629 4.71844C25.1495 4.80618 25.0726 4.9327 25.0469 5.0737C25.0211 5.21469 25.0483 5.36024 25.1233 5.48238L25.1234 5.48243L30.9834 15.0139L30.9834 15.014C31.0355 15.0986 31.1084 15.1685 31.1953 15.217C31.282 15.2654 31.3797 15.2908 31.479 15.2907ZM31.479 15.2907C31.4789 15.2907 31.4787 15.2907 31.4786 15.2907L31.4792 15.1892L31.4793 15.2907C31.4792 15.2907 31.4791 15.2907 31.479 15.2907ZM31.0597 1.69956L33.6133 12.8415L31.681 13.9276L26.3873 5.31744L31.0597 1.69956Z" fill="#F0792E" stroke="#F0792E" stroke-width="0.2"/>
<path d="M2.97047 0.725929L2.97047 0.725915C2.9923 0.63077 3.03773 0.542654 3.10258 0.469691C3.16743 0.396729 3.2496 0.341269 3.34153 0.308426C3.43345 0.275583 3.53217 0.266415 3.62857 0.281767C3.72497 0.297118 3.81595 0.336495 3.89312 0.396264C3.89313 0.396265 3.89313 0.396267 3.89313 0.396269L9.69744 4.89084L9.69745 4.89085L2.97047 0.725929ZM2.97047 0.725929L0.115915 13.1769C0.115899 13.177 0.115883 13.1771 0.115867 13.1771C0.0872381 13.2998 0.099241 13.4285 0.150072 13.5438C0.200931 13.6591 0.287905 13.7548 0.397886 13.8165L3.19631 15.3868M2.97047 0.725929L3.19631 15.3868M3.19631 15.3868C3.28309 15.4355 3.38092 15.4611 3.48044 15.4612L3.19631 15.3868ZM8.57254 5.49033L3.27878 14.1009L1.34656 13.0153L3.90019 1.87245L8.57254 5.49033Z" fill="#F0792E" stroke="#F0792E" stroke-width="0.2"/>
</svg>
