<svg width="32" height="26" viewBox="0 0 32 26" fill="none" xmlns="http://www.w3.org/2000/svg">
<g opacity="0.8">
<path d="M17.0628 12.7975C17.0633 13.0467 16.9765 13.2881 16.8176 13.48L11.4853 19.8787C11.3043 20.0965 11.0441 20.2335 10.7621 20.2595C10.4801 20.2855 10.1994 20.1984 9.98158 20.0174C9.7638 19.8363 9.62684 19.5762 9.60084 19.2942C9.57484 19.0122 9.66193 18.7315 9.84295 18.5137L14.6207 12.7975L10.0136 7.08129C9.92499 6.9722 9.85884 6.84668 9.81892 6.71195C9.779 6.57721 9.7661 6.43592 9.78097 6.29618C9.79583 6.15645 9.83817 6.02103 9.90554 5.8977C9.97291 5.77438 10.064 5.66559 10.1735 5.57759C10.2832 5.47992 10.4118 5.40595 10.5514 5.36032C10.691 5.31468 10.8385 5.29836 10.9846 5.31238C11.1308 5.32639 11.2725 5.37044 11.4009 5.44177C11.5292 5.5131 11.6415 5.61017 11.7306 5.72689L16.8815 12.1256C17.0154 12.323 17.0792 12.5595 17.0628 12.7975Z" fill="#92140C"/>
</g>
<g opacity="0.8">
<path d="M23.468 12.7976C23.4685 13.0468 23.3817 13.2883 23.2227 13.4801L17.8904 19.8789C17.7094 20.0966 17.4493 20.2336 17.1673 20.2596C16.8853 20.2856 16.6045 20.1985 16.3867 20.0175C16.169 19.8365 16.032 19.5764 16.006 19.2944C15.98 19.0124 16.0671 18.7316 16.2481 18.5138L21.0258 12.7976L16.4187 7.08141C16.3302 6.97232 16.264 6.84681 16.2241 6.71207C16.1842 6.57734 16.1713 6.43604 16.1861 6.29631C16.201 6.15657 16.2433 6.02115 16.3107 5.89783C16.3781 5.77451 16.4692 5.66572 16.5787 5.57771C16.6884 5.48005 16.817 5.40608 16.9566 5.36044C17.0961 5.3148 17.2436 5.29848 17.3898 5.3125C17.536 5.32652 17.6777 5.37057 17.806 5.4419C17.9344 5.51322 18.0466 5.61029 18.1357 5.72702L23.2867 12.1257C23.4206 12.3231 23.4844 12.5597 23.468 12.7976Z" fill="#92140C"/>
</g>
</svg>
