<svg width="2" height="4" viewBox="0 0 2 4" fill="none" xmlns="http://www.w3.org/2000/svg">
<path opacity="0.81" d="M1.10962 3.99703C1.03958 3.99676 0.971663 3.97298 0.916751 3.92949C0.86184 3.88601 0.823114 3.82534 0.806783 3.75721L0.00483597 0.366003C-0.00917519 0.287415 0.00752454 0.206453 0.0514853 0.139829C0.0954461 0.0732055 0.163311 0.0260241 0.241056 0.00802128C0.318802 -0.0099815 0.400487 0.00257718 0.469242 0.0431005C0.537997 0.0836237 0.588568 0.149002 0.610503 0.225755L1.41245 3.61696C1.42324 3.66267 1.42354 3.71022 1.41335 3.75607C1.40316 3.80191 1.38274 3.84485 1.35361 3.88168C1.32448 3.9185 1.2874 3.94827 1.24515 3.96873C1.2029 3.98919 1.15656 3.99983 1.10962 3.99984V3.99703Z" fill="white"/>
</svg>
