<svg width="20" height="35" viewBox="0 0 20 35" fill="none" xmlns="http://www.w3.org/2000/svg">
<path d="M12.8897 20.0209L8.47697 32.8145L14.8131 34.9999L19.2258 22.2063L12.8897 20.0209Z" fill="#F1BEF5"/>
<path d="M15.1834 28.1598C15.0452 28.4086 14.8363 28.6108 14.5831 28.7408C14.33 28.8707 14.0439 28.9227 13.7612 28.89C13.4785 28.8573 13.2119 28.7414 12.9951 28.5571C12.7782 28.3728 12.621 28.1282 12.5432 27.8545C12.4655 27.5807 12.4707 27.29 12.5582 27.0192C12.6458 26.7485 12.8117 26.5097 13.035 26.3333C13.2583 26.1569 13.529 26.0507 13.8127 26.0282C14.0964 26.0056 14.3803 26.0678 14.6287 26.2068C14.9603 26.3932 15.2047 26.7031 15.3086 27.069C15.4125 27.4349 15.3675 27.827 15.1834 28.1598Z" fill="#A14CAF" stroke="#263238" stroke-width="0.230207" stroke-linecap="round" stroke-linejoin="round"/>
<path d="M13.4444 26.7858L13.448 26.7724C13.4639 26.7139 13.4302 26.6544 13.3734 26.6389C13.3167 26.6235 13.2574 26.6578 13.2415 26.7163L12.9858 27.657C12.9699 27.7155 13.0036 27.775 13.0604 27.7905C13.1172 27.8059 13.1764 27.7716 13.1923 27.7131L13.2655 27.4435L13.2656 27.4435L13.4444 26.7858ZM13.4444 26.7858L13.4455 26.7861M13.4444 26.7858L13.4455 26.7861M13.4455 26.7861L13.3856 27.0067L13.3788 27.0317L13.4033 27.0235C13.4607 27.0042 13.5209 26.9954 13.5811 26.9973L13.5921 26.9976L13.5949 26.9871L13.6392 26.8244C13.6551 26.7659 13.7143 26.7316 13.7711 26.747C13.8279 26.7625 13.8615 26.822 13.8456 26.8805L13.8014 27.0432L13.7985 27.0537L13.8081 27.059C14.0095 27.1695 14.1146 27.4022 14.066 27.6313L14.0593 27.6632L14.0869 27.646L14.6342 27.3049L14.6342 27.3049C14.6585 27.2897 14.6876 27.285 14.715 27.2916C14.7424 27.2982 14.766 27.3156 14.7807 27.3401C14.7955 27.3659 14.7995 27.3969 14.7918 27.4261C14.7846 27.4532 14.7675 27.4765 14.7441 27.4913C14.744 27.4913 14.744 27.4913 14.744 27.4913L13.9375 27.994C13.9375 27.994 13.9375 27.994 13.9375 27.994C13.8998 28.0173 13.8522 28.0151 13.8173 27.9885C13.7824 27.9619 13.767 27.9159 13.7787 27.8725L13.4455 26.7861Z" fill="white" stroke="#BFBFBF" stroke-width="0.0276248"/>
<path d="M8.48089 32.8159L14.814 34.995L19.2352 22.2082L12.902 20.0239L8.48089 32.8159ZM18.5621 22.533L14.4919 34.335L9.14616 32.5016L13.2111 20.6891L18.5621 22.533Z" fill="white"/>
<path opacity="0.5" d="M13.833 21.6899L13.2882 23.2614C13.2579 23.346 13.1957 23.4152 13.1149 23.4544C13.0341 23.4936 12.9412 23.4995 12.8561 23.471C12.7711 23.4412 12.7014 23.3791 12.6621 23.2981C12.6229 23.2171 12.6173 23.1239 12.6465 23.0388L13.1913 21.4673C13.2216 21.3828 13.2838 21.3135 13.3646 21.2743C13.4454 21.2351 13.5384 21.2292 13.6235 21.2578C13.7084 21.2875 13.7782 21.3496 13.8174 21.4306C13.8567 21.5116 13.8623 21.6048 13.833 21.6899Z" fill="#20446C"/>
<path d="M4.54545 0.0298329L0.132751 12.8235L6.4689 15.0089L10.8816 2.21526L4.54545 0.0298329Z" fill="#F1BEF5"/>
<path d="M6.83922 8.16954C6.70102 8.41832 6.49211 8.6205 6.23893 8.75047C5.98576 8.88044 5.69971 8.93237 5.41701 8.89967C5.1343 8.86697 4.86766 8.75111 4.65084 8.56678C4.43402 8.38244 4.27678 8.13792 4.19902 7.86416C4.12126 7.5904 4.12649 7.29972 4.21403 7.02893C4.30158 6.75815 4.4675 6.51943 4.69081 6.343C4.91411 6.16657 5.18474 6.06037 5.46844 6.03785C5.75213 6.01533 6.03613 6.0775 6.28447 6.21648C6.61605 6.40284 6.86047 6.71278 6.9644 7.07867C7.06833 7.44456 7.02333 7.8367 6.83922 8.16954Z" fill="#A14CAF" stroke="#263238" stroke-width="0.230207" stroke-linecap="round" stroke-linejoin="round"/>
<path d="M5.10014 6.79693L5.10378 6.78356C5.11967 6.7251 5.08599 6.66552 5.0292 6.65008C4.97245 6.63466 4.9132 6.66897 4.89731 6.72743L4.64157 7.66816C4.62568 7.72661 4.6594 7.78621 4.71615 7.80163C4.77294 7.81707 4.83215 7.78275 4.84804 7.72429L4.92133 7.45469L4.92134 7.45467L5.10014 6.79693ZM5.10014 6.79693L5.10133 6.79725M5.10014 6.79693L5.10133 6.79725M5.10133 6.79725L5.04135 7.01787L5.03455 7.04288L5.05913 7.03464C5.11651 7.01541 5.17672 7.00655 5.23691 7.00846L5.24785 7.00881L5.25072 6.99825L5.29496 6.83553C5.31085 6.77707 5.37006 6.74275 5.42685 6.75818C5.48364 6.77362 5.51732 6.8332 5.50143 6.89166L5.45719 7.05438L5.45433 7.06491L5.4639 7.07016C5.66532 7.1807 5.77037 7.41337 5.72182 7.6425L5.71507 7.67435L5.74271 7.65713L6.29 7.31606L6.29002 7.31605C6.3143 7.30088 6.34336 7.29612 6.37077 7.30274C6.39816 7.30935 6.42179 7.32678 6.43644 7.35127C6.45126 7.37711 6.45531 7.40807 6.44755 7.43725C6.44036 7.46433 6.42328 7.48765 6.39984 7.50245C6.39982 7.50245 6.39981 7.50246 6.3998 7.50247L5.59327 8.00513C5.59327 8.00514 5.59326 8.00514 5.59326 8.00514C5.55557 8.02849 5.50801 8.02625 5.47312 7.99965C5.43819 7.97302 5.42274 7.92711 5.4345 7.88371L5.10133 6.79725Z" fill="white" stroke="#BFBFBF" stroke-width="0.0276248"/>
<path d="M0.13716 12.8246L6.47031 15.0037L10.8915 2.21696L4.55832 0.0325755L0.13716 12.8246ZM10.2183 2.54174L6.14816 14.3437L0.802431 12.5103L4.86738 0.697845L10.2183 2.54174Z" fill="white"/>
<path d="M4.5283 0.115558L0.115606 12.9092L6.45176 15.0946L10.8644 2.30098L4.5283 0.115558Z" stroke="#263238" stroke-width="0.230207" stroke-linecap="round" stroke-linejoin="round"/>
<path opacity="0.5" d="M5.4888 1.69888L4.94401 3.27038C4.91372 3.35491 4.8515 3.4242 4.7707 3.46337C4.68991 3.50254 4.59698 3.50848 4.51185 3.47992C4.4269 3.4502 4.35717 3.38805 4.31791 3.30707C4.27864 3.22609 4.27304 3.13286 4.30232 3.04775L4.8471 1.47625C4.87739 1.39172 4.93961 1.32244 5.02041 1.28326C5.1012 1.24409 5.19414 1.23815 5.27926 1.26672C5.36421 1.29644 5.43394 1.35858 5.47321 1.43956C5.51247 1.52054 5.51808 1.61378 5.4888 1.69888Z" fill="#20446C"/>
<path opacity="0.5" d="M6.57579 11.7429L6.031 13.3144C6.00071 13.3989 5.93849 13.4682 5.8577 13.5074C5.7769 13.5466 5.68397 13.5525 5.59884 13.5239C5.51389 13.4942 5.44416 13.4321 5.4049 13.3511C5.36563 13.2701 5.36003 13.1769 5.38931 13.0918L5.93409 11.5203C5.96439 11.4357 6.0266 11.3665 6.1074 11.3273C6.1882 11.2881 6.28113 11.2822 6.36626 11.3107C6.45121 11.3405 6.52093 11.4026 6.5602 11.4836C6.59946 11.5646 6.60507 11.6578 6.57579 11.7429Z" fill="#20446C"/>
<path opacity="0.5" d="M15.0604 31.9767L14.5156 33.5482C14.4853 33.6327 14.4231 33.702 14.3423 33.7412C14.2615 33.7803 14.1686 33.7863 14.0834 33.7577C13.9989 33.7274 13.9296 33.6652 13.8905 33.5844C13.8513 33.5036 13.8453 33.4107 13.8739 33.3255L14.4187 31.754C14.449 31.6695 14.5112 31.6002 14.592 31.561C14.6728 31.5219 14.7657 31.5159 14.8509 31.5445C14.9358 31.5742 15.0055 31.6364 15.0448 31.7173C15.0841 31.7983 15.0897 31.8916 15.0604 31.9767Z" fill="#20446C"/>
</svg>
