<svg width="39" height="39" viewBox="0 0 39 39" fill="none" xmlns="http://www.w3.org/2000/svg">
<circle cx="19.5" cy="19.5" r="19.5" fill="#FFEEE3"/>
<g clip-path="url(#clip0_7_75439)">
<path d="M19.6099 11.0105C20.0109 11.0105 20.3359 11.3185 20.3359 11.6984C20.3359 12.0783 20.0109 12.3863 19.6099 12.3863C17.2076 12.3863 15.2531 14.2379 15.2531 16.5138C15.2531 16.8937 14.9281 17.2017 14.5271 17.2017C14.1261 17.2017 13.8011 16.8937 13.8011 16.5138C13.8011 13.4793 16.4069 11.0105 19.6099 11.0105Z" fill="#F0792E"/>
<path d="M21.48 8.44453C24.7602 9.09397 27.4198 11.5899 28.1196 14.7172C28.7106 17.358 27.9824 20.0092 26.1218 21.9911C25.2123 22.9598 24.6907 24.2386 24.6907 25.503V26.8788C24.6907 27.7942 24.0582 28.5719 23.1858 28.8412C22.8988 30.4475 21.4275 31.74 19.6086 31.74C17.7902 31.74 16.3184 30.4479 16.0314 28.8412C15.1589 28.5719 14.5265 27.7942 14.5265 26.8788V25.5029C14.5265 24.236 14.0032 22.9727 13.0531 21.9455C11.6623 20.4422 10.8964 18.5133 10.8964 16.5142C10.8964 11.306 15.9277 7.34543 21.48 8.44453ZM19.6086 30.3643C20.5419 30.3643 21.3601 29.7558 21.6623 28.938H17.5549C17.8571 29.7558 18.6753 30.3643 19.6086 30.3643ZM15.9785 26.8788C15.9785 27.2581 16.3042 27.5667 16.7045 27.5667H22.5127C22.913 27.5667 23.2387 27.2581 23.2387 26.8788V26.1909H15.9785V26.8788ZM14.145 21.0387C15.1575 22.1333 15.7805 23.4532 15.9386 24.8151H23.2785C23.4363 23.4524 24.0577 22.1196 25.0368 21.0767C26.5874 19.4249 27.1934 17.211 26.6992 15.0026C26.1223 12.4246 23.9055 10.3303 21.183 9.79133C16.5353 8.87104 12.3484 12.1782 12.3484 16.5142C12.3484 18.1795 12.9865 19.7864 14.145 21.0387Z" fill="#F0792E"/>
<path d="M29.822 16.5137H31.274C31.6749 16.5137 32 16.8217 32 17.2016C32 17.5815 31.6749 17.8895 31.274 17.8895H29.822C29.421 17.8895 29.0959 17.5815 29.0959 17.2016C29.0959 16.8217 29.421 16.5137 29.822 16.5137Z" fill="#F0792E"/>
<path d="M29.521 13.0745L30.5477 12.1016C30.8312 11.833 31.2909 11.833 31.5745 12.1016C31.858 12.3703 31.858 12.8058 31.5745 13.0745L30.5477 14.0473C30.2642 14.316 29.8045 14.316 29.521 14.0473C29.2375 13.7787 29.2375 13.3431 29.521 13.0745Z" fill="#F0792E"/>
<path d="M29.521 20.3565C29.8045 20.0879 30.2642 20.0879 30.5477 20.3565L31.5745 21.3294C31.858 21.598 31.858 22.0336 31.5745 22.3022C31.291 22.5709 30.8313 22.5709 30.5477 22.3022L29.521 21.3294C29.2375 21.0607 29.2375 20.6252 29.521 20.3565Z" fill="#F0792E"/>
<path d="M7.94501 16.5137H9.39703C9.79799 16.5137 10.123 16.8217 10.123 17.2016C10.123 17.5815 9.79799 17.8895 9.39703 17.8895H7.94501C7.54405 17.8895 7.21899 17.5815 7.21899 17.2016C7.21899 16.8217 7.54405 16.5137 7.94501 16.5137Z" fill="#F0792E"/>
<path d="M7.64404 12.1016C7.92752 11.833 8.38724 11.833 8.67077 12.1016L9.69751 13.0745C9.98104 13.3431 9.98104 13.7787 9.69751 14.0473C9.41402 14.3159 8.95431 14.316 8.67077 14.0473L7.64404 13.0745C7.36051 12.8058 7.36051 12.3703 7.64404 12.1016Z" fill="#F0792E"/>
<path d="M7.64404 21.3294L8.67077 20.3565C8.95426 20.0879 9.41397 20.0879 9.69751 20.3565C9.98104 20.6252 9.98104 21.0607 9.69751 21.3294L8.67077 22.3022C8.38729 22.5708 7.92757 22.5709 7.64404 22.3022C7.36051 22.0336 7.36051 21.598 7.64404 21.3294Z" fill="#F0792E"/>
</g>
<defs>
<clipPath id="clip0_7_75439">
<rect width="24.7813" height="23.4808" fill="white" transform="matrix(-1 0 0 1 32 8.25952)"/>
</clipPath>
</defs>
</svg>
