<svg width="83" height="82" viewBox="0 0 83 82" fill="none" xmlns="http://www.w3.org/2000/svg">
<g clip-path="url(#clip0_148_3719)">
<path d="M82.8663 55.1731H51.0823V36.6256H82.8663V55.1731ZM51.2763 54.9775H82.6724V36.8212H51.2763V54.9775Z" fill="#E0E0E0"/>
<path d="M76.306 46.5143H55.3331V47.1342H76.306V46.5143Z" fill="#F0F0F0"/>
<path d="M77.751 48.8277H55.3331V49.5043H77.751V48.8277Z" fill="#F0F0F0"/>
<path d="M77.751 51.1663H55.3331V51.8429H77.751V51.1663Z" fill="#F0F0F0"/>
<path d="M62.6629 43.1584H55.3331V44.7677H62.6629V43.1584Z" fill="#F0F0F0"/>
<path d="M82.77 36.7233H51.18V39.676H82.77V36.7233Z" fill="#E0E0E0"/>
<path d="M80.3389 39.2361C80.2982 39.197 80.7055 38.7023 81.2466 38.1293C81.7878 37.5564 82.263 37.1262 82.3018 37.1653C82.3406 37.2044 81.9352 37.6991 81.394 38.2701C80.8529 38.8411 80.3777 39.2732 80.3389 39.2361Z" fill="white"/>
<path d="M82.3018 39.2361C82.263 39.2732 81.7897 38.845 81.2466 38.2701C80.7036 37.6952 80.2982 37.2044 80.3389 37.1653C80.3796 37.1262 80.851 37.5564 81.394 38.1293C81.9371 38.7022 82.3425 39.197 82.3018 39.2361Z" fill="white"/>
<path d="M43.7467 0H12.1567V18.3519H43.7467V0Z" fill="#E6E6E6"/>
<path d="M37.2866 9.79074H16.3138V10.4106H37.2866V9.79074Z" fill="#F0F0F0"/>
<path d="M38.7316 12.102H16.3138V12.7786H38.7316V12.102Z" fill="#F0F0F0"/>
<path d="M38.7316 14.4406H16.3138V15.1172H38.7316V14.4406Z" fill="#F0F0F0"/>
<path d="M23.6435 6.43315H16.3138V8.04246H23.6435V6.43315Z" fill="#F0F0F0"/>
<path d="M43.7467 0H12.1567V2.95273H43.7467V0Z" fill="#E0E0E0"/>
<path d="M41.2101 2.49717C41.1694 2.45806 41.5767 1.96334 42.1179 1.39236C42.659 0.821376 43.1323 0.38923 43.173 0.426383C43.2137 0.463535 42.8064 0.960211 42.2633 1.53315C41.7202 2.10608 41.2489 2.54214 41.2101 2.49717Z" fill="white"/>
<path d="M43.173 2.49692C43.1323 2.53603 42.661 2.10584 42.1179 1.5329C41.5748 0.959964 41.1694 0.465244 41.2101 0.426136C41.2509 0.387027 41.7222 0.817218 42.2633 1.39211C42.8045 1.967 43.2137 2.45781 43.173 2.49692Z" fill="white"/>
<path d="M31.784 34.091H0V15.5436H31.784V34.091ZM0.193971 33.8955H31.5901V15.7391H0.193971V33.8955Z" fill="#E0E0E0"/>
<path d="M25.2256 25.4322H4.25279V26.0521H25.2256V25.4322Z" fill="#F0F0F0"/>
<path d="M26.6707 27.7435H4.25279V28.4201H26.6707V27.7435Z" fill="#F0F0F0"/>
<path d="M26.6707 30.0821H4.25279V30.7587H26.6707V30.0821Z" fill="#F0F0F0"/>
<path d="M11.5825 22.0744H4.25279V23.6837H11.5825V22.0744Z" fill="#F0F0F0"/>
<path d="M31.6877 15.6415H0.0976754V18.5942H31.6877V15.6415Z" fill="#E0E0E0"/>
<path d="M68.4649 38.3405H31.1643V72.0056H68.4649V38.3405Z" fill="#E6E6E6"/>
<path d="M33.0403 27.7357H3.82106V58.3399H33.0403V27.7357Z" fill="#F0F0F0"/>
<path d="M33.0403 27.7357H3.82106V31.0696H33.0403V27.7357Z" fill="#E0E0E0"/>
<path d="M6.234 29.3682C6.22866 29.4898 6.18797 29.607 6.117 29.7054C6.04602 29.8038 5.9479 29.879 5.83485 29.9215C5.72181 29.9641 5.59884 29.9722 5.48127 29.9448C5.3637 29.9174 5.25672 29.8557 5.17367 29.7674C5.09062 29.6792 5.03517 29.5682 5.01422 29.4484C4.99328 29.3286 5.00776 29.2053 5.05588 29.0937C5.10399 28.9821 5.18361 28.8873 5.2848 28.821C5.38599 28.7548 5.50429 28.72 5.62496 28.721C5.79062 28.7261 5.94757 28.797 6.06164 28.9182C6.17571 29.0394 6.23765 29.2012 6.234 29.3682Z" fill="white"/>
<path d="M8.72863 29.3682C8.7233 29.4896 8.68272 29.6067 8.61192 29.705C8.54112 29.8033 8.44323 29.8785 8.33041 29.9212C8.21758 29.9639 8.0948 29.9722 7.97733 29.9451C7.85985 29.918 7.75286 29.8568 7.66965 29.7689C7.58643 29.681 7.53067 29.5704 7.50928 29.4509C7.48789 29.3313 7.50183 29.208 7.54935 29.0964C7.59688 28.9847 7.67589 28.8896 7.77659 28.8229C7.87728 28.7562 7.99521 28.7207 8.11571 28.721C8.28206 28.7251 8.44 28.7955 8.55489 28.9169C8.66979 29.0382 8.73227 29.2005 8.72863 29.3682Z" fill="white"/>
<path d="M11.2115 29.3682C11.2062 29.4895 11.1657 29.6066 11.095 29.7048C11.0243 29.8031 10.9265 29.8783 10.8138 29.921C10.7011 29.9638 10.5784 29.9722 10.4609 29.9453C10.3435 29.9184 10.2365 29.8573 10.1532 29.7696C10.0699 29.6819 10.014 29.5715 9.99241 29.4521C9.9708 29.3326 9.98446 29.2094 10.0317 29.0977C10.0789 28.9861 10.1576 28.8908 10.2581 28.8238C10.3585 28.7569 10.4763 28.7211 10.5967 28.721C10.6792 28.7228 10.7606 28.7409 10.8362 28.7744C10.9117 28.8079 10.98 28.8561 11.0371 28.9162C11.0942 28.9763 11.139 29.0471 11.1689 29.1247C11.1989 29.2023 11.2133 29.285 11.2115 29.3682Z" fill="white"/>
<path d="M78.6935 6.69345H41.3929V44.1717H78.6935V6.69345Z" fill="#F0F0F0"/>
<path d="M78.6935 6.69345H41.3929V11.0834H78.6935V6.69345Z" fill="#E0E0E0"/>
<path d="M44.5705 8.84437C44.5633 9.00385 44.5098 9.1577 44.4167 9.28682C44.3235 9.41593 44.1948 9.51464 44.0465 9.5707C43.8983 9.62676 43.7369 9.6377 43.5825 9.60217C43.4281 9.56664 43.2875 9.48619 43.1781 9.37081C43.0686 9.25543 42.9951 9.1102 42.9668 8.95312C42.9385 8.79604 42.9565 8.63403 43.0186 8.48719C43.0808 8.34035 43.1843 8.21513 43.3164 8.12706C43.4485 8.039 43.6034 7.99197 43.7617 7.9918C43.981 7.99693 44.1894 8.08959 44.341 8.24943C44.4927 8.40927 44.5752 8.62324 44.5705 8.84437Z" fill="white"/>
<path d="M47.6092 8.26714C47.7169 8.38468 47.788 8.53158 47.8134 8.68954C47.8389 8.8475 47.8178 9.00953 47.7526 9.15544C47.6874 9.30135 47.581 9.42469 47.4468 9.5101C47.3125 9.59551 47.1563 9.6392 46.9976 9.63573C46.8389 9.63226 46.6847 9.58179 46.5543 9.4906C46.4238 9.39942 46.3229 9.27155 46.264 9.12292C46.2052 8.9743 46.191 8.8115 46.2232 8.6548C46.2555 8.49811 46.3328 8.35444 46.4454 8.24172C46.6035 8.09029 46.8145 8.00799 47.0325 8.01276C47.2505 8.01752 47.4578 8.10895 47.6092 8.26714Z" fill="white"/>
<path d="M51.1226 8.84437C51.1154 9.00385 51.0619 9.1577 50.9687 9.28682C50.8756 9.41593 50.7469 9.51464 50.5986 9.5707C50.4503 9.62676 50.289 9.6377 50.1346 9.60217C49.9802 9.56664 49.8396 9.48619 49.7301 9.37081C49.6207 9.25543 49.5472 9.1102 49.5189 8.95312C49.4905 8.79604 49.5086 8.63403 49.5707 8.48719C49.6329 8.34035 49.7364 8.21513 49.8685 8.12706C50.0006 8.039 50.1554 7.99197 50.3138 7.9918C50.5331 7.99693 50.7415 8.08959 50.8931 8.24943C51.0448 8.40927 51.1273 8.62324 51.1226 8.84437Z" fill="white"/>
<path d="M70.6367 67.2755C70.6367 67.3028 57.1673 67.3263 40.5557 67.3263C23.944 67.3263 10.4747 67.3028 10.4747 67.2755C10.4747 67.2481 23.9421 67.2246 40.5576 67.2246C57.1732 67.2246 70.6367 67.2461 70.6367 67.2755Z" fill="#263238"/>
<path d="M57.5121 58.0098C54.5154 55.8999 53.8365 51.9812 53.9548 48.4595C53.9742 47.8729 53.9102 47.253 54.1876 46.7368C54.465 46.2206 55.1108 45.8686 55.6345 46.1169C56.0671 46.3125 56.2552 46.8307 56.4977 47.2491C56.821 47.8097 57.2951 48.2666 57.8651 48.5671C58.2355 48.7626 58.6952 48.8799 59.0618 48.6766C59.5642 48.3969 59.6243 47.6989 59.6204 47.1122C59.6204 46.0237 59.6139 44.9346 59.601 43.8447C59.5662 43.2602 59.6251 42.6739 59.7756 42.1083C59.956 41.553 60.3574 41.0368 60.9064 40.8823C61.4553 40.7278 62.1399 41.0465 62.2641 41.6195C62.2858 41.8613 62.291 42.1043 62.2796 42.3469C62.297 42.5894 62.4095 42.8572 62.6365 42.9335C62.8634 43.0098 63.1 42.8357 63.2746 42.6656C63.872 42.079 64.2793 41.3144 64.6575 40.5577C65.0358 39.8009 65.4062 39.0285 65.9493 38.3832C66.4924 37.738 67.243 37.2296 68.0829 37.1826C68.9227 37.1357 69.7994 37.6519 70.0089 38.4732C70.2183 39.2945 69.7431 40.1353 69.233 40.8021C68.4633 41.7913 67.5559 42.6633 66.5389 43.3911C66.3403 43.5011 66.1819 43.6724 66.087 43.8799C65.9609 44.271 66.3275 44.6621 66.7096 44.7853C67.1422 44.93 67.6115 44.885 68.0673 44.9378C68.5231 44.9906 69.008 45.194 69.1787 45.6242C69.4173 46.2225 68.9208 46.8483 68.4339 47.2589C67.4568 48.0802 66.3466 48.7258 65.1521 49.1674C64.7254 49.3258 64.2774 49.4627 63.9321 49.7657C63.5869 50.0688 63.3813 50.5929 63.5888 51.0055C63.7963 51.4181 64.3297 51.5491 64.7778 51.465C65.2258 51.3809 65.6234 51.1365 66.0502 50.9742C66.8473 50.6711 67.8753 50.7278 68.3777 51.422C68.533 51.6609 68.6313 51.9328 68.665 52.2164C68.6986 52.5 68.6667 52.7876 68.5716 53.0567C68.378 53.593 68.0792 54.0845 67.693 54.5018C66.4301 56.0315 64.7868 57.1955 62.9313 57.8749C61.0829 58.5221 59.3702 58.6961 57.5334 58.0196" fill="#F0792E"/>
<path d="M69.1535 37.6617C69.1535 37.6617 69.1361 37.6832 69.0973 37.7184L68.9246 37.8729C68.7734 38.0078 68.5503 38.2073 68.2671 38.4732C67.4709 39.2195 66.7311 40.0247 66.0541 40.8823C65.6215 41.4239 65.1735 42.0379 64.6963 42.7047C64.2192 43.3715 63.7265 44.0911 63.2378 44.8654C62.7167 45.6717 62.2395 46.5059 61.8083 47.3645C61.5833 47.8103 61.3854 48.2776 61.1818 48.7548C60.9781 49.2319 60.7745 49.7149 60.5669 50.2057C59.7737 52.0404 59.0835 53.9186 58.4993 55.8314C58.0281 57.3962 57.7034 59.0021 57.5295 60.6281C57.4167 61.7246 57.3986 62.829 57.4752 63.9288C57.5043 64.3199 57.5354 64.621 57.5625 64.8244C57.5741 64.9221 57.5819 64.9984 57.5897 65.0571C57.5918 65.0838 57.5918 65.1106 57.5897 65.1372C57.5897 65.1372 57.5897 65.1099 57.5741 65.059C57.5586 65.0082 57.5528 64.9241 57.5373 64.8283C57.5024 64.6327 57.4655 64.3218 57.4287 63.9327C57.3369 62.8302 57.344 61.7215 57.45 60.6202C57.6123 58.9873 57.93 57.3738 58.3985 55.8021C58.978 53.884 59.6664 52.0011 60.4603 50.1627C60.6684 49.6725 60.874 49.1889 61.0771 48.7118C61.271 48.2366 61.4805 47.7653 61.7074 47.3156C62.1416 46.4545 62.6227 45.6182 63.1485 44.8107C63.6451 44.0285 64.1455 43.3187 64.6168 42.6597C65.0881 42.0008 65.542 41.3829 65.9745 40.8412C66.6596 39.9857 67.4106 39.1861 68.2206 38.4497C68.5076 38.1877 68.7346 37.9941 68.8917 37.8631C68.9673 37.8025 69.0274 37.7536 69.0701 37.7164L69.1535 37.6617Z" fill="#263238"/>
<path d="M61.7522 47.3217C61.725 47.2404 61.7062 47.1566 61.6959 47.0714C61.6649 46.9111 61.63 46.6803 61.5892 46.3851C61.5058 45.7985 61.4205 44.9948 61.3293 44.1031C61.2382 43.2114 61.1354 42.4078 61.05 41.829C61.0054 41.5396 60.9666 41.3049 60.9375 41.1446C60.9174 41.0613 60.907 40.976 60.9065 40.8904C60.9388 40.9691 60.9628 41.051 60.9783 41.1348C61.0209 41.2932 61.0694 41.5259 61.1237 41.8153C61.2343 42.4019 61.3429 43.1997 61.4341 44.0914C61.5252 44.983 61.6028 45.7672 61.6629 46.3753C61.692 46.6491 61.7173 46.8798 61.7367 47.0656C61.7517 47.15 61.7569 47.236 61.7522 47.3217Z" fill="#263238"/>
<path d="M69.2082 45.9076C69.1104 45.9275 69.0111 45.9393 68.9114 45.9428C68.7175 45.9604 68.442 45.9839 68.1007 46.023C67.4179 46.0973 66.4792 46.2342 65.4492 46.4297C64.4193 46.6252 63.4941 46.8462 62.8288 47.0163C62.4972 47.1024 62.2295 47.1786 62.0433 47.2314C61.9489 47.2651 61.8515 47.2893 61.7524 47.3038C61.8416 47.257 61.9352 47.219 62.0317 47.1903C62.214 47.1258 62.4778 47.0378 62.8075 46.942C63.4689 46.7465 64.3941 46.5118 65.4279 46.3143C66.3102 46.1482 67.2004 46.0274 68.0949 45.9526C68.4382 45.9213 68.7155 45.9096 68.9095 45.9057C69.0089 45.8967 69.1089 45.8974 69.2082 45.9076Z" fill="#263238"/>
<path d="M58.5041 55.6636C58.5041 55.6636 58.4828 55.6343 58.4537 55.5717C58.4246 55.5091 58.3761 55.4094 58.3257 55.2999C58.2151 55.0633 58.0658 54.7133 57.8873 54.287C57.5266 53.4247 57.0669 52.2201 56.5781 50.8846C56.0893 49.549 55.6393 48.3425 55.298 47.4704L54.8906 46.4458C54.848 46.3324 54.8111 46.2405 54.782 46.1662C54.767 46.1339 54.7565 46.0997 54.751 46.0645C54.771 46.0932 54.7879 46.124 54.8014 46.1564C54.8363 46.2307 54.879 46.3187 54.9294 46.4282C55.0381 46.6648 55.1893 47.0148 55.3678 47.4411C55.7286 48.3034 56.1882 49.508 56.677 50.8455C57.1658 52.183 57.6138 53.3875 57.9552 54.2577C58.124 54.6781 58.2617 55.0261 58.3625 55.2843C58.4071 55.3957 58.444 55.4798 58.4731 55.5639C58.488 55.5955 58.4984 55.6291 58.5041 55.6636Z" fill="#263238"/>
<path d="M68.4131 52.4446C68.382 52.4626 68.3488 52.4764 68.3142 52.4857L68.0271 52.5835L66.9661 52.9296C66.0701 53.2229 64.8326 53.6413 63.4749 54.1028C62.1172 54.5643 60.8739 54.9769 59.972 55.2506C59.522 55.3875 59.1554 55.4951 58.9013 55.5635L58.6084 55.6417C58.5748 55.6539 58.5394 55.6605 58.5037 55.6613C58.5345 55.6428 58.5678 55.629 58.6026 55.6202L58.8897 55.5244L59.9506 55.1763C60.8467 54.885 62.0842 54.4646 63.4419 54.0031C64.7996 53.5416 66.041 53.131 66.9429 52.8553C67.3948 52.7184 67.7594 52.6108 68.0155 52.5424L68.3084 52.4642C68.3423 52.4531 68.3775 52.4466 68.4131 52.4446Z" fill="#263238"/>
<path d="M64.37 5.00947L63.3712 5.37123L62.9425 4.05523C62.155 1.62856 59.6452 0.339944 57.339 1.15926C55.0328 1.97858 53.8051 4.6399 54.5926 7.06657L55.0212 8.38257L54.0184 8.74432C53.6361 8.89384 53.3256 9.18616 53.1514 9.56053C52.9773 9.9349 52.953 10.3625 53.0836 10.7545L55.863 19.3172C55.9207 19.5113 56.0165 19.6917 56.1447 19.8476C56.2729 20.0036 56.4309 20.132 56.6093 20.2252C56.7877 20.3184 56.9828 20.3746 57.1832 20.3902C57.3835 20.4059 57.5849 20.3808 57.7754 20.3165L68.127 16.5816C68.5143 16.4328 68.8292 16.1382 69.0054 15.76C69.1816 15.3818 69.2053 14.9494 69.0716 14.5539L66.2902 5.99109C66.2313 5.79742 66.1342 5.61772 66.0047 5.46273C65.8753 5.30774 65.7162 5.18063 65.537 5.08901C65.3578 4.99738 65.1621 4.94311 64.9616 4.92945C64.7611 4.91579 64.5599 4.943 64.37 5.00947ZM56.4798 6.37827C56.2674 5.74703 56.3054 5.05742 56.586 4.45383C56.8665 3.85024 57.3678 3.37947 57.9849 3.1401C58.2897 3.03534 58.6123 2.9935 58.9334 3.01708C59.2546 3.04065 59.5677 3.12915 59.8542 3.27732C60.1407 3.42548 60.3947 3.63027 60.6011 3.87948C60.8074 4.12869 60.9619 4.41723 61.0553 4.72789L61.4878 6.06149L56.9123 7.71186L56.4798 6.37827ZM62.2986 13.9751L63.0085 16.1612C63.022 16.205 63.018 16.2525 62.9974 16.2934C62.9767 16.3343 62.941 16.3655 62.8979 16.3802L61.9029 16.74C61.8633 16.7511 61.821 16.7463 61.7848 16.7266C61.7487 16.7069 61.7215 16.6739 61.7089 16.6344L60.9971 14.4463C60.6025 14.4246 60.2238 14.2819 59.9118 14.0373C59.5999 13.7927 59.3694 13.4578 59.2515 13.0775C59.0828 12.5748 59.1135 12.0257 59.3373 11.5453C59.5611 11.0649 59.9606 10.6904 60.4521 10.5003C60.6946 10.4161 60.9515 10.3821 61.2073 10.4003C61.4632 10.4186 61.7127 10.4887 61.9411 10.6064C62.1694 10.7242 62.3719 10.8872 62.5363 11.0856C62.7007 11.2841 62.8237 11.514 62.8979 11.7615C63.0251 12.1501 63.0363 12.5677 62.9301 12.9627C62.8239 13.3576 62.605 13.7123 62.3005 13.9829L62.2986 13.9751Z" fill="#20446C"/>
<path d="M63.3276 5.34805C63.3276 5.37347 61.4753 6.07742 59.1691 6.91238C56.8629 7.74735 54.9873 8.40828 54.9776 8.39068C54.9679 8.37308 56.83 7.66131 59.1361 6.82635C61.4423 5.99138 63.3179 5.32068 63.3276 5.34805Z" fill="#263238"/>
<path d="M65.5264 5.70766L65.5477 5.75851L65.604 5.91298C65.6544 6.05377 65.7242 6.25323 65.8115 6.49961L66.5563 8.68381C66.8666 9.61067 67.2371 10.7096 67.6463 11.9298C67.85 12.5438 68.0711 13.1793 68.2845 13.852C68.3987 14.1976 68.448 14.5616 68.4299 14.9255C68.4132 15.1147 68.3599 15.2987 68.2728 15.4671C68.1796 15.6343 68.0551 15.7817 67.9063 15.9012C67.6069 16.1249 67.2735 16.298 66.919 16.4136L65.9201 16.7773L64.029 17.4597L60.8287 18.6095L58.666 19.376L58.0841 19.5716L57.929 19.6224C57.912 19.6286 57.8944 19.6332 57.8766 19.6361C57.8766 19.6361 57.8921 19.6361 57.9251 19.6126L58.0764 19.552L58.6583 19.331L60.8093 18.5332L64.0057 17.36L65.893 16.6736L66.8918 16.3099C67.2313 16.2043 67.552 16.0452 67.8422 15.8387C67.9808 15.7271 68.0967 15.5897 68.1836 15.4339C68.2644 15.2776 68.3138 15.1069 68.3291 14.9314C68.347 14.5801 68.2996 14.2287 68.1894 13.895C67.98 13.2301 67.7588 12.5888 67.5591 11.9767C67.1556 10.7526 66.7929 9.65174 66.4884 8.72291C66.1839 7.79409 65.9492 7.0393 65.7746 6.51721C65.6932 6.263 65.6311 6.06355 65.5807 5.91885C65.5613 5.85432 65.5458 5.80348 65.5341 5.76242C65.529 5.74463 65.5264 5.72619 65.5264 5.70766Z" fill="#263238"/>
<path d="M60.0643 3.01115C60.0643 3.01115 59.9615 2.95835 59.7714 2.88014C59.5001 2.77691 59.2137 2.71943 58.9238 2.71002C58.495 2.69442 58.0682 2.77594 57.6747 2.94858C57.1945 3.16188 56.7837 3.50756 56.4897 3.94584C56.1934 4.38397 56.0346 4.90173 56.0339 5.43195C56.0379 5.86536 56.1032 6.29598 56.2278 6.71079C56.3287 7.06864 56.4334 7.35217 56.5032 7.54771C56.5438 7.64827 56.5775 7.7515 56.6041 7.85667C56.5492 7.76345 56.5031 7.66525 56.4664 7.56336C56.3869 7.36781 56.2724 7.09015 56.158 6.7323C56.0195 6.31194 55.945 5.87286 55.9369 5.43C55.932 4.88045 56.0944 4.34262 56.4024 3.88913C56.7067 3.4349 57.1343 3.07853 57.634 2.86254C58.041 2.68823 58.4824 2.61127 58.9238 2.63767C59.2204 2.65338 59.5116 2.72363 59.7831 2.84494C59.8552 2.87899 59.9251 2.91752 59.9925 2.96031C60.043 2.9916 60.0662 3.00724 60.0643 3.01115Z" fill="#263238"/>
<path d="M60.1541 10.6627C60.1845 10.6428 60.217 10.6264 60.2511 10.6138C60.3484 10.5697 60.4489 10.5331 60.5517 10.5043C60.7153 10.4564 60.8839 10.4282 61.0541 10.4202C61.2855 10.4079 61.5169 10.4425 61.7349 10.5219C62.2314 10.6979 62.6872 11.2083 62.9122 11.8907C63.02 12.2576 63.02 12.6482 62.9122 13.0151C62.7906 13.4145 62.5727 13.7773 62.2779 14.071L62.2915 14.0202C62.5495 14.7319 62.8288 15.5082 63.1217 16.3158L63.1391 16.3647L63.0906 16.3803L62.6465 16.5309L61.6767 16.8555L61.6282 16.8731L61.6127 16.8242C61.3469 16.0127 61.056 15.2482 60.8368 14.5188L60.8776 14.552C60.499 14.5188 60.1383 14.3747 59.8399 14.1375C59.5688 13.9276 59.3464 13.6607 59.1882 13.3553C59.0478 13.0839 58.9771 12.7814 58.9826 12.4754C58.9906 12.2152 59.0458 11.9587 59.1455 11.7186C59.2829 11.379 59.5079 11.0826 59.7972 10.8602C59.8981 10.7776 60.0114 10.7116 60.1328 10.6647C60.0226 10.7293 59.9164 10.8005 59.8147 10.8778C59.5475 11.1071 59.3426 11.4012 59.2192 11.7323C59.1131 11.9839 59.0634 12.256 59.0738 12.5291C59.0842 12.8023 59.1544 13.0697 59.2793 13.3123C59.4348 13.6056 59.6511 13.8617 59.9136 14.0632C60.1991 14.2881 60.5436 14.424 60.9047 14.4543H60.9377V14.4856C61.151 15.211 61.4439 15.9717 61.7135 16.7871L61.6495 16.7538L62.6193 16.4273L63.0615 16.2787L63.0305 16.3432C62.7415 15.5356 62.4622 14.7593 62.2062 14.0456L62.1965 14.0182L62.2178 13.9947C62.5011 13.7134 62.7116 13.3663 62.8307 12.9838C62.9346 12.6336 62.9346 12.2604 62.8307 11.9103C62.6193 11.2533 62.1829 10.7527 61.7096 10.5786C61.5002 10.4972 61.2765 10.4593 61.0521 10.4672C60.8845 10.4701 60.7178 10.493 60.5556 10.5356C60.2918 10.6041 60.156 10.6705 60.1541 10.6627Z" fill="#263238"/>
<path d="M54.1574 67.1226L34.7836 67.0327C33.6662 67.0275 32.5964 66.5759 31.8088 65.7768C31.0212 64.9776 30.5801 63.8963 30.5822 62.7698L30.7878 13.8053C30.7929 12.6766 31.2425 11.5962 32.0376 10.8015C32.8328 10.0069 33.9084 9.56316 35.028 9.56783L54.4018 9.65974C54.9558 9.66205 55.504 9.77434 56.0149 9.99021C56.5259 10.2061 56.9897 10.5213 57.3799 10.9179C57.77 11.3145 58.0788 11.7846 58.2887 12.3015C58.4986 12.8184 58.6055 13.3719 58.6032 13.9304L58.3976 62.8871C58.3953 63.446 58.2838 63.9989 58.0694 64.5143C57.855 65.0297 57.542 65.4974 57.1482 65.8908C56.7544 66.2841 56.2876 66.5954 55.7744 66.8068C55.2612 67.0181 54.7117 67.1255 54.1574 67.1226Z" fill="#455A64"/>
<path d="M54.3741 11.3412L50.6247 11.3217C50.3775 11.3263 50.1423 11.4296 49.9707 11.6088C49.799 11.7881 49.705 12.0287 49.7091 12.2779V12.9642C49.7114 13.0878 49.6896 13.2105 49.6448 13.3255C49.6001 13.4405 49.5333 13.5455 49.4482 13.6345C49.3632 13.7235 49.2616 13.7947 49.1493 13.8441C49.037 13.8935 48.9161 13.9201 48.7936 13.9224L41.4595 13.8833C41.2124 13.8766 40.978 13.7714 40.8078 13.5906C40.6376 13.4099 40.5455 13.1684 40.5518 12.9193V12.2309C40.558 11.9818 40.4659 11.7403 40.2957 11.5596C40.1255 11.3788 39.8911 11.2736 39.644 11.2669H38.323L35.0352 11.2513C34.2521 11.2481 33.4997 11.5587 32.9436 12.1145C32.3874 12.6704 32.073 13.4262 32.0694 14.2157L31.8754 62.0089C31.8734 62.4002 31.9479 62.788 32.0946 63.1502C32.2413 63.5125 32.4573 63.842 32.7304 64.1201C33.0035 64.3981 33.3282 64.6191 33.6861 64.7706C34.044 64.922 34.4279 65.0009 34.816 65.0027L54.151 65.0927C54.5394 65.0945 54.9243 65.0191 55.2838 64.8709C55.6432 64.7226 55.9702 64.5045 56.246 64.2288C56.5218 63.9531 56.741 63.6254 56.8911 63.2643C57.0412 62.9032 57.1192 62.5158 57.1207 62.1243L57.3147 14.3311C57.3178 13.5416 57.0098 12.7831 56.4584 12.2225C55.9069 11.6618 55.1573 11.3448 54.3741 11.3412Z" fill="white"/>
<path d="M51.7711 58.716L37.3948 58.6495C37.3121 58.635 37.238 58.589 37.1881 58.5208C37.1383 58.4527 37.1164 58.3678 37.1272 58.2838L37.1427 54.4923C37.1427 54.2967 37.2649 54.1286 37.4142 54.1305L51.7905 54.197C51.9399 54.197 52.0601 54.3613 52.0582 54.5627L52.0426 58.3542C52.0522 58.4381 52.0293 58.5226 51.9788 58.5899C51.9282 58.6573 51.8538 58.7024 51.7711 58.716Z" fill="#20446C"/>
<path d="M40.2611 25.3816L35.2726 25.3587L35.2684 26.2817L40.257 26.3045L40.2611 25.3816Z" fill="#20446C"/>
<path opacity="0.1" d="M40.2611 25.3816L35.2726 25.3587L35.2684 26.2817L40.257 26.3045L40.2611 25.3816Z" fill="#20446C"/>
<path d="M54.8913 31.0463C54.9305 31.0423 54.969 31.0331 55.0057 31.0189C55.0594 30.9983 55.1061 30.9627 55.1405 30.9163C55.1748 30.8699 55.1954 30.8146 55.1997 30.7569C55.1997 30.4441 55.1997 29.9924 55.1997 29.4096C55.1997 29.1163 55.1997 28.7917 55.1997 28.4319C55.1997 28.342 55.1997 28.252 55.1997 28.1582C55.2123 28.0687 55.1923 27.9777 55.1435 27.902C55.1174 27.8653 55.083 27.8353 55.0433 27.8146C55.0035 27.7939 54.9594 27.783 54.9146 27.7827H54.612H51.8093L35.5865 27.7221C35.5449 27.7221 35.5039 27.732 35.4668 27.7511C35.4297 27.7701 35.3976 27.7977 35.3731 27.8316C35.3261 27.908 35.3082 27.9991 35.3227 28.0878C35.3227 28.2833 35.3227 28.4789 35.3227 28.6744C35.3227 29.0655 35.3227 29.4566 35.3227 29.8477C35.3227 30.0432 35.3227 30.2387 35.3227 30.4343C35.3147 30.526 35.3147 30.6183 35.3227 30.71C35.3329 30.749 35.3518 30.7852 35.3781 30.8157C35.4043 30.8462 35.4371 30.8703 35.474 30.886C35.5121 30.9016 35.5532 30.9083 35.5942 30.9055H36.5815L40.8894 30.929L48.1822 30.974L53.0991 31.0131L54.4355 31.0287H54.7827C54.8622 31.0287 54.901 31.0287 54.901 31.0287C54.901 31.0287 54.8622 31.0287 54.7827 31.0287H54.4355H53.0991H48.1822L40.8874 31.0053L36.5815 30.9877H35.5923C35.5385 30.9884 35.4852 30.9784 35.4352 30.9583C35.3844 30.9364 35.3392 30.9032 35.3029 30.8613C35.2667 30.8193 35.2403 30.7696 35.2257 30.7159C35.2145 30.6645 35.2106 30.6119 35.2141 30.5594V30.4147C35.2141 30.2192 35.2141 30.0236 35.2141 29.8281C35.2141 29.437 35.2141 29.0459 35.2141 28.6548C35.2141 28.4593 35.2141 28.2638 35.2141 28.0682C35.2113 28.0168 35.2113 27.9652 35.2141 27.9137C35.2275 27.827 35.2713 27.748 35.3374 27.691C35.4036 27.634 35.4878 27.6027 35.5749 27.6028L51.7976 27.6928L54.6004 27.7143H54.9029C54.9561 27.715 55.0084 27.7282 55.0556 27.753C55.1028 27.7778 55.1435 27.8135 55.1745 27.857C55.2288 27.9422 55.2509 28.0443 55.2366 28.1445C55.2366 28.2383 55.2366 28.3283 55.2366 28.4182C55.2366 28.7741 55.2366 29.0987 55.2366 29.396C55.2366 29.9826 55.223 30.4323 55.2191 30.7452C55.2145 30.8051 55.1928 30.8625 55.1567 30.9103C55.1206 30.9582 55.0715 30.9945 55.0154 31.015C54.9778 31.037 54.9348 31.0478 54.8913 31.0463Z" fill="#E0E0E0"/>
<path d="M45.8655 28.7408H36.7416V29.6031H45.8655V28.7408Z" fill="#F0792E"/>
<path opacity="0.2" d="M45.8655 28.7408H36.7416V29.6031H45.8655V28.7408Z" fill="white"/>
<path d="M40.226 33.8012L35.2374 33.7784L35.2332 34.7013L40.2218 34.7241L40.226 33.8012Z" fill="#20446C"/>
<path opacity="0.1" d="M40.226 33.8012L35.2374 33.7784L35.2332 34.7013L40.2218 34.7241L40.226 33.8012Z" fill="#20446C"/>
<path d="M54.7582 39.4662C54.7975 39.4626 54.8365 39.4554 54.8745 39.4447C54.9283 39.4271 54.9778 39.3983 55.0199 39.3603C55.062 39.3222 55.0957 39.2757 55.1189 39.2237C55.1495 39.1448 55.1614 39.0598 55.1538 38.9754C55.1538 38.8796 55.1538 38.7798 55.1538 38.6645C55.1538 38.4396 55.1538 38.1815 55.1538 37.8823V36.6387C55.1631 36.5488 55.1434 36.4583 55.0976 36.3806C55.0486 36.3023 54.9737 36.2441 54.8862 36.2163C54.7895 36.1992 54.6913 36.1933 54.5933 36.1987H51.8022L35.6357 36.1381C35.5485 36.1374 35.4641 36.1692 35.3986 36.2272C35.3332 36.2853 35.2912 36.3656 35.2807 36.4529C35.2807 36.6387 35.2807 36.844 35.2807 37.0395C35.2807 37.4306 35.2807 37.8217 35.2807 38.2128C35.2807 38.4083 35.2807 38.6039 35.2807 38.7994C35.2735 38.8908 35.2775 38.9827 35.2924 39.0732C35.3157 39.1529 35.3658 39.222 35.434 39.2687C35.5052 39.3156 35.5897 39.3376 35.6745 39.3313H36.5182L40.8105 39.3547L48.0782 39.3997L52.9776 39.4388L54.3101 39.4545H54.6573C54.7349 39.4545 54.7737 39.4545 54.7737 39.4545C54.7737 39.4545 54.7349 39.4545 54.6554 39.4545H54.3101H52.9776H48.0782L40.8105 39.431L36.5182 39.4134H35.6745C35.5698 39.4204 35.4656 39.3929 35.3777 39.3352C35.2893 39.2728 35.2249 39.1817 35.1954 39.0771C35.178 38.9784 35.1728 38.8779 35.1799 38.7779C35.1799 38.5823 35.1799 38.3868 35.1799 38.1913C35.1799 37.8002 35.1799 37.4091 35.1799 37.018C35.1799 36.8225 35.1799 36.6269 35.1799 36.4216C35.1936 36.3096 35.2476 36.2066 35.3316 36.132C35.4156 36.0574 35.5238 36.0165 35.6357 36.0168L51.8022 36.1068L54.5933 36.1263C54.6972 36.121 54.8014 36.1282 54.9036 36.1479C55.004 36.1817 55.0888 36.2512 55.1422 36.3434C55.1924 36.4295 55.2141 36.5295 55.2043 36.6289C55.2043 36.7228 55.2043 36.8127 55.2043 36.9007C55.2043 37.2566 55.2043 37.5792 55.2043 37.8784C55.2043 38.1776 55.2043 38.4279 55.1946 38.6606C55.1946 38.774 55.1946 38.8776 55.1946 38.9715C55.201 39.0589 55.1871 39.1466 55.1538 39.2276C55.129 39.2818 55.0927 39.3299 55.0474 39.3684C55.0022 39.4069 54.9491 39.4349 54.892 39.4506C54.8491 39.4657 54.8034 39.4711 54.7582 39.4662Z" fill="#E0E0E0"/>
<path d="M40.1888 42.5854L35.2003 42.5626L35.1961 43.4855L40.1847 43.5083L40.1888 42.5854Z" fill="#20446C"/>
<path opacity="0.1" d="M40.1888 42.5854L35.2003 42.5626L35.1961 43.4855L40.1847 43.5083L40.1888 42.5854Z" fill="#20446C"/>
<path d="M54.7209 48.2506C54.7602 48.2456 54.7991 48.2377 54.8373 48.2272C54.8919 48.2104 54.9424 48.182 54.9852 48.1439C55.028 48.1057 55.0622 48.0588 55.0855 48.0062C55.1161 47.9273 55.128 47.8423 55.1205 47.7579C55.1205 47.664 55.1205 47.5623 55.1205 47.447C55.1205 47.2221 55.1205 46.964 55.1205 46.6648V45.4231C55.1297 45.3332 55.11 45.2427 55.0642 45.165C55.0164 45.0853 54.9411 45.0261 54.8528 44.9988C54.7562 44.9814 54.6578 44.9761 54.5599 44.9831H51.7688L35.6023 44.9225C35.5154 44.9227 35.4314 44.9547 35.3662 45.0127C35.3009 45.0706 35.2587 45.1504 35.2474 45.2373C35.2474 45.4329 35.2474 45.6284 35.2474 45.824C35.2474 46.215 35.2474 46.6061 35.2474 46.9972C35.2474 47.1928 35.2474 47.3883 35.2474 47.5838C35.2402 47.6752 35.2441 47.7672 35.259 47.8576C35.2824 47.9373 35.3324 48.0064 35.4006 48.0532C35.4718 48.1 35.5563 48.122 35.6411 48.1157H35.9243H36.4848L40.7772 48.1372L48.0448 48.1822L52.9442 48.2213L54.2767 48.237H54.6239C54.7015 48.237 54.7403 48.237 54.7403 48.237H54.6239H54.2767H52.9442H48.0448L40.7772 48.2135L36.4654 48.2155H35.903H35.6217C35.5168 48.2217 35.4127 48.1936 35.325 48.1353C35.2367 48.0736 35.1723 47.9831 35.1426 47.8791C35.1253 47.7798 35.1201 47.6786 35.1271 47.578C35.1271 47.3824 35.1271 47.1869 35.1271 46.9914C35.1271 46.6003 35.1271 46.2092 35.1271 45.8181C35.1271 45.6225 35.1271 45.427 35.1271 45.2217C35.1413 45.1099 35.1954 45.0071 35.2793 44.9326C35.3632 44.8581 35.4711 44.817 35.5829 44.8169L51.7494 44.9069L54.5405 44.9284C54.6444 44.921 54.7489 44.9282 54.8509 44.9499C54.9516 44.9831 55.0366 45.0527 55.0894 45.1454C55.1399 45.2315 55.1616 45.3315 55.1515 45.4309C55.1515 45.5228 55.1515 45.6128 55.1515 45.7027C55.1515 46.0567 55.1515 46.3813 55.1515 46.6804C55.1515 46.9796 55.1515 47.2299 55.1515 47.4626C55.1515 47.5741 55.1515 47.6777 55.1515 47.7716C55.1579 47.859 55.144 47.9467 55.1108 48.0277C55.0859 48.0821 55.0496 48.1304 55.0044 48.1692C54.9592 48.2081 54.9061 48.2365 54.8489 48.2526C54.8065 48.2596 54.7631 48.2589 54.7209 48.2506Z" fill="#E0E0E0"/>
<path d="M45.6993 37.3699L36.5755 37.3281L36.5717 38.1905L45.6954 38.2322L45.6993 37.3699Z" fill="#F0792E"/>
<path opacity="0.2" d="M45.6993 37.3699L36.5755 37.3281L36.5717 38.1905L45.6954 38.2322L45.6993 37.3699Z" fill="white"/>
<path d="M37.403 46.6532C37.3977 46.7315 37.3698 46.8066 37.3228 46.8692C37.2757 46.9318 37.2115 46.9791 37.138 47.0054C37.0646 47.0317 36.9852 47.0357 36.9095 47.0171C36.8338 46.9984 36.7652 46.9579 36.7121 46.9004C36.659 46.8429 36.6237 46.7711 36.6106 46.6936C36.5974 46.6162 36.6071 46.5366 36.6382 46.4646C36.6694 46.3926 36.7208 46.3314 36.786 46.2885C36.8512 46.2455 36.9275 46.2228 37.0054 46.223C37.1147 46.227 37.2179 46.2746 37.2924 46.3552C37.3669 46.4359 37.4067 46.543 37.403 46.6532Z" fill="#F0792E"/>
<path d="M38.6376 46.6589C38.6323 46.7377 38.6041 46.8131 38.5566 46.8759C38.509 46.9386 38.4443 46.9859 38.3703 47.0118C38.2963 47.0378 38.2164 47.0412 38.1405 47.0218C38.0646 47.0023 37.9961 46.9608 37.9434 46.9024C37.8907 46.8439 37.8562 46.7712 37.8442 46.6932C37.8322 46.6151 37.8432 46.5353 37.8758 46.4635C37.9085 46.3917 37.9613 46.3312 38.0278 46.2895C38.0943 46.2477 38.1714 46.2266 38.2497 46.2287C38.3573 46.2353 38.458 46.2839 38.5305 46.3643C38.6029 46.4446 38.6414 46.5504 38.6376 46.6589Z" fill="#F0792E"/>
<path d="M39.8762 46.6651C39.8709 46.7435 39.843 46.8186 39.7959 46.8812C39.7488 46.9438 39.6846 46.9911 39.6112 47.0174C39.5378 47.0436 39.4583 47.0477 39.3826 47.029C39.307 47.0104 39.2383 46.9698 39.1852 46.9124C39.1321 46.8549 39.0968 46.783 39.0837 46.7056C39.0706 46.6282 39.0802 46.5486 39.1114 46.4766C39.1425 46.4046 39.1939 46.3434 39.2591 46.3004C39.3244 46.2575 39.4007 46.2347 39.4786 46.2349C39.5876 46.2395 39.6905 46.2872 39.7649 46.3677C39.8394 46.4483 39.8793 46.5551 39.8762 46.6651Z" fill="#F0792E"/>
<path d="M41.1206 46.6706C41.1152 46.7494 41.087 46.8248 41.0395 46.8876C40.9919 46.9503 40.9272 46.9976 40.8532 47.0235C40.7792 47.0495 40.6993 47.0529 40.6234 47.0335C40.5475 47.014 40.479 46.9725 40.4263 46.9141C40.3736 46.8556 40.3391 46.7829 40.3271 46.7049C40.3151 46.6268 40.3261 46.547 40.3587 46.4752C40.3914 46.4034 40.4442 46.3429 40.5107 46.3012C40.5772 46.2594 40.6543 46.2383 40.7326 46.2404C40.8402 46.247 40.9409 46.2956 41.0134 46.376C41.0858 46.4564 41.1243 46.5621 41.1206 46.6706Z" fill="#F0792E"/>
<path d="M42.3454 46.6767C42.3401 46.7555 42.3119 46.8309 42.2644 46.8937C42.2168 46.9564 42.152 47.0037 42.0781 47.0297C42.0041 47.0556 41.9242 47.059 41.8483 47.0396C41.7724 47.0201 41.7038 46.9786 41.6511 46.9202C41.5985 46.8617 41.564 46.789 41.552 46.711C41.5399 46.633 41.5509 46.5531 41.5836 46.4813C41.6162 46.4096 41.6691 46.349 41.7355 46.3073C41.802 46.2655 41.8792 46.2444 41.9575 46.2465C42.0652 46.2526 42.1663 46.3011 42.2388 46.3816C42.3114 46.4621 42.3497 46.5681 42.3454 46.6767Z" fill="#F0792E"/>
<path d="M43.582 46.6824C43.5766 46.7611 43.5484 46.8366 43.5009 46.8993C43.4534 46.9621 43.3886 47.0094 43.3146 47.0353C43.2406 47.0612 43.1607 47.0647 43.0848 47.0452C43.0089 47.0258 42.9404 46.9842 42.8877 46.9258C42.835 46.8674 42.8005 46.7946 42.7885 46.7166C42.7765 46.6386 42.7875 46.5587 42.8202 46.4869C42.8528 46.4152 42.9056 46.3547 42.9721 46.3129C43.0386 46.2712 43.1158 46.25 43.1941 46.2522C43.302 46.2577 43.4033 46.3061 43.476 46.3867C43.5486 46.4673 43.5867 46.5735 43.582 46.6824Z" fill="#F0792E"/>
<path d="M44.8205 46.6882C44.8151 46.767 44.7869 46.8424 44.7394 46.9052C44.6919 46.9679 44.6271 47.0152 44.5531 47.0412C44.4792 47.0671 44.3993 47.0705 44.3234 47.0511C44.2475 47.0316 44.1789 46.9901 44.1262 46.9317C44.0735 46.8732 44.0391 46.8005 44.027 46.7225C44.015 46.6444 44.026 46.5646 44.0587 46.4928C44.0913 46.421 44.1442 46.3605 44.2106 46.3188C44.2771 46.277 44.3543 46.2559 44.4326 46.258C44.5401 46.2646 44.6408 46.3132 44.7133 46.3936C44.7858 46.4739 44.8242 46.5797 44.8205 46.6882Z" fill="#F0792E"/>
<path d="M46.0551 46.6939C46.0498 46.7723 46.0219 46.8474 45.9748 46.91C45.9278 46.9726 45.8636 47.0199 45.7901 47.0462C45.7167 47.0724 45.6373 47.0765 45.5616 47.0578C45.4859 47.0392 45.4173 46.9986 45.3642 46.9412C45.3111 46.8837 45.2758 46.8118 45.2626 46.7344C45.2495 46.657 45.2591 46.5774 45.2903 46.5054C45.3215 46.4334 45.3728 46.3722 45.4381 46.3292C45.5033 46.2863 45.5796 46.2635 45.6575 46.2637C45.7117 46.2655 45.765 46.278 45.8143 46.3006C45.8637 46.3233 45.9081 46.3555 45.9451 46.3955C45.982 46.4354 46.0108 46.4824 46.0297 46.5336C46.0485 46.5848 46.0572 46.6393 46.0551 46.6939Z" fill="#F0792E"/>
<path d="M47.2897 46.6999C47.2844 46.7787 47.2562 46.8541 47.2087 46.9169C47.1611 46.9796 47.0963 47.0269 47.0224 47.0529C46.9484 47.0788 46.8685 47.0823 46.7926 47.0628C46.7167 47.0433 46.6481 47.0018 46.5955 46.9434C46.5428 46.8849 46.5083 46.8122 46.4963 46.7342C46.4843 46.6562 46.4953 46.5763 46.5279 46.5045C46.5606 46.4328 46.6134 46.3722 46.6799 46.3305C46.7464 46.2887 46.8235 46.2676 46.9018 46.2697C47.0095 46.2758 47.1106 46.3243 47.1831 46.4048C47.2557 46.4853 47.294 46.5913 47.2897 46.6999Z" fill="#F0792E"/>
<g opacity="0.2">
<path opacity="0.2" d="M37.403 46.6532C37.3977 46.7315 37.3698 46.8066 37.3228 46.8692C37.2757 46.9318 37.2115 46.9791 37.138 47.0054C37.0646 47.0317 36.9852 47.0357 36.9095 47.0171C36.8338 46.9984 36.7652 46.9579 36.7121 46.9004C36.659 46.8429 36.6237 46.7711 36.6106 46.6936C36.5974 46.6162 36.6071 46.5366 36.6382 46.4646C36.6694 46.3926 36.7208 46.3314 36.786 46.2885C36.8512 46.2455 36.9275 46.2228 37.0054 46.223C37.1147 46.227 37.2179 46.2746 37.2924 46.3552C37.3669 46.4359 37.4067 46.543 37.403 46.6532Z" fill="white"/>
<path opacity="0.2" d="M38.6376 46.6589C38.6323 46.7377 38.6041 46.8131 38.5566 46.8759C38.509 46.9386 38.4442 46.9859 38.3703 47.0119C38.2963 47.0378 38.2164 47.0412 38.1405 47.0218C38.0646 47.0023 37.9961 46.9608 37.9434 46.9024C37.8907 46.8439 37.8562 46.7712 37.8442 46.6932C37.8322 46.6151 37.8432 46.5353 37.8758 46.4635C37.9085 46.3917 37.9613 46.3312 38.0278 46.2895C38.0943 46.2477 38.1714 46.2266 38.2497 46.2287C38.3573 46.2353 38.458 46.2839 38.5305 46.3643C38.6029 46.4446 38.6414 46.5504 38.6376 46.6589Z" fill="white"/>
<path opacity="0.2" d="M39.8762 46.6646C39.8709 46.743 39.843 46.8181 39.7959 46.8807C39.7488 46.9433 39.6846 46.9906 39.6112 47.0169C39.5378 47.0432 39.4583 47.0472 39.3826 47.0286C39.307 47.0099 39.2383 46.9693 39.1852 46.9119C39.1321 46.8544 39.0968 46.7825 39.0837 46.7051C39.0706 46.6277 39.0802 46.5481 39.1114 46.4761C39.1425 46.4041 39.1939 46.3429 39.2591 46.2999C39.3244 46.257 39.4007 46.2342 39.4786 46.2344C39.5876 46.239 39.6905 46.2867 39.7649 46.3673C39.8394 46.4478 39.8793 46.5546 39.8762 46.6646Z" fill="white"/>
<path opacity="0.2" d="M41.1206 46.6706C41.1152 46.7494 41.087 46.8249 41.0395 46.8876C40.9919 46.9504 40.9272 46.9976 40.8532 47.0236C40.7792 47.0495 40.6993 47.053 40.6234 47.0335C40.5475 47.014 40.479 46.9725 40.4263 46.9141C40.3736 46.8556 40.3391 46.7829 40.3271 46.7049C40.3151 46.6269 40.3261 46.547 40.3587 46.4752C40.3914 46.4035 40.4442 46.3429 40.5107 46.3012C40.5772 46.2594 40.6543 46.2383 40.7326 46.2404C40.8402 46.247 40.9409 46.2956 41.0134 46.376C41.0858 46.4564 41.1243 46.5621 41.1206 46.6706Z" fill="white"/>
<path opacity="0.2" d="M42.3474 46.6765C42.342 46.7553 42.3138 46.8307 42.2663 46.8934C42.2188 46.9562 42.154 47.0035 42.08 47.0294C42.006 47.0554 41.9261 47.0588 41.8502 47.0393C41.7743 47.0199 41.7058 46.9783 41.6531 46.9199C41.6004 46.8615 41.5659 46.7888 41.5539 46.7107C41.5419 46.6327 41.5529 46.5529 41.5855 46.4811C41.6182 46.4093 41.671 46.3488 41.7375 46.307C41.804 46.2653 41.8812 46.2442 41.9595 46.2463C42.0672 46.2524 42.1682 46.3009 42.2408 46.3813C42.3133 46.4618 42.3516 46.5678 42.3474 46.6765Z" fill="white"/>
<path opacity="0.2" d="M43.582 46.6824C43.5766 46.7611 43.5484 46.8366 43.5009 46.8993C43.4534 46.9621 43.3886 47.0094 43.3146 47.0353C43.2406 47.0612 43.1607 47.0647 43.0848 47.0452C43.0089 47.0258 42.9404 46.9842 42.8877 46.9258C42.835 46.8674 42.8005 46.7946 42.7885 46.7166C42.7765 46.6386 42.7875 46.5587 42.8202 46.487C42.8528 46.4152 42.9056 46.3547 42.9721 46.3129C43.0386 46.2712 43.1158 46.25 43.1941 46.2522C43.302 46.2577 43.4033 46.3061 43.4759 46.3867C43.5486 46.4673 43.5867 46.5735 43.582 46.6824Z" fill="white"/>
<path opacity="0.2" d="M44.8205 46.6882C44.8151 46.767 44.7869 46.8424 44.7394 46.9052C44.6919 46.9679 44.6271 47.0152 44.5531 47.0412C44.4792 47.0671 44.3993 47.0705 44.3234 47.0511C44.2475 47.0316 44.1789 46.9901 44.1262 46.9317C44.0735 46.8732 44.0391 46.8005 44.027 46.7225C44.015 46.6444 44.026 46.5646 44.0587 46.4928C44.0913 46.421 44.1442 46.3605 44.2106 46.3188C44.2771 46.277 44.3543 46.2559 44.4326 46.258C44.5401 46.2646 44.6408 46.3132 44.7133 46.3936C44.7858 46.474 44.8242 46.5797 44.8205 46.6882Z" fill="white"/>
<path opacity="0.2" d="M46.0551 46.6942C46.0498 46.7725 46.0219 46.8476 45.9748 46.9102C45.9278 46.9728 45.8636 47.0201 45.7901 47.0464C45.7167 47.0727 45.6373 47.0767 45.5616 47.0581C45.4859 47.0394 45.4173 46.9989 45.3642 46.9414C45.3111 46.8839 45.2758 46.8121 45.2626 46.7346C45.2495 46.6572 45.2591 46.5776 45.2903 46.5056C45.3215 46.4336 45.3728 46.3724 45.4381 46.3295C45.5033 46.2865 45.5796 46.2638 45.6575 46.264C45.7117 46.2657 45.765 46.2783 45.8143 46.3009C45.8637 46.3235 45.9081 46.3557 45.9451 46.3957C45.982 46.4357 46.0108 46.4826 46.0296 46.5339C46.0485 46.5851 46.0572 46.6396 46.0551 46.6942Z" fill="white"/>
<path opacity="0.2" d="M47.2917 46.7002C47.2863 46.7789 47.2582 46.8544 47.2106 46.9171C47.1631 46.9799 47.0983 47.0272 47.0243 47.0531C46.9504 47.0791 46.8705 47.0825 46.7946 47.063C46.7187 47.0436 46.6501 47.002 46.5974 46.9436C46.5447 46.8852 46.5102 46.8125 46.4982 46.7344C46.4862 46.6564 46.4972 46.5765 46.5299 46.5048C46.5625 46.433 46.6154 46.3725 46.6818 46.3307C46.7483 46.289 46.8255 46.2679 46.9038 46.27C47.0115 46.2761 47.1125 46.3246 47.1851 46.405C47.2576 46.4855 47.2959 46.5915 47.2917 46.7002Z" fill="white"/>
</g>
<path d="M45.5353 18.4691C45.67 18.4092 45.7843 18.3108 45.864 18.186C45.9436 18.0612 45.9851 17.9155 45.9833 17.7671C45.9883 17.6706 45.9738 17.5741 45.9407 17.4834C45.9075 17.3928 45.8564 17.3099 45.7904 17.2398C45.7244 17.1697 45.645 17.1139 45.557 17.0758C45.4689 17.0377 45.3741 17.018 45.2783 17.018C45.1824 17.018 45.0876 17.0377 44.9996 17.0758C44.9115 17.1139 44.8321 17.1697 44.7661 17.2398C44.7002 17.3099 44.649 17.3928 44.6159 17.4834C44.5827 17.5741 44.5682 17.6706 44.5732 17.7671C44.5701 17.9167 44.6113 18.064 44.6914 18.19C44.7715 18.316 44.887 18.4152 45.0232 18.4749C43.937 18.6392 43.9855 19.83 43.9855 19.83L46.5536 19.8418C46.5536 19.8418 46.6117 18.6333 45.5353 18.4691Z" fill="#F0792E"/>
<path opacity="0.1" d="M45.5353 18.4691C45.67 18.4092 45.7843 18.3108 45.864 18.186C45.9436 18.0612 45.9851 17.9155 45.9833 17.7671C45.9883 17.6706 45.9738 17.5741 45.9407 17.4834C45.9075 17.3928 45.8564 17.3099 45.7904 17.2398C45.7244 17.1697 45.645 17.1139 45.557 17.0758C45.4689 17.0377 45.3741 17.018 45.2783 17.018C45.1824 17.018 45.0876 17.0377 44.9996 17.0758C44.9115 17.1139 44.8321 17.1697 44.7661 17.2398C44.7002 17.3099 44.649 17.3928 44.6159 17.4834C44.5827 17.5741 44.5682 17.6706 44.5732 17.7671C44.5701 17.9167 44.6113 18.064 44.6914 18.19C44.7715 18.316 44.887 18.4152 45.0232 18.4749C43.937 18.6392 43.9855 19.83 43.9855 19.83L46.5536 19.8418C46.5536 19.8418 46.6117 18.6333 45.5353 18.4691Z" fill="#F0792E"/>
<path d="M49.7077 20.6106L40.5548 20.5687L40.5499 21.6716L49.7027 21.7135L49.7077 20.6106Z" fill="#20446C"/>
<g opacity="0.5">
<path opacity="0.5" d="M28.2271 53.0678C28.4107 52.4062 28.8273 51.7647 29.4587 51.4927C30.0901 51.2206 30.8776 51.3695 31.5512 51.6158C32.2248 51.8621 32.8856 52.1874 33.5996 52.2315C34.3136 52.2757 35.1212 51.9375 35.336 51.2519C35.5379 50.6086 35.1524 49.923 34.6642 49.4561C34.1521 48.9621 33.5241 48.605 32.8379 48.4181C32.1518 48.2311 31.4297 48.2201 30.7382 48.3862C30.0467 48.5523 29.4082 48.8901 28.8814 49.3685C28.3547 49.8468 27.9567 50.4503 27.7242 51.1232" fill="#F0792E"/>
</g>
<path d="M22.4016 55.7454C21.3696 54.7417 21.4219 52.9949 21.9361 51.6362C22.4503 50.2776 23.5725 49.2332 24.8228 48.5493C26.0464 47.8906 27.3998 47.5245 28.7812 47.4784C30.1627 47.4323 31.5365 47.7074 32.7993 48.2831C32.1794 48.3104 31.5755 48.4932 31.0407 48.8155C30.5059 49.1378 30.0566 49.5897 29.7321 50.1316C29.1674 51.0946 29.0429 52.261 28.5756 53.274C28.0481 54.4148 27.1151 55.306 25.9675 55.7654C24.8198 56.2248 23.5442 56.2176 22.4016 55.7454Z" fill="#F0792E"/>
<path d="M22.2493 50.0622C21.1316 48.6921 20.9833 46.4928 21.1475 44.7063C21.3117 42.9198 21.7107 41.1223 21.4406 39.3486C21.2799 38.2994 20.8862 37.2961 20.7538 36.2414C20.6214 35.1868 20.8103 33.9945 21.596 33.3067C22.5 32.5235 23.923 32.7087 24.8641 33.4424C25.8052 34.1761 26.349 35.3317 26.748 36.4817C27.622 39.0093 27.9433 41.8101 27.2247 44.3908C26.5061 46.9716 24.82 49.2753 22.3464 50.0549" fill="#F0792E"/>
<path d="M21.5806 61.284C21.5777 61.2298 21.5777 61.1755 21.5806 61.1214C21.5806 61.0154 21.5806 60.8566 21.5902 60.6542C21.6055 60.2495 21.6439 59.6632 21.7359 58.9522C21.8452 58.1098 22.0007 57.2739 22.2018 56.4482C22.4541 55.4341 22.8443 54.4582 23.3616 53.5471C23.8808 52.6381 24.5168 51.7991 25.2538 51.0508C25.8548 50.4394 26.5207 49.8935 27.2399 49.4224C27.5427 49.2163 27.8341 49.0593 28.0872 48.9137C28.3403 48.7681 28.5722 48.6697 28.7563 48.5827L29.1934 48.3936C29.2429 48.3709 29.2942 48.3519 29.3467 48.3369C29.3005 48.3663 29.2518 48.3917 29.201 48.4125L28.7735 48.6017C28.5818 48.6943 28.369 48.8097 28.114 48.9477C27.8591 49.0858 27.5773 49.256 27.2782 49.4659C26.5695 49.9414 25.9134 50.4891 25.3209 51.0999C24.5928 51.8457 23.9635 52.6794 23.4479 53.5812C22.334 55.5045 22.0292 57.5281 21.8068 58.9465C21.7072 59.6614 21.6554 60.2457 21.6286 60.6486C21.6171 60.8377 21.6075 60.9984 21.6017 61.1138C21.6002 61.1711 21.5931 61.228 21.5806 61.284Z" fill="#20446C"/>
<g opacity="0.5">
<path opacity="0.5" d="M11.4858 44.5393C9.34565 45.8369 9.34565 47.0188 9.71275 48.1344C10.0798 49.2501 11.3904 50.0239 12.4825 49.6048C13.1011 49.3696 13.5489 48.831 13.9307 48.2907C14.3125 47.7503 14.6649 47.1731 15.2155 46.7853C15.7662 46.3975 16.504 46.2486 17.0547 46.6346" fill="#F0792E"/>
</g>
<path d="M9.49405 46.1004C10.0944 45.3172 11.5775 45.0913 12.5132 45.4819C13.449 45.8726 14.1356 46.6466 14.7497 47.4206C15.3637 48.1946 15.9621 49.0111 16.8135 49.5481C17.6649 50.0851 18.8518 50.2887 19.6993 49.7332C19.9695 49.5432 20.1958 49.3032 20.3645 49.0278C20.5331 48.7524 20.6405 48.4475 20.6802 48.1316C20.7548 47.4995 20.7089 46.8598 20.5448 46.243C20.3486 45.3338 20.0112 44.3914 19.2402 43.8062C18.3829 43.1637 17.1901 43.1323 16.1013 43.1674C14.8438 43.2045 13.5687 43.2952 12.3877 43.7063C11.2067 44.1173 10.0022 45.0024 9.5019 46.0948" fill="#F0792E"/>
<path d="M19.8353 59.5576C19.8333 59.5415 19.8333 59.5253 19.8353 59.5092C19.8353 59.4721 19.8353 59.4256 19.8353 59.3698C19.8353 59.2378 19.8233 59.0575 19.8133 58.8288C19.7993 58.351 19.7792 57.6761 19.7532 56.8432C19.7272 56.0103 19.6871 55.0063 19.623 53.9001C19.559 52.7939 19.4668 51.5762 19.2866 50.3082C19.2097 49.6923 19.0797 49.083 18.8981 48.4863C18.5403 47.4349 17.9909 46.4482 17.2739 45.5692C16.9732 45.2097 16.6424 44.8728 16.2846 44.5616C15.7623 44.1115 15.1711 43.7356 14.5303 43.4461C14.4162 43.3959 14.316 43.3494 14.2259 43.3141L13.9976 43.2323L13.8554 43.1802L13.8094 43.1579L13.8594 43.1709L14.0036 43.2137L14.2379 43.288C14.328 43.3196 14.4382 43.3643 14.5463 43.4107C15.1973 43.6868 15.799 44.0536 16.3307 44.4984C16.6934 44.8098 17.0283 45.148 17.332 45.5097C17.6812 45.9261 17.9902 46.3703 18.2552 46.8372C18.5518 47.3512 18.7965 47.8895 18.9862 48.4454C19.1719 49.0475 19.3058 49.6623 19.3867 50.2841C19.567 51.5557 19.6531 52.7753 19.7152 53.8834C19.7772 54.9915 19.8033 55.9917 19.8233 56.8302C19.8433 57.6687 19.8493 58.3473 19.8513 58.8176V59.3568C19.8513 59.4144 19.8513 59.4609 19.8513 59.4981C19.8487 59.5185 19.8433 59.5384 19.8353 59.5576Z" fill="#20446C"/>
<path d="M20.2262 60.4202C20.1255 60.1259 20.0482 59.8242 19.995 59.5177C19.8483 58.6764 19.8155 57.8191 19.8974 56.969C20.0271 55.71 20.2973 54.4695 20.703 53.2705C21.1364 51.9113 21.7252 50.4583 22.2292 48.8969C22.4766 48.1375 22.6792 47.3642 22.836 46.581C22.9751 45.851 23.0752 45.1141 23.1358 44.3735C23.2312 43.1165 23.2535 41.8551 23.2027 40.5956C23.1665 39.5125 23.1087 38.6497 23.0726 38.0486C23.0564 37.7526 23.0419 37.5216 23.0329 37.3573C23.0329 37.2815 23.0329 37.2219 23.0239 37.1768C23.0214 37.1564 23.0214 37.1358 23.0239 37.1154C23.0296 37.1348 23.0326 37.1548 23.0329 37.175C23.0329 37.2219 23.0437 37.2797 23.0509 37.3555C23.0654 37.5198 23.0853 37.7508 23.1105 38.0468C23.1575 38.6479 23.2243 39.5161 23.2695 40.5937C23.3308 41.8571 23.3151 43.1229 23.2225 44.3843C23.1639 45.1286 23.065 45.8691 22.9263 46.6027C22.7708 47.3891 22.5682 48.1655 22.3195 48.9276C21.8137 50.4962 21.2231 51.9474 20.7861 53.3012C20.378 54.493 20.1024 55.726 19.9643 56.978C19.876 57.8233 19.8985 58.6765 20.0311 59.5159C20.0817 59.8101 20.1304 60.0394 20.172 60.1928C20.19 60.265 20.2027 60.3228 20.2135 60.3733C20.2188 60.3886 20.223 60.4043 20.2262 60.4202Z" fill="#20446C"/>
<path d="M25.8939 61.2841H15.7684L15.5363 59.5578H25.8939V61.2841Z" fill="#8E9398"/>
<path d="M16.3997 61.2843L17.7736 67.3263H23.7452L25.0311 61.2843H16.3997Z" fill="#8E9398"/>
<path d="M24.1681 64.7129C23.8862 64.4998 23.5784 64.3233 23.252 64.1875C22.8971 64.0483 22.5203 63.9728 22.1391 63.9644C21.671 63.9661 21.2069 64.0513 20.7687 64.2158C20.2955 64.3765 19.8526 64.5617 19.4211 64.6637C19.0379 64.747 18.6427 64.7592 18.2551 64.6996C17.9946 64.6625 17.742 64.5827 17.5075 64.4634C17.4415 64.4299 17.3782 64.3914 17.3182 64.3481C17.2803 64.3198 17.2614 64.3027 17.2633 64.299C17.2652 64.2952 17.3504 64.3519 17.5169 64.4275C17.7528 64.5312 18.0029 64.5994 18.2589 64.6297C18.6377 64.6786 19.0222 64.6601 19.3946 64.5749C19.811 64.471 20.2539 64.2838 20.7309 64.1213C21.1801 63.9543 21.656 63.8704 22.1353 63.8737C22.5259 63.8868 22.9109 63.9714 23.271 64.1232C23.5136 64.2239 23.7415 64.3568 23.9486 64.5182C24.0058 64.5613 24.0601 64.608 24.1114 64.6581C24.153 64.6902 24.17 64.7091 24.1681 64.7129Z" fill="#20446C"/>
<path d="M24.1676 64.67C23.8859 64.4733 23.58 64.3076 23.2562 64.1764C22.9019 64.0431 22.5235 63.9716 22.1406 63.9657C21.6714 63.9675 21.2061 64.0443 20.7657 64.1926C20.2904 64.3385 19.8445 64.5079 19.4183 64.6123C19.0409 64.7123 18.6477 64.7526 18.2555 64.7312C17.9915 64.7187 17.733 64.6574 17.4954 64.5511C17.4336 64.5159 17.3745 64.4768 17.3186 64.434C17.2794 64.407 17.2597 64.3926 17.2637 64.389C17.2676 64.3854 17.352 64.4376 17.519 64.5061C17.7559 64.5996 18.0096 64.6522 18.2673 64.661C18.65 64.6706 19.0318 64.6244 19.3987 64.5241C19.8151 64.416 20.259 64.2449 20.7402 64.0972C21.191 63.9453 21.6682 63.8697 22.1484 63.8738C22.5419 63.8836 22.9296 63.9638 23.2896 64.1098C23.5307 64.207 23.7572 64.3323 23.9633 64.4826C24.036 64.5367 24.089 64.5817 24.1244 64.6123C24.1597 64.643 24.1715 64.6664 24.1676 64.67Z" fill="white"/>
<path d="M24.1683 63.8733C23.8829 63.6684 23.5749 63.4946 23.2498 63.3551C22.9 63.2106 22.5274 63.1239 22.1476 63.0986C21.6794 63.0899 21.2139 63.1692 20.7773 63.3321C20.3343 63.4992 19.8816 63.6415 19.4216 63.7583C19.0356 63.8223 18.6411 63.8223 18.2551 63.7583C17.9942 63.7189 17.741 63.642 17.5038 63.5302C17.4399 63.4979 17.3785 63.4612 17.3201 63.4205C17.2991 63.4076 17.28 63.3921 17.2632 63.3745C17.2632 63.3745 17.3532 63.424 17.5185 63.4966C17.7559 63.5946 18.0063 63.6607 18.2625 63.6929C18.6413 63.7461 19.0267 63.739 19.4032 63.6717C19.858 63.5519 20.3056 63.4084 20.7442 63.2419C21.1926 63.0755 21.671 62.9973 22.1513 63.0119C22.5424 63.0405 22.925 63.1364 23.281 63.2949C23.5209 63.3986 23.7472 63.5292 23.9552 63.6841C24.0114 63.7262 24.0654 63.771 24.1169 63.8185C24.1361 63.8348 24.1534 63.8532 24.1683 63.8733Z" fill="white"/>
</g>
<defs>
<clipPath id="clip0_148_3719">
<rect width="82.8499" height="81.9838" fill="white"/>
</clipPath>
</defs>
</svg>
