<svg width="13" height="15" viewBox="0 0 13 15" fill="none" xmlns="http://www.w3.org/2000/svg">
<path d="M6.96458 0.0512935L0.161282 11.4254L5.79439 14.7948L12.5977 3.42068L6.96458 0.0512935Z" fill="#EABEF5"/>
<path d="M7.52696 8.31336C7.34445 8.524 7.10354 8.67574 6.83474 8.74937C6.56594 8.823 6.28133 8.81522 6.01696 8.727C5.75258 8.63878 5.52033 8.4741 5.34961 8.2538C5.17889 8.0335 5.07738 7.7675 5.05793 7.48948C5.03849 7.21145 5.10197 6.93391 5.24036 6.69199C5.37875 6.45007 5.58581 6.25466 5.83533 6.13049C6.08485 6.00632 6.3656 5.95899 6.64203 5.99448C6.91847 6.02998 7.17815 6.1467 7.38821 6.32987C7.66852 6.5752 7.84042 6.92143 7.86641 7.29302C7.89241 7.66461 7.77038 8.0314 7.52696 8.31336Z" fill="#954CAF" stroke="#263238" stroke-width="0.250052" stroke-linecap="round" stroke-linejoin="round"/>
<path d="M6.13395 6.64698L6.14096 6.63327C6.16751 6.58131 6.14752 6.51854 6.09712 6.49279C6.04676 6.46706 5.98415 6.48763 5.9576 6.53959L5.52322 7.38977C5.49667 7.44173 5.51669 7.50452 5.56705 7.53025C5.61746 7.556 5.68003 7.53541 5.70658 7.48345L5.83106 7.2398L5.83107 7.23978L6.13395 6.64698ZM6.13395 6.64698L6.13503 6.64752M6.13395 6.64698L6.13503 6.64752M6.13503 6.64752L6.03398 6.84528L6.02089 6.87092L6.04948 6.86757C6.10813 6.86071 6.1674 6.86432 6.22449 6.87821L6.23631 6.88109L6.24184 6.87026L6.31697 6.7232C6.34352 6.67124 6.40609 6.65065 6.45649 6.6764C6.5069 6.70215 6.52688 6.76492 6.50033 6.81688L6.42519 6.96394L6.41968 6.97474L6.42888 6.98263C6.59907 7.12856 6.65277 7.37184 6.56045 7.58095L6.54585 7.61404L6.57982 7.60162L7.17299 7.38484L7.173 7.38483C7.19887 7.37535 7.22718 7.37662 7.25167 7.38826C7.27614 7.39989 7.29495 7.42096 7.3039 7.44692C7.31275 7.4742 7.31044 7.50419 7.29735 7.53016C7.28522 7.55427 7.2645 7.57286 7.23949 7.58216C7.23948 7.58217 7.23947 7.58217 7.23946 7.58218L6.36533 7.90168C6.36533 7.90168 6.36532 7.90168 6.36531 7.90169C6.32519 7.91622 6.28086 7.90471 6.25327 7.87277C6.22564 7.84079 6.22016 7.79448 6.23983 7.75589L6.13503 6.64752Z" fill="white" stroke="#BFBFBF" stroke-width="0.0300063"/>
<path d="M0.163105 11.427L5.79459 14.7898L12.6046 3.42397L6.97419 0.0561797L0.163105 11.427ZM11.8941 3.59982L5.61863 14.0924L0.86396 11.2596L7.13656 0.755979L11.8941 3.59982Z" fill="white"/>
<path d="M6.93152 0.128303L0.128224 11.5024L5.76133 14.8718L12.5646 3.49769L6.93152 0.128303Z" stroke="#263238" stroke-width="0.250052" stroke-linecap="round" stroke-linejoin="round"/>
<path opacity="0.5" d="M7.53371 1.84052L6.69538 3.2371C6.64934 3.31202 6.57577 3.36591 6.49045 3.3872C6.40513 3.40849 6.31487 3.39548 6.23903 3.35097C6.16359 3.3054 6.10926 3.23181 6.08792 3.14629C6.06658 3.06077 6.07997 2.97029 6.12515 2.89462L6.96347 1.49804C7.00951 1.42312 7.08308 1.36923 7.1684 1.34794C7.25372 1.32665 7.34399 1.33966 7.41983 1.38416C7.49527 1.42974 7.5496 1.50333 7.57094 1.58884C7.59228 1.67436 7.57889 1.76485 7.53371 1.84052Z" fill="#20446C"/>
<path opacity="0.5" d="M6.556 11.685L5.71767 13.0816C5.67163 13.1565 5.59806 13.2104 5.51274 13.2317C5.42742 13.253 5.33716 13.24 5.26132 13.1955C5.18588 13.1499 5.13155 13.0763 5.11021 12.9908C5.08887 12.9053 5.10226 12.8148 5.14744 12.7391L5.98576 11.3425C6.0318 11.2676 6.10537 11.2137 6.19069 11.1924C6.27601 11.1711 6.36628 11.1841 6.44212 11.2286C6.51756 11.2742 6.57189 11.3478 6.59323 11.4333C6.61456 11.5188 6.60118 11.6093 6.556 11.685Z" fill="#20446C"/>
</svg>
