<svg width="4" height="4" viewBox="0 0 4 4" fill="none" xmlns="http://www.w3.org/2000/svg">
<path opacity="0.81" d="M2.00055 4C1.83034 3.99987 1.66083 3.97823 1.49604 3.9356C1.00421 3.80763 0.579552 3.49711 0.308393 3.06715C0.037234 2.6372 -0.0600758 2.12008 0.0362477 1.62093C0.132571 1.12177 0.415298 0.67804 0.826953 0.37994C1.23861 0.0818392 1.74829 -0.0482569 2.2524 0.0160944C2.75651 0.0804458 3.2172 0.334413 3.54082 0.726375C3.86445 1.11834 4.02672 1.61887 3.99465 2.12623C3.96257 2.63359 3.73856 3.10968 3.36816 3.45774C2.99775 3.8058 2.50875 3.99969 2.00055 4ZM2.00055 0.984781C1.74234 0.98517 1.49396 1.08389 1.30589 1.26088C1.11782 1.43787 1.00416 1.67985 0.988024 1.93764C0.971885 2.19544 1.05447 2.44972 1.219 2.6488C1.38353 2.84787 1.61765 2.97682 1.8738 3.00943C2.12995 3.04204 2.3889 2.97587 2.59803 2.82437C2.80716 2.67286 2.95079 2.44739 2.99972 2.19377C3.04865 1.94015 2.99921 1.67741 2.86145 1.45893C2.7237 1.24046 2.50796 1.08265 2.25807 1.01757C2.17377 0.997288 2.08724 0.987838 2.00055 0.989462V0.984781Z" fill="white"/>
</svg>
