<svg width="16" height="16" viewBox="0 0 16 16" fill="none" xmlns="http://www.w3.org/2000/svg">
<path d="M15.9947 7.72058C16.0499 9.30185 15.635 10.864 14.8024 12.2094C13.9698 13.5549 12.7569 14.6232 11.3171 15.2793C9.87737 15.9354 8.27536 16.1499 6.71371 15.8955C5.15206 15.6412 3.70091 14.9294 2.54377 13.8503C1.38664 12.7712 0.575484 11.3732 0.212894 9.83305C-0.149696 8.29293 -0.0474388 6.67987 0.506737 5.19787C1.06091 3.71586 2.04211 2.43147 3.32626 1.50713C4.61041 0.582777 6.13982 0.0599837 7.72109 0.00486153C9.84139 -0.0690509 11.9042 0.702317 13.4558 2.14928C15.0074 3.59625 15.9207 5.60029 15.9947 7.72058Z" fill="#20446C"/>
<g opacity="0.1">
<path opacity="0.1" d="M7.72053 0.00579929C5.60025 0.079846 3.59621 0.993111 2.14926 2.5447C0.702304 4.09628 -0.0690504 6.15911 0.00486154 8.2794C0.00486154 8.2794 5.63487 8.33571 6.91441 6.02483C8.19396 3.71395 7.72053 0.00579929 7.72053 0.00579929Z" fill="white"/>
</g>
<path d="M13.9453 7.66436C13.9877 8.86667 13.6724 10.0545 13.0395 11.0776C12.4065 12.1007 11.4843 12.913 10.3895 13.4118C9.29466 13.9105 8.07651 14.0733 6.88917 13.8795C5.70182 13.6857 4.59866 13.1441 3.71927 12.3231C2.83987 11.5021 2.22379 10.4387 1.94897 9.26745C1.67415 8.0962 1.75296 6.86975 2.17541 5.74331C2.59787 4.61687 3.34499 3.64107 4.32222 2.93938C5.29945 2.2377 6.46288 1.84168 7.66526 1.80144C9.27513 1.74756 10.8406 2.33467 12.018 3.43388C13.1954 4.5331 13.8886 6.05459 13.9453 7.66436Z" fill="#20446C"/>
<g opacity="0.2">
<path opacity="0.2" d="M13.9453 7.66436C13.9877 8.86667 13.6724 10.0545 13.0395 11.0776C12.4065 12.1007 11.4843 12.913 10.3895 13.4118C9.29466 13.9105 8.07651 14.0733 6.88917 13.8795C5.70182 13.6857 4.59866 13.1441 3.71927 12.3231C2.83987 11.5021 2.22379 10.4387 1.94897 9.26745C1.67415 8.0962 1.75296 6.86975 2.17541 5.74331C2.59787 4.61687 3.34499 3.64107 4.32222 2.93938C5.29945 2.2377 6.46288 1.84168 7.66526 1.80144C9.27513 1.74756 10.8406 2.33467 12.018 3.43388C13.1954 4.5331 13.8886 6.05459 13.9453 7.66436Z" fill="#20446C"/>
</g>
<path d="M14.1276 7.91257C14.1689 9.09816 13.8577 10.2694 13.2334 11.2781C12.6091 12.2868 11.6997 13.0878 10.6202 13.5798C9.54066 14.0717 8.33953 14.2325 7.16865 14.0418C5.99776 13.8512 4.9097 13.3176 4.04203 12.5086C3.17436 11.6997 2.56604 10.6515 2.294 9.49686C2.02195 8.34216 2.09839 7.13273 2.51366 6.02148C2.92892 4.91023 3.66436 3.94706 4.62699 3.25375C5.58961 2.56044 6.7362 2.16813 7.92177 2.12642C9.5119 2.07115 11.0589 2.64963 12.2226 3.73466C13.3864 4.81969 14.0716 6.32246 14.1276 7.91257Z" fill="#F0792E"/>
<path d="M9.73458 6.46304C9.9393 6.46304 10.1052 6.29947 10.1052 6.09763C10.1052 5.89594 9.9393 5.73222 9.73458 5.73222H6.79912C6.5944 5.73222 6.42848 5.89594 6.42848 6.09763C6.42848 6.29947 6.5944 6.46304 6.79912 6.46304H7.64045C7.98836 6.46247 8.30442 6.66259 8.44848 6.97462H6.80274C6.59816 6.97462 6.4321 7.13834 6.4321 7.34003C6.4321 7.54186 6.59816 7.70544 6.80274 7.70544H8.44848C8.30311 8.01661 7.98778 8.21616 7.64045 8.21702H6.79912C6.6471 8.21716 6.51042 8.30865 6.4541 8.44782C6.39778 8.58699 6.43311 8.746 6.54329 8.8492L8.64118 10.8041C8.71053 10.8681 8.80203 10.9034 8.89687 10.9028C8.99879 10.9022 9.09623 10.8614 9.16746 10.7896C9.23493 10.7194 9.27127 10.6256 9.26852 10.5289C9.26577 10.4323 9.22407 10.3407 9.1527 10.2743L7.72934 8.94784C8.45137 8.90673 9.06033 8.403 9.22682 7.70915H9.73458C9.9393 7.70915 10.1052 7.54557 10.1052 7.34374C10.1052 7.14191 9.9393 6.97833 9.73458 6.97833H9.22682C9.18368 6.79634 9.10839 6.62305 9.00444 6.46676H9.73458V6.46304Z" fill="white"/>
<g opacity="0.2">
<path opacity="0.2" d="M14.1276 7.91257C14.1689 9.09816 13.8577 10.2694 13.2334 11.2781C12.6091 12.2868 11.6997 13.0878 10.6202 13.5798C9.54066 14.0717 8.33953 14.2325 7.16865 14.0418C5.99776 13.8512 4.9097 13.3176 4.04203 12.5086C3.17436 11.6997 2.56604 10.6515 2.294 9.49686C2.02195 8.34216 2.09839 7.13273 2.51366 6.02148C2.92892 4.91023 3.66436 3.94706 4.62699 3.25375C5.58961 2.56044 6.7362 2.16813 7.92177 2.12642C9.5119 2.07115 11.0589 2.64963 12.2226 3.73466C13.3864 4.81969 14.0716 6.32246 14.1276 7.91257Z" fill="white"/>
</g>
<path d="M8.23251 14.1799H8.28113L8.42444 14.1671L8.65988 14.1441C8.76651 14.1367 8.87252 14.1221 8.97721 14.1006L9.37387 14.0238C9.44863 14.0098 9.52221 13.9902 9.59395 13.9649L9.83195 13.8933C9.91855 13.8712 10.004 13.8447 10.0879 13.8139L10.3438 13.7065C10.4333 13.6681 10.528 13.6348 10.6176 13.5887L10.8991 13.4403C11.3128 13.2167 11.7 12.9472 12.0532 12.6367L12.3322 12.368L12.4729 12.2298C12.5165 12.1787 12.5574 12.1275 12.6035 12.0763C12.6879 11.9714 12.7826 11.8716 12.8594 11.759L13.0999 11.4135L13.1613 11.3239C13.1818 11.2958 13.1972 11.2625 13.2151 11.2318L13.3226 11.0424L13.4301 10.8505C13.4684 10.7865 13.4915 10.7148 13.5247 10.6483C13.5836 10.5101 13.6476 10.3745 13.7013 10.2337L13.8472 9.79613C14.0192 9.17914 14.0994 8.54018 14.0852 7.89982C14.0555 7.25957 13.9304 6.62734 13.7141 6.02399C13.6553 5.88068 13.599 5.73737 13.5401 5.59662C13.4812 5.45587 13.4019 5.32792 13.3328 5.19484C13.3005 5.12814 13.2646 5.06321 13.2253 5.00035L13.105 4.81609L12.9848 4.6344C12.9643 4.60369 12.9464 4.57298 12.9259 4.54483L12.8568 4.46038L12.6009 4.13281C12.5088 4.02789 12.409 3.9332 12.3168 3.83595L12.1761 3.69264C12.1275 3.64658 12.0763 3.60563 12.0251 3.56213L11.7308 3.30622C11.3557 3.02101 10.9496 2.77893 10.5203 2.58455L10.2312 2.45659C10.1365 2.41565 10.0392 2.39262 9.94966 2.35935L9.6784 2.26978C9.59395 2.23907 9.50438 2.22883 9.42249 2.2058L9.17938 2.15206C9.10547 2.13268 9.03018 2.119 8.95418 2.11111L8.55496 2.06249C8.449 2.04762 8.34206 2.04077 8.23507 2.04202H7.99963H7.85376H8.23507C8.34194 2.03883 8.44889 2.04396 8.55496 2.05737L8.95673 2.10088C9.03338 2.10889 9.10945 2.12171 9.18449 2.13926L9.44041 2.193C9.5223 2.21348 9.61187 2.22371 9.69632 2.25442L9.96758 2.34143C10.0597 2.37214 10.1595 2.39773 10.2542 2.43868L10.5459 2.56407C10.9788 2.75824 11.389 2.99939 11.7692 3.28319L12.066 3.5391L12.2196 3.66961L12.3603 3.81292C12.455 3.91273 12.5574 4.00741 12.6495 4.11234L12.9054 4.44247L12.9745 4.52692L13.0359 4.61648L13.1562 4.80074L13.2791 4.985C13.3226 5.04641 13.3507 5.11807 13.3891 5.18205C13.4582 5.31512 13.5324 5.43796 13.599 5.58639C13.6655 5.73482 13.7141 5.87301 13.773 6.01888C14.2291 7.24018 14.2758 8.57667 13.906 9.82684L13.7627 10.2696C13.7064 10.4129 13.6399 10.5485 13.581 10.6867C13.5478 10.7558 13.5247 10.8274 13.4863 10.8914C13.448 10.9554 13.4121 11.0194 13.3763 11.0834L13.2688 11.2753C13.2509 11.306 13.233 11.3393 13.2125 11.37L13.1511 11.4595L12.8952 11.8076C12.8107 11.9202 12.7161 12.02 12.6393 12.1249L12.5062 12.2785L12.3655 12.4192L12.084 12.6905C11.7254 13.0013 11.3332 13.2708 10.9145 13.494L10.6329 13.6399C10.5408 13.686 10.4461 13.7167 10.354 13.7551L10.0981 13.8626C10.0142 13.8933 9.92877 13.9198 9.84219 13.9419L9.60163 14.011C9.52897 14.0354 9.45454 14.0543 9.37899 14.0673L8.98232 14.1389C8.87683 14.1595 8.76985 14.1714 8.66244 14.1748L8.427 14.1927H8.28113L8.23251 14.1799Z" fill="#263238"/>
<path d="M1.32246 11.9892C1.30734 11.9703 1.29447 11.9497 1.28408 11.9278L1.17915 11.7487C1.13565 11.6719 1.08191 11.5747 1.02817 11.4569C0.974427 11.3392 0.905328 11.2138 0.849028 11.0628L0.754344 10.83C0.721075 10.7481 0.695483 10.6611 0.664774 10.5741C0.598238 10.3949 0.549617 10.2004 0.490758 9.99314C0.381843 9.54482 0.307413 9.08881 0.268119 8.62913C0.237786 8.16788 0.243778 7.70496 0.286035 7.24465C0.311625 7.0348 0.332095 6.83263 0.370481 6.64838C0.388394 6.55369 0.401193 6.46412 0.421666 6.37711C0.442138 6.2901 0.462606 6.21077 0.48052 6.1212C0.516347 5.96254 0.562411 5.82434 0.600797 5.70151C0.629867 5.59638 0.664899 5.493 0.70572 5.39185L0.78249 5.19992C0.788679 5.17652 0.798161 5.15412 0.810644 5.13338C0.807393 5.15787 0.801382 5.18191 0.792728 5.20504L0.728751 5.39953C0.698042 5.48398 0.664773 5.5889 0.631505 5.71174C0.598237 5.83458 0.554734 5.96765 0.521466 6.12888C0.504405 6.20906 0.486494 6.29437 0.467727 6.38479C0.447255 6.46924 0.437018 6.56137 0.419104 6.6535C0.383277 6.83775 0.365366 7.03736 0.342335 7.24721C0.301908 7.70424 0.297624 8.16375 0.329535 8.62145C0.366374 9.0784 0.438239 9.53184 0.544497 9.97778C0.600797 10.1825 0.649418 10.377 0.710836 10.5561C0.741545 10.6431 0.767142 10.7327 0.797851 10.812L0.887413 11.0475C0.943713 11.1985 1.00769 11.3264 1.05888 11.4442C1.11006 11.5619 1.15868 11.6591 1.19962 11.7384L1.29431 11.9227C1.30729 11.9432 1.31681 11.9657 1.32246 11.9892Z" fill="white"/>
<path d="M8.19924 1.62478C8.13458 1.63146 8.0694 1.63146 8.00474 1.62478H7.77443C7.68742 1.62478 7.58505 1.62478 7.47245 1.62478C7.35985 1.62478 7.23958 1.63758 7.1065 1.65293C6.97343 1.66829 6.8378 1.6862 6.69193 1.70923C6.05796 1.81848 5.44438 2.02387 4.8724 2.3183C4.74189 2.38996 4.61649 2.45393 4.50645 2.52559C4.39998 2.58601 4.29663 2.65178 4.1968 2.72264C4.10211 2.78406 4.02278 2.84548 3.94089 2.89922C3.859 2.95296 3.81037 2.99902 3.76175 3.03997C3.71308 3.08348 3.66086 3.12286 3.60565 3.15769C3.64948 3.10938 3.6965 3.06407 3.7464 3.02206C3.79246 2.97855 3.85132 2.92737 3.92041 2.87363C3.98951 2.81989 4.06884 2.75079 4.16353 2.68681C4.25822 2.62284 4.35546 2.55118 4.47062 2.48209C4.58578 2.41299 4.70606 2.34133 4.83658 2.26968C5.12401 2.11974 5.42261 1.99226 5.7297 1.88837C6.03691 1.78578 6.35183 1.7079 6.67145 1.6555C6.81988 1.63502 6.96063 1.61199 7.0937 1.60431C7.22678 1.59663 7.34961 1.5864 7.46222 1.58384C7.57482 1.58128 7.67718 1.58384 7.76675 1.58384C7.85632 1.58384 7.93309 1.58384 7.99451 1.59919C8.0633 1.60261 8.13173 1.61116 8.19924 1.62478Z" fill="white"/>
<path d="M9.23825 15.5463C9.19347 15.5669 9.14614 15.5816 9.09751 15.5898C9.00538 15.6154 8.86974 15.6435 8.7034 15.6717C7.82362 15.8173 6.92201 15.756 6.07007 15.4925C5.90884 15.4439 5.77833 15.3953 5.69132 15.3595C5.64506 15.3434 5.60048 15.3228 5.55825 15.298C5.60648 15.3054 5.65372 15.3183 5.699 15.3364C5.78857 15.3671 5.91908 15.4081 6.08287 15.4541C6.9325 15.6915 7.82188 15.7516 8.69572 15.6307C8.86462 15.6077 9.00025 15.5847 9.09238 15.5667C9.13989 15.5535 9.18894 15.5466 9.23825 15.5463Z" fill="white"/>
</svg>
