<svg width="25" height="25" viewBox="0 0 25 25" fill="none" xmlns="http://www.w3.org/2000/svg">
<path d="M2.76655 2.7663L8.4017 1.74173L11.9877 4.30316L15.0614 0.717152L17.6229 2.25401L18.1352 5.32773L21.7212 9.42603L24.2826 16.598L21.2089 20.1841L16.5983 23.2578L7.37713 22.2332L2.25426 24.7946L0.717402 18.6472L3.79112 17.1103L4.8157 17.6226L7.88942 14.0366L3.79112 12.4997L1.22969 9.93832V6.35231L2.76655 2.7663Z" fill="#FEEEE4"/>
<mask id="path-2-outside-1_7_73268" maskUnits="userSpaceOnUse" x="-0.819459" y="-0.819709" width="26.6389" height="26.6389" fill="black">
<rect fill="white" x="-0.819459" y="-0.819709" width="26.6389" height="26.6389"/>
<path d="M24.7267 16.063C24.66 15.8247 24.5479 15.6038 24.3932 15.4061C24.1213 15.0593 23.7447 14.8308 23.3376 14.7321C23.352 14.5445 23.3601 14.3539 23.3601 14.1612C23.3601 12.4082 22.7863 10.5285 21.7445 8.86844C21.6384 8.69934 21.4136 8.64737 21.2427 8.75222C21.0716 8.85706 21.019 9.07914 21.125 9.2482C22.0822 10.7734 22.6312 12.5641 22.6312 14.1613C22.6312 14.3415 22.6234 14.5196 22.6096 14.6943C22.3405 14.731 22.0765 14.8242 21.8371 14.9779L16.7969 18.2115C16.3528 18.4961 15.8216 18.6037 15.3005 18.5142L11.1975 17.8081L13.3688 16.5217C14.3529 15.9389 14.6952 14.7019 14.1481 13.7053C13.6726 12.8393 12.6695 12.416 11.7097 12.6761C11.5819 12.7104 11.4557 12.7574 11.3347 12.8158L8.26608 14.2971C8.26521 14.2518 8.26443 14.2066 8.26443 14.1612C8.26443 13.97 8.2726 13.7739 8.28795 13.5758C9.33177 13.2988 10.2888 12.7555 11.0735 11.9799C12.2526 10.8146 12.9019 9.26525 12.9019 7.61718C12.9019 7.16865 12.8534 6.72752 12.7597 6.29936C13.6312 5.81246 14.5343 5.56516 15.4478 5.56516C17.1827 5.56516 18.9067 6.47278 20.3024 8.12089C20.3745 8.206 20.4779 8.24994 20.5821 8.24994C20.6646 8.24994 20.7476 8.22238 20.8158 8.16594C20.9702 8.03829 20.9906 7.81107 20.8614 7.65853C20.0048 6.64703 19.0282 5.88925 17.9931 5.41632C18.3196 4.93081 18.5275 4.42393 18.5993 3.92997C18.6853 3.33765 18.5714 2.79993 18.2785 2.41581C17.9834 2.02866 17.5421 1.84856 17.0628 1.89942C17.0584 1.85883 17.0531 1.81676 17.0466 1.77349C16.9763 1.30181 16.8113 0.925757 16.5565 0.65565C16.2782 0.360762 15.8948 0.204865 15.4478 0.204865C15.0008 0.204865 14.6174 0.360762 14.3391 0.65565C14.0843 0.925709 13.9193 1.30181 13.849 1.77349C13.8426 1.81671 13.8373 1.85883 13.8329 1.89937C13.3533 1.84856 12.9126 2.02876 12.6174 2.41576C12.3245 2.79988 12.2105 3.3376 12.2965 3.92992C12.3682 4.42412 12.5762 4.9312 12.903 5.4169C12.7872 5.47007 12.6719 5.52636 12.5572 5.58682C12.2521 4.71887 11.7503 3.92329 11.0735 3.25446C9.89436 2.08913 8.32668 1.44734 6.65914 1.44734C4.9916 1.44734 3.42392 2.08913 2.24476 3.25446C1.0657 4.4198 0.416319 5.96917 0.416319 7.61723C0.416319 9.26529 1.0657 10.8147 2.24481 11.98C3.42397 13.1453 4.99165 13.7871 6.65919 13.7871C6.95912 13.7871 7.25579 13.766 7.5476 13.7252C7.53973 13.8722 7.53555 14.0179 7.53555 14.1612C7.53555 14.3226 7.54119 14.4834 7.55135 14.6421L5.85003 15.4634C5.76159 15.5057 5.6746 15.5544 5.59267 15.6075C4.95258 16.0181 4.5539 16.7052 4.50832 17.4486L4.06436 17.5702C4.0178 17.4576 3.97091 17.3449 3.92343 17.2319C3.86069 17.0827 3.70461 16.9929 3.54278 17.0126C2.41095 17.1489 1.34575 17.5209 0.376763 18.1182C0.238024 18.2037 0.173878 18.3701 0.219849 18.5252C0.82724 20.572 1.55485 22.6067 2.38243 24.5728C2.43948 24.7083 2.57312 24.7947 2.71876 24.7946C2.73343 24.7946 2.7482 24.7938 2.76303 24.792C3.89612 24.6555 4.96123 24.2834 5.9288 23.6863C6.0674 23.6007 6.13145 23.4345 6.08552 23.2795C6.0657 23.2126 6.04529 23.1457 6.02522 23.0787L7.3437 22.5967L15.7041 23.6024C15.8165 23.6159 15.929 23.6227 16.0414 23.6227C16.6794 23.6227 17.3089 23.4073 17.8089 23.0105L24.066 18.05C24.0699 18.0471 24.0738 18.0441 24.0777 18.0411C24.6738 17.5683 24.9286 16.7922 24.7267 16.063ZM13.1995 2.84935C13.3899 2.59966 13.6876 2.54375 14.038 2.69197C14.1548 2.74139 14.2891 2.72712 14.3926 2.65441C14.4961 2.5817 14.5539 2.46095 14.545 2.33575C14.5445 2.32792 14.5001 1.54137 14.8722 1.14707C15.013 0.997798 15.2013 0.925277 15.4478 0.925277C15.6937 0.925277 15.8815 0.997366 16.0221 1.14563C16.3339 1.47437 16.3649 2.11684 16.3507 2.33575C16.3418 2.46095 16.3995 2.5817 16.5031 2.65441C16.6066 2.72717 16.7409 2.74139 16.8577 2.69197C17.2082 2.54375 17.506 2.59961 17.6964 2.84935C18.0317 3.28914 17.988 4.1982 17.2973 5.14449C16.6917 4.947 16.0714 4.8448 15.4478 4.8448C14.8231 4.8448 14.2047 4.94537 13.5979 5.14391C12.9077 4.19787 12.8642 3.28909 13.1995 2.84935ZM2.76026 11.4706C1.71877 10.4413 1.14525 9.0728 1.14525 7.61723C1.14525 6.16166 1.71881 4.79312 2.76026 3.76384C3.8017 2.73457 5.18637 2.16775 6.65914 2.16775C8.13191 2.16775 9.51663 2.73457 10.558 3.76384C11.2485 4.44627 11.733 5.27786 11.9813 6.185C11.985 6.20671 11.9906 6.22828 11.9985 6.24941C12.1134 6.69078 12.1729 7.14944 12.1729 7.61718C12.1729 9.0728 11.5994 10.4413 10.558 11.4705C9.51658 12.4998 8.13191 13.0666 6.65914 13.0666C5.18637 13.0666 3.8017 12.4998 2.76026 11.4706ZM23.6312 17.4713C23.6278 17.4739 23.6243 17.4765 23.621 17.4791L17.3526 22.4486C16.9167 22.7945 16.3482 22.9545 15.7923 22.8873L7.34404 21.871C7.28631 21.8641 7.22795 21.8709 7.17357 21.8908L5.81315 22.3881C5.564 21.595 5.29639 20.802 5.01366 20.0209C4.94582 19.8336 4.73725 19.7362 4.54773 19.8031C4.35821 19.8701 4.25951 20.0763 4.32735 20.2636C4.67947 21.2365 5.00832 22.228 5.30616 23.2151C4.57315 23.6297 3.78216 23.906 2.94788 24.0388C2.21045 22.2627 1.55583 20.4321 0.999315 18.5897C1.7333 18.1749 2.52438 17.8986 3.35783 17.7659C3.40837 17.8877 3.45808 18.0091 3.50741 18.1301C3.50877 18.1336 3.51018 18.1371 3.51163 18.1405C3.61884 18.404 3.72317 18.6652 3.82303 18.9217C3.89534 19.1073 4.10629 19.2 4.29406 19.1284C4.48193 19.0569 4.57558 18.8485 4.50327 18.6628C4.44928 18.5242 4.39373 18.3839 4.33751 18.243L4.96997 18.0698C5.13641 18.0242 5.2476 17.8695 5.23637 17.6993C5.19716 17.1049 5.48581 16.5349 5.99076 16.2109C6.04777 16.174 6.10725 16.1407 6.16872 16.1113L11.6546 13.4631C11.7344 13.4246 11.8172 13.3937 11.9016 13.371C12.534 13.1998 13.1943 13.4785 13.5074 14.0488C13.8677 14.7051 13.6422 15.5199 12.9941 15.9037L9.98261 17.6879C9.85199 17.7653 9.78385 17.9148 9.81165 18.0627C9.8395 18.2106 9.95749 18.3259 10.1075 18.3517L15.1756 19.2239C15.8783 19.3445 16.5949 19.1995 17.1936 18.8157L22.2341 15.5819C22.4393 15.4501 22.6692 15.3889 22.8958 15.3915C22.8959 15.3915 22.896 15.3916 22.8962 15.3916C22.9116 15.3935 22.9269 15.3944 22.9421 15.3944C22.9489 15.3944 22.9556 15.3939 22.9623 15.3935C23.2877 15.4156 23.6006 15.5712 23.8168 15.847C23.913 15.97 23.9828 16.1071 24.0238 16.2539C24.1477 16.7013 23.9937 17.1777 23.6312 17.4713Z"/>
</mask>
<path d="M24.7267 16.063C24.66 15.8247 24.5479 15.6038 24.3932 15.4061C24.1213 15.0593 23.7447 14.8308 23.3376 14.7321C23.352 14.5445 23.3601 14.3539 23.3601 14.1612C23.3601 12.4082 22.7863 10.5285 21.7445 8.86844C21.6384 8.69934 21.4136 8.64737 21.2427 8.75222C21.0716 8.85706 21.019 9.07914 21.125 9.2482C22.0822 10.7734 22.6312 12.5641 22.6312 14.1613C22.6312 14.3415 22.6234 14.5196 22.6096 14.6943C22.3405 14.731 22.0765 14.8242 21.8371 14.9779L16.7969 18.2115C16.3528 18.4961 15.8216 18.6037 15.3005 18.5142L11.1975 17.8081L13.3688 16.5217C14.3529 15.9389 14.6952 14.7019 14.1481 13.7053C13.6726 12.8393 12.6695 12.416 11.7097 12.6761C11.5819 12.7104 11.4557 12.7574 11.3347 12.8158L8.26608 14.2971C8.26521 14.2518 8.26443 14.2066 8.26443 14.1612C8.26443 13.97 8.2726 13.7739 8.28795 13.5758C9.33177 13.2988 10.2888 12.7555 11.0735 11.9799C12.2526 10.8146 12.9019 9.26525 12.9019 7.61718C12.9019 7.16865 12.8534 6.72752 12.7597 6.29936C13.6312 5.81246 14.5343 5.56516 15.4478 5.56516C17.1827 5.56516 18.9067 6.47278 20.3024 8.12089C20.3745 8.206 20.4779 8.24994 20.5821 8.24994C20.6646 8.24994 20.7476 8.22238 20.8158 8.16594C20.9702 8.03829 20.9906 7.81107 20.8614 7.65853C20.0048 6.64703 19.0282 5.88925 17.9931 5.41632C18.3196 4.93081 18.5275 4.42393 18.5993 3.92997C18.6853 3.33765 18.5714 2.79993 18.2785 2.41581C17.9834 2.02866 17.5421 1.84856 17.0628 1.89942C17.0584 1.85883 17.0531 1.81676 17.0466 1.77349C16.9763 1.30181 16.8113 0.925757 16.5565 0.65565C16.2782 0.360762 15.8948 0.204865 15.4478 0.204865C15.0008 0.204865 14.6174 0.360762 14.3391 0.65565C14.0843 0.925709 13.9193 1.30181 13.849 1.77349C13.8426 1.81671 13.8373 1.85883 13.8329 1.89937C13.3533 1.84856 12.9126 2.02876 12.6174 2.41576C12.3245 2.79988 12.2105 3.3376 12.2965 3.92992C12.3682 4.42412 12.5762 4.9312 12.903 5.4169C12.7872 5.47007 12.6719 5.52636 12.5572 5.58682C12.2521 4.71887 11.7503 3.92329 11.0735 3.25446C9.89436 2.08913 8.32668 1.44734 6.65914 1.44734C4.9916 1.44734 3.42392 2.08913 2.24476 3.25446C1.0657 4.4198 0.416319 5.96917 0.416319 7.61723C0.416319 9.26529 1.0657 10.8147 2.24481 11.98C3.42397 13.1453 4.99165 13.7871 6.65919 13.7871C6.95912 13.7871 7.25579 13.766 7.5476 13.7252C7.53973 13.8722 7.53555 14.0179 7.53555 14.1612C7.53555 14.3226 7.54119 14.4834 7.55135 14.6421L5.85003 15.4634C5.76159 15.5057 5.6746 15.5544 5.59267 15.6075C4.95258 16.0181 4.5539 16.7052 4.50832 17.4486L4.06436 17.5702C4.0178 17.4576 3.97091 17.3449 3.92343 17.2319C3.86069 17.0827 3.70461 16.9929 3.54278 17.0126C2.41095 17.1489 1.34575 17.5209 0.376763 18.1182C0.238024 18.2037 0.173878 18.3701 0.219849 18.5252C0.82724 20.572 1.55485 22.6067 2.38243 24.5728C2.43948 24.7083 2.57312 24.7947 2.71876 24.7946C2.73343 24.7946 2.7482 24.7938 2.76303 24.792C3.89612 24.6555 4.96123 24.2834 5.9288 23.6863C6.0674 23.6007 6.13145 23.4345 6.08552 23.2795C6.0657 23.2126 6.04529 23.1457 6.02522 23.0787L7.3437 22.5967L15.7041 23.6024C15.8165 23.6159 15.929 23.6227 16.0414 23.6227C16.6794 23.6227 17.3089 23.4073 17.8089 23.0105L24.066 18.05C24.0699 18.0471 24.0738 18.0441 24.0777 18.0411C24.6738 17.5683 24.9286 16.7922 24.7267 16.063ZM13.1995 2.84935C13.3899 2.59966 13.6876 2.54375 14.038 2.69197C14.1548 2.74139 14.2891 2.72712 14.3926 2.65441C14.4961 2.5817 14.5539 2.46095 14.545 2.33575C14.5445 2.32792 14.5001 1.54137 14.8722 1.14707C15.013 0.997798 15.2013 0.925277 15.4478 0.925277C15.6937 0.925277 15.8815 0.997366 16.0221 1.14563C16.3339 1.47437 16.3649 2.11684 16.3507 2.33575C16.3418 2.46095 16.3995 2.5817 16.5031 2.65441C16.6066 2.72717 16.7409 2.74139 16.8577 2.69197C17.2082 2.54375 17.506 2.59961 17.6964 2.84935C18.0317 3.28914 17.988 4.1982 17.2973 5.14449C16.6917 4.947 16.0714 4.8448 15.4478 4.8448C14.8231 4.8448 14.2047 4.94537 13.5979 5.14391C12.9077 4.19787 12.8642 3.28909 13.1995 2.84935ZM2.76026 11.4706C1.71877 10.4413 1.14525 9.0728 1.14525 7.61723C1.14525 6.16166 1.71881 4.79312 2.76026 3.76384C3.8017 2.73457 5.18637 2.16775 6.65914 2.16775C8.13191 2.16775 9.51663 2.73457 10.558 3.76384C11.2485 4.44627 11.733 5.27786 11.9813 6.185C11.985 6.20671 11.9906 6.22828 11.9985 6.24941C12.1134 6.69078 12.1729 7.14944 12.1729 7.61718C12.1729 9.0728 11.5994 10.4413 10.558 11.4705C9.51658 12.4998 8.13191 13.0666 6.65914 13.0666C5.18637 13.0666 3.8017 12.4998 2.76026 11.4706ZM23.6312 17.4713C23.6278 17.4739 23.6243 17.4765 23.621 17.4791L17.3526 22.4486C16.9167 22.7945 16.3482 22.9545 15.7923 22.8873L7.34404 21.871C7.28631 21.8641 7.22795 21.8709 7.17357 21.8908L5.81315 22.3881C5.564 21.595 5.29639 20.802 5.01366 20.0209C4.94582 19.8336 4.73725 19.7362 4.54773 19.8031C4.35821 19.8701 4.25951 20.0763 4.32735 20.2636C4.67947 21.2365 5.00832 22.228 5.30616 23.2151C4.57315 23.6297 3.78216 23.906 2.94788 24.0388C2.21045 22.2627 1.55583 20.4321 0.999315 18.5897C1.7333 18.1749 2.52438 17.8986 3.35783 17.7659C3.40837 17.8877 3.45808 18.0091 3.50741 18.1301C3.50877 18.1336 3.51018 18.1371 3.51163 18.1405C3.61884 18.404 3.72317 18.6652 3.82303 18.9217C3.89534 19.1073 4.10629 19.2 4.29406 19.1284C4.48193 19.0569 4.57558 18.8485 4.50327 18.6628C4.44928 18.5242 4.39373 18.3839 4.33751 18.243L4.96997 18.0698C5.13641 18.0242 5.2476 17.8695 5.23637 17.6993C5.19716 17.1049 5.48581 16.5349 5.99076 16.2109C6.04777 16.174 6.10725 16.1407 6.16872 16.1113L11.6546 13.4631C11.7344 13.4246 11.8172 13.3937 11.9016 13.371C12.534 13.1998 13.1943 13.4785 13.5074 14.0488C13.8677 14.7051 13.6422 15.5199 12.9941 15.9037L9.98261 17.6879C9.85199 17.7653 9.78385 17.9148 9.81165 18.0627C9.8395 18.2106 9.95749 18.3259 10.1075 18.3517L15.1756 19.2239C15.8783 19.3445 16.5949 19.1995 17.1936 18.8157L22.2341 15.5819C22.4393 15.4501 22.6692 15.3889 22.8958 15.3915C22.8959 15.3915 22.896 15.3916 22.8962 15.3916C22.9116 15.3935 22.9269 15.3944 22.9421 15.3944C22.9489 15.3944 22.9556 15.3939 22.9623 15.3935C23.2877 15.4156 23.6006 15.5712 23.8168 15.847C23.913 15.97 23.9828 16.1071 24.0238 16.2539C24.1477 16.7013 23.9937 17.1777 23.6312 17.4713Z" fill="#F0792E"/>
<path d="M24.7267 16.063C24.66 15.8247 24.5479 15.6038 24.3932 15.4061C24.1213 15.0593 23.7447 14.8308 23.3376 14.7321C23.352 14.5445 23.3601 14.3539 23.3601 14.1612C23.3601 12.4082 22.7863 10.5285 21.7445 8.86844C21.6384 8.69934 21.4136 8.64737 21.2427 8.75222C21.0716 8.85706 21.019 9.07914 21.125 9.2482C22.0822 10.7734 22.6312 12.5641 22.6312 14.1613C22.6312 14.3415 22.6234 14.5196 22.6096 14.6943C22.3405 14.731 22.0765 14.8242 21.8371 14.9779L16.7969 18.2115C16.3528 18.4961 15.8216 18.6037 15.3005 18.5142L11.1975 17.8081L13.3688 16.5217C14.3529 15.9389 14.6952 14.7019 14.1481 13.7053C13.6726 12.8393 12.6695 12.416 11.7097 12.6761C11.5819 12.7104 11.4557 12.7574 11.3347 12.8158L8.26608 14.2971C8.26521 14.2518 8.26443 14.2066 8.26443 14.1612C8.26443 13.97 8.2726 13.7739 8.28795 13.5758C9.33177 13.2988 10.2888 12.7555 11.0735 11.9799C12.2526 10.8146 12.9019 9.26525 12.9019 7.61718C12.9019 7.16865 12.8534 6.72752 12.7597 6.29936C13.6312 5.81246 14.5343 5.56516 15.4478 5.56516C17.1827 5.56516 18.9067 6.47278 20.3024 8.12089C20.3745 8.206 20.4779 8.24994 20.5821 8.24994C20.6646 8.24994 20.7476 8.22238 20.8158 8.16594C20.9702 8.03829 20.9906 7.81107 20.8614 7.65853C20.0048 6.64703 19.0282 5.88925 17.9931 5.41632C18.3196 4.93081 18.5275 4.42393 18.5993 3.92997C18.6853 3.33765 18.5714 2.79993 18.2785 2.41581C17.9834 2.02866 17.5421 1.84856 17.0628 1.89942C17.0584 1.85883 17.0531 1.81676 17.0466 1.77349C16.9763 1.30181 16.8113 0.925757 16.5565 0.65565C16.2782 0.360762 15.8948 0.204865 15.4478 0.204865C15.0008 0.204865 14.6174 0.360762 14.3391 0.65565C14.0843 0.925709 13.9193 1.30181 13.849 1.77349C13.8426 1.81671 13.8373 1.85883 13.8329 1.89937C13.3533 1.84856 12.9126 2.02876 12.6174 2.41576C12.3245 2.79988 12.2105 3.3376 12.2965 3.92992C12.3682 4.42412 12.5762 4.9312 12.903 5.4169C12.7872 5.47007 12.6719 5.52636 12.5572 5.58682C12.2521 4.71887 11.7503 3.92329 11.0735 3.25446C9.89436 2.08913 8.32668 1.44734 6.65914 1.44734C4.9916 1.44734 3.42392 2.08913 2.24476 3.25446C1.0657 4.4198 0.416319 5.96917 0.416319 7.61723C0.416319 9.26529 1.0657 10.8147 2.24481 11.98C3.42397 13.1453 4.99165 13.7871 6.65919 13.7871C6.95912 13.7871 7.25579 13.766 7.5476 13.7252C7.53973 13.8722 7.53555 14.0179 7.53555 14.1612C7.53555 14.3226 7.54119 14.4834 7.55135 14.6421L5.85003 15.4634C5.76159 15.5057 5.6746 15.5544 5.59267 15.6075C4.95258 16.0181 4.5539 16.7052 4.50832 17.4486L4.06436 17.5702C4.0178 17.4576 3.97091 17.3449 3.92343 17.2319C3.86069 17.0827 3.70461 16.9929 3.54278 17.0126C2.41095 17.1489 1.34575 17.5209 0.376763 18.1182C0.238024 18.2037 0.173878 18.3701 0.219849 18.5252C0.82724 20.572 1.55485 22.6067 2.38243 24.5728C2.43948 24.7083 2.57312 24.7947 2.71876 24.7946C2.73343 24.7946 2.7482 24.7938 2.76303 24.792C3.89612 24.6555 4.96123 24.2834 5.9288 23.6863C6.0674 23.6007 6.13145 23.4345 6.08552 23.2795C6.0657 23.2126 6.04529 23.1457 6.02522 23.0787L7.3437 22.5967L15.7041 23.6024C15.8165 23.6159 15.929 23.6227 16.0414 23.6227C16.6794 23.6227 17.3089 23.4073 17.8089 23.0105L24.066 18.05C24.0699 18.0471 24.0738 18.0441 24.0777 18.0411C24.6738 17.5683 24.9286 16.7922 24.7267 16.063ZM13.1995 2.84935C13.3899 2.59966 13.6876 2.54375 14.038 2.69197C14.1548 2.74139 14.2891 2.72712 14.3926 2.65441C14.4961 2.5817 14.5539 2.46095 14.545 2.33575C14.5445 2.32792 14.5001 1.54137 14.8722 1.14707C15.013 0.997798 15.2013 0.925277 15.4478 0.925277C15.6937 0.925277 15.8815 0.997366 16.0221 1.14563C16.3339 1.47437 16.3649 2.11684 16.3507 2.33575C16.3418 2.46095 16.3995 2.5817 16.5031 2.65441C16.6066 2.72717 16.7409 2.74139 16.8577 2.69197C17.2082 2.54375 17.506 2.59961 17.6964 2.84935C18.0317 3.28914 17.988 4.1982 17.2973 5.14449C16.6917 4.947 16.0714 4.8448 15.4478 4.8448C14.8231 4.8448 14.2047 4.94537 13.5979 5.14391C12.9077 4.19787 12.8642 3.28909 13.1995 2.84935ZM2.76026 11.4706C1.71877 10.4413 1.14525 9.0728 1.14525 7.61723C1.14525 6.16166 1.71881 4.79312 2.76026 3.76384C3.8017 2.73457 5.18637 2.16775 6.65914 2.16775C8.13191 2.16775 9.51663 2.73457 10.558 3.76384C11.2485 4.44627 11.733 5.27786 11.9813 6.185C11.985 6.20671 11.9906 6.22828 11.9985 6.24941C12.1134 6.69078 12.1729 7.14944 12.1729 7.61718C12.1729 9.0728 11.5994 10.4413 10.558 11.4705C9.51658 12.4998 8.13191 13.0666 6.65914 13.0666C5.18637 13.0666 3.8017 12.4998 2.76026 11.4706ZM23.6312 17.4713C23.6278 17.4739 23.6243 17.4765 23.621 17.4791L17.3526 22.4486C16.9167 22.7945 16.3482 22.9545 15.7923 22.8873L7.34404 21.871C7.28631 21.8641 7.22795 21.8709 7.17357 21.8908L5.81315 22.3881C5.564 21.595 5.29639 20.802 5.01366 20.0209C4.94582 19.8336 4.73725 19.7362 4.54773 19.8031C4.35821 19.8701 4.25951 20.0763 4.32735 20.2636C4.67947 21.2365 5.00832 22.228 5.30616 23.2151C4.57315 23.6297 3.78216 23.906 2.94788 24.0388C2.21045 22.2627 1.55583 20.4321 0.999315 18.5897C1.7333 18.1749 2.52438 17.8986 3.35783 17.7659C3.40837 17.8877 3.45808 18.0091 3.50741 18.1301C3.50877 18.1336 3.51018 18.1371 3.51163 18.1405C3.61884 18.404 3.72317 18.6652 3.82303 18.9217C3.89534 19.1073 4.10629 19.2 4.29406 19.1284C4.48193 19.0569 4.57558 18.8485 4.50327 18.6628C4.44928 18.5242 4.39373 18.3839 4.33751 18.243L4.96997 18.0698C5.13641 18.0242 5.2476 17.8695 5.23637 17.6993C5.19716 17.1049 5.48581 16.5349 5.99076 16.2109C6.04777 16.174 6.10725 16.1407 6.16872 16.1113L11.6546 13.4631C11.7344 13.4246 11.8172 13.3937 11.9016 13.371C12.534 13.1998 13.1943 13.4785 13.5074 14.0488C13.8677 14.7051 13.6422 15.5199 12.9941 15.9037L9.98261 17.6879C9.85199 17.7653 9.78385 17.9148 9.81165 18.0627C9.8395 18.2106 9.95749 18.3259 10.1075 18.3517L15.1756 19.2239C15.8783 19.3445 16.5949 19.1995 17.1936 18.8157L22.2341 15.5819C22.4393 15.4501 22.6692 15.3889 22.8958 15.3915C22.8959 15.3915 22.896 15.3916 22.8962 15.3916C22.9116 15.3935 22.9269 15.3944 22.9421 15.3944C22.9489 15.3944 22.9556 15.3939 22.9623 15.3935C23.2877 15.4156 23.6006 15.5712 23.8168 15.847C23.913 15.97 23.9828 16.1071 24.0238 16.2539C24.1477 16.7013 23.9937 17.1777 23.6312 17.4713Z" stroke="#F0792E" stroke-width="0.4" mask="url(#path-2-outside-1_7_73268)"/>
<path d="M4.18186 22.543L4.18194 22.5432C4.2697 22.7493 4.18975 22.9947 3.9999 23.1122L3.99989 23.1122C3.65031 23.3286 3.18552 23.0057 3.30159 22.597L4.18186 22.543ZM4.18186 22.543C4.104 22.3613 3.91688 22.2454 3.71683 22.2598L3.71682 22.2598M4.18186 22.543L3.71682 22.2598M3.71682 22.2598C3.52133 22.2739 3.35453 22.4105 3.3016 22.597L3.71682 22.2598Z" fill="#F0792E" stroke="#F0792E" stroke-width="0.2"/>
<path d="M19.2798 10.2438C19.507 10.2438 19.6912 10.0608 19.6912 9.83492C19.6912 9.60923 19.507 9.42603 19.2798 9.42603H16.0216C15.7943 9.42603 15.6102 9.60923 15.6102 9.83492C15.6102 10.0608 15.7943 10.2438 16.0216 10.2438H16.9554C17.3416 10.2432 17.6924 10.4671 17.8523 10.8163H16.0256C15.7985 10.8163 15.6142 10.9995 15.6142 11.2252C15.6142 11.451 15.7985 11.634 16.0256 11.634H17.8523C17.6909 11.9822 17.3409 12.2055 16.9554 12.2065H16.0216C15.8528 12.2067 15.7011 12.309 15.6386 12.4648C15.5761 12.6205 15.6153 12.7984 15.7376 12.9139L18.0662 15.1015C18.1432 15.173 18.2447 15.2125 18.35 15.2119C18.4631 15.2112 18.5713 15.1655 18.6503 15.0852C18.7252 15.0066 18.7656 14.9017 18.7625 14.7935C18.7594 14.6854 18.7132 14.5829 18.6339 14.5086L17.0541 13.0243C17.8555 12.9783 18.5314 12.4146 18.7162 11.6382H19.2798C19.507 11.6382 19.6912 11.4552 19.6912 11.2293C19.6912 11.0035 19.507 10.8204 19.2798 10.8204H18.7162C18.6683 10.6168 18.5848 10.4229 18.4694 10.248H19.2798V10.2438Z" fill="#F0792E"/>
<path d="M9.13111 5.32773L10.4511 6.51409L5.61126 10.8641L4.29131 9.6777L9.13111 5.32773Z" fill="#F0792E"/>
<path d="M3.56049 6.73402L6.9352 9.76718L5.62886 10.9413L2.25416 7.90815L3.56049 6.73402Z" fill="#F0792E"/>
</svg>
