<svg width="2" height="3" viewBox="0 0 2 3" fill="none" xmlns="http://www.w3.org/2000/svg">
<path d="M1.79844 0.395761C1.90977 0.395761 2.00001 0.307178 2.00001 0.19788C2.00001 0.0886596 1.90977 0 1.79844 0H0.202026C0.0906908 0 0.000457159 0.0886596 0.000457159 0.19788C0.000457159 0.307178 0.0906908 0.395761 0.202026 0.395761H0.659572C0.84878 0.395451 1.02066 0.503822 1.09901 0.672793H0.203995C0.092738 0.672793 0.00242561 0.761453 0.00242561 0.870673C0.00242561 0.979971 0.092738 1.06855 0.203995 1.06855H1.09901C1.01996 1.23706 0.848465 1.34512 0.659572 1.34559H0.202026C0.119351 1.34566 0.0450228 1.39521 0.0143938 1.47058C-0.0162353 1.54594 0.00297678 1.63205 0.0628963 1.68793L1.20381 2.74659C1.24152 2.78122 1.29129 2.80032 1.34286 2.80001C1.39829 2.7997 1.45128 2.77759 1.49002 2.73871C1.52671 2.70068 1.54648 2.6499 1.54498 2.59757C1.54348 2.54524 1.52081 2.49561 1.48199 2.45967L0.707918 1.74135C1.10058 1.71909 1.43176 1.4463 1.5223 1.07056H1.79844C1.90977 1.07056 2.00001 0.981981 2.00001 0.872683C2.00001 0.763385 1.90977 0.674803 1.79844 0.674803H1.5223C1.49884 0.576249 1.4579 0.48241 1.40136 0.39777H1.79844V0.395761Z" fill="#20446C"/>
</svg>
