<svg width="57" height="34" viewBox="0 0 57 34" fill="none" xmlns="http://www.w3.org/2000/svg">
<path d="M56.0633 33.0286C56.0596 33.2888 55.9532 33.5369 55.7673 33.7189C55.5814 33.9009 55.331 34.0019 55.0709 33.9999H1.43771C1.17771 34.0019 0.927479 33.9008 0.741725 33.7188C0.555971 33.5368 0.449796 33.2887 0.446408 33.0286L0 2.82925C0 2.2938 0.642316 1.25182 1.81989 1.32999L54.2316 0.00100996C54.5689 -0.00853571 54.9047 0.0496656 55.2191 0.172168C55.5336 0.29467 55.8203 0.478985 56.0622 0.714225C56.3012 0.94632 56.4897 1.22521 56.6161 1.53347C56.7424 1.84173 56.8039 2.17275 56.7966 2.50584L56.0633 33.0286Z" fill="#20446C"/>
</svg>
