<svg width="4" height="3" viewBox="0 0 4 3" fill="none" xmlns="http://www.w3.org/2000/svg">
<path opacity="0.8" d="M2.66783 2.99996H0.582216C0.4277 2.99966 0.279615 2.93806 0.170461 2.82866C0.0613066 2.71925 -2.87929e-07 2.57099 0 2.41642V0.58355C-2.87929e-07 0.42898 0.0613066 0.280721 0.170461 0.171318C0.279615 0.0619143 0.4277 0.000298399 0.582216 0H2.66896C2.82347 0.000298399 2.97156 0.0619143 3.08071 0.171318C3.18987 0.280721 3.25117 0.42898 3.25117 0.58355V2.41981C3.25028 2.57398 3.18842 2.72154 3.07912 2.83025C2.96982 2.93896 2.82196 2.99996 2.66783 2.99996ZM0.582216 0.496805C0.56031 0.497101 0.539401 0.506011 0.524016 0.521613C0.50863 0.537215 0.500005 0.558252 0.500007 0.580167V2.41642C0.500005 2.43834 0.50863 2.45938 0.524016 2.47498C0.539401 2.49058 0.56031 2.49949 0.582216 2.49978H2.66896C2.69086 2.49949 2.71177 2.49058 2.72716 2.47498C2.74254 2.45938 2.75117 2.43834 2.75117 2.41642V0.58355C2.75117 0.561635 2.74254 0.540598 2.72716 0.524996C2.71177 0.509394 2.69086 0.500484 2.66896 0.500188L0.582216 0.496805Z" fill="white"/>
</svg>
