<svg width="25" height="24" viewBox="0 0 25 24" fill="none" xmlns="http://www.w3.org/2000/svg">
<path d="M8.48313 19.3847H2.53848C1.13816 19.3847 0 18.2466 0 16.8463V2.53848C0 1.13816 1.13816 0 2.53848 0H13.1539C14.5543 0 15.6924 1.13816 15.6924 2.53848V8.16005H14.3078V2.53848C14.3078 1.90247 13.7899 1.38462 13.1539 1.38462H2.53848C1.90247 1.38462 1.38462 1.90247 1.38462 2.53848V16.8463C1.38462 17.4823 1.90247 18.0001 2.53848 18.0001H8.48313V19.3847Z" fill="#F0792E"/>
<path d="M3.46191 7.38477H12.2312V8.76939H3.46191V7.38477Z" fill="#F0792E"/>
<path d="M3.46191 11.0771H8.53887V12.4618H3.46191V11.0771Z" fill="#F0792E"/>
<circle cx="15.2305" cy="14.3076" r="9.69237" fill="#FEEEE4"/>
<path d="M14.8462 22.0538C10.5752 22.0538 7.1 18.5787 7.1 14.3076C7.1 10.0366 10.5752 6.56143 14.8462 6.56143C19.1172 6.56143 22.5924 10.0366 22.5924 14.3076C22.5924 18.5787 19.1172 22.0538 14.8462 22.0538ZM14.8462 8.17209C11.463 8.17209 8.71066 10.9244 8.71066 14.3076C8.71066 17.6909 11.463 20.4432 14.8462 20.4432C18.2294 20.4432 20.9817 17.6909 20.9817 14.3076C20.9817 10.9244 18.2294 8.17209 14.8462 8.17209Z" fill="#F0792E" stroke="#FEEEE4" stroke-width="0.2"/>
<path d="M3.46191 3.69238H7.61579V5.07701H3.46191V3.69238Z" fill="#F0792E"/>
<path d="M18.1333 12L19.5025 13.3692L14.482 18.3898L13.1128 17.0205L18.1333 12Z" fill="#F0792E"/>
<path d="M12.355 13.623L15.8557 17.1238L14.5006 18.4789L10.9999 14.9782L12.355 13.623Z" fill="#F0792E"/>
</svg>
