<svg width="28" height="28" viewBox="0 0 28 28" fill="none" xmlns="http://www.w3.org/2000/svg">
<path d="M14.8789 15.6991C19.2072 15.6991 22.7284 12.1778 22.7284 7.84956C22.7284 3.52132 19.2072 0 14.8789 0C10.5506 0 7.0293 3.52132 7.0293 7.84956C7.0293 12.1778 10.5506 15.6991 14.8789 15.6991ZM14.8789 1.64065C18.3025 1.64065 21.0878 4.42597 21.0878 7.84956C21.0878 11.2732 18.3025 14.0585 14.8789 14.0585C11.4553 14.0585 8.67 11.2732 8.67 7.84956C8.67 4.42597 11.4553 1.64065 14.8789 1.64065Z" fill="#F0792E"/>
<path d="M19.8722 18.0076L18.7651 19.1148C18.3656 18.2076 17.4579 17.5727 16.4047 17.5727H10.6622C8.42565 17.5727 7.50065 19.3935 7.30323 20.2087H6.03392V19.2717C6.03392 18.8186 5.66663 18.4513 5.21359 18.4513H0.820323C0.367286 18.4513 0 18.8186 0 19.2717V27.1796C0 27.6326 0.367286 27.9999 0.820323 27.9999H5.21359C5.66663 27.9999 6.03392 27.6326 6.03392 27.1796V26.2426H17.3458C18.3659 26.2426 19.3252 25.8452 20.0471 25.1236L26.0028 19.1677C26.3231 18.8474 26.3229 18.3276 26.0028 18.0076C24.3126 16.3174 21.5625 16.3174 19.8722 18.0076ZM4.39332 26.3592H1.64065V20.092H4.39327V26.3592H4.39332ZM18.8871 23.9634C18.4752 24.3752 17.9278 24.6019 17.3458 24.6019H6.03397V21.8493H8.02626C8.4793 21.8493 8.84659 21.482 8.84659 21.0289C8.84659 20.0255 9.658 19.2133 10.6622 19.2133H16.4047C16.9214 19.2133 17.3417 19.6336 17.3417 20.1503C17.3417 20.9167 16.6347 21.0834 16.421 21.0871C16.4205 21.0871 16.42 21.0871 16.4198 21.0871C16.4148 21.0872 16.4097 21.0872 16.4047 21.0872H13.4048C12.9518 21.0872 12.5845 21.4545 12.5845 21.9076C12.5845 22.3606 12.9518 22.7279 13.4048 22.7279H16.405C17.0928 22.7279 17.7398 22.46 18.2273 21.973L21.0324 19.1676C21.8807 18.3194 23.1587 18.156 24.1724 18.6778L18.8871 23.9634Z" fill="#F0792E"/>
<path d="M25.7889 5.06838L27.5463 4.1897C27.9515 3.98714 28.1157 3.4944 27.9131 3.08916C27.7105 2.68392 27.2179 2.51969 26.8126 2.72226L25.0552 3.60093C24.65 3.8035 24.4857 4.29624 24.6884 4.70148C24.8917 5.10825 25.3853 5.27007 25.7889 5.06838Z" fill="#F0792E"/>
<path d="M27.5463 11.5091L25.7889 10.6304C25.3839 10.428 24.891 10.5921 24.6884 10.9973C24.4857 11.4025 24.65 11.8953 25.0552 12.0978L26.8126 12.9765C27.2173 13.1787 27.7102 13.0153 27.9131 12.6096C28.1157 12.2044 27.9515 11.7116 27.5463 11.5091Z" fill="#F0792E"/>
<path d="M2.21145 4.1897L3.96881 5.06838C4.37246 5.27013 4.86597 5.1083 5.06935 4.70148C5.27197 4.29624 5.10774 3.8035 4.7025 3.60093L2.94515 2.72226C2.53986 2.51969 2.04723 2.68392 1.84461 3.08916C1.64199 3.4944 1.80621 3.98714 2.21145 4.1897Z" fill="#F0792E"/>
<path d="M2.94515 12.9765L4.7025 12.0978C5.10774 11.8953 5.27197 11.4025 5.06935 10.9973C4.86673 10.5921 4.37383 10.428 3.96881 10.6304L2.21145 11.5091C1.80621 11.7116 1.64199 12.2044 1.84461 12.6096C2.0475 13.0154 2.54046 13.1788 2.94515 12.9765Z" fill="#F0792E"/>
<path d="M17.2266 5.75922C17.5263 5.75922 17.7693 5.5548 17.7693 5.30258C17.7693 5.05054 17.5263 4.84595 17.2266 4.84595H12.9287C12.6289 4.84595 12.386 5.05054 12.386 5.30258C12.386 5.5548 12.6289 5.75922 12.9287 5.75922H14.1605C14.6699 5.7585 15.1326 6.00858 15.3436 6.3985H12.934C12.6344 6.3985 12.3913 6.6031 12.3913 6.85514C12.3913 7.10736 12.6344 7.31177 12.934 7.31177H15.3436C15.1307 7.70063 14.669 7.94999 14.1605 7.95106H12.9287C12.7061 7.95124 12.506 8.06558 12.4235 8.23949C12.3411 8.4134 12.3928 8.61211 12.5541 8.74107L15.6257 11.1841C15.7272 11.264 15.8612 11.308 16.0001 11.3073C16.1493 11.3066 16.292 11.2556 16.3963 11.1659C16.495 11.0781 16.5482 10.9609 16.5442 10.8402C16.5402 10.7194 16.4791 10.6049 16.3746 10.5219L14.2906 8.86433C15.3478 8.81296 16.2394 8.18348 16.4832 7.31641H17.2266C17.5263 7.31641 17.7693 7.11199 17.7693 6.85978C17.7693 6.60756 17.5263 6.40314 17.2266 6.40314H16.4832C16.42 6.17572 16.3098 5.95917 16.1576 5.76385H17.2266V5.75922Z" fill="#F0792E"/>
</svg>
