<svg width="4" height="1" viewBox="0 0 4 1" fill="none" xmlns="http://www.w3.org/2000/svg">
<path d="M0.266939 0.534061H3.73378C3.76883 0.534061 3.80353 0.527155 3.83592 0.513736C3.8683 0.500316 3.89774 0.480646 3.92252 0.45585C3.94731 0.431054 3.96697 0.401615 3.98039 0.369217C3.9938 0.33682 4.0007 0.302101 4.0007 0.267034C4.0007 0.231967 3.9938 0.197241 3.98039 0.164844C3.96697 0.132446 3.94731 0.103008 3.92252 0.0782114C3.89774 0.0534153 3.8683 0.0337449 3.83592 0.0203253C3.80353 0.00690576 3.76883 -8.36061e-09 3.73378 0H0.266939C0.196143 1.68851e-08 0.128251 0.0281334 0.0781903 0.0782114C0.0281301 0.128289 0 0.196213 0 0.267034C0 0.337855 0.0281301 0.405772 0.0781903 0.45585C0.128251 0.505928 0.196143 0.534061 0.266939 0.534061Z" fill="#90B9E7"/>
</svg>
