<svg width="131" height="126" viewBox="0 0 131 126" fill="none" xmlns="http://www.w3.org/2000/svg">
<path d="M14.2278 39.0084C14.2278 39.0084 6.30042 59.3644 17.4408 79.8617C28.5812 100.359 51.5273 111.187 69.8927 120.446C88.2582 129.706 107.329 125.196 116.391 110.031C125.452 94.8658 113.024 84.0404 113.007 62.4149C112.99 40.7895 116.263 35.0644 104.477 16.7949C92.691 -1.47458 63.7994 -5.52033 41.9508 8.03054C20.1022 21.5814 14.2278 39.0084 14.2278 39.0084Z" fill="white"/>
<path d="M61.7658 1.867C97.0238 -1.24294 97.0949 18.5278 112.987 36.9613C128.878 55.3948 132.276 63.7492 126.277 84.9986C120.277 106.248 100.117 122.903 75.1354 113.466C50.1534 104.029 35.8569 113.09 20.1074 104.701C4.35785 96.3131 -1.50237 80.1301 10.0361 61.0464C21.5745 41.9626 18.2791 5.71767 61.7658 1.867Z" fill="white"/>
<path d="M85.2393 10.2937L29.8237 16.4606L38.349 93.0688L93.7646 86.9019L85.2393 10.2937Z" fill="white" stroke="#434B53" stroke-width="0.346552" stroke-linecap="round" stroke-linejoin="round"/>
<path d="M85.2393 10.2937L29.8237 16.4606L31.0032 27.0602L86.4189 20.8933L85.2393 10.2937Z" fill="#BFBFBF" stroke="#434B53" stroke-width="0.346552" stroke-linecap="round" stroke-linejoin="round"/>
<path d="M69.8452 15.2121L45.921 17.8584C45.8098 17.8639 45.7009 17.8919 45.601 17.9407C45.5011 17.9894 45.4122 18.0579 45.3398 18.142C45.2674 18.226 45.213 18.3239 45.1799 18.4296C45.1468 18.5352 45.1357 18.6465 45.1473 18.7566C45.1589 18.8666 45.193 18.9732 45.2474 19.0698C45.3018 19.1663 45.3755 19.2508 45.4638 19.3181C45.5522 19.3854 45.6535 19.4341 45.7614 19.4611C45.8693 19.4882 45.9817 19.4931 46.0916 19.4756L70.0158 16.8293C70.2251 16.7978 70.4141 16.687 70.543 16.52C70.6719 16.353 70.7307 16.1429 70.7072 15.9337C70.6836 15.7245 70.5795 15.5325 70.4167 15.3979C70.2539 15.2634 70.045 15.1968 69.8338 15.2121H69.8452Z" fill="white"/>
<path d="M64.2344 19.1927L52.2751 20.5159C52.2217 20.5211 52.1699 20.5369 52.1227 20.5623C52.0755 20.5877 52.0339 20.6223 52.0003 20.6638C51.9667 20.7054 51.9417 20.7533 51.9269 20.8046C51.9121 20.8559 51.9077 20.9096 51.914 20.9626C51.9255 21.0697 51.9792 21.168 52.0634 21.2358C52.1476 21.3037 52.2555 21.3355 52.3633 21.3244L64.3254 20.0013C64.4301 19.9856 64.5245 19.9301 64.589 19.8466C64.6534 19.7632 64.6828 19.6581 64.6711 19.5535C64.6593 19.4489 64.6072 19.3529 64.5258 19.2856C64.4444 19.2184 64.34 19.1851 64.2344 19.1927Z" fill="white"/>
<path opacity="0.3" d="M73.1754 28.3587L41.8271 31.8249C41.7468 31.8339 41.6733 31.8743 41.6229 31.9371C41.5725 31.9999 41.5493 32.0801 41.5584 32.1599C41.5674 32.2398 41.608 32.3128 41.6712 32.3629C41.7344 32.413 41.815 32.4361 41.8953 32.4271L73.2351 28.9609C73.3154 28.9519 73.3888 28.9116 73.4392 28.8488C73.4896 28.7859 73.5129 28.7058 73.5038 28.6259C73.4948 28.5461 73.4542 28.473 73.391 28.4229C73.3278 28.3728 73.2472 28.3497 73.1669 28.3587H73.1754Z" fill="black"/>
<path opacity="0.3" d="M73.4158 30.5215L37.373 34.5079C37.2927 34.5169 37.2193 34.5572 37.1689 34.62C37.1185 34.6829 37.0953 34.763 37.1044 34.8429C37.1134 34.9227 37.154 34.9957 37.2172 35.0459C37.2804 35.096 37.361 35.1191 37.4413 35.1101L73.484 31.1237C73.5251 31.1212 73.5652 31.1105 73.6019 31.0923C73.6387 31.074 73.6713 31.0485 73.6979 31.0173C73.7245 30.9861 73.7444 30.9499 73.7565 30.9109C73.7686 30.8718 73.7727 30.8307 73.7684 30.7901C73.7639 30.749 73.751 30.7093 73.7307 30.6734C73.7103 30.6374 73.6828 30.6059 73.6499 30.5808C73.6169 30.5557 73.5792 30.5375 73.5389 30.5273C73.4987 30.5171 73.4568 30.5151 73.4158 30.5215Z" fill="black"/>
<path opacity="0.3" d="M64.2533 33.7244L37.6165 36.6704C37.5362 36.6794 37.4627 36.7197 37.4123 36.7826C37.3619 36.8454 37.3387 36.9255 37.3478 37.0054C37.3568 37.0853 37.3974 37.1583 37.4606 37.2084C37.5238 37.2585 37.6044 37.2816 37.6847 37.2726L64.3187 34.3266C64.3597 34.3242 64.3998 34.3135 64.4366 34.2952C64.4733 34.2769 64.506 34.2514 64.5326 34.2202C64.5591 34.189 64.5791 34.1528 64.5912 34.1138C64.6033 34.0747 64.6073 34.0336 64.603 33.993C64.5985 33.9522 64.5858 33.9128 64.5656 33.877C64.5454 33.8413 64.5181 33.8099 64.4855 33.7849C64.4529 33.7598 64.4155 33.7415 64.3756 33.7311C64.3357 33.7208 64.2941 33.7185 64.2533 33.7244Z" fill="black"/>
<path opacity="0.3" d="M81.1244 27.21L77.9452 27.5618C77.5176 27.6091 77.2095 27.9922 77.2571 28.4174L77.6109 31.5785C77.6585 32.0037 78.0437 32.31 78.4714 32.2627L81.6506 31.9109C82.0782 31.8636 82.3863 31.4805 82.3387 31.0553L81.9849 27.8942C81.9373 27.469 81.5521 27.1627 81.1244 27.21Z" stroke="#434B53" stroke-width="0.346552" stroke-linecap="round" stroke-linejoin="round"/>
<path d="M78.5097 29.6391L79.5561 30.6201L80.9323 28.5252" stroke="#F0792E" stroke-width="1.03966" stroke-linecap="round" stroke-linejoin="round"/>
<path opacity="0.3" d="M74.3211 38.6046L42.9813 42.0707C42.901 42.0797 42.8276 42.1201 42.7772 42.1829C42.7268 42.2457 42.7036 42.3259 42.7126 42.4058C42.7217 42.4856 42.7622 42.5586 42.8254 42.6087C42.8886 42.6588 42.9692 42.6819 43.0495 42.6729L74.3893 39.2067C74.4291 39.2023 74.4676 39.1901 74.5026 39.1708C74.5377 39.1516 74.5685 39.1257 74.5935 39.0946C74.6184 39.0635 74.637 39.0278 74.648 38.9895C74.6591 38.9513 74.6625 38.9113 74.658 38.8717C74.6536 38.8322 74.6413 38.7939 74.6219 38.7591C74.6026 38.7243 74.5765 38.6936 74.5452 38.6688C74.5139 38.6439 74.478 38.6255 74.4396 38.6145C74.4011 38.6035 74.3609 38.6001 74.3211 38.6046Z" fill="black"/>
<path opacity="0.3" d="M74.5641 40.767L38.5214 44.7534C38.4816 44.7579 38.4431 44.7701 38.4081 44.7893C38.3731 44.8086 38.3422 44.8345 38.3173 44.8656C38.2923 44.8967 38.2738 44.9324 38.2627 44.9706C38.2516 45.0089 38.2482 45.0489 38.2527 45.0884C38.2572 45.128 38.2694 45.1663 38.2888 45.2011C38.3082 45.2359 38.3342 45.2666 38.3655 45.2914C38.3968 45.3162 38.4327 45.3347 38.4712 45.3457C38.5096 45.3567 38.5499 45.3601 38.5896 45.3556L74.6324 41.3692C74.7127 41.3602 74.7861 41.3199 74.8365 41.2571C74.8869 41.1942 74.9101 41.1141 74.9011 41.0342C74.892 40.9543 74.8515 40.8813 74.7883 40.8312C74.7251 40.7811 74.6445 40.758 74.5641 40.767Z" fill="black"/>
<path opacity="0.3" d="M65.3977 43.9705L38.7609 46.9164C38.6806 46.9254 38.6071 46.9658 38.5568 47.0286C38.5064 47.0914 38.4831 47.1716 38.4922 47.2515C38.5012 47.3313 38.5418 47.4043 38.605 47.4544C38.6682 47.5045 38.7488 47.5276 38.8291 47.5186L65.4631 44.5727C65.5041 44.5702 65.5442 44.5595 65.581 44.5412C65.6178 44.523 65.6504 44.4975 65.677 44.4663C65.7035 44.4351 65.7235 44.3989 65.7356 44.3598C65.7477 44.3208 65.7517 44.2797 65.7474 44.2391C65.7429 44.1983 65.7302 44.1589 65.71 44.1231C65.6898 44.0873 65.6626 44.056 65.6299 44.0309C65.5973 44.0059 65.5599 43.9876 65.52 43.9772C65.4801 43.9668 65.4385 43.9645 65.3977 43.9705Z" fill="black"/>
<path opacity="0.3" d="M82.2708 37.4534L79.0916 37.8051C78.664 37.8525 78.3559 38.2355 78.4035 38.6607L78.7573 41.8218C78.8049 42.247 79.1901 42.5534 79.6178 42.5061L82.7969 42.1543C83.2246 42.107 83.5327 41.7239 83.4851 41.2987L83.1313 38.1376C83.0837 37.7124 82.6985 37.406 82.2708 37.4534Z" stroke="#434B53" stroke-width="0.346552" stroke-linecap="round" stroke-linejoin="round"/>
<path d="M79.6581 39.8851L80.7016 40.8662L82.0778 38.7712" stroke="#F0792E" stroke-width="1.03966" stroke-linecap="round" stroke-linejoin="round"/>
<path opacity="0.3" d="M75.4671 48.8503L44.1273 52.3164C44.0521 52.3309 43.9851 52.373 43.9397 52.4343C43.8944 52.4957 43.8739 52.5718 43.8826 52.6475C43.8912 52.7232 43.9282 52.7929 43.9862 52.8426C44.0442 52.8923 44.119 52.9185 44.1955 52.9158L75.5353 49.444C75.5751 49.4395 75.6136 49.4273 75.6486 49.4081C75.6836 49.3888 75.7145 49.3629 75.7394 49.3318C75.7644 49.3007 75.7829 49.265 75.794 49.2268C75.8051 49.1885 75.8085 49.1485 75.804 49.109C75.7995 49.0694 75.7873 49.0311 75.7679 48.9963C75.7485 48.9615 75.7225 48.9308 75.6912 48.906C75.6599 48.8812 75.624 48.8627 75.5855 48.8517C75.5471 48.8407 75.5068 48.8373 75.4671 48.8418V48.8503Z" fill="black"/>
<path opacity="0.3" d="M75.7106 51.0134L39.665 54.9998C39.6251 55.0036 39.5865 55.0154 39.5513 55.0344C39.5161 55.0533 39.4852 55.0792 39.4602 55.1103C39.4353 55.1414 39.4169 55.1772 39.4062 55.2155C39.3954 55.2538 39.3925 55.2939 39.3977 55.3334C39.4019 55.3729 39.414 55.4113 39.4332 55.4462C39.4523 55.4811 39.4782 55.5119 39.5094 55.5369C39.5406 55.5618 39.5764 55.5804 39.6148 55.5916C39.6532 55.6028 39.6934 55.6063 39.7332 55.602L75.7759 51.6156C75.8171 51.6128 75.8573 51.6017 75.894 51.5832C75.9308 51.5646 75.9634 51.5388 75.99 51.5074C76.0165 51.476 76.0364 51.4396 76.0485 51.4004C76.0606 51.3612 76.0646 51.3199 76.0603 51.2792C76.0558 51.2385 76.043 51.1991 76.0228 51.1635C76.0026 51.1279 75.9753 51.0967 75.9426 51.0719C75.9099 51.047 75.8725 51.029 75.8326 51.019C75.7927 51.0089 75.7512 51.007 75.7106 51.0134Z" fill="black"/>
<path opacity="0.3" d="M66.5441 54.2162L39.9073 57.1621C39.827 57.1711 39.7535 57.2115 39.7031 57.2743C39.6527 57.3371 39.6295 57.4173 39.6386 57.4972C39.6476 57.577 39.6882 57.65 39.7514 57.7001C39.8146 57.7502 39.8952 57.7733 39.9755 57.7643L66.6095 54.8155C66.6898 54.8069 66.7634 54.7669 66.814 54.7044C66.8647 54.6418 66.8883 54.5618 66.8796 54.4819C66.8709 54.4021 66.8307 54.3289 66.7678 54.2785C66.7049 54.2282 66.6244 54.2047 66.5441 54.2133V54.2162Z" fill="black"/>
<path opacity="0.3" d="M83.4172 47.6972L80.238 48.049C79.8104 48.0963 79.5023 48.4794 79.5499 48.9046L79.9037 52.0657C79.9513 52.4909 80.3365 52.7972 80.7641 52.7499L83.9433 52.3981C84.371 52.3508 84.6791 51.9678 84.6315 51.5425L84.2777 48.3814C84.2301 47.9562 83.8448 47.6499 83.4172 47.6972Z" stroke="#434B53" stroke-width="0.346552" stroke-linecap="round" stroke-linejoin="round"/>
<path d="M80.8044 50.1308L81.848 51.1119L83.227 49.0141" stroke="#F0792E" stroke-width="1.03966" stroke-linecap="round" stroke-linejoin="round"/>
<path opacity="0.3" d="M76.6135 59.0963L45.2737 62.5625C45.1985 62.5769 45.1315 62.619 45.0861 62.6804C45.0407 62.7417 45.0203 62.8179 45.0289 62.8936C45.0376 62.9692 45.0746 63.0389 45.1326 63.0886C45.1906 63.1384 45.2654 63.1645 45.3419 63.1619L76.6817 59.6957C76.7236 59.6942 76.7648 59.6842 76.8026 59.6661C76.8404 59.6481 76.8741 59.6225 76.9015 59.5909C76.9289 59.5593 76.9494 59.5224 76.9618 59.4826C76.9741 59.4427 76.9781 59.4008 76.9734 59.3593C76.9686 59.3179 76.9554 59.2779 76.9343 59.2418C76.9133 59.2057 76.885 59.1743 76.8512 59.1496C76.8174 59.1249 76.7789 59.1074 76.7379 59.0982C76.697 59.0891 76.6546 59.0884 76.6135 59.0963Z" fill="black"/>
<path opacity="0.3" d="M76.8569 61.2588L40.8113 65.2452C40.7715 65.249 40.7329 65.2608 40.6977 65.2798C40.6625 65.2988 40.6316 65.3246 40.6066 65.3557C40.5817 65.3868 40.5633 65.4226 40.5526 65.461C40.5418 65.4993 40.5389 65.5394 40.5441 65.5788C40.5483 65.6184 40.5604 65.6567 40.5795 65.6916C40.5987 65.7265 40.6246 65.7574 40.6558 65.7823C40.687 65.8073 40.7228 65.8258 40.7612 65.837C40.7996 65.8482 40.8398 65.8517 40.8796 65.8474L76.9223 61.861C77.0029 61.8518 77.0766 61.8112 77.1272 61.7482C77.1778 61.6852 77.2012 61.6048 77.1924 61.5246C77.1832 61.4452 77.1427 61.3727 77.0798 61.3229C77.0169 61.2731 76.9368 61.2501 76.8569 61.2588Z" fill="black"/>
<path opacity="0.3" d="M67.7014 64.462L41.0646 67.4079C41.0247 67.4118 40.9861 67.4235 40.9509 67.4425C40.9158 67.4615 40.8848 67.4873 40.8599 67.5184C40.8349 67.5495 40.8165 67.5853 40.8058 67.6237C40.795 67.662 40.7921 67.7021 40.7973 67.7415C40.8015 67.7811 40.8136 67.8194 40.8328 67.8543C40.8519 67.8893 40.8778 67.9201 40.909 67.945C40.9402 67.97 40.976 67.9886 41.0144 67.9997C41.0528 68.0109 41.093 68.0144 41.1328 68.0101L67.7668 65.0642C67.8066 65.0599 67.8451 65.0479 67.8802 65.0289C67.9154 65.0098 67.9464 64.984 67.9714 64.9531C67.9965 64.9221 68.0152 64.8865 68.0265 64.8483C68.0377 64.8101 68.0412 64.7701 68.0369 64.7305C68.033 64.6908 68.0212 64.6523 68.0022 64.6172C67.9831 64.5821 67.9572 64.5511 67.9259 64.5261C67.8947 64.5011 67.8587 64.4825 67.8202 64.4715C67.7816 64.4605 67.7412 64.4572 67.7014 64.462Z" fill="black"/>
<path opacity="0.3" d="M84.5636 57.9433L81.3844 58.2951C80.9568 58.3424 80.6487 58.7254 80.6963 59.1506L81.0501 62.3118C81.0977 62.737 81.4829 63.0433 81.9105 62.996L85.0897 62.6442C85.5174 62.5969 85.8254 62.2138 85.7779 61.7886L85.4241 58.6275C85.3765 58.2023 84.9912 57.896 84.5636 57.9433Z" stroke="#434B53" stroke-width="0.346552" stroke-linecap="round" stroke-linejoin="round"/>
<path d="M81.9508 60.3741L82.9943 61.3551L84.3734 59.2602" stroke="#F0792E" stroke-width="1.03966" stroke-linecap="round" stroke-linejoin="round"/>
<path opacity="0.3" d="M77.7615 69.3394L46.4217 72.8056C46.382 72.8098 46.3434 72.8219 46.3083 72.8409C46.2732 72.86 46.2423 72.8858 46.2172 72.9168C46.1921 72.9477 46.1734 72.9833 46.1621 73.0215C46.1509 73.0596 46.1473 73.0996 46.1516 73.1392C46.1559 73.1787 46.168 73.217 46.1872 73.2519C46.2064 73.2868 46.2323 73.3176 46.2634 73.3426C46.2946 73.3675 46.3304 73.3861 46.3688 73.3973C46.4071 73.4085 46.4474 73.412 46.4871 73.4078L77.8269 69.9416C77.8667 69.9374 77.9053 69.9254 77.9404 69.9063C77.9755 69.8873 78.0065 69.8615 78.0316 69.8305C78.0567 69.7995 78.0754 69.7639 78.0866 69.7257C78.0978 69.6875 78.1014 69.6475 78.097 69.608C78.0877 69.5284 78.0474 69.4556 77.9846 69.4054C77.9218 69.3551 77.8417 69.3314 77.7615 69.3394Z" fill="black"/>
<path opacity="0.3" d="M78.0036 71.4964L41.958 75.4827C41.9161 75.4842 41.8749 75.4943 41.8371 75.5123C41.7993 75.5303 41.7656 75.5559 41.7382 75.5875C41.7108 75.6191 41.6903 75.656 41.678 75.6958C41.6656 75.7357 41.6616 75.7776 41.6663 75.8191C41.6711 75.8605 41.6844 75.9006 41.7054 75.9366C41.7264 75.9727 41.7547 76.0041 41.7885 76.0288C41.8223 76.0535 41.8608 76.071 41.9018 76.0802C41.9427 76.0893 41.9851 76.09 42.0263 76.0821L78.069 72.0957C78.1111 72.0947 78.1525 72.085 78.1907 72.0673C78.2288 72.0496 78.2628 72.0241 78.2906 71.9926C78.3183 71.9611 78.3392 71.9243 78.3519 71.8843C78.3645 71.8444 78.3687 71.8023 78.3642 71.7607C78.3596 71.7191 78.3464 71.6788 78.3255 71.6425C78.3045 71.6062 78.2761 71.5747 78.2422 71.5498C78.2084 71.525 78.1696 71.5074 78.1286 71.4982C78.0875 71.489 78.0449 71.4884 78.0036 71.4964Z" fill="black"/>
<path opacity="0.3" d="M68.8388 74.7078L42.202 77.6538C42.1217 77.6628 42.0483 77.7031 41.9979 77.766C41.9475 77.8288 41.9243 77.9089 41.9333 77.9888C41.9424 78.0687 41.9829 78.1417 42.0461 78.1918C42.1093 78.2419 42.1899 78.265 42.2702 78.256L68.9071 75.31C68.9872 75.3001 69.0601 75.2592 69.1101 75.1963C69.1601 75.1333 69.1832 75.0533 69.1744 74.9736C69.1701 74.9341 69.1581 74.8959 69.1388 74.8611C69.1196 74.8263 69.0937 74.7957 69.0625 74.771C69.0312 74.7462 68.9954 74.7279 68.957 74.7171C68.9186 74.7062 68.8785 74.7031 68.8388 74.7078Z" fill="black"/>
<path opacity="0.3" d="M85.71 68.1898L82.5308 68.5416C82.1032 68.5889 81.7951 68.972 81.8427 69.3972L82.1964 72.5583C82.244 72.9835 82.6293 73.2898 83.0569 73.2425L86.2361 72.8907C86.6637 72.8434 86.9718 72.4604 86.9242 72.0352L86.5704 68.874C86.5229 68.4488 86.1376 68.1425 85.71 68.1898Z" stroke="#434B53" stroke-width="0.346552" stroke-linecap="round" stroke-linejoin="round"/>
<path d="M83.0952 70.6199L84.1388 71.6009L85.5178 69.506" stroke="#F0792E" stroke-width="1.03966" stroke-linecap="round" stroke-linejoin="round"/>
<path opacity="0.3" d="M78.6338 77.1508L47.294 80.6227C47.2137 80.6317 47.1403 80.672 47.0899 80.7348C47.0395 80.7977 47.0162 80.8778 47.0253 80.9577C47.0343 81.0375 47.0749 81.1106 47.1381 81.1607C47.2013 81.2108 47.2819 81.2339 47.3622 81.2249L78.702 77.7587C78.7419 77.7548 78.7805 77.7431 78.8157 77.7241C78.8508 77.7051 78.8818 77.6793 78.9067 77.6482C78.9317 77.6171 78.9501 77.5813 78.9608 77.5429C78.9716 77.5046 78.9744 77.4645 78.9693 77.4251C78.9658 77.385 78.9542 77.3461 78.9353 77.3105C78.9165 77.2749 78.8907 77.2435 78.8594 77.2179C78.8282 77.1924 78.7921 77.1733 78.7534 77.1618C78.7147 77.1503 78.674 77.1465 78.6338 77.1508Z" fill="black"/>
<path opacity="0.3" d="M78.8757 79.3221L42.8329 83.3085C42.7908 83.3095 42.7494 83.3192 42.7113 83.3369C42.6731 83.3546 42.6391 83.3801 42.6114 83.4116C42.5836 83.4431 42.5628 83.4799 42.5501 83.5199C42.5374 83.5598 42.5332 83.6019 42.5378 83.6435C42.5423 83.6851 42.5555 83.7254 42.5765 83.7617C42.5975 83.798 42.6258 83.8295 42.6597 83.8544C42.6936 83.8792 42.7323 83.8968 42.7734 83.906C42.8144 83.9152 42.857 83.9158 42.8983 83.9078L78.9439 79.9214C79.0191 79.907 79.0861 79.8649 79.1315 79.8036C79.1769 79.7422 79.1973 79.6661 79.1886 79.5904C79.18 79.5147 79.143 79.445 79.085 79.3953C79.027 79.3456 78.9522 79.3194 78.8757 79.3221Z" fill="black"/>
<path opacity="0.3" d="M69.7089 82.5225L43.0749 85.4684C43.0351 85.4727 42.9965 85.4847 42.9614 85.5037C42.9263 85.5228 42.8953 85.5485 42.8702 85.5795C42.8451 85.6105 42.8264 85.6461 42.8152 85.6843C42.804 85.7225 42.8004 85.7625 42.8047 85.8021C42.814 85.8822 42.8548 85.9554 42.9182 86.0057C42.9816 86.0561 43.0625 86.0794 43.1431 86.0706L69.7771 83.1247C69.8169 83.1202 69.8554 83.108 69.8904 83.0888C69.9254 83.0695 69.9563 83.0436 69.9812 83.0125C70.0062 82.9814 70.0247 82.9457 70.0358 82.9075C70.0469 82.8692 70.0503 82.8292 70.0458 82.7897C70.0413 82.7501 70.029 82.7118 70.0097 82.677C69.9903 82.6422 69.9643 82.6115 69.933 82.5867C69.9017 82.5619 69.8658 82.5434 69.8273 82.5324C69.7889 82.5214 69.7486 82.518 69.7089 82.5225Z" fill="black"/>
<path opacity="0.3" d="M86.5855 76.0042L83.4063 76.356C82.9786 76.4033 82.6706 76.7864 82.7181 77.2116L83.0719 80.3727C83.1195 80.7979 83.5048 81.1042 83.9324 81.0569L87.1116 80.7051C87.5392 80.6578 87.8473 80.2748 87.7998 79.8496L87.446 76.6885C87.3984 76.2633 87.0131 75.9569 86.5855 76.0042Z" stroke="#434B53" stroke-width="0.346552" stroke-linecap="round" stroke-linejoin="round"/>
<path d="M83.9688 78.4372L85.0123 79.4183L86.3913 77.3233" stroke="#F0792E" stroke-width="1.03966" stroke-linecap="round" stroke-linejoin="round"/>
<path d="M52.5788 57.1535C52.6063 56.8286 52.5253 56.5037 52.3485 56.229L51.9988 55.6127L51.305 56.0028L51.6831 56.6644C51.8708 56.9952 51.794 57.1987 51.5609 57.3288C51.3277 57.4589 51.1116 57.4249 50.924 57.0941L50.1136 55.6636L49.2435 55.8332L50.1705 57.4589C50.5941 58.2024 51.2083 58.4145 51.9277 58.0243C52.042 57.959 52.148 57.8802 52.2433 57.7896C52.2029 57.6965 52.1958 57.5923 52.2232 57.4946C52.2506 57.3968 52.3109 57.3114 52.394 57.2525C52.4497 57.2096 52.5122 57.1762 52.5788 57.1535Z" fill="#F0792E"/>
<path d="M48.7965 55.0501L48.9614 55.3328H49.9197L49.5017 54.5977C49.314 54.2669 49.388 54.0577 49.6211 53.9277C49.8543 53.7976 50.0732 53.8372 50.2609 54.1708L50.5452 54.6656L51.2362 54.2754L50.9803 53.8259C50.5566 53.0852 49.9424 52.8703 49.223 53.2774C49.0579 53.3659 48.9112 53.4849 48.7908 53.628C48.9542 53.6802 49.1254 53.7041 49.297 53.6987L48.6146 53.9531C48.5645 54.1383 48.5549 54.332 48.5863 54.5212C48.6177 54.7103 48.6894 54.8907 48.7965 55.0501Z" fill="#F0792E"/>
<path d="M54.1126 52.0362C54.2038 51.9909 54.2989 51.9539 54.3969 51.9259C54.7637 51.7619 54.8462 51.2361 54.8149 50.8657L54.4367 50.3992L53.4188 50.9647L54.0557 52.0786C54.0723 52.0616 54.0915 52.0473 54.1126 52.0362Z" fill="#F0792E"/>
<path d="M58.4483 54.2499L59.1392 53.8598L56.4977 49.2288L55.8409 49.5963C56.0513 49.6472 56.202 49.7462 56.2077 49.8988C56.003 49.9271 55.7528 49.8988 55.531 49.9384L56.8617 53.3678L55.1784 51.2814C55.1829 51.3276 55.176 51.3742 55.1581 51.4171C55.1403 51.46 55.1121 51.4978 55.076 51.5273C54.9993 51.581 54.8884 51.581 54.8287 51.6517C54.7689 51.7224 54.7775 51.8072 54.7263 51.8694C54.6751 51.9316 54.5955 51.9486 54.5329 51.9938C54.4704 52.0391 54.4021 52.155 54.3311 52.2313C54.2968 52.2672 54.2537 52.2935 54.2059 52.3076L56.0769 55.5872L56.7138 55.2253L54.8457 51.9514L57.2455 54.9256L57.9393 54.5355L56.5375 50.9364L58.4483 54.2499Z" fill="#F0792E"/>
<path d="M60.1963 50.2182C60.2468 50.2434 60.2917 50.2783 60.3283 50.3211C60.365 50.3638 60.3926 50.4135 60.4095 50.467C60.4693 50.1177 60.3931 49.7588 60.1963 49.4634L59.8522 48.8583C59.4285 48.1176 58.84 47.9169 58.1064 48.3297L57.0287 48.9375L59.6731 53.5713L60.3583 53.184C60.1365 53.0455 59.8892 52.9267 59.6788 52.7769C59.58 52.7142 59.4988 52.6276 59.4428 52.5253C59.4162 52.4736 59.4053 52.4154 59.4113 52.3577C59.4174 52.2999 59.4401 52.2452 59.4769 52.2001C59.525 52.1597 59.5837 52.1338 59.6462 52.1253C59.7086 52.1168 59.7721 52.1261 59.8295 52.1521L59.4115 51.417L59.7584 51.2219C59.949 51.1191 60.1149 50.9764 60.2446 50.8035C60.0996 50.5745 59.8465 50.0882 60.1963 50.2182ZM59.3802 50.5745L59.0333 50.7695L58.1376 49.2004L58.4845 49.0054C58.7177 48.8753 58.9054 48.9092 59.093 49.24L59.4911 49.9355C59.6788 50.2522 59.6134 50.4303 59.3802 50.5745Z" fill="#F0792E"/>
<path d="M64.1162 51.0635L63.7408 50.4019L62.5352 51.0805L60.7723 47.9903L60.6927 48.0525C60.6412 48.1 60.5787 48.134 60.5107 48.1515C60.4765 48.1591 60.4406 48.1542 60.4098 48.1375C60.3789 48.1209 60.3552 48.0937 60.343 48.061C60.3332 48.0172 60.3332 47.9719 60.343 47.9281C60.3434 47.665 60.2598 47.4086 60.1041 47.1959L59.5355 47.5238L62.177 52.1548L64.1162 51.0635Z" fill="#F0792E"/>
<path d="M63.7868 49.4435C63.8664 49.2371 64.1138 49.1607 64.2531 48.9741C64.2655 48.955 64.2769 48.9352 64.2872 48.9148L64.0029 48.4398L64.7223 48.0355C64.709 47.9904 64.6857 47.9488 64.654 47.9139C64.5508 47.8638 64.4406 47.8295 64.327 47.8122C64.3095 47.777 64.3006 47.7382 64.3013 47.6989C64.3019 47.6597 64.3119 47.6212 64.3306 47.5866C64.3492 47.552 64.3759 47.5223 64.4084 47.5001C64.441 47.4779 64.4784 47.4637 64.5175 47.4588C64.5659 47.4588 64.6227 47.4588 64.6597 47.4361C64.6856 47.4054 64.6988 47.366 64.6967 47.3259L64.6313 47.2128L63.6247 47.7782L62.8911 46.489L64.1536 45.7737L63.7754 45.1122L61.785 46.2431L63.7413 49.6725C63.7447 49.5943 63.76 49.5171 63.7868 49.4435Z" fill="#F0792E"/>
<path d="M66.4354 49.7576L66.0572 49.096L64.7919 49.8085L64.4137 49.1611L63.9474 49.5965L63.7853 49.752L64.4393 50.897L66.4354 49.7576Z" fill="#F0792E"/>
<path d="M65.4942 44.3774C65.4942 44.4764 65.4231 44.5867 65.3264 44.5951C65.2772 44.5945 65.2284 44.5869 65.1814 44.5725C65.0935 44.5741 65.0057 44.5656 64.9198 44.5471C64.9012 44.5395 64.8839 44.529 64.8686 44.516L64.0327 44.9881L64.4108 45.6525L65.1757 45.22L67.4504 49.1781L68.1812 48.7653L65.9065 44.8072L66.6742 44.3746L66.296 43.713L65.5112 44.1541C65.497 44.2276 65.5027 44.3039 65.4942 44.3774Z" fill="#F0792E"/>
<path d="M68.687 47.1815L69.2557 48.1795L70.0234 47.7469C70.0416 47.6968 70.0644 47.6486 70.0917 47.6027C70.2607 47.3571 70.4883 47.157 70.7542 47.0203L71.1067 46.8026L70.8736 46.3898L69.6083 47.1051L68.8349 45.7481L69.8414 45.1826L69.4633 44.521L68.4567 45.0865L67.7231 43.7888L68.9884 43.0763L68.6103 42.4148L66.6199 43.5457L68.0558 46.0647C68.4027 45.8809 68.5761 46.5425 68.687 47.1815Z" fill="#F0792E"/>
<path d="M53.961 56.3307C54.0805 56.3505 54.1515 56.4692 54.2454 56.5484C54.2795 56.5796 54.319 56.6045 54.3619 56.6219C54.4164 56.6004 54.4695 56.5758 54.5212 56.5484C55.2377 56.1441 55.3884 55.4995 54.9676 54.7559L54.9249 54.6824L53.9411 54.657L54.2624 55.2224C54.4501 55.5532 54.3762 55.7624 54.143 55.8925C53.9098 56.0225 53.6909 55.9801 53.5032 55.6493L52.0815 53.1472C51.891 52.8165 51.9678 52.6101 52.201 52.4772C52.4341 52.3443 52.6502 52.3895 52.8407 52.7203L53.8046 54.4167C54.1005 54.3438 54.404 54.3058 54.7088 54.3036L53.5971 52.3556C53.1763 51.6149 52.5422 51.4142 51.8228 51.8184C51.1034 52.2227 50.9527 52.8702 51.3764 53.6109L52.7497 56.0197C52.8365 56.2054 52.9663 56.368 53.1284 56.4943C53.2905 56.6206 53.4803 56.7069 53.6824 56.7463C53.6808 56.7294 53.6808 56.7123 53.6824 56.6954C53.6483 56.5116 53.7847 56.2968 53.961 56.3307Z" fill="#F0792E"/>
<path d="M63.7783 43.0344L66.0103 41.7763C65.3706 41.9516 64.8076 42.4831 64.1479 42.4096C64.0286 42.3785 63.9032 42.3785 63.784 42.4096C63.7094 42.4574 63.6557 42.5314 63.6336 42.6168C63.6114 42.7022 63.6225 42.7928 63.6645 42.8704C63.6933 42.9308 63.7317 42.9862 63.7783 43.0344Z" fill="#F0792E"/>
<path d="M58.1809 46.1924C58.1759 46.1435 58.1858 46.0943 58.2093 46.051C58.2641 46.07 58.3218 46.0796 58.3799 46.0793L59.1505 45.6467C59.2711 45.5111 59.4087 45.3914 59.5599 45.2905C59.706 45.2128 59.8605 45.1521 60.0205 45.1096L60.1911 45.0587L61.6128 44.2614C61.6278 44.2325 61.6481 44.2066 61.6725 44.1851C61.6945 44.1705 61.7185 44.1591 61.7436 44.1511L60.2764 43.7101L59.8812 43.9306L59.8386 44.2416L58.1467 45.1407C57.9793 45.2447 57.7928 45.3148 57.598 45.3471C57.5252 45.3555 57.4518 45.3555 57.379 45.3471L54.9678 46.707C54.987 46.8206 55.0195 46.9316 55.0645 47.0377C54.9231 47.0115 54.7885 46.9567 54.6693 46.8766L54.1745 47.1593C54.5271 47.3911 54.874 47.6286 55.2124 47.8803L58.1809 46.1924Z" fill="#F0792E"/>
<path d="M68.5022 40.3738L67.3364 39.7235L66.7848 40.0345C67.1098 40.3669 67.5296 40.5919 67.9875 40.6791L68.5022 40.3738Z" fill="#F0792E"/>
<path d="M74.7729 47.2186L70.3714 39.5031C70.2002 39.2047 69.9172 38.9858 69.5842 38.8942C69.2513 38.8025 68.8954 38.8456 68.5942 39.014L68.0654 39.3136L68.2673 39.5087C68.4777 39.7179 68.6938 39.93 68.89 40.1533L69.1572 40.0035C69.1943 39.9829 69.238 39.9776 69.2789 39.9887C69.3198 39.9998 69.3548 40.0264 69.3762 40.0629L73.7806 47.7812C73.801 47.8184 73.8059 47.862 73.7942 47.9028C73.7825 47.9435 73.7551 47.9781 73.718 47.9989L67.727 51.3915C68.2445 51.4226 68.7677 51.3491 69.2852 51.4085C69.4716 51.4319 69.6567 51.4649 69.8397 51.5075L74.281 49.0025C74.4319 48.9182 74.5644 48.805 74.6709 48.6694C74.7774 48.5339 74.8558 48.3786 74.9016 48.2127C74.9473 48.0467 74.9595 47.8734 74.9375 47.7028C74.9154 47.5322 74.8594 47.3676 74.7729 47.2186Z" fill="#F0792E"/>
<path d="M47.7993 57.0374L45.7293 53.4015C45.7186 53.3832 45.7117 53.3629 45.7089 53.3419C45.7061 53.3208 45.7076 53.2994 45.7131 53.279C45.7187 53.2585 45.7282 53.2393 45.7413 53.2225C45.7543 53.2057 45.7705 53.1916 45.789 53.181L51.7601 49.811C51.7402 49.7657 51.7146 49.7205 51.6976 49.6753C51.782 49.6718 51.8664 49.6813 51.9478 49.7035L54.3618 48.3437C54.2822 48.3182 54.2055 48.2871 54.1287 48.2588L52.9913 47.8093L52.0814 48.3239L53.0709 48.9261C52.7269 48.7168 52.0246 48.6886 51.4189 48.6971L45.2403 52.1943C44.9396 52.364 44.719 52.6454 44.6268 52.9767C44.5345 53.308 44.5783 53.6621 44.7484 53.9613L46.5454 57.1109C46.6278 57.0882 46.7131 57.0685 46.7956 57.0543C47.0234 57.0217 47.2538 57.0104 47.4837 57.0204C47.5891 57.0196 47.6946 57.0253 47.7993 57.0374Z" fill="#F0792E"/>
<path d="M55.1754 58.4567C55.2767 58.5469 55.3919 58.6204 55.5166 58.6744C55.6445 58.7309 55.8151 58.8666 55.7156 58.9571C55.255 59.1663 54.6863 59.0108 54.2342 59.2398C53.9868 59.3585 53.748 59.5932 53.4836 59.5225C53.8034 59.7156 54.0912 59.9569 54.3366 60.2378L65.6277 53.8709C65.6277 53.8257 65.6419 53.7804 65.6504 53.7324C65.6507 53.6434 65.6713 53.5556 65.7109 53.4758C65.7504 53.3959 65.8077 53.3261 65.8784 53.2716C65.9491 53.2171 66.0314 53.1793 66.119 53.1612C66.2066 53.143 66.2973 53.145 66.384 53.1669C66.5305 53.1605 66.6771 53.1758 66.819 53.2122L68.2265 52.4177C68.0334 52.0868 67.8046 51.7777 67.5441 51.496L55.1754 58.4567Z" fill="#F0792E"/>
<path d="M53.3472 60.3252C53.0749 60.2373 52.8241 60.0938 52.6108 59.9039L50.3588 61.1761C50.3406 61.1867 50.3204 61.1936 50.2995 61.1963C50.2785 61.199 50.2573 61.1976 50.2369 61.192C50.2165 61.1865 50.1974 61.177 50.1808 61.1641C50.1641 61.1512 50.1502 61.1351 50.1399 61.1168L48.1495 57.6478C47.9588 57.5822 47.756 57.559 47.5553 57.5799C47.325 57.6252 47.1231 57.8909 47.2482 58.086C47.3657 58.089 47.4804 58.123 47.5803 58.1847C47.6802 58.2463 47.7619 58.3332 47.8169 58.4366C47.6942 58.5336 47.5595 58.6143 47.4159 58.6769L49.122 61.6766C49.2067 61.8281 49.3211 61.9612 49.4583 62.0681C49.5956 62.175 49.753 62.2536 49.9212 62.2991C50.0894 62.3447 50.2651 62.3564 50.4379 62.3335C50.6107 62.3105 50.7772 62.2535 50.9275 62.1657L53.879 60.5004L53.8448 60.4806C53.6819 60.4199 53.5158 60.368 53.3472 60.3252Z" fill="#F0792E"/>
<g opacity="0.2">
<path opacity="0.2" d="M52.5788 57.1535C52.6063 56.8286 52.5253 56.5037 52.3485 56.229L51.9988 55.6127L51.305 56.0028L51.6831 56.6644C51.8708 56.9952 51.794 57.1987 51.5609 57.3288C51.3277 57.4589 51.1116 57.4249 50.924 57.0941L50.1136 55.6636L49.2435 55.8332L50.1705 57.4589C50.5941 58.2024 51.2083 58.4145 51.9277 58.0243C52.042 57.959 52.148 57.8802 52.2433 57.7896C52.2029 57.6965 52.1958 57.5923 52.2232 57.4946C52.2506 57.3968 52.3109 57.3114 52.394 57.2525C52.4497 57.2096 52.5122 57.1762 52.5788 57.1535Z" fill="black"/>
<path opacity="0.2" d="M48.7965 55.0501L48.9614 55.3328H49.9197L49.5017 54.5977C49.314 54.2669 49.388 54.0577 49.6211 53.9277C49.8543 53.7976 50.0732 53.8372 50.2609 54.1708L50.5452 54.6656L51.2362 54.2754L50.9803 53.8259C50.5566 53.0852 49.9424 52.8703 49.223 53.2774C49.0579 53.3659 48.9112 53.4849 48.7908 53.628C48.9542 53.6802 49.1254 53.7041 49.297 53.6987L48.6146 53.9531C48.5645 54.1383 48.5549 54.332 48.5863 54.5212C48.6177 54.7103 48.6894 54.8907 48.7965 55.0501Z" fill="black"/>
<path opacity="0.2" d="M54.1126 52.0362C54.2038 51.9909 54.2989 51.9539 54.3969 51.9259C54.7637 51.7619 54.8462 51.2361 54.8149 50.8657L54.4367 50.3992L53.4188 50.9647L54.0557 52.0786C54.0723 52.0616 54.0915 52.0473 54.1126 52.0362Z" fill="black"/>
<path opacity="0.2" d="M58.4483 54.2499L59.1392 53.8598L56.4977 49.2288L55.8409 49.5963C56.0513 49.6472 56.202 49.7462 56.2077 49.8988C56.003 49.9271 55.7528 49.8988 55.531 49.9384L56.8617 53.3678L55.1784 51.2814C55.1829 51.3276 55.176 51.3742 55.1581 51.4171C55.1403 51.46 55.1121 51.4978 55.076 51.5273C54.9993 51.581 54.8884 51.581 54.8287 51.6517C54.7689 51.7224 54.7775 51.8072 54.7263 51.8694C54.6751 51.9316 54.5955 51.9486 54.5329 51.9938C54.4704 52.0391 54.4021 52.155 54.3311 52.2313C54.2968 52.2672 54.2537 52.2935 54.2059 52.3076L56.0769 55.5872L56.7138 55.2253L54.8457 51.9514L57.2455 54.9256L57.9393 54.5355L56.5375 50.9364L58.4483 54.2499Z" fill="black"/>
<path opacity="0.2" d="M60.1963 50.2182C60.2468 50.2434 60.2917 50.2783 60.3283 50.3211C60.365 50.3638 60.3926 50.4135 60.4095 50.467C60.4693 50.1177 60.3931 49.7588 60.1963 49.4634L59.8522 48.8583C59.4285 48.1176 58.84 47.9169 58.1064 48.3297L57.0287 48.9375L59.6731 53.5713L60.3583 53.184C60.1365 53.0455 59.8892 52.9267 59.6788 52.7769C59.58 52.7142 59.4988 52.6276 59.4428 52.5253C59.4162 52.4736 59.4053 52.4154 59.4113 52.3577C59.4174 52.2999 59.4401 52.2452 59.4769 52.2001C59.525 52.1597 59.5837 52.1338 59.6462 52.1253C59.7086 52.1168 59.7721 52.1261 59.8295 52.1521L59.4115 51.417L59.7584 51.2219C59.949 51.1191 60.1149 50.9764 60.2446 50.8035C60.0996 50.5745 59.8465 50.0882 60.1963 50.2182ZM59.3802 50.5745L59.0333 50.7695L58.1376 49.2004L58.4845 49.0054C58.7177 48.8753 58.9054 48.9092 59.093 49.24L59.4911 49.9355C59.6788 50.2522 59.6134 50.4303 59.3802 50.5745Z" fill="black"/>
<path opacity="0.2" d="M64.1162 51.0635L63.7408 50.4019L62.5352 51.0805L60.7723 47.9903L60.6927 48.0525C60.6412 48.1 60.5787 48.134 60.5107 48.1515C60.4765 48.1591 60.4406 48.1542 60.4098 48.1375C60.3789 48.1209 60.3552 48.0937 60.343 48.061C60.3332 48.0172 60.3332 47.9719 60.343 47.9281C60.3434 47.665 60.2598 47.4086 60.1041 47.1959L59.5355 47.5238L62.177 52.1548L64.1162 51.0635Z" fill="black"/>
<path opacity="0.2" d="M63.7868 49.4435C63.8664 49.2371 64.1138 49.1607 64.2531 48.9741C64.2655 48.955 64.2769 48.9352 64.2872 48.9148L64.0029 48.4398L64.7223 48.0355C64.709 47.9904 64.6857 47.9488 64.654 47.9139C64.5508 47.8638 64.4406 47.8295 64.327 47.8122C64.3095 47.777 64.3006 47.7382 64.3013 47.6989C64.3019 47.6597 64.3119 47.6212 64.3306 47.5866C64.3492 47.552 64.3759 47.5223 64.4084 47.5001C64.441 47.4779 64.4784 47.4637 64.5175 47.4588C64.5659 47.4588 64.6227 47.4588 64.6597 47.4361C64.6856 47.4054 64.6988 47.366 64.6967 47.3259L64.6313 47.2128L63.6247 47.7782L62.8911 46.489L64.1536 45.7737L63.7754 45.1122L61.785 46.2431L63.7413 49.6725C63.7447 49.5943 63.76 49.5171 63.7868 49.4435Z" fill="black"/>
<path opacity="0.2" d="M66.4354 49.7576L66.0572 49.096L64.7919 49.8085L64.4137 49.1611L63.9474 49.5965L63.7853 49.752L64.4393 50.897L66.4354 49.7576Z" fill="black"/>
<path opacity="0.2" d="M65.4942 44.3774C65.4942 44.4764 65.4231 44.5867 65.3264 44.5951C65.2772 44.5945 65.2284 44.5869 65.1814 44.5725C65.0935 44.5741 65.0057 44.5656 64.9198 44.5471C64.9012 44.5395 64.8839 44.529 64.8686 44.516L64.0327 44.9881L64.4108 45.6525L65.1757 45.22L67.4504 49.1781L68.1812 48.7653L65.9065 44.8072L66.6742 44.3746L66.296 43.713L65.5112 44.1541C65.497 44.2276 65.5027 44.3039 65.4942 44.3774Z" fill="black"/>
<path opacity="0.2" d="M68.687 47.1815L69.2557 48.1795L70.0234 47.7469C70.0416 47.6968 70.0644 47.6486 70.0917 47.6027C70.2607 47.3571 70.4883 47.157 70.7542 47.0203L71.1067 46.8026L70.8736 46.3898L69.6083 47.1051L68.8349 45.7481L69.8414 45.1826L69.4633 44.521L68.4567 45.0865L67.7231 43.7888L68.9884 43.0763L68.6103 42.4148L66.6199 43.5457L68.0558 46.0647C68.4027 45.8809 68.5761 46.5425 68.687 47.1815Z" fill="black"/>
<path opacity="0.2" d="M53.961 56.3307C54.0805 56.3505 54.1515 56.4692 54.2454 56.5484C54.2795 56.5796 54.319 56.6045 54.3619 56.6219C54.4164 56.6004 54.4695 56.5758 54.5212 56.5484C55.2377 56.1441 55.3884 55.4995 54.9676 54.7559L54.9249 54.6824L53.9411 54.657L54.2624 55.2224C54.4501 55.5532 54.3762 55.7624 54.143 55.8925C53.9098 56.0225 53.6909 55.9801 53.5032 55.6493L52.0815 53.1472C51.891 52.8165 51.9678 52.6101 52.201 52.4772C52.4341 52.3443 52.6502 52.3895 52.8407 52.7203L53.8046 54.4167C54.1005 54.3438 54.404 54.3058 54.7088 54.3036L53.5971 52.3556C53.1763 51.6149 52.5422 51.4142 51.8228 51.8184C51.1034 52.2227 50.9527 52.8702 51.3764 53.6109L52.7497 56.0197C52.8365 56.2054 52.9663 56.368 53.1284 56.4943C53.2905 56.6206 53.4803 56.7069 53.6824 56.7463C53.6808 56.7294 53.6808 56.7123 53.6824 56.6954C53.6483 56.5116 53.7847 56.2968 53.961 56.3307Z" fill="black"/>
<path opacity="0.2" d="M63.7783 43.0344L66.0103 41.7763C65.3706 41.9516 64.8076 42.4831 64.1479 42.4096C64.0286 42.3785 63.9032 42.3785 63.784 42.4096C63.7094 42.4574 63.6557 42.5314 63.6336 42.6168C63.6114 42.7022 63.6225 42.7928 63.6645 42.8704C63.6933 42.9308 63.7317 42.9862 63.7783 43.0344Z" fill="black"/>
<path opacity="0.2" d="M58.1809 46.1924C58.1759 46.1435 58.1858 46.0943 58.2093 46.051C58.2641 46.07 58.3218 46.0796 58.3799 46.0793L59.1505 45.6467C59.2711 45.5111 59.4087 45.3914 59.5599 45.2905C59.706 45.2128 59.8605 45.1521 60.0205 45.1096L60.1911 45.0587L61.6128 44.2614C61.6278 44.2325 61.6481 44.2066 61.6725 44.1851C61.6945 44.1705 61.7185 44.1591 61.7436 44.1511L60.2764 43.7101L59.8812 43.9306L59.8386 44.2416L58.1467 45.1407C57.9793 45.2447 57.7928 45.3148 57.598 45.3471C57.5252 45.3555 57.4518 45.3555 57.379 45.3471L54.9678 46.707C54.987 46.8206 55.0195 46.9316 55.0645 47.0377C54.9231 47.0115 54.7885 46.9567 54.6693 46.8766L54.1745 47.1593C54.5271 47.3911 54.874 47.6286 55.2124 47.8803L58.1809 46.1924Z" fill="black"/>
<path opacity="0.2" d="M68.5022 40.3738L67.3364 39.7235L66.7848 40.0345C67.1098 40.3669 67.5296 40.5919 67.9875 40.6791L68.5022 40.3738Z" fill="black"/>
<path opacity="0.2" d="M74.7729 47.2186L70.3714 39.5031C70.2002 39.2047 69.9172 38.9858 69.5842 38.8942C69.2513 38.8025 68.8954 38.8456 68.5942 39.014L68.0654 39.3136L68.2673 39.5087C68.4777 39.7179 68.6938 39.93 68.89 40.1533L69.1572 40.0035C69.1943 39.9829 69.238 39.9776 69.2789 39.9887C69.3198 39.9998 69.3548 40.0264 69.3762 40.0629L73.7806 47.7812C73.801 47.8184 73.8059 47.862 73.7942 47.9028C73.7825 47.9435 73.7551 47.9781 73.718 47.9989L67.727 51.3915C68.2445 51.4226 68.7677 51.3491 69.2852 51.4085C69.4716 51.4319 69.6567 51.4649 69.8397 51.5075L74.281 49.0025C74.4319 48.9182 74.5644 48.805 74.6709 48.6694C74.7774 48.5339 74.8558 48.3786 74.9016 48.2127C74.9473 48.0467 74.9595 47.8734 74.9375 47.7028C74.9154 47.5322 74.8594 47.3676 74.7729 47.2186Z" fill="black"/>
<path opacity="0.2" d="M47.7993 57.0374L45.7293 53.4015C45.7186 53.3832 45.7117 53.3629 45.7089 53.3419C45.7061 53.3208 45.7076 53.2994 45.7131 53.279C45.7187 53.2585 45.7282 53.2393 45.7413 53.2225C45.7543 53.2057 45.7705 53.1916 45.789 53.181L51.7601 49.811C51.7402 49.7657 51.7146 49.7205 51.6976 49.6753C51.782 49.6718 51.8664 49.6813 51.9478 49.7035L54.3618 48.3437C54.2822 48.3182 54.2055 48.2871 54.1287 48.2588L52.9913 47.8093L52.0814 48.3239L53.0709 48.9261C52.7269 48.7168 52.0246 48.6886 51.4189 48.6971L45.2403 52.1943C44.9396 52.364 44.719 52.6454 44.6268 52.9767C44.5345 53.308 44.5783 53.6621 44.7484 53.9613L46.5454 57.1109C46.6278 57.0882 46.7131 57.0685 46.7956 57.0543C47.0234 57.0217 47.2538 57.0104 47.4837 57.0204C47.5891 57.0196 47.6946 57.0253 47.7993 57.0374Z" fill="black"/>
<path opacity="0.2" d="M55.1754 58.4567C55.2767 58.5469 55.3919 58.6204 55.5166 58.6744C55.6445 58.7309 55.8151 58.8666 55.7156 58.9571C55.255 59.1663 54.6863 59.0108 54.2342 59.2398C53.9868 59.3585 53.748 59.5932 53.4836 59.5225C53.8034 59.7156 54.0912 59.9569 54.3366 60.2378L65.6277 53.8709C65.6277 53.8257 65.6419 53.7804 65.6504 53.7324C65.6507 53.6434 65.6713 53.5556 65.7109 53.4758C65.7504 53.3959 65.8077 53.3261 65.8784 53.2716C65.9491 53.2171 66.0314 53.1793 66.119 53.1612C66.2066 53.143 66.2973 53.145 66.384 53.1669C66.5305 53.1605 66.6771 53.1758 66.819 53.2122L68.2265 52.4177C68.0334 52.0868 67.8046 51.7777 67.5441 51.496L55.1754 58.4567Z" fill="black"/>
<path opacity="0.2" d="M53.3472 60.3252C53.0749 60.2373 52.8241 60.0938 52.6108 59.9039L50.3588 61.1761C50.3406 61.1867 50.3204 61.1936 50.2995 61.1963C50.2785 61.199 50.2573 61.1976 50.2369 61.192C50.2165 61.1865 50.1974 61.177 50.1808 61.1641C50.1641 61.1512 50.1502 61.1351 50.1399 61.1168L48.1495 57.6478C47.9588 57.5822 47.756 57.559 47.5553 57.5799C47.325 57.6252 47.1231 57.8909 47.2482 58.086C47.3657 58.089 47.4804 58.123 47.5803 58.1847C47.6802 58.2463 47.7619 58.3332 47.8169 58.4366C47.6942 58.5336 47.5595 58.6143 47.4159 58.6769L49.122 61.6766C49.2067 61.8281 49.3211 61.9612 49.4583 62.0681C49.5956 62.175 49.753 62.2536 49.9212 62.2991C50.0894 62.3447 50.2651 62.3564 50.4379 62.3335C50.6107 62.3105 50.7772 62.2535 50.9275 62.1657L53.879 60.5004L53.8448 60.4806C53.6819 60.4199 53.5158 60.368 53.3472 60.3252Z" fill="black"/>
</g>
<path opacity="0.3" d="M40.542 50.2299C42.2765 51.4965 43.7266 57.5807 43.8574 63.1588C43.9882 68.7369 46.7008 78.1431 47.0249 79.6839C47.3491 81.2247 47.2297 83.4469 49.2428 80.3539C51.2559 77.261 57.1445 71.8921 59.5984 73.6761C62.0522 75.46 57.9208 81.4566 55.683 84.6852C53.4453 87.9139 53.2178 93.5995 50.5365 97.1589C47.8552 100.718 45.4326 106.093 42.8054 106.011C40.1781 105.929 22.7765 118.765 22.7765 118.765L23.1178 101.196L38.7564 75.7512L40.542 50.2299Z" fill="black" fill-opacity="0.7"/>
<path d="M61.0258 74.5384C60.9376 75.0897 57.8753 79.1241 56.0755 82.1436C54.2756 85.1631 52.5895 90.4189 52.1374 91.1907C51.6853 91.9625 46.1663 96.7829 44.6536 98.7988C43.1409 100.815 40.4397 101.705 37.7413 103.605C36.0068 104.826 30.6016 111.128 26.9592 115.479C24.9347 117.897 23.4533 119.72 23.4533 119.72L0.168817 113.684C0.168817 113.684 2.09663 112.104 4.63293 109.972H4.64999L4.67558 109.952C8.84399 106.432 14.653 101.465 16.2567 99.5904C18.8413 96.5709 22.4411 92.9832 22.4411 92.9832C22.2221 88.7904 22.6685 84.8181 22.2733 83.3084C22.0686 82.5196 21.7046 78.0328 21.4203 76.6531C20.7293 73.1276 17.7239 69.4748 17.3855 68.0358C17.0472 66.5967 13.0806 60.4701 15.017 59.3392C15.369 59.1189 15.7874 59.0279 16.1998 59.082C18.8157 59.441 20.971 65.7231 22.4553 67.3233C23.0913 68.0808 23.6673 68.8862 24.1784 69.7321C25.3498 71.5783 26.4986 73.6535 26.4986 73.6535C26.9478 71.8638 23.6865 65.4884 22.7851 59.4495C21.8837 53.4106 19.2991 50.1677 22.7851 49.7945C23.0715 49.7626 23.3615 49.7876 23.6381 49.868C26.092 50.5805 27.1554 55.6497 28.6226 60.5691C28.7591 61.0214 29.8765 64.2699 30.7466 66.7748C31.3153 68.4146 31.7702 69.7349 31.7702 69.7349C31.8811 66.6589 30.9172 63.7978 30.758 61.0101C30.6897 59.8934 31.0423 55.4179 30.5987 50.9452C30.2177 47.1709 30.3912 45.6414 31.8754 45.3445C32.1933 45.2876 32.5174 45.2724 32.8393 45.2993C35.4126 45.4604 36.3253 52.2599 36.3253 54.9118C36.3253 56.4526 36.5897 59.4608 36.8115 61.7169C36.9736 63.3482 37.1129 64.5866 37.1129 64.5866C37.1129 64.5866 37.5622 60.8405 37.2267 52.7603C37.1499 50.9905 37.2665 49.7239 37.9659 49.2121C38.3498 48.9294 38.9043 48.8813 39.7004 49.0962C41.9495 49.7012 42.6803 57.9878 42.6803 61.1204C42.6803 64.2529 44.4801 69.619 44.8185 73.8429C45.1569 78.0667 46.6297 83.2575 46.6297 83.2575C46.6297 83.2575 47.4628 83.594 48.023 83.4837C48.5831 83.3734 52.4672 77.6681 52.4672 77.6681C54.2756 73.7637 57.7957 72.5791 59.7121 73.0173C60.5936 73.2181 61.1623 73.7581 61.0258 74.5384Z" fill="white"/>
<path opacity="0.4" d="M61.0263 74.5386C60.9381 75.0899 57.8758 79.1243 56.0759 82.1438C54.2761 85.1632 52.59 90.419 52.1379 91.1909C51.6858 91.9627 46.1667 96.7831 44.6541 98.7989C43.1414 100.815 40.4402 101.705 37.7418 103.605C36.0073 104.827 30.6021 111.128 26.9597 115.48C27.3606 113.902 28.2591 111.886 30.6077 109.949C34.6852 106.582 34.9297 103.942 37.1219 101.705C39.3142 99.469 43.1755 100.139 44.5631 97.4645C45.9506 94.7899 50.7901 92.3189 51.8023 89.9695C52.8146 87.6201 50.7901 87.1225 52.59 84.2953C54.3898 81.4681 56.1357 80.7811 55.8797 79.6728C55.6238 78.5645 54.8675 76.8851 56.4285 75.4857C57.4038 74.6149 58.5497 73.5208 59.7212 73.0175C60.5941 73.2182 61.1628 73.7582 61.0263 74.5386Z" fill="#F0792E"/>
<path opacity="0.4" d="M31.8529 87.8091C31.1051 87.4359 31.7051 86.6923 31.179 86.0732C30.653 85.454 29.4531 89.4517 29.1887 89.4659C28.9242 89.48 28.1196 87.4331 27.8011 87.2295C27.4826 87.026 27.295 87.8826 26.8429 89.4659C26.3908 91.0491 24.7302 91.852 23.7663 92.9829C22.8024 94.1138 17.0048 100.263 15.5802 102.573C14.1557 104.883 5.35825 109.454 4.67584 109.946C8.84424 106.432 14.6533 101.465 16.2569 99.5901C18.8416 96.5707 22.4413 92.9829 22.4413 92.9829C22.2224 88.7901 22.6688 84.8179 22.2736 83.3082C22.0688 82.5194 21.7049 78.0326 21.4205 76.6529C20.7296 73.1273 17.7241 69.4746 17.3858 68.0355C17.0474 66.5965 13.0809 60.4699 15.0172 59.339C15.3693 59.1187 15.7877 59.0276 16.2001 59.0817C15.7594 59.3927 15.33 59.8394 15.7309 60.4953C16.4446 61.6432 17.2294 62.8504 17.2294 64.1198C17.2294 65.3892 19.4046 67.176 20.2491 68.3607C21.0935 69.5453 20.3059 69.1268 20.8689 70.7497C21.4319 72.3725 22.1058 72.0332 22.4413 73.673C22.7768 75.3128 24.6535 76.3589 24.3549 78.4029C24.0564 80.447 25.2534 83.2912 25.2534 83.2912C25.2534 83.2912 26.2287 80.5347 25.8733 79.0504C25.5179 77.5661 25.9301 75.6945 25.5889 75.1912C25.3046 74.7389 24.5255 71.6685 24.1672 69.7601C25.3387 71.6063 26.4874 73.6815 26.4874 73.6815C26.9367 71.8919 23.6753 65.5165 22.774 59.4775C21.8726 53.4386 19.288 50.1958 22.774 49.8226C23.0604 49.7906 23.3504 49.8156 23.627 49.8961C25.1141 52.6583 24.0791 54.7024 23.7493 55.9011C23.3882 57.2073 25.5378 60.5604 25.8562 62.8702C26.1406 65.0274 26.7263 64.804 26.8031 64.7644C26.7377 64.8238 26.1832 65.3864 26.5187 66.9866C26.8685 68.683 29.3621 72.7117 29.3621 73.837C29.3621 74.9622 29.1574 76.814 29.1574 77.3625C29.1574 77.911 31.1478 81.5807 31.3866 82.542C31.6254 83.5032 31.2928 80.6902 31.8359 79.7148C32.3789 78.7394 32.6661 75.3354 32.7372 75.5192C33.6727 77.8827 32.6036 88.1766 31.8529 87.8091Z" fill="#F0792E"/>
<path opacity="0.4" d="M33.4643 62.5454C32.8273 63.5038 32.8444 70.9846 31.7582 71.0101C31.2322 71.0101 30.9763 69.13 30.763 66.7692C31.3317 68.409 31.7867 69.7293 31.7867 69.7293C31.8975 66.6533 30.9336 63.7922 30.7744 61.0045C30.7062 59.8878 31.0587 55.4123 30.6152 50.9396C30.2342 47.1653 30.4076 45.6357 31.8919 45.3389C32.2046 46.3454 32.9723 47.5328 33.1685 48.6354C33.4358 50.1565 32.9126 51.4146 32.4634 51.604C32.0141 51.7934 31.9374 52.7745 32.5003 52.9187C33.0633 53.0629 32.5003 60.2016 32.7619 61.1176C33.0235 62.0336 34.104 61.6011 33.4643 62.5454Z" fill="#F0792E"/>
<path opacity="0.4" d="M39.3075 54.1709C38.1388 54.6827 38.0763 55.5987 37.7265 56.9133C37.3768 58.228 38.227 60.1477 37.7265 63.1643C37.2261 66.181 39.0516 68.1261 37.7265 71.5018C36.4015 74.8775 37.0242 68.6746 36.8024 65.8474C36.726 64.4704 36.7317 63.0902 36.8195 61.714C36.9816 63.3453 37.1209 64.5836 37.1209 64.5836C37.1209 64.5836 37.5702 60.8375 37.2346 52.7573C37.1579 50.9875 37.2744 49.7209 37.9739 49.2092C39.1738 50.292 40.3026 53.7355 39.3075 54.1709Z" fill="#F0792E"/>
<path d="M23.4535 119.724C23.4535 119.724 35.0403 105.52 37.7415 103.608C40.4427 101.697 43.1439 100.812 44.6538 98.8021C46.1636 96.792 51.6883 91.9772 52.1376 91.1941C52.5868 90.4109 54.2758 85.1551 56.0757 82.147C57.8755 79.1388 60.9379 75.0789 61.026 74.5417C61.4184 72.0792 55.1203 71.969 52.4759 77.6743C52.4759 77.6743 48.5947 83.3768 48.0317 83.4899C47.4687 83.603 46.6385 83.2637 46.6385 83.2637C46.6385 83.2637 45.1656 78.0758 44.8272 73.8491C44.4889 69.6224 42.689 64.2507 42.689 61.1266C42.689 58.0025 41.9583 49.7074 39.7091 49.1024C37.46 48.4974 37.1188 50.0297 37.2354 52.7778C37.5709 60.858 37.1217 64.6041 37.1217 64.6041C37.1217 64.6041 36.334 57.5841 36.334 54.9293C36.334 52.2745 35.4213 45.4751 32.848 45.3168C30.4852 45.1669 30.1554 46.4872 30.6075 50.9712C31.0596 55.4552 30.6984 59.9193 30.7667 61.0361C30.9344 63.8322 31.904 66.6905 31.7789 69.7609C31.7789 69.7609 28.8531 61.3386 28.6285 60.5894C26.9992 55.0989 25.8704 49.4445 22.7768 49.7838C19.2908 50.157 21.8783 53.3998 22.7768 59.4387C23.6753 65.4777 26.9395 71.853 26.4902 73.6427C26.4902 73.6427 23.7919 68.7714 22.4469 67.3125C20.7409 65.4777 18.1648 57.4823 15.0143 59.3285C13.078 60.4594 17.0559 66.6057 17.3914 68.0448C17.7269 69.4838 20.7352 73.1338 21.4262 76.6621C21.7105 78.0418 22.0659 82.5286 22.2792 83.3174C22.6744 84.8272 22.228 88.7994 22.4469 92.9922C22.4469 92.9922 18.8472 96.5714 16.2626 99.5909C13.6779 102.61 0.174706 113.685 0.174706 113.685" stroke="#434B53" stroke-width="0.346552" stroke-linecap="round" stroke-linejoin="round"/>
<path d="M46.6386 83.2606C47.1576 84.5344 47.1576 85.9591 46.6386 87.2329" stroke="#434B53" stroke-width="0.346552" stroke-linecap="round" stroke-linejoin="round"/>
<path d="M47.5848 83.4979C47.9076 83.7336 48.1467 84.0651 48.2679 84.4447C48.389 84.8242 48.3857 85.2322 48.2587 85.6098" stroke="#434B53" stroke-width="0.346552" stroke-linecap="round" stroke-linejoin="round"/>
<path d="M37.1221 64.5835C37.1221 64.5835 38.0234 70.9024 37.6282 72.0757" stroke="#434B53" stroke-width="0.346552" stroke-linecap="round" stroke-linejoin="round"/>
<path d="M31.7788 69.7293C31.8748 70.34 31.8748 70.9619 31.7788 71.5726" stroke="#434B53" stroke-width="0.346552" stroke-linecap="round" stroke-linejoin="round"/>
<path d="M26.4925 73.6422C26.4925 73.6422 26.6593 74.595 26.4925 74.8184" stroke="#434B53" stroke-width="0.346552" stroke-linecap="round" stroke-linejoin="round"/>
<path d="M55.0049 79.011C55.0049 79.011 56.0228 79.5595 56.3555 80.3539" stroke="#434B53" stroke-width="0.346552" stroke-linecap="round" stroke-linejoin="round"/>
<path d="M31.8161 52.7571C32.1461 52.8359 32.4906 52.8309 32.8181 52.7424C33.1456 52.654 33.4454 52.485 33.6899 52.2511" stroke="#434B53" stroke-width="0.346552" stroke-linecap="round" stroke-linejoin="round"/>
<path d="M32.1596 61.8444C32.1596 61.8444 34.1841 62.5145 34.9177 61.8444" stroke="#434B53" stroke-width="0.346552" stroke-linecap="round" stroke-linejoin="round"/>
<path d="M38.7533 63.8007C38.7533 63.8007 40.1011 63.2974 41.0024 63.5773" stroke="#434B53" stroke-width="0.346552" stroke-linecap="round" stroke-linejoin="round"/>
<path d="M25.8722 65.5902C25.8722 65.5902 26.9413 64.1907 27.7858 64.5837" stroke="#434B53" stroke-width="0.346552" stroke-linecap="round" stroke-linejoin="round"/>
<path d="M21.4851 69.7293C21.4851 69.7293 20.5297 70.176 20.2482 70.6509" stroke="#434B53" stroke-width="0.346552" stroke-linecap="round" stroke-linejoin="round"/>
<path d="M22.4409 92.9834C22.6753 92.7218 22.8829 92.4377 23.0607 92.1352C23.2285 91.7988 23.0039 88.2195 23.0607 85.9153" stroke="#434B53" stroke-width="0.346552" stroke-linecap="round" stroke-linejoin="round"/>
<path d="M34.2402 107.074C32.9152 108.55 28.852 111.224 27.2227 112.844" stroke="#434B53" stroke-width="0.346552" stroke-linecap="round" stroke-linejoin="round"/>
<path d="M39.5941 73.6422C38.9202 75.5449 39.651 77.9481 39.5941 79.0139C39.5373 80.0798 39.3098 84.9511 39.3098 84.9511" stroke="#434B53" stroke-width="0.346552" stroke-linecap="round" stroke-linejoin="round"/>
<path d="M33.465 73.6422C32.5665 75.152 32.848 77.1649 33.1295 78.1658C33.411 79.1666 33.1608 83.2548 33.1608 83.2548" stroke="#434B53" stroke-width="0.346552" stroke-linecap="round" stroke-linejoin="round"/>
<path d="M23.7911 78.4515C23.7166 79.4361 23.9132 80.4223 24.3598 81.3042" stroke="#434B53" stroke-width="0.346552" stroke-linecap="round" stroke-linejoin="round"/>
<path d="M29.3587 75.4884C28.8526 77.3346 29.5293 78.1715 29.5862 78.4514" stroke="#434B53" stroke-width="0.346552" stroke-linecap="round" stroke-linejoin="round"/>
<path opacity="0.3" d="M75.0445 63.2973L74.0863 57.7673C74.044 57.5216 74.0521 57.27 74.1101 57.0275C74.1681 56.785 74.2748 56.5566 74.4238 56.3562C74.5728 56.1558 74.761 55.9873 74.9771 55.8611C75.1932 55.7348 75.4328 55.6533 75.6814 55.6214L77.8282 55.3387C77.8282 55.3387 77.1116 53.894 79.4176 49.6842C81.7236 45.4745 92.81 34.2929 101.215 53.0769C109.62 71.861 117.3 110.139 117.3 110.139C117.3 110.139 94.6127 83.8682 93.8905 82.5224C93.1682 81.1767 86.2617 81.9824 84.6665 78.3721C83.0714 74.7617 79.7219 64.4593 79.7219 64.4593L77.1287 64.8127C76.6517 64.8769 76.1682 64.7549 75.7796 64.4724C75.3911 64.1899 75.1276 63.7688 75.0445 63.2973Z" fill="black" fill-opacity="0.7"/>
<path d="M95.0392 50.6084L90.686 51.3944L84.6353 52.4886L76.7108 53.922C76.5588 53.9497 76.4027 53.9473 76.2517 53.915C76.1006 53.8826 75.9574 53.821 75.8304 53.7335C75.7033 53.6461 75.5949 53.5345 75.5112 53.4053C75.4276 53.2761 75.3705 53.1317 75.3431 52.9805L73.6029 43.4669C73.5482 43.1618 73.617 42.8476 73.7944 42.5928C73.9718 42.3381 74.2433 42.1634 74.5498 42.107L79.1589 41.2588L85.8636 40.0488L92.8783 38.7794C93.0302 38.7516 93.1863 38.754 93.3373 38.7863C93.4884 38.8187 93.6316 38.8803 93.7586 38.9678C93.8857 39.0553 93.9941 39.1668 94.0778 39.296C94.1614 39.4252 94.2185 39.5696 94.2459 39.7208L95.9861 49.2344C96.016 49.3866 96.0152 49.5431 95.9837 49.695C95.9522 49.8468 95.8905 49.9909 95.8024 50.1188C95.7142 50.2467 95.6014 50.3559 95.4703 50.44C95.3393 50.524 95.1928 50.5813 95.0392 50.6084Z" fill="#F0792E"/>
<path opacity="0.3" d="M91.9591 44.2925L90.6852 51.3945L84.6345 52.4886C82.883 51.7225 79.9941 50.388 79.4169 49.6614C78.7288 48.8133 78.8255 43.8147 79.1582 41.2589L85.8629 40.0489C88.2257 41.6689 91.9591 44.2925 91.9591 44.2925Z" fill="black" fill-opacity="0.7"/>
<path opacity="0.3" d="M77.9135 53.7044L76.7108 53.9221C76.5588 53.9498 76.4028 53.9474 76.2517 53.9151C76.1006 53.8828 75.9574 53.8211 75.8304 53.7336C75.7033 53.6462 75.5949 53.5346 75.5112 53.4054C75.4276 53.2762 75.3705 53.1318 75.3431 52.9806L73.6029 43.467C73.5482 43.162 73.617 42.8477 73.7944 42.593C73.9718 42.3382 74.2433 42.1635 74.5498 42.1071L75.7497 41.8894C75.4434 41.9458 75.1721 42.1206 74.9951 42.3755C74.8182 42.6304 74.7501 42.9446 74.8057 43.2493L76.5458 52.7629C76.5732 52.9141 76.6304 53.0585 76.714 53.1877C76.7976 53.3169 76.9061 53.4285 77.0331 53.5159C77.1602 53.6034 77.3034 53.6651 77.4544 53.6974C77.6055 53.7297 77.7615 53.7321 77.9135 53.7044Z" fill="black" fill-opacity="0.7"/>
<path d="M95.0392 50.6084L90.686 51.3944L84.6353 52.4886L76.7108 53.922C76.5588 53.9497 76.4027 53.9473 76.2517 53.915C76.1006 53.8826 75.9574 53.821 75.8304 53.7335C75.7033 53.6461 75.5949 53.5345 75.5112 53.4053C75.4276 53.2761 75.3705 53.1317 75.3431 52.9805L73.6029 43.4669C73.5482 43.1618 73.617 42.8476 73.7944 42.5928C73.9718 42.3381 74.2433 42.1634 74.5498 42.107L79.1589 41.2588L85.8636 40.0488L92.8783 38.7794C93.0302 38.7516 93.1863 38.754 93.3373 38.7863C93.4884 38.8187 93.6316 38.8803 93.7586 38.9678C93.8857 39.0553 93.9941 39.1668 94.0778 39.296C94.1614 39.4252 94.2185 39.5696 94.2459 39.7208L95.9861 49.2344C96.016 49.3866 96.0152 49.5431 95.9837 49.695C95.9522 49.8468 95.8905 49.9909 95.8024 50.1188C95.7142 50.2467 95.6014 50.3559 95.4703 50.44C95.3393 50.524 95.1928 50.5813 95.0392 50.6084V50.6084Z" stroke="#434B53" stroke-width="0.346552" stroke-linecap="round" stroke-linejoin="round"/>
<path d="M93.7464 38.277L75.492 41.6108C74.8548 41.7271 74.4332 42.335 74.5502 42.9685L76.3001 52.4415C76.4171 53.075 77.0285 53.4942 77.6656 53.3778L95.9201 50.044C96.5572 49.9277 96.9789 49.3198 96.8618 48.6863L95.112 39.2133C94.9949 38.5798 94.3836 38.1606 93.7464 38.277Z" stroke="#434B53" stroke-width="0.345302" stroke-linecap="round" stroke-linejoin="round"/>
<path d="M93.2347 39.4209L76.0325 42.5294C75.7235 42.5852 75.5185 42.8795 75.5746 43.1868L77.288 52.561C77.3441 52.8682 77.6401 53.072 77.9492 53.0162L95.1514 49.9078C95.4604 49.852 95.6654 49.5576 95.6092 49.2504L93.8959 39.8762C93.8397 39.5689 93.5437 39.3651 93.2347 39.4209Z" stroke="#434B53" stroke-width="0.346552" stroke-linecap="round" stroke-linejoin="round"/>
<path d="M96.2425 50.391L95.0483 50.6058C95.3533 50.5488 95.6232 50.3741 95.799 50.1198C95.9748 49.8655 96.0423 49.5523 95.9866 49.2488L94.2464 39.7352C94.219 39.5839 94.1619 39.4396 94.0783 39.3104C93.9947 39.1811 93.8862 39.0696 93.7592 38.9821C93.6321 38.8947 93.4889 38.833 93.3379 38.8007C93.1868 38.7683 93.0308 38.766 92.8788 38.7937L94.0815 38.576C94.3883 38.5216 94.7043 38.59 94.9606 38.7664C95.2168 38.9428 95.3925 39.2128 95.4492 39.5175L97.1893 49.0311C97.2441 49.3361 97.1753 49.6503 96.9979 49.9051C96.8205 50.1599 96.5489 50.3346 96.2425 50.391V50.391Z" stroke="#434B53" stroke-width="0.346552" stroke-linecap="round" stroke-linejoin="round"/>
<path d="M130.826 80.8653L119.051 112.27C119.051 112.27 114.126 102.94 109.577 94.3059C105.943 87.4018 102.548 80.9275 102.09 79.9747C101.064 77.8289 97.558 73.3336 97.558 73.3336C97.558 73.3336 93.9611 71.2867 92.3148 67.7216C90.6685 64.1564 88.8572 51.4028 88.8572 51.4028C88.8572 51.4028 84.1287 49.633 82.9999 48.8583C81.871 48.0837 80.8417 40.9252 80.8417 40.1081C80.8417 39.291 81.9791 37.6541 81.9791 37.6541C81.9791 37.6541 81.726 36.4553 83.1705 35.2453C83.6426 34.8599 84.166 34.5412 84.7258 34.2982H84.7542C84.7542 34.2982 84.5666 31.5925 85.9826 30.8037C86.0502 30.7657 86.1205 30.7326 86.193 30.7048C87.4554 30.2213 91.5954 29.5965 91.5954 29.5965C92.1807 29.0852 92.862 28.6941 93.6 28.4458C94.3336 28.2451 98.3598 29.1752 100.609 29.7265C101.513 29.9471 102.13 30.1054 102.13 30.1054C102.13 30.1054 105.935 30.2779 106.654 30.7048C107.156 31.0319 107.614 31.4204 108.019 31.8611L108.09 31.9431C108.09 31.9431 111.482 32.6442 112.201 33.8797C112.921 35.1152 113.228 41.2446 112.716 45.2282C112.204 49.2117 113.123 55.9716 113.123 55.9716C113.123 55.9716 114.183 61.1935 115.005 63.1754C115.827 65.1573 130.826 80.8653 130.826 80.8653Z" fill="white"/>
<path opacity="0.4" d="M109.577 94.3064C105.943 87.4023 102.548 80.928 102.09 79.9752C101.064 77.8293 97.558 73.3341 97.558 73.3341C97.558 73.3341 93.9611 71.2872 92.3148 67.722C90.6685 64.1569 88.8572 51.4033 88.8572 51.4033C88.8572 51.4033 84.1287 49.6335 82.9999 48.8588C81.871 48.0842 80.8417 40.9256 80.8417 40.1086C80.8417 39.2915 81.9791 37.6545 81.9791 37.6545C81.9791 37.6545 81.726 36.4558 83.1705 35.2457C83.1705 35.5681 83.1705 36.1109 83.1705 36.9647C83.1363 38.5847 85.0556 48.3527 85.5305 48.0559C86.0053 47.759 86.7389 47.0437 86.5456 46.4133C86.5456 46.4133 85.6158 42.622 84.7372 34.2986H84.7656C84.7656 34.2986 84.5779 31.593 85.9939 30.8042C85.7503 31.3901 85.5942 32.0082 85.5305 32.6391C85.4992 33.9565 87.0744 45.2456 87.6914 45.5312C88.3085 45.8167 89.8723 44.3126 89.8723 44.3126C89.8723 44.3126 89.3378 41.1094 89.5283 39.7439C89.5283 39.7439 94.2853 42.6276 94.4274 45.9015C94.4416 46.2606 95.3544 51.392 95.3544 51.392C95.3544 51.392 91.2627 59.1386 95.4397 66.2066C95.4397 66.2066 93.3157 64.94 92.8095 62.9271C92.8095 62.9271 92.1925 68.8473 96.5799 71.9742C96.5799 71.9742 99.7275 68.901 102.835 68.5108C102.835 68.5108 102.892 68.7144 100.811 70.3457C98.7295 71.977 98.448 72.7036 98.448 72.7036C98.448 72.7036 100.7 70.4418 102.5 70.3457C102.5 70.3457 100.643 72.4802 100.7 72.9269C100.757 73.3736 106.009 82.302 107.919 88.5304C108.698 91.1314 109.23 93.0087 109.577 94.3064Z" fill="#F0792E"/>
<path opacity="0.4" d="M94.8319 35.0531C94.8319 35.0531 96.3475 36.184 96.7967 35.0531C97.0547 34.448 97.2186 33.8074 97.2829 33.1532C97.2829 33.1532 97.8658 32.8875 98.4203 34.2841C98.9748 35.6808 104.534 36.037 105.836 36.7523C107.138 37.4676 107.656 36.7523 107.656 36.7523C107.959 37.0001 108.167 37.3445 108.245 37.7271C108.322 38.1098 108.265 38.5074 108.082 38.8529C107.451 40.1506 109.239 40.2665 109.933 39.3109C110.627 38.3553 110.09 42.0448 108.375 42.4209C108.375 42.4209 108.423 44.0324 107.32 45.1378H108.256C108.256 45.1378 105.765 47.1027 105.102 47.2102C104.44 47.3176 107.567 48.4174 106.987 48.6492C106.407 48.8811 104.764 48.8613 104.764 48.8613C104.764 48.8613 105.827 49.5935 105.836 50.077C105.844 50.5604 105.333 50.9251 105.102 50.5208C104.872 50.1165 103.035 44.3264 102.12 42.1862C101.204 40.046 97.4223 38.3525 94.8319 35.0531Z" fill="#F0792E"/>
<path opacity="0.4" d="M108.016 31.8414C104.825 30.9735 100.546 29.738 100.546 29.738L100.606 29.7069C101.51 29.9274 102.127 30.0857 102.127 30.0857C102.127 30.0857 105.932 30.2582 106.651 30.6851C107.153 31.0122 107.611 31.4007 108.016 31.8414Z" fill="#F0792E"/>
<path d="M103.531 36.8315C100.755 36.2661 98.7736 38.624 98.7736 38.624C98.7736 38.624 101.532 41.1063 102.143 42.1721C102.754 43.238 103.769 46.8314 103.769 46.8314C104.932 47.018 107.076 45.8249 107.591 42.6584C108.106 39.4919 106.292 37.3941 103.531 36.8315Z" fill="#F0792E"/>
<path d="M119.051 112.27C119.051 112.27 103.128 82.1207 102.09 79.9749C101.053 77.829 97.558 73.3337 97.558 73.3337C97.558 73.3337 93.9611 71.2868 92.3148 67.7217C90.6685 64.1566 88.8572 51.403 88.8572 51.403C88.8572 51.403 84.1287 49.6331 82.9999 48.8585C81.871 48.0838 80.8417 40.9253 80.8417 40.1082C80.8417 39.2912 81.9791 37.6542 81.9791 37.6542C81.9791 37.6542 81.5696 35.7176 84.7542 34.2842C84.7542 34.2842 84.5495 31.3184 86.193 30.6908C87.4554 30.2073 91.5954 29.5825 91.5954 29.5825C92.1807 29.0712 92.862 28.6801 93.6 28.4318C94.6265 28.1491 102.13 30.0914 102.13 30.0914C102.13 30.0914 105.935 30.2639 106.654 30.6908C107.18 31.0358 107.659 31.4473 108.079 31.915C108.079 31.915 111.471 32.6161 112.19 33.8516C112.909 35.0871 113.217 41.2165 112.705 45.2001C112.193 49.1836 113.111 55.9435 113.111 55.9435C113.111 55.9435 114.172 61.1654 114.994 63.1473C115.815 65.1291 130.826 80.8655 130.826 80.8655" stroke="#434B53" stroke-width="0.346552" stroke-linecap="round" stroke-linejoin="round"/>
<path d="M105.571 50.9876C105.571 50.9876 104.852 50.8349 103.928 47.4621C103.004 44.0892 102.759 42.5116 100.843 40.5128C99.4836 39.0992 96.373 36.7893 94.8318 35.0534C93.2907 33.3175 91.5875 31.9152 90.2568 32.9895C89.1934 33.8377 88.4996 36.0401 89.4351 39.4384C90.6378 43.8036 94.4309 45.8816 94.4309 45.8816L95.3579 51.3721C95.3579 51.3721 91.3345 59.3845 95.8697 66.9473" stroke="#434B53" stroke-width="0.346552" stroke-linecap="round" stroke-linejoin="round"/>
<path d="M98.7579 38.6242C98.7579 38.6242 100.748 36.2692 103.515 36.8318C106.282 37.3944 108.079 39.4894 107.575 42.6587C107.072 45.828 104.917 47.0182 103.754 46.8317" stroke="#434B53" stroke-width="0.346552" stroke-linecap="round" stroke-linejoin="round"/>
<path d="M91.5865 29.5768C91.171 30.6155 90.8513 31.6895 90.6312 32.7857" stroke="#434B53" stroke-width="0.346552" stroke-linecap="round" stroke-linejoin="round"/>
<path d="M89.9029 40.6483C89.9029 40.6483 90.1417 44.1399 90.6365 45.2115C91.1312 46.283 91.953 47.1538 92.3112 48.5334C92.6695 49.9131 92.7235 52.059 92.8259 52.3672C92.9283 52.6753 93.5225 52.7545 93.5225 52.7545C94.3755 52.7743 94.7196 52.3332 95.2115 51.6604" stroke="#434B53" stroke-width="0.346552" stroke-linecap="round" stroke-linejoin="round"/>
<path d="M84.7638 34.2784C84.7638 34.2784 85.5343 41.7366 86.1514 44.906C86.7684 48.0753 87.8574 48.5333 89.6459 49.5567C91.4344 50.5802 92.421 52.6667 92.5774 52.9805C92.7338 53.2943 93.3195 53.3282 93.3195 53.3282C93.6637 53.2998 93.9953 53.1863 94.2843 52.9982C94.5733 52.8102 94.8105 52.5533 94.9744 52.2511" stroke="#434B53" stroke-width="0.346552" stroke-linecap="round" stroke-linejoin="round"/>
<path d="M81.9821 37.6486C81.7888 37.9455 83.438 45.5196 84.2967 47.7164C85.1554 49.9131 85.252 50.2609 87.5239 50.8829C89.7958 51.5048 91.5217 52.5396 92.1359 52.1749" stroke="#434B53" stroke-width="0.346552" stroke-linecap="round" stroke-linejoin="round"/>
<path d="M97.7607 33.4586C97.7607 33.4586 98.9407 36.2689 98.1616 38.1179" stroke="#434B53" stroke-width="0.346552" stroke-linecap="round" stroke-linejoin="round"/>
<path d="M102.128 30.0855C104.062 30.8456 106.052 31.4572 108.08 31.9147" stroke="#434B53" stroke-width="0.346552" stroke-linecap="round" stroke-linejoin="round"/>
<path d="M109.943 39.7971C109.943 39.7971 109.038 41.4397 107.668 41.7931" stroke="#434B53" stroke-width="0.346552" stroke-linecap="round" stroke-linejoin="round"/>
<path d="M107.663 38.0076C107.663 38.0076 107.339 38.8558 106.995 39.0904" stroke="#434B53" stroke-width="0.346552" stroke-linecap="round" stroke-linejoin="round"/>
<path d="M108.802 44.7532C108.802 44.7532 106.746 46.2997 104.773 46.7011" stroke="#434B53" stroke-width="0.346552" stroke-linecap="round" stroke-linejoin="round"/>
<path d="M103.928 47.4646C103.928 47.4646 104.781 48.5361 106.996 48.6379" stroke="#434B53" stroke-width="0.346552" stroke-linecap="round" stroke-linejoin="round"/>
<path d="M97.2739 42.7747C97.2739 42.7747 99.287 40.8522 100.436 41.1179" stroke="#434B53" stroke-width="0.346552" stroke-linecap="round" stroke-linejoin="round"/>
<path d="M101.214 43.1644C101.214 43.1644 99.6903 44.2953 99.4116 44.2953" stroke="#434B53" stroke-width="0.346552" stroke-linecap="round" stroke-linejoin="round"/>
<path d="M85.5215 49.1611C85.5215 49.1611 86.0276 49.2544 86.4228 48.6465" stroke="#434B53" stroke-width="0.346552" stroke-linecap="round" stroke-linejoin="round"/>
<path d="M87.3216 46.4076C87.3216 46.4076 88.5442 45.6556 89.3432 45.5114" stroke="#434B53" stroke-width="0.346552" stroke-linecap="round" stroke-linejoin="round"/>
<path d="M98.0925 71.9085C98.3455 71.6852 100.708 69.7853 102.17 69.1124" stroke="#434B53" stroke-width="0.346552" stroke-linecap="round" stroke-linejoin="round"/>
<path d="M101.158 71.0095C100.991 70.9586 99.6485 72.3553 98.9405 72.915" stroke="#434B53" stroke-width="0.346552" stroke-linecap="round" stroke-linejoin="round"/>
<path d="M101.824 75.1515C101.824 75.1515 106.325 83.6332 107.337 87.0258" stroke="#434B53" stroke-width="0.346552" stroke-linecap="round" stroke-linejoin="round"/>
<path d="M115.006 63.1584C115.387 65.2421 116.623 66.7772 117.3 67.6084" stroke="#434B53" stroke-width="0.346552" stroke-linecap="round" stroke-linejoin="round"/>
<path opacity="0.4" d="M100.817 37.6486C100.163 38.0501 100.852 39.3619 101.215 40.032C101.579 40.702 103.206 41.7679 103.544 42.7744C103.883 43.7809 106.021 43.7526 106.672 42.7744C107.323 41.7962 107.241 39.8425 105.466 38.3554C103.692 36.8683 101.747 37.0832 100.817 37.6486Z" fill="white"/>
<path d="M88.3302 93.9922C85.4344 93.5028 82.4573 94.0034 79.8844 95.4123C77.3114 96.8212 75.2945 99.0553 74.1624 101.75C73.0304 104.445 72.85 107.442 73.6508 110.252C74.4515 113.062 76.1861 115.519 78.5717 117.223" stroke="#434B53" stroke-width="0.346552" stroke-linecap="round" stroke-linejoin="round"/>
<path d="M93.7462 96.2453C92.5407 95.3797 91.194 94.7274 89.7655 94.3172" stroke="#434B53" stroke-width="0.346552" stroke-linecap="round" stroke-linejoin="round"/>
<path d="M92.4391 118.026C94.1916 117.061 95.6958 115.707 96.8342 114.068C97.9726 112.429 98.7143 110.551 99.0012 108.579C99.2881 106.608 99.1125 104.598 98.4881 102.705C97.8637 100.813 96.8074 99.0893 95.4019 97.6702" stroke="#434B53" stroke-width="0.346552" stroke-linecap="round" stroke-linejoin="round"/>
<path d="M93.0676 122.103L93.841 122.782L92.6354 118.674" stroke="#434B53" stroke-width="0.346552" stroke-linecap="round" stroke-linejoin="round"/>
<path d="M83.9688 119.463C85.8805 119.789 87.8415 119.684 89.7067 119.155L92.1549 121.303" stroke="#434B53" stroke-width="0.346552" stroke-linecap="round" stroke-linejoin="round"/>
<path d="M80.989 118.586C81.4743 118.794 81.9718 118.972 82.4789 119.12" stroke="#434B53" stroke-width="0.346552" stroke-linecap="round" stroke-linejoin="round"/>
<path d="M87.1761 100.444C88.7866 100.718 90.2358 101.581 91.2383 102.864C92.2408 104.147 92.724 105.756 92.5929 107.375C92.4617 108.995 91.7257 110.507 90.5297 111.614C89.3336 112.72 87.7643 113.342 86.1304 113.356C84.4966 113.37 82.9167 112.775 81.7017 111.689C80.4867 110.603 79.7246 109.104 79.5655 107.487C79.4064 105.87 79.8617 104.252 80.8419 102.953C81.822 101.653 83.256 100.765 84.8616 100.464" stroke="#434B53" stroke-width="0.346552" stroke-linecap="round" stroke-linejoin="round"/>
<path d="M84.8618 113.955C82.968 113.634 81.2798 112.579 80.1686 111.021C79.0574 109.462 78.6141 107.529 78.9362 105.646" stroke="#434B53" stroke-width="0.346552" stroke-linecap="round" stroke-linejoin="round"/>
<path d="M92.8906 109.302C92.4446 110.528 91.6726 111.611 90.6566 112.435C89.6407 113.26 88.4189 113.795 87.1213 113.984" stroke="#434B53" stroke-width="0.346552" stroke-linecap="round" stroke-linejoin="round"/>
<path d="M79.4932 103.848C80.2273 102.261 81.5164 100.993 83.1207 100.28C84.7249 99.5679 86.5349 99.4593 88.2136 99.9749C89.8923 100.49 91.3254 101.595 92.246 103.083C93.1667 104.571 93.5122 106.341 93.2182 108.063" stroke="#434B53" stroke-width="0.346552" stroke-linecap="round" stroke-linejoin="round"/>
<path d="M90.425 104.258L90.507 104.17" stroke="#434B53" stroke-width="0.693103" stroke-linecap="round" stroke-linejoin="round"/>
<path d="M89.2649 105.502L89.8421 104.883" stroke="#434B53" stroke-width="0.693103" stroke-linecap="round" stroke-linejoin="round"/>
<path d="M82.1825 106.415L84.9718 110.102L88.7592 106.045" stroke="#434B53" stroke-width="0.693103" stroke-linecap="round" stroke-linejoin="round"/>
<path d="M102.236 72.884L106.552 59.2624C106.552 59.2624 106.242 58.5358 103.737 57.9139C101.232 57.2919 100.135 58.9514 98.7271 59.4179C97.3196 59.8844 95.5482 57.1562 93.717 57.0855C90.305 56.9611 89.4918 58.3295 87.2995 59.2624C85.1073 60.1954 85.1073 58.3295 82.7501 57.552C80.3929 56.7745 78.2007 59.4179 78.2007 59.4179L84.2628 72.2055C73.8986 75.7875 66.4177 86.0588 66.4177 98.1565C66.4177 113.243 78.0358 125.47 92.3664 125.47C106.697 125.47 118.315 113.243 118.315 98.1565C118.335 86.743 111.682 76.9665 102.236 72.884Z" fill="#FEF7F2" stroke="#434B53" stroke-width="0.346552" stroke-linejoin="round"/>
<path d="M98.6601 87.8832C99.5657 87.8832 100.3 87.1489 100.3 86.243C100.3 85.3377 99.5657 84.6028 98.6601 84.6028H85.6749C84.7693 84.6028 84.0353 85.3377 84.0353 86.243C84.0353 87.1489 84.7693 87.8832 85.6749 87.8832H89.3966C90.9356 87.8806 92.3337 88.7789 92.971 90.1794H85.6909C84.7859 90.1794 84.0513 90.9143 84.0513 91.8196C84.0513 92.7255 84.7859 93.4598 85.6909 93.4598H92.971C92.3279 94.8565 90.933 95.7522 89.3966 95.756H85.6749C85.0024 95.7567 84.3978 96.1673 84.1487 96.792C83.8995 97.4167 84.0558 98.1304 84.5432 98.5936L93.8234 107.369C94.1302 107.656 94.535 107.814 94.9545 107.811C95.4053 107.809 95.8364 107.625 96.1515 107.303C96.4499 106.988 96.6107 106.567 96.5985 106.133C96.5863 105.7 96.4019 105.288 96.0861 104.99L89.7898 99.0364C92.9838 98.8518 95.6775 96.5908 96.4141 93.4764H98.6601C99.5657 93.4764 100.3 92.7422 100.3 91.8362C100.3 90.9303 99.5657 90.1961 98.6601 90.1961H96.4141C96.2232 89.3792 95.8902 88.6014 95.4303 87.8998H98.6601V87.8832Z" fill="#F0792E"/>
<path d="M86.8704 70.5402L84.9483 67.6338" stroke="#434B53" stroke-width="0.346552" stroke-miterlimit="10"/>
<path d="M99.3284 66.4913L98.1769 70.6954" stroke="#434B53" stroke-width="0.346552" stroke-miterlimit="10"/>
<path d="M87.4049 66.5878L87.2607 65.3466" stroke="#434B53" stroke-width="0.346552" stroke-miterlimit="10"/>
<path d="M87.882 70.6954L87.5237 67.6166" stroke="#434B53" stroke-width="0.346552" stroke-miterlimit="10"/>
<path d="M101.394 65.5952L101.841 64.6481" stroke="#434B53" stroke-width="0.346552" stroke-miterlimit="10"/>
<path d="M99.0308 70.619L100.967 66.5026" stroke="#434B53" stroke-width="0.346552" stroke-miterlimit="10"/>
<path d="M103.928 88.3006C103.664 88.3004 103.411 88.2004 103.218 88.0208C103.026 87.8412 102.91 87.5955 102.893 87.3337C102.359 78.674 96.7344 72.9941 96.6719 72.9404C96.4769 72.7469 96.3673 72.4844 96.367 72.2105C96.3667 71.9367 96.4759 71.6739 96.6705 71.4801C96.865 71.2863 97.129 71.1772 97.4045 71.177C97.6799 71.1767 97.9441 71.2852 98.1391 71.4787C98.3921 71.7331 104.366 77.7749 104.963 87.2037C104.972 87.3389 104.954 87.4745 104.91 87.6027C104.866 87.731 104.797 87.8493 104.707 87.951C104.617 88.0526 104.507 88.1356 104.385 88.1951C104.263 88.2546 104.13 88.2895 103.994 88.2978L103.928 88.3006Z" fill="#F29A62" stroke="#434B53" stroke-width="0.346552" stroke-linejoin="round"/>
<path d="M109.273 86.2595C109.019 86.3269 108.748 86.2951 108.516 86.1706C108.284 86.046 108.108 85.8382 108.025 85.5895C105.258 77.3594 98.3575 73.308 98.295 73.2684C98.1716 73.2034 98.0627 73.1143 97.9747 73.0065C97.8868 72.8986 97.8216 72.7742 97.7832 72.6408C97.7447 72.5073 97.7338 72.3675 97.7509 72.2297C97.7681 72.0919 97.8131 71.959 97.8831 71.8388C97.9532 71.7187 98.0469 71.6139 98.1587 71.5307C98.2704 71.4475 98.398 71.3875 98.5336 71.3544C98.6692 71.3213 98.8101 71.3158 98.9479 71.3381C99.0858 71.3605 99.2176 71.4103 99.3356 71.4845C99.6456 71.6626 106.982 75.9741 109.993 84.9364C110.036 85.0646 110.053 85.2001 110.044 85.3351C110.034 85.47 109.998 85.6018 109.937 85.7229C109.877 85.8439 109.793 85.9519 109.69 86.0406C109.587 86.1293 109.468 86.1969 109.339 86.2397L109.273 86.2595Z" fill="#F29A62" stroke="#434B53" stroke-width="0.346552" stroke-linejoin="round"/>
<path d="M101.822 73.3532H83.8002C83.6233 73.3535 83.448 73.3191 83.2845 73.2519C83.1209 73.1846 82.9724 73.0859 82.8474 72.9613C82.7224 72.8368 82.6234 72.6889 82.5561 72.5261C82.4888 72.3634 82.4546 72.189 82.4553 72.0131C82.4553 71.6591 82.5967 71.3197 82.8484 71.0695C83.1001 70.8192 83.4415 70.6786 83.7974 70.6786H101.819C102.175 70.6786 102.516 70.8192 102.768 71.0695C103.019 71.3197 103.161 71.6591 103.161 72.0131C103.162 72.1885 103.128 72.3624 103.061 72.5248C102.994 72.6872 102.895 72.8348 102.771 72.9593C102.646 73.0838 102.499 73.1827 102.336 73.2502C102.173 73.3178 101.998 73.3528 101.822 73.3532Z" fill="#F29A62" stroke="#434B53" stroke-width="0.346552" stroke-linejoin="round"/>
<path d="M106.396 117.856H77.9169V125.58H106.396V117.856Z" fill="#F29A62" stroke="#434B53" stroke-width="0.346552" stroke-miterlimit="10"/>
<path d="M120.008 117.856H106.357V125.58H120.008V117.856Z" fill="#D26E2E" stroke="#434B53" stroke-width="0.346552" stroke-linejoin="round"/>
<path d="M78.125 119.329H85.1396" stroke="#434B53" stroke-width="0.346552" stroke-linejoin="round"/>
<path d="M82.1471 121.167H88.0272" stroke="#434B53" stroke-width="0.346552" stroke-linejoin="round"/>
<path d="M103.402 120.186H106.499H108.478" stroke="#434B53" stroke-width="0.346552" stroke-linejoin="round"/>
<path d="M78.125 123.375H80.6015" stroke="#434B53" stroke-width="0.346552" stroke-linejoin="round"/>
<path d="M81.6309 123.375H83.6952" stroke="#434B53" stroke-width="0.346552" stroke-linejoin="round"/>
<path d="M106.499 122.762H95.5602" stroke="#434B53" stroke-width="0.346552" stroke-linejoin="round"/>
<path d="M95.5638 117.856H89.206V125.58H95.5638V117.856Z" fill="white" stroke="#434B53" stroke-width="0.346552" stroke-linejoin="round"/>
<path d="M119.934 121.837H115.7" stroke="#434B53" stroke-width="0.346552" stroke-linejoin="round"/>
<path d="M106.359 124.192H109.498" stroke="#434B53" stroke-width="0.346552" stroke-linejoin="round"/>
<path d="M106.433 121.634H112.416" stroke="#434B53" stroke-width="0.346552" stroke-linejoin="round"/>
<path d="M119.934 120.302H114.242" stroke="#434B53" stroke-width="0.346552" stroke-linejoin="round"/>
<path d="M110.738 124.192H112.271" stroke="#434B53" stroke-width="0.346552" stroke-linejoin="round"/>
<path d="M104.255 110.271H75.7753V117.995H104.255V110.271Z" fill="#F29A62" stroke="#434B53" stroke-width="0.346552" stroke-miterlimit="10"/>
<path d="M117.866 110.271H104.215V117.995H117.866V110.271Z" fill="#A3A3A3" stroke="#434B53" stroke-width="0.346552" stroke-linejoin="round"/>
<path d="M75.9833 111.741H82.998" stroke="#434B53" stroke-width="0.346552" stroke-linejoin="round"/>
<path d="M80.0075 113.579H85.8876" stroke="#434B53" stroke-width="0.346552" stroke-linejoin="round"/>
<path d="M101.261 112.601H104.357H106.336" stroke="#434B53" stroke-width="0.346552" stroke-linejoin="round"/>
<path d="M75.9833 115.787H78.4599" stroke="#434B53" stroke-width="0.346552" stroke-linejoin="round"/>
<path d="M79.4912 115.787H81.5526" stroke="#434B53" stroke-width="0.346552" stroke-linejoin="round"/>
<path d="M104.357 115.174H93.4186" stroke="#434B53" stroke-width="0.346552" stroke-linejoin="round"/>
<path d="M93.4222 110.268H87.0644V117.992H93.4222V110.268Z" fill="white" stroke="#434B53" stroke-width="0.346552" stroke-linejoin="round"/>
<path d="M117.793 114.252H113.559" stroke="#434B53" stroke-width="0.346552" stroke-linejoin="round"/>
<path d="M104.221 116.604H107.357" stroke="#434B53" stroke-width="0.346552" stroke-linejoin="round"/>
<path d="M104.292 114.045H110.277" stroke="#434B53" stroke-width="0.346552" stroke-linejoin="round"/>
<path d="M117.793 112.716H112.1" stroke="#434B53" stroke-width="0.346552" stroke-linejoin="round"/>
<path d="M108.596 116.604H110.129" stroke="#434B53" stroke-width="0.346552" stroke-linejoin="round"/>
<path d="M106.538 102.683H78.0582V110.407H106.538V102.683Z" fill="#F29A62" stroke="#434B53" stroke-width="0.346552" stroke-miterlimit="10"/>
<path d="M120.149 102.683H106.498V110.407H120.149V102.683Z" fill="#D26E2E" stroke="#434B53" stroke-width="0.346552" stroke-linejoin="round"/>
<path d="M78.2663 104.153H85.2809" stroke="#434B53" stroke-width="0.346552" stroke-linejoin="round"/>
<path d="M82.2904 105.993H88.1705" stroke="#434B53" stroke-width="0.346552" stroke-linejoin="round"/>
<path d="M103.544 105.012H106.64H108.619" stroke="#434B53" stroke-width="0.346552" stroke-linejoin="round"/>
<path d="M78.2663 108.198H80.7429" stroke="#434B53" stroke-width="0.346552" stroke-linejoin="round"/>
<path d="M81.7722 108.198H83.8365" stroke="#434B53" stroke-width="0.346552" stroke-linejoin="round"/>
<path d="M106.64 107.585H95.7016" stroke="#434B53" stroke-width="0.346552" stroke-linejoin="round"/>
<path d="M95.7052 102.683H89.3474V110.407H95.7052V102.683Z" fill="white" stroke="#434B53" stroke-width="0.346552" stroke-linejoin="round"/>
<path d="M120.076 106.664H115.842" stroke="#434B53" stroke-width="0.346552" stroke-linejoin="round"/>
<path d="M106.502 109.018H109.641" stroke="#434B53" stroke-width="0.346552" stroke-linejoin="round"/>
<path d="M106.575 106.46H112.557" stroke="#434B53" stroke-width="0.346552" stroke-linejoin="round"/>
<path d="M120.076 105.129H114.383" stroke="#434B53" stroke-width="0.346552" stroke-linejoin="round"/>
<path d="M110.881 109.018H112.414" stroke="#434B53" stroke-width="0.346552" stroke-linejoin="round"/>
<path d="M118.22 109.312H82.8479V125.583H118.22V109.312Z" fill="#D26E2E" stroke="#434B53" stroke-width="0.346552" stroke-linejoin="round"/>
<path d="M114.903 109.398V116.183" stroke="#434B53" stroke-width="0.346552" stroke-linejoin="round"/>
<path d="M115.854 109.446V111.51" stroke="#434B53" stroke-width="0.346552" stroke-linejoin="round"/>
<path d="M115.569 125.538V119.392" stroke="#434B53" stroke-width="0.346552" stroke-linejoin="round"/>
<path d="M116.558 125.631V124.551" stroke="#434B53" stroke-width="0.346552" stroke-linejoin="round"/>
<path d="M117.502 125.583V122.536" stroke="#434B53" stroke-width="0.346552" stroke-linejoin="round"/>
<path d="M115.52 118.781V117.514" stroke="#434B53" stroke-width="0.346552" stroke-linejoin="round"/>
<path d="M115.805 112.026V112.776" stroke="#434B53" stroke-width="0.346552" stroke-linejoin="round"/>
<path d="M114.119 109.312H82.8479V125.583H114.119V109.312Z" fill="#F29A62" stroke="#434B53" stroke-width="0.346552" stroke-linejoin="round"/>
<path d="M112.07 122.991V111.908C111.775 111.908 111.492 111.792 111.284 111.584C111.075 111.377 110.958 111.096 110.958 110.803H86.1693C86.1693 111.096 86.0522 111.377 85.8437 111.584C85.6352 111.792 85.3524 111.908 85.0576 111.908C85.0052 111.906 84.953 111.902 84.9012 111.894V123.008C84.9528 122.998 85.0051 122.992 85.0576 122.991C85.2038 122.991 85.3486 123.02 85.4837 123.075C85.6188 123.131 85.7414 123.213 85.8447 123.316C85.948 123.419 86.0298 123.541 86.0855 123.675C86.1412 123.81 86.1697 123.954 86.1693 124.099H110.958C110.958 123.954 110.986 123.81 111.042 123.675C111.097 123.541 111.179 123.419 111.283 123.316C111.386 123.213 111.509 123.131 111.644 123.075C111.779 123.02 111.923 122.991 112.07 122.991ZM98.484 122.038C97.5713 122.038 96.6791 121.769 95.9202 121.265C95.1613 120.761 94.5698 120.044 94.2205 119.206C93.8712 118.367 93.7798 117.445 93.9579 116.554C94.136 115.664 94.5755 114.847 95.2209 114.205C95.8663 113.563 96.6885 113.126 97.5837 112.949C98.4789 112.772 99.4068 112.863 100.25 113.21C101.093 113.558 101.814 114.146 102.321 114.9C102.828 115.655 103.099 116.542 103.099 117.45C103.099 118.667 102.613 119.834 101.747 120.694C100.882 121.555 99.708 122.038 98.484 122.038Z" fill="white" stroke="#434B53" stroke-width="0.346552" stroke-linejoin="round"/>
<path d="M99.9166 109.267H97.0874V125.561H99.9166V109.267Z" fill="white" stroke="#434B53" stroke-width="0.346552" stroke-linejoin="round"/>
<path d="M80.5531 121.453H68.5142V125.58H80.5531V121.453Z" fill="#FFA83D" stroke="#434B53" stroke-width="0.346552" stroke-linejoin="round"/>
<path d="M71.5779 121.453H70.0453V125.58H71.5779V121.453Z" fill="#434B53" stroke="#434B53" stroke-width="0.346552" stroke-linejoin="round"/>
<path d="M73.0606 121.453H72.2929V125.58H73.0606V121.453Z" fill="#434B53" stroke="#434B53" stroke-width="0.346552" stroke-linejoin="round"/>
<path d="M81.5561 117.314H69.5173V121.442H81.5561V117.314Z" fill="#FDB62F" stroke="#434B53" stroke-width="0.346552" stroke-linejoin="round"/>
<path d="M72.5829 117.314H71.0503V121.442H72.5829V117.314Z" fill="#434B53" stroke="#434B53" stroke-width="0.346552" stroke-linejoin="round"/>
<path d="M74.0637 117.314H73.296V121.442H74.0637V117.314Z" fill="#434B53" stroke="#434B53" stroke-width="0.346552" stroke-linejoin="round"/>
<path d="M80.5531 113.172H68.5142V117.3H80.5531V113.172Z" fill="#FFA83D" stroke="#434B53" stroke-width="0.346552" stroke-linejoin="round"/>
<path d="M71.5779 113.172H70.0453V117.3H71.5779V113.172Z" fill="#434B53" stroke="#434B53" stroke-width="0.346552" stroke-linejoin="round"/>
<path d="M73.0606 113.172H72.2929V117.3H73.0606V113.172Z" fill="#434B53" stroke="#434B53" stroke-width="0.346552" stroke-linejoin="round"/>
<path d="M79.9563 109.033H67.9174V113.16H79.9563V109.033Z" fill="#FDB62F" stroke="#434B53" stroke-width="0.346552" stroke-linejoin="round"/>
<path d="M70.9851 109.033H69.4525V113.16H70.9851V109.033Z" fill="#434B53" stroke="#434B53" stroke-width="0.346552" stroke-linejoin="round"/>
<path d="M72.4658 109.033H71.6981V113.16H72.4658V109.033Z" fill="#434B53" stroke="#434B53" stroke-width="0.346552" stroke-linejoin="round"/>
<path d="M80.5531 104.893H68.5142V109.021H80.5531V104.893Z" fill="#FFA83D" stroke="#434B53" stroke-width="0.346552" stroke-linejoin="round"/>
<path d="M71.5779 104.893H70.0453V109.021H71.5779V104.893Z" fill="#434B53" stroke="#434B53" stroke-width="0.346552" stroke-linejoin="round"/>
<path d="M73.0606 104.893H72.2929V109.021H73.0606V104.893Z" fill="#434B53" stroke="#434B53" stroke-width="0.346552" stroke-linejoin="round"/>
<path d="M70.0982 121.453H58.0593V125.58H70.0982V121.453Z" fill="#FDB62F" stroke="#434B53" stroke-width="0.346552" stroke-linejoin="round"/>
<path d="M61.1269 121.453H59.5944V125.58H61.1269V121.453Z" fill="#434B53" stroke="#434B53" stroke-width="0.346552" stroke-linejoin="round"/>
<path d="M62.6077 121.453H61.84V125.58H62.6077V121.453Z" fill="#434B53" stroke="#434B53" stroke-width="0.346552" stroke-linejoin="round"/>
<path d="M71.1013 117.314H59.0624V121.442H71.1013V117.314Z" fill="#FFA83D" stroke="#434B53" stroke-width="0.346552" stroke-linejoin="round"/>
<path d="M62.13 117.314H60.5974V121.442H62.13V117.314Z" fill="#434B53" stroke="#434B53" stroke-width="0.346552" stroke-linejoin="round"/>
<path d="M63.6128 117.314H62.8451V121.442H63.6128V117.314Z" fill="#434B53" stroke="#434B53" stroke-width="0.346552" stroke-linejoin="round"/>
<path d="M70.0982 113.172H58.0593V117.3H70.0982V113.172Z" fill="#FDB62F" stroke="#434B53" stroke-width="0.346552" stroke-linejoin="round"/>
<path d="M61.1269 113.172H59.5944V117.3H61.1269V113.172Z" fill="#434B53" stroke="#434B53" stroke-width="0.346552" stroke-linejoin="round"/>
<path d="M62.6077 113.172H61.84V117.3H62.6077V113.172Z" fill="#434B53" stroke="#434B53" stroke-width="0.346552" stroke-linejoin="round"/>
<path d="M69.5034 109.033H57.4645V113.16H69.5034V109.033Z" fill="#FFA83D" stroke="#434B53" stroke-width="0.346552" stroke-linejoin="round"/>
<path d="M60.5282 109.033H58.9956V113.16H60.5282V109.033Z" fill="#434B53" stroke="#434B53" stroke-width="0.346552" stroke-linejoin="round"/>
<path d="M62.011 109.033H61.2433V113.16H62.011V109.033Z" fill="#434B53" stroke="#434B53" stroke-width="0.346552" stroke-linejoin="round"/>
<path d="M70.0982 104.893H58.0593V109.021H70.0982V104.893Z" fill="#FDB62F" stroke="#434B53" stroke-width="0.346552" stroke-linejoin="round"/>
<path d="M61.1269 104.893H59.5944V109.021H61.1269V104.893Z" fill="#434B53" stroke="#434B53" stroke-width="0.346552" stroke-linejoin="round"/>
<path d="M62.6077 104.893H61.84V109.021H62.6077V104.893Z" fill="#434B53" stroke="#434B53" stroke-width="0.346552" stroke-linejoin="round"/>
<path d="M70.0982 100.82H58.0593V104.947H70.0982V100.82Z" fill="#FFA83D" stroke="#434B53" stroke-width="0.346552" stroke-linejoin="round"/>
<path d="M61.1269 100.82H59.5944V104.947H61.1269V100.82Z" fill="#434B53" stroke="#434B53" stroke-width="0.346552" stroke-linejoin="round"/>
<path d="M62.6077 100.82H61.84V104.947H62.6077V100.82Z" fill="#434B53" stroke="#434B53" stroke-width="0.346552" stroke-linejoin="round"/>
<path d="M70.0982 96.7483H58.0593V100.876H70.0982V96.7483Z" fill="#FDB62F" stroke="#434B53" stroke-width="0.346552" stroke-linejoin="round"/>
<path d="M61.1269 96.7483H59.5944V100.876H61.1269V96.7483Z" fill="#434B53" stroke="#434B53" stroke-width="0.346552" stroke-linejoin="round"/>
<path d="M62.6077 96.7483H61.84V100.876H62.6077V96.7483Z" fill="#434B53" stroke="#434B53" stroke-width="0.346552" stroke-linejoin="round"/>
<path d="M73.6636 125.521C76.9032 125.521 79.5295 122.91 79.5295 119.689C79.5295 116.468 76.9032 113.856 73.6636 113.856C70.4239 113.856 67.7977 116.468 67.7977 119.689C67.7977 122.91 70.4239 125.521 73.6636 125.521Z" fill="#FFA83D" stroke="#434B53" stroke-width="0.346552" stroke-linejoin="round"/>
<path d="M73.0708 125.521C76.3104 125.521 78.9367 122.91 78.9367 119.689C78.9367 116.468 76.3104 113.856 73.0708 113.856C69.8311 113.856 67.2049 116.468 67.2049 119.689C67.2049 122.91 69.8311 125.521 73.0708 125.521Z" fill="#FFA83D" stroke="#434B53" stroke-width="0.346552" stroke-linejoin="round"/>
<path d="M73.0732 124.684C75.848 124.684 78.0975 122.448 78.0975 119.689C78.0975 116.93 75.848 114.693 73.0732 114.693C70.2984 114.693 68.0489 116.93 68.0489 119.689C68.0489 122.448 70.2984 124.684 73.0732 124.684Z" fill="#FDB62F" stroke="#434B53" stroke-width="0.346552" stroke-linejoin="round"/>
<path d="M74.4027 117.65C74.5948 117.65 74.7505 117.494 74.7505 117.302C74.7505 117.11 74.5948 116.954 74.4027 116.954H71.6482C71.4561 116.954 71.3004 117.11 71.3004 117.302C71.3004 117.494 71.4561 117.65 71.6482 117.65H72.4377C72.7641 117.649 73.0607 117.84 73.1959 118.137H71.6516C71.4597 118.137 71.3038 118.293 71.3038 118.485C71.3038 118.677 71.4597 118.833 71.6516 118.833H73.1959C73.0595 119.129 72.7636 119.319 72.4377 119.32H71.6482C71.5056 119.32 71.3773 119.407 71.3245 119.54C71.2716 119.672 71.3048 119.824 71.4082 119.922L73.3767 121.783C73.4418 121.844 73.5276 121.878 73.6166 121.877C73.7123 121.877 73.8037 121.838 73.8705 121.769C73.9338 121.702 73.9679 121.613 73.9654 121.521C73.9628 121.429 73.9237 121.342 73.8567 121.279L72.5211 120.016C73.1986 119.977 73.77 119.497 73.9262 118.836H74.4027C74.5948 118.836 74.7505 118.681 74.7505 118.488C74.7505 118.296 74.5948 118.141 74.4027 118.141H73.9262C73.8857 117.967 73.8151 117.802 73.7176 117.653H74.4027V117.65Z" fill="white"/>
</svg>
