<svg width="24" height="18" viewBox="0 0 24 18" fill="none" xmlns="http://www.w3.org/2000/svg">
<path d="M21.4286 0H2.57143C1.15127 0 0 1.14938 0 2.56722V14.5475C0 15.9654 1.15127 17.1148 2.57143 17.1148H21.4286C22.8487 17.1148 24 15.9654 24 14.5475V2.56722C24 1.14938 22.8487 0 21.4286 0ZM22.2857 14.5475C22.2857 15.0202 21.9019 15.4033 21.4285 15.4033H2.57143C2.09802 15.4033 1.71427 15.0202 1.71427 14.5475V9.41311H22.2857V14.5475ZM22.2857 7.70165H1.71427V5.99019H22.2857V7.70165ZM22.2857 4.27868H1.71427V2.56722C1.71427 2.09459 2.09802 1.71146 2.57143 1.71146H21.4286C21.902 1.71146 22.2857 2.09459 22.2857 2.56722V4.27868H22.2857Z" fill="#20446C"/>
<mask id="mask0_7_71775" style="mask-type:alpha" maskUnits="userSpaceOnUse" x="0" y="0" width="24" height="18">
<path d="M21.4286 0H2.57143C1.15127 0 0 1.14938 0 2.56722V14.5475C0 15.9654 1.15127 17.1148 2.57143 17.1148H21.4286C22.8487 17.1148 24 15.9654 24 14.5475V2.56722C24 1.14938 22.8487 0 21.4286 0ZM22.2857 14.5475C22.2857 15.0202 21.9019 15.4033 21.4285 15.4033H2.57143C2.09802 15.4033 1.71427 15.0202 1.71427 14.5475V9.41311H22.2857V14.5475ZM22.2857 7.70165H1.71427V5.99019H22.2857V7.70165ZM22.2857 4.27868H1.71427V2.56722C1.71427 2.09459 2.09802 1.71146 2.57143 1.71146H21.4286C21.902 1.71146 22.2857 2.09459 22.2857 2.56722V4.27868H22.2857Z" fill="#20446C"/>
</mask>
<g mask="url(#mask0_7_71775)">
<rect x="1.70312" y="7.67212" width="20.5902" height="1.77049" fill="white"/>
</g>
<path d="M17.6507 9.89422C17.6507 9.15695 17.0509 8.55713 16.3137 8.55713C15.5764 8.55713 14.9766 9.15695 14.9766 9.89422C14.9766 10.6315 15.5764 11.2313 16.3137 11.2313C17.0509 11.2313 17.6507 10.6315 17.6507 9.89422ZM15.868 9.89422C15.868 9.64846 16.0679 9.44852 16.3137 9.44852C16.5594 9.44852 16.7593 9.64846 16.7593 9.89422C16.7593 10.14 16.5594 10.3399 16.3137 10.3399C16.0679 10.3399 15.868 10.14 15.868 9.89422Z" fill="#F0792E"/>
<path d="M19.5207 11.7664C18.7834 11.7664 18.1836 12.3662 18.1836 13.1034C18.1836 13.8407 18.7834 14.4405 19.5207 14.4405C20.258 14.4405 20.8578 13.8407 20.8578 13.1034C20.8578 12.3662 20.258 11.7664 19.5207 11.7664ZM19.5207 13.5491C19.2749 13.5491 19.075 13.3492 19.075 13.1034C19.075 12.8577 19.2749 12.6578 19.5207 12.6578C19.7664 12.6578 19.9664 12.8577 19.9664 13.1034C19.9664 13.3492 19.7664 13.5491 19.5207 13.5491Z" fill="#F0792E"/>
<path d="M19.581 8.61351C19.3805 8.49745 19.124 8.56632 19.0082 8.76731L16.1031 13.8099C15.9873 14.0109 16.056 14.2679 16.2566 14.3839C16.3226 14.4222 16.3947 14.4403 16.4659 14.4403C16.6108 14.4403 16.7517 14.3649 16.8294 14.2301L19.7345 9.18753C19.8503 8.98654 19.7816 8.72953 19.581 8.61351Z" fill="#F0792E"/>
</svg>
