<svg width="35" height="24" viewBox="0 0 35 24" fill="none" xmlns="http://www.w3.org/2000/svg">
<path d="M8.8249 5.59221L8.8249 5.59221C11.1741 5.56596 13.5182 5.3676 15.8384 4.9987C15.8878 4.98864 15.9383 4.98525 15.9885 4.98863M8.8249 5.59221L15.9824 5.08989M8.8249 5.59221L8.82425 5.59222C8.67006 5.59492 8.52326 5.65876 8.41614 5.76969C8.30902 5.88063 8.25036 6.02958 8.25305 6.18377C8.25575 6.33796 8.31959 6.48476 8.43053 6.59188C8.48546 6.64492 8.5503 6.68663 8.62135 6.71461C8.6921 6.74248 8.76764 6.75619 8.84367 6.75498M8.8249 5.59221L8.84283 6.65353M15.9885 4.98863C15.9888 4.98864 15.9891 4.98866 15.9893 4.98868L15.9824 5.08989M15.9885 4.98863C15.9883 4.98861 15.988 4.9886 15.9877 4.98858L15.9824 5.08989M15.9885 4.98863C16.5884 5.02048 17.1703 5.20406 17.6799 5.52217L17.686 5.52595L17.6858 5.52615C17.7849 5.59812 17.8587 5.69952 17.8967 5.81591C17.9347 5.93229 17.9351 6.05771 17.8976 6.17429C17.8602 6.29087 17.7869 6.39265 17.6882 6.46512C17.5895 6.53759 17.4705 6.57705 17.348 6.57788L17.3473 6.57789C17.2139 6.57786 17.0845 6.53304 16.9797 6.45076M15.9824 5.08989C16.5654 5.12072 17.131 5.29907 17.6262 5.60823C17.7079 5.66764 17.7689 5.75135 17.8003 5.84742C17.8317 5.9435 17.8319 6.04703 17.801 6.14327C17.7701 6.2395 17.7096 6.32352 17.6281 6.38335C17.5467 6.44317 17.4484 6.47575 17.3473 6.47644C17.2343 6.47642 17.1247 6.43762 17.0368 6.36653M16.9797 6.45076C16.9819 6.45202 16.9842 6.45328 16.9864 6.45455L17.0368 6.36653M16.9797 6.45076C16.9775 6.44899 16.9752 6.4472 16.973 6.4454L17.0368 6.36653M16.9797 6.45076C16.6746 6.27726 16.3338 6.17609 15.9835 6.15504M17.0368 6.36653C16.7133 6.18109 16.3509 6.07378 15.9785 6.05313M15.9785 6.05313L15.9943 6.15335C15.9907 6.15391 15.9871 6.15448 15.9835 6.15504M15.9785 6.05313C13.6216 6.42345 11.241 6.6241 8.85531 6.65353H8.84283M15.9785 6.05313L15.9729 6.15443C15.9765 6.15462 15.98 6.15483 15.9835 6.15504M15.9835 6.15504C13.6253 6.52503 11.2435 6.72553 8.85656 6.75498L8.85531 6.75499V6.75498H8.84367M8.84367 6.75498C8.84398 6.75498 8.84429 6.75497 8.8446 6.75497L8.84283 6.65353M8.84367 6.75498H8.84283V6.65353" fill="#F0792E" stroke="#F0792E" stroke-width="0.2"/>
<path d="M14.0715 8.51311C14.051 8.50032 14.0345 8.48213 14.0236 8.46055C14.0128 8.43896 14.0081 8.4148 14.0101 8.39073L19.8289 8.25058C19.7535 8.1892 19.6614 8.15211 19.5646 8.14422C19.4677 8.13634 19.3708 8.15803 19.2865 8.20643C16.8096 9.62945 15.0794 9.15719 14.0715 8.51311ZM14.0715 8.51311L14.0715 8.51311L14.0715 8.51311ZM26.3989 18.1725C25.9683 18.1731 25.5486 18.0371 25.2002 17.7843L25.0987 17.714C25.0986 17.7139 25.0984 17.7138 25.0983 17.7137C25.0805 17.7015 25.0562 17.6818 25.0334 17.6601L19.3909 13.5966C19.3275 13.5531 19.2733 13.4975 19.2316 13.4329C19.1896 13.3679 19.161 13.2952 19.1474 13.2191C19.1338 13.1429 19.1356 13.0648 19.1526 12.9894C19.1696 12.9139 19.2015 12.8426 19.2464 12.7796C19.2913 12.7166 19.3484 12.6632 19.4142 12.6226C19.48 12.5819 19.5533 12.5548 19.6297 12.5428C19.7061 12.5308 19.7841 12.5342 19.8592 12.5528C19.934 12.5712 20.0043 12.6044 20.0661 12.6502L20.4493 12.9232L20.4497 12.9235L25.736 16.7355L28.3675 15.5416L28.27 15.5696L28.3674 15.5414C28.4581 15.8542 28.4733 16.184 28.4119 16.5038C28.3505 16.8237 28.2142 17.1244 28.0141 17.3813M26.3989 18.1725C26.3987 18.1725 26.3986 18.1725 26.3985 18.1725L26.3987 18.0711L26.3989 18.1725ZM26.3989 18.1725C26.7107 18.1731 27.0185 18.1021 27.2986 17.9649C27.5786 17.8277 27.8234 17.6281 28.0141 17.3813M28.0141 17.3813C28.0142 17.3812 28.0143 17.3811 28.0143 17.381L27.9341 17.319L28.0141 17.3813ZM27.6963 14.5308L19.893 8.17195C19.8017 8.09759 19.6901 8.05266 19.5728 8.04311C19.4555 8.03356 19.338 8.05983 19.236 8.11846C18.0109 8.82228 16.9772 9.05369 16.1305 9.03351C15.2838 9.01332 14.6171 8.74135 14.1261 8.42762L14.1262 8.42762L14.1252 8.42705C14.1205 8.42412 14.1168 8.41997 14.1143 8.41503C14.1118 8.4101 14.1107 8.40458 14.1112 8.39908L14.1113 8.39909L14.1115 8.39356C14.1117 8.3857 14.1141 8.37805 14.1184 8.37147C14.1227 8.36489 14.1288 8.35963 14.1359 8.35628L14.1359 8.35638L14.1402 8.3541L18.466 6.05683C18.4661 6.0568 18.4662 6.05676 18.4662 6.05672C18.6167 5.97759 18.7814 5.929 18.9508 5.91373C19.1201 5.89847 19.2907 5.91681 19.4529 5.9677C19.4531 5.96774 19.4532 5.96779 19.4534 5.96784L22.0082 6.79723C22.0083 6.79725 22.0083 6.79727 22.0084 6.7973C23.0014 7.12418 24.0786 7.08514 25.0454 6.68722C25.0455 6.6872 25.0455 6.68719 25.0455 6.68717L26.1588 6.2313L26.1589 6.23128C26.2295 6.20231 26.2938 6.15971 26.348 6.1059C26.4022 6.05209 26.4452 5.98814 26.4747 5.91769C26.5042 5.84724 26.5195 5.77167 26.5198 5.69531C26.52 5.61894 26.5053 5.54327 26.4763 5.47261C26.4473 5.40195 26.4047 5.33769 26.3509 5.2835L26.2789 5.35498L26.3509 5.2835C26.2971 5.22931 26.2331 5.18625 26.1627 5.15677C26.0922 5.12729 26.0167 5.11198 25.9403 5.11171C25.8639 5.11144 25.7883 5.12621 25.7176 5.15517C25.7176 5.15517 25.7176 5.15518 25.7176 5.15518L24.6032 5.61159L24.6031 5.61163C23.892 5.90377 23.1 5.93232 22.3697 5.69213L22.3693 5.692L19.8107 4.86171L19.8107 4.86171L19.8101 4.86151C19.5004 4.76322 19.1742 4.72722 18.8505 4.75557C18.5268 4.78392 18.2119 4.87607 17.924 5.02669L17.9234 5.02699L13.5991 7.32353C13.5989 7.3236 13.5988 7.32368 13.5986 7.32375C13.4118 7.42082 13.2537 7.56513 13.14 7.74232C13.0262 7.91965 12.9609 8.12371 12.9505 8.33415C12.9402 8.54459 12.9852 8.75407 13.0811 8.94169C13.1769 9.12932 13.3203 9.28854 13.4969 9.40348L13.4976 9.40393C14.4943 10.0408 16.5618 10.8328 19.4621 9.31899L26.9662 15.4328L26.9663 15.4329C27.1039 15.5447 27.2036 15.6963 27.2519 15.867L27.2519 15.867L27.2522 15.8682C27.2924 16.004 27.2994 16.1475 27.2725 16.2865C27.2456 16.4255 27.1857 16.556 27.0978 16.6669C26.9542 16.8467 26.7471 16.9645 26.5192 16.996C26.2912 17.0275 26.0598 16.9704 25.8728 16.8363L25.8717 16.8355L25.7856 16.7756C25.7699 16.7614 25.7535 16.748 25.7362 16.7357L27.6963 14.5308Z" fill="#F0792E" stroke="#F0792E" stroke-width="0.2"/>
<path d="M18.0297 16.3349L18.0297 16.3349L18.0311 16.3359L23.2192 20.017C23.5508 20.2525 23.9443 20.3842 24.3498 20.3963L24.3508 20.3982L24.4136 20.3981C24.8506 20.3977 25.2764 20.2588 25.6296 20.0015C25.9829 19.7441 26.2457 19.3815 26.3802 18.9656C26.5147 18.5498 26.514 18.102 26.3783 17.6865C26.2426 17.271 25.9788 16.9092 25.6248 16.6529L25.6246 16.6527L20.4523 12.9255L20.4524 12.9254L20.4475 12.9223C20.3222 12.8425 20.1712 12.8137 20.0254 12.8418C19.8796 12.8698 19.75 12.9526 19.6633 13.0732C19.5766 13.1937 19.5393 13.3429 19.559 13.4901C19.5788 13.6373 19.6542 13.7713 19.7696 13.8647L19.7695 13.8648L19.7741 13.8681L24.9433 17.5937C25.1269 17.7375 25.248 17.9465 25.2814 18.1772C25.3149 18.4086 25.2578 18.6441 25.1218 18.8343C24.9858 19.0245 24.7816 19.1548 24.5518 19.198C24.3227 19.2411 24.0857 19.1942 23.8903 19.0672L18.7038 15.3877L18.7038 15.3877L18.7023 15.3867C18.5765 15.3006 18.4219 15.2674 18.2718 15.2943C18.1217 15.3211 17.9882 15.4059 17.9 15.5302C17.8118 15.6546 17.776 15.8086 17.8002 15.9591C17.8245 16.1096 17.9069 16.2446 18.0297 16.3349Z" fill="#F0792E" stroke="#F0792E" stroke-width="0.2"/>
<path d="M17.0475 17.7863L17.0475 17.7863L21.6966 21.0066C21.7877 21.0697 21.8904 21.1141 21.9987 21.1375C22.107 21.1608 22.2189 21.1626 22.3279 21.1427C22.4369 21.1228 22.5409 21.0817 22.634 21.0216C22.727 20.9615 22.8073 20.8837 22.8703 20.7926C22.9957 20.6098 23.0444 20.3851 23.0059 20.1667C22.9675 19.9484 22.8449 19.7539 22.6647 19.6249C22.6646 19.6249 22.6646 19.6248 22.6645 19.6248L18.0389 16.3437C17.9755 16.3002 17.9214 16.2446 17.8796 16.18C17.8377 16.1152 17.8091 16.0426 17.7955 15.9667C17.7819 15.8907 17.7836 15.8127 17.8004 15.7374C17.8173 15.6621 17.849 15.5909 17.8936 15.5279C17.9383 15.4649 17.995 15.4115 18.0606 15.3707C18.1261 15.3299 18.1991 15.3026 18.2753 15.2903C18.3515 15.278 18.4294 15.281 18.5045 15.2992C18.5792 15.3172 18.6496 15.3499 18.7116 15.3954L23.3375 18.6767L23.3378 18.677C23.7667 18.9834 24.0582 19.4459 24.1498 19.965C24.2413 20.4841 24.1257 21.0184 23.8276 21.4532C23.6785 21.6705 23.4879 21.8562 23.2666 21.9994C23.0454 22.1426 22.7979 22.2406 22.5386 22.2875C22.4178 22.3096 22.2952 22.3205 22.1724 22.3203M17.0475 17.7863L22.1726 22.2189M17.0475 17.7863C16.9207 17.6985 16.7641 17.6646 16.6124 17.6922C16.4606 17.7198 16.326 17.8065 16.2382 17.9334C16.1504 18.0602 16.1166 18.2167 16.1442 18.3684C16.1718 18.5202 16.2585 18.6548 16.3853 18.7426L16.443 18.6592L16.3853 18.7426L21.0342 21.9628L17.0475 17.7863ZM22.1724 22.3203L22.1726 22.2189M22.1724 22.3203C22.1724 22.3203 22.1725 22.3203 22.1725 22.3203L22.1726 22.2189M22.1724 22.3203C21.7655 22.3202 21.3683 22.1954 21.0344 21.9629L21.0345 21.963L21.0922 21.8796C21.4092 22.1003 21.7863 22.2188 22.1726 22.2189" fill="#F0792E" stroke="#F0792E" stroke-width="0.2"/>
<path d="M19.4301 23.8955L19.4301 23.8986C19.0766 23.8968 18.7298 23.8024 18.4242 23.6248C18.4241 23.6248 18.4241 23.6247 18.424 23.6247L15.8437 22.1371L15.8431 22.1367C15.7106 22.0591 15.6143 21.9322 15.575 21.7838C15.5358 21.6353 15.5568 21.4774 15.6336 21.3444C15.7104 21.2115 15.8366 21.1143 15.9848 21.0741C16.1329 21.0338 16.291 21.0539 16.4245 21.1297L16.425 21.13L19.0043 22.6174C19.0045 22.6175 19.0046 22.6175 19.0047 22.6176C19.1997 22.7275 19.4299 22.7569 19.6463 22.6996C19.8628 22.6422 20.0482 22.5025 20.1631 22.3102C20.2719 22.1264 20.3065 21.908 20.2598 21.6995C20.2131 21.4909 20.0886 21.3081 19.9117 21.1882L19.9108 21.1876L19.9108 21.1876L16.6136 18.9036L16.6136 18.9036C16.5509 18.8601 16.4973 18.8047 16.4559 18.7405C16.4146 18.6763 16.3863 18.6046 16.3727 18.5295C16.359 18.4543 16.3603 18.3773 16.3765 18.3026C16.3926 18.228 16.4233 18.1573 16.4668 18.0946C16.5103 18.0318 16.5657 17.9782 16.6299 17.9369C16.6941 17.8955 16.7658 17.8672 16.8409 17.8536C16.916 17.84 16.9931 17.8413 17.0677 17.8574C17.1424 17.8736 17.2131 17.9043 17.2758 17.9477L19.4301 23.8955ZM19.4301 23.8955L19.4301 23.8986H19.4302L19.4301 23.8955ZM20.5725 20.2313L17.2758 17.9478L19.4306 23.8986C19.8591 23.8978 20.2762 23.7603 20.6212 23.506C20.9662 23.2516 21.221 22.8938 21.3485 22.4845C21.4759 22.0752 21.4694 21.636 21.3298 21.2307C21.1903 20.8254 20.9249 20.4753 20.5725 20.2313C20.5725 20.2313 20.5725 20.2313 20.5725 20.2313Z" fill="#F0792E" stroke="#F0792E" stroke-width="0.2"/>
<path d="M12.6544 20.0536L12.6545 20.0536L13.9363 18.9306L13.9364 18.9305L12.6544 20.0536ZM12.6544 20.0536C12.3437 20.326 12.1234 20.6868 12.0231 21.0877C11.9227 21.4887 11.9471 21.9106 12.0929 22.2973C12.2388 22.684 12.4991 23.0171 12.8392 23.2519C13.1792 23.4867 13.5828 23.6122 13.996 23.6116M12.6544 20.0536L15.3348 23.1098M15.3348 23.1098L15.3347 23.1098C14.9644 23.4344 14.4884 23.6127 13.996 23.6116M15.3348 23.1098L16.6167 21.9843L15.3348 23.1098ZM13.996 23.6116C13.9959 23.6116 13.9959 23.6116 13.9958 23.6116L13.996 23.5101L13.9962 23.6116C13.9961 23.6116 13.9961 23.6116 13.996 23.6116ZM15.2758 19.5882L15.2759 19.5882C15.4523 19.5884 15.6245 19.6424 15.7695 19.7428C15.9145 19.8433 16.0254 19.9855 16.0876 20.1505C16.1498 20.3156 16.1603 20.4957 16.1176 20.6669C16.0749 20.838 15.9812 20.9921 15.8488 21.1087L14.567 22.234C14.567 22.234 14.567 22.234 14.5669 22.234C14.4812 22.3093 14.3814 22.3669 14.2734 22.4036C14.1653 22.4403 14.0511 22.4554 13.9372 22.4479C13.7072 22.4329 13.4926 22.3271 13.3406 22.1539C13.2654 22.0681 13.2078 21.9683 13.171 21.8602C13.1343 21.7522 13.1193 21.638 13.1267 21.5241C13.1342 21.4102 13.164 21.2989 13.2144 21.1966C13.2649 21.0942 13.335 21.0028 13.4208 20.9275C13.4208 20.9275 13.4208 20.9275 13.4208 20.9275L14.7032 19.803L14.7032 19.803C14.8615 19.6641 15.0651 19.5877 15.2758 19.5882Z" fill="#F0792E" stroke="#F0792E" stroke-width="0.2"/>
<path d="M14.8071 17.111C14.9591 17.2978 15.0769 17.5104 15.1546 17.7389C15.2405 17.9915 15.2759 18.2586 15.2586 18.5249C15.2412 18.7912 15.1716 19.0514 15.0537 19.2908C14.9358 19.5302 14.7719 19.7439 14.5713 19.9199L14.5713 19.9199L12.4281 21.7996C12.4281 21.7997 12.428 21.7997 12.428 21.7998C12.0587 22.1257 11.583 22.3053 11.0904 22.3045M14.8071 17.111L11.0906 22.2031C11.0479 22.2031 11.0052 22.2031 10.9624 22.1992M14.8071 17.111L14.8084 17.1098L14.7443 17.0368C14.7358 17.0271 14.7272 17.0175 14.7186 17.0081M14.8071 17.111L14.7186 17.0081M11.0904 22.3045L11.0906 22.2031V22.3045H11.0904ZM11.0904 22.3045H11.0887C11.0476 22.3045 11.0015 22.3045 10.9548 22.3004M10.9548 22.3004C10.9552 22.3004 10.9557 22.3004 10.9561 22.3005L10.9624 22.1992M10.9548 22.3004C10.6887 22.2836 10.4287 22.2143 10.1895 22.0965C9.95011 21.9786 9.73641 21.8145 9.56076 21.6136C9.3825 21.4131 9.24556 21.1795 9.15778 20.926C9.06996 20.6724 9.03308 20.4039 9.04927 20.136C9.06546 19.8681 9.1344 19.606 9.25212 19.3648C9.36985 19.1236 9.53406 18.908 9.73531 18.7305L9.7355 18.7303L11.877 16.8504C11.877 16.8504 11.877 16.8504 11.877 16.8504C12.0775 16.6743 12.3107 16.5395 12.5633 16.4536C12.8159 16.3677 13.083 16.3324 13.3492 16.3497C13.6155 16.367 13.8757 16.4366 14.1151 16.5545C14.3303 16.6605 14.5248 16.8036 14.6898 16.9772L14.6907 16.9764L14.7186 17.0081M10.9548 22.3004C10.9543 22.3003 10.9538 22.3003 10.9534 22.3003L10.9624 22.1992M10.9624 22.1992L14.7186 17.0081M13.2752 17.5098C13.3883 17.5169 13.4988 17.5462 13.6005 17.5961C13.7025 17.6462 13.7936 17.7159 13.8685 17.8013L13.8686 17.8013L13.8825 17.8171C13.9578 17.9029 14.0154 18.0027 14.0522 18.1107C14.0889 18.2188 14.104 18.3331 14.0966 18.447C14.0892 18.5609 14.0594 18.6722 14.0089 18.7746C13.9585 18.8769 13.8883 18.9684 13.8025 19.0437L13.8025 19.0437L11.661 20.9236L11.6606 20.924C11.5753 20.9998 11.4757 21.0578 11.3678 21.0946C11.2598 21.1314 11.1456 21.1464 11.0318 21.1386C10.859 21.1264 10.6936 21.0637 10.5562 20.9582C10.4188 20.8528 10.3154 20.7092 10.2589 20.5454C10.2024 20.3816 10.1953 20.2048 10.2386 20.037C10.2817 19.8694 10.3732 19.7183 10.5015 19.6022L12.6424 17.7228L12.6425 17.7227C12.7926 17.5907 12.9837 17.5152 13.1828 17.5085H13.2138C13.2336 17.5085 13.2544 17.5089 13.2752 17.5098Z" fill="#F0792E" stroke="#F0792E" stroke-width="0.2"/>
<path d="M7.1374 19.8498L7.13742 19.8498L7.08581 19.7883C6.73123 19.3834 6.55179 18.8543 6.58691 18.3172C6.62205 17.7797 6.86918 17.2782 7.27397 16.9228L9.75667 14.7435C9.95715 14.5674 10.1904 14.4325 10.443 14.3466C10.6956 14.2606 10.9627 14.2253 11.229 14.2426C11.4952 14.2599 11.7555 14.3295 11.9949 14.4475C12.2342 14.5654 12.448 14.7293 12.624 14.9299L12.6241 14.9299L12.6783 14.9918C13.0335 15.3968 13.2133 15.9262 13.1781 16.4638C13.143 17.0013 12.8958 17.5029 12.4908 17.8581L10.0084 20.0373C10.0083 20.0373 10.0083 20.0374 10.0082 20.0374C9.6385 20.3639 9.16195 20.5437 8.66868 20.5427M7.1374 19.8498L8.66889 20.4412M7.1374 19.8498L7.13877 19.8514C7.31447 20.0525 7.52828 20.2167 7.76782 20.3347C8.00698 20.4524 8.26706 20.5217 8.5331 20.5385M7.1374 19.8498L8.54075 20.4374M8.66868 20.5427L8.66889 20.4412M8.66868 20.5427H8.66889V20.4412M8.66868 20.5427H8.66707C8.62635 20.5427 8.58033 20.5427 8.5331 20.5385M8.66889 20.4412C8.62666 20.4412 8.58394 20.4412 8.54075 20.4374M8.5331 20.5385C8.53353 20.5386 8.53397 20.5386 8.53441 20.5386L8.54075 20.4374M8.5331 20.5385C8.53265 20.5385 8.53221 20.5385 8.53177 20.5384L8.54075 20.4374M11.0938 15.4016H11.094C11.1125 15.4016 11.1307 15.4024 11.1507 15.4041L11.1507 15.4041L11.153 15.4042C11.2667 15.4113 11.3779 15.4408 11.4801 15.491C11.5824 15.5413 11.6736 15.6113 11.7486 15.6971L11.8018 15.758L11.802 15.7582C11.8773 15.844 11.935 15.9437 11.9717 16.0518C12.0085 16.1599 12.0235 16.2741 12.0161 16.388C12.0087 16.5019 11.9789 16.6132 11.9285 16.7156C11.878 16.818 11.8079 16.9095 11.7221 16.9847L11.722 16.9848L9.23933 19.1641C9.06617 19.3161 8.83978 19.3931 8.60987 19.3783C8.37997 19.3635 8.16535 19.258 8.01314 19.0851L7.95907 19.0233L7.95903 19.0233C7.80692 18.8498 7.72994 18.6231 7.74501 18.3929C7.76009 18.1627 7.86598 17.9479 8.0394 17.7957L8.03943 17.7957L10.5221 15.6163L10.5222 15.6163C10.6802 15.4774 10.8834 15.401 11.0938 15.4016ZM11.1593 15.303C11.1367 15.3011 11.1156 15.3001 11.094 15.3001L11.825 15.6303C11.7411 15.5345 11.6392 15.4562 11.5249 15.4C11.4106 15.3438 11.2864 15.3108 11.1593 15.303Z" fill="#F0792E" stroke="#F0792E" stroke-width="0.2"/>
<path d="M5.22378 14.8286L5.22399 14.8284L6.77848 13.4639C6.77849 13.4639 6.7785 13.4639 6.77851 13.4639C6.97898 13.2878 7.21219 13.153 7.4648 13.067C7.71742 12.9811 7.98449 12.9458 8.25077 12.9631C8.51704 12.9804 8.7773 13.05 9.01667 13.1679C9.25603 13.2858 9.46982 13.4498 9.64582 13.6503L9.64591 13.6504L9.66258 13.6695C9.83868 13.87 9.97355 14.1032 10.0595 14.3558C10.1454 14.6084 10.1807 14.8755 10.1634 15.1418C10.1461 15.4081 10.0765 15.6683 9.9586 15.9077C9.84068 16.147 9.67675 16.3608 9.47619 16.5368C9.47618 16.5368 9.47618 16.5368 9.47617 16.5368L7.92188 17.9011C7.92182 17.9012 7.92175 17.9012 7.92169 17.9013L7.92167 17.9013L5.22378 14.8286ZM5.22378 14.8286C4.92073 15.096 4.70377 15.4473 4.60032 15.8381C4.49688 16.2288 4.51159 16.6414 4.6426 17.0238C4.77361 17.4062 5.01503 17.7412 5.33636 17.9864C5.6572 18.2312 6.04331 18.3756 6.44603 18.4013C6.49322 18.406 6.54001 18.4059 6.58037 18.4059H6.58218H6.58243V18.3045L5.22378 14.8286ZM8.11583 14.1215V14.1215C8.12846 14.1215 8.13978 14.1219 8.15293 14.1222C8.16056 14.1225 8.16882 14.1227 8.17829 14.1229C8.2914 14.1302 8.40197 14.1596 8.50368 14.2097C8.60598 14.26 8.69728 14.3302 8.77228 14.4161L8.77234 14.4161L8.78914 14.4353L8.78925 14.4355C8.86456 14.5212 8.92223 14.621 8.95897 14.7291C8.99571 14.8371 9.0108 14.9514 9.00338 15.0653C8.99595 15.1792 8.96616 15.2905 8.91571 15.3929C8.86525 15.4953 8.79512 15.5867 8.70932 15.662L8.7093 15.662L7.15531 17.026C7.15522 17.0261 7.15513 17.0262 7.15505 17.0262C7.06747 17.102 6.96575 17.1596 6.85576 17.1958C6.74566 17.232 6.62947 17.2459 6.51393 17.2369C6.39839 17.2279 6.28579 17.196 6.18266 17.1431C6.07953 17.0902 5.98793 17.0174 5.91316 16.9288L5.91317 16.9288L5.91188 16.9273C5.83657 16.8416 5.7789 16.7418 5.74216 16.6337C5.70542 16.5256 5.69033 16.4114 5.69776 16.2975C5.70518 16.1836 5.73497 16.0723 5.78543 15.9699C5.83588 15.8675 5.90601 15.7761 5.99182 15.7008L5.99183 15.7008L7.54635 14.3363L7.54642 14.3362C7.70384 14.1978 7.90626 14.1215 8.11583 14.1215Z" fill="#F0792E" stroke="#F0792E" stroke-width="0.2"/>
<path d="M5.36232 15.6384L5.36271 15.6387C5.44776 15.7027 5.54851 15.7418 5.65373 15.7522L5.65768 15.7586L5.7135 15.7589C5.83582 15.7596 5.95526 15.7218 6.05482 15.6507C6.15437 15.5796 6.22897 15.4789 6.268 15.363C6.30703 15.2471 6.3085 15.1218 6.2722 15.005C6.23594 14.8883 6.16383 14.786 6.06612 14.7126C6.06602 14.7125 6.06592 14.7125 6.06582 14.7124L4.42644 13.465L4.42643 13.465C4.36565 13.4187 4.29637 13.3849 4.22253 13.3655C4.1487 13.346 4.07175 13.3413 3.99609 13.3516C3.84328 13.3724 3.70499 13.453 3.61163 13.5757C3.5654 13.6365 3.53159 13.7058 3.51214 13.7796C3.49269 13.8535 3.48797 13.9304 3.49825 14.0061C3.50854 14.0817 3.53362 14.1546 3.57208 14.2206C3.61053 14.2865 3.6616 14.3443 3.72237 14.3905C3.72237 14.3905 3.72237 14.3905 3.72238 14.3905L5.36232 15.6384Z" fill="#F0792E" stroke="#F0792E" stroke-width="0.2"/>
<path d="M27.8094 16.2865L27.8096 16.2865C27.8861 16.2864 27.9617 16.2711 28.0322 16.2417C28.1027 16.2123 28.1667 16.1693 28.2205 16.1151C28.2206 16.1151 28.2206 16.1151 28.2207 16.115L30.9134 13.4223L30.9134 13.4223L30.9146 13.421C31.0205 13.3114 31.0791 13.1645 31.0778 13.0121C31.0765 12.8596 31.0153 12.7138 30.9075 12.606C30.7998 12.4982 30.6539 12.4371 30.5015 12.4358C30.3491 12.4344 30.2022 12.493 30.0925 12.5989L30.0925 12.5989L30.0913 12.6002L27.3983 15.2941C27.3983 15.2941 27.3983 15.2941 27.3983 15.2941C27.3171 15.3754 27.2617 15.479 27.2393 15.5917C27.2169 15.7045 27.2284 15.8214 27.2724 15.9276C27.3164 16.0338 27.3909 16.1246 27.4864 16.1885C27.582 16.2524 27.6944 16.2865 27.8094 16.2865Z" fill="#F0792E" stroke="#F0792E" stroke-width="0.2"/>
<path d="M31.4812 15.2906C31.5804 15.2911 31.6781 15.2661 31.7649 15.2179L31.7653 15.2176L34.5637 13.6449L34.5141 13.5564L34.5638 13.6449L34.5638 13.6449C34.6737 13.5833 34.7607 13.4876 34.8115 13.3723C34.8624 13.257 34.8744 13.1283 34.8457 13.0055C34.8457 13.0055 34.8457 13.0054 34.8457 13.0054L31.9916 0.552871L31.9916 0.55285C31.9698 0.457704 31.9243 0.369588 31.8595 0.296625C31.7946 0.223663 31.7125 0.168201 31.6205 0.135358C31.5286 0.102515 31.4299 0.0933473 31.3335 0.108699C31.2371 0.124051 31.1461 0.16343 31.0689 0.223202L31.1311 0.303411L31.0689 0.223202L25.2651 4.71829C25.1517 4.80603 25.0748 4.93255 25.049 5.07355C25.0233 5.21455 25.0505 5.36009 25.1255 5.48224L25.1255 5.48228L30.9856 15.0139L30.9856 15.0139C31.0377 15.0986 31.1107 15.1685 31.1975 15.2169C31.2842 15.2653 31.3819 15.2907 31.4812 15.2906ZM31.4812 15.2906C31.4811 15.2906 31.481 15.2906 31.4809 15.2906L31.4814 15.1892L31.4815 15.2906C31.4814 15.2906 31.4813 15.2906 31.4812 15.2906ZM31.0619 1.69939L33.6155 12.8414L31.6833 13.9275L26.3895 5.3173L31.0619 1.69939Z" fill="#F0792E" stroke="#F0792E" stroke-width="0.2"/>
<path d="M2.97148 0.725687L2.97149 0.725672C2.99331 0.630527 3.03875 0.54241 3.10359 0.469447C3.16844 0.396484 3.25062 0.341024 3.34255 0.308181C3.43447 0.275338 3.53319 0.266169 3.62959 0.281521C3.72599 0.296873 3.81697 0.33625 3.89414 0.396019C3.89415 0.396021 3.89415 0.396023 3.89415 0.396024L9.69851 4.89063L9.69852 4.89064L2.97148 0.725687ZM2.97148 0.725687L0.116906 13.1768C0.11689 13.1769 0.116875 13.1769 0.116859 13.177C0.0882295 13.2997 0.100232 13.4284 0.151064 13.5437C0.201923 13.659 0.288898 13.7547 0.39888 13.8163L3.19732 15.3866M2.97148 0.725687L3.19732 15.3866M3.19732 15.3866C3.28411 15.4353 3.38194 15.461 3.48146 15.461L3.19732 15.3866ZM8.5736 5.49012L3.2798 14.1008L1.34756 13.0152L3.90121 1.87221L8.5736 5.49012Z" fill="#F0792E" stroke="#F0792E" stroke-width="0.2"/>
</svg>
