<svg width="16" height="16" viewBox="0 0 16 16" fill="none" xmlns="http://www.w3.org/2000/svg">
<ellipse cx="8" cy="8" rx="8" ry="8" fill="#F7E2CC" fill-opacity="0.5"/>
<g clip-path="url(#clip0_178_5495)">
<path d="M9.13752 10.8547L9.04091 11.3044C8.75108 11.4347 8.51956 11.5338 8.34716 11.602C8.17458 11.6704 7.97404 11.7044 7.74556 11.7044C7.39469 11.7044 7.12177 11.6065 6.92713 11.4121C6.73248 11.2169 6.63513 10.9696 6.63513 10.6695C6.63513 10.5534 6.64219 10.4339 6.65688 10.3122C6.67169 10.1903 6.69524 10.0531 6.72746 9.89966L7.08967 8.43978C7.1219 8.29999 7.14929 8.16754 7.17123 8.04228C7.19347 7.9178 7.20419 7.80327 7.20419 7.70018C7.20419 7.51374 7.1703 7.38333 7.10281 7.31001C7.03533 7.23691 6.90655 7.19979 6.71538 7.19979C6.62174 7.19979 6.5255 7.21687 6.42741 7.24989C6.32887 7.28306 6.24466 7.31509 6.17395 7.34487L6.27081 6.8948C6.50809 6.78479 6.7349 6.69058 6.95185 6.6124C7.16881 6.534 7.37381 6.49476 7.56771 6.49476C7.91616 6.49476 8.18505 6.59066 8.37387 6.78246C8.56269 6.9744 8.65707 7.22322 8.65707 7.52983C8.65707 7.59327 8.65087 7.70504 8.63755 7.86481C8.62454 8.02492 8.60031 8.17163 8.56498 8.30507L8.20432 9.75909C8.17476 9.87588 8.14818 10.0094 8.12506 10.1596C8.1012 10.3089 8.0898 10.4229 8.0898 10.4994C8.0898 10.6925 8.1276 10.8243 8.20339 10.8944C8.27974 10.9644 8.41124 10.9993 8.59801 10.9993C8.6857 10.9993 8.78547 10.9816 8.89634 10.9468C9.00689 10.912 9.08751 10.8814 9.13752 10.8547ZM9.22899 4.75029C9.22899 5.00362 9.14514 5.21998 8.97665 5.39788C8.80859 5.57641 8.60607 5.66575 8.36916 5.66575C8.13151 5.66575 7.92849 5.57641 7.75851 5.39788C7.58884 5.21991 7.50382 5.00362 7.50382 4.75029C7.50382 4.49745 7.58884 4.28074 7.75851 4.10059C7.92818 3.92071 8.13157 3.83081 8.36916 3.83081C8.60601 3.83081 8.80859 3.92092 8.97665 4.10059C9.14527 4.28074 9.22899 4.49752 9.22899 4.75029Z" fill="#F0792E"/>
</g>
<defs>
<clipPath id="clip0_178_5495">
<rect width="6.91438" height="7.87358" fill="white" transform="translate(4.24414 3.83081)"/>
</clipPath>
</defs>
</svg>
