<svg width="20" height="2" viewBox="0 0 20 2" fill="none" xmlns="http://www.w3.org/2000/svg">
<path d="M19.9997 0.802531V0.883668C19.9997 1.01514 19.9475 1.14123 19.8545 1.2342C19.7616 1.32716 19.6356 1.37939 19.5041 1.37939H0.496655C0.365126 1.37939 0.238968 1.3272 0.145858 1.23426C0.0527484 1.14133 0.00029425 1.01524 0 0.883668V0.496875C0.000141056 0.431013 0.0133345 0.365834 0.0388313 0.305111C0.0643281 0.244388 0.101614 0.189328 0.14853 0.143119C0.195446 0.0969108 0.251065 0.060472 0.312156 0.0359129C0.373247 0.0113539 0.438607 -0.000837555 0.504441 4.4678e-05L19.5119 0.304588C19.6424 0.306635 19.7668 0.360071 19.8581 0.453295C19.9494 0.546519 20.0003 0.672011 19.9997 0.802531Z" fill="#90B9E7"/>
</svg>
