<svg width="25" height="2" viewBox="0 0 25 2" fill="none" xmlns="http://www.w3.org/2000/svg">
<path d="M25.0006 0.429594V0.595271C25.0021 0.652982 24.9923 0.710435 24.9715 0.764295C24.9507 0.818155 24.9194 0.86735 24.8795 0.909026C24.8396 0.950702 24.7917 0.984029 24.7388 1.00707C24.6859 1.03011 24.629 1.04242 24.5712 1.04326L0.447973 1.53484C0.390191 1.53644 0.332669 1.52652 0.278756 1.50566C0.224843 1.48481 0.17561 1.45343 0.133933 1.41337C0.0922569 1.3733 0.0589686 1.32534 0.0359973 1.27228C0.013026 1.21922 0.000838053 1.16212 0.000137485 1.1043V0.938618C-0.00130921 0.880998 0.00867322 0.823664 0.0295197 0.76993C0.0503661 0.716196 0.0816658 0.667131 0.12159 0.625572C0.161514 0.584012 0.209272 0.550784 0.262116 0.527809C0.31496 0.504834 0.371832 0.492567 0.429444 0.491721L24.5538 0.000137454C24.6114 -0.00130972 24.6687 0.00868269 24.7224 0.0295361C24.7762 0.0503895 24.8252 0.0816896 24.8668 0.121627C24.9083 0.161565 24.9415 0.209345 24.9645 0.262207C24.9874 0.315068 24.9997 0.371962 25.0006 0.429594Z" fill="#7D97F4"/>
</svg>
