<svg width="20" height="19" viewBox="0 0 20 19" fill="none" xmlns="http://www.w3.org/2000/svg">
<path d="M19.075 9.16836C19.1409 11.0461 18.646 12.9012 17.6531 14.499C16.6602 16.0967 15.2137 17.3654 13.4967 18.1445C11.7796 18.9237 9.86906 19.1783 8.00667 18.8763C6.14427 18.5742 4.41365 17.729 3.03366 16.4475C1.65368 15.1661 0.686313 13.5059 0.253894 11.677C-0.178526 9.84803 -0.0565747 7.93249 0.604327 6.17258C1.26523 4.41267 2.43539 2.88743 3.96685 1.78974C5.4983 0.69206 7.32225 0.0712319 9.20805 0.00577317C11.7367 -0.0819994 14.1968 0.834016 16.0472 2.55232C17.8976 4.27062 18.9867 6.65047 19.075 9.16836Z" fill="#20446C"/>
<g opacity="0.1">
<path opacity="0.1" d="M9.20738 0.00685726C6.67876 0.0947893 4.28878 1.17931 2.56317 3.02185C0.837556 4.8644 -0.0823484 7.31404 0.00579779 9.83194C0.00579779 9.83194 6.72005 9.8988 8.24602 7.15458C9.77198 4.41037 9.20738 0.00685726 9.20738 0.00685726Z" fill="white"/>
</g>
<path d="M16.632 9.10144C16.6825 10.5292 16.3065 11.9398 15.5517 13.1547C14.7968 14.3697 13.6969 15.3343 12.3913 15.9266C11.0857 16.5189 9.63293 16.7122 8.21692 16.4821C6.80091 16.2519 5.4853 15.6087 4.43655 14.6338C3.3878 13.6588 2.65306 12.396 2.32532 11.0051C1.99758 9.61427 2.09156 8.15784 2.59537 6.82016C3.09919 5.48249 3.99019 4.3237 5.15562 3.49043C6.32105 2.65717 7.70853 2.18689 9.14247 2.1391C11.0624 2.07512 12.9293 2.77232 14.3335 4.07766C15.7377 5.383 16.5643 7.1898 16.632 9.10144Z" fill="#20446C"/>
<g opacity="0.2">
<path opacity="0.2" d="M16.63 9.10144C16.6805 10.5292 16.3046 11.9398 15.5497 13.1547C14.7948 14.3697 13.695 15.3343 12.3893 15.9266C11.0837 16.5189 9.63097 16.7122 8.21496 16.4821C6.79895 16.2519 5.48334 15.6087 4.43459 14.6338C3.38584 13.6588 2.6511 12.396 2.32336 11.0051C1.99562 9.61427 2.0896 8.15784 2.59341 6.82016C3.09723 5.48249 3.98823 4.3237 5.15366 3.49043C6.31909 2.65717 7.70657 2.18689 9.14051 2.1391C11.0604 2.07512 12.9274 2.77232 14.3315 4.07766C15.7357 5.383 16.5623 7.1898 16.63 9.10144Z" fill="#20446C"/>
</g>
<path d="M16.8492 9.3965C16.8984 10.8044 16.5273 12.1953 15.7828 13.3932C15.0382 14.5911 13.9537 15.5422 12.6663 16.1264C11.3789 16.7106 9.94646 16.9016 8.55008 16.6752C7.1537 16.4487 5.85609 15.8151 4.82132 14.8544C3.78655 13.8937 3.06108 12.6491 2.73665 11.2779C2.41221 9.90666 2.50337 8.47043 2.99861 7.1508C3.49385 5.83116 4.37092 4.68738 5.51893 3.86406C6.66695 3.04074 8.03434 2.57486 9.44824 2.52533C11.3446 2.4597 13.1895 3.14665 14.5774 4.43515C15.9652 5.72365 16.7824 7.50822 16.8492 9.3965Z" fill="#F0792E"/>
<path d="M11.6102 7.67517C11.8544 7.67517 12.0522 7.48091 12.0522 7.24123C12.0522 7.00172 11.8544 6.8073 11.6102 6.8073H8.10944C7.86529 6.8073 7.66742 7.00172 7.66742 7.24123C7.66742 7.48091 7.86529 7.67517 8.10944 7.67517H9.1128C9.52771 7.67449 9.90464 7.91213 10.0764 8.28267H8.11376C7.86978 8.28267 7.67174 8.47709 7.67174 8.71661C7.67174 8.95629 7.86978 9.15054 8.11376 9.15054H10.0764C9.90308 9.52006 9.52702 9.75703 9.1128 9.75804H8.10944C7.92814 9.75821 7.76515 9.86687 7.69798 10.0321C7.63082 10.1974 7.67295 10.3862 7.80434 10.5088L10.3063 12.8303C10.389 12.9063 10.4981 12.9481 10.6112 12.9475C10.7327 12.9468 10.8489 12.8983 10.9339 12.813C11.0144 12.7296 11.0577 12.6183 11.0544 12.5035C11.0511 12.3888 11.0014 12.2799 10.9163 12.2011L9.21881 10.6259C10.0799 10.5771 10.8061 9.97891 11.0047 9.15495H11.6102C11.8544 9.15495 12.0522 8.96069 12.0522 8.72101C12.0522 8.48133 11.8544 8.28708 11.6102 8.28708H11.0047C10.9532 8.07096 10.8634 7.86518 10.7395 7.67957H11.6102V7.67517Z" fill="white"/>
<g opacity="0.2">
<path opacity="0.2" d="M16.8492 9.3965C16.8984 10.8044 16.5273 12.1953 15.7828 13.3932C15.0382 14.5911 13.9537 15.5422 12.6663 16.1264C11.3789 16.7106 9.94646 16.9016 8.55008 16.6752C7.1537 16.4487 5.85609 15.8151 4.82132 14.8544C3.78655 13.8937 3.06108 12.6491 2.73665 11.2779C2.41221 9.90666 2.50337 8.47043 2.99861 7.1508C3.49385 5.83116 4.37092 4.68738 5.51893 3.86406C6.66695 3.04074 8.03434 2.57486 9.44824 2.52533C11.3446 2.4597 13.1895 3.14665 14.5774 4.43515C15.9652 5.72365 16.7824 7.50822 16.8492 9.3965Z" fill="white"/>
</g>
<path d="M9.81773 16.8386H9.87572L10.0466 16.8234L10.3274 16.7961C10.4546 16.7873 10.581 16.77 10.7058 16.7444L11.1789 16.6532C11.2681 16.6367 11.3558 16.6133 11.4414 16.5833L11.7252 16.4983C11.8285 16.4721 11.9303 16.4406 12.0304 16.404L12.3356 16.2764C12.4424 16.2308 12.5553 16.1913 12.6621 16.1366L12.9979 15.9603C13.4913 15.6948 13.953 15.3747 14.3743 15.0061L14.7069 14.687L14.8748 14.5229C14.9267 14.4621 14.9755 14.4013 15.0305 14.3406C15.1312 14.216 15.2441 14.0974 15.3356 13.9637L15.6225 13.5535L15.6958 13.4471C15.7202 13.4137 15.7385 13.3742 15.7599 13.3377L15.888 13.1128L16.0162 12.8849C16.062 12.8089 16.0895 12.7238 16.1292 12.6448C16.1994 12.4807 16.2757 12.3196 16.3397 12.1525L16.5137 11.6328C16.7188 10.9001 16.8145 10.1414 16.7975 9.38091C16.7621 8.6206 16.613 7.86981 16.355 7.15332C16.2848 6.98314 16.2177 6.81296 16.1475 6.64581C16.0773 6.47867 15.9827 6.32672 15.9003 6.16869C15.8617 6.08947 15.8189 6.01237 15.7721 5.93773L15.6286 5.71892L15.4852 5.50315C15.4608 5.46668 15.4394 5.43021 15.415 5.39678L15.3326 5.2965L15.0274 4.9075C14.9175 4.7829 14.7985 4.67046 14.6886 4.55498L14.5208 4.3848C14.4628 4.33009 14.4018 4.28147 14.3407 4.22981L13.9897 3.92591C13.5424 3.58722 13.0581 3.29974 12.5462 3.06891L12.2013 2.91696C12.0884 2.86833 11.9724 2.84099 11.8656 2.80148L11.5421 2.69511C11.4414 2.65864 11.3345 2.64649 11.2369 2.61914L10.947 2.55532C10.8588 2.53231 10.769 2.51606 10.6784 2.5067L10.2023 2.44895C10.0759 2.43129 9.94838 2.42317 9.82078 2.42464H9.54H9.36604H9.82078C9.94823 2.42085 10.0758 2.42695 10.2023 2.44287L10.6814 2.49454C10.7728 2.50405 10.8636 2.51928 10.9531 2.54012L11.2582 2.60394C11.3559 2.62825 11.4627 2.64041 11.5634 2.67688L11.8869 2.7802C11.9968 2.81667 12.1158 2.84706 12.2288 2.89569L12.5767 3.0446C13.0929 3.27517 13.5821 3.56154 14.0355 3.89856L14.3896 4.20246L14.5727 4.35745L14.7405 4.52763C14.8534 4.64615 14.9755 4.75859 15.0854 4.88319L15.3906 5.27522L15.473 5.37551L15.5462 5.48187L15.6897 5.70068L15.8362 5.91949C15.8881 5.99243 15.9216 6.07752 15.9674 6.1535C16.0498 6.31152 16.1383 6.4574 16.2177 6.63366C16.297 6.80992 16.355 6.97402 16.4252 7.14725C16.9691 8.59758 17.0248 10.1847 16.5839 11.6693L16.413 12.195C16.3458 12.3652 16.2665 12.5263 16.1963 12.6904C16.1566 12.7724 16.1292 12.8575 16.0834 12.9335C16.0376 13.0095 15.9949 13.0855 15.9521 13.1614L15.824 13.3894C15.8026 13.4258 15.7812 13.4653 15.7568 13.5018L15.6836 13.6082L15.3784 14.0215C15.2777 14.1552 15.1647 14.2737 15.0732 14.3983L14.9145 14.5806L14.7466 14.7478L14.4109 15.0699C13.9834 15.439 13.5155 15.7591 13.0162 16.0242L12.6805 16.1974C12.5706 16.2521 12.4577 16.2886 12.3478 16.3341L12.0426 16.4618C11.9425 16.4983 11.8407 16.5297 11.7374 16.556L11.4505 16.638C11.3639 16.6671 11.2751 16.6894 11.185 16.7049L10.7119 16.79C10.5861 16.8144 10.4586 16.8286 10.3305 16.8325L10.0497 16.8538H9.87572L9.81773 16.8386Z" fill="#263238"/>
<path d="M1.58079 14.2371C1.56276 14.2146 1.5474 14.1901 1.53501 14.1642L1.40988 13.9514C1.358 13.8603 1.29391 13.7448 1.22982 13.605C1.16573 13.4652 1.08333 13.3163 1.01618 13.137L0.903264 12.8604C0.863589 12.7632 0.833068 12.6598 0.796445 12.5565C0.717095 12.3438 0.659111 12.1128 0.588917 11.8667C0.459026 11.3343 0.370262 10.7928 0.323401 10.2469C0.287226 9.69914 0.294372 9.14942 0.344767 8.60279C0.375286 8.35359 0.399697 8.11351 0.445476 7.8947C0.466839 7.78226 0.482103 7.67589 0.506518 7.57257C0.530933 7.46924 0.555343 7.37503 0.576706 7.26867C0.619433 7.08025 0.674368 6.91614 0.720147 6.77027C0.754815 6.64543 0.796594 6.52266 0.845277 6.40255L0.936831 6.17463C0.944213 6.14684 0.95552 6.12024 0.970407 6.09561C0.96653 6.12469 0.959361 6.15324 0.949041 6.18071L0.872743 6.41167C0.83612 6.51196 0.796444 6.63656 0.756769 6.78243C0.717094 6.9283 0.665213 7.08633 0.625538 7.27779C0.605192 7.37301 0.583831 7.47431 0.56145 7.58168C0.537035 7.68197 0.524827 7.79138 0.503463 7.90078C0.460736 8.11959 0.439376 8.35663 0.411909 8.60583C0.363696 9.14856 0.358588 9.69424 0.396644 10.2378C0.440578 10.7804 0.526283 11.3189 0.653004 11.8484C0.720147 12.0916 0.778131 12.3225 0.851377 12.5353C0.888 12.6386 0.918528 12.7449 0.955151 12.8392L1.06196 13.1187C1.1291 13.298 1.20541 13.45 1.26644 13.5898C1.32748 13.7296 1.38546 13.8451 1.4343 13.9393L1.54722 14.1581C1.5627 14.1824 1.57405 14.2091 1.58079 14.2371Z" fill="white"/>
<path d="M9.7797 1.92935C9.70259 1.93728 9.62486 1.93728 9.54775 1.92935H9.27308C9.16931 1.92935 9.04724 1.92935 8.91295 1.92935C8.77867 1.92935 8.63523 1.94455 8.47652 1.96278C8.31782 1.98101 8.15607 2.00229 7.98211 2.02964C7.22605 2.15937 6.49431 2.40328 5.81217 2.75292C5.65652 2.83801 5.50698 2.91399 5.37574 2.99908C5.24876 3.07083 5.12551 3.14893 5.00646 3.23308C4.89354 3.30602 4.79893 3.37895 4.70127 3.44277C4.6036 3.50659 4.54561 3.56129 4.48763 3.60991C4.42958 3.66158 4.36731 3.70834 4.30146 3.74971C4.35373 3.69234 4.40981 3.63853 4.46932 3.58864C4.52425 3.53698 4.59444 3.4762 4.67685 3.41238C4.75925 3.34856 4.85386 3.26651 4.96678 3.19054C5.07971 3.11456 5.19567 3.02947 5.33301 2.94742C5.47035 2.86536 5.6138 2.78027 5.76945 2.69518C6.11224 2.51712 6.46834 2.36574 6.83457 2.24237C7.20095 2.12053 7.57652 2.02806 7.95769 1.96582C8.1347 1.94151 8.30256 1.91415 8.46126 1.90504C8.61996 1.89592 8.76645 1.88377 8.90074 1.88073C9.03503 1.87769 9.1571 1.88073 9.26392 1.88073C9.37074 1.88073 9.4623 1.88073 9.53555 1.89896C9.61758 1.90302 9.69919 1.91318 9.7797 1.92935Z" fill="white"/>
<path d="M11.0177 18.4616C10.9643 18.4862 10.9079 18.5035 10.8499 18.5133C10.74 18.5437 10.5782 18.5771 10.3799 18.6105C9.33067 18.7835 8.25542 18.7107 7.2394 18.3978C7.04713 18.3401 6.89149 18.2823 6.78772 18.2398C6.73255 18.2207 6.67938 18.1963 6.62901 18.1668C6.68654 18.1756 6.74287 18.1909 6.79688 18.2124C6.90369 18.2489 7.05934 18.2975 7.25467 18.3522C8.26793 18.6341 9.32858 18.7055 10.3707 18.5619C10.5721 18.5346 10.7339 18.5072 10.8438 18.4859C10.9004 18.4702 10.9589 18.462 11.0177 18.4616Z" fill="white"/>
</svg>
