<svg width="16" height="16" viewBox="0 0 16 16" fill="none" xmlns="http://www.w3.org/2000/svg">
<path d="M15.9947 7.72058C16.0499 9.30185 15.635 10.864 14.8024 12.2094C13.9698 13.5549 12.7569 14.6232 11.3171 15.2793C9.87737 15.9354 8.27536 16.1499 6.71371 15.8955C5.15206 15.6412 3.70091 14.9294 2.54377 13.8503C1.38664 12.7712 0.575484 11.3732 0.212894 9.83305C-0.149696 8.29293 -0.0474388 6.67987 0.506737 5.19787C1.06091 3.71586 2.04211 2.43147 3.32626 1.50713C4.61041 0.582777 6.13982 0.0599837 7.72109 0.00486153C9.84139 -0.0690509 11.9042 0.702317 13.4558 2.14928C15.0074 3.59625 15.9207 5.60029 15.9947 7.72058Z" fill="#20446C"/>
<g opacity="0.1">
<path opacity="0.1" d="M7.72053 0.00579929C5.60025 0.079846 3.59621 0.993111 2.14926 2.5447C0.702304 4.09628 -0.0690504 6.15911 0.00486154 8.2794C0.00486154 8.2794 5.63487 8.33571 6.91441 6.02483C8.19396 3.71395 7.72053 0.00579929 7.72053 0.00579929Z" fill="white"/>
</g>
<path d="M13.9443 7.66423C13.9867 8.86654 13.6714 10.0544 13.0385 11.0775C12.4055 12.1006 11.4832 12.9129 10.3884 13.4116C9.29365 13.9104 8.0755 14.0732 6.88816 13.8794C5.70082 13.6856 4.59765 13.1439 3.71826 12.3229C2.83887 11.502 2.22278 10.4386 1.94796 9.26732C1.67314 8.09608 1.75195 6.86963 2.17441 5.74319C2.59686 4.61674 3.34398 3.64094 4.32121 2.93926C5.29844 2.23757 6.46187 1.84155 7.66425 1.80131C9.27412 1.74744 10.8396 2.33454 12.017 3.43376C13.1944 4.53297 13.8876 6.05446 13.9443 7.66423Z" fill="#20446C"/>
<g opacity="0.2">
<path opacity="0.2" d="M13.9443 7.66423C13.9867 8.86654 13.6714 10.0544 13.0385 11.0775C12.4055 12.1006 11.4832 12.9129 10.3884 13.4116C9.29365 13.9104 8.0755 14.0732 6.88816 13.8794C5.70082 13.6856 4.59765 13.1439 3.71826 12.3229C2.83887 11.502 2.22278 10.4386 1.94796 9.26732C1.67314 8.09608 1.75195 6.86963 2.17441 5.74319C2.59686 4.61674 3.34398 3.64094 4.32121 2.93926C5.29844 2.23757 6.46187 1.84155 7.66425 1.80131C9.27412 1.74744 10.8396 2.33454 12.017 3.43376C13.1944 4.53297 13.8876 6.05446 13.9443 7.66423Z" fill="#20446C"/>
</g>
<path d="M14.1266 7.91238C14.1679 9.09797 13.8567 10.2692 13.2324 11.2779C12.608 12.2867 11.6986 13.0876 10.6191 13.5796C9.53965 14.0715 8.33853 14.2323 7.16764 14.0417C5.99676 13.851 4.90869 13.3175 4.04102 12.5085C3.17335 11.6995 2.56503 10.6514 2.29299 9.49667C2.02095 8.34197 2.09738 7.13254 2.51265 6.02129C2.92791 4.91004 3.66336 3.94687 4.62598 3.25356C5.58861 2.56025 6.73519 2.16794 7.92076 2.12623C9.51089 2.07096 11.0579 2.64944 12.2216 3.73447C13.3854 4.8195 14.0706 6.32227 14.1266 7.91238Z" fill="#F0792E"/>
<path d="M9.73357 6.46304C9.93829 6.46304 10.1042 6.29947 10.1042 6.09763C10.1042 5.89594 9.93829 5.73222 9.73357 5.73222H6.79811C6.59339 5.73222 6.42747 5.89594 6.42747 6.09763C6.42747 6.29947 6.59339 6.46304 6.79811 6.46304H7.63944C7.98735 6.46247 8.30341 6.66259 8.44747 6.97462H6.80173C6.59715 6.97462 6.43109 7.13834 6.43109 7.34003C6.43109 7.54186 6.59715 7.70544 6.80173 7.70544H8.44747C8.30211 8.01661 7.98677 8.21616 7.63944 8.21702H6.79811C6.64609 8.21716 6.50941 8.30865 6.45309 8.44782C6.39677 8.58699 6.4321 8.746 6.54228 8.8492L8.64017 10.8041C8.70952 10.8681 8.80103 10.9034 8.89586 10.9028C8.99778 10.9022 9.09522 10.8614 9.16646 10.7896C9.23392 10.7194 9.27026 10.6256 9.26751 10.5289C9.26476 10.4323 9.22307 10.3407 9.15169 10.2743L7.72833 8.94784C8.45036 8.90673 9.05932 8.403 9.22582 7.70915H9.73357C9.93829 7.70915 10.1042 7.54557 10.1042 7.34374C10.1042 7.14191 9.93829 6.97833 9.73357 6.97833H9.22582C9.18267 6.79634 9.10738 6.62305 9.00343 6.46676H9.73357V6.46304Z" fill="white"/>
<g opacity="0.2">
<path opacity="0.2" d="M14.1266 7.91238C14.1679 9.09797 13.8567 10.2692 13.2324 11.2779C12.608 12.2867 11.6986 13.0876 10.6191 13.5796C9.53965 14.0715 8.33853 14.2323 7.16764 14.0417C5.99676 13.851 4.90869 13.3175 4.04102 12.5085C3.17335 11.6995 2.56503 10.6514 2.29299 9.49667C2.02095 8.34197 2.09738 7.13254 2.51265 6.02129C2.92791 4.91004 3.66336 3.94687 4.62598 3.25356C5.58861 2.56025 6.73519 2.16794 7.92076 2.12623C9.51089 2.07096 11.0579 2.64944 12.2216 3.73447C13.3854 4.8195 14.0706 6.32227 14.1266 7.91238Z" fill="white"/>
</g>
<path d="M8.23352 14.1798H8.28214L8.42545 14.167L8.66089 14.1439C8.76752 14.1365 8.87353 14.122 8.97822 14.1004L9.37487 14.0237C9.44964 14.0097 9.52322 13.99 9.59496 13.9648L9.83296 13.8931C9.91956 13.8711 10.005 13.8446 10.0889 13.8138L10.3448 13.7063C10.4343 13.6679 10.529 13.6347 10.6186 13.5886L10.9001 13.4402C11.3138 13.2166 11.701 12.947 12.0543 12.6366L12.3332 12.3679L12.474 12.2297C12.5175 12.1785 12.5584 12.1274 12.6045 12.0762C12.6889 11.9712 12.7836 11.8714 12.8604 11.7588L13.1009 11.4134L13.1623 11.3238C13.1828 11.2956 13.1982 11.2624 13.2161 11.2317L13.3236 11.0423L13.4311 10.8504C13.4695 10.7864 13.4925 10.7147 13.5258 10.6482C13.5846 10.51 13.6486 10.3744 13.7023 10.2336L13.8482 9.796C14.0202 9.17901 14.1004 8.54006 14.0862 7.8997C14.0565 7.25945 13.9314 6.62721 13.7151 6.02387C13.6563 5.88056 13.6 5.73725 13.5411 5.5965C13.4822 5.45575 13.4029 5.32779 13.3338 5.19472C13.3015 5.12801 13.2656 5.06308 13.2263 5.00022L13.1061 4.81597L12.9858 4.63427C12.9653 4.60356 12.9474 4.57285 12.9269 4.5447L12.8578 4.46025L12.6019 4.13268C12.5098 4.02776 12.41 3.93307 12.3178 3.83583L12.1771 3.69252C12.1285 3.64645 12.0773 3.60551 12.0261 3.562L11.7318 3.30609C11.3567 3.02088 10.9506 2.7788 10.5214 2.58442L10.2322 2.45647C10.1375 2.41552 10.0402 2.39249 9.95067 2.35922L9.67941 2.26965C9.59496 2.23894 9.50539 2.22871 9.4235 2.20567L9.18039 2.15193C9.10648 2.13256 9.03119 2.11887 8.95519 2.11099L8.55597 2.06236C8.45 2.04749 8.34307 2.04065 8.23608 2.04189H8.00064H7.85477H8.23608C8.34294 2.0387 8.4499 2.04383 8.55597 2.05724L8.95774 2.10075C9.03439 2.10876 9.11046 2.12159 9.1855 2.13914L9.44141 2.19288C9.52331 2.21335 9.61287 2.22359 9.69732 2.2543L9.96859 2.34131C10.0607 2.37202 10.1605 2.39761 10.2552 2.43855L10.5469 2.56395C10.9798 2.75811 11.39 2.99927 11.7702 3.28306L12.0671 3.53897L12.2206 3.66949L12.3614 3.8128C12.456 3.9126 12.5584 4.00729 12.6505 4.11221L12.9064 4.44234L12.9755 4.52679L13.037 4.61636L13.1572 4.80061L13.2801 4.98487C13.3236 5.04629 13.3517 5.11794 13.3901 5.18192C13.4592 5.315 13.5334 5.43783 13.6 5.58626C13.6665 5.73469 13.7151 5.87288 13.774 6.01875C14.2301 7.24006 14.2768 8.57654 13.9071 9.82671L13.7637 10.2694C13.7074 10.4127 13.6409 10.5484 13.582 10.6866C13.5488 10.7557 13.5257 10.8273 13.4874 10.8913C13.449 10.9553 13.4131 11.0193 13.3773 11.0832L13.2698 11.2752C13.2519 11.3059 13.234 11.3391 13.2135 11.3699L13.1521 11.4594L12.8962 11.8075C12.8118 11.9201 12.7171 12.0199 12.6403 12.1248L12.5072 12.2783L12.3665 12.4191L12.085 12.6904C11.7265 13.0012 11.3342 13.2707 10.9155 13.4939L10.634 13.6398C10.5418 13.6859 10.4471 13.7166 10.355 13.7549L10.0991 13.8624C10.0152 13.8932 9.92978 13.9196 9.8432 13.9418L9.60264 14.0109C9.52998 14.0353 9.45555 14.0541 9.38 14.0672L8.98333 14.1388C8.87784 14.1593 8.77086 14.1713 8.66344 14.1746L8.42801 14.1926H8.28214L8.23352 14.1798Z" fill="#263238"/>
<path d="M1.32448 11.9891C1.30936 11.9702 1.29648 11.9496 1.28609 11.9277L1.18117 11.7486C1.13767 11.6718 1.08393 11.5745 1.03018 11.4568C0.976444 11.3391 0.907345 11.2137 0.851046 11.0627L0.756361 10.8298C0.723093 10.7479 0.6975 10.6609 0.666791 10.5739C0.600255 10.3948 0.551634 10.2003 0.492775 9.99301C0.38386 9.54469 0.30943 9.08869 0.270136 8.629C0.239803 8.16775 0.245795 7.70483 0.288052 7.24452C0.313643 7.03468 0.334112 6.83251 0.372498 6.64825C0.390412 6.55356 0.40321 6.464 0.423683 6.37699C0.444156 6.28998 0.464623 6.21064 0.482537 6.12107C0.518364 5.96241 0.564428 5.82422 0.602814 5.70138C0.631884 5.59626 0.666916 5.49287 0.707737 5.39173L0.784507 5.19979C0.790697 5.17639 0.800178 5.15399 0.812661 5.13326C0.80941 5.15774 0.803399 5.18178 0.794745 5.20491L0.730768 5.3994C0.700059 5.48385 0.66679 5.58878 0.633522 5.71162C0.600254 5.83445 0.556751 5.96753 0.523483 6.12875C0.506423 6.20894 0.488511 6.29424 0.469745 6.38466C0.449272 6.46911 0.439035 6.56124 0.421121 6.65337C0.385294 6.83763 0.367384 7.03723 0.344352 7.24708C0.303925 7.70411 0.299642 8.16362 0.331552 8.62133C0.368391 9.07827 0.440256 9.53171 0.546514 9.97765C0.602814 10.1824 0.651435 10.3769 0.712853 10.556C0.743562 10.643 0.76916 10.7326 0.799869 10.8119L0.88943 11.0474C0.94573 11.1983 1.00971 11.3263 1.06089 11.444C1.11207 11.5617 1.16069 11.659 1.20164 11.7383L1.29632 11.9226C1.30931 11.9431 1.31882 11.9655 1.32448 11.9891Z" fill="white"/>
<path d="M8.19823 1.62472C8.13357 1.6314 8.06839 1.6314 8.00374 1.62472H7.77342C7.68641 1.62472 7.58405 1.62472 7.47145 1.62472C7.35884 1.62472 7.23857 1.63752 7.10549 1.65287C6.97242 1.66823 6.83679 1.68614 6.69092 1.70917C6.05695 1.81842 5.44337 2.02381 4.87139 2.31824C4.74088 2.38989 4.61548 2.45387 4.50544 2.52553C4.39897 2.58595 4.29562 2.65171 4.19579 2.72258C4.10111 2.784 4.02177 2.84542 3.93988 2.89916C3.85799 2.9529 3.80936 2.99896 3.76074 3.03991C3.71207 3.08342 3.65986 3.12279 3.60464 3.15763C3.64847 3.10932 3.69549 3.06401 3.74539 3.02199C3.79145 2.97849 3.85031 2.92731 3.9194 2.87357C3.9885 2.81982 4.06784 2.75073 4.16252 2.68675C4.25721 2.62277 4.35445 2.55112 4.46961 2.48202C4.58477 2.41293 4.70505 2.34127 4.83557 2.26962C5.123 2.11968 5.4216 1.9922 5.72869 1.88831C6.03591 1.78571 6.35082 1.70784 6.67044 1.65543C6.81887 1.63496 6.95962 1.61192 7.09269 1.60425C7.22577 1.59657 7.34861 1.58634 7.46121 1.58378C7.57381 1.58122 7.67617 1.58378 7.76574 1.58378C7.85531 1.58378 7.93209 1.58378 7.9935 1.59913C8.06229 1.60255 8.13072 1.6111 8.19823 1.62472Z" fill="white"/>
<path d="M9.23724 15.5463C9.19246 15.5669 9.14513 15.5816 9.0965 15.5898C9.00437 15.6154 8.86873 15.6435 8.70239 15.6717C7.82262 15.8173 6.921 15.756 6.06906 15.4925C5.90784 15.4439 5.77733 15.3953 5.69032 15.3595C5.64405 15.3434 5.59947 15.3228 5.55724 15.298C5.60547 15.3054 5.65271 15.3183 5.69799 15.3364C5.78756 15.3671 5.91808 15.4081 6.08186 15.4541C6.93149 15.6915 7.82087 15.7516 8.69471 15.6307C8.86362 15.6077 8.99925 15.5847 9.09137 15.5667C9.13888 15.5535 9.18793 15.5466 9.23724 15.5463Z" fill="white"/>
</svg>
