<svg width="3" height="4" viewBox="0 0 3 4" fill="none" xmlns="http://www.w3.org/2000/svg">
<path opacity="0.8" d="M1.5849 0.000621053C0.754503 0.0256618 0.0372976 0.772524 0.00138281 1.67072C-0.0345319 2.56892 0.633698 3.26462 1.47497 3.20256C2.29775 3.14268 2.9736 2.38384 2.99863 1.51613C3.02366 0.648411 2.39679 -0.0233309 1.5849 0.000621053ZM1.50436 2.34138C1.11583 2.36533 0.80892 2.04524 0.824157 1.62826C0.828747 1.43094 0.905875 1.24224 1.0408 1.09822C1.17572 0.954214 1.35897 0.865001 1.55551 0.847646C1.64732 0.845321 1.73859 0.862397 1.82336 0.897757C1.90813 0.933117 1.98448 0.985964 2.04744 1.05285C2.1104 1.11974 2.15855 1.19917 2.18874 1.28593C2.21893 1.3727 2.23049 1.46487 2.22265 1.55641C2.2187 1.75257 2.14334 1.94056 2.01069 2.08508C1.87804 2.22961 1.69723 2.32074 1.50218 2.34138H1.50436Z" fill="white"/>
</svg>
