<svg width="24" height="24" viewBox="0 0 24 24" fill="none" xmlns="http://www.w3.org/2000/svg">
<g clip-path="url(#clip0_7_51211)">
<path d="M1.81711 17.8291C0.9863 16.2402 0.515816 14.433 0.515816 12.5158C0.515816 6.17317 5.65749 1.03149 12.0001 1.03149C18.3427 1.03149 23.4844 6.17321 23.4844 12.5158C23.4844 14.4331 23.0139 16.2402 22.1831 17.8292L1.81711 17.8291Z" fill="#F7E8CA"/>
<path d="M12.8614 0.0536845C15.4472 0.405997 15.6929 1.87206 15.6941 2.41C15.6943 2.52278 15.7568 2.62736 15.8583 2.67667C17.2033 3.331 16.4781 6.48456 16.4781 6.48456C16.343 6.49356 16.2017 6.54826 16.0962 6.59936C16.0704 6.43867 16.0283 6.28047 15.9687 6.12751C15.9234 6.01098 15.8667 5.89328 15.7958 5.78204C15.6728 5.58906 15.6168 5.36143 15.6335 5.13381C15.6818 4.47592 15.6585 3.17954 14.7901 2.78884C14.0544 2.45781 13.1519 2.64948 12.5764 2.84087C12.2027 2.96514 11.7978 2.96514 11.424 2.84087C10.8485 2.64948 9.94606 2.45781 9.21036 2.78884C8.34444 3.17847 8.31879 4.46856 8.36661 5.12818C8.3832 5.3575 8.32868 5.58751 8.20475 5.782C8.13158 5.89679 8.0735 6.01853 8.02742 6.13872C7.97014 6.28815 7.92941 6.44256 7.90423 6.59931C7.77134 6.5349 7.58136 6.46478 7.41884 6.48775C7.39897 5.79817 7.33531 5.05482 7.33531 5.05482C6.569 1.30178 10.0772 -0.325675 12.8614 0.0536845Z" fill="#665364"/>
<path d="M12.8614 0.0537486C15.4472 0.406061 15.693 1.87212 15.6941 2.41001C15.6943 2.52284 15.7568 2.62737 15.8582 2.67669C17.2033 3.33101 16.4781 6.48458 16.4781 6.48458C16.343 6.49358 16.2017 6.54828 16.0962 6.59937C16.0704 6.43869 16.0283 6.28048 15.9687 6.12753C15.9234 6.011 15.8666 5.8933 15.7958 5.78206C15.6728 5.58908 15.6167 5.36145 15.6334 5.13383C15.6818 4.47594 15.6585 3.17956 14.7901 2.78886C14.0901 2.47386 13.2393 2.63216 12.6627 2.81314C12.6678 2.80362 12.6725 2.79387 12.6779 2.78445C13.6409 1.10098 12.0116 0.0388424 11.9527 0.00115486C12.2597 -0.00409514 12.5647 0.0133424 12.8614 0.0537486Z" fill="#543E5B"/>
<path d="M7.12816 6.57726C7.32958 6.39267 7.73074 6.48623 7.90418 6.59925C7.86616 6.83587 7.86401 7.07798 7.89687 7.31704L8.10157 8.80785C8.10157 8.92804 8.10537 9.04593 8.1123 9.16181C7.61318 9.31237 7.36526 8.86425 7.32344 8.55675C7.30549 8.42437 7.2761 8.29392 7.23532 8.1666C7.10252 7.7519 6.62355 7.03968 7.12816 6.57726Z" fill="#FCAD6D"/>
<path d="M7.56157 7.83244C7.70506 7.83244 7.83855 7.79119 7.95227 7.72088L8.10157 8.808C8.10157 8.92819 8.10532 9.04608 8.1123 9.16195C7.61318 9.31252 7.36526 8.86439 7.32345 8.55689C7.30549 8.42452 7.2761 8.29406 7.23532 8.1667C7.18338 8.00452 7.07857 7.79667 7.00029 7.57617C7.13684 7.73292 7.33737 7.83244 7.56157 7.83244Z" fill="#FD995B"/>
<path d="M16.8721 6.57726C16.6708 6.39267 16.2696 6.48623 16.0961 6.59925C16.1341 6.83587 16.1363 7.07798 16.1034 7.31704L15.8987 8.80785C15.8987 8.92804 15.8949 9.04593 15.888 9.16181C16.3871 9.31237 16.635 8.86425 16.6768 8.55675C16.6948 8.42437 16.7242 8.29392 16.765 8.1666C16.8978 7.7519 17.3767 7.03968 16.8721 6.57726Z" fill="#FCAD6D"/>
<path d="M16.0555 7.66748C16.1832 7.77046 16.3455 7.83239 16.5223 7.83239C16.6845 7.83239 16.8342 7.77998 16.9565 7.6919C16.8864 7.86881 16.8079 8.0332 16.7651 8.16665C16.7243 8.29396 16.6949 8.42446 16.677 8.55684C16.6352 8.86434 16.3873 9.31246 15.8881 9.1619C15.8951 9.04607 15.8989 8.92814 15.8989 8.80795L16.0555 7.66748Z" fill="#FD995B"/>
<path d="M14.5465 14.7675C14.2724 15.4321 13.786 16.0575 13.1007 16.6265C13.0167 16.6962 12.9663 16.7988 12.9623 16.9081L12.9599 16.974H11.0402L11.0378 16.9081C11.0338 16.7988 10.9834 16.6962 10.8995 16.6265C10.2141 16.0575 9.72767 15.4321 9.45354 14.7675C9.26412 14.3083 9.21115 13.9147 9.20661 13.6308C9.35881 13.1818 9.4115 12.6726 9.42537 12.269C9.68543 12.5719 9.95839 12.8253 10.2192 13.0279C10.7272 13.4224 11.3543 13.6367 12 13.6367C12.6458 13.6367 13.2728 13.4224 13.7809 13.0279C14.0417 12.8253 14.3147 12.5719 14.5747 12.269C14.5886 12.6726 14.6413 13.1817 14.7935 13.6307C14.789 13.9147 14.7359 14.3083 14.5465 14.7675Z" fill="#FCAD6D"/>
<path d="M12 13.6367C12.6458 13.6367 13.2728 13.4224 13.7809 13.0279C14.0417 12.8253 14.3147 12.5719 14.5747 12.269C14.5886 12.6726 14.6413 13.1817 14.7935 13.6307C14.7889 13.9147 14.7358 14.3083 14.5465 14.7675C14.2723 15.4321 13.7859 16.0575 13.1006 16.6265C13.0943 16.6317 13.0886 16.6375 13.0827 16.6431C12.063 15.6883 12 13.6367 12 13.6367Z" fill="#FD995B"/>
<path d="M11.0739 22.7019C10.0877 20.9583 9.45862 19.2321 9.05822 17.7114C9.21014 17.9451 9.35433 18.1558 9.47855 18.3321C9.54417 18.4253 9.64725 18.48 9.76134 18.4822C9.87591 18.4835 9.98128 18.4336 10.0508 18.3426L10.4539 17.8151L10.8668 18.5497C10.9735 18.7631 11.1879 18.8955 11.4264 18.8955H12.5659C12.8044 18.8955 13.0188 18.763 13.1254 18.5497L13.5412 17.8092L13.9489 18.3426C14.0184 18.4335 14.1249 18.4834 14.2383 18.4822C14.3524 18.48 14.4555 18.4252 14.5211 18.332C14.6453 18.1557 14.7895 17.9451 14.9414 17.7114C14.541 19.2321 13.9118 20.9582 12.9255 22.7019H11.0739V22.7019Z" fill="#BEC8F7"/>
<path d="M11.4265 18.8955H12.566C12.6209 18.8955 12.6745 18.8881 12.7258 18.8747C13.0275 19.6806 13.2261 20.8759 13.3555 21.8999C13.0024 22.596 12.5945 23.2995 12.1242 23.9984C12.0828 23.9988 12.0415 24 11.9999 24C11.9584 24 11.917 23.9989 11.8755 23.9984C11.3833 23.2668 10.9592 22.5302 10.5949 21.8023C10.7253 20.7998 10.9224 19.6416 11.2176 18.8599C11.2834 18.883 11.3538 18.8955 11.4265 18.8955Z" fill="#543E5B"/>
<path d="M11.4265 18.8955H12.566C12.6209 18.8955 12.6745 18.8881 12.7258 18.8747C13.0275 19.6806 13.2261 20.8759 13.3555 21.8999C13.0024 22.596 12.5945 23.2995 12.1242 23.9984C12.0828 23.9988 12.0415 24 11.9999 24C11.9584 24 11.917 23.9989 11.8755 23.9984C11.3833 23.2668 10.9592 22.5302 10.5949 21.8023C10.7253 20.7998 10.9224 19.6416 11.2176 18.8599C11.2834 18.883 11.3538 18.8955 11.4265 18.8955Z" fill="#543E5B"/>
<path d="M11.9958 21.1653C12.476 21.1653 12.8998 20.9235 13.1521 20.5551C13.2338 21.0059 13.3009 21.4681 13.3555 21.9C13.0024 22.5961 12.5945 23.2996 12.1242 23.9985C12.0828 23.9989 12.0415 24.0001 11.9999 24.0001C11.9583 24.0001 11.917 23.999 11.8755 23.9985C11.3833 23.2669 10.9592 22.5303 10.5949 21.8024C10.6499 21.3796 10.7169 20.9294 10.7979 20.4912C11.0437 20.8954 11.4882 21.1653 11.9958 21.1653Z" fill="#422953"/>
<path d="M10.9961 16.9058C11.5995 16.9058 12.3476 16.9058 12.9509 16.9058L13.5762 17.8925L13.1867 18.6714C13.0692 18.9066 12.8289 19.0551 12.566 19.0551H11.4265C11.1637 19.0551 10.9234 18.9066 10.8058 18.6714L10.4164 17.8925L10.9961 16.9058Z" fill="#665364"/>
<path d="M11.8334 18.6624C12.0808 18.1675 12.051 17.5792 11.7549 17.1119L11.6242 16.9058C12.0732 16.9058 12.5448 16.9058 12.9509 16.9058L13.5762 17.8925L13.1867 18.6714C13.0692 18.9066 12.8289 19.0551 12.566 19.0551H11.4265C11.388 19.0551 11.3501 19.0515 11.313 19.0454C11.5356 19.0089 11.7305 18.8682 11.8334 18.6624Z" fill="#543E5B"/>
<path d="M10.1056 18.384C9.93197 18.6111 9.58777 18.605 9.42314 18.3714C9.28355 18.1731 9.11171 17.9213 8.92969 17.6367C8.52076 16.014 8.38285 14.7252 8.32852 14.0719L9.1043 13.3954C9.17377 13.3348 9.28158 13.3871 9.27727 13.4792C9.25238 14.0118 9.38625 15.2812 10.9434 16.574C11.1297 16.7286 11.1615 17.0026 11.0145 17.1949L10.1056 18.384Z" fill="#E9EFFF"/>
<path d="M15.0703 17.6372C14.8885 17.9216 14.7167 18.1733 14.5772 18.3714C14.4126 18.6051 14.0683 18.6112 13.8947 18.3841L12.9859 17.1949C12.8388 17.0026 12.8707 16.7286 13.057 16.574C14.6141 15.2812 14.748 14.0118 14.7231 13.4792C14.7188 13.3871 14.8266 13.3348 14.8961 13.3954L15.6719 14.0719C15.6175 14.7253 15.4794 16.0143 15.0703 17.6372Z" fill="#E9EFFF"/>
<path d="M13.5762 16.0921C14.6451 14.9756 14.7449 13.9453 14.7231 13.4792C14.7188 13.3871 14.8266 13.3348 14.8961 13.3954L15.6719 14.0719C15.6252 14.6327 15.5168 15.6621 15.2283 16.9688C15.053 16.9361 14.8941 16.8346 14.7897 16.6824C14.2012 15.8244 13.5762 16.0921 13.5762 16.0921Z" fill="#DAE2FE"/>
<path d="M16.5297 21.095C16.5883 21.0276 16.5944 20.9288 16.5445 20.8545L15.7338 19.6472C15.6754 19.5602 15.661 19.4533 15.6943 19.3538C15.7277 19.2544 15.8036 19.1777 15.9028 19.1435L17.2578 18.6758C17.331 18.6505 17.3831 18.5841 17.3907 18.5065C17.5247 17.1434 17.4355 15.9456 17.3704 15.353C17.3592 15.2508 17.3235 15.1534 17.269 15.0676C17.6128 15.2229 17.9513 15.3954 18.2877 15.5851C18.6793 15.8059 18.8561 15.9348 19.1883 15.962C20.7007 16.0856 21.6341 16.8373 22.2075 17.7822C20.5226 21.0413 17.323 23.3898 13.54 23.897C15.0206 22.7758 16.1619 21.5179 16.5297 21.095Z" fill="#422953"/>
<path d="M19.3861 21.3088C19.217 18.3517 17.5284 17.7114 17.5284 17.7114C17.5021 17.6851 17.4757 17.6598 17.4494 17.6352C17.4866 16.6455 17.4212 15.8151 17.3704 15.353C17.3592 15.2508 17.3235 15.1534 17.269 15.0676C17.6128 15.2229 17.9513 15.3954 18.2877 15.5851C18.6793 15.8059 18.8561 15.9348 19.1883 15.962C20.7007 16.0856 21.6341 16.8373 22.2075 17.7822C21.5068 19.1376 20.5438 20.3353 19.3861 21.3088Z" fill="#30144A"/>
<path d="M15.5171 13.9645C15.5296 13.8079 15.7109 13.7278 15.8353 13.8237L17.1558 14.8419C17.3148 14.9645 17.4169 15.1461 17.4388 15.3456C17.4998 15.9009 17.5956 17.1252 17.4593 18.5133C17.4491 18.6174 17.3795 18.7063 17.2806 18.7404L15.9255 19.2082C15.76 19.2653 15.6934 19.4638 15.7911 19.6091L16.6017 20.8164C16.669 20.9165 16.6609 21.049 16.5818 21.1399C16.2141 21.5626 15.1142 22.7746 13.6795 23.8775C13.1447 23.9559 12.5981 23.9975 12.042 23.9996C14.9455 19.7063 15.415 15.2527 15.5171 13.9645Z" fill="#543E5B"/>
<path d="M15.5173 13.9645C15.5297 13.8079 15.711 13.7278 15.8354 13.8237L17.156 14.8419C17.3149 14.9645 17.4171 15.1461 17.4389 15.3456C17.4876 15.789 17.5584 16.6592 17.5156 17.6985C16.7369 16.9286 15.9336 16.8958 15.4565 16.9721C15.3201 16.9939 15.1841 16.9722 15.064 16.9155C15.3716 15.5527 15.4753 14.4925 15.5173 13.9645Z" fill="#422953"/>
<path d="M10.4507 23.8956C6.67167 23.3859 3.47582 21.0387 1.79235 17.7823C2.36573 16.8373 3.2992 16.0857 4.81157 15.962C5.14382 15.9349 5.32059 15.8059 5.71214 15.5852C6.0486 15.3954 6.38709 15.2229 6.73087 15.0676C6.6764 15.1534 6.64068 15.2508 6.62948 15.353C6.56442 15.9456 6.47521 17.1434 6.60909 18.5065C6.61668 18.584 6.66885 18.6505 6.74198 18.6758L8.09709 19.1435C8.19623 19.1777 8.27221 19.2544 8.30554 19.3538C8.33887 19.4532 8.32448 19.5602 8.26603 19.6472L7.45537 20.8545C7.40545 20.9288 7.41159 21.0277 7.47014 21.0951C8.50453 22.284 9.54136 23.2046 10.4507 23.8956Z" fill="#543E5B"/>
<path d="M6.8446 14.8419L8.16517 13.8237C8.28957 13.7278 8.47088 13.8079 8.48331 13.9645C8.58549 15.2526 9.05452 19.7063 11.958 23.9996C11.402 23.9975 10.8554 23.9559 10.3207 23.8775C8.8862 22.7746 7.78637 21.5626 7.41868 21.14C7.33956 21.049 7.33149 20.9165 7.39876 20.8164L8.20937 19.6092C8.30701 19.4638 8.24045 19.2653 8.07493 19.2082L6.71987 18.7405C6.62096 18.7064 6.5514 18.6174 6.54118 18.5133C6.40482 17.1252 6.50064 15.9009 6.56162 15.3456C6.58351 15.1461 6.68565 14.9645 6.8446 14.8419Z" fill="#665364"/>
<path d="M8.0062 6.13061C8.1518 5.75068 8.3775 5.59342 8.34394 5.12987C8.22328 3.46478 8.82923 2.93542 9.20109 2.76808C9.93028 2.44 10.8163 2.6148 11.4312 2.81922C11.7982 2.94128 12.2024 2.94128 12.5693 2.81922C13.1843 2.6148 14.0701 2.43995 14.7995 2.76808C15.1721 2.9357 15.7788 3.46628 15.6562 5.13554C15.6228 5.58972 15.8451 5.74693 15.99 6.11922C16.1355 6.49337 16.1827 6.90854 16.1262 7.31987L15.9217 8.80792C15.9217 11.266 14.4345 12.6862 13.7951 13.1826C12.7462 13.9973 11.262 14.0032 10.2055 13.1826C9.56606 12.6861 8.07891 11.2659 8.07914 8.81106L7.87444 7.32025C7.81842 6.91304 7.86403 6.50162 8.0062 6.13061Z" fill="#F9BA8F"/>
<path d="M11.6389 13.1826C12.2783 12.6862 13.7655 11.266 13.7655 8.8079L13.97 7.31985C14.0265 6.90853 13.9793 6.49335 13.8337 6.1192C13.6889 5.74692 13.4666 5.5897 13.5 5.13553C13.6189 3.51703 13.0521 2.96906 12.6779 2.78442C13.2855 2.5964 14.112 2.45878 14.7995 2.76806C15.1721 2.93568 15.7788 3.46626 15.6562 5.13553C15.6228 5.5897 15.8451 5.74692 15.99 6.1192C16.1356 6.49335 16.1827 6.90853 16.1262 7.31985L15.9217 8.8079C15.9217 11.266 14.4345 12.6862 13.7951 13.1826C12.9671 13.8257 11.868 13.9643 10.922 13.5907C11.175 13.491 11.4168 13.3552 11.6389 13.1826Z" fill="#FCAD6D"/>
<path d="M4.17385 20.9193C4.3194 20.7482 4.47286 20.5953 4.62338 20.4613C5.00878 20.1185 5.61914 20.3977 5.61914 20.9135V22.0647C5.1067 21.7216 4.62347 21.3382 4.17385 20.9193Z" fill="#422953"/>
<path d="M0.515762 12.5159C0.515762 8.81112 2.27048 5.5167 4.99369 3.41675C4.65187 4.57831 4.49517 6.20286 5.27058 8.00994C6.4612 10.7847 7.12678 12.5527 4.89628 13.3696C3.31448 13.9489 1.74665 14.2314 0.817918 15.1423C0.620387 14.2988 0.515762 13.4196 0.515762 12.5159Z" fill="#FDF4E2"/>
<path d="M23.4844 12.5159C23.4844 8.81112 21.7296 5.5167 19.0065 3.41675C19.3483 4.57831 19.505 6.20286 18.7296 8.00994C17.5389 10.7847 16.8734 12.5527 19.1039 13.3696C20.6857 13.9489 22.2535 14.2314 23.1823 15.1422C23.3798 14.2988 23.4844 13.4196 23.4844 12.5159Z" fill="#FDF4E2"/>
</g>
<defs>
<clipPath id="clip0_7_51211">
<rect width="24" height="24" fill="white" transform="matrix(-1 0 0 1 24 0)"/>
</clipPath>
</defs>
</svg>
