<svg width="20" height="19" viewBox="0 0 20 19" fill="none" xmlns="http://www.w3.org/2000/svg">
<path d="M19.0762 9.16845C19.142 11.0463 18.6472 12.9013 17.6542 14.4991C16.6613 16.0969 15.2148 17.3655 13.4978 18.1447C11.7807 18.9239 9.87014 19.1785 8.00772 18.8764C6.14531 18.5744 4.41467 17.7292 3.03467 16.4477C1.65468 15.1662 0.687299 13.506 0.254876 11.6771C-0.177548 9.84813 -0.0555956 7.93257 0.605312 6.17264C1.26622 4.41271 2.4364 2.88745 3.96786 1.78976C5.49933 0.692067 7.3233 0.0712326 9.20912 0.00577323C11.7378 -0.0820002 14.1979 0.834024 16.0483 2.55234C17.8987 4.27066 18.9879 6.65053 19.0762 9.16845Z" fill="#20446C"/>
<g opacity="0.1">
<path opacity="0.1" d="M9.20746 0.00704101C6.67883 0.0949739 4.28883 1.17951 2.5632 3.02207C0.837565 4.86463 -0.0823492 7.3143 0.00579785 9.83222C0.00579785 9.83222 6.72012 9.89908 8.2461 7.15484C9.77208 4.41059 9.20746 0.00704101 9.20746 0.00704101Z" fill="white"/>
</g>
<path d="M16.6311 9.10172C16.6817 10.5295 16.3057 11.9401 15.5508 13.1551C14.796 14.37 13.6961 15.3347 12.3904 15.927C11.0848 16.5192 9.63204 16.7126 8.21602 16.4824C6.8 16.2523 5.48437 15.609 4.43561 14.6341C3.38685 13.6592 2.65211 12.3963 2.32436 11.0054C1.99662 9.61454 2.0906 8.1581 2.59442 6.82041C3.09824 5.48272 3.98925 4.32392 5.15469 3.49065C6.32013 2.65738 7.70763 2.18709 9.14158 2.13931C11.0615 2.07532 12.9285 2.77254 14.3327 4.07789C15.7368 5.38324 16.5635 7.19006 16.6311 9.10172Z" fill="#20446C"/>
<g opacity="0.2">
<path opacity="0.2" d="M16.6311 9.10172C16.6817 10.5295 16.3057 11.9401 15.5508 13.1551C14.796 14.37 13.6961 15.3347 12.3904 15.927C11.0848 16.5192 9.63204 16.7126 8.21602 16.4824C6.8 16.2523 5.48437 15.609 4.43561 14.6341C3.38685 13.6592 2.65211 12.3963 2.32436 11.0054C1.99662 9.61454 2.0906 8.1581 2.59442 6.82041C3.09824 5.48272 3.98925 4.32392 5.15469 3.49065C6.32013 2.65738 7.70763 2.18709 9.14158 2.13931C11.0615 2.07532 12.9285 2.77254 14.3327 4.07789C15.7368 5.38324 16.5635 7.19006 16.6311 9.10172Z" fill="#20446C"/>
</g>
<path d="M16.8504 9.39641C16.8996 10.8043 16.5284 12.1952 15.7839 13.3931C15.0393 14.591 13.9548 15.5422 12.6674 16.1264C11.38 16.7106 9.94753 16.9015 8.55114 16.6751C7.15475 16.4487 5.85713 15.8151 4.82235 14.8544C3.78757 13.8937 3.06209 12.649 2.73765 11.2778C2.41322 9.90657 2.50437 8.47033 2.99962 7.15068C3.49486 5.83103 4.37195 4.68724 5.51997 3.86391C6.66799 3.04059 8.0354 2.5747 9.44931 2.52517C11.3457 2.45954 13.1906 3.1465 14.5785 4.43501C15.9664 5.72352 16.7835 7.50811 16.8504 9.39641Z" fill="#F0792E"/>
<path d="M11.6094 7.67518C11.8535 7.67518 12.0514 7.48092 12.0514 7.24124C12.0514 7.00173 11.8535 6.80731 11.6094 6.80731H8.10854C7.86439 6.80731 7.66651 7.00173 7.66651 7.24124C7.66651 7.48092 7.86439 7.67518 8.10854 7.67518H9.11191C9.52682 7.6745 9.90375 7.91215 10.0756 8.28269H8.11286C7.86888 8.28269 7.67083 8.47712 7.67083 8.71663C7.67083 8.95631 7.86888 9.15056 8.11286 9.15056H10.0756C9.9022 9.52009 9.52613 9.75706 9.11191 9.75808H8.10854C7.92724 9.75825 7.76424 9.8669 7.69708 10.0322C7.62991 10.1974 7.67204 10.3863 7.80344 10.5088L10.3054 12.8304C10.3881 12.9063 10.4972 12.9482 10.6103 12.9475C10.7319 12.9468 10.8481 12.8984 10.933 12.8131C11.0135 12.7297 11.0568 12.6183 11.0535 12.5036C11.0503 12.3888 11.0005 12.28 10.9154 12.2012L9.21792 10.626C10.079 10.5771 10.8052 9.97894 11.0038 9.15497H11.6094C11.8535 9.15497 12.0514 8.96072 12.0514 8.72104C12.0514 8.48135 11.8535 8.2871 11.6094 8.2871H11.0038C10.9524 8.07098 10.8626 7.8652 10.7386 7.67959H11.6094V7.67518Z" fill="white"/>
<g opacity="0.2">
<path opacity="0.2" d="M16.8504 9.39641C16.8996 10.8043 16.5284 12.1952 15.7839 13.3931C15.0393 14.591 13.9548 15.5422 12.6674 16.1264C11.38 16.7106 9.94753 16.9015 8.55114 16.6751C7.15475 16.4487 5.85713 15.8151 4.82235 14.8544C3.78757 13.8937 3.06209 12.649 2.73765 11.2778C2.41322 9.90657 2.50437 8.47033 2.99962 7.15068C3.49486 5.83103 4.37195 4.68724 5.51997 3.86391C6.66799 3.04059 8.0354 2.5747 9.44931 2.52517C11.3457 2.45954 13.1906 3.1465 14.5785 4.43501C15.9664 5.72352 16.7835 7.50811 16.8504 9.39641Z" fill="white"/>
</g>
<path d="M9.81978 16.8388H9.87777L10.0487 16.8237L10.3295 16.7963C10.4566 16.7875 10.5831 16.7703 10.7079 16.7446L11.181 16.6535C11.2701 16.6369 11.3579 16.6135 11.4434 16.5836L11.7273 16.4985C11.8306 16.4723 11.9324 16.4408 12.0325 16.4043L12.3377 16.2766C12.4445 16.231 12.5574 16.1915 12.6642 16.1368L12.9999 15.9606C13.4934 15.6951 13.9551 15.3749 14.3764 15.0063L14.709 14.6872L14.8769 14.5231C14.9288 14.4623 14.9776 14.4015 15.0326 14.3408C15.1333 14.2162 15.2462 14.0976 15.3378 13.9639L15.6246 13.5537L15.6979 13.4473C15.7223 13.4139 15.7406 13.3744 15.762 13.3379L15.8902 13.113L16.0184 12.8851C16.0641 12.8091 16.0916 12.724 16.1313 12.645C16.2015 12.4809 16.2778 12.3198 16.3419 12.1527L16.5158 11.633C16.7209 10.9003 16.8166 10.1415 16.7997 9.38106C16.7642 8.62075 16.6151 7.86994 16.3571 7.15346C16.2869 6.98327 16.2198 6.81308 16.1496 6.64594C16.0794 6.47879 15.9848 6.32684 15.9024 6.16881C15.8638 6.08959 15.821 6.01249 15.7742 5.93784L15.6308 5.71903L15.4873 5.50326C15.4629 5.4668 15.4415 5.43033 15.4171 5.3969L15.3347 5.29661L15.0295 4.90761C14.9196 4.78301 14.8006 4.67057 14.6907 4.55508L14.5229 4.3849C14.4649 4.3302 14.4039 4.28157 14.3428 4.22991L13.9918 3.92601C13.5445 3.58731 13.0602 3.29983 12.5483 3.069L12.2034 2.91705C12.0905 2.86842 11.9745 2.84107 11.8677 2.80157L11.5441 2.6952C11.4434 2.65873 11.3366 2.64657 11.239 2.61922L10.949 2.5554C10.8609 2.53239 10.7711 2.51614 10.6804 2.50678L10.2043 2.44904C10.078 2.43138 9.95044 2.42325 9.82284 2.42473H9.54205H9.36809H9.82284C9.95029 2.42094 10.0778 2.42703 10.2043 2.44296L10.6835 2.49462C10.7749 2.50414 10.8656 2.51937 10.9551 2.54021L11.2603 2.60403C11.358 2.62834 11.4648 2.6405 11.5655 2.67697L11.889 2.78029C11.9989 2.81676 12.1179 2.84715 12.2308 2.89578L12.5788 3.04469C13.095 3.27526 13.5842 3.56164 14.0376 3.89866L14.3916 4.20256L14.5748 4.35755L14.7426 4.52773C14.8555 4.64626 14.9776 4.7587 15.0875 4.8833L15.3927 5.27534L15.4751 5.37563L15.5483 5.48199L15.6918 5.7008L15.8383 5.91961C15.8902 5.99255 15.9237 6.07764 15.9695 6.15362C16.0519 6.31165 16.1404 6.45752 16.2198 6.63378C16.2991 6.81005 16.3571 6.97415 16.4273 7.14738C16.9713 8.59772 17.027 10.1848 16.586 11.6695L16.4151 12.1952C16.348 12.3654 16.2686 12.5265 16.1984 12.6906C16.1587 12.7726 16.1313 12.8577 16.0855 12.9337C16.0397 13.0097 15.997 13.0856 15.9543 13.1616L15.8261 13.3895C15.8047 13.426 15.7833 13.4655 15.7589 13.502L15.6857 13.6084L15.3805 14.0217C15.2798 14.1554 15.1668 14.2739 15.0753 14.3985L14.9166 14.5808L14.7487 14.748L14.413 15.0701C13.9855 15.4392 13.5176 15.7593 13.0183 16.0244L12.6825 16.1976C12.5727 16.2523 12.4597 16.2888 12.3499 16.3344L12.0447 16.462C11.9446 16.4985 11.8427 16.5299 11.7395 16.5562L11.4526 16.6383C11.3659 16.6673 11.2772 16.6897 11.1871 16.7051L10.714 16.7902C10.5882 16.8146 10.4606 16.8288 10.3325 16.8328L10.0517 16.854H9.87777L9.81978 16.8388Z" fill="#263238"/>
<path d="M1.57983 14.2375C1.5618 14.2151 1.54644 14.1906 1.53405 14.1646L1.40892 13.9519C1.35704 13.8607 1.29295 13.7452 1.22885 13.6054C1.16476 13.4656 1.08236 13.3167 1.01521 13.1374L0.902293 12.8609C0.862618 12.7636 0.832097 12.6603 0.795473 12.557C0.716122 12.3442 0.658138 12.1133 0.587943 11.8671C0.458051 11.3347 0.369286 10.7932 0.322424 10.2473C0.286249 9.69954 0.293395 9.14981 0.34379 8.60318C0.37431 8.35398 0.398721 8.11389 0.444501 7.89508C0.465864 7.78264 0.481128 7.67627 0.505543 7.57295C0.529959 7.46962 0.554369 7.37541 0.575732 7.26904C0.61846 7.08063 0.673395 6.91652 0.719174 6.77064C0.753843 6.64581 0.795622 6.52303 0.844305 6.40292L0.93586 6.17499C0.943242 6.14721 0.95455 6.1206 0.969437 6.09598C0.96556 6.12506 0.958391 6.1536 0.948071 6.18107L0.871772 6.41204C0.835149 6.51232 0.795472 6.63693 0.755796 6.7828C0.716121 6.92867 0.66424 7.0867 0.624565 7.27816C0.604218 7.37338 0.582857 7.47469 0.560476 7.58206C0.536061 7.68235 0.523852 7.79176 0.502488 7.90116C0.459761 8.11997 0.438401 8.35701 0.410934 8.60622C0.36272 9.14895 0.357612 9.69464 0.395668 10.2382C0.439603 10.7808 0.525308 11.3193 0.652031 11.8489C0.719174 12.092 0.777159 12.3229 0.850406 12.5357C0.887029 12.639 0.917557 12.7454 0.954181 12.8396L1.06099 13.1192C1.12813 13.2985 1.20444 13.4504 1.26548 13.5902C1.32652 13.73 1.3845 13.8455 1.43333 13.9397L1.54625 14.1585C1.56174 14.1828 1.57308 14.2095 1.57983 14.2375Z" fill="white"/>
<path d="M9.77882 1.92943C9.70171 1.93736 9.62398 1.93736 9.54686 1.92943H9.27219C9.16842 1.92943 9.04634 1.92943 8.91206 1.92943C8.77777 1.92943 8.63433 1.94463 8.47563 1.96286C8.31692 1.98109 8.15517 2.00237 7.98121 2.02972C7.22514 2.15946 6.49339 2.40336 5.81125 2.75301C5.6556 2.8381 5.50605 2.91408 5.37482 2.99917C5.24783 3.07092 5.12458 3.14902 5.00553 3.23317C4.89261 3.30611 4.798 3.37905 4.70033 3.44287C4.60267 3.50669 4.54468 3.56139 4.48669 3.61001C4.42864 3.66168 4.36637 3.70844 4.30052 3.74981C4.3528 3.69244 4.40887 3.63863 4.46838 3.58874C4.52331 3.53708 4.59351 3.47629 4.67591 3.41248C4.75831 3.34866 4.85293 3.2666 4.96585 3.19063C5.07878 3.11465 5.19475 3.02956 5.33208 2.9475C5.46942 2.86545 5.61287 2.78036 5.76852 2.69527C6.11132 2.51721 6.46742 2.36582 6.83366 2.24245C7.20004 2.12061 7.57561 2.02814 7.95679 1.9659C8.1338 1.94159 8.30166 1.91423 8.46036 1.90512C8.61906 1.896 8.76556 1.88385 8.89985 1.88081C9.03413 1.87777 9.15621 1.88081 9.26303 1.88081C9.36985 1.88081 9.46142 1.88081 9.53466 1.89904C9.6167 1.9031 9.69831 1.91326 9.77882 1.92943Z" fill="white"/>
<path d="M11.0198 18.4617C10.9664 18.4863 10.9099 18.5037 10.8519 18.5134C10.7421 18.5438 10.5803 18.5772 10.3819 18.6107C9.33272 18.7836 8.25746 18.7108 7.24143 18.3979C7.04916 18.3402 6.89351 18.2824 6.78974 18.2399C6.73457 18.2208 6.68141 18.1964 6.63104 18.167C6.68856 18.1757 6.74489 18.191 6.7989 18.2125C6.90572 18.249 7.06137 18.2976 7.2567 18.3523C8.26997 18.6342 9.33063 18.7056 10.3728 18.562C10.5742 18.5347 10.736 18.5073 10.8458 18.4861C10.9025 18.4703 10.961 18.4622 11.0198 18.4617Z" fill="white"/>
</svg>
