<svg width="27" height="26" viewBox="0 0 27 26" fill="none" xmlns="http://www.w3.org/2000/svg">
<path d="M9.19 21H2.75C1.233 21 0 19.767 0 18.25V2.75C0 1.233 1.233 0 2.75 0H14.25C15.767 0 17 1.233 17 2.75V8.84H15.5V2.75C15.5 2.061 14.939 1.5 14.25 1.5H2.75C2.061 1.5 1.5 2.061 1.5 2.75V18.25C1.5 18.939 2.061 19.5 2.75 19.5H9.19V21Z" fill="#20446C"/>
<path d="M3.75 8H13.25V9.5H3.75V8Z" fill="#F0792E"/>
<path d="M3.75 12H9.25V13.5H3.75V12Z" fill="#F0792E"/>
<circle cx="16.5" cy="15.5" r="10.5" fill="white"/>
<path fill-rule="evenodd" clip-rule="evenodd" d="M12.8998 10.7C13.0589 10.7 13.2115 10.7632 13.3241 10.8757C13.4366 10.9882 13.4998 11.1408 13.4998 11.3V12.5606C13.999 12.0513 14.6197 11.6775 15.3033 11.4744C15.9868 11.2713 16.7109 11.2455 17.4072 11.3996C18.1035 11.5536 18.7491 11.8823 19.2833 12.3548C19.8174 12.8272 20.2225 13.4279 20.4604 14.1002C20.4893 14.175 20.5028 14.2549 20.5003 14.3351C20.4977 14.4153 20.4791 14.4941 20.4456 14.567C20.412 14.6399 20.3642 14.7053 20.3049 14.7593C20.2456 14.8134 20.1761 14.855 20.1005 14.8817C20.0248 14.9085 19.9446 14.9197 19.8645 14.9149C19.7844 14.9101 19.7061 14.8893 19.6342 14.8536C19.5623 14.818 19.4983 14.7684 19.446 14.7076C19.3936 14.6468 19.354 14.5761 19.3294 14.4998C19.1483 13.9878 18.8317 13.5347 18.4133 13.1885C17.995 12.8423 17.4905 12.6162 16.9537 12.5341C16.417 12.452 15.868 12.5171 15.3653 12.7224C14.8626 12.9277 14.425 13.2656 14.0992 13.7H15.8998C16.0589 13.7 16.2115 13.7632 16.3241 13.8757C16.4366 13.9882 16.4998 14.1408 16.4998 14.3C16.4998 14.4591 16.4366 14.6117 16.3241 14.7242C16.2115 14.8367 16.0589 14.9 15.8998 14.9H12.8998C12.7407 14.9 12.5881 14.8367 12.4755 14.7242C12.363 14.6117 12.2998 14.4591 12.2998 14.3V11.3C12.2998 11.1408 12.363 10.9882 12.4755 10.8757C12.5881 10.7632 12.7407 10.7 12.8998 10.7ZM12.9046 16.1342C12.9789 16.1079 13.0576 16.0966 13.1363 16.1007C13.215 16.1049 13.2921 16.1246 13.3632 16.1586C13.4343 16.1926 13.498 16.2402 13.5507 16.2988C13.6034 16.3574 13.644 16.4258 13.6702 16.5002C13.8513 17.0121 14.1679 17.4652 14.5863 17.8114C15.0047 18.1576 15.5091 18.3837 16.0459 18.4658C16.5826 18.5479 17.1316 18.4828 17.6343 18.2775C18.137 18.0722 18.5746 17.7343 18.9004 17.3H17.0998C16.9407 17.3 16.7881 17.2367 16.6755 17.1242C16.563 17.0117 16.4998 16.8591 16.4998 16.7C16.4998 16.5408 16.563 16.3882 16.6755 16.2757C16.7881 16.1632 16.9407 16.1 17.0998 16.1H20.0998C20.2589 16.1 20.4115 16.1632 20.5241 16.2757C20.6366 16.3882 20.6998 16.5408 20.6998 16.7V19.7C20.6998 19.8591 20.6366 20.0117 20.5241 20.1242C20.4115 20.2367 20.2589 20.3 20.0998 20.3C19.9407 20.3 19.7881 20.2367 19.6755 20.1242C19.563 20.0117 19.4998 19.8591 19.4998 19.7V18.4394C19.0006 18.9486 18.3799 19.3224 17.6964 19.5255C17.0128 19.7286 16.2887 19.7544 15.5924 19.6003C14.8961 19.4463 14.2505 19.1176 13.7164 18.6452C13.1822 18.1727 12.7771 17.572 12.5392 16.8998C12.513 16.8254 12.5016 16.7467 12.5058 16.668C12.51 16.5893 12.5296 16.5122 12.5636 16.4411C12.5976 16.37 12.6453 16.3063 12.7039 16.2537C12.7625 16.201 12.8309 16.1604 12.9052 16.1342H12.9046Z" fill="#F0792E"/>
<path d="M16.5 23.9C11.8685 23.9 8.1 20.1315 8.1 15.5C8.1 10.8685 11.8685 7.1 16.5 7.1C21.1315 7.1 24.9 10.8685 24.9 15.5C24.9 20.1315 21.1315 23.9 16.5 23.9ZM16.5 8.86154C12.8395 8.86154 9.86154 11.8395 9.86154 15.5C9.86154 19.1605 12.8395 22.1385 16.5 22.1385C20.1605 22.1385 23.1385 19.1605 23.1385 15.5C23.1385 11.8395 20.1605 8.86154 16.5 8.86154Z" fill="#20446C" stroke="white" stroke-width="0.2"/>
<path d="M3.75 4H8.25V5.5H3.75V4Z" fill="#F0792E"/>
</svg>
