<svg width="6" height="6" viewBox="0 0 6 6" fill="none" xmlns="http://www.w3.org/2000/svg">
<path d="M5.73371 1.75452C5.97799 2.2929 6.05632 2.89164 5.95879 3.47499C5.86126 4.05833 5.59225 4.60006 5.18581 5.03161C4.77938 5.46315 4.25378 5.76513 3.67553 5.89931C3.09729 6.03349 2.49238 5.99385 1.93738 5.7854C1.38238 5.57695 0.902223 5.20907 0.557676 4.72831C0.213129 4.24754 0.0196814 3.67551 0.00181062 3.0846C-0.0160602 2.49369 0.142451 1.91047 0.457285 1.40874C0.772119 0.907007 1.22912 0.509321 1.77046 0.266009C2.12926 0.104213 2.51641 0.0143716 2.90981 0.00161885C3.3032 -0.0111338 3.69512 0.0534517 4.06318 0.191685C4.43123 0.329919 4.76821 0.539091 5.05485 0.807249C5.34148 1.07541 5.57217 1.3973 5.73371 1.75452Z" fill="#FFE8DE"/>
<path d="M5.08396 2.04819C5.2701 2.45848 5.32976 2.91477 5.25541 3.35932C5.18105 3.80387 4.97602 4.21669 4.66625 4.54553C4.35649 4.87438 3.95592 5.10446 3.51524 5.20667C3.07456 5.30888 2.61359 5.27861 2.19066 5.11971C1.76772 4.9608 1.40185 4.68039 1.13933 4.31397C0.876819 3.94756 0.729466 3.5116 0.715926 3.06128C0.702386 2.61096 0.823266 2.16653 1.06327 1.78422C1.30327 1.40191 1.6516 1.09891 2.06419 0.913578C2.3376 0.790336 2.63261 0.721923 2.93237 0.712248C3.23213 0.702574 3.53076 0.751827 3.81119 0.857194C4.09163 0.962561 4.34837 1.12198 4.56676 1.32633C4.78514 1.53069 4.96089 1.77598 5.08396 2.04819Z" fill="#FFD2C0"/>
<path d="M2.93541 1.73948C3.00081 1.67182 2.99998 1.56496 2.93357 1.50075C2.86719 1.4366 2.76031 1.43935 2.69491 1.50701L1.75717 2.47712C1.69177 2.54478 1.69265 2.65169 1.75902 2.71585C1.82544 2.78005 1.93227 2.77725 1.99767 2.70959L2.26643 2.43155C2.37739 2.31639 2.54421 2.2756 2.69291 2.32724L2.16717 2.87113C2.10182 2.93874 2.10265 3.0457 2.16902 3.10985C2.23544 3.17406 2.34232 3.17121 2.40767 3.1036L2.93341 2.55972C2.98937 2.70674 2.9543 2.87442 2.84363 2.98948L2.57486 3.26753C2.52634 3.31781 2.51279 3.39208 2.5406 3.45497C2.5684 3.51785 2.63202 3.55676 2.70117 3.55317L4.01468 3.48172C4.05788 3.47914 4.09871 3.46012 4.12882 3.4286C4.16119 3.39473 4.17889 3.34954 4.17802 3.30316C4.17646 3.25853 4.15721 3.21669 4.12453 3.18686C4.09185 3.15703 4.04837 3.14166 4.00373 3.14413L3.11252 3.19258C3.32965 2.94088 3.35842 2.5794 3.18327 2.30367L3.34548 2.13586C3.41088 2.06821 3.41005 1.96134 3.34363 1.89714C3.27721 1.83294 3.17038 1.83574 3.10498 1.90339L2.94278 2.07119C2.86911 2.02756 2.78803 1.99732 2.70339 1.98196L2.93663 1.74066L2.93541 1.73948Z" fill="#F38D5D"/>
<path d="M5.05146 1.98165C5.03843 1.98454 4.98949 1.90089 4.88393 1.75721C4.73678 1.55474 4.55885 1.37637 4.35652 1.22853C4.21729 1.12833 4.06758 1.04342 3.90999 0.97528C3.72872 0.898755 3.5383 0.845726 3.3434 0.817493C3.23866 0.801591 3.13283 0.793736 3.02684 0.793998C2.80265 0.793335 2.57957 0.826285 2.3651 0.891739C2.25261 0.92648 2.14287 0.969544 2.0368 1.02057C1.93122 1.07284 1.82951 1.13256 1.73247 1.19928C1.63881 1.26492 1.55036 1.33765 1.46789 1.4168C1.38763 1.49238 1.31363 1.57431 1.24661 1.66176C1.18156 1.74594 1.12286 1.83479 1.07098 1.92759C0.973901 2.09816 0.899254 2.28043 0.848879 2.4699C0.805303 2.6355 0.780356 2.80538 0.774502 2.9764C0.76713 3.22644 0.798712 3.47604 0.868123 3.71631C0.91753 3.88757 0.955612 3.98044 0.943225 3.98622C0.930838 3.99199 0.874178 3.90778 0.803866 3.73813C0.705741 3.49582 0.653772 3.23735 0.650618 2.97592C0.645997 2.583 0.743006 2.19534 0.932305 1.85025C1.04387 1.64596 1.18512 1.45918 1.35146 1.29595C1.43958 1.20973 1.53455 1.13075 1.63543 1.05976C1.73951 0.986961 1.84902 0.922205 1.96301 0.86606C2.07757 0.810779 2.19627 0.764459 2.31802 0.72752C2.43627 0.691015 2.55729 0.664152 2.67988 0.647196C2.79768 0.631174 2.91656 0.624508 3.03539 0.62726C3.14923 0.62897 3.26274 0.639417 3.37493 0.658507C3.58127 0.694339 3.78178 0.757667 3.97107 0.846786C4.13454 0.923331 4.2883 1.0189 4.42914 1.1315C4.63442 1.2944 4.80746 1.49393 4.93945 1.71993C5.0318 1.87939 5.06111 1.97724 5.05146 1.98165Z" fill="#F38D5D"/>
</svg>
