<svg width="88" height="80" viewBox="0 0 88 80" fill="none" xmlns="http://www.w3.org/2000/svg">
<path d="M29.4245 13.0852C29.7296 13.8002 29.8141 14.5913 29.6673 15.3583C29.5205 16.1252 29.149 16.8337 28.5999 17.3939C28.0508 17.9541 27.3487 18.3409 26.5825 18.5054C25.8164 18.6699 25.0205 18.6046 24.2956 18.3179C23.5708 18.0312 22.9496 17.5358 22.5106 16.8946C22.0716 16.2534 21.8346 15.4951 21.8296 14.7157C21.8245 13.9363 22.0517 13.1708 22.4822 12.516C22.9128 11.8613 23.5275 11.3469 24.2485 11.0377C24.7264 10.8321 25.2394 10.722 25.7582 10.7136C26.277 10.7052 26.7914 10.7988 27.2721 10.989C27.7528 11.1791 28.1903 11.4621 28.5596 11.8218C28.9289 12.1815 29.2228 12.6108 29.4245 13.0852Z" fill="#F9C0A8"/>
<path d="M28.5591 13.4576C28.7916 14.0025 28.8559 14.6053 28.744 15.1898C28.6321 15.7743 28.349 16.3142 27.9305 16.741C27.512 17.1679 26.9769 17.4627 26.393 17.5879C25.8091 17.7132 25.2026 17.6634 24.6502 17.4448C24.0979 17.2263 23.6245 16.8487 23.2901 16.36C22.9556 15.8713 22.7751 15.2934 22.7713 14.6994C22.7676 14.1054 22.9408 13.5221 23.269 13.0232C23.5973 12.5244 24.0658 12.1324 24.6153 11.8969C24.9794 11.7403 25.3703 11.6564 25.7656 11.6501C26.161 11.6438 26.5529 11.7152 26.9192 11.8601C27.2854 12.005 27.6188 12.2207 27.9002 12.4948C28.1815 12.7689 28.4055 13.0961 28.5591 13.4576Z" fill="#FCD3C3"/>
<path d="M25.7378 13.0084C25.8265 12.9205 25.829 12.7796 25.7435 12.6938C25.6581 12.608 25.5169 12.6096 25.4283 12.6975L24.1578 13.9579C24.0692 14.0458 24.0668 14.1867 24.1522 14.2725C24.2377 14.3583 24.3788 14.3567 24.4674 14.2688L24.8315 13.9075C24.9818 13.7579 25.2034 13.7073 25.3979 13.7782L24.6856 14.4848C24.5971 14.5727 24.5945 14.7136 24.68 14.7994C24.7654 14.8853 24.9066 14.8835 24.9951 14.7957L25.7074 14.089C25.7763 14.2838 25.7243 14.5041 25.5744 14.6536L25.2102 15.0148C25.1445 15.0802 25.1241 15.1778 25.1587 15.2612C25.1932 15.3445 25.2759 15.397 25.3673 15.3936L27.1032 15.3243C27.1603 15.3218 27.2149 15.2975 27.2557 15.2565C27.2995 15.2125 27.3244 15.1533 27.3248 15.0922C27.3243 15.0333 27.3003 14.9778 27.2582 14.9379C27.2161 14.898 27.1592 14.8769 27.1002 14.8793L25.9224 14.9263C26.2175 14.5988 26.2677 14.123 26.0459 13.7564L26.2656 13.5384C26.3542 13.4505 26.3567 13.3097 26.2713 13.2238C26.1858 13.138 26.0447 13.1396 25.9561 13.2275L25.7363 13.4456C25.6406 13.3867 25.5346 13.3453 25.4234 13.3234L25.7394 13.0099L25.7378 13.0084Z" fill="#F38D5D"/>
<path d="M28.5221 13.3731C28.5048 13.3766 28.4429 13.2652 28.3082 13.0734C28.1205 12.8031 27.8915 12.564 27.6293 12.3646C27.4489 12.2294 27.2542 12.1142 27.0485 12.0209C26.8119 11.916 26.5625 11.842 26.3064 11.8005C26.1688 11.7773 26.0295 11.7647 25.8898 11.7627C25.5942 11.757 25.2991 11.7957 25.0142 11.8774C24.8648 11.9208 24.7188 11.9752 24.5774 12.0403C24.4365 12.1069 24.3006 12.1835 24.1705 12.2694C24.045 12.354 23.9261 12.448 23.8149 12.5507C23.7067 12.6487 23.6066 12.7551 23.5155 12.8691C23.4271 12.9787 23.3469 13.0946 23.2756 13.2159C23.1423 13.4388 23.0382 13.6777 22.9658 13.9265C22.9032 14.144 22.865 14.3676 22.8519 14.5931C22.8344 14.9228 22.8682 15.2527 22.9522 15.5711C23.012 15.7981 23.0593 15.9215 23.0428 15.9288C23.0263 15.9362 22.9542 15.8239 22.8668 15.5985C22.745 15.2768 22.6846 14.9347 22.6886 14.5898C22.6948 14.0714 22.8348 13.5621 23.0952 13.1109C23.2487 12.8438 23.4407 12.6005 23.6652 12.3888C23.784 12.2769 23.9117 12.1748 24.0469 12.0833C24.1864 11.9895 24.3329 11.9065 24.4849 11.8349C24.6377 11.7644 24.7956 11.7059 24.9573 11.6598C25.1144 11.6141 25.2747 11.5813 25.4369 11.5616C25.5927 11.543 25.7497 11.5368 25.9063 11.543C26.0563 11.5477 26.2056 11.5639 26.353 11.5915C26.6239 11.6432 26.8863 11.7311 27.1331 11.8527C27.3462 11.9572 27.5459 12.0866 27.7281 12.2382C27.9937 12.4575 28.2156 12.7244 28.3826 13.0254C28.4993 13.2377 28.5349 13.3674 28.5221 13.3731Z" fill="#F38D5D"/>
<path d="M51.8244 60.6663C51.7504 61.2776 51.4951 61.8537 51.0907 62.3216C50.6862 62.7896 50.1509 63.1284 49.5524 63.2952C48.9539 63.462 48.3191 63.4493 47.7284 63.2587C47.1377 63.0681 46.6176 62.7082 46.2339 62.2244C45.8503 61.7407 45.6203 61.1549 45.5732 60.5412C45.526 59.9275 45.6637 59.3135 45.9689 58.7769C46.2742 58.2402 46.7331 57.8051 47.2878 57.5265C47.8424 57.248 48.4678 57.1385 49.0848 57.212C49.494 57.2602 49.8895 57.3878 50.2487 57.5875C50.6079 57.7873 50.9237 58.0552 51.1781 58.376C51.4325 58.6968 51.6205 59.0642 51.7314 59.4571C51.8423 59.8501 51.8739 60.261 51.8244 60.6663Z" fill="#F9C0A8"/>
<path d="M51.0812 60.5784C51.0248 61.0443 50.8302 61.4833 50.522 61.8399C50.2137 62.1965 49.8058 62.4546 49.3496 62.5817C48.8935 62.7088 48.4098 62.6991 47.9596 62.5538C47.5095 62.4085 47.1131 62.1341 46.8208 61.7654C46.5285 61.3967 46.3533 60.9503 46.3175 60.4826C46.2816 60.0149 46.3866 59.547 46.6193 59.1381C46.8519 58.7292 47.2018 58.3977 47.6245 58.1855C48.0472 57.9732 48.5238 57.8899 48.994 57.946C49.3058 57.9828 49.6072 58.0801 49.8808 58.2323C50.1545 58.3845 50.3951 58.5887 50.5889 58.8332C50.7828 59.0776 50.926 59.3576 51.0105 59.6571C51.0949 59.9565 51.119 60.2696 51.0812 60.5784Z" fill="#FCD3C3"/>
<path d="M49.3257 59.153C49.4213 59.1278 49.4788 59.0322 49.4541 58.9395C49.4295 58.8468 49.3321 58.792 49.2365 58.8172L47.8658 59.1786C47.7702 59.2038 47.7128 59.2995 47.7374 59.3922C47.762 59.4849 47.8595 59.5396 47.955 59.5144L48.3479 59.4108C48.5103 59.3677 48.6823 59.4208 48.7876 59.5464L48.0192 59.7491C47.9237 59.7743 47.8661 59.8699 47.8907 59.9626C47.9154 60.0553 48.0129 60.1101 48.1084 60.0849L48.8768 59.8822C48.8469 60.0431 48.7241 60.1736 48.562 60.2168L48.1691 60.3204C48.0982 60.3392 48.0455 60.398 48.0362 60.4689C48.0269 60.5398 48.0628 60.6085 48.1269 60.6424L49.3451 61.2824C49.3852 61.3032 49.4323 61.3081 49.4765 61.2962C49.524 61.2834 49.5645 61.2526 49.589 61.2109C49.6119 61.1703 49.6175 61.1227 49.6044 61.0787C49.5913 61.0346 49.5607 60.9976 49.5192 60.9759L48.6927 60.5417C49.0248 60.4339 49.2477 60.1274 49.2407 59.7881L49.4778 59.7256C49.5734 59.7004 49.6309 59.6048 49.6063 59.512C49.5816 59.4193 49.4842 59.3646 49.3886 59.3898L49.1515 59.4523C49.1091 59.374 49.0528 59.3036 48.9852 59.2446L49.3261 59.1547L49.3257 59.153Z" fill="#F38D5D"/>
<path d="M51.089 60.5057C51.0757 60.5013 51.0774 60.4004 51.061 60.2155C51.0393 59.9558 50.9769 59.701 50.876 59.4605C50.8058 59.2963 50.7178 59.1401 50.6137 58.9947C50.4929 58.8291 50.3512 58.6795 50.192 58.5496C50.1068 58.4792 50.0162 58.4154 49.9211 58.3587C49.7207 58.2377 49.5029 58.1474 49.2752 58.0906C49.1555 58.0612 49.0338 58.0407 48.911 58.0293C48.788 58.0193 48.6644 58.018 48.5411 58.0254C48.4215 58.0337 48.3028 58.0511 48.1858 58.0775C48.0728 58.1018 47.962 58.1352 47.8544 58.1773C47.7503 58.2175 47.6494 58.2653 47.5524 58.3202C47.3727 58.4203 47.2067 58.5429 47.0585 58.685C46.9294 58.8094 46.8147 58.9476 46.7164 59.0971C46.5738 59.3163 46.4664 59.556 46.3979 59.8077C46.349 59.9871 46.3326 60.0904 46.3184 60.0889C46.3042 60.0874 46.2992 59.9818 46.3285 59.7927C46.3723 59.5237 46.4664 59.2651 46.6057 59.0301C46.8153 58.677 47.113 58.3831 47.4703 58.1767C47.6813 58.0543 47.9095 57.9635 48.1472 57.9071C48.2731 57.8775 48.4011 57.858 48.5301 57.8488C48.6629 57.8397 48.7963 57.8407 48.9289 57.8518C49.0616 57.864 49.1931 57.8864 49.3223 57.9188C49.4481 57.9497 49.5711 57.9907 49.6901 58.0414C49.8044 58.0903 49.9145 58.1482 50.0195 58.2145C50.1205 58.2771 50.2165 58.3474 50.3067 58.4247C50.472 58.5674 50.6172 58.7316 50.7383 58.9128C50.8431 59.0689 50.9289 59.2367 50.9938 59.4129C51.0892 59.6685 51.1357 59.9395 51.131 60.212C51.127 60.4039 51.1 60.507 51.089 60.5057Z" fill="#F38D5D"/>
<path d="M19.5684 16.2882C19.81 16.8546 19.8769 17.4811 19.7606 18.0886C19.6444 18.6961 19.3502 19.2572 18.9152 19.7009C18.4803 20.1447 17.9242 20.451 17.3174 20.5813C16.7105 20.7116 16.0801 20.6599 15.506 20.4328C14.9319 20.2057 14.4398 19.8134 14.0921 19.3055C13.7444 18.7976 13.5567 18.197 13.5527 17.5796C13.5487 16.9623 13.7286 16.356 14.0697 15.8374C14.4107 15.3188 14.8976 14.9113 15.4687 14.6665C15.8472 14.5036 16.2535 14.4164 16.6644 14.4098C17.0753 14.4031 17.4828 14.4773 17.8635 14.6279C18.2443 14.7785 18.5908 15.0026 18.8833 15.2875C19.1758 15.5724 19.4086 15.9125 19.5684 16.2882Z" fill="#F9C0A8"/>
<path d="M18.8833 16.5837C19.0674 17.0153 19.1184 17.4928 19.0297 17.9558C18.9411 18.4187 18.7169 18.8463 18.3854 19.1844C18.0539 19.5225 17.6301 19.756 17.1676 19.8552C16.7051 19.9544 16.2247 19.915 15.7872 19.7419C15.3497 19.5687 14.9748 19.2697 14.7099 18.8826C14.445 18.4955 14.302 18.0378 14.299 17.5673C14.2961 17.0969 14.4333 16.6348 14.6932 16.2397C14.9532 15.8445 15.3243 15.5341 15.7595 15.3476C16.048 15.2235 16.3576 15.1571 16.6707 15.1521C16.9838 15.1471 17.2943 15.2036 17.5844 15.3184C17.8745 15.4332 18.1385 15.604 18.3614 15.8211C18.5842 16.0383 18.7616 16.2974 18.8833 16.5837Z" fill="#FCD3C3"/>
<path d="M16.6493 16.2273C16.7195 16.1576 16.7215 16.0461 16.6538 15.9781C16.5861 15.9101 16.4743 15.9114 16.4041 15.981L15.3979 16.9794C15.3277 17.049 15.3257 17.1606 15.3934 17.2285C15.4611 17.2965 15.5728 17.2952 15.643 17.2256L15.9314 16.9395C16.0505 16.8209 16.226 16.7809 16.38 16.837L15.8159 17.3967C15.7457 17.4663 15.7437 17.5779 15.8114 17.6459C15.8791 17.7139 15.9909 17.7125 16.061 17.6429L16.6252 17.0832C16.6798 17.2375 16.6386 17.412 16.5198 17.5304L16.2314 17.8165C16.1793 17.8683 16.1632 17.9456 16.1906 18.0116C16.2179 18.0777 16.2834 18.1192 16.3558 18.1165L17.7308 18.0617C17.776 18.0596 17.8192 18.0404 17.8515 18.0079C17.8863 17.9731 17.906 17.9262 17.9063 17.8778C17.9059 17.8312 17.8869 17.7872 17.8535 17.7556C17.8201 17.724 17.7751 17.7073 17.7284 17.7092L16.7955 17.7464C17.0292 17.487 17.069 17.1102 16.8933 16.8198L17.0673 16.6471C17.1375 16.5775 17.1395 16.4659 17.0718 16.3979C17.0041 16.3299 16.8923 16.3312 16.8222 16.4009L16.6481 16.5735C16.5723 16.5269 16.4883 16.4941 16.4003 16.4768L16.6506 16.2285L16.6493 16.2273Z" fill="#F38D5D"/>
<path d="M18.8517 16.5172C18.838 16.52 18.789 16.4318 18.6823 16.2799C18.5337 16.0658 18.3523 15.8764 18.1446 15.7185C18.0017 15.6114 17.8475 15.5201 17.6846 15.4462C17.4972 15.3632 17.2996 15.3045 17.0968 15.2717C16.9878 15.2533 16.8775 15.2433 16.7668 15.2418C16.5327 15.2372 16.2989 15.2679 16.0733 15.3326C15.955 15.367 15.8393 15.4101 15.7273 15.4616C15.6157 15.5144 15.508 15.5751 15.405 15.6431C15.3056 15.7101 15.2114 15.7846 15.1233 15.8659C15.0377 15.9435 14.9583 16.0278 14.8862 16.118C14.8162 16.2049 14.7527 16.2967 14.6962 16.3928C14.5906 16.5693 14.5081 16.7585 14.4508 16.9556C14.4012 17.1279 14.371 17.305 14.3606 17.4836C14.3467 17.7447 14.3735 18.006 14.4401 18.2582C14.4874 18.438 14.5249 18.5357 14.5118 18.5415C14.4987 18.5474 14.4417 18.4584 14.3724 18.28C14.276 18.0251 14.2281 17.7541 14.2313 17.4809C14.2362 17.0703 14.3471 16.6669 14.5533 16.3096C14.6749 16.0981 14.827 15.9053 15.0047 15.7376C15.0989 15.649 15.2 15.5681 15.3072 15.4957C15.4176 15.4214 15.5336 15.3556 15.654 15.2989C15.775 15.2431 15.9001 15.1967 16.0282 15.1602C16.1526 15.1241 16.2796 15.0981 16.4081 15.0824C16.5315 15.0677 16.6558 15.0628 16.7798 15.0677C16.8987 15.0714 17.017 15.0843 17.1337 15.1061C17.3482 15.1471 17.5561 15.2167 17.7515 15.313C17.9204 15.3958 18.0786 15.4983 18.2229 15.6183C18.4332 15.792 18.609 16.0035 18.7412 16.2419C18.8337 16.4101 18.8619 16.5128 18.8517 16.5172Z" fill="#F38D5D"/>
<path d="M45.3333 65.5169C45.2399 66.2887 44.9175 67.016 44.4069 67.6068C43.8963 68.1976 43.2204 68.6254 42.4648 68.836C41.7092 69.0466 40.9077 69.0306 40.1619 68.7899C39.4162 68.5493 38.7595 68.0948 38.2752 67.4841C37.7908 66.8734 37.5005 66.1338 37.4409 65.359C37.3814 64.5842 37.5553 63.809 37.9406 63.1315C38.3259 62.4539 38.9054 61.9046 39.6056 61.5529C40.3059 61.2012 41.0955 61.063 41.8744 61.1557C42.3911 61.2166 42.8904 61.3777 43.3439 61.6299C43.7974 61.882 44.1961 62.2203 44.5173 62.6253C44.8385 63.0303 45.0759 63.4942 45.2159 63.9903C45.3559 64.4865 45.3958 65.0052 45.3333 65.5169Z" fill="#F9C0A8"/>
<path d="M44.3962 65.4066C44.325 65.9947 44.0793 66.549 43.6902 66.9992C43.301 67.4494 42.7859 67.7754 42.21 67.9358C41.6342 68.0963 41.0234 68.084 40.4551 67.9006C39.8868 67.7171 39.3864 67.3707 39.0173 66.9052C38.6483 66.4398 38.4271 65.8761 38.3818 65.2857C38.3365 64.6952 38.4691 64.1045 38.7629 63.5882C39.0566 63.0719 39.4983 62.6533 40.032 62.3854C40.5657 62.1175 41.1674 62.0123 41.761 62.0831C42.1547 62.1296 42.5352 62.2524 42.8807 62.4446C43.2262 62.6368 43.53 62.8945 43.7747 63.2032C44.0194 63.5118 44.2003 63.8653 44.3069 64.2434C44.4135 64.6214 44.4439 65.0167 44.3962 65.4066Z" fill="#FCD3C3"/>
<path d="M42.1803 63.6069C42.3009 63.5751 42.3735 63.4544 42.3424 63.3373C42.3114 63.2203 42.1883 63.1511 42.0676 63.1829L40.3372 63.6393C40.2165 63.6711 40.1439 63.7919 40.175 63.9089C40.2061 64.026 40.3291 64.0951 40.4498 64.0632L40.9458 63.9325C41.1508 63.878 41.3679 63.945 41.5009 64.1036L40.5308 64.3595C40.4102 64.3913 40.3375 64.5121 40.3686 64.6291C40.3997 64.7462 40.5228 64.8152 40.6434 64.7834L41.6136 64.5276C41.5758 64.7307 41.4207 64.8955 41.2161 64.95L40.7201 65.0808C40.6305 65.1045 40.564 65.1788 40.5523 65.2683C40.5405 65.3578 40.5859 65.4446 40.6667 65.4873L42.2047 66.2953C42.2555 66.3216 42.3148 66.3279 42.3707 66.3128C42.4307 66.2966 42.4818 66.2578 42.5127 66.2051C42.5417 66.1538 42.5486 66.0938 42.5321 66.0382C42.5156 65.9825 42.4769 65.9358 42.4246 65.9084L41.3811 65.3602C41.8004 65.2241 42.0818 64.8372 42.073 64.4088L42.3723 64.3298C42.493 64.298 42.5656 64.1773 42.5345 64.0602C42.5034 63.9431 42.3804 63.874 42.2597 63.9059L41.9604 63.9848C41.9069 63.8859 41.8358 63.7971 41.7504 63.7226L42.1808 63.6091L42.1803 63.6069Z" fill="#F38D5D"/>
<path d="M44.4068 65.3148C44.3901 65.3092 44.3921 65.1818 44.3714 64.9484C44.344 64.6205 44.2652 64.2989 44.1379 63.9951C44.0492 63.7878 43.9382 63.5907 43.8067 63.4071C43.6543 63.1979 43.4753 63.0091 43.2742 62.8452C43.1667 62.7562 43.0524 62.6757 42.9323 62.6041C42.6792 62.4514 42.4043 62.3373 42.1168 62.2656C41.9657 62.2285 41.812 62.2027 41.657 62.1882C41.5017 62.1756 41.3456 62.1739 41.1901 62.1833C41.039 62.1938 40.8891 62.2158 40.7414 62.249C40.5988 62.2798 40.4588 62.3219 40.323 62.3751C40.1916 62.4258 40.0642 62.4861 39.9418 62.5555C39.7149 62.6819 39.5053 62.8367 39.3182 63.016C39.1552 63.1731 39.0104 63.3476 38.8863 63.5363C38.7063 63.8131 38.5706 64.1157 38.4841 64.4335C38.4224 64.66 38.4017 64.7904 38.3838 64.7885C38.3658 64.7867 38.3595 64.6534 38.3965 64.4145C38.4519 64.075 38.5706 63.7485 38.7465 63.4518C39.0111 63.0059 39.387 62.6349 39.838 62.3744C40.1045 62.2198 40.3925 62.1051 40.6927 62.0339C40.8516 61.9965 41.0133 61.9719 41.1761 61.9603C41.3438 61.9488 41.5121 61.9501 41.6796 61.9641C41.8471 61.9795 42.0132 62.0078 42.1763 62.0487C42.3351 62.0877 42.4904 62.1395 42.6407 62.2035C42.7849 62.2653 42.924 62.3384 43.0565 62.422C43.1841 62.5011 43.3053 62.5898 43.4191 62.6874C43.6278 62.8677 43.8112 63.0749 43.9641 63.3037C44.0964 63.5007 44.2047 63.7127 44.2867 63.935C44.407 64.2577 44.4657 64.5999 44.4598 64.944C44.4548 65.1863 44.4207 65.3164 44.4068 65.3148Z" fill="#F38D5D"/>
<g clip-path="url(#clip0_7_71465)">
<path d="M65.8022 27.9955L52.7637 27.366L51.8096 46.8007L64.8481 47.4303L65.8022 27.9955Z" fill="white" stroke="#263238" stroke-width="0.114759" stroke-linecap="round" stroke-linejoin="round"/>
<path d="M53.6746 28.7371L57.0686 28.8941" stroke="#263238" stroke-width="0.229517" stroke-linecap="round" stroke-linejoin="round"/>
<path d="M53.6453 29.3834L55.9535 29.4894" stroke="#263238" stroke-width="0.229517" stroke-linecap="round" stroke-linejoin="round"/>
<path d="M54.4005 30.947L64.1628 31.3976" stroke="#263238" stroke-width="0.229517" stroke-linecap="round" stroke-linejoin="round"/>
<path d="M54.3695 31.5915L64.1315 32.0436" stroke="#263238" stroke-width="0.229517" stroke-linecap="round" stroke-linejoin="round"/>
<path d="M54.3382 32.3455L62.6634 32.731" stroke="#263238" stroke-width="0.229517" stroke-linecap="round" stroke-linejoin="round"/>
<path d="M55.1396 33.0711L54.3457 33.0344L54.3087 33.8218L55.1027 33.8585L55.1396 33.0711Z" stroke="#263238" stroke-width="0.114759" stroke-linecap="round" stroke-linejoin="round"/>
<path d="M56.5781 33.1368L55.7842 33.1001L55.7472 33.8875L56.5411 33.9241L56.5781 33.1368Z" stroke="#263238" stroke-width="0.114759" stroke-linecap="round" stroke-linejoin="round"/>
<path d="M58.0185 33.2037L57.2246 33.167L57.1876 33.9544L57.9816 33.991L58.0185 33.2037Z" stroke="#263238" stroke-width="0.114759" stroke-linecap="round" stroke-linejoin="round"/>
<path d="M59.456 33.2696L58.6621 33.2329L58.6251 34.0203L59.4191 34.0569L59.456 33.2696Z" stroke="#263238" stroke-width="0.114759" stroke-linecap="round" stroke-linejoin="round"/>
<path d="M53.8819 30.9216C53.8805 30.9609 53.8672 30.9989 53.8439 31.0307C53.8207 31.0625 53.7884 31.0868 53.7511 31.1003C53.7139 31.1139 53.6735 31.1162 53.635 31.1069C53.5964 31.0976 53.5616 31.0772 53.5348 31.0482C53.508 31.0192 53.4905 30.9829 53.4846 30.944C53.4786 30.9052 53.4845 30.8654 53.5014 30.8298C53.5182 30.7943 53.5454 30.7645 53.5794 30.7443C53.6134 30.7241 53.6527 30.7143 53.6923 30.7163C53.7448 30.719 53.7941 30.742 53.8296 30.7804C53.8651 30.8188 53.8839 30.8695 53.8819 30.9216Z" fill="#263238"/>
<path d="M54.2237 34.7153L63.986 35.1659" stroke="#263238" stroke-width="0.229517" stroke-linecap="round" stroke-linejoin="round"/>
<path d="M54.1937 35.3603L63.9558 35.8124" stroke="#263238" stroke-width="0.229517" stroke-linecap="round" stroke-linejoin="round"/>
<path d="M54.1583 36.1158L62.4837 36.4998" stroke="#263238" stroke-width="0.229517" stroke-linecap="round" stroke-linejoin="round"/>
<path d="M54.9639 36.8394L54.1699 36.8027L54.1329 37.5901L54.9269 37.6268L54.9639 36.8394Z" stroke="#263238" stroke-width="0.114759" stroke-linecap="round" stroke-linejoin="round"/>
<path d="M56.4014 36.9063L55.6074 36.8696L55.5704 37.657L56.3644 37.6937L56.4014 36.9063Z" stroke="#263238" stroke-width="0.114759" stroke-linecap="round" stroke-linejoin="round"/>
<path d="M57.8428 36.9732L57.0488 36.9365L57.0119 37.7239L57.8058 37.7606L57.8428 36.9732Z" stroke="#263238" stroke-width="0.114759" stroke-linecap="round" stroke-linejoin="round"/>
<path d="M59.2793 37.0389L58.4854 37.0022L58.4484 37.7896L59.2423 37.8262L59.2793 37.0389Z" stroke="#263238" stroke-width="0.114759" stroke-linecap="round" stroke-linejoin="round"/>
<path d="M53.707 34.6922C53.7053 34.7314 53.6918 34.7692 53.6683 34.8008C53.6449 34.8325 53.6124 34.8564 53.5752 34.8698C53.538 34.8831 53.4976 34.8852 53.4592 34.8757C53.4207 34.8662 53.386 34.8456 53.3594 34.8166C53.3328 34.7875 53.3155 34.7513 53.3097 34.7124C53.3039 34.6736 53.3098 34.6339 53.3268 34.5984C53.3437 34.563 53.3709 34.5333 53.4049 34.5131C53.4389 34.493 53.4781 34.4833 53.5177 34.4854C53.5704 34.4881 53.6199 34.5113 53.6553 34.5501C53.6908 34.5888 53.7094 34.6399 53.707 34.6922Z" fill="#263238"/>
<path d="M54.0453 38.4833L63.8073 38.9354" stroke="#263238" stroke-width="0.229517" stroke-linecap="round" stroke-linejoin="round"/>
<path d="M54.0177 39.1309L63.7784 39.5812" stroke="#263238" stroke-width="0.229517" stroke-linecap="round" stroke-linejoin="round"/>
<path d="M53.9825 39.8846L62.3079 40.2686" stroke="#263238" stroke-width="0.229517" stroke-linecap="round" stroke-linejoin="round"/>
<path d="M54.7842 40.6075L53.9902 40.5708L53.9533 41.3582L54.7472 41.3948L54.7842 40.6075Z" stroke="#263238" stroke-width="0.114759" stroke-linecap="round" stroke-linejoin="round"/>
<path d="M56.2246 40.6744L55.4307 40.6377L55.3937 41.4251L56.1876 41.4617L56.2246 40.6744Z" stroke="#263238" stroke-width="0.114759" stroke-linecap="round" stroke-linejoin="round"/>
<path d="M57.6631 40.7425L56.8691 40.7058L56.8322 41.4932L57.6261 41.5299L57.6631 40.7425Z" stroke="#263238" stroke-width="0.114759" stroke-linecap="round" stroke-linejoin="round"/>
<path d="M59.1006 40.8084L58.3066 40.7717L58.2697 41.5591L59.0636 41.5958L59.1006 40.8084Z" stroke="#263238" stroke-width="0.114759" stroke-linecap="round" stroke-linejoin="round"/>
<path d="M53.5283 38.4603C53.5266 38.4995 53.5131 38.5373 53.4896 38.5689C53.4661 38.6005 53.4337 38.6245 53.3965 38.6378C53.3593 38.6512 53.3189 38.6532 53.2805 38.6437C53.242 38.6343 53.2073 38.6137 53.1807 38.5846C53.1541 38.5556 53.1368 38.5193 53.131 38.4805C53.1252 38.4417 53.1311 38.402 53.1481 38.3665C53.165 38.331 53.1922 38.3013 53.2262 38.2812C53.2602 38.2611 53.2994 38.2514 53.339 38.2534C53.3917 38.2561 53.4412 38.2794 53.4766 38.3181C53.5121 38.3569 53.5307 38.408 53.5283 38.4603Z" fill="#263238"/>
<path d="M53.8656 42.3593L63.6261 42.8112" stroke="#263238" stroke-width="0.229517" stroke-linecap="round" stroke-linejoin="round"/>
<path d="M53.8353 43.0065L63.5958 43.4584" stroke="#263238" stroke-width="0.229517" stroke-linecap="round" stroke-linejoin="round"/>
<path d="M53.7991 43.7596L62.1243 44.1451" stroke="#263238" stroke-width="0.229517" stroke-linecap="round" stroke-linejoin="round"/>
<path d="M54.6045 44.4847L53.8105 44.448L53.7736 45.2354L54.5675 45.272L54.6045 44.4847Z" stroke="#263238" stroke-width="0.114759" stroke-linecap="round" stroke-linejoin="round"/>
<path d="M56.042 44.5511L55.248 44.5144L55.2111 45.3018L56.005 45.3384L56.042 44.5511Z" stroke="#263238" stroke-width="0.114759" stroke-linecap="round" stroke-linejoin="round"/>
<path d="M57.4795 44.6175L56.6855 44.5808L56.6486 45.3682L57.4425 45.4048L57.4795 44.6175Z" stroke="#263238" stroke-width="0.114759" stroke-linecap="round" stroke-linejoin="round"/>
<path d="M58.9209 44.6832L58.127 44.6465L58.09 45.4339L58.8839 45.4705L58.9209 44.6832Z" stroke="#263238" stroke-width="0.114759" stroke-linecap="round" stroke-linejoin="round"/>
<path d="M53.3516 42.3371C53.3499 42.3759 53.3365 42.4134 53.3133 42.4447C53.2901 42.4761 53.2581 42.4999 53.2212 42.5131C53.1844 42.5264 53.1444 42.5286 53.1063 42.5193C53.0682 42.51 53.0338 42.4898 53.0073 42.4611C52.9808 42.4325 52.9635 42.3966 52.9575 42.3582C52.9516 42.3198 52.9572 42.2805 52.9738 42.2452C52.9903 42.21 53.0171 42.1804 53.0506 42.1602C53.0841 42.14 53.1229 42.1301 53.162 42.1318C53.1881 42.1329 53.2137 42.1391 53.2373 42.15C53.2609 42.161 53.2821 42.1764 53.2998 42.1955C53.3174 42.2145 53.331 42.2369 53.3399 42.2612C53.3488 42.2855 53.3528 42.3113 53.3516 42.3371Z" fill="#263238"/>
<path d="M54.6154 33.3618L54.7195 33.5362L55.14 33.0719" stroke="#263238" stroke-width="0.229517" stroke-linecap="round" stroke-linejoin="round"/>
<path d="M57.3175 37.2158L57.4214 37.3917L57.8421 36.9259" stroke="#263238" stroke-width="0.229517" stroke-linecap="round" stroke-linejoin="round"/>
<path d="M55.6964 40.9961L55.8019 41.1722L56.221 40.7061" stroke="#263238" stroke-width="0.229517" stroke-linecap="round" stroke-linejoin="round"/>
<path d="M58.3761 44.9734L58.48 45.1493L58.9007 44.6834" stroke="#263238" stroke-width="0.229517" stroke-linecap="round" stroke-linejoin="round"/>
</g>
<path opacity="0.2" d="M53.3382 48.5396C53.3382 48.5396 53.3224 55.9614 53.3382 56.3942C53.3539 56.827 53.9275 59.4336 53.9275 59.4336L52.1025 62.7563L53.6741 64.0062L56.7287 61.0386C56.7287 61.0386 59.3296 62.6263 59.805 64.8971C60.2804 67.1679 63.1111 68.8215 66.0479 75.1098C68.9847 81.3982 72.3341 61.0386 72.3341 61.0386L63.2722 49.7681L53.3382 48.5396Z" fill="black" fill-opacity="0.7"/>
<path d="M80.6464 77.5585L66.699 79.9031C66.699 79.9031 64.271 67.1614 62.8232 65.1526C61.3755 63.1438 61.6446 62.319 60.9374 60.9662C60.5131 60.1491 58.3837 58.6255 56.7159 57.1214C56.5705 56.9913 56.4291 56.8613 56.2935 56.7332C56.2346 56.6808 56.1796 56.6245 56.1246 56.5721C55.9026 56.3547 55.6963 56.1432 55.5136 55.9355C55.4469 55.8617 55.3814 55.788 55.3172 55.7142C55.0075 55.3736 54.7769 54.9702 54.6414 54.5323C54.6355 54.5127 54.6315 54.4925 54.6297 54.4721C54.624 54.4485 54.62 54.4245 54.6179 54.4003C54.5805 54.0995 54.5413 53.7559 54.502 53.3833C54.502 53.3095 54.4863 53.2319 54.4764 53.1543L54.4646 53.0611C54.4313 52.7506 54.3939 52.4206 54.3507 52.081C54.3075 51.7413 54.2603 51.357 54.2053 50.9863C54.1877 50.8582 54.17 50.7301 54.1484 50.5982C54.1268 50.4545 54.1032 50.3109 54.0796 50.1653L54.0148 49.7927C54.0148 49.7713 54.005 49.7519 54.003 49.7345L53.9244 49.2978C53.9191 49.2821 53.9158 49.2658 53.9146 49.2493C53.8871 49.1231 53.8616 48.9989 53.8321 48.8727C53.7712 48.5913 53.7025 48.3157 53.6357 48.0479C53.5004 47.5438 53.3264 47.0507 53.1151 46.5728C52.1093 44.3544 53.4176 45.156 52.6299 39.448C52.6299 39.448 53.2094 38.1243 54.8615 39.1821C54.9891 39.2644 55.1124 39.3531 55.2308 39.448C55.5656 39.7155 55.8611 40.0277 56.1089 40.3757C56.4447 40.8494 56.7008 41.3738 56.8671 41.9284C57.1371 42.8279 57.2134 43.7733 57.0911 44.7038C57.0911 44.7038 58.3326 48.9077 58.9867 49.8645C59.6409 50.8214 62.3459 45.3249 62.1711 44.6844C62.1097 44.3971 62.0631 44.1069 62.0316 43.8149C62.0198 43.7198 62.008 43.6208 61.9943 43.5121C61.9805 43.4034 61.9687 43.2947 61.9569 43.1802C61.9569 43.1259 61.9432 43.0676 61.9353 43.0114C61.9353 42.9881 61.9353 42.9648 61.9353 42.9434C61.9118 42.7241 61.8843 42.4912 61.8587 42.2505C61.8587 42.1826 61.845 42.1186 61.8371 42.0565L61.8017 41.7071C61.8006 41.6877 61.8006 41.6683 61.8017 41.6489C61.8017 41.5829 61.786 41.515 61.7801 41.4451C61.7644 41.3092 61.7507 41.1714 61.7369 41.0336C61.7232 40.8958 61.7133 40.7969 61.7016 40.6785C61.678 40.4553 61.6564 40.2321 61.6348 40.0166C61.6191 39.8555 61.6033 39.6964 61.5896 39.5411C61.5896 39.5062 61.5896 39.4712 61.5798 39.4383C61.4973 38.5843 61.4324 37.8856 61.4089 37.5828C61.4089 37.5828 59.4444 34.7065 59.248 33.3517C59.0516 31.997 59.0633 30.5705 59.8864 29.9902C61.8351 28.6199 61.2615 30.8286 62.1377 31.737C63.0138 32.6453 64.3476 34.1494 65.1059 34.6172C65.8052 35.0558 66.4299 36.7521 66.5183 37.0083C66.4181 36.6357 65.4182 32.9713 65.3966 32.2338C65.3711 31.4575 64.77 27.3506 65.7895 25.8775C66.809 24.4044 68.1684 25.5476 68.2941 25.8387C68.4199 26.1298 68.4572 30.1086 68.8167 31.2149C69.1762 32.3211 70.6809 36.9346 70.6809 36.9346C70.6809 36.9346 70.7438 32.4473 71.0836 30.4385C71.4235 28.4297 72.3055 26.8596 73.1698 26.7703C74.0342 26.681 74.8337 27.6223 74.8337 27.6223C74.8337 27.6223 74.4919 30.8248 74.5901 31.5642C74.6883 32.3037 74.4487 34.9743 74.8592 36.4163C74.8592 36.4163 74.8121 32.5909 75.4132 32.1018C76.0143 31.6127 76.5309 31.3779 76.8688 31.7137C77.2067 32.0494 77.2794 34.3086 77.6232 35.6711C77.9669 37.0335 77.9237 38.8851 78.1496 41.0103C78.3755 43.1356 79.2654 46.0857 79.0886 47.7723C78.9118 49.4589 78.3677 53.6414 77.9296 56.0966C77.4915 58.5518 76.3738 61.9191 76.3738 61.9191C76.3738 61.9191 76.8826 63.7144 76.7844 65.3156C76.6861 66.9168 80.6464 77.5585 80.6464 77.5585Z" fill="white"/>
<path opacity="0.8" d="M68.7936 31.2116C69.0608 32.0325 69.9526 34.773 70.3966 36.1413C70.3966 36.1413 68.4479 37.5562 68.497 38.8721C68.5461 40.188 68.1394 42.8431 67.2633 42.7674C66.3872 42.6917 66.4775 37.1661 66.1809 36.2384C66.3597 36.6265 66.4736 36.9623 66.4972 37.0264C66.4324 36.7876 65.3912 32.9855 65.3696 32.2324C65.3696 32.0539 65.3284 31.7026 65.2871 31.2465V31.2368C65.2871 31.2368 67.224 29.4046 68.6463 30.5264C68.6781 30.7581 68.7273 30.9871 68.7936 31.2116Z" fill="#FFE4C8"/>
<path opacity="0.8" d="M74.5851 32.8016C73.6775 33.6536 72.3083 35.1558 72.1354 36.6056C72.1354 36.6056 72.6423 40.6543 72.4262 42.4185L70.6582 36.9433C70.6582 36.9433 70.7211 32.4561 71.0609 30.4473L71.0904 30.2823C72.1937 29.7268 73.4116 29.4293 74.6499 29.4128C74.574 30.127 74.5484 30.8456 74.5733 31.5633C74.5993 31.9756 74.6033 32.3889 74.5851 32.8016Z" fill="#FFE4C8"/>
<path opacity="0.4" d="M75.3866 32.0944C75.365 32.1099 75.312 32.1507 75.2354 32.2167C75.2816 32.1292 75.3328 32.0443 75.3886 31.9624L75.3866 32.0944Z" fill="#92E3A9"/>
<path opacity="0.8" d="M75.8519 43.2818C75.8519 43.2818 74.6851 38.9576 74.6733 35.4757C74.6635 34.187 74.8147 33.0128 75.2371 32.219C75.2834 32.1315 75.3345 32.0466 75.3903 31.9647V32.0909C75.6006 31.9095 75.8344 31.7568 76.0857 31.6367C75.7577 32.1413 75.3805 33.1292 75.8166 34.7421C76.5022 37.2535 75.905 40.324 75.8519 43.2818Z" fill="#FFE4C8"/>
<path opacity="0.8" d="M59.7569 51.5287C59.7569 51.5287 60.0692 55.6492 56.7179 57.1242C56.5726 56.9942 56.4311 56.8641 56.2956 56.736C56.2366 56.6836 56.1816 56.6273 56.1266 56.5749C55.9047 56.3576 55.6984 56.1441 55.5157 55.9383C55.4469 55.8626 55.386 55.7889 55.3193 55.7171C55.0096 55.3764 54.7789 54.973 54.6435 54.5351C54.6377 54.5155 54.6337 54.4953 54.6317 54.4749C54.626 54.4513 54.6221 54.4273 54.6199 54.4031C54.5826 54.1023 54.5433 53.7588 54.504 53.3861C54.504 53.3124 54.4883 53.2347 54.4785 53.1571L54.4667 53.0639C54.4333 52.7515 54.396 52.4235 54.3528 52.0838C54.3095 51.7442 54.2624 51.3599 54.2074 50.9892C54.1878 50.8611 54.1701 50.731 54.1504 50.601C54.1288 50.4574 54.1052 50.3118 54.0817 50.1682L54.0168 49.7955L54.0051 49.7373C53.9776 49.5918 53.952 49.4501 53.9226 49.3064C53.9183 49.2905 53.9151 49.2743 53.9127 49.2579C53.8852 49.1318 53.8597 49.0056 53.8302 48.8814C53.7674 48.6 53.6986 48.3244 53.6338 48.0565C54.9598 46.795 58.0203 47.5869 56.5392 44.6659C56.5392 44.6659 57.2856 42.166 55.2289 39.4566C56.6354 40.5765 57.3564 42.5465 57.0892 44.6969C57.0892 44.6969 58.3307 48.8989 58.9849 49.8576C59.639 50.8164 62.344 45.318 62.1692 44.6756C62.1077 44.389 62.0618 44.0994 62.0317 43.808C62.0179 43.7129 62.0061 43.6139 61.9944 43.5052C61.9826 43.3965 61.9668 43.2879 61.9551 43.1714C61.9551 43.119 61.9413 43.0608 61.9335 43.0045C61.9335 42.9812 61.9335 42.9579 61.9335 42.9366C61.9099 42.7153 61.8843 42.4843 61.8568 42.2417C61.8568 42.1758 61.8431 42.1117 61.8352 42.0477C61.8352 41.9312 61.8117 41.8148 61.7999 41.6983C61.7988 41.6789 61.7988 41.6595 61.7999 41.6401C61.7999 41.5741 61.7842 41.5062 61.7783 41.4363C61.7625 41.2985 61.7508 41.1626 61.735 41.0248L61.6997 40.6677C61.6761 40.4465 61.6545 40.2233 61.6329 40.0078C61.6191 39.8448 61.6034 39.6856 61.5877 39.5323C61.5877 39.4974 61.5877 39.4624 61.5779 39.4294C61.6329 39.6837 62.6289 44.367 63.1966 45.4597C63.7643 46.5815 61.2931 52.4991 59.7569 51.5287Z" fill="#FFE4C8"/>
<path opacity="0.8" d="M77.9037 56.0912C77.4657 58.5484 76.3479 61.9138 76.3479 61.9138C76.3479 61.9138 76.8567 63.7091 76.7585 65.3103C76.731 65.7411 77.0021 66.828 77.4067 68.1886C77.2908 67.8897 76.0317 64.6834 76.0592 63.5635C76.0827 62.399 75.7448 62.0671 75.0769 60.6251C74.409 59.183 73.4052 59.3402 73.4052 59.3402C73.4052 59.3402 73.0123 62.9386 72.1009 60.5746C71.1894 58.2106 71.0106 55.4605 73.3149 45.9115C73.3149 45.9115 73.6626 47.109 73.3718 50.6666C73.0811 54.2241 73.9415 55.3013 73.9415 55.3013C75.2372 53.0713 76.2656 50.6998 77.006 48.2347C77.006 48.2347 76.7074 52.3861 76.4422 54.2765C76.177 56.1669 77.3871 52.0853 78.2318 49.5641C79.0176 47.1963 79.0549 46.2977 78.7524 44.613C78.9763 45.7989 79.1453 46.9304 79.0588 47.7572C78.886 49.4419 78.3418 53.6283 77.9037 56.0912Z" fill="#FFE4C8"/>
<path opacity="0.8" d="M62.1455 64.0857C62.8252 65.1551 64.4891 66.5661 65.485 70.4692C66.481 74.3722 65.8524 78.644 65.8524 78.644L62.1455 64.0857Z" fill="#FFE4C8"/>
<path opacity="0.8" d="M56.7959 41.9309C56.7959 41.9309 53.3169 43.6777 53.0419 46.589C52.0361 44.3706 53.3444 45.1721 52.5566 39.4641C52.5566 39.4641 53.1361 38.1404 54.7882 39.1982C54.9159 39.2805 55.0391 39.3692 55.1575 39.4641C55.4923 39.7316 55.7879 40.0439 56.0356 40.3918L56.7959 41.9309Z" fill="#FFE4C8" fill-opacity="0.7"/>
<path d="M66.7011 79.9037C66.7011 79.9037 64.275 67.162 62.8253 65.1533C61.3755 63.1445 61.6466 62.3196 60.9394 60.9668C60.2322 59.6141 54.8635 56.3204 54.6258 54.399C54.3881 52.4776 54.117 48.7938 53.1092 46.5754C52.1015 44.357 53.4118 45.1586 52.6221 39.4486C52.6221 39.4486 53.2114 38.1269 54.8556 39.1847C56.4998 40.2424 57.376 42.356 57.0872 44.6986C57.0872 44.6986 58.3287 48.9006 58.9848 49.8594C59.6409 50.8181 62.34 45.3197 62.1672 44.6773C61.9943 44.0349 61.4737 38.5694 61.3912 37.5738C61.3912 37.5738 59.4268 34.6955 59.2304 33.3408C59.0339 31.986 59.0457 30.5595 59.8688 29.9811C61.8175 28.6109 61.2439 30.8196 62.12 31.7279C62.9962 32.6362 64.33 34.1365 65.0863 34.6062C65.8426 35.0759 66.5105 37.0264 66.5105 37.0264C66.5105 37.0264 65.4006 33.0011 65.379 32.2228C65.3574 31.4445 64.7523 27.3396 65.7719 25.8665C66.7914 24.3934 68.1508 25.5366 68.2765 25.8277C68.4022 26.1188 68.4396 30.0976 68.801 31.2019C69.1625 32.3063 70.6613 36.9236 70.6613 36.9236C70.6613 36.9236 70.7261 32.4363 71.066 30.4275C71.4058 28.4188 72.2898 26.8486 73.1522 26.7593C74.0146 26.67 74.8161 27.6114 74.8161 27.6114C74.8161 27.6114 74.4743 30.8138 74.5705 31.5532C74.6668 32.2927 74.431 34.9614 74.8416 36.4054C74.8416 36.4054 74.7945 32.5799 75.3956 32.0908C75.9967 31.6018 76.5133 31.3669 76.8512 31.7027C77.1891 32.0384 77.2618 34.2976 77.6055 35.6601C77.9493 37.0226 77.9081 38.8741 78.132 40.9994C78.3559 43.1246 79.2478 46.0747 79.071 47.7593C78.8942 49.444 78.35 53.6304 77.91 56.0856C77.47 58.5408 76.3581 61.9082 76.3581 61.9082C76.3581 61.9082 76.8669 63.7034 76.7667 65.3046C76.6665 66.9059 80.6543 77.565 80.6543 77.565" stroke="#263238" stroke-width="0.114759" stroke-linecap="round" stroke-linejoin="round"/>
<path d="M70.6543 36.9329C71.0609 37.8761 72.0647 41.8568 72.4223 42.4099C72.604 42.7154 72.8697 42.9637 73.1884 43.1261" stroke="#263238" stroke-width="0.114759" stroke-linecap="round" stroke-linejoin="round"/>
<path d="M74.8358 36.4092C74.8358 36.4092 74.7494 37.2243 75.1953 39.827C75.6412 42.4297 75.8593 43.536 76.1107 44.1163" stroke="#263238" stroke-width="0.114759" stroke-linecap="round" stroke-linejoin="round"/>
<path d="M66.501 37.0364C67.0451 38.6221 67.3535 41.149 67.6639 41.9099C67.9743 42.6707 68.2532 42.8279 68.2532 42.8279" stroke="#263238" stroke-width="0.114759" stroke-linecap="round" stroke-linejoin="round"/>
<path d="M67.3799 40.8398C67.7076 41.0858 67.9671 41.4096 68.1342 41.7812" stroke="#263238" stroke-width="0.114759" stroke-linecap="round" stroke-linejoin="round"/>
<path d="M58.9814 49.8613C58.9814 49.8613 59.28 51.9633 60.6119 51.8022" stroke="#263238" stroke-width="0.114759" stroke-linecap="round" stroke-linejoin="round"/>
<path d="M62.1644 44.6787C62.1644 44.6787 62.5081 47.1785 61.9424 48.2382" stroke="#263238" stroke-width="0.114759" stroke-linecap="round" stroke-linejoin="round"/>
<path d="M72.8183 44.7026C72.8183 44.7026 73.7141 45.2441 73.1149 46.8376C72.5158 48.431 71.4727 54.8397 71.4727 54.8397" stroke="#263238" stroke-width="0.114759" stroke-linecap="round" stroke-linejoin="round"/>
<path d="M76.7164 46.3872C77.0916 47.8234 77.125 47.8603 76.5199 49.6245C75.9149 51.3888 74.9229 55.7033 74.9229 55.7033" stroke="#263238" stroke-width="0.114759" stroke-linecap="round" stroke-linejoin="round"/>
<path d="M76.3497 61.9028C76.3497 61.9028 75.7604 60.7382 76.2476 59.7678" stroke="#263238" stroke-width="0.114759" stroke-linecap="round" stroke-linejoin="round"/>
<path d="M62.8252 65.1553C62.8252 65.1553 64.3064 67.2106 64.9507 69.5105" stroke="#263238" stroke-width="0.114759" stroke-linecap="round" stroke-linejoin="round"/>
<path d="M73.7236 29.1271L74.1244 28.735L74.3051 28.6846L74.2933 28.8787L73.926 29.3425L73.7236 29.1271Z" fill="#757575" stroke="#263238" stroke-width="0.114759" stroke-linecap="round" stroke-linejoin="round"/>
<path d="M74.0483 29.3425L73.3961 30.804L55.8735 53.8866L53.9229 52.658L56.5787 49.3741L72.3157 29.8685L73.7045 28.9971C73.7872 29.0204 73.8623 29.0645 73.9225 29.125C73.9828 29.1856 74.0261 29.2605 74.0483 29.3425Z" fill="#20446C"/>
<path opacity="0.3" d="M74.0483 29.3425L73.3961 30.804L55.8735 53.8866L53.9229 52.658L56.5787 49.3741C57.7947 49.2499 57.999 49.9563 57.999 49.9563L73.0897 30.4915C72.9404 29.9694 72.3039 29.8685 72.3039 29.8685L73.6927 28.9971C73.7776 29.0186 73.8551 29.0619 73.9176 29.1226C73.98 29.1832 74.0251 29.2591 74.0483 29.3425Z" fill="black" fill-opacity="0.7"/>
<path d="M74.0483 29.3425L73.3961 30.804L55.8735 53.8866L53.9229 52.658L56.5787 49.3741L72.3157 29.8685L73.7045 28.9971C73.7872 29.0204 73.8623 29.0645 73.9225 29.125C73.9828 29.1856 74.0261 29.2605 74.0483 29.3425Z" stroke="#263238" stroke-width="0.114759" stroke-linecap="round" stroke-linejoin="round"/>
<path d="M61.588 47.0529C61.588 47.0529 59.6236 50.8881 57.7496 53.6014L56.4059 53.9449C56.4059 53.9449 53.3218 56.9726 51.4399 58.4826C51.0982 58.273 50.7886 58.0161 50.5205 57.7199C50.5205 57.7199 53.1921 52.6523 56.1486 49.4421C56.4948 49.5648 56.8211 49.7367 57.117 49.9526C57.5014 50.2204 57.8431 50.5436 58.1307 50.9114L61.425 46.8162L61.588 47.0529Z" fill="#F0792E"/>
<path opacity="0.3" d="M61.5867 47.0522C61.5867 47.0522 59.6222 50.8873 57.7482 53.6006L56.4045 53.9441C56.4045 53.9441 53.3204 56.9719 51.4385 58.4818L51.4895 57.6609C53.5306 54.5807 56.1236 51.2211 57.1156 49.9518C57.5 50.2196 57.8417 50.5428 58.1293 50.9106L56.2984 53.325L57.3474 53.1309L61.4236 46.8076L61.5867 47.0522Z" fill="black" fill-opacity="0.7"/>
<path d="M61.588 47.0529C61.588 47.0529 59.6236 50.8881 57.7496 53.6014L56.4059 53.9449C56.4059 53.9449 53.3218 56.9726 51.4399 58.4826C51.0982 58.273 50.7886 58.0161 50.5205 57.7199C50.5205 57.7199 53.1921 52.6523 56.1486 49.4421C56.4948 49.5648 56.8211 49.7367 57.117 49.9526C57.5014 50.2204 57.8431 50.5436 58.1307 50.9114L61.425 46.8162L61.588 47.0529Z" stroke="#263238" stroke-width="0.114759" stroke-linecap="round" stroke-linejoin="round"/>
<path d="M68.2513 42.8272L62.7765 48.0675L61.9023 48.9098C62.5015 47.3882 62.2107 45.0281 62.1734 44.7506C62.1739 44.7422 62.1739 44.7338 62.1734 44.7254C62.1746 44.7112 62.1746 44.6969 62.1734 44.6827C62.1119 44.3961 62.066 44.1065 62.0359 43.8151C62.0222 43.72 62.0104 43.621 61.9986 43.5123C61.9868 43.4036 61.9711 43.295 61.9593 43.1785C61.9593 43.1261 61.9456 43.0679 61.9377 43.0116C61.9377 42.9883 61.9377 42.965 61.9377 42.9437C61.9141 42.7243 61.8866 42.4914 61.8611 42.2488C61.8611 42.1828 61.8473 42.1188 61.8395 42.0548C61.8395 41.9383 61.8159 41.8219 61.8041 41.7054C61.803 41.686 61.803 41.6666 61.8041 41.6472C61.8041 41.5812 61.7884 41.5133 61.7825 41.4434C61.7668 41.3056 61.755 41.1697 61.7393 41.0319L61.7039 40.6748C61.6804 40.4536 61.6587 40.2304 61.6371 40.0149C61.6214 39.8519 61.6057 39.6947 61.592 39.5394C61.592 39.5045 61.592 39.4695 61.5821 39.4365C61.4996 38.5826 61.4348 37.8839 61.4112 37.5811C61.4112 37.5811 59.4468 34.7047 59.2504 33.3481C59.0539 31.9914 59.0657 30.5668 59.8888 29.9885C61.8375 28.6182 61.2639 30.8269 62.14 31.7352C63.0162 32.6436 64.35 34.1477 65.1083 34.6155C65.8665 35.0832 66.5305 37.0357 66.5305 37.0357C67.0746 38.6214 67.3831 41.1464 67.6934 41.9092C68.0038 42.6719 68.2513 42.8272 68.2513 42.8272Z" fill="white"/>
<path d="M67.3799 40.8398C67.7076 41.0858 67.9671 41.4096 68.1342 41.7812" stroke="#263238" stroke-width="0.114759" stroke-linecap="round" stroke-linejoin="round"/>
<path opacity="0.8" d="M62.1087 31.7364C62.977 32.6524 64.3108 34.1391 65.0691 34.6127C64.963 34.5603 63.5663 33.8888 62.7865 34.636C61.9751 35.4123 61.3878 37.5764 61.3878 37.5764C61.3878 37.5764 59.4234 34.7 59.2269 33.3434C59.0305 31.9867 59.0423 30.5621 59.8654 29.9838C61.8062 28.6135 61.2365 30.8222 62.1087 31.7364Z" fill="#FFE4C8"/>
<path opacity="0.8" d="M62.7774 48.0716L61.9032 48.9101C62.5024 47.3884 62.2116 45.0284 62.1743 44.7508C62.1767 44.7282 62.1767 44.7055 62.1743 44.6829C62.1128 44.3963 62.0669 44.1067 62.0368 43.8153C62.023 43.7202 62.0113 43.6212 61.9995 43.5126C61.9877 43.4039 61.972 43.2952 61.9602 43.1787C61.9602 43.1263 61.9464 43.0681 61.9386 43.0118C61.9386 42.9885 61.9386 42.9652 61.9386 42.9439C61.915 42.7226 61.8895 42.4917 61.862 42.2491C61.862 42.1831 61.8482 42.119 61.8403 42.055C61.8403 41.9385 61.8168 41.8221 61.805 41.7056C61.8039 41.6862 61.8039 41.6668 61.805 41.6474C61.805 41.5814 61.7893 41.5135 61.7834 41.4436C61.7677 41.3058 61.7559 41.1699 61.7402 41.0321L61.7048 40.675C61.6812 40.4538 61.6596 40.2306 61.638 40.0151C61.6243 39.8521 61.6085 39.693 61.5928 39.5396C61.5928 39.5047 61.5928 39.4698 61.583 39.4368C61.638 39.691 62.634 44.3743 63.2017 45.467C63.3942 45.8746 63.1958 46.9382 62.7774 48.0716Z" fill="#FFE4C8"/>
<path d="M68.2532 42.8276C68.2532 42.8276 67.9763 42.6704 67.6639 41.9096C67.3516 41.1488 67.0451 38.6218 66.501 37.0361C66.501 37.0361 65.835 35.0953 65.0768 34.6159C64.3185 34.1365 62.9827 32.6537 62.1105 31.7376C61.2383 30.8215 61.808 28.6128 59.8593 29.9908C59.0362 30.5731 59.0205 31.9957 59.2209 33.3505C59.4212 34.7052 61.3817 37.5835 61.3817 37.5835C61.4642 38.5791 61.9828 44.0465 62.1577 44.687" stroke="#263238" stroke-width="0.114759" stroke-linecap="round" stroke-linejoin="round"/>
<path d="M62.1644 44.6787C62.1644 44.6787 62.5081 47.1785 61.9424 48.2382" stroke="#263238" stroke-width="0.114759" stroke-linecap="round" stroke-linejoin="round"/>
<path opacity="0.2" d="M28.5636 47.7454C28.5636 47.7454 29.8071 53.4495 27.1139 57.601C24.4207 61.7525 22.3482 62.8568 21.4171 64.0951C20.4859 65.3334 16.8341 72.2486 16.8341 72.2486L12.5713 59.7786L16.8341 44.3469L28.5636 47.7454Z" fill="black" fill-opacity="0.7"/>
<g clip-path="url(#clip1_7_71465)">
<path d="M25.62 24.4072L13.5205 29.2664L20.8847 47.3015L32.9842 42.4424L25.62 24.4072Z" fill="white" stroke="#263238" stroke-width="0.114759" stroke-linecap="round" stroke-linejoin="round"/>
<path d="M14.9301 30.1296L18.0768 28.8585" stroke="#263238" stroke-width="0.229517" stroke-linecap="round" stroke-linejoin="round"/>
<path d="M15.175 30.7285L17.3146 29.8633" stroke="#263238" stroke-width="0.229517" stroke-linecap="round" stroke-linejoin="round"/>
<path d="M16.5223 31.8332L25.5728 28.1761" stroke="#263238" stroke-width="0.229517" stroke-linecap="round" stroke-linejoin="round"/>
<path d="M16.768 32.4308L25.8189 28.7752" stroke="#263238" stroke-width="0.229517" stroke-linecap="round" stroke-linejoin="round"/>
<path d="M17.0576 33.1301L24.7763 30.0126" stroke="#263238" stroke-width="0.229517" stroke-linecap="round" stroke-linejoin="round"/>
<path d="M18.0925 33.4531L17.3564 33.7505L17.6563 34.4805L18.3924 34.1831L18.0925 33.4531Z" stroke="#263238" stroke-width="0.114759" stroke-linecap="round" stroke-linejoin="round"/>
<path d="M19.4255 32.9143L18.6895 33.2117L18.9893 33.9416L19.7254 33.6442L19.4255 32.9143Z" stroke="#263238" stroke-width="0.114759" stroke-linecap="round" stroke-linejoin="round"/>
<path d="M20.7614 32.3745L20.0254 32.6719L20.3253 33.4018L21.0613 33.1045L20.7614 32.3745Z" stroke="#263238" stroke-width="0.114759" stroke-linecap="round" stroke-linejoin="round"/>
<path d="M22.0964 31.8349L21.3604 32.1323L21.6602 32.8623L22.3963 32.5649L22.0964 31.8349Z" stroke="#263238" stroke-width="0.114759" stroke-linecap="round" stroke-linejoin="round"/>
<path d="M16.0396 32.0264C16.0549 32.0627 16.059 32.1027 16.0514 32.1413C16.0437 32.1798 16.0247 32.2153 15.9966 32.2431C15.9686 32.2709 15.9329 32.2898 15.894 32.2974C15.8551 32.3051 15.8148 32.301 15.7782 32.2859C15.7416 32.2707 15.7104 32.2451 15.6885 32.2123C15.6667 32.1795 15.6551 32.141 15.6554 32.1017C15.6557 32.0623 15.6677 32.024 15.69 31.9915C15.7123 31.959 15.7439 31.9338 15.7806 31.9191C15.8294 31.8996 15.8839 31.9 15.9323 31.9201C15.9808 31.9402 16.0193 31.9784 16.0396 32.0264Z" fill="#263238"/>
<path d="M17.9569 35.3275L27.0073 31.6705" stroke="#263238" stroke-width="0.229517" stroke-linecap="round" stroke-linejoin="round"/>
<path d="M18.2035 35.9252L27.2544 32.2696" stroke="#263238" stroke-width="0.229517" stroke-linecap="round" stroke-linejoin="round"/>
<path d="M18.4917 36.6245L26.2099 33.5055" stroke="#263238" stroke-width="0.229517" stroke-linecap="round" stroke-linejoin="round"/>
<path d="M19.5261 36.9463L18.79 37.2437L19.0899 37.9736L19.826 37.6762L19.5261 36.9463Z" stroke="#263238" stroke-width="0.114759" stroke-linecap="round" stroke-linejoin="round"/>
<path d="M20.8611 36.4087L20.125 36.7061L20.4249 37.436L21.1609 37.1386L20.8611 36.4087Z" stroke="#263238" stroke-width="0.114759" stroke-linecap="round" stroke-linejoin="round"/>
<path d="M22.1941 35.8686L21.458 36.166L21.7579 36.896L22.4939 36.5986L22.1941 35.8686Z" stroke="#263238" stroke-width="0.114759" stroke-linecap="round" stroke-linejoin="round"/>
<path d="M23.53 35.3305L22.7939 35.6279L23.0938 36.3579L23.8299 36.0605L23.53 35.3305Z" stroke="#263238" stroke-width="0.114759" stroke-linecap="round" stroke-linejoin="round"/>
<path d="M17.4777 35.522C17.4927 35.5583 17.4965 35.5983 17.4886 35.6367C17.4807 35.6752 17.4614 35.7105 17.4333 35.7381C17.4051 35.7657 17.3693 35.7844 17.3305 35.7918C17.2916 35.7992 17.2514 35.795 17.2149 35.7797C17.1784 35.7644 17.1474 35.7387 17.1257 35.7059C17.1039 35.673 17.0925 35.6346 17.0929 35.5953C17.0933 35.556 17.1054 35.5178 17.1277 35.4853C17.15 35.4529 17.1815 35.4278 17.2183 35.4132C17.2673 35.3937 17.322 35.3942 17.3706 35.4146C17.4192 35.4349 17.4577 35.4736 17.4777 35.522Z" fill="#263238"/>
<path d="M19.393 38.8209L28.4439 35.1654" stroke="#263238" stroke-width="0.229517" stroke-linecap="round" stroke-linejoin="round"/>
<path d="M19.6405 39.4203L28.6894 35.7637" stroke="#263238" stroke-width="0.229517" stroke-linecap="round" stroke-linejoin="round"/>
<path d="M19.9253 40.1194L27.6435 37.0003" stroke="#263238" stroke-width="0.229517" stroke-linecap="round" stroke-linejoin="round"/>
<path d="M20.9626 40.4411L20.2266 40.7385L20.5264 41.4685L21.2625 41.1711L20.9626 40.4411Z" stroke="#263238" stroke-width="0.114759" stroke-linecap="round" stroke-linejoin="round"/>
<path d="M22.2956 39.9016L21.5596 40.199L21.8594 40.9289L22.5955 40.6316L22.2956 39.9016Z" stroke="#263238" stroke-width="0.114759" stroke-linecap="round" stroke-linejoin="round"/>
<path d="M23.6316 39.3635L22.8955 39.6609L23.1954 40.3909L23.9314 40.0935L23.6316 39.3635Z" stroke="#263238" stroke-width="0.114759" stroke-linecap="round" stroke-linejoin="round"/>
<path d="M24.9636 38.8247L24.2275 39.1221L24.5274 39.852L25.2635 39.5546L24.9636 38.8247Z" stroke="#263238" stroke-width="0.114759" stroke-linecap="round" stroke-linejoin="round"/>
<path d="M18.9113 39.0157C18.9263 39.052 18.9301 39.0919 18.9222 39.1304C18.9143 39.1689 18.895 39.2041 18.8669 39.2317C18.8387 39.2593 18.8029 39.278 18.7641 39.2854C18.7252 39.2928 18.685 39.2886 18.6485 39.2733C18.612 39.258 18.581 39.2323 18.5593 39.1995C18.5375 39.1667 18.5261 39.1282 18.5265 39.089C18.5269 39.0497 18.539 39.0114 18.5613 38.979C18.5836 38.9466 18.6151 38.9215 18.6519 38.9068C18.7008 38.8873 18.7556 38.8878 18.8042 38.9082C18.8528 38.9286 18.8913 38.9672 18.9113 39.0157Z" fill="#263238"/>
<path d="M20.8705 42.414L29.9199 38.7588" stroke="#263238" stroke-width="0.229517" stroke-linecap="round" stroke-linejoin="round"/>
<path d="M21.1166 43.0128L30.166 39.3577" stroke="#263238" stroke-width="0.229517" stroke-linecap="round" stroke-linejoin="round"/>
<path d="M21.4014 43.7121L29.1201 40.5946" stroke="#263238" stroke-width="0.229517" stroke-linecap="round" stroke-linejoin="round"/>
<path d="M22.4402 44.0346L21.7041 44.332L22.004 45.062L22.74 44.7646L22.4402 44.0346Z" stroke="#263238" stroke-width="0.114759" stroke-linecap="round" stroke-linejoin="round"/>
<path d="M23.7732 43.4958L23.0371 43.7932L23.337 44.5232L24.073 44.2258L23.7732 43.4958Z" stroke="#263238" stroke-width="0.114759" stroke-linecap="round" stroke-linejoin="round"/>
<path d="M25.1071 42.957L24.3711 43.2544L24.671 43.9844L25.407 43.687L25.1071 42.957Z" stroke="#263238" stroke-width="0.114759" stroke-linecap="round" stroke-linejoin="round"/>
<path d="M26.4441 42.4172L25.708 42.7146L26.0079 43.4446L26.7439 43.1472L26.4441 42.4172Z" stroke="#263238" stroke-width="0.114759" stroke-linecap="round" stroke-linejoin="round"/>
<path d="M20.3923 42.6063C20.4072 42.6422 20.4109 42.6818 20.4031 42.7199C20.3953 42.758 20.3763 42.793 20.3485 42.8204C20.3207 42.8478 20.2853 42.8664 20.2468 42.8738C20.2083 42.8813 20.1685 42.8772 20.1323 42.8622C20.0961 42.8473 20.0653 42.822 20.0436 42.7896C20.0219 42.7572 20.0104 42.7191 20.0105 42.6803C20.0106 42.6414 20.0223 42.6034 20.0442 42.5711C20.066 42.5388 20.0971 42.5137 20.1333 42.4989C20.1574 42.4891 20.1832 42.4841 20.2093 42.4841C20.2354 42.4842 20.2612 42.4894 20.2853 42.4993C20.3093 42.5093 20.3311 42.5239 20.3495 42.5422C20.3679 42.5606 20.3824 42.5823 20.3923 42.6063Z" fill="#263238"/>
<path d="M17.7382 33.9355L17.9066 34.0504L18.0915 33.4539" stroke="#263238" stroke-width="0.229517" stroke-linecap="round" stroke-linejoin="round"/>
<path d="M21.8241 36.3078L21.9929 36.4242L22.1774 35.8262" stroke="#263238" stroke-width="0.229517" stroke-linecap="round" stroke-linejoin="round"/>
<path d="M21.9569 40.4133L22.1272 40.5292L22.3103 39.9316" stroke="#263238" stroke-width="0.229517" stroke-linecap="round" stroke-linejoin="round"/>
<path d="M26.0712 42.9067L26.24 43.023L26.4245 42.4251" stroke="#263238" stroke-width="0.229517" stroke-linecap="round" stroke-linejoin="round"/>
</g>
<path d="M25.6107 45.384C26.0703 43.8313 27.8619 38.8608 27.6262 36.6618C27.6074 36.4787 27.5652 36.2987 27.5004 36.1261C26.8718 34.4841 24.3024 34.6433 23.3162 36.0038C22.2319 37.5002 21.3518 40.1922 21.2713 41.8264C21.2024 42.6453 20.9327 43.4353 20.4855 44.1282C20.332 44.3844 20.1586 44.6284 19.9669 44.858L14.107 31.1265C13.5152 31.6133 12.9984 32.1828 12.5728 32.8169C12.3333 33.1705 12.1787 33.5734 12.121 33.995C12.0012 35.3536 10.4493 40.9122 9.80497 43.2587C9.79319 43.3092 9.77747 43.3558 9.76568 43.4043C9.14493 45.6596 10.7833 54.0363 10.3138 56.4682C9.84426 58.9001 9.55549 58.8477 9.48674 60.575C9.43763 61.8366 7.61072 65.6736 5.5579 69.6116C4.37925 71.8669 3.13774 74.1552 2.11035 76.0164L17.1028 75.4012C17.3621 73.6001 17.6292 71.7019 17.8728 69.862C17.9787 69.0967 18.1282 68.3379 18.3207 67.5893C18.6507 66.2695 19.0534 65.0759 19.3029 64.3772C19.621 63.3501 19.8833 62.307 20.0887 61.2524C21.8311 59.4299 24.1177 56.5633 24.7797 54.6224V54.6088C24.9421 54.2096 24.9937 53.7747 24.929 53.3492C24.8559 52.9998 24.8157 52.6444 24.8092 52.2876C24.7404 50.1759 25.2256 46.6766 25.6107 45.384Z" fill="white"/>
<path opacity="0.8" d="M20.4879 44.1399C20.0243 45.0618 19.4644 45.9585 19.1128 46.991C18.7612 48.0235 18.3702 48.171 17.3212 48.9784C16.2723 49.7858 15.5061 48.4563 15.5061 48.4563C15.5061 48.4563 16.895 47.0298 16.4333 46.2379C15.9717 45.4461 14.2371 43.4761 14.3393 42.3815C14.4414 41.2868 13.2922 38.8491 13.2922 38.8491C13.2922 38.8491 15.9108 37.3314 15.402 35.5497C15.125 34.5851 13.7499 33.5525 12.5713 32.8169C12.9969 32.1828 13.5137 31.6133 14.1055 31.1265L19.9693 44.8696C20.161 44.64 20.3344 44.396 20.4879 44.1399Z" fill="#FFE4C8"/>
<path opacity="0.8" d="M10.9813 52.57C11.0167 52.6865 11.8693 55.4697 11.1503 56.6284C10.4313 57.7871 9.69268 59.3223 10.0443 60.8982C10.3233 62.1559 7.96792 66.6975 5.56348 69.6127C7.6104 65.6747 9.43731 61.8376 9.49231 60.5761C9.56107 58.8487 9.84984 58.9011 10.3193 56.4692C10.7888 54.0373 9.14068 45.6606 9.77126 43.4053C9.78305 43.3568 9.79876 43.3102 9.81055 43.2598C10.2683 45.8159 11.3349 50.9067 11.6276 52.5429C11.993 54.6254 11.0206 52.6535 10.9813 52.57Z" fill="#FFE4C8"/>
<path opacity="0.8" d="M16.3799 69.3526C18.1223 61.9424 23.9861 56.2577 24.7797 54.6138C24.1177 56.5546 21.8331 59.4213 20.0887 61.2437C19.8833 62.2984 19.621 63.3415 19.3029 64.3685C19.0574 65.0672 18.6547 66.2608 18.3207 67.5806C16.6235 69.5642 16.3799 69.3526 16.3799 69.3526Z" fill="#FFE4C8"/>
<path opacity="0.8" d="M25.6099 45.384C25.217 46.6767 24.7397 50.176 24.8143 52.278C24.5059 50.9562 23.9127 49.2813 23.8145 46.9464C23.6475 42.9871 25.9183 44.4078 25.1267 42.4572C24.335 40.5067 22.0779 43.0065 23.1898 38.8783C24.003 35.8622 26.3132 35.8913 27.4997 36.1262C27.5644 36.2988 27.6067 36.4788 27.6254 36.6619C27.8612 38.8608 26.0696 43.8352 25.6099 45.384Z" fill="#FFE4C8"/>
<path d="M19.9733 44.8691C19.6178 45.5476 19.3284 46.2579 19.1089 46.9905C18.8634 47.9415 17.6199 47.8057 16.9775 48.3957" stroke="#263238" stroke-width="0.114759" stroke-linecap="round" stroke-linejoin="round"/>
<path d="M15.2783 43.1963C15.2783 43.1963 16.9716 43.7785 17.9558 44.5452C18.94 45.3118 19.6688 45.4884 19.6688 45.4884" stroke="#263238" stroke-width="0.114759" stroke-linecap="round" stroke-linejoin="round"/>
<path d="M14.2002 39.0523C14.2002 39.0523 15.5655 39.4308 16.5771 38.9553C16.6229 38.471 16.7089 37.9913 16.8345 37.521" stroke="#263238" stroke-width="0.114759" stroke-linecap="round" stroke-linejoin="round"/>
<path d="M16.9043 39.1499C16.9043 39.1499 16.918 39.344 17.6135 39.344" stroke="#263238" stroke-width="0.114759" stroke-linecap="round" stroke-linejoin="round"/>
<path d="M20.0865 61.2463C19.1341 62.1938 18.402 63.335 17.9414 64.5904" stroke="#263238" stroke-width="0.114759" stroke-linecap="round" stroke-linejoin="round"/>
<path d="M9.68652 43.8174C9.62563 44.9819 11.0066 49.112 11.427 51.1655C11.8474 53.2189 12.0026 54.6706 12.0026 54.6706" stroke="#263238" stroke-width="0.114759" stroke-linecap="round" stroke-linejoin="round"/>
<path d="M4.39648 71.9208C6.28625 68.5282 8.10334 65.0366 9.42932 61.2694C9.58844 60.7279 9.37628 60.0234 9.5354 59.4819C11.3152 54.5909 9.29574 49.5001 9.62773 44.4927C9.90471 42.5188 10.5431 40.5294 11.1835 38.5401C11.4841 37.1 11.5961 35.491 12.0774 34.0431C12.5724 32.9524 13.0596 31.683 14.1145 31.1318C16.1182 35.6676 18.116 40.2247 19.9782 44.875C20.819 44.3956 20.9604 43.3223 21.096 42.4218C21.5478 40.2616 22.0055 38.28 22.8325 36.4634C23.6733 35 25.8145 34.3769 27.1287 35.5725C27.5059 35.9454 27.7215 36.4486 27.7298 36.9757C27.4745 39.4833 26.6769 42.022 25.8735 44.3665C25.5572 45.4495 25.235 46.3559 25.0995 47.4311C25.1152 47.7863 25.1211 47.9649 25.1368 48.322C24.6712 50.125 25.0995 51.7126 24.9934 53.5021C24.5868 56.7297 21.9741 58.9773 20.0824 61.3742C19.6168 63.1773 19.1493 64.9803 18.5108 66.7911C17.7251 69.4986 17.4736 72.1867 17.2045 74.7971" stroke="#263238" stroke-width="0.114759" stroke-linecap="round" stroke-linejoin="round"/>
<path d="M49.0193 20.2104H32.7383V44.5713H49.0193V20.2104Z" fill="white" stroke="#263238" stroke-width="0.114759" stroke-linecap="round" stroke-linejoin="round"/>
<path d="M33.9582 21.8688L38.1959 21.8602" stroke="#263238" stroke-width="0.229517" stroke-linecap="round" stroke-linejoin="round"/>
<path d="M33.9624 22.6789L36.8444 22.672" stroke="#263238" stroke-width="0.229517" stroke-linecap="round" stroke-linejoin="round"/>
<path d="M34.9973 24.5893L47.1861 24.5634" stroke="#263238" stroke-width="0.229517" stroke-linecap="round" stroke-linejoin="round"/>
<path d="M35.0004 25.3975L47.189 25.3734" stroke="#263238" stroke-width="0.229517" stroke-linecap="round" stroke-linejoin="round"/>
<path d="M35.0018 26.3419L45.3964 26.3213" stroke="#263238" stroke-width="0.229517" stroke-linecap="round" stroke-linejoin="round"/>
<path d="M36.046 27.2006L35.0547 27.2026L35.0568 28.1895L36.048 28.1874L36.046 27.2006Z" stroke="#263238" stroke-width="0.114759" stroke-linecap="round" stroke-linejoin="round"/>
<path d="M37.8419 27.1954L36.8506 27.1975L36.8527 28.1843L37.8439 28.1823L37.8419 27.1954Z" stroke="#263238" stroke-width="0.114759" stroke-linecap="round" stroke-linejoin="round"/>
<path d="M39.6397 27.1918L38.6484 27.1938L38.6505 28.1807L39.6418 28.1786L39.6397 27.1918Z" stroke="#263238" stroke-width="0.114759" stroke-linecap="round" stroke-linejoin="round"/>
<path d="M41.4376 27.1881L40.4463 27.1902L40.4484 28.177L41.4397 28.1749L41.4376 27.1881Z" stroke="#263238" stroke-width="0.114759" stroke-linecap="round" stroke-linejoin="round"/>
<path d="M34.3491 24.588C34.3497 24.6372 34.3356 24.6855 34.3085 24.7267C34.2814 24.7679 34.2427 24.8001 34.1971 24.8193C34.1516 24.8386 34.1014 24.8439 34.0528 24.8346C34.0043 24.8253 33.9596 24.8018 33.9244 24.7672C33.8893 24.7325 33.8653 24.6883 33.8555 24.64C33.8457 24.5918 33.8506 24.5417 33.8694 24.4962C33.8883 24.4507 33.9203 24.4118 33.9614 24.3845C34.0026 24.3571 34.0509 24.3426 34.1004 24.3427C34.1659 24.3428 34.2287 24.3686 34.2753 24.4145C34.3218 24.4604 34.3484 24.5227 34.3491 24.588Z" fill="#263238"/>
<path d="M35.008 29.3115L47.1968 29.2855" stroke="#263238" stroke-width="0.229517" stroke-linecap="round" stroke-linejoin="round"/>
<path d="M35.0092 30.1199L47.1978 30.0958" stroke="#263238" stroke-width="0.229517" stroke-linecap="round" stroke-linejoin="round"/>
<path d="M35.0114 31.0672L45.4061 31.0447" stroke="#263238" stroke-width="0.229517" stroke-linecap="round" stroke-linejoin="round"/>
<path d="M36.0567 31.9225L35.0654 31.9246L35.0675 32.9114L36.0588 32.9093L36.0567 31.9225Z" stroke="#263238" stroke-width="0.114759" stroke-linecap="round" stroke-linejoin="round"/>
<path d="M37.8546 31.9208L36.8633 31.9229L36.8654 32.9097L37.8566 32.9076L37.8546 31.9208Z" stroke="#263238" stroke-width="0.114759" stroke-linecap="round" stroke-linejoin="round"/>
<path d="M39.6514 31.9159L38.6602 31.918L38.6622 32.9048L39.6535 32.9027L39.6514 31.9159Z" stroke="#263238" stroke-width="0.114759" stroke-linecap="round" stroke-linejoin="round"/>
<path d="M41.4483 31.9122L40.457 31.9143L40.4591 32.9011L41.4504 32.8991L41.4483 31.9122Z" stroke="#263238" stroke-width="0.114759" stroke-linecap="round" stroke-linejoin="round"/>
<path d="M34.3609 29.3133C34.361 29.3624 34.3466 29.4105 34.3193 29.4515C34.292 29.4924 34.2531 29.5244 34.2075 29.5433C34.1619 29.5622 34.1117 29.5672 34.0633 29.5577C34.0148 29.5482 33.9703 29.5245 33.9354 29.4898C33.9005 29.4551 33.8767 29.4108 33.8671 29.3626C33.8575 29.3144 33.8624 29.2644 33.8814 29.219C33.9003 29.1736 33.9324 29.1348 33.9735 29.1076C34.0146 29.0804 34.0629 29.0659 34.1123 29.0661C34.1781 29.0663 34.2412 29.0924 34.2878 29.1387C34.3343 29.185 34.3606 29.2478 34.3609 29.3133Z" fill="#263238"/>
<path d="M35.017 34.0347L47.2056 34.0106" stroke="#263238" stroke-width="0.229517" stroke-linecap="round" stroke-linejoin="round"/>
<path d="M35.0197 34.8452L47.2066 34.819" stroke="#263238" stroke-width="0.229517" stroke-linecap="round" stroke-linejoin="round"/>
<path d="M35.0211 35.7898L45.4159 35.7674" stroke="#263238" stroke-width="0.229517" stroke-linecap="round" stroke-linejoin="round"/>
<path d="M36.0655 36.6473L35.0742 36.6494L35.0763 37.6363L36.0676 37.6342L36.0655 36.6473Z" stroke="#263238" stroke-width="0.114759" stroke-linecap="round" stroke-linejoin="round"/>
<path d="M37.8633 36.6437L36.8721 36.6458L36.8742 37.6326L37.8654 37.6305L37.8633 36.6437Z" stroke="#263238" stroke-width="0.114759" stroke-linecap="round" stroke-linejoin="round"/>
<path d="M39.6631 36.6405L38.6719 36.6426L38.674 37.6294L39.6652 37.6273L39.6631 36.6405Z" stroke="#263238" stroke-width="0.114759" stroke-linecap="round" stroke-linejoin="round"/>
<path d="M41.4571 36.6363L40.4658 36.6384L40.4679 37.6253L41.4592 37.6232L41.4571 36.6363Z" stroke="#263238" stroke-width="0.114759" stroke-linecap="round" stroke-linejoin="round"/>
<path d="M34.3687 34.0374C34.3689 34.0866 34.3544 34.1347 34.3271 34.1756C34.2998 34.2166 34.2609 34.2485 34.2153 34.2674C34.1697 34.2863 34.1195 34.2913 34.0711 34.2818C34.0226 34.2723 33.9781 34.2487 33.9432 34.2139C33.9083 34.1792 33.8845 34.1349 33.8749 34.0867C33.8653 34.0385 33.8703 33.9885 33.8892 33.9431C33.9082 33.8977 33.9402 33.859 33.9813 33.8317C34.0224 33.8045 34.0707 33.7901 34.1201 33.7902C34.1859 33.7904 34.249 33.8165 34.2956 33.8628C34.3421 33.9091 34.3684 33.9719 34.3687 34.0374Z" fill="#263238"/>
<path d="M35.0268 38.8926L47.2135 38.8684" stroke="#263238" stroke-width="0.229517" stroke-linecap="round" stroke-linejoin="round"/>
<path d="M35.0277 39.7029L47.2144 39.6787" stroke="#263238" stroke-width="0.229517" stroke-linecap="round" stroke-linejoin="round"/>
<path d="M35.0282 40.6478L45.4227 40.6272" stroke="#263238" stroke-width="0.229517" stroke-linecap="round" stroke-linejoin="round"/>
<path d="M36.0772 41.5057L35.0859 41.5078L35.088 42.4947L36.0793 42.4926L36.0772 41.5057Z" stroke="#263238" stroke-width="0.114759" stroke-linecap="round" stroke-linejoin="round"/>
<path d="M37.8731 41.5016L36.8818 41.5037L36.8839 42.4905L37.8752 42.4884L37.8731 41.5016Z" stroke="#263238" stroke-width="0.114759" stroke-linecap="round" stroke-linejoin="round"/>
<path d="M39.671 41.4974L38.6797 41.4995L38.6818 42.4863L39.673 42.4843L39.671 41.4974Z" stroke="#263238" stroke-width="0.114759" stroke-linecap="round" stroke-linejoin="round"/>
<path d="M41.4678 41.493L40.4766 41.4951L40.4787 42.482L41.4699 42.4799L41.4678 41.493Z" stroke="#263238" stroke-width="0.114759" stroke-linecap="round" stroke-linejoin="round"/>
<path d="M34.3874 38.8944C34.3876 38.9431 34.3733 38.9908 34.3463 39.0313C34.3193 39.0719 34.2808 39.1036 34.2357 39.1225C34.1906 39.1413 34.1409 39.1464 34.0929 39.1371C34.0449 39.1278 34.0008 39.1046 33.966 39.0703C33.9313 39.0361 33.9075 38.9923 33.8978 38.9446C33.888 38.8969 33.8926 38.8474 33.9111 38.8024C33.9296 38.7573 33.9611 38.7187 34.0016 38.6914C34.0421 38.6641 34.0898 38.6494 34.1387 38.6492C34.1712 38.649 34.2034 38.6552 34.2335 38.6674C34.2637 38.6796 34.291 38.6977 34.3141 38.7204C34.3372 38.7432 34.3556 38.7703 34.3682 38.8002C34.3808 38.83 34.3873 38.8621 34.3874 38.8944Z" fill="#263238"/>
<path d="M35.4116 27.595L35.552 27.8068L36.0474 27.2008" stroke="#263238" stroke-width="0.229517" stroke-linecap="round" stroke-linejoin="round"/>
<path d="M39.0161 32.252L39.1564 32.4657L39.6519 31.8578" stroke="#263238" stroke-width="0.229517" stroke-linecap="round" stroke-linejoin="round"/>
<path d="M37.228 37.0772L37.3702 37.2911L37.8638 36.683" stroke="#263238" stroke-width="0.229517" stroke-linecap="round" stroke-linejoin="round"/>
<path d="M40.8091 41.8887L40.9493 42.1024L41.4449 41.4945" stroke="#263238" stroke-width="0.229517" stroke-linecap="round" stroke-linejoin="round"/>
<defs>
<clipPath id="clip0_7_71465">
<rect width="15.0258" height="20.7621" fill="white" transform="matrix(0.998836 0.0482276 -0.0490328 0.998797 51.8096 26.6672)"/>
</clipPath>
<clipPath id="clip1_7_71465">
<rect width="15.0086" height="20.7861" fill="white" transform="matrix(0.927964 -0.372671 0.378023 0.925796 12.3604 29.0298)"/>
</clipPath>
</defs>
</svg>
