<svg width="33" height="29" viewBox="0 0 33 29" fill="none" xmlns="http://www.w3.org/2000/svg">
<path d="M7.24948 22.7827H6.96444C4.11154 22.67 1.5904 20.8938 0.524453 18.2456C-0.541495 15.5974 0.0462192 12.5702 2.02571 10.5131C3.39109 9.09013 5.27798 8.28568 7.25023 8.28568C9.22248 8.28568 11.1094 9.09013 12.4748 10.5131C13.3015 11.3749 13.9046 12.426 14.2315 13.5745C14.408 14.2141 14.4983 14.8744 14.5 15.5379C14.4985 15.9048 14.472 16.2711 14.4205 16.6344C14.247 17.7399 13.8221 18.7909 13.1784 19.7063C11.8196 21.6347 9.60872 22.783 7.24948 22.7857V22.7827ZM7.24948 9.03712C5.48193 9.03659 3.79044 9.75606 2.56503 11.0297C1.33962 12.3032 0.686049 14.021 0.755021 15.7869C0.896165 19.1714 3.60647 21.8839 6.99144 22.0282C9.19477 22.1125 11.2909 21.0754 12.5603 19.2728C13.138 18.456 13.5204 17.5174 13.6779 16.5294C13.7241 16.2024 13.7482 15.8727 13.7499 15.5424C13.7482 14.9474 13.6675 14.3553 13.5099 13.7815C13.2154 12.7519 12.6742 11.8097 11.9332 11.0366C10.712 9.75732 9.01966 9.03463 7.25098 9.03712H7.24948Z" fill="#92140C"/>
<path d="M23.0853 22.7856H12.0288C11.2883 22.7838 10.6283 22.3059 10.3784 21.5907C10.3176 21.4171 10.3866 21.2237 10.5424 21.1317C11.3456 20.6535 12.0375 20.0014 12.57 19.2207C12.6403 19.1181 12.7549 19.057 12.8771 19.057H23.0853C24.0584 19.0553 24.8499 19.8607 24.8565 20.8593V20.9618C24.8577 21.4448 24.6716 21.9085 24.3394 22.2506C24.0071 22.5927 23.5559 22.7852 23.0853 22.7856ZM11.2192 21.6029C11.408 21.8675 11.7092 22.0229 12.0288 22.0206H23.0853C23.6514 22.0197 24.1102 21.549 24.111 20.9679V20.8593C24.1098 20.5814 24.0011 20.3153 23.8087 20.1196C23.6164 19.9239 23.3561 19.8146 23.0853 19.8159H13.0679C12.5602 20.5197 11.9342 21.1249 11.2192 21.6029Z" fill="#92140C"/>
<path d="M23.0744 19.8855H12.7973C12.6583 19.8824 12.5323 19.8014 12.4695 19.6747C12.4067 19.5481 12.4173 19.3964 12.4971 19.2802C13.0703 18.4453 13.4487 17.4876 13.6033 16.4803C13.6321 16.2941 13.7894 16.1569 13.9741 16.157H23.0744C24.0566 16.1561 24.8542 16.9671 24.8575 17.9699V18.0726C24.8526 19.0747 24.0559 19.8847 23.0744 19.8855ZM13.4802 19.1193H23.0744C23.6443 19.1185 24.1062 18.6469 24.107 18.0649V17.9623C24.1045 17.3822 23.6424 16.9139 23.0744 16.9156H14.2878C14.1339 17.689 13.8613 18.4327 13.4802 19.1193Z" fill="#92140C"/>
<path d="M23.1191 16.9855H14.2121C14.106 16.9857 14.005 16.9379 13.9352 16.8546C13.8654 16.7713 13.8336 16.6606 13.848 16.551C13.8942 16.215 13.9182 15.8761 13.92 15.5366C13.9183 14.9297 13.8393 14.3257 13.6851 13.7404C13.6542 13.6254 13.677 13.5019 13.7465 13.4069C13.816 13.3119 13.9242 13.2564 14.0389 13.2569H23.1206C24.0798 13.2569 24.8573 14.0673 24.8573 15.0669V15.174C24.8533 16.1727 24.0774 16.9813 23.1191 16.9855ZM14.6291 16.2205H23.1191C23.6769 16.2205 24.1292 15.7493 24.1292 15.1679V15.0669C24.1292 14.4898 23.6802 14.0219 23.1264 14.0219H14.5057C14.6038 14.5203 14.653 15.0279 14.6525 15.5366C14.6599 15.7554 14.6525 15.9819 14.6291 16.2205Z" fill="#92140C"/>
<path d="M23.1095 14.0857H14.0181C13.8535 14.0864 13.7088 13.9724 13.665 13.8074C13.3757 12.7567 12.8447 11.795 12.1177 11.0056C12.0148 10.8953 11.9855 10.7316 12.0432 10.5901C12.101 10.4486 12.2346 10.3569 12.3824 10.3572H23.1095C23.5736 10.3576 24.0185 10.5497 24.3462 10.8914C24.674 11.233 24.8577 11.6961 24.8569 12.1786V12.2735C24.8537 13.2747 24.0725 14.0849 23.1095 14.0857ZM14.2843 13.3211H23.1095C23.6681 13.3202 24.1207 12.8496 24.1215 12.2689V12.1786C24.1207 11.5979 23.6681 11.1273 23.1095 11.1264H13.1797C13.6642 11.7889 14.0395 12.5306 14.2902 13.3211H14.2843Z" fill="#92140C"/>
<path d="M23.0964 11.1857H12.2914C12.1902 11.1859 12.0933 11.1435 12.0232 11.0682C11.5945 10.6079 11.1035 10.2139 10.5654 9.89858C10.4775 9.84764 10.4142 9.76136 10.3905 9.66039C10.3672 9.56611 10.3557 9.46912 10.3565 9.37181V9.27104C10.3573 8.2696 11.1448 7.45798 12.1165 7.45714H23.0964C24.0681 7.45798 24.8557 8.2696 24.8565 9.27104V9.37181C24.8557 10.3733 24.0681 11.1849 23.0964 11.1857ZM12.4469 10.4223H23.0964C23.6593 10.4223 24.1157 9.95198 24.1157 9.37181V9.27104C24.1157 8.69088 23.6593 8.22056 23.0964 8.22056H12.1165C11.5539 8.2214 11.0981 8.69123 11.0972 9.27104V9.33975C11.5875 9.64364 12.0407 10.0071 12.4469 10.4223Z" fill="#92140C"/>
<path d="M23.3492 8.19555H12.2043C11.1837 8.19555 10.3564 7.38101 10.3564 6.37621C10.3564 5.37141 11.1837 4.55687 12.2043 4.55687H23.3492C24.3698 4.55687 25.1971 5.37141 25.1971 6.37621C25.1971 7.38101 24.3698 8.19555 23.3492 8.19555ZM12.2043 5.30311C11.6024 5.30311 11.1144 5.78355 11.1144 6.37621C11.1144 6.96887 11.6024 7.44931 12.2043 7.44931H23.3492C23.9512 7.44931 24.4392 6.96887 24.4392 6.37621C24.4392 5.78355 23.9512 5.30311 23.3492 5.30311H12.2043ZM30.4664 22.3712C30.2171 22.3697 29.9707 22.319 29.7418 22.222C29.2901 22.0336 28.9336 21.6751 28.7519 21.2265L24.5892 11.0477C24.3101 10.3652 24.476 9.5844 25.0095 9.06925C25.543 8.5541 26.3392 8.40602 27.0268 8.69404C27.4786 8.88154 27.8352 9.2396 28.0167 9.68804L32.1794 19.8668C32.5605 20.7987 32.1025 21.8583 31.1561 22.2339C30.9375 22.3234 30.7032 22.3701 30.4664 22.3712ZM26.3037 9.2985C25.9417 9.29936 25.6037 9.47662 25.4009 9.77186C25.1982 10.0671 25.157 10.442 25.2911 10.7731L29.4553 20.9519C29.5619 21.2167 29.7722 21.4281 30.0389 21.5384C30.4445 21.7087 30.9144 21.6216 31.2294 21.3178C31.5443 21.0139 31.6423 20.5531 31.4775 20.1504L27.3148 9.97162C27.1476 9.56614 26.7482 9.30025 26.3037 9.2985Z" fill="#92140C"/>
<path d="M28.306 5.57955C28.0995 5.57955 27.932 5.41077 27.932 5.20256C27.9312 4.07857 27.0276 3.1676 25.9127 3.16677C25.7062 3.16677 25.5388 2.99799 25.5388 2.78978C25.5388 2.58157 25.7062 2.41278 25.9127 2.41278C27.0276 2.41195 27.9312 1.50098 27.932 0.376997C27.932 0.168787 28.0995 0 28.306 0C28.5125 0 28.6799 0.168787 28.6799 0.376997C28.6816 1.50064 29.5847 2.41112 30.6992 2.41278C30.9057 2.41278 31.0732 2.58157 31.0732 2.78978C31.0732 2.99799 30.9057 3.16677 30.6992 3.16677C29.5847 3.16843 28.6816 4.07891 28.6799 5.20256C28.6803 5.30266 28.6411 5.39879 28.5708 5.46958C28.5006 5.54037 28.4053 5.57995 28.306 5.57955ZM27.3008 2.78978C27.7173 3.034 28.0637 3.38322 28.306 3.80314C28.5491 3.38389 28.8953 3.03488 29.3111 2.78978C28.8953 2.54467 28.5491 2.19566 28.306 1.77641C28.0637 2.19634 27.7173 2.54555 27.3008 2.78978ZM5.25454 29.0001C5.04802 29.0001 4.8806 28.8313 4.8806 28.6231C4.87895 27.4995 3.97584 26.589 2.8613 26.5873C2.65477 26.5873 2.48735 26.4185 2.48735 26.2103C2.48735 26.0021 2.65477 25.8333 2.8613 25.8333C3.97584 25.8317 4.87895 24.9212 4.8806 23.7975C4.8806 23.5893 5.04802 23.4205 5.25454 23.4205C5.46106 23.4205 5.62848 23.5893 5.62848 23.7975C5.63013 24.9212 6.53324 25.8317 7.64778 25.8333C7.85431 25.8333 8.02173 26.0021 8.02173 26.2103C8.02173 26.4185 7.85431 26.5873 7.64778 26.5873C6.53324 26.589 5.63013 27.4995 5.62848 28.6231C5.62848 28.7231 5.58909 28.819 5.51896 28.8897C5.44883 28.9604 5.35372 29.0001 5.25454 29.0001ZM4.24938 26.2103C4.66501 26.4537 5.01124 26.8012 5.25454 27.2192C5.49723 26.7996 5.84351 26.4505 6.2597 26.2058C5.84407 25.9624 5.49784 25.6149 5.25454 25.197C5.01185 25.6165 4.66557 25.9657 4.24938 26.2103Z" fill="#92140C"/>
<path fill-rule="evenodd" clip-rule="evenodd" d="M7.57918 22.4088C11.4013 22.4088 14.4997 19.3104 14.4997 15.4883C14.4997 11.6662 11.4013 8.56784 7.57918 8.56784C3.75711 8.56784 0.658705 11.6662 0.658705 15.4883C0.658705 19.3104 3.75711 22.4088 7.57918 22.4088ZM5.52847 15.5088L7.09918 18.2513H7.94686L6.35953 15.6334C6.80277 15.5725 7.15735 15.4312 7.42329 15.2096C7.69477 14.9824 7.84991 14.6666 7.88869 14.2622H8.96907V13.7303H7.87207C7.8222 13.3591 7.6643 13.0655 7.39836 12.8494H8.96907V12.3175H5.52847V12.8494H5.7113C6.13238 12.8494 6.45926 12.9186 6.69196 13.0572C6.9302 13.1957 7.07702 13.42 7.13242 13.7303H5.52847V14.2622H7.14073C7.10195 14.5946 6.96344 14.8245 6.7252 14.952C6.4925 15.0794 6.15454 15.1431 5.7113 15.1431H5.52847V15.5088Z" fill="#92140C"/>
</svg>
