<svg width="7" height="7" viewBox="0 0 7 7" fill="none" xmlns="http://www.w3.org/2000/svg">
<path d="M6.92553 2.77082C7.06763 3.44571 7.00547 4.14742 6.74692 4.78713C6.48837 5.42684 6.04505 5.97579 5.47307 6.36453C4.90108 6.75326 4.22615 6.9643 3.53367 6.97093C2.84119 6.97756 2.1623 6.77949 1.58291 6.40179C1.00352 6.02408 0.549684 5.48372 0.278824 4.84908C0.00796345 4.21445 -0.067738 3.51406 0.0612945 2.83657C0.190327 2.15907 0.518296 1.53492 1.0037 1.04309C1.4891 0.55127 2.11011 0.213884 2.78814 0.0736334C3.23767 -0.0199282 3.70131 -0.0243718 4.15257 0.0605566C4.60382 0.145485 5.03385 0.318121 5.41808 0.568599C5.8023 0.819078 6.1332 1.14249 6.39185 1.52036C6.65051 1.89822 6.83185 2.32313 6.92553 2.77082Z" fill="#FFE8DE"/>
<path d="M6.10927 2.942C6.21753 3.45633 6.17013 3.99108 5.97306 4.47857C5.776 4.96606 5.43812 5.38438 5.0022 5.68059C4.56628 5.97679 4.05191 6.13757 3.52419 6.14256C2.99647 6.14756 2.47912 5.99656 2.03762 5.70866C1.59613 5.42076 1.25032 5.00892 1.04398 4.52524C0.837641 4.04157 0.780035 3.50782 0.878458 2.99153C0.97688 2.47525 1.22691 1.99964 1.59689 1.62491C1.96688 1.25017 2.44019 0.993157 2.95692 0.886387C3.29947 0.815149 3.65275 0.811815 3.99658 0.876578C4.34042 0.94134 4.66807 1.07293 4.96082 1.26383C5.25357 1.45472 5.50567 1.70119 5.70272 1.98913C5.89978 2.27708 6.03792 2.60087 6.10927 2.942Z" fill="#FFD2C0"/>
<path d="M3.73836 2.04619C3.82995 1.98567 3.85602 1.86375 3.79661 1.77384C3.73724 1.68399 3.61482 1.66011 3.52323 1.72063L2.21 2.58841C2.11841 2.64893 2.09238 2.77091 2.15175 2.86076C2.21116 2.95067 2.33354 2.97449 2.42513 2.91397L2.80151 2.66525C2.95699 2.56215 3.15729 2.55786 3.31359 2.65427L2.57734 3.14079C2.48582 3.20126 2.45972 3.32329 2.51909 3.41314C2.5785 3.50305 2.70094 3.52682 2.79247 3.46635L3.52872 2.97983C3.55529 3.16142 3.47295 3.34353 3.31782 3.44659L2.94144 3.69531C2.87347 3.74031 2.83926 3.82147 2.85503 3.90012C2.8708 3.97876 2.93341 4.03916 3.01308 4.05256L4.52708 4.30325C4.57693 4.31123 4.62824 4.29989 4.6705 4.2716C4.71593 4.24121 4.7475 4.19422 4.75824 4.14118C4.76775 4.08995 4.7564 4.03743 4.72672 3.9952C4.69705 3.95297 4.65142 3.92447 4.59995 3.916L3.57272 3.74587C3.88363 3.51411 4.00778 3.1097 3.87802 2.75139L4.10517 2.60129C4.19676 2.54077 4.22283 2.41885 4.16342 2.32894C4.10401 2.23903 3.98163 2.21521 3.89004 2.27573L3.66289 2.42583C3.59002 2.35751 3.50533 2.30258 3.41281 2.26368L3.73945 2.04784L3.73836 2.04619Z" fill="#F38D5D"/>
<path d="M6.09088 2.85814C6.07532 2.85814 6.04072 2.7505 5.95683 2.56018C5.84043 2.29239 5.68287 2.04427 5.48982 1.82474C5.35658 1.67543 5.20754 1.54088 5.04529 1.42343C4.85819 1.29045 4.65474 1.18192 4.4399 1.1005C4.32463 1.05591 4.20609 1.0202 4.08532 0.99371C3.83016 0.936278 3.56777 0.917408 3.30696 0.937734C3.17007 0.948862 3.0342 0.970164 2.90049 1.00146C2.76703 1.0343 2.6361 1.0766 2.50871 1.12805C2.38546 1.17914 2.26633 1.2396 2.1524 1.3089C2.04188 1.37469 1.93689 1.44928 1.83846 1.53194C1.7431 1.61137 1.65378 1.69772 1.57123 1.79029C1.41755 1.96001 1.28646 2.14872 1.18119 2.35177C1.0897 2.52935 1.01834 2.71652 0.968436 2.90981C0.896828 3.19272 0.869696 3.48497 0.888007 3.77615C0.900979 3.98369 0.920872 4.09909 0.905305 4.10253C0.889737 4.10598 0.846497 3.99575 0.809309 3.78476C0.758814 3.48399 0.764969 3.17648 0.827467 2.87795C0.921536 2.42929 1.13002 2.01231 1.43285 1.66714C1.61156 1.46269 1.81964 1.28567 2.05035 1.14183C2.17251 1.06592 2.30064 0.999967 2.43347 0.944624C2.57041 0.888028 2.71151 0.841964 2.85552 0.806837C2.99997 0.772841 3.14686 0.750095 3.29486 0.738804C3.43876 0.727124 3.58337 0.727124 3.72728 0.738804C3.86549 0.750339 4.00257 0.7728 4.13721 0.805976C4.26642 0.836702 4.39306 0.877297 4.51601 0.9274C4.74194 1.02037 4.95429 1.14319 5.14734 1.29254C5.31416 1.42104 5.46512 1.56875 5.59706 1.73259C5.78966 1.97001 5.93629 2.241 6.02948 2.53176C6.09434 2.73672 6.10299 2.85556 6.09088 2.85814Z" fill="#F38D5D"/>
</svg>
