<svg width="39" height="39" viewBox="0 0 39 39" fill="none" xmlns="http://www.w3.org/2000/svg">
<circle cx="19.5" cy="19.5" r="19.5" fill="#FFEEE3"/>
<path d="M25.5837 30.0001C22.597 30.0001 20.167 27.5701 20.167 24.5834C20.167 21.5967 22.597 19.1667 25.5837 19.1667C28.5703 19.1667 31.0003 21.5967 31.0003 24.5834C31.0003 27.5701 28.5703 30.0001 25.5837 30.0001ZM25.5837 20.4167C23.2862 20.4167 21.417 22.2859 21.417 24.5834C21.417 26.8809 23.2862 28.7501 25.5837 28.7501C27.8812 28.7501 29.7503 26.8809 29.7503 24.5834C29.7503 22.2859 27.8812 20.4167 25.5837 20.4167Z" fill="#F0792E"/>
<path d="M27.3574 22.7834L28.2413 23.6673L25.0004 26.9082L24.1165 26.0244L27.3574 22.7834Z" fill="#F0792E"/>
<path d="M23.627 23.8313L25.8868 26.0911L25.012 26.9659L22.7522 24.7061L23.627 23.8313Z" fill="#F0792E"/>
<path d="M18.6583 27.5H13.2917C12.0275 27.5 11 26.4725 11 25.2083V12.2917C11 11.0275 12.0275 10 13.2917 10H22.875C24.1392 10 25.1667 11.0275 25.1667 12.2917V17.3667H23.9167V12.2917C23.9167 11.7175 23.4492 11.25 22.875 11.25H13.2917C12.7175 11.25 12.25 11.7175 12.25 12.2917V25.2083C12.25 25.7825 12.7175 26.25 13.2917 26.25H18.6583V27.5Z" fill="#F0792E"/>
<path d="M14.125 16.6667H22.0417V17.9167H14.125V16.6667Z" fill="#F0792E"/>
<path d="M14.125 20H18.7083V21.25H14.125V20Z" fill="#F0792E"/>
<path d="M14.125 13.3333H17.875V14.5833H14.125V13.3333Z" fill="#F0792E"/>
</svg>
