<svg width="8" height="8" viewBox="0 0 8 8" fill="none" xmlns="http://www.w3.org/2000/svg">
<path opacity="0.81" d="M3.32205 8.00006C3.27827 8.00025 3.23471 7.9938 3.19286 7.98092L2.39622 7.73203C2.31035 7.70485 2.23502 7.65171 2.18061 7.57991C2.12619 7.50812 2.09537 7.42122 2.09239 7.33118L2.07804 6.83459C1.88846 6.707 1.7125 6.56024 1.55293 6.39664L1.0637 6.47083C0.974257 6.48452 0.88278 6.46984 0.802112 6.42884C0.721444 6.38785 0.655638 6.32261 0.613938 6.24229L0.227576 5.50399C0.186159 5.42413 0.170479 5.33341 0.182687 5.24428C0.194896 5.15514 0.234395 5.07198 0.295759 5.00621L0.636665 4.64724C0.59328 4.42253 0.572445 4.19404 0.574466 3.96519L0.176142 3.67202C0.103686 3.6183 0.0496941 3.5434 0.0216247 3.45766C-0.00644474 3.37192 -0.00720579 3.27958 0.0194454 3.19339L0.268245 2.39766C0.295168 2.31139 0.348393 2.2357 0.420463 2.1812C0.492534 2.1267 0.579843 2.09611 0.670158 2.09373L1.16417 2.07937C1.29251 1.88997 1.43958 1.71399 1.60316 1.55407L1.529 1.06347C1.51491 0.974548 1.52902 0.883443 1.56936 0.802958C1.60969 0.722474 1.67422 0.656656 1.75388 0.614751L2.49191 0.228256C2.57212 0.18605 2.66356 0.170152 2.7533 0.182822C2.84304 0.195493 2.92651 0.236086 2.99191 0.298851L3.35076 0.637486C3.57481 0.592856 3.80294 0.571997 4.03137 0.575261L4.32563 0.176804C4.37898 0.103905 4.45383 0.0495732 4.53966 0.0214543C4.62549 -0.00666446 4.71797 -0.00715483 4.80409 0.0200521L5.60074 0.268936C5.6866 0.295735 5.76199 0.348619 5.81644 0.42024C5.87089 0.491861 5.90169 0.578666 5.90456 0.668598L5.91892 1.16518C6.10824 1.29356 6.28417 1.44069 6.44403 1.60433L6.93326 1.52894C7.02238 1.51542 7.1135 1.53005 7.19391 1.57081C7.27432 1.61156 7.34001 1.6764 7.38182 1.75629L7.76938 2.49578C7.8108 2.57563 7.82648 2.66636 7.81427 2.75549C7.80206 2.84462 7.76256 2.92779 7.7012 2.99356L7.36029 3.35253C7.40368 3.57684 7.42451 3.80493 7.42249 4.03339L7.82081 4.32775C7.89369 4.38112 7.948 4.456 7.97611 4.54186C8.00422 4.62772 8.00471 4.72023 7.97751 4.80639L7.73469 5.60331C7.70775 5.68911 7.65484 5.76443 7.58328 5.81888C7.51172 5.87332 7.42503 5.90419 7.33517 5.90724L6.83877 5.9216C6.71068 6.11082 6.56359 6.28643 6.39977 6.4457L6.47393 6.9363C6.48738 7.02531 6.47285 7.1163 6.43234 7.19668C6.39184 7.27707 6.32738 7.34288 6.24786 7.38502L5.50863 7.77272C5.42885 7.81432 5.33811 7.83011 5.24897 7.81789C5.15983 7.80567 5.07669 7.76605 5.01103 7.70451L4.65218 7.36349C4.42774 7.40525 4.19985 7.42568 3.97157 7.42451L3.66774 7.82417C3.62782 7.87842 3.57577 7.92258 3.51574 7.95312C3.45572 7.98366 3.38939 7.99974 3.32205 8.00006ZM2.84119 7.08228L3.20004 7.19476L3.60075 6.65152L3.80649 6.66588C4.09424 6.68723 4.38355 6.66136 4.66295 6.58929L4.8639 6.53664L5.35552 7.00092L5.69284 6.82502L5.59117 6.15613L5.74787 6.02092C5.96665 5.83249 6.15295 5.60934 6.2993 5.3604L6.40456 5.18211L7.08039 5.16177L7.19283 4.80279L6.64977 4.40194L6.66532 4.19493C6.68552 3.90702 6.65927 3.61774 6.58757 3.33818L6.53494 3.13715L6.99905 2.64535L6.82322 2.30911L6.15456 2.41082L6.01939 2.25407C5.83104 2.03521 5.60797 1.84885 5.35911 1.70245L5.18088 1.59595L5.16055 0.921076L4.8017 0.807399L4.40099 1.35184L4.19525 1.33629C3.90704 1.31604 3.61746 1.3423 3.3376 1.41407L3.13784 1.46552L2.64622 1.00244L2.3089 1.17834L2.41057 1.84723L2.25387 1.98245C2.03509 2.17087 1.84879 2.39402 1.70245 2.64296L1.59718 2.82125L0.921352 2.84039L0.808913 3.19937L1.35197 3.60023L1.33642 3.80604C1.31612 4.09395 1.34237 4.38325 1.41417 4.6628L1.4656 4.86382L1.00269 5.35562L1.17853 5.69305L1.84718 5.59135L1.98235 5.7481C2.1707 5.96696 2.39378 6.15332 2.64263 6.29972L2.82086 6.40502L2.84119 7.08228ZM4.00147 6.40622C3.6271 6.40527 3.25818 6.31644 2.92438 6.14688C2.59058 5.97733 2.30122 5.73177 2.07957 5.42996C1.85792 5.12816 1.71017 4.77853 1.6482 4.40919C1.58624 4.03986 1.61178 3.66113 1.72278 3.30347C1.85056 2.88863 2.08872 2.51637 2.41177 2.22655C2.48616 2.16022 2.58385 2.12617 2.68334 2.13189C2.78282 2.13762 2.87596 2.18264 2.94227 2.25706C3.00857 2.33148 3.04261 2.4292 3.03689 2.52872C3.03116 2.62824 2.98616 2.72142 2.91176 2.78774C2.64195 3.02853 2.45938 3.35188 2.39255 3.70735C2.32571 4.06282 2.37836 4.43042 2.54228 4.75282C2.70621 5.07521 2.97219 5.33427 3.29874 5.48958C3.62529 5.64489 3.99404 5.68772 4.34747 5.61138C4.7009 5.53504 5.01914 5.34383 5.25254 5.06758C5.48594 4.79134 5.62139 4.44558 5.63774 4.08424C5.6541 3.72291 5.55044 3.36633 5.34295 3.07011C5.13545 2.77389 4.83579 2.55469 4.4907 2.44672C4.37933 2.41219 4.26468 2.38933 4.1486 2.37851C4.0493 2.36947 3.95766 2.32134 3.89384 2.2447C3.83002 2.16807 3.79925 2.06921 3.80829 1.96988C3.81733 1.87055 3.86545 1.77888 3.94205 1.71504C4.01866 1.6512 4.11748 1.62041 4.21678 1.62945C4.38566 1.64509 4.55243 1.67838 4.71438 1.72877C5.25259 1.9056 5.71061 2.26774 6.00691 2.75074C6.3032 3.23374 6.41855 3.80625 6.33241 4.36635C6.24627 4.92646 5.96423 5.43781 5.53651 5.80938C5.10879 6.18095 4.56314 6.38863 3.99668 6.39545L4.00147 6.40622Z" fill="white"/>
</svg>
