<svg width="30" height="28" viewBox="0 0 30 28" fill="none" xmlns="http://www.w3.org/2000/svg">
<g clip-path="url(#clip0_7_76319)">
<path d="M14.7759 3.28028C15.254 3.28028 15.6416 3.64756 15.6416 4.10059C15.6416 4.55362 15.254 4.9209 14.7759 4.9209C11.9112 4.9209 9.58053 7.12886 9.58053 9.84279C9.58053 10.2958 9.19291 10.6631 8.71478 10.6631C8.23666 10.6631 7.84904 10.2958 7.84904 9.84279C7.84904 6.22422 10.9564 3.28028 14.7759 3.28028Z" fill="#92140C"/>
<path d="M17.0069 0.220732C20.9183 0.995164 24.0898 3.97148 24.9244 7.70069C25.629 10.8497 24.7607 14.0112 22.542 16.3745C21.4574 17.5297 20.8355 19.0545 20.8355 20.5623V22.203C20.8355 23.2945 20.0813 24.2219 19.0409 24.543C18.6988 26.4585 16.9442 27.9998 14.7753 27.9998C12.6069 27.9998 10.8519 26.459 10.5096 24.543C9.46921 24.2219 8.71503 23.2945 8.71503 22.2029V20.5623C8.71503 19.0515 8.091 17.545 6.95803 16.3202C5.2996 14.5276 4.38629 12.2274 4.38629 9.84356C4.38629 3.63297 10.3859 -1.08991 17.0069 0.220732ZM14.7753 26.3592C15.8882 26.3592 16.8639 25.6336 17.2242 24.6584H12.3264C12.6866 25.6336 13.6624 26.3592 14.7753 26.3592ZM10.4465 22.203C10.4465 22.6553 10.8349 23.0233 11.3123 23.0233H18.2383C18.7156 23.0233 19.104 22.6553 19.104 22.203V21.3827H10.4465V22.203ZM8.26011 15.2389C9.46754 16.5441 10.2104 18.118 10.3989 19.742H19.1514C19.3397 18.1171 20.0807 16.5278 21.2482 15.2841C23.0973 13.3145 23.8198 10.6744 23.2305 8.04101C22.5426 4.9668 19.8992 2.46949 16.6527 1.82674C11.1105 0.729327 6.11779 4.67296 6.11779 9.84356C6.11779 11.8294 6.87861 13.7455 8.26011 15.2389Z" fill="#92140C"/>
<path d="M26.9536 9.8428H28.6851C29.1633 9.8428 29.5509 10.2101 29.5509 10.6631C29.5509 11.1162 29.1633 11.4834 28.6851 11.4834H26.9536C26.4755 11.4834 26.0879 11.1162 26.0879 10.6631C26.0879 10.2101 26.4755 9.8428 26.9536 9.8428Z" fill="#92140C"/>
<path d="M26.5948 5.74163L27.8191 4.58154C28.1572 4.26118 28.7054 4.26118 29.0435 4.58154C29.3816 4.9019 29.3816 5.42127 29.0435 5.74163L27.8191 6.90172C27.4811 7.22208 26.9329 7.22214 26.5948 6.90172C26.2567 6.58136 26.2567 6.06199 26.5948 5.74163Z" fill="#92140C"/>
<path d="M26.5948 14.4253C26.9329 14.105 27.4811 14.105 27.8191 14.4253L29.0435 15.5854C29.3816 15.9058 29.3816 16.4251 29.0435 16.7455C28.7054 17.0659 28.1572 17.0659 27.8191 16.7455L26.5948 15.5854C26.2567 15.2651 26.2567 14.7457 26.5948 14.4253Z" fill="#92140C"/>
<path d="M0.865512 9.8428H2.597C3.07512 9.8428 3.46275 10.2101 3.46275 10.6631C3.46275 11.1162 3.07512 11.4834 2.597 11.4834H0.865512C0.38739 11.4834 -0.000233413 11.1162 -0.000233413 10.6631C-0.000233413 10.2101 0.38739 9.8428 0.865512 9.8428Z" fill="#92140C"/>
<path d="M0.506653 4.58154C0.844699 4.26118 1.39289 4.26118 1.731 4.58154L2.95534 5.74163C3.29344 6.06199 3.29344 6.58136 2.95534 6.90172C2.61729 7.22202 2.0691 7.22208 1.731 6.90172L0.506653 5.74163C0.168549 5.42127 0.168549 4.9019 0.506653 4.58154Z" fill="#92140C"/>
<path d="M0.506653 15.5854L1.731 14.4253C2.06904 14.105 2.61724 14.105 2.95534 14.4253C3.29344 14.7457 3.29344 15.2651 2.95534 15.5854L1.731 16.7455C1.39295 17.0658 0.844757 17.0659 0.506653 16.7455C0.168549 16.4252 0.168549 15.9058 0.506653 15.5854Z" fill="#92140C"/>
</g>
<defs>
<clipPath id="clip0_7_76319">
<rect width="29.2187" height="27.6854" fill="white" transform="matrix(-1.01137 0 0 1.01137 29.5509 0)"/>
</clipPath>
</defs>
</svg>
