<svg width="18" height="18" viewBox="0 0 18 18" fill="none" xmlns="http://www.w3.org/2000/svg">
<path d="M17.9945 8.68587C18.0566 10.4648 17.5898 12.2223 16.6531 13.7359C15.7164 15.2496 14.3519 16.4515 12.7321 17.1897C11.1123 17.9278 9.31001 18.1691 7.55311 17.8829C5.79621 17.5967 4.16363 16.796 2.86182 15.582C1.56 14.3679 0.647435 12.7951 0.239511 11.0625C-0.168413 9.32977 -0.0533699 7.51504 0.570093 5.84774C1.19356 4.18045 2.29744 2.73547 3.74214 1.69556C5.18684 0.65564 6.90747 0.0674833 8.68644 0.00546935C11.0718 -0.0776842 13.3926 0.790126 15.1381 2.418C16.8837 4.04588 17.9112 6.30048 17.9945 8.68587Z" fill="#20446C"/>
<g opacity="0.1">
<path opacity="0.1" d="M8.68581 0.00662676C6.30043 0.0899314 4.04584 1.11738 2.41797 2.86296C0.790111 4.60854 -0.0776836 6.92927 0.00546937 9.31466C0.00546937 9.31466 6.33938 9.378 7.77891 6.7782C9.21843 4.1784 8.68581 0.00662676 8.68581 0.00662676Z" fill="white"/>
</g>
<path d="M15.6877 8.62266C15.7353 9.97529 15.3807 11.3117 14.6686 12.4627C13.9565 13.6136 12.9189 14.5275 11.6873 15.0887C10.4556 15.6498 9.08513 15.8329 7.74934 15.6149C6.41355 15.3969 5.17245 14.7875 4.18311 13.8638C3.19377 12.9402 2.50066 11.7439 2.19148 10.4262C1.8823 9.10849 1.97096 7.72871 2.44624 6.46143C2.92151 5.19415 3.76204 4.09634 4.86145 3.30693C5.96086 2.51752 7.26975 2.07198 8.62246 2.02671C10.4336 1.9661 12.1948 2.62661 13.5194 3.86326C14.8441 5.0999 15.6239 6.81162 15.6877 8.62266Z" fill="#20446C"/>
<g opacity="0.2">
<path opacity="0.2" d="M15.6877 8.62266C15.7353 9.97529 15.3807 11.3117 14.6686 12.4627C13.9565 13.6136 12.9189 14.5275 11.6873 15.0887C10.4556 15.6498 9.08513 15.8329 7.74934 15.6149C6.41355 15.3969 5.17245 14.7875 4.18311 13.8638C3.19377 12.9402 2.50066 11.7439 2.19148 10.4262C1.8823 9.10849 1.97096 7.72871 2.44624 6.46143C2.92151 5.19415 3.76204 4.09634 4.86145 3.30693C5.96086 2.51752 7.26975 2.07198 8.62246 2.02671C10.4336 1.9661 12.1948 2.62661 13.5194 3.86326C14.8441 5.0999 15.6239 6.81162 15.6877 8.62266Z" fill="#20446C"/>
</g>
<path d="M15.8943 8.90174C15.9408 10.2356 15.5907 11.5532 14.8883 12.6881C14.1859 13.8229 13.1628 14.724 11.9483 15.2775C10.7339 15.8309 9.38258 16.0118 8.0653 15.7974C6.74803 15.5829 5.52392 14.9826 4.54777 14.0725C3.57162 13.1623 2.88724 11.9832 2.58119 10.6841C2.27513 9.38505 2.36112 8.02441 2.82831 6.77422C3.29549 5.52403 4.12289 4.44044 5.20587 3.66045C6.28885 2.88045 7.57878 2.43909 8.91259 2.39217C10.7015 2.32999 12.4419 2.98079 13.7512 4.20148C15.0604 5.42218 15.8313 7.11283 15.8943 8.90174Z" fill="#F0792E"/>
<path d="M10.9519 7.27101C11.1822 7.27101 11.3689 7.08698 11.3689 6.85992C11.3689 6.63301 11.1822 6.44882 10.9519 6.44882H7.64944C7.41912 6.44882 7.23246 6.63301 7.23246 6.85992C7.23246 7.08698 7.41912 7.27101 7.64944 7.27101H8.59596C8.98737 7.27037 9.34295 7.49551 9.50502 7.84655H7.65351C7.42336 7.84655 7.23653 8.03074 7.23653 8.25765C7.23653 8.48471 7.42336 8.66874 7.65351 8.66874H9.50502C9.34148 9.01882 8.98672 9.24332 8.59596 9.24428H7.64944C7.47841 9.24444 7.32465 9.34737 7.26129 9.50394C7.19793 9.66051 7.23767 9.83941 7.36163 9.95551L9.72181 12.1549C9.79984 12.2268 9.90278 12.2665 10.0095 12.2658C10.1241 12.2652 10.2338 12.2193 10.3139 12.1385C10.3898 12.0595 10.4307 11.954 10.4276 11.8453C10.4245 11.7366 10.3776 11.6335 10.2973 11.5588L8.69597 10.0665C9.50827 10.0202 10.1934 9.45352 10.3807 8.67292H10.9519C11.1822 8.67292 11.3689 8.48889 11.3689 8.26182C11.3689 8.03475 11.1822 7.85072 10.9519 7.85072H10.3807C10.3321 7.64598 10.2474 7.45103 10.1305 7.27519H10.9519V7.27101Z" fill="white"/>
<g opacity="0.2">
<path opacity="0.2" d="M15.8943 8.90174C15.9408 10.2356 15.5907 11.5532 14.8883 12.6881C14.1859 13.8229 13.1628 14.724 11.9483 15.2775C10.7339 15.8309 9.38258 16.0118 8.0653 15.7974C6.74803 15.5829 5.52392 14.9826 4.54777 14.0725C3.57162 13.1623 2.88724 11.9832 2.58119 10.6841C2.27513 9.38505 2.36112 8.02441 2.82831 6.77422C3.29549 5.52403 4.12289 4.44044 5.20587 3.66045C6.28885 2.88045 7.57878 2.43909 8.91259 2.39217C10.7015 2.32999 12.4419 2.98079 13.7512 4.20148C15.0604 5.42218 15.8313 7.11283 15.8943 8.90174Z" fill="white"/>
</g>
<path d="M9.26179 15.9525H9.31649L9.47772 15.9381L9.74259 15.9122C9.86256 15.9039 9.98182 15.8876 10.0996 15.8633L10.5458 15.7769C10.63 15.7612 10.7127 15.7391 10.7934 15.7107L11.0612 15.6301C11.1586 15.6053 11.2547 15.5755 11.3491 15.5408L11.637 15.4199C11.7378 15.3767 11.8443 15.3393 11.9451 15.2875L12.2618 15.1205C12.7272 14.8689 13.1628 14.5657 13.5602 14.2164L13.874 13.9141L14.0324 13.7587C14.0813 13.7011 14.1274 13.6435 14.1792 13.5859C14.2742 13.4679 14.3808 13.3556 14.4671 13.2289L14.7378 12.8402L14.8069 12.7395C14.8299 12.7078 14.8472 12.6704 14.8673 12.6358L14.9882 12.4228L15.1092 12.2068C15.1524 12.1349 15.1783 12.0543 15.2157 11.9794C15.2819 11.8239 15.3539 11.6713 15.4144 11.513L15.5784 11.0207C15.772 10.3265 15.8622 9.6077 15.8462 8.88728C15.8128 8.16698 15.6721 7.45569 15.4287 6.77692C15.3625 6.61569 15.2992 6.45446 15.233 6.29611C15.1668 6.13776 15.0775 5.99381 14.9998 5.8441C14.9634 5.76905 14.923 5.69601 14.8788 5.62529L14.7435 5.41799L14.6082 5.21358C14.5852 5.17903 14.565 5.14448 14.542 5.11281L14.4642 5.0178L14.1764 4.64928C14.0727 4.53124 13.9604 4.42471 13.8568 4.31531L13.6984 4.15408C13.6437 4.10226 13.5861 4.0562 13.5286 4.00725L13.1975 3.71934C12.7754 3.39848 12.3186 3.12613 11.8357 2.90744L11.5103 2.76349C11.4038 2.71743 11.2944 2.69152 11.1936 2.65409L10.8885 2.55332C10.7934 2.51877 10.6927 2.50725 10.6005 2.48134L10.327 2.42088C10.2439 2.39908 10.1592 2.38369 10.0737 2.37482L9.62455 2.32012C9.50534 2.30338 9.38504 2.29568 9.26467 2.29708H8.99979H8.83568H9.26467C9.38489 2.29349 9.50522 2.29927 9.62455 2.31436L10.0766 2.3633C10.1628 2.37231 10.2484 2.38674 10.3328 2.40649L10.6207 2.46695C10.7128 2.48998 10.8136 2.5015 10.9086 2.53605L11.2138 2.63393C11.3174 2.66848 11.4297 2.69727 11.5362 2.74334L11.8645 2.88441C12.3514 3.10285 12.8129 3.37416 13.2407 3.69343L13.5746 3.98134L13.7474 4.12817L13.9057 4.2894C14.0122 4.40168 14.1274 4.50821 14.2311 4.62625L14.519 4.99765L14.5967 5.09266L14.6658 5.19343L14.8011 5.40072L14.9393 5.60801C14.9882 5.67711 15.0199 5.75773 15.0631 5.8297C15.1408 5.97942 15.2243 6.11761 15.2992 6.2846C15.374 6.45158 15.4287 6.60705 15.495 6.77116C16.0081 8.14516 16.0606 9.64875 15.6447 11.0552L15.4834 11.5533C15.4201 11.7145 15.3452 11.8671 15.279 12.0226C15.2416 12.1003 15.2157 12.1809 15.1725 12.2529C15.1293 12.3249 15.089 12.3969 15.0487 12.4688L14.9278 12.6848C14.9076 12.7193 14.8875 12.7568 14.8644 12.7913L14.7953 12.8921L14.5074 13.2836C14.4124 13.4103 14.3059 13.5226 14.2195 13.6406L14.0698 13.8134L13.9115 13.9717L13.5948 14.2769C13.1914 14.6266 12.7501 14.9298 12.279 15.1809L11.9623 15.345C11.8587 15.3969 11.7522 15.4314 11.6485 15.4746L11.3606 15.5955C11.2662 15.6301 11.1701 15.6599 11.0727 15.6848L10.8021 15.7625C10.7203 15.79 10.6366 15.8112 10.5516 15.8258L10.1053 15.9065C9.98667 15.9295 9.86632 15.943 9.74547 15.9468L9.4806 15.9669H9.31649L9.26179 15.9525Z" fill="#263238"/>
<path d="M1.48832 13.4884C1.47131 13.4671 1.45682 13.4439 1.44514 13.4193L1.32709 13.2177C1.27815 13.1314 1.21769 13.022 1.15723 12.8895C1.09677 12.7571 1.01903 12.616 0.955695 12.4461L0.849172 12.1842C0.811744 12.092 0.782952 11.9941 0.748403 11.8962C0.673548 11.6947 0.618849 11.4759 0.552631 11.2427C0.430098 10.7383 0.346362 10.2253 0.302156 9.70816C0.26803 9.18924 0.274771 8.66844 0.322311 8.15058C0.351101 7.91449 0.37413 7.68705 0.417316 7.47975C0.437469 7.37323 0.451868 7.27246 0.4749 7.17457C0.497932 7.07668 0.520959 6.98743 0.541112 6.88667C0.581419 6.70816 0.633242 6.55269 0.676427 6.4145C0.709132 6.29623 0.748544 6.17992 0.794469 6.06613L0.880837 5.8502C0.8878 5.82387 0.898468 5.79867 0.912511 5.77534C0.908854 5.80289 0.902091 5.82993 0.892355 5.85596L0.820379 6.07477C0.785831 6.16978 0.748402 6.28782 0.710975 6.42601C0.673547 6.56421 0.624605 6.71392 0.587178 6.8953C0.567984 6.98551 0.547833 7.08148 0.52672 7.18321C0.503688 7.27822 0.492171 7.38187 0.472018 7.48551C0.431711 7.69281 0.411562 7.91737 0.38565 8.15345C0.340169 8.66763 0.33535 9.18459 0.37125 9.69952C0.412695 10.2136 0.493545 10.7237 0.613088 11.2254C0.676427 11.4557 0.731127 11.6746 0.800224 11.8761C0.834773 11.974 0.863571 12.0748 0.898119 12.164L0.998879 12.4289C1.06222 12.5987 1.1342 12.7427 1.19178 12.8751C1.24936 13.0076 1.30406 13.117 1.35012 13.2062L1.45665 13.4135C1.47125 13.4366 1.48196 13.4618 1.48832 13.4884Z" fill="white"/>
<path d="M9.22448 1.82798C9.15173 1.83549 9.07841 1.83549 9.00566 1.82798H8.74655C8.64866 1.82798 8.5335 1.82798 8.40682 1.82798C8.28014 1.82798 8.14483 1.84237 7.99512 1.85965C7.84541 1.87692 7.69282 1.89707 7.52871 1.92299C6.81548 2.04589 6.12519 2.27696 5.48169 2.60821C5.33486 2.68882 5.19379 2.7608 5.06999 2.84141C4.9502 2.90938 4.83393 2.98337 4.72162 3.0631C4.6151 3.1322 4.52585 3.20129 4.43372 3.26175C4.34159 3.32221 4.28688 3.37403 4.23218 3.4201C4.17742 3.46905 4.11868 3.51335 4.05656 3.55254C4.10587 3.49819 4.15877 3.44721 4.2149 3.39995C4.26673 3.351 4.33294 3.29342 4.41068 3.23296C4.48841 3.1725 4.57767 3.09477 4.68419 3.02279C4.79072 2.95081 4.90012 2.8702 5.02968 2.79247C5.15923 2.71473 5.29456 2.63412 5.44139 2.5535C5.76476 2.38482 6.10069 2.2414 6.44618 2.12452C6.7918 2.0091 7.14609 1.92149 7.50567 1.86253C7.67266 1.8395 7.83101 1.81358 7.98072 1.80494C8.13043 1.79631 8.26863 1.78479 8.3953 1.78191C8.52198 1.77904 8.63715 1.78191 8.73791 1.78191C8.83868 1.78191 8.92506 1.78191 8.99415 1.79919C9.07154 1.80303 9.14853 1.81265 9.22448 1.82798Z" fill="white"/>
<path d="M10.3938 17.49C10.3434 17.5132 10.2902 17.5297 10.2355 17.5389C10.1318 17.5677 9.97922 17.5994 9.79208 17.631C8.80231 17.7949 7.78797 17.7259 6.82951 17.4295C6.64813 17.3748 6.5013 17.3201 6.40342 17.2798C6.35137 17.2617 6.30122 17.2386 6.2537 17.2107C6.30797 17.2189 6.36111 17.2334 6.41205 17.2539C6.51282 17.2884 6.65965 17.3345 6.84391 17.3863C7.79978 17.6534 8.80034 17.721 9.78345 17.585C9.97347 17.5591 10.1261 17.5331 10.2297 17.513C10.2831 17.4981 10.3383 17.4903 10.3938 17.49Z" fill="white"/>
</svg>
