<svg width="30" height="31" viewBox="0 0 30 31" fill="none" xmlns="http://www.w3.org/2000/svg">
<path d="M13.4246 0.572994C14.2143 -0.191009 15.4677 -0.191008 16.2574 0.572995L18.1542 2.40792C18.6058 2.84481 19.2338 3.04885 19.8559 2.96085L22.469 2.59125C23.557 2.43736 24.5709 3.17406 24.7608 4.25635L25.2168 6.85573C25.3253 7.47463 25.7134 8.0088 26.2685 8.3033L28.5997 9.5402C29.5704 10.0552 29.9577 11.2472 29.4751 12.2344L28.3161 14.6053C28.0402 15.1699 28.0402 15.8301 28.3161 16.3947L29.4751 18.7656C29.9577 19.7528 29.5704 20.9448 28.5997 21.4598L26.2685 22.6967C25.7134 22.9912 25.3253 23.5254 25.2168 24.1443L24.7608 26.7436C24.5709 27.8259 23.557 28.5626 22.469 28.4088L19.8559 28.0392C19.2338 27.9512 18.6058 28.1552 18.1542 28.5921L16.2574 30.427C15.4677 31.191 14.2143 31.191 13.4246 30.427L11.5278 28.5921C11.0762 28.1552 10.4483 27.9512 9.8261 28.0392L7.21305 28.4088C6.12506 28.5626 5.11107 27.8259 4.92122 26.7436L4.46526 24.1443C4.35669 23.5254 3.96859 22.9912 3.41353 22.6967L1.08228 21.4598C0.111625 20.9448 -0.275682 19.7528 0.206883 18.7656L1.36587 16.3947C1.64182 15.8301 1.64182 15.1699 1.36587 14.6053L0.206882 12.2344C-0.275683 11.2472 0.111625 10.0552 1.08228 9.5402L3.41353 8.3033C3.96859 8.0088 4.35669 7.47463 4.46526 6.85572L4.92122 4.25635C5.11107 3.17406 6.12506 2.43736 7.21305 2.59125L9.8261 2.96085C10.4483 3.04885 11.0762 2.84481 11.5278 2.40792L13.4246 0.572994Z" fill="url(#paint0_linear_178_7253)"/>
<defs>
<linearGradient id="paint0_linear_178_7253" x1="2.30466" y1="1.71001" x2="28.0042" y2="29.29" gradientUnits="userSpaceOnUse">
<stop stop-color="#20446C"/>
<stop offset="1" stop-color="#5F8CBD"/>
</linearGradient>
</defs>
</svg>
