<svg width="53" height="53" viewBox="0 0 53 53" fill="none" xmlns="http://www.w3.org/2000/svg">
<path d="M16.9306 29.2487L16.5919 30.4854L14.4278 38.4796L13.9861 40.1138H9.9375V27.5999C14.7958 27.5999 16.9306 29.2487 16.9306 29.2487Z" fill="#F0792E"/>
<path d="M9.9375 27.5999V40.1138H13.25V27.8943C12.3284 27.7206 11.2375 27.5999 9.9375 27.5999Z" fill="#D5651F"/>
<path d="M43.0625 37.1695C43.0625 37.1695 32.3888 43.0584 27.9722 43.0584C24.4683 43.0584 17.2544 39.8048 14.4277 38.4798L16.5919 30.4856L30.7694 33.3859C32.1386 33.6656 33.125 34.8728 33.125 36.2714V36.9192C35.245 36.2567 37.468 35.3292 39.3819 35.3292C42.3263 35.3292 43.0625 37.1695 43.0625 37.1695Z" fill="white"/>
<path d="M17.7402 39.2159L19.9044 31.2217L31.3068 33.5537C31.1345 33.483 30.9564 33.4242 30.7694 33.3859L16.5919 30.4856L14.4277 38.4798C17.0615 39.715 23.5025 42.6211 27.2037 43.0113C23.7337 41.963 19.6924 40.1301 17.7402 39.2159Z" fill="#D5DBE1"/>
<path d="M14.4278 39.5822L13.6416 39.2627L14.3983 38.4854V37.3606L15.1845 37.6801L14.4278 38.4559V39.5822Z" fill="#434B53"/>
<path d="M7.91211 20.4272H9.38433V23.3717H7.91211V20.4272Z" fill="#A4AFC1"/>
<path d="M7.91211 11.9619H9.38433V14.9064H7.91211V11.9619Z" fill="#A4AFC1"/>
<path d="M11.5938 17.1147H14.5382V18.587H11.5938V17.1147Z" fill="#A4AFC1"/>
<path d="M3.12793 17.1147H6.07238V18.587H3.12793V17.1147Z" fill="#A4AFC1"/>
<path d="M22.0833 9.56949C20.8658 9.56949 19.875 8.57869 19.875 7.36116C19.875 6.14364 20.8658 5.15283 22.0833 5.15283C23.3009 5.15283 24.2917 6.14364 24.2917 7.36116C24.2917 8.57869 23.3009 9.56949 22.0833 9.56949ZM22.0833 6.62505C21.677 6.62505 21.3472 6.9563 21.3472 7.36116C21.3472 7.76602 21.677 8.09727 22.0833 8.09727C22.4897 8.09727 22.8194 7.76602 22.8194 7.36116C22.8194 6.9563 22.4897 6.62505 22.0833 6.62505Z" fill="#A4AFC1"/>
<path d="M35.9588 14.4838H35.8115L39.6761 11.5555C40.5168 10.921 40.0398 9.63867 38.9709 9.63867H28.4019C27.333 9.63867 26.856 10.9195 27.6967 11.5555L31.5612 14.4838H31.414C27.4817 16.6685 24.3105 22.8916 24.3105 27.4025C24.3105 30.6325 26.0154 33.8611 29.9933 33.8611H37.6651C41.643 33.8611 43.0637 30.6311 43.0637 27.4025C43.0622 22.8916 39.8911 16.6685 35.9588 14.4838Z" fill="#F0792E"/>
<path d="M27.623 27.4025C27.623 22.8916 30.7942 16.67 34.7265 14.4838H34.8737L31.0092 11.5555C30.1685 10.921 30.6455 9.63867 31.7144 9.63867H28.4019C27.333 9.63867 26.856 10.9195 27.6967 11.5555L31.5612 14.4838H31.414C27.4817 16.6685 24.3105 22.8916 24.3105 27.4025C24.3105 30.6325 26.0154 33.8611 29.9933 33.8611H33.3058C29.3264 33.8611 27.623 30.6311 27.623 27.4025Z" fill="#D5651F"/>
<path d="M43.9752 29.4445H41.7668V26.6767C41.7668 21.6992 37.9494 15.6203 33.4929 15.6203C33.4385 15.6203 33.3869 15.6159 33.3354 15.6086C28.9482 15.7646 25.2205 21.7639 25.2205 26.6767V26.8681H23.0122V26.6767C23.0122 20.676 27.6865 13.4135 33.4915 13.3973C33.5445 13.3929 33.6225 13.4032 33.6873 13.415C39.4967 13.5681 43.9766 20.6097 43.9766 26.6767V29.4445H43.9752Z" fill="#434B53"/>
<path d="M30.9071 15.3643L27.4592 12.6053C26.7481 12.0371 26.4802 11.1125 26.7834 10.2512C27.0838 9.39 27.867 8.8335 28.7783 8.8335H38.2108C39.1221 8.8335 39.9054 9.39 40.2057 10.2527C40.5075 11.114 40.2396 12.0385 39.527 12.6083L36.082 15.3658L34.7011 13.6388L37.9473 11.0418H29.0389L32.2866 13.6403L30.9071 15.3643Z" fill="#434B53"/>
<path d="M28.1685 13.3975H38.8171V15.6058H28.1685V13.3975Z" fill="#434B53"/>
<path d="M13.9863 41.2222H9.93766C9.32816 41.2222 8.8335 40.7276 8.8335 40.1181V27.6042C8.8335 26.9947 9.32816 26.5 9.93766 26.5C15.0978 26.5 17.5019 28.2917 17.6021 28.3682C17.9583 28.6406 18.1144 29.1014 17.9981 29.5343L15.0536 40.4081C14.9211 40.888 14.4854 41.2222 13.9863 41.2222ZM11.0418 39.0139H13.1412L15.6411 29.7816C14.8711 29.4179 13.365 28.8762 11.0404 28.7407V39.0139H11.0418Z" fill="#434B53"/>
<path d="M27.9722 44.1668C24.4242 44.1668 17.6505 41.2223 13.9272 39.4689L14.8695 37.4711C20.9188 40.3242 25.6947 41.9599 27.9722 41.9599C30.9579 41.9599 37.736 38.7357 41.287 36.8748C40.8777 36.6407 40.2682 36.439 39.382 36.439C38.0894 36.439 36.492 36.9705 34.9462 37.4873C33.234 38.0585 31.4629 38.6474 29.8125 38.6474C26.7091 38.6474 22.6148 37.1707 22.4426 37.1089L23.1964 35.0331C23.2346 35.0478 27.1007 36.439 29.8125 36.439C31.1051 36.439 32.7025 35.9076 34.2483 35.3908C35.9605 34.8196 37.7316 34.2307 39.382 34.2307C43.0316 34.2307 44.046 36.6614 44.0872 36.7659C44.2948 37.2841 44.0842 37.873 43.5955 38.1424C43.1494 38.3868 32.62 44.1668 27.9722 44.1668Z" fill="#434B53"/>
<path d="M34.2291 36.9382H32.0208V36.2757C32.0208 35.4041 31.4025 34.6459 30.5486 34.4722L16.3696 31.5689L16.8128 29.4062L30.9903 32.308C32.8659 32.6893 34.2277 34.3588 34.2277 36.2742V36.9382H34.2291Z" fill="#434B53"/>
</svg>
