<svg width="2" height="4" viewBox="0 0 2 4" fill="none" xmlns="http://www.w3.org/2000/svg">
<path opacity="0.81" d="M0.309104 3.99993C0.26237 3.99997 0.216235 3.9894 0.174178 3.96901C0.13212 3.94862 0.0952378 3.91896 0.0663052 3.88225C0.0373726 3.84553 0.0171457 3.80272 0.00714888 3.75705C-0.00284797 3.71138 -0.00235435 3.66404 0.00859244 3.61859L0.80439 0.254718C0.811744 0.213468 0.827409 0.174144 0.850431 0.13914C0.873453 0.104137 0.903349 0.0741844 0.938306 0.0511025C0.973263 0.0280205 1.01255 0.0122926 1.05377 0.00487492C1.095 -0.00254278 1.1373 -0.00148233 1.1781 0.00796695C1.21891 0.0174162 1.25737 0.0350678 1.29114 0.0598519C1.32491 0.084636 1.35329 0.11602 1.37455 0.15212C1.39582 0.18822 1.40952 0.228275 1.41482 0.269838C1.42013 0.311401 1.41693 0.353607 1.40541 0.393893L0.609615 3.75916C0.593949 3.82728 0.555753 3.88812 0.501212 3.93182C0.446672 3.97552 0.37898 3.99951 0.309104 3.99993Z" fill="white"/>
</svg>
