<svg width="1" height="7" viewBox="0 0 1 7" fill="none" xmlns="http://www.w3.org/2000/svg">
<path d="M0.19985 7.00012C0.146849 7.00012 0.0960114 6.97906 0.0585339 6.94157C0.0210564 6.90408 0 6.85323 0 6.80021V6.19939C0 6.14637 0.0210564 6.09552 0.0585339 6.05803C0.0960114 6.02054 0.146849 5.99948 0.19985 5.99948C0.252851 5.99948 0.303675 6.02054 0.341152 6.05803C0.37863 6.09552 0.399686 6.14637 0.399686 6.19939V6.80021C0.399686 6.82646 0.394519 6.85246 0.384476 6.87671C0.374433 6.90097 0.359709 6.923 0.341152 6.94157C0.322595 6.96013 0.300572 6.97486 0.276327 6.9849C0.252081 6.99495 0.226093 7.00012 0.19985 7.00012ZM0.19985 4.99993C0.146849 4.99993 0.0960114 4.97887 0.0585339 4.94138C0.0210564 4.90389 0 4.85304 0 4.80002V4.1992C0 4.14618 0.0210564 4.09533 0.0585339 4.05784C0.0960114 4.02035 0.146849 3.99929 0.19985 3.99929C0.252851 3.99929 0.303675 4.02035 0.341152 4.05784C0.37863 4.09533 0.399686 4.14618 0.399686 4.1992V4.80002C0.399686 4.82627 0.394519 4.85227 0.384476 4.87652C0.374433 4.90078 0.359709 4.92281 0.341152 4.94138C0.322595 4.95994 0.300572 4.97467 0.276327 4.98471C0.252081 4.99476 0.226093 4.99993 0.19985 4.99993ZM0.19985 2.99974C0.146849 2.99974 0.0960114 2.97868 0.0585339 2.94119C0.0210564 2.9037 0 2.85285 0 2.79983V2.19901C0 2.14599 0.0210564 2.09514 0.0585339 2.05765C0.0960114 2.02016 0.146849 1.9991 0.19985 1.9991C0.252851 1.9991 0.303675 2.02016 0.341152 2.05765C0.37863 2.09514 0.399686 2.14599 0.399686 2.19901V2.80311C0.398827 2.85556 0.377391 2.90557 0.340006 2.94235C0.302621 2.97913 0.252288 2.99974 0.19985 2.99974ZM0.19985 0.999548C0.146849 0.999548 0.0960114 0.978488 0.0585339 0.940997C0.0210564 0.903507 0 0.852659 0 0.79964V0.199912C0 0.146892 0.0210564 0.0960443 0.0585339 0.058554C0.0960114 0.0210636 0.146849 0 0.19985 0C0.252851 0 0.303675 0.0210636 0.341152 0.058554C0.37863 0.0960443 0.399686 0.146892 0.399686 0.199912V0.79964C0.399686 0.825892 0.394519 0.851889 0.384476 0.876143C0.374433 0.900397 0.359709 0.922434 0.341152 0.940997C0.322595 0.959561 0.300572 0.974286 0.276327 0.984333C0.252081 0.994379 0.226093 0.999548 0.19985 0.999548Z" fill="#90B9E7"/>
</svg>
