<svg width="16" height="16" viewBox="0 0 16 16" fill="none" xmlns="http://www.w3.org/2000/svg">
<path d="M15.9947 7.72058C16.0499 9.30185 15.635 10.864 14.8024 12.2094C13.9698 13.5549 12.7569 14.6232 11.3171 15.2793C9.87737 15.9354 8.27536 16.1499 6.71371 15.8955C5.15206 15.6412 3.70091 14.9294 2.54377 13.8503C1.38664 12.7712 0.575484 11.3732 0.212894 9.83305C-0.149696 8.29293 -0.0474388 6.67987 0.506737 5.19787C1.06091 3.71586 2.04211 2.43147 3.32626 1.50713C4.61041 0.582777 6.13982 0.0599837 7.72109 0.00486153C9.84139 -0.0690509 11.9042 0.702317 13.4558 2.14928C15.0074 3.59625 15.9207 5.60029 15.9947 7.72058Z" fill="#20446C"/>
<g opacity="0.1">
<path opacity="0.1" d="M7.72053 0.00554715C5.60025 0.0795939 3.59621 0.992859 2.14926 2.54445C0.702304 4.09603 -0.0690504 6.15885 0.00486154 8.27915C0.00486154 8.27915 5.63487 8.33545 6.91441 6.02458C8.19396 3.7137 7.72053 0.00554715 7.72053 0.00554715Z" fill="white"/>
</g>
<path d="M13.9443 7.66411C13.9867 8.86641 13.6714 10.0543 13.0385 11.0774C12.4055 12.1004 11.4832 12.9128 10.3884 13.4115C9.29365 13.9103 8.0755 14.0731 6.88816 13.8793C5.70082 13.6855 4.59765 13.1438 3.71826 12.3228C2.83887 11.5018 2.22278 10.4384 1.94796 9.2672C1.67314 8.09595 1.75195 6.8695 2.17441 5.74306C2.59686 4.61662 3.34398 3.64081 4.32121 2.93913C5.29844 2.23745 6.46187 1.84143 7.66425 1.80119C9.27412 1.74731 10.8396 2.33442 12.017 3.43363C13.1944 4.53284 13.8876 6.05433 13.9443 7.66411Z" fill="#20446C"/>
<g opacity="0.2">
<path opacity="0.2" d="M13.9443 7.66411C13.9867 8.86641 13.6714 10.0543 13.0385 11.0774C12.4055 12.1004 11.4832 12.9128 10.3884 13.4115C9.29365 13.9103 8.0755 14.0731 6.88816 13.8793C5.70082 13.6855 4.59765 13.1438 3.71826 12.3228C2.83887 11.5018 2.22278 10.4384 1.94796 9.2672C1.67314 8.09595 1.75195 6.8695 2.17441 5.74306C2.59686 4.61662 3.34398 3.64081 4.32121 2.93913C5.29844 2.23745 6.46187 1.84143 7.66425 1.80119C9.27412 1.74731 10.8396 2.33442 12.017 3.43363C13.1944 4.53284 13.8876 6.05433 13.9443 7.66411Z" fill="#20446C"/>
</g>
<path d="M14.1266 7.91232C14.1679 9.0979 13.8567 10.2691 13.2324 11.2779C12.608 12.2866 11.6986 13.0876 10.6191 13.5795C9.53965 14.0714 8.33853 14.2322 7.16764 14.0416C5.99676 13.8509 4.90869 13.3174 4.04102 12.5084C3.17335 11.6994 2.56503 10.6513 2.29299 9.4966C2.02095 8.34191 2.09738 7.13248 2.51265 6.02123C2.92791 4.90998 3.66336 3.94681 4.62598 3.2535C5.58861 2.56019 6.73519 2.16788 7.92076 2.12617C9.51089 2.0709 11.0579 2.64938 12.2216 3.73441C13.3854 4.81944 14.0706 6.32221 14.1266 7.91232Z" fill="#F0792E"/>
<path d="M9.73357 6.46304C9.93829 6.46304 10.1042 6.29947 10.1042 6.09763C10.1042 5.89594 9.93829 5.73222 9.73357 5.73222H6.79811C6.59339 5.73222 6.42747 5.89594 6.42747 6.09763C6.42747 6.29947 6.59339 6.46304 6.79811 6.46304H7.63944C7.98735 6.46247 8.30341 6.66259 8.44747 6.97462H6.80173C6.59715 6.97462 6.43109 7.13834 6.43109 7.34003C6.43109 7.54186 6.59715 7.70544 6.80173 7.70544H8.44747C8.30211 8.01661 7.98677 8.21616 7.63944 8.21702H6.79811C6.64609 8.21716 6.50941 8.30865 6.45309 8.44782C6.39677 8.58699 6.4321 8.746 6.54228 8.8492L8.64017 10.8041C8.70952 10.8681 8.80103 10.9034 8.89586 10.9028C8.99778 10.9022 9.09522 10.8614 9.16646 10.7896C9.23392 10.7194 9.27026 10.6256 9.26751 10.5289C9.26476 10.4323 9.22307 10.3407 9.15169 10.2743L7.72833 8.94784C8.45036 8.90673 9.05932 8.403 9.22582 7.70915H9.73357C9.93829 7.70915 10.1042 7.54557 10.1042 7.34374C10.1042 7.14191 9.93829 6.97833 9.73357 6.97833H9.22582C9.18267 6.79634 9.10738 6.62305 9.00343 6.46676H9.73357V6.46304Z" fill="white"/>
<g opacity="0.2">
<path opacity="0.2" d="M14.1266 7.91232C14.1679 9.0979 13.8567 10.2691 13.2324 11.2779C12.608 12.2866 11.6986 13.0876 10.6191 13.5795C9.53965 14.0714 8.33853 14.2322 7.16764 14.0416C5.99676 13.8509 4.90869 13.3174 4.04102 12.5084C3.17335 11.6994 2.56503 10.6513 2.29299 9.4966C2.02095 8.34191 2.09738 7.13248 2.51265 6.02123C2.92791 4.90998 3.66336 3.94681 4.62598 3.2535C5.58861 2.56019 6.73519 2.16788 7.92076 2.12617C9.51089 2.0709 11.0579 2.64938 12.2216 3.73441C13.3854 4.81944 14.0706 6.32221 14.1266 7.91232Z" fill="white"/>
</g>
<path d="M8.23352 14.1796H8.28214L8.42545 14.1668L8.66089 14.1438C8.76752 14.1364 8.87353 14.1219 8.97822 14.1003L9.37487 14.0235C9.44964 14.0096 9.52322 13.9899 9.59496 13.9647L9.83296 13.893C9.91956 13.871 10.005 13.8445 10.0889 13.8137L10.3448 13.7062C10.4343 13.6678 10.529 13.6345 10.6186 13.5885L10.9001 13.44C11.3138 13.2165 11.701 12.9469 12.0543 12.6365L12.3332 12.3678L12.474 12.2296C12.5175 12.1784 12.5584 12.1272 12.6045 12.076C12.6889 11.9711 12.7836 11.8713 12.8604 11.7587L13.1009 11.4132L13.1623 11.3237C13.1828 11.2955 13.1982 11.2622 13.2161 11.2315L13.3236 11.0422L13.4311 10.8502C13.4695 10.7863 13.4925 10.7146 13.5258 10.6481C13.5846 10.5099 13.6486 10.3742 13.7023 10.2335L13.8482 9.79588C14.0202 9.17889 14.1004 8.53993 14.0862 7.89957C14.0565 7.25932 13.9314 6.62708 13.7151 6.02374C13.6563 5.88043 13.6 5.73712 13.5411 5.59637C13.4822 5.45562 13.4029 5.32767 13.3338 5.19459C13.3015 5.12788 13.2656 5.06296 13.2263 5.0001L13.1061 4.81584L12.9858 4.63415C12.9653 4.60344 12.9474 4.57273 12.9269 4.54458L12.8578 4.46012L12.6019 4.13256C12.5098 4.02764 12.41 3.93295 12.3178 3.8357L12.1771 3.69239C12.1285 3.64633 12.0773 3.60538 12.0261 3.56188L11.7318 3.30597C11.3567 3.02076 10.9506 2.77867 10.5214 2.5843L10.2322 2.45634C10.1375 2.41539 10.0402 2.39236 9.95067 2.3591L9.67941 2.26953C9.59496 2.23882 9.50539 2.22858 9.4235 2.20555L9.18039 2.1518C9.10648 2.13243 9.03119 2.11874 8.95519 2.11086L8.55597 2.06224C8.45 2.04737 8.34307 2.04052 8.23608 2.04176H8.00064H7.85477H8.23608C8.34294 2.03857 8.4499 2.04371 8.55597 2.05712L8.95774 2.10062C9.03439 2.10864 9.11046 2.12146 9.1855 2.13901L9.44141 2.19275C9.52331 2.21322 9.61287 2.22346 9.69732 2.25417L9.96859 2.34118C10.0607 2.37189 10.1605 2.39748 10.2552 2.43843L10.5469 2.56382C10.9798 2.75798 11.39 2.99914 11.7702 3.28294L12.0671 3.53885L12.2206 3.66936L12.3614 3.81267C12.456 3.91248 12.5584 4.00716 12.6505 4.11209L12.9064 4.44221L12.9755 4.52666L13.037 4.61623L13.1572 4.80049L13.2801 4.98474C13.3236 5.04616 13.3517 5.11782 13.3901 5.1818C13.4592 5.31487 13.5334 5.43771 13.6 5.58614C13.6665 5.73456 13.7151 5.87275 13.774 6.01862C14.2301 7.23993 14.2768 8.57642 13.9071 9.82658L13.7637 10.2693C13.7074 10.4126 13.6409 10.5483 13.582 10.6864C13.5488 10.7555 13.5257 10.8272 13.4874 10.8912C13.449 10.9552 13.4131 11.0191 13.3773 11.0831L13.2698 11.275C13.2519 11.3058 13.234 11.339 13.2135 11.3697L13.1521 11.4593L12.8962 11.8073C12.8118 11.9199 12.7171 12.0197 12.6403 12.1247L12.5072 12.2782L12.3665 12.419L12.085 12.6902C11.7265 13.001 11.3342 13.2706 10.9155 13.4938L10.634 13.6397C10.5418 13.6857 10.4471 13.7164 10.355 13.7548L10.0991 13.8623C10.0152 13.893 9.92978 13.9195 9.8432 13.9416L9.60264 14.0107C9.52998 14.0352 9.45555 14.054 9.38 14.067L8.98333 14.1387C8.87784 14.1592 8.77086 14.1712 8.66344 14.1745L8.42801 14.1924H8.28214L8.23352 14.1796Z" fill="#263238"/>
<path d="M1.32448 11.989C1.30936 11.9701 1.29648 11.9495 1.28609 11.9276L1.18117 11.7484C1.13767 11.6717 1.08393 11.5744 1.03018 11.4567C0.976444 11.339 0.907345 11.2136 0.851046 11.0626L0.756361 10.8297C0.723093 10.7478 0.6975 10.6608 0.666791 10.5738C0.600255 10.3947 0.551634 10.2002 0.492775 9.99288C0.38386 9.54456 0.30943 9.08856 0.270136 8.62888C0.239803 8.16763 0.245795 7.70471 0.288052 7.2444C0.313643 7.03455 0.334112 6.83238 0.372498 6.64812C0.390412 6.55344 0.40321 6.46387 0.423683 6.37686C0.444156 6.28985 0.464623 6.21052 0.482537 6.12095C0.518364 5.96228 0.564428 5.82409 0.602814 5.70125C0.631884 5.59613 0.666916 5.49274 0.707737 5.3916L0.784507 5.19967C0.790697 5.17627 0.800178 5.15387 0.812661 5.13313C0.80941 5.15762 0.803399 5.18165 0.794745 5.20479L0.730768 5.39928C0.700059 5.48373 0.66679 5.58865 0.633522 5.71149C0.600254 5.83433 0.556751 5.9674 0.523483 6.12863C0.506423 6.20881 0.488511 6.29411 0.469745 6.38454C0.449272 6.46899 0.439035 6.56112 0.421121 6.65324C0.385294 6.8375 0.367384 7.03711 0.344352 7.24696C0.303925 7.70399 0.299642 8.1635 0.331552 8.6212C0.368391 9.07814 0.440256 9.53158 0.546514 9.97753C0.602814 10.1823 0.651435 10.3767 0.712853 10.5559C0.743562 10.6429 0.76916 10.7325 0.799869 10.8118L0.88943 11.0472C0.94573 11.1982 1.00971 11.3262 1.06089 11.4439C1.11207 11.5616 1.16069 11.6589 1.20164 11.7382L1.29632 11.9225C1.30931 11.9429 1.31882 11.9654 1.32448 11.989Z" fill="white"/>
<path d="M8.19823 1.62453C8.13357 1.63121 8.06839 1.63121 8.00374 1.62453H7.77342C7.68641 1.62453 7.58405 1.62453 7.47145 1.62453C7.35884 1.62453 7.23857 1.63733 7.10549 1.65268C6.97242 1.66804 6.83679 1.68595 6.69092 1.70898C6.05695 1.81823 5.44337 2.02362 4.87139 2.31805C4.74088 2.38971 4.61548 2.45368 4.50544 2.52534C4.39897 2.58576 4.29562 2.65153 4.19579 2.72239C4.10111 2.78381 4.02177 2.84523 3.93988 2.89897C3.85799 2.95271 3.80936 2.99877 3.76074 3.03972C3.71207 3.08323 3.65986 3.1226 3.60464 3.15744C3.64847 3.10913 3.69549 3.06382 3.74539 3.0218C3.79145 2.9783 3.85031 2.92712 3.9194 2.87338C3.9885 2.81964 4.06784 2.75054 4.16252 2.68656C4.25721 2.62258 4.35445 2.55093 4.46961 2.48183C4.58477 2.41274 4.70505 2.34108 4.83557 2.26943C5.123 2.11949 5.4216 1.99201 5.72869 1.88812C6.03591 1.78552 6.35082 1.70765 6.67044 1.65524C6.81887 1.63477 6.95962 1.61173 7.09269 1.60406C7.22577 1.59638 7.34861 1.58615 7.46121 1.58359C7.57381 1.58103 7.67617 1.58359 7.76574 1.58359C7.85531 1.58359 7.93209 1.58359 7.9935 1.59894C8.06229 1.60236 8.13072 1.61091 8.19823 1.62453Z" fill="white"/>
<path d="M9.23724 15.5463C9.19246 15.5669 9.14513 15.5816 9.0965 15.5898C9.00437 15.6154 8.86873 15.6435 8.70239 15.6717C7.82262 15.8173 6.921 15.756 6.06906 15.4925C5.90784 15.4439 5.77733 15.3953 5.69032 15.3595C5.64405 15.3434 5.59947 15.3228 5.55724 15.298C5.60547 15.3054 5.65271 15.3183 5.69799 15.3364C5.78756 15.3671 5.91808 15.4081 6.08186 15.4541C6.93149 15.6915 7.82087 15.7516 8.69471 15.6307C8.86362 15.6077 8.99925 15.5847 9.09137 15.5667C9.13888 15.5535 9.18793 15.5466 9.23724 15.5463Z" fill="white"/>
</svg>
