<svg width="22" height="22" viewBox="0 0 22 22" fill="none" xmlns="http://www.w3.org/2000/svg">
<path d="M21.9935 10.5711C22.0694 12.7362 21.4989 14.8751 20.354 16.7173C19.2091 18.5595 17.5414 20.0223 15.5616 20.9206C13.5819 21.819 11.379 22.1126 9.23168 21.7643C7.08433 21.416 5.08893 20.4415 3.49781 18.964C1.90669 17.4865 0.791318 15.5723 0.292739 13.4635C-0.20584 11.3548 -0.0652306 9.14616 0.696788 7.11698C1.45881 5.0878 2.80801 3.3292 4.57377 2.06357C6.33953 0.797944 8.44255 0.0821303 10.6169 0.00665646C13.5324 -0.0945453 16.3689 0.96162 18.5024 2.94282C20.6359 4.92402 21.8917 7.66798 21.9935 10.5711Z" fill="#20446C"/>
<g opacity="0.1">
<path opacity="0.1" d="M10.6161 0.00806237C7.70061 0.109448 4.94497 1.3599 2.95533 3.48435C0.965702 5.6088 -0.0949476 8.43324 0.00668485 11.3364C0.00668485 11.3364 7.74821 11.4135 9.50765 8.24938C11.2671 5.08531 10.6161 0.00806237 10.6161 0.00806237Z" fill="white"/>
</g>
<path d="M19.1754 10.4942C19.2336 12.1404 18.8002 13.7668 17.9298 15.1676C17.0594 16.5685 15.7913 17.6807 14.2859 18.3636C12.7805 19.0465 11.1055 19.2694 9.47286 19.0041C7.8402 18.7387 6.32329 17.9971 5.11409 16.873C3.90488 15.7489 3.05773 14.2928 2.67984 12.6892C2.30196 11.0855 2.41032 9.40621 2.99122 7.86387C3.57211 6.32154 4.59944 4.98545 5.94318 4.0247C7.28692 3.06395 8.88668 2.52172 10.54 2.46662C12.7537 2.39285 14.9063 3.19672 16.5253 4.70178C18.1443 6.20683 19.0974 8.29007 19.1754 10.4942Z" fill="#20446C"/>
<g opacity="0.2">
<path opacity="0.2" d="M19.1754 10.4942C19.2336 12.1404 18.8002 13.7668 17.9298 15.1676C17.0594 16.5685 15.7913 17.6807 14.2859 18.3636C12.7805 19.0465 11.1055 19.2694 9.47286 19.0041C7.8402 18.7387 6.32329 17.9971 5.11409 16.873C3.90488 15.7489 3.05773 14.2928 2.67984 12.6892C2.30196 11.0855 2.41032 9.40621 2.99122 7.86387C3.57211 6.32154 4.59944 4.98545 5.94318 4.0247C7.28692 3.06395 8.88668 2.52172 10.54 2.46662C12.7537 2.39285 14.9063 3.19672 16.5253 4.70178C18.1443 6.20683 19.0974 8.29007 19.1754 10.4942Z" fill="#20446C"/>
</g>
<path d="M19.4292 10.834C19.486 12.4574 19.0581 14.061 18.1996 15.4422C17.3411 16.8233 16.0907 17.92 14.6063 18.5936C13.1219 19.2672 11.4703 19.4874 9.86033 19.2263C8.2503 18.9653 6.75416 18.2347 5.56107 17.127C4.36798 16.0193 3.53152 14.5843 3.15745 13.0033C2.78337 11.4222 2.88848 9.76627 3.45949 8.24473C4.03049 6.72319 5.04176 5.40441 6.36542 4.45512C7.68908 3.50584 9.26568 2.96868 10.8959 2.91157C13.0824 2.8359 15.2096 3.62795 16.8098 5.11359C18.41 6.59923 19.3522 8.65684 19.4292 10.834Z" fill="#F0792E"/>
<path d="M13.3855 8.84948C13.667 8.84948 13.8952 8.62551 13.8952 8.34916C13.8952 8.073 13.667 7.84884 13.3855 7.84884H9.34912C9.06761 7.84884 8.83946 8.073 8.83946 8.34916C8.83946 8.62551 9.06761 8.84948 9.34912 8.84948H10.506C10.9844 8.8487 11.419 9.12271 11.6171 9.54994H9.35409C9.07279 9.54994 8.84444 9.77411 8.84444 10.0503C8.84444 10.3266 9.07279 10.5506 9.35409 10.5506H11.6171C11.4172 10.9766 10.9836 11.2499 10.506 11.251H9.34912C9.14008 11.2512 8.95214 11.3765 8.8747 11.5671C8.79726 11.7576 8.84583 11.9753 8.99734 12.1166L11.882 14.7934C11.9774 14.8809 12.1032 14.9292 12.2336 14.9284C12.3738 14.9276 12.5078 14.8717 12.6057 14.7734C12.6985 14.6773 12.7484 14.5489 12.7447 14.4166C12.7409 14.2843 12.6835 14.1588 12.5854 14.0679L10.6282 12.2517C11.621 12.1954 12.4584 11.5057 12.6873 10.5557H13.3855C13.667 10.5557 13.8952 10.3317 13.8952 10.0553C13.8952 9.77899 13.667 9.55502 13.3855 9.55502H12.6873C12.628 9.30583 12.5245 9.06857 12.3815 8.85457H13.3855V8.84948Z" fill="white"/>
<g opacity="0.2">
<path opacity="0.2" d="M19.4292 10.834C19.486 12.4574 19.0581 14.061 18.1996 15.4422C17.3411 16.8233 16.0907 17.92 14.6063 18.5936C13.1219 19.2672 11.4703 19.4874 9.86033 19.2263C8.2503 18.9653 6.75416 18.2347 5.56107 17.127C4.36798 16.0193 3.53152 14.5843 3.15745 13.0033C2.78337 11.4222 2.88848 9.76627 3.45949 8.24473C4.03049 6.72319 5.04176 5.40441 6.36542 4.45512C7.68908 3.50584 9.26568 2.96868 10.8959 2.91157C13.0824 2.8359 15.2096 3.62795 16.8098 5.11359C18.41 6.59923 19.3522 8.65684 19.4292 10.834Z" fill="white"/>
</g>
<path d="M11.3214 19.415H11.3883L11.5854 19.3975L11.9091 19.366C12.0557 19.3559 12.2015 19.336 12.3454 19.3064L12.8909 19.2013C12.9937 19.1822 13.0948 19.1553 13.1935 19.1207L13.5207 19.0226C13.6398 18.9924 13.7573 18.9561 13.8726 18.914L14.2245 18.7668C14.3477 18.7142 14.4779 18.6687 14.601 18.6056L14.9881 18.4024C15.557 18.0963 16.0894 17.7272 16.5751 17.3021L16.9587 16.9342L17.1522 16.745C17.2121 16.6749 17.2684 16.6048 17.3317 16.5348C17.4478 16.3911 17.578 16.2544 17.6836 16.1003L18.0144 15.6272L18.0988 15.5046C18.127 15.4661 18.1481 15.4205 18.1727 15.3785L18.3205 15.1192L18.4683 14.8564C18.5211 14.7688 18.5528 14.6707 18.5985 14.5796C18.6795 14.3903 18.7674 14.2046 18.8413 14.0119L19.0419 13.4127C19.2784 12.5679 19.3887 11.6931 19.3692 10.8163C19.3283 9.93966 19.1563 9.07399 18.8589 8.24789C18.778 8.05167 18.7006 7.85545 18.6196 7.66273C18.5387 7.47001 18.4296 7.29481 18.3346 7.11261C18.2902 7.02127 18.2408 6.93237 18.1868 6.8463L18.0214 6.59402L17.856 6.34524C17.8279 6.30319 17.8032 6.26114 17.7751 6.2226L17.6801 6.10697L17.3282 5.65846C17.2015 5.5148 17.0643 5.38515 16.9376 5.252L16.7441 5.05578C16.6772 4.99271 16.6068 4.93664 16.5364 4.87708L16.1318 4.52668C15.6159 4.13617 15.0576 3.80471 14.4673 3.53856L14.0697 3.36336C13.9395 3.3073 13.8058 3.27577 13.6826 3.23021L13.3096 3.10757C13.1935 3.06553 13.0703 3.05151 12.9577 3.01997L12.6234 2.94639C12.5218 2.91986 12.4183 2.90112 12.3138 2.89033L11.7648 2.82375C11.6191 2.80339 11.4721 2.79402 11.325 2.79572H11.0012H10.8006H11.325C11.4719 2.79135 11.619 2.79838 11.7648 2.81674L12.3173 2.87631C12.4227 2.88728 12.5273 2.90484 12.6305 2.92887L12.9824 3.00245C13.095 3.03049 13.2181 3.0445 13.3342 3.08655L13.7072 3.20568C13.8339 3.24773 13.9712 3.28277 14.1014 3.33884L14.5025 3.51053C15.0977 3.77638 15.6618 4.10657 16.1846 4.49515L16.5927 4.84554L16.8039 5.02424L16.9974 5.22046C17.1276 5.35712 17.2684 5.48676 17.3951 5.63043L17.7469 6.08244L17.8419 6.19807L17.9264 6.32071L18.0918 6.57299L18.2607 6.82528C18.3205 6.90938 18.3592 7.00749 18.412 7.09509C18.507 7.27729 18.6091 7.44548 18.7006 7.64871C18.792 7.85194 18.8589 8.04115 18.9398 8.24088C19.567 9.91311 19.6312 11.743 19.1228 13.4548L18.9258 14.061C18.8484 14.2572 18.7569 14.4429 18.6759 14.6321C18.6302 14.7267 18.5985 14.8248 18.5457 14.9124C18.4929 15 18.4437 15.0876 18.3944 15.1752L18.2466 15.438C18.222 15.4801 18.1974 15.5256 18.1692 15.5677L18.0848 15.6903L17.7329 16.1669C17.6167 16.321 17.4865 16.4577 17.381 16.6013L17.198 16.8116L17.0044 17.0043L16.6174 17.3757C16.1244 17.8013 15.585 18.1704 15.0092 18.476L14.6222 18.6757C14.4955 18.7388 14.3653 18.7808 14.2386 18.8334L13.8867 18.9805C13.7713 19.0226 13.6539 19.0589 13.5348 19.0892L13.204 19.1838C13.1041 19.2172 13.0018 19.243 12.8979 19.2609L12.3525 19.359C12.2074 19.3871 12.0603 19.4035 11.9126 19.408L11.5889 19.4325H11.3883L11.3214 19.415Z" fill="#263238"/>
<path d="M1.82185 16.4158C1.80106 16.3899 1.78335 16.3617 1.76907 16.3317L1.62479 16.0864C1.56497 15.9813 1.49108 15.8481 1.41718 15.687C1.34328 15.5258 1.24827 15.3541 1.17086 15.1474L1.04066 14.8285C0.994914 14.7164 0.959723 14.5972 0.917496 14.4781C0.826006 14.2328 0.75915 13.9665 0.678216 13.6827C0.528452 13.0689 0.426108 12.4445 0.372077 11.8151C0.330368 11.1835 0.338606 10.5497 0.396712 9.91944C0.4319 9.63212 0.460046 9.3553 0.512829 9.10302C0.537461 8.97337 0.55506 8.85073 0.583211 8.7316C0.611362 8.61246 0.639506 8.50384 0.664138 8.3812C0.713402 8.16396 0.776742 7.97474 0.829525 7.80655C0.869497 7.66262 0.917668 7.52106 0.9738 7.38257L1.07936 7.11977C1.08787 7.08774 1.10091 7.05707 1.11807 7.02867C1.1136 7.0622 1.10534 7.09511 1.09344 7.12678L1.00547 7.39308C0.963242 7.50871 0.917495 7.65238 0.871749 7.82057C0.826004 7.98876 0.766186 8.17097 0.720441 8.39171C0.696982 8.50151 0.672353 8.6183 0.646548 8.74211C0.618397 8.85774 0.604321 8.98389 0.579689 9.11003C0.530424 9.36231 0.505797 9.63562 0.474127 9.92294C0.418538 10.5487 0.412648 11.1779 0.456526 11.8046C0.507182 12.4302 0.606 13.0511 0.752109 13.6617C0.829524 13.942 0.896381 14.2083 0.980833 14.4536C1.02306 14.5727 1.05826 14.6953 1.10048 14.804L1.22364 15.1263C1.30105 15.3331 1.38903 15.5083 1.4594 15.6694C1.52978 15.8306 1.59664 15.9638 1.65294 16.0724L1.78313 16.3247C1.80099 16.3527 1.81407 16.3835 1.82185 16.4158Z" fill="white"/>
<path d="M11.275 2.22468C11.1861 2.23382 11.0965 2.23382 11.0076 2.22468H10.6909C10.5712 2.22468 10.4305 2.22468 10.2756 2.22468C10.1208 2.22468 9.95543 2.2422 9.77244 2.26323C9.58946 2.28425 9.40296 2.30878 9.20238 2.34031C8.33065 2.4899 7.48695 2.77112 6.70045 3.17426C6.52098 3.27237 6.34856 3.35997 6.19725 3.45808C6.05084 3.5408 5.90873 3.63085 5.77146 3.72788C5.64126 3.81198 5.53218 3.89607 5.41957 3.96966C5.30697 4.04324 5.24011 4.10631 5.17325 4.16237C5.10632 4.22195 5.03452 4.27586 4.9586 4.32356C5.01887 4.25741 5.08352 4.19537 5.15213 4.13785C5.21547 4.07828 5.29641 4.0082 5.39142 3.93462C5.48643 3.86103 5.59552 3.76643 5.72572 3.67883C5.85592 3.59123 5.98963 3.49312 6.14798 3.39851C6.30633 3.3039 6.47172 3.20579 6.65119 3.10768C7.04642 2.90239 7.45701 2.72783 7.87928 2.58559C8.30171 2.44512 8.73473 2.33849 9.17423 2.26673C9.37832 2.2387 9.57186 2.20716 9.75484 2.19665C9.93783 2.18614 10.1067 2.17213 10.2616 2.16862C10.4164 2.16512 10.5572 2.16862 10.6803 2.16862C10.8035 2.16862 10.909 2.16862 10.9935 2.18965C11.0881 2.19433 11.1822 2.20603 11.275 2.22468Z" fill="white"/>
<path d="M12.7062 21.2862C12.6447 21.3145 12.5796 21.3345 12.5127 21.3457C12.386 21.3808 12.1995 21.4193 11.9708 21.4579C10.7611 21.6573 9.5213 21.5733 8.34984 21.2126C8.12815 21.146 7.94869 21.0794 7.82905 21.0304C7.76543 21.0084 7.70414 20.9802 7.64606 20.9463C7.71238 20.9563 7.77733 20.974 7.8396 20.9988C7.96276 21.0409 8.14223 21.0969 8.36744 21.16C9.53573 21.485 10.7587 21.5673 11.9602 21.4018C12.1925 21.3703 12.379 21.3387 12.5057 21.3142C12.571 21.2961 12.6384 21.2866 12.7062 21.2862Z" fill="white"/>
</svg>
