<svg width="16" height="16" viewBox="0 0 16 16" fill="none" xmlns="http://www.w3.org/2000/svg">
<path d="M15.9947 7.72058C16.0499 9.30185 15.635 10.864 14.8024 12.2094C13.9698 13.5549 12.7569 14.6232 11.3171 15.2793C9.87737 15.9354 8.27536 16.1499 6.71371 15.8955C5.15206 15.6412 3.70091 14.9294 2.54377 13.8503C1.38664 12.7712 0.575484 11.3732 0.212894 9.83305C-0.149696 8.29293 -0.0474388 6.67987 0.506737 5.19787C1.06091 3.71586 2.04211 2.43147 3.32626 1.50713C4.61041 0.582777 6.13982 0.0599837 7.72109 0.00486153C9.84139 -0.0690509 11.9042 0.702317 13.4558 2.14928C15.0074 3.59625 15.9207 5.60029 15.9947 7.72058Z" fill="#20446C"/>
<g opacity="0.1">
<path opacity="0.1" d="M7.72053 0.00573626C5.60025 0.079783 3.59621 0.993048 2.14926 2.54464C0.702304 4.09622 -0.0690504 6.15904 0.00486154 8.27934C0.00486154 8.27934 5.63487 8.33564 6.91441 6.02477C8.19396 3.71389 7.72053 0.00573626 7.72053 0.00573626Z" fill="white"/>
</g>
<path d="M13.9453 7.66436C13.9877 8.86667 13.6724 10.0545 13.0395 11.0776C12.4065 12.1007 11.4843 12.913 10.3895 13.4118C9.29466 13.9105 8.07651 14.0733 6.88917 13.8795C5.70182 13.6857 4.59866 13.1441 3.71927 12.3231C2.83987 11.5021 2.22379 10.4387 1.94897 9.26745C1.67415 8.0962 1.75296 6.86975 2.17541 5.74331C2.59787 4.61687 3.34499 3.64107 4.32222 2.93938C5.29945 2.2377 6.46288 1.84168 7.66526 1.80144C9.27513 1.74756 10.8406 2.33467 12.018 3.43388C13.1954 4.5331 13.8886 6.05459 13.9453 7.66436Z" fill="#20446C"/>
<g opacity="0.2">
<path opacity="0.2" d="M13.9453 7.66436C13.9877 8.86667 13.6724 10.0545 13.0395 11.0776C12.4065 12.1007 11.4843 12.913 10.3895 13.4118C9.29466 13.9105 8.07651 14.0733 6.88917 13.8795C5.70182 13.6857 4.59866 13.1441 3.71927 12.3231C2.83987 11.5021 2.22379 10.4387 1.94897 9.26745C1.67415 8.0962 1.75296 6.86975 2.17541 5.74331C2.59787 4.61687 3.34499 3.64107 4.32222 2.93938C5.29945 2.2377 6.46288 1.84168 7.66526 1.80144C9.27513 1.74756 10.8406 2.33467 12.018 3.43388C13.1954 4.5331 13.8886 6.05459 13.9453 7.66436Z" fill="#20446C"/>
</g>
<path d="M14.1276 7.9125C14.1689 9.09809 13.8577 10.2693 13.2334 11.278C12.6091 12.2868 11.6997 13.0878 10.6202 13.5797C9.54066 14.0716 8.33953 14.2324 7.16865 14.0418C5.99776 13.8511 4.9097 13.3176 4.04203 12.5086C3.17436 11.6996 2.56604 10.6515 2.294 9.49679C2.02195 8.3421 2.09839 7.13267 2.51366 6.02142C2.92892 4.91016 3.66436 3.94699 4.62699 3.25369C5.58961 2.56038 6.7362 2.16807 7.92177 2.12636C9.5119 2.07109 11.0589 2.64956 12.2226 3.7346C13.3864 4.81963 14.0716 6.3224 14.1276 7.9125Z" fill="#F0792E"/>
<path d="M9.73458 6.46304C9.9393 6.46304 10.1052 6.29947 10.1052 6.09763C10.1052 5.89594 9.9393 5.73222 9.73458 5.73222H6.79912C6.5944 5.73222 6.42848 5.89594 6.42848 6.09763C6.42848 6.29947 6.5944 6.46304 6.79912 6.46304H7.64045C7.98836 6.46247 8.30442 6.66259 8.44848 6.97462H6.80274C6.59816 6.97462 6.4321 7.13834 6.4321 7.34003C6.4321 7.54186 6.59816 7.70544 6.80274 7.70544H8.44848C8.30311 8.01661 7.98778 8.21616 7.64045 8.21702H6.79912C6.6471 8.21716 6.51042 8.30865 6.4541 8.44782C6.39778 8.58699 6.43311 8.746 6.54329 8.8492L8.64118 10.8041C8.71053 10.8681 8.80203 10.9034 8.89687 10.9028C8.99879 10.9022 9.09623 10.8614 9.16746 10.7896C9.23493 10.7194 9.27127 10.6256 9.26852 10.5289C9.26577 10.4323 9.22407 10.3407 9.1527 10.2743L7.72934 8.94784C8.45137 8.90673 9.06033 8.403 9.22682 7.70915H9.73458C9.9393 7.70915 10.1052 7.54557 10.1052 7.34374C10.1052 7.14191 9.9393 6.97833 9.73458 6.97833H9.22682C9.18368 6.79634 9.10839 6.62305 9.00444 6.46676H9.73458V6.46304Z" fill="white"/>
<g opacity="0.2">
<path opacity="0.2" d="M14.1276 7.9125C14.1689 9.09809 13.8577 10.2693 13.2334 11.278C12.6091 12.2868 11.6997 13.0878 10.6202 13.5797C9.54066 14.0716 8.33953 14.2324 7.16865 14.0418C5.99776 13.8511 4.9097 13.3176 4.04203 12.5086C3.17436 11.6996 2.56604 10.6515 2.294 9.49679C2.02195 8.3421 2.09839 7.13267 2.51366 6.02142C2.92892 4.91016 3.66436 3.94699 4.62699 3.25369C5.58961 2.56038 6.7362 2.16807 7.92177 2.12636C9.5119 2.07109 11.0589 2.64956 12.2226 3.7346C13.3864 4.81963 14.0716 6.3224 14.1276 7.9125Z" fill="white"/>
</g>
<path d="M8.23251 14.1798H8.28113L8.42444 14.167L8.65988 14.1439C8.76651 14.1365 8.87252 14.122 8.97721 14.1004L9.37387 14.0237C9.44863 14.0097 9.52221 13.99 9.59395 13.9648L9.83195 13.8931C9.91855 13.8711 10.004 13.8446 10.0879 13.8138L10.3438 13.7063C10.4333 13.6679 10.528 13.6347 10.6176 13.5886L10.8991 13.4402C11.3128 13.2166 11.7 12.947 12.0532 12.6366L12.3322 12.3679L12.4729 12.2297C12.5165 12.1785 12.5574 12.1274 12.6035 12.0762C12.6879 11.9712 12.7826 11.8714 12.8594 11.7588L13.0999 11.4134L13.1613 11.3238C13.1818 11.2956 13.1972 11.2624 13.2151 11.2317L13.3226 11.0423L13.4301 10.8504C13.4684 10.7864 13.4915 10.7147 13.5247 10.6482C13.5836 10.51 13.6476 10.3744 13.7013 10.2336L13.8472 9.796C14.0192 9.17901 14.0994 8.54006 14.0852 7.8997C14.0555 7.25945 13.9304 6.62721 13.7141 6.02387C13.6553 5.88056 13.599 5.73725 13.5401 5.5965C13.4812 5.45575 13.4019 5.32779 13.3328 5.19472C13.3005 5.12801 13.2646 5.06308 13.2253 5.00022L13.105 4.81597L12.9848 4.63427C12.9643 4.60356 12.9464 4.57285 12.9259 4.5447L12.8568 4.46025L12.6009 4.13268C12.5088 4.02776 12.409 3.93307 12.3168 3.83583L12.1761 3.69252C12.1275 3.64645 12.0763 3.60551 12.0251 3.562L11.7308 3.30609C11.3557 3.02088 10.9496 2.7788 10.5203 2.58442L10.2312 2.45647C10.1365 2.41552 10.0392 2.39249 9.94966 2.35922L9.6784 2.26965C9.59395 2.23894 9.50438 2.22871 9.42249 2.20567L9.17938 2.15193C9.10547 2.13256 9.03018 2.11887 8.95418 2.11099L8.55496 2.06236C8.449 2.04749 8.34206 2.04065 8.23507 2.04189H7.99963H7.85376H8.23507C8.34194 2.0387 8.44889 2.04383 8.55496 2.05724L8.95673 2.10075C9.03338 2.10876 9.10945 2.12159 9.18449 2.13914L9.44041 2.19288C9.5223 2.21335 9.61187 2.22359 9.69632 2.2543L9.96758 2.34131C10.0597 2.37202 10.1595 2.39761 10.2542 2.43855L10.5459 2.56395C10.9788 2.75811 11.389 2.99927 11.7692 3.28306L12.066 3.53897L12.2196 3.66949L12.3603 3.8128C12.455 3.9126 12.5574 4.00729 12.6495 4.11221L12.9054 4.44234L12.9745 4.52679L13.0359 4.61636L13.1562 4.80061L13.2791 4.98487C13.3226 5.04629 13.3507 5.11794 13.3891 5.18192C13.4582 5.315 13.5324 5.43783 13.599 5.58626C13.6655 5.73469 13.7141 5.87288 13.773 6.01875C14.2291 7.24006 14.2758 8.57654 13.906 9.82671L13.7627 10.2694C13.7064 10.4127 13.6399 10.5484 13.581 10.6866C13.5478 10.7557 13.5247 10.8273 13.4863 10.8913C13.448 10.9553 13.4121 11.0193 13.3763 11.0832L13.2688 11.2752C13.2509 11.3059 13.233 11.3391 13.2125 11.3699L13.1511 11.4594L12.8952 11.8075C12.8107 11.9201 12.7161 12.0199 12.6393 12.1248L12.5062 12.2783L12.3655 12.4191L12.084 12.6904C11.7254 13.0012 11.3332 13.2707 10.9145 13.4939L10.6329 13.6398C10.5408 13.6859 10.4461 13.7166 10.354 13.7549L10.0981 13.8624C10.0142 13.8932 9.92877 13.9196 9.84219 13.9418L9.60163 14.0109C9.52897 14.0353 9.45454 14.0541 9.37899 14.0672L8.98232 14.1388C8.87683 14.1593 8.76985 14.1713 8.66244 14.1746L8.427 14.1926H8.28113L8.23251 14.1798Z" fill="#263238"/>
<path d="M1.32246 11.9894C1.30734 11.9704 1.29447 11.9498 1.28408 11.9279L1.17915 11.7488C1.13565 11.672 1.08191 11.5748 1.02817 11.4571C0.974427 11.3393 0.905328 11.214 0.849028 11.063L0.754344 10.8301C0.721075 10.7482 0.695483 10.6612 0.664774 10.5742C0.598238 10.395 0.549617 10.2005 0.490758 9.99326C0.381843 9.54494 0.307413 9.08894 0.268119 8.62926C0.237786 8.16801 0.243778 7.70509 0.286035 7.24478C0.311625 7.03493 0.332095 6.83276 0.370481 6.6485C0.388394 6.55382 0.401193 6.46425 0.421666 6.37724C0.442138 6.29023 0.462606 6.2109 0.48052 6.12133C0.516347 5.96266 0.562411 5.82447 0.600797 5.70163C0.629867 5.59651 0.664899 5.49312 0.70572 5.39198L0.78249 5.20005C0.788679 5.17665 0.798161 5.15425 0.810644 5.13351C0.807393 5.15799 0.801382 5.18203 0.792728 5.20516L0.728751 5.39966C0.698042 5.48411 0.664773 5.58903 0.631505 5.71187C0.598237 5.8347 0.554734 5.96778 0.521466 6.129C0.504405 6.20919 0.486494 6.29449 0.467727 6.38491C0.447255 6.46937 0.437018 6.56149 0.419104 6.65362C0.383277 6.83788 0.365366 7.03749 0.342335 7.24733C0.301908 7.70436 0.297624 8.16387 0.329535 8.62158C0.366374 9.07852 0.438239 9.53196 0.544497 9.9779C0.600797 10.1826 0.649418 10.3771 0.710836 10.5563C0.741545 10.6433 0.767142 10.7328 0.797851 10.8122L0.887413 11.0476C0.943713 11.1986 1.00769 11.3266 1.05888 11.4443C1.11006 11.562 1.15868 11.6592 1.19962 11.7386L1.29431 11.9228C1.30729 11.9433 1.31681 11.9658 1.32246 11.9894Z" fill="white"/>
<path d="M8.19924 1.62472C8.13458 1.6314 8.0694 1.6314 8.00474 1.62472H7.77443C7.68742 1.62472 7.58505 1.62472 7.47245 1.62472C7.35985 1.62472 7.23958 1.63752 7.1065 1.65287C6.97343 1.66823 6.8378 1.68614 6.69193 1.70917C6.05796 1.81842 5.44438 2.02381 4.8724 2.31824C4.74189 2.38989 4.61649 2.45387 4.50645 2.52553C4.39998 2.58595 4.29663 2.65171 4.1968 2.72258C4.10211 2.784 4.02278 2.84542 3.94089 2.89916C3.859 2.9529 3.81037 2.99896 3.76175 3.03991C3.71308 3.08342 3.66086 3.12279 3.60565 3.15763C3.64948 3.10932 3.6965 3.06401 3.7464 3.02199C3.79246 2.97849 3.85132 2.92731 3.92041 2.87357C3.98951 2.81982 4.06884 2.75073 4.16353 2.68675C4.25822 2.62277 4.35546 2.55112 4.47062 2.48202C4.58578 2.41293 4.70606 2.34127 4.83658 2.26962C5.12401 2.11968 5.42261 1.9922 5.7297 1.88831C6.03691 1.78571 6.35183 1.70784 6.67145 1.65543C6.81988 1.63496 6.96063 1.61192 7.0937 1.60425C7.22678 1.59657 7.34961 1.58634 7.46222 1.58378C7.57482 1.58122 7.67718 1.58378 7.76675 1.58378C7.85632 1.58378 7.93309 1.58378 7.99451 1.59913C8.0633 1.60255 8.13173 1.6111 8.19924 1.62472Z" fill="white"/>
<path d="M9.23825 15.5463C9.19347 15.5669 9.14614 15.5816 9.09751 15.5898C9.00538 15.6154 8.86974 15.6435 8.7034 15.6717C7.82362 15.8173 6.92201 15.756 6.07007 15.4925C5.90884 15.4439 5.77833 15.3953 5.69132 15.3595C5.64506 15.3434 5.60048 15.3228 5.55825 15.298C5.60648 15.3054 5.65372 15.3183 5.699 15.3364C5.78857 15.3671 5.91908 15.4081 6.08287 15.4541C6.9325 15.6915 7.82188 15.7516 8.69572 15.6307C8.86462 15.6077 9.00025 15.5847 9.09238 15.5667C9.13989 15.5535 9.18894 15.5466 9.23825 15.5463Z" fill="white"/>
</svg>
