<svg width="77" height="67" viewBox="0 0 77 67" fill="none" xmlns="http://www.w3.org/2000/svg">
<path d="M59.2194 7.66066L38.328 0L17.6379 7.57598C14.9974 8.83271 12.6791 9.59476 12.6791 12.1082V24.6175C12.6352 33.3811 14.9918 41.9907 19.4953 49.5202C23.3531 55.9152 29.3412 62.5019 38.5293 66.6909C46.9879 63.8834 53.2983 56.4054 57.1562 50.006C61.657 42.4774 64.0105 33.8691 63.9633 25.1077V13.8551C63.9633 10.2721 62.115 8.52075 59.2194 7.66066Z" fill="#FFD0AE"/>
<path d="M48.923 37.5658H45.7717V20.3824C45.7717 18.4366 44.9996 16.5705 43.6252 15.1947C42.2508 13.8188 40.3868 13.0459 38.4431 13.0459C36.4994 13.0459 34.6354 13.8188 33.261 15.1947C31.8866 16.5705 31.1145 18.4366 31.1145 20.3824V37.5658H27.9595V20.3824C27.9224 18.9812 28.1661 17.5869 28.6761 16.2816C29.1861 14.9763 29.9521 13.7865 30.9289 12.7823C31.9057 11.7782 33.0735 10.9801 34.3635 10.4352C35.6534 9.89029 37.0393 9.60954 38.4394 9.60954C39.8395 9.60954 41.2254 9.89029 42.5154 10.4352C43.8053 10.9801 44.9732 11.7782 45.95 12.7823C46.9268 13.7865 47.6928 14.9763 48.2028 16.2816C48.7128 17.5869 48.9564 18.9812 48.9194 20.3824L48.923 37.5658Z" fill="#20446C"/>
<path d="M50.3039 29.7034H26.5758C25.4082 29.7034 24.4617 30.6716 24.4617 31.8659V45.8871C24.4617 47.0815 25.4082 48.0497 26.5758 48.0497H50.3039C51.4715 48.0497 52.418 47.0815 52.418 45.8871V31.8659C52.418 30.6716 51.4715 29.7034 50.3039 29.7034Z" fill="#20446C"/>
<path d="M41.0605 36.6174C41.0642 36.1457 40.9309 35.6825 40.6757 35.2801C40.4205 34.8776 40.0536 34.5521 39.6165 34.3403C39.1794 34.1285 38.6895 34.0389 38.2023 34.0816C37.7151 34.1244 37.2501 34.2977 36.8598 34.582C36.4694 34.8664 36.1695 35.2504 35.9937 35.6906C35.818 36.1308 35.7736 36.6097 35.8654 37.073C35.9573 37.5363 36.1818 37.9656 36.5135 38.3122C36.8453 38.6589 37.271 38.9091 37.7426 39.0345V42.8076H39.1733V39.0345C39.7172 38.8836 40.1955 38.5662 40.5359 38.1302C40.8764 37.6941 41.0605 37.1632 41.0605 36.6174Z" fill="white"/>
<path d="M25.4228 46.303C25.3737 46.303 25.3355 43.3686 25.3355 39.7525C25.3355 36.1364 25.3737 33.1985 25.4228 33.1985C25.472 33.1985 25.5102 36.1292 25.5102 39.7525C25.5102 43.3758 25.4693 46.303 25.4228 46.303Z" fill="#FAFAFA"/>
<path d="M36.3113 39.3139C36.3113 39.3139 36.2145 39.2767 36.0662 39.154C35.8616 38.9761 35.6821 38.7628 35.534 38.5217C35.2756 38.1284 35.0958 37.674 35.0075 37.1912C34.9192 36.7084 34.9245 36.209 35.0232 35.7288C35.1218 35.2486 35.3113 34.7996 35.578 34.4137C35.8447 34.0279 36.1822 33.7148 36.5661 33.4969C36.7916 33.3601 37.0343 33.2647 37.2853 33.2142C37.378 33.1932 37.4733 33.1932 37.5659 33.2142C37.2454 33.3357 36.9338 33.4862 36.6338 33.6643C36.2836 33.889 35.9779 34.1956 35.7366 34.5646C35.4952 34.9336 35.3235 35.3568 35.2323 35.8069C35.1412 36.257 35.1328 36.7241 35.2075 37.1781C35.2822 37.6322 35.4385 38.0633 35.6663 38.4436C35.8607 38.7531 36.0764 39.0442 36.3113 39.3139Z" fill="#FAFAFA"/>
<path d="M64.1514 61.8376L64.402 61.5034L64.5407 61.3207C64.59 61.2494 64.6302 61.1692 64.6839 61.08C64.807 60.8803 64.9118 60.67 64.9972 60.4517C65.0465 60.3269 65.1046 60.1976 65.1583 60.0595C65.212 59.9213 65.2389 59.7609 65.2836 59.6138C65.3304 59.4487 65.3648 59.2804 65.3866 59.1103C65.4219 58.9261 65.4473 58.7401 65.4627 58.5532C65.538 57.6605 65.4973 56.7618 65.3418 55.8793C64.8773 53.4542 64.0426 51.1142 62.8669 48.9406C61.3476 46.0438 59.5696 43.289 57.5545 40.7095C55.1303 37.5686 52.4862 34.6021 49.6419 31.8323C46.3853 28.6431 42.905 25.6884 39.2276 22.9906C37.2852 21.569 35.2355 20.1875 33.0783 18.8907C30.8818 17.5562 28.6005 16.3653 26.2488 15.3255C23.8222 14.2215 21.2662 13.425 18.6405 12.9547C17.3051 12.7158 15.9413 12.6782 14.5947 12.8433C13.9199 12.9423 13.2619 13.1327 12.6389 13.4093C12.0192 13.71 11.4608 14.1225 10.992 14.6259C10.5471 15.152 10.2055 15.7567 9.98498 16.4085C9.78106 17.0572 9.66516 17.7301 9.64037 18.4094C9.6223 19.7668 9.81092 21.1191 10.1998 22.4202C10.9704 24.9613 12.0558 27.397 13.4311 29.6709C14.7377 31.88 16.1863 34.0027 17.7678 36.0258C19.3073 38.0134 20.9006 39.8851 22.5565 41.6409C25.6688 44.9671 29.0128 48.0705 32.5636 50.9282C35.6455 53.4313 38.9013 55.7143 42.3067 57.76C45.1096 59.4598 48.0603 60.905 51.1233 62.0783C53.4244 62.9944 55.853 63.5535 58.3243 63.7361C59.2236 63.7884 60.1259 63.727 61.0096 63.5534C61.2065 63.5266 61.3811 63.4553 61.5601 63.4152C61.7272 63.3744 61.8904 63.3192 62.0479 63.2503L62.4954 63.0765C62.6297 63.0097 62.755 62.9384 62.8714 62.876C63.0783 62.7643 63.2759 62.6361 63.4621 62.4927C63.5427 62.4303 63.6233 62.3813 63.6859 62.3234C63.7486 62.2654 63.8023 62.212 63.856 62.1674L64.1558 61.8822C64.1558 61.8822 64.0619 61.9847 63.8649 62.1763L63.6993 62.3412C63.6367 62.3947 63.5561 62.4482 63.4756 62.5105C63.2932 62.6596 63.0968 62.7909 62.8893 62.9027C62.7684 62.9696 62.6476 63.0409 62.5133 63.1077L62.0658 63.2904C61.9042 63.3567 61.7382 63.4118 61.569 63.4553C61.39 63.5133 61.2076 63.561 61.023 63.5979C60.1403 63.7791 59.2378 63.8465 58.3377 63.7985C55.857 63.6257 53.4177 63.0741 51.1054 62.1629C48.0329 60.9954 45.073 59.5531 42.2619 57.8535C38.8474 55.8121 35.5826 53.5321 32.492 51.0307C28.9328 48.1747 25.5812 45.0712 22.4625 41.7434C20.82 39.9609 19.2044 38.1114 17.6604 36.1194C16.0744 34.0919 14.6214 31.9647 13.3102 29.7511C11.9256 27.4671 10.834 25.0192 10.0611 22.4648C9.66675 21.151 9.47658 19.7849 9.49716 18.4139C9.51977 17.7194 9.63721 17.0313 9.84625 16.3683C10.0761 15.7038 10.4299 15.0884 10.889 14.5546C11.3631 14.0308 11.9325 13.6013 12.5673 13.2889C13.2063 13.0065 13.8808 12.8116 14.5723 12.7096C15.9361 12.5361 17.3185 12.5706 18.6718 12.8121C21.3085 13.2856 23.875 14.0866 26.3114 15.1963C28.6678 16.2353 30.9537 17.4262 33.1544 18.7615C35.3205 20.0628 37.3703 21.4353 39.3126 22.8703C42.9876 25.5776 46.4662 28.5395 49.7225 31.7342C52.5709 34.5154 55.218 37.4938 57.6441 40.6471C59.6588 43.2346 61.4338 45.9985 62.9475 48.905C64.1204 51.0876 64.9491 53.4369 65.4045 55.8704C65.5545 56.7625 65.5906 57.6699 65.5119 58.571C65.5119 58.7671 65.4537 58.9498 65.4313 59.1281C65.4027 59.3004 65.3608 59.4702 65.306 59.6361L65.1762 60.0818C65.127 60.2244 65.0644 60.3536 65.0151 60.4784C64.9247 60.6969 64.8153 60.9071 64.6884 61.1068C64.6392 61.1914 64.5944 61.2761 64.5452 61.3474L64.402 61.5257C64.2453 61.7307 64.1514 61.8376 64.1514 61.8376Z" fill="#8E9398"/>
<path d="M73.9836 38.2048C73.9836 38.2048 73.9836 38.0622 73.9478 37.7904C73.9478 37.7235 73.9478 37.6478 73.9478 37.5631C73.9478 37.4784 73.912 37.3849 73.8941 37.2868C73.8518 37.0559 73.7889 36.8292 73.7061 36.6094C73.6613 36.4847 73.6211 36.351 73.5629 36.2128L73.3525 35.7672C73.2779 35.6121 73.1911 35.4631 73.093 35.3215C72.99 35.1745 72.905 35.0051 72.7797 34.8759C72.2359 34.1587 71.6028 33.5133 70.8955 32.9551C68.9281 31.4527 66.7411 30.2594 64.4106 29.4167C61.3407 28.2633 58.1727 27.3878 54.945 26.8008C51.0363 26.0692 47.0806 25.6135 43.1074 25.4371C38.5471 25.2145 33.9766 25.3143 29.4305 25.7357C27.0316 25.9629 24.5836 26.2927 22.1042 26.7517C19.5657 27.2108 17.0601 27.8345 14.6033 28.619C12.0578 29.4024 9.6206 30.4998 7.34861 31.8856C6.19203 32.5967 5.14951 33.477 4.25607 34.4971C3.81917 35.0195 3.45488 35.5981 3.17301 36.2173C2.90936 36.8464 2.7652 37.5189 2.74784 38.2004C2.76581 38.8814 2.90837 39.5534 3.16853 40.1835C3.45117 40.8023 3.8154 41.3808 4.25159 41.9037C5.14475 42.9253 6.18728 43.8072 7.34413 44.5196C9.61726 45.9063 12.056 47.0037 14.6033 47.7862C17.0541 48.5705 19.5537 49.1942 22.0863 49.6535C24.5657 50.0991 27.0093 50.4467 29.4126 50.674C33.959 51.0918 38.5293 51.1901 43.0895 50.9681C47.0619 50.7985 51.0175 50.3518 54.9271 49.6312C58.1619 49.0372 61.336 48.1526 64.4106 46.9885C66.7411 46.1458 68.9281 44.9525 70.8955 43.4501C71.6038 42.893 72.237 42.2475 72.7797 41.5294C72.905 41.3823 72.99 41.213 73.093 41.0837C73.1909 40.9421 73.2777 40.7931 73.3525 40.6381C73.4241 40.491 73.4958 40.3529 73.5629 40.2192C73.63 40.0855 73.6613 39.9429 73.7061 39.8181C73.79 39.5987 73.8529 39.3719 73.8941 39.1407C73.8941 39.0427 73.9343 38.9535 73.9478 38.8689C73.9612 38.7842 73.9478 38.7084 73.9478 38.6371C73.9702 38.3653 73.9836 38.2271 73.9836 38.2271C73.9836 38.2271 73.9836 38.3653 73.9836 38.6416C73.9836 38.7069 73.9836 38.7827 73.9836 38.8689C73.9836 38.9535 73.9478 39.0471 73.9299 39.1452C73.8938 39.3794 73.8338 39.6094 73.7508 39.8315C73.7061 39.9562 73.6658 40.0944 73.6076 40.2325C73.5495 40.3707 73.4734 40.5088 73.4018 40.6782C73.3276 40.8326 73.2423 40.9816 73.1467 41.1238C73.0437 41.2709 72.9587 41.4447 72.8334 41.5918C72.2917 42.3173 71.6584 42.9703 70.9492 43.5348C68.9817 45.0487 66.7913 46.2513 64.4553 47.0999C61.3843 48.2654 58.213 49.15 54.9808 49.7426C51.0668 50.4824 47.105 50.9455 43.1254 51.1286C38.5594 51.3559 33.9829 51.2605 29.4305 50.8434C27.0272 50.6205 24.5746 50.2908 22.0863 49.8317C19.5475 49.3721 17.0418 48.7468 14.5854 47.96C12.0249 47.1747 9.5739 46.0712 7.29042 44.6756C6.11705 43.9588 5.06059 43.0676 4.15761 42.0329C3.70966 41.4914 3.33778 40.8917 3.05217 40.2504C2.77624 39.6023 2.62445 38.9085 2.60463 38.2048C2.62621 37.5014 2.77793 36.808 3.05217 36.1593C3.34013 35.5265 3.71355 34.9357 4.16208 34.4035C5.06497 33.3675 6.12142 32.4748 7.2949 31.7563C9.56785 30.3648 12.0065 29.2615 14.5541 28.4719C17.0125 27.6881 19.5196 27.0644 22.0594 26.6047C24.5433 26.159 26.9824 25.8159 29.3991 25.5886C33.9519 25.1751 38.5285 25.0857 43.094 25.3212C47.0721 25.5026 51.0324 25.9643 54.945 26.7027C58.1738 27.2912 61.3421 28.1712 64.4106 29.332C66.7449 30.1811 68.9338 31.3836 70.9 32.8972C71.6105 33.4616 72.2453 34.1146 72.7886 34.8402C72.9009 34.9914 73.004 35.1492 73.0974 35.3126C73.1954 35.4542 73.2822 35.6032 73.357 35.7582C73.4286 35.9053 73.5002 36.0479 73.5629 36.2039C73.6255 36.3599 73.6613 36.4802 73.7061 36.6094C73.7869 36.8307 73.8469 37.0589 73.8851 37.2913C73.8851 37.3938 73.9254 37.4829 73.9388 37.5676C73.9522 37.6522 73.9388 37.728 73.9388 37.7993C73.9791 38.0622 73.9836 38.2048 73.9836 38.2048Z" fill="#8E9398"/>
<path d="M60.9605 8.78432C60.9605 8.78432 60.8396 8.71301 60.6069 8.56149L60.4145 8.43671C60.3428 8.39215 60.2533 8.3565 60.1638 8.31193C59.9545 8.20224 59.7359 8.11127 59.5104 8.04009C59.3851 7.99998 59.2508 7.95096 59.1076 7.91085L58.6601 7.81726C58.4922 7.78072 58.3215 7.75836 58.1499 7.75042C57.9629 7.72549 57.7746 7.7121 57.586 7.71031C56.6814 7.69806 55.7789 7.80141 54.9007 8.01781C52.5025 8.64403 50.2155 9.6346 48.1204 10.9546C45.3224 12.6621 42.686 14.6191 40.2436 16.8015C37.2684 19.4243 34.4837 22.2538 31.9103 25.2688C28.9346 28.7228 26.2096 32.3833 23.7561 36.2228C22.4627 38.2504 21.223 40.3806 20.0728 42.6133C18.8863 44.8877 17.8502 47.2368 16.9713 49.6456C16.0318 52.1296 15.4094 54.7213 15.1184 57.3597C14.9699 58.7053 15.0303 60.0656 15.2975 61.3928C15.442 62.0559 15.6769 62.6961 15.9956 63.2958C16.3194 63.8958 16.7652 64.4221 17.3046 64.8411C17.844 65.26 18.4651 65.5624 19.1284 65.729C19.7935 65.8869 20.477 65.9543 21.1603 65.9295C22.5167 65.8558 23.8539 65.5763 25.1255 65.1006C27.6255 64.1624 29.998 62.9169 32.1878 61.3928C34.3099 59.9427 36.3355 58.3573 38.252 56.6467C40.1407 54.98 41.8995 53.2509 43.551 51.504C46.6681 48.1824 49.5456 44.6456 52.1617 40.9199C54.4566 37.6865 56.5189 34.2956 58.3334 30.7725C59.843 27.871 61.0877 24.8403 62.0525 21.717C62.8134 19.3682 63.2059 16.9165 63.2161 14.4485C63.2103 13.5451 63.087 12.6464 62.8491 11.7746C62.8002 11.5929 62.7404 11.4144 62.6701 11.2398C62.6175 11.0765 62.5532 10.9171 62.4776 10.763C62.4015 10.6159 62.3344 10.4733 62.2673 10.3173C62.2002 10.1614 62.1151 10.0722 62.0435 9.96082C61.9119 9.76039 61.7621 9.57243 61.596 9.39931C61.5288 9.32355 61.4707 9.24779 61.4125 9.1854L61.2424 9.03388C61.0365 8.84671 60.9381 8.74867 60.9381 8.74867L61.2514 9.02051L61.4259 9.17203C61.4886 9.23442 61.5467 9.30572 61.6139 9.38148C61.78 9.55462 61.9298 9.74258 62.0614 9.943C62.133 10.0544 62.2136 10.1703 62.2897 10.2995L62.5045 10.7452C62.5835 10.8999 62.6493 11.0608 62.7014 11.2265C62.7739 11.4006 62.8352 11.5793 62.8849 11.7612C63.1311 12.6317 63.2605 13.5308 63.2698 14.4351C63.2765 16.9195 62.8945 19.3898 62.1375 21.7571C61.1829 24.8892 59.9425 27.9278 58.4318 30.8349C56.6228 34.3677 54.5634 37.7676 52.2691 41.009C49.6531 44.743 46.7741 48.2874 43.6539 51.6154C42.0025 53.3712 40.2391 55.1003 38.3505 56.7715C36.4289 58.4891 34.3973 60.0804 32.2684 61.5355C30.076 63.0691 27.6989 64.3222 25.1927 65.2655C23.9001 65.7453 22.5421 66.0277 21.1648 66.1033C20.4665 66.1286 19.7679 66.0597 19.0882 65.8983C18.4017 65.7282 17.7585 65.4171 17.1997 64.985C16.641 64.553 16.179 64.0095 15.8435 63.3893C15.5175 62.7738 15.2766 62.1172 15.1274 61.4374C14.8612 60.095 14.7993 58.7204 14.9439 57.3597C15.2377 54.7074 15.8647 52.1023 16.8102 49.6055C17.6986 47.1913 18.7451 44.8377 19.943 42.5598C21.0976 40.3316 22.3418 38.1881 23.6352 36.1604C26.0897 32.3176 28.8162 28.654 31.794 25.1975C34.3762 22.1818 37.1699 19.3523 40.1541 16.7302C42.6061 14.5485 45.2531 12.5944 48.0622 10.8922C50.1651 9.5625 52.4632 8.56716 54.8738 7.94205C55.7525 7.72923 56.6549 7.62889 57.5591 7.64346C57.756 7.64346 57.944 7.67466 58.1275 7.68803C58.3009 7.69886 58.4731 7.7242 58.6422 7.76379L59.0897 7.86183C59.2329 7.90194 59.3672 7.95096 59.497 7.99552C59.7219 8.06612 59.9393 8.15867 60.1459 8.27182C60.2399 8.32084 60.3249 8.3565 60.3965 8.40106L60.589 8.5303L60.9605 8.78432Z" fill="#8E9398"/>
<path d="M2.278 52.8582C2.46971 53.0436 2.6015 53.2817 2.65651 53.5421C2.71152 53.8025 2.68725 54.0733 2.5868 54.3199C2.48635 54.5664 2.31429 54.7776 2.09265 54.9262C1.871 55.0748 1.60986 55.1542 1.34263 55.1542C1.07541 55.1542 0.814265 55.0748 0.592621 54.9262C0.370978 54.7776 0.19892 54.5664 0.0984703 54.3199C-0.00197995 54.0733 -0.026253 53.8025 0.0287579 53.5421C0.0837688 53.2817 0.215561 53.0436 0.407266 52.8582C0.657834 52.6159 0.993361 52.4804 1.34263 52.4804C1.69191 52.4804 2.02744 52.6159 2.278 52.8582Z" fill="#F0792E"/>
<path d="M77.0002 11.997C77.0002 12.2614 76.9214 12.5199 76.7739 12.7397C76.6263 12.9596 76.4167 13.131 76.1713 13.2321C75.926 13.3333 75.656 13.3598 75.3956 13.3082C75.1351 13.2566 74.8959 13.1293 74.7081 12.9423C74.5203 12.7554 74.3925 12.5171 74.3407 12.2578C74.2889 11.9985 74.3155 11.7296 74.4171 11.4853C74.5187 11.2411 74.6908 11.0322 74.9116 10.8853C75.1324 10.7384 75.392 10.66 75.6575 10.66C76.0136 10.66 76.3551 10.8009 76.6069 11.0516C76.8587 11.3023 77.0002 11.6424 77.0002 11.997Z" fill="#F0792E"/>
<path d="M10.6431 57.1943C10.6431 57.2604 10.6234 57.325 10.5866 57.38C10.5497 57.4349 10.4973 57.4778 10.4359 57.5031C10.3746 57.5284 10.3071 57.535 10.242 57.5221C10.1769 57.5092 10.1171 57.4773 10.0701 57.4306C10.0232 57.3839 9.99121 57.3243 9.97826 57.2595C9.96531 57.1946 9.97195 57.1274 9.99736 57.0664C10.0228 57.0053 10.0658 56.9531 10.121 56.9164C10.1762 56.8796 10.2411 56.86 10.3075 56.86C10.3965 56.86 10.4819 56.8952 10.5448 56.9579C10.6078 57.0206 10.6431 57.1056 10.6431 57.1943Z" fill="#F0792E"/>
<path d="M17.8257 20.2405C17.8257 20.3066 17.806 20.3713 17.7692 20.4262C17.7323 20.4812 17.6799 20.524 17.6185 20.5493C17.5572 20.5746 17.4897 20.5812 17.4246 20.5684C17.3595 20.5555 17.2997 20.5236 17.2527 20.4769C17.2058 20.4301 17.1738 20.3706 17.1609 20.3057C17.1479 20.2409 17.1546 20.1737 17.18 20.1126C17.2054 20.0516 17.2484 19.9994 17.3036 19.9626C17.3588 19.9259 17.4237 19.9063 17.4901 19.9063C17.5791 19.9063 17.6645 19.9415 17.7274 20.0042C17.7904 20.0669 17.8257 20.1519 17.8257 20.2405Z" fill="#F0792E"/>
<path d="M70.3453 38.2049C70.3453 38.271 70.3257 38.3356 70.2888 38.3906C70.2519 38.4456 70.1995 38.4884 70.1381 38.5137C70.0768 38.539 70.0093 38.5456 69.9442 38.5327C69.8791 38.5198 69.8193 38.488 69.7724 38.4413C69.7254 38.3945 69.6935 38.335 69.6805 38.2701C69.6676 38.2053 69.6742 38.1381 69.6996 38.077C69.725 38.0159 69.768 37.9637 69.8232 37.927C69.8784 37.8903 69.9433 37.8707 70.0097 37.8707C70.0987 37.8707 70.1841 37.9059 70.247 37.9686C70.31 38.0313 70.3453 38.1163 70.3453 38.2049Z" fill="#F0792E"/>
<path d="M75.0225 22.5811C75.0225 22.6472 75.0028 22.7118 74.9659 22.7668C74.929 22.8217 74.8766 22.8646 74.8153 22.8899C74.754 22.9152 74.6865 22.9218 74.6214 22.9089C74.5562 22.896 74.4964 22.8642 74.4495 22.8174C74.4026 22.7707 74.3706 22.7111 74.3576 22.6463C74.3447 22.5814 74.3513 22.5142 74.3767 22.4532C74.4021 22.3921 74.4452 22.3399 74.5004 22.3032C74.5556 22.2664 74.6205 22.2468 74.6868 22.2468C74.7759 22.2468 74.8612 22.2821 74.9242 22.3447C74.9871 22.4074 75.0225 22.4924 75.0225 22.5811Z" fill="#F0792E"/>
</svg>
