<svg width="13" height="14" viewBox="0 0 13 14" fill="none" xmlns="http://www.w3.org/2000/svg">
<path d="M1.62518 13.0014H7.04244C7.47346 13.0014 7.88684 12.8302 8.19162 12.5254C8.4964 12.2206 8.66762 11.8073 8.66762 11.3763V10.8345C8.66762 10.6909 8.61055 10.5531 8.50895 10.4515C8.40736 10.3499 8.26957 10.2928 8.12589 10.2928C7.98222 10.2928 7.84443 10.3499 7.74283 10.4515C7.64124 10.5531 7.58417 10.6909 7.58417 10.8345V11.3763C7.58417 11.5199 7.52709 11.6577 7.4255 11.7593C7.32391 11.8609 7.18612 11.918 7.04244 11.918H1.62518C1.4815 11.918 1.34371 11.8609 1.24212 11.7593C1.14053 11.6577 1.08345 11.5199 1.08345 11.3763V1.62518C1.08345 1.4815 1.14053 1.34371 1.24212 1.24212C1.34371 1.14053 1.4815 1.08345 1.62518 1.08345H7.04244C7.18612 1.08345 7.32391 1.14053 7.4255 1.24212C7.52709 1.34371 7.58417 1.4815 7.58417 1.62518V2.1669C7.58417 2.31058 7.64124 2.44837 7.74283 2.54996C7.84443 2.65156 7.98222 2.70863 8.12589 2.70863C8.26957 2.70863 8.40736 2.65156 8.50895 2.54996C8.61055 2.44837 8.66762 2.31058 8.66762 2.1669V1.62518C8.66762 1.19415 8.4964 0.780784 8.19162 0.476004C7.88684 0.171224 7.47346 0 7.04244 0H1.62518C1.19415 0 0.780784 0.171224 0.476004 0.476004C0.171224 0.780784 0 1.19415 0 1.62518V11.3763C0 11.8073 0.171224 12.2206 0.476004 12.5254C0.780784 12.8302 1.19415 13.0014 1.62518 13.0014Z" fill="white"/>
<path d="M10.9918 3.81898C10.8881 3.73023 10.7548 3.68386 10.6185 3.68912C10.4821 3.69439 10.3528 3.75091 10.2563 3.84739C10.1598 3.94387 10.1033 4.0732 10.0981 4.20954C10.0928 4.34588 10.1392 4.47918 10.2279 4.58282L11.5985 5.9588H3.79221C3.64854 5.9588 3.51075 6.01588 3.40916 6.11747C3.30756 6.21906 3.25049 6.35685 3.25049 6.50053C3.25049 6.6442 3.30756 6.78199 3.40916 6.88359C3.51075 6.98518 3.64854 7.04225 3.79221 7.04225H11.5985L10.2279 8.41824C10.127 8.51974 10.0704 8.65704 10.0704 8.80016C10.0704 8.94327 10.127 9.08057 10.2279 9.18207C10.3294 9.28297 10.4667 9.3396 10.6098 9.3396C10.753 9.3396 10.8903 9.28297 10.9918 9.18207L12.5248 7.64899C12.8292 7.34427 13.0001 6.9312 13.0001 6.50053C13.0001 6.06985 12.8292 5.65679 12.5248 5.35207L10.9918 3.81898Z" fill="white"/>
</svg>
