<svg width="25" height="20" viewBox="0 0 25 20" fill="none" xmlns="http://www.w3.org/2000/svg">
<path d="M3.02153 19.8976H21.9688C23.5787 19.8976 24.8878 18.5798 24.8878 16.9598V6.13372C24.8878 4.5137 23.5797 3.19591 21.9688 3.19591H3.02153C1.41064 3.19591 0.102618 4.5137 0.102618 6.13372V16.9598C0.102618 18.5798 1.41064 19.8976 3.02153 19.8976ZM1.84372 6.13372C1.84372 5.47924 2.37308 4.94732 3.02153 4.94732H21.9688C22.6173 4.94732 23.1467 5.47924 23.1467 6.13372V16.9598C23.1467 17.6143 22.6173 18.1462 21.9688 18.1462H3.02153C2.37308 18.1462 1.84372 17.6143 1.84372 16.9598V6.13372Z" fill="#20446C" stroke="#20446C" stroke-width="0.2"/>
<path d="M4.04571 6.39087H6.60615V7.93745H4.04571V6.39087Z" fill="#F0792E"/>
<path d="M18.3842 15.1549H20.9447V16.7015H18.3842V15.1549Z" fill="#F0792E"/>
<path d="M3.02153 0.102368H2.91911V0.204786V1.75137V1.85378H3.02153H21.9688H22.0713V1.75137V0.204786V0.102368H21.9688H3.02153Z" fill="#20446C" stroke="#20446C" stroke-width="0.2"/>
<path d="M15.1349 8.05221C15.3739 8.05221 15.5677 7.84307 15.5677 7.5851C15.5677 7.32714 15.3739 7.118 15.1349 7.118H9.8554C9.61641 7.118 9.42265 7.32714 9.42265 7.5851C9.42265 7.84307 9.61641 8.05221 9.8554 8.05221H11.6729C12.2371 8.05221 12.7181 8.44277 12.8968 8.98646H9.8554C9.61641 8.98646 9.42265 9.1956 9.42265 9.45356C9.42265 9.71153 9.61641 9.92067 9.8554 9.92067H12.8967C12.7181 10.4643 12.2371 10.8549 11.6729 10.8549H9.88425C9.71559 10.8549 9.56231 10.9606 9.49151 11.1258C9.42072 11.291 9.44524 11.4856 9.55441 11.6244L13.1318 16.1709C13.2174 16.2797 13.3392 16.3356 13.4618 16.3356C13.5608 16.3356 13.6604 16.2991 13.7418 16.2245C13.9239 16.0575 13.9462 15.7627 13.7915 15.5661L10.8196 11.7891H11.6729C12.7179 11.7891 13.5921 10.9854 13.7932 9.92064H15.135C15.374 9.92064 15.5677 9.7115 15.5677 9.45353C15.5677 9.19556 15.374 8.98642 15.135 8.98642H13.7932C13.728 8.64142 13.5922 8.32391 13.4028 8.05218H15.1349V8.05221Z" fill="#F0792E" stroke="#F0792E" stroke-width="0.0933824"/>
</svg>
