<svg width="26" height="27" viewBox="0 0 26 27" fill="none" xmlns="http://www.w3.org/2000/svg">
<path d="M11.5186 0.574576C12.3105 -0.191535 13.5673 -0.191536 14.3593 0.574576L15.7563 1.92603C16.2091 2.36412 16.8388 2.56872 17.4627 2.48048L19.3872 2.20826C20.4782 2.05395 21.495 2.79268 21.6854 3.87796L22.0212 5.79244C22.1301 6.41305 22.5192 6.9487 23.0758 7.24401L24.7928 8.15501C25.7662 8.67143 26.1545 9.86673 25.6707 10.8566L24.817 12.6029C24.5403 13.169 24.5403 13.831 24.817 14.3971L25.6706 16.1434C26.1545 17.1333 25.7662 18.3286 24.7928 18.845L23.0758 19.756C22.5192 20.0513 22.1301 20.5869 22.0212 21.2076L21.6854 23.122C21.495 24.2073 20.4782 24.9461 19.3872 24.7917L17.4627 24.5195C16.8388 24.4313 16.2091 24.6359 15.7563 25.074L14.3593 26.4254C13.5673 27.1915 12.3105 27.1915 11.5186 26.4254L10.1216 25.074C9.66875 24.6359 9.03906 24.4313 8.41518 24.5195L6.49064 24.7917C5.39964 24.9461 4.38286 24.2073 4.19249 23.122L3.85666 21.2076C3.7478 20.5869 3.35863 20.0513 2.80203 19.756L1.08503 18.845C0.111699 18.3286 -0.276679 17.1333 0.207218 16.1434L1.06083 14.3971C1.33754 13.831 1.33754 13.169 1.06083 12.6029L0.207219 10.8566C-0.276678 9.86673 0.111698 8.67143 1.08503 8.15501L2.80203 7.24401C3.35863 6.9487 3.7478 6.41305 3.85666 5.79244L4.19249 3.87797C4.38286 2.79268 5.39964 2.05395 6.49064 2.20826L8.41518 2.48048C9.03906 2.56872 9.66875 2.36412 10.1216 1.92603L11.5186 0.574576Z" fill="url(#paint0_linear_176_4512)"/>
<defs>
<linearGradient id="paint0_linear_176_4512" x1="1.93935" y1="1.40046" x2="24.4885" y2="25.5995" gradientUnits="userSpaceOnUse">
<stop stop-color="#E0412B"/>
<stop offset="1" stop-color="#F0792E"/>
</linearGradient>
</defs>
</svg>
