<svg width="39" height="39" viewBox="0 0 39 39" fill="none" xmlns="http://www.w3.org/2000/svg">
<circle cx="19.5" cy="19.5" r="19.5" fill="#FFEEE3"/>
<path d="M26.8203 11.3438H26.2344V10.7578C26.2344 9.78855 25.4458 9 24.4766 9H12.7578C11.7886 9 11 9.78855 11 10.7578V24.8984C11 25.8677 11.7886 26.6562 12.7578 26.6562H13.3438V27.2422C13.3438 28.2114 14.1323 29 15.1016 29H26.8203C27.7896 29 28.5781 28.2114 28.5781 27.2422V13.1016C28.5781 12.1323 27.7896 11.3438 26.8203 11.3438ZM13.8586 13.5159C13.5266 13.8479 13.3438 14.2893 13.3438 14.7588V25.4844H12.7578C12.4347 25.4844 12.1719 25.2215 12.1719 24.8984V10.7578C12.1719 10.4347 12.4347 10.1719 12.7578 10.1719H24.4766C24.7996 10.1719 25.0625 10.4347 25.0625 10.7578V11.3438H16.7588C16.2893 11.3438 15.8479 11.5266 15.5159 11.8586L13.8586 13.5159ZM16.8594 12.5156V14.8594H14.5156V14.7588C14.5156 14.6023 14.5766 14.4552 14.6872 14.3445L16.3445 12.6872C16.4552 12.5766 16.6023 12.5156 16.7588 12.5156H16.8594ZM27.4062 27.2422C27.4062 27.5653 27.1434 27.8281 26.8203 27.8281H15.1016C14.7785 27.8281 14.5156 27.5653 14.5156 27.2422V16.0312H17.4453C17.7689 16.0312 18.0312 15.7689 18.0312 15.4453V12.5156H26.8203C27.1434 12.5156 27.4062 12.7785 27.4062 13.1016V27.2422Z" fill="#F0792E"/>
<path d="M25.6484 24.1431H16.2734C15.9498 24.1431 15.6875 24.4054 15.6875 24.729C15.6875 25.0526 15.9498 25.3149 16.2734 25.3149H25.6484C25.972 25.3149 26.2344 25.0526 26.2344 24.729C26.2344 24.4054 25.972 24.1431 25.6484 24.1431Z" fill="#F0792E"/>
<path d="M24.64 21.7024H16.2141C15.9233 21.7024 15.6875 21.9382 15.6875 22.229C15.6875 22.5198 15.9233 22.7556 16.2141 22.7556H24.64C24.9309 22.7556 25.1667 22.5198 25.1667 22.229C25.1667 21.9382 24.9309 21.7024 24.64 21.7024Z" fill="#F0792E"/>
<path d="M23.853 19.2488H16.1678C15.9026 19.2488 15.6875 19.4638 15.6875 19.7291C15.6875 19.9944 15.9026 20.2094 16.1678 20.2094H23.853C24.1183 20.2094 24.3333 19.9944 24.3333 19.7291C24.3333 19.4638 24.1183 19.2488 23.853 19.2488Z" fill="#F0792E"/>
</svg>
