<svg width="22" height="22" viewBox="0 0 22 22" fill="none" xmlns="http://www.w3.org/2000/svg">
<g opacity="0.6">
<path opacity="0.6" d="M9.53353 2.19995C5.49213 2.19995 2.2002 5.49188 2.2002 9.53329C2.2002 13.5747 5.49213 16.8666 9.53353 16.8666C11.291 16.8666 12.9049 16.2425 14.1699 15.2066L18.5484 19.5851C18.6159 19.6555 18.6969 19.7117 18.7864 19.7504C18.876 19.7891 18.9724 19.8096 19.07 19.8105C19.1675 19.8115 19.2643 19.7931 19.3546 19.7562C19.445 19.7193 19.527 19.6648 19.596 19.5958C19.665 19.5268 19.7195 19.4447 19.7564 19.3544C19.7933 19.2641 19.8118 19.1673 19.8108 19.0697C19.8098 18.9721 19.7893 18.8758 19.7506 18.7862C19.7119 18.6966 19.6557 18.6157 19.5854 18.5481L15.2068 14.1696C16.2428 12.9047 16.8669 11.2907 16.8669 9.53329C16.8669 5.49188 13.5749 2.19995 9.53353 2.19995ZM9.53353 3.66662C12.7823 3.66662 15.4002 6.28453 15.4002 9.53329C15.4002 12.782 12.7823 15.4 9.53353 15.4C6.28477 15.4 3.66686 12.782 3.66686 9.53329C3.66686 6.28453 6.28477 3.66662 9.53353 3.66662Z" fill="#182942" stroke="#182942"/>
</g>
</svg>
