<svg width="17" height="13" viewBox="0 0 17 13" fill="none" xmlns="http://www.w3.org/2000/svg">
<path d="M14.3654 12.137L14.3656 12.137C15.0234 12.1362 15.654 11.8746 16.1191 11.4095C16.5842 10.9443 16.8458 10.3137 16.8466 9.65599V9.65581V2.63483V2.63465C16.8458 1.97689 16.5842 1.34629 16.1191 0.881185C15.654 0.416077 15.0234 0.154441 14.3656 0.153668H14.3654L2.63458 0.153668L2.6344 0.153668C1.97664 0.154441 1.34604 0.416077 0.880935 0.881185C0.415827 1.34629 0.154191 1.97689 0.153418 2.63465V2.63483L0.153418 9.65581L0.153418 9.65599C0.154191 10.3137 0.415827 10.9443 0.880935 11.4095C1.34604 11.8746 1.97664 12.1362 2.6344 12.137H2.63458L14.3654 12.137ZM1.67826 1.67851C1.93189 1.42488 2.27589 1.28239 2.63458 1.28239H14.3654C14.7241 1.28239 15.0681 1.42488 15.3217 1.67851C15.5754 1.93214 15.7179 2.27614 15.7179 2.63483V9.65581C15.7179 10.0145 15.5754 10.3585 15.3217 10.6121C15.0681 10.8658 14.7241 11.0083 14.3654 11.0083H2.63458C2.27589 11.0083 1.93189 10.8658 1.67826 10.6121C1.42463 10.3585 1.28214 10.0145 1.28214 9.65581V2.63483C1.28214 2.27614 1.42463 1.93214 1.67826 1.67851Z" fill="white" stroke="white" stroke-width="0.3"/>
<path d="M8.5005 7.96259C9.04052 7.96339 9.56609 7.78817 9.9976 7.46348L9.99791 7.46325L16.3898 2.62895C16.4508 2.58564 16.5026 2.53062 16.5422 2.46709C16.5823 2.40272 16.609 2.33094 16.6208 2.25601C16.6325 2.18109 16.629 2.10458 16.6105 2.03104C16.592 1.95749 16.5589 1.88843 16.5131 1.82798C16.4673 1.76752 16.4098 1.71692 16.344 1.67918C16.2783 1.64144 16.2056 1.61735 16.1303 1.60834C16.055 1.59933 15.9786 1.60558 15.9058 1.62673C15.8339 1.6476 15.767 1.68254 15.7087 1.72952L9.31772 6.56865C9.31756 6.56877 9.3174 6.56889 9.31724 6.56901C9.0813 6.74497 8.79484 6.84003 8.5005 6.84003C8.20613 6.84003 7.91964 6.74495 7.68369 6.56896C7.68355 6.56886 7.68342 6.56875 7.68328 6.56865L1.29226 1.72953C1.23404 1.68255 1.16706 1.6476 1.0952 1.62673C1.02237 1.60558 0.946034 1.59933 0.870738 1.60834C0.795443 1.61735 0.722735 1.64144 0.656958 1.67918C0.591182 1.71692 0.533685 1.76752 0.487902 1.82798C0.44212 1.88843 0.40899 1.95749 0.390492 2.03103C0.371994 2.10458 0.368507 2.18109 0.380239 2.25601C0.391971 2.33093 0.418682 2.40272 0.458777 2.46709C0.498351 2.53062 0.550163 2.58564 0.611188 2.62894L7.00309 7.46325L7.00339 7.46348C7.4349 7.78817 7.96048 7.96339 8.5005 7.96259ZM8.5005 7.96259C8.50042 7.96259 8.50034 7.96259 8.50026 7.96259L8.5005 7.80897L8.50074 7.96259C8.50066 7.96259 8.50058 7.96259 8.5005 7.96259Z" fill="white" stroke="white" stroke-width="0.3"/>
<path d="M0.877594 10.9929C1.01699 10.9943 1.15178 10.9431 1.25502 10.8494C1.25522 10.8493 1.25542 10.8491 1.25561 10.8489L6.29293 6.35638L6.293 6.35632C6.40473 6.25656 6.47225 6.11651 6.48072 5.96696C6.48918 5.81742 6.43789 5.67063 6.33813 5.5589L6.22407 5.66075L6.33813 5.5589C6.23838 5.44717 6.09832 5.37965 5.94877 5.37118C5.79926 5.36272 5.6525 5.41399 5.54078 5.51371C5.54076 5.51373 5.54074 5.51375 5.54072 5.51377L0.502387 10.0072M0.877594 10.9929C0.763493 10.9929 0.652074 10.9583 0.55804 10.8936L0.64437 10.7681L0.558039 10.8936C0.463721 10.8288 0.391353 10.7368 0.350537 10.6298C0.309721 10.5229 0.302387 10.4061 0.329507 10.2949C0.356628 10.1837 0.416921 10.0833 0.502387 10.0072M0.877594 10.9929C0.877252 10.9929 0.87691 10.9929 0.876568 10.9929L0.878402 10.8393M0.877594 10.9929C0.877939 10.9929 0.878283 10.9929 0.878627 10.9929L0.878402 10.8393M0.502387 10.0072L0.604573 10.1219M0.502387 10.0072L0.502326 10.0072L0.604573 10.1219M0.604573 10.1219C0.542371 10.1773 0.498489 10.2503 0.478751 10.3313C0.459013 10.4122 0.464351 10.4972 0.494057 10.575C0.523763 10.6529 0.576432 10.7198 0.645077 10.767C0.713722 10.8142 0.795096 10.8394 0.878402 10.8393M0.604573 10.1219L0.878402 10.8393M16.1216 10.9929C15.9818 10.9946 15.8466 10.9433 15.7431 10.8494C15.7429 10.8492 15.7427 10.8491 15.7425 10.8489L10.7052 6.35638L10.7051 6.35632C10.6498 6.30693 10.6048 6.24712 10.5725 6.18031C10.5403 6.1135 10.5216 6.04101 10.5174 5.96696C10.5132 5.89291 10.5237 5.81877 10.5481 5.74875C10.5726 5.67874 10.6106 5.61423 10.66 5.5589C10.7094 5.50358 10.7692 5.45853 10.836 5.42632C10.9028 5.39411 10.9753 5.37538 11.0494 5.37118C11.1234 5.36699 11.1975 5.37743 11.2676 5.40189L11.2169 5.54691L11.2676 5.40189C11.3376 5.42636 11.4021 5.46437 11.4574 5.51377L16.493 10.0072L16.1216 10.9929ZM16.1216 10.9929C16.2343 10.9921 16.3444 10.9576 16.4374 10.8936C16.5317 10.8288 16.604 10.7368 16.6449 10.6298C16.6857 10.5229 16.693 10.4061 16.6659 10.2949C16.6388 10.1837 16.5785 10.0834 16.4931 10.0073L16.1216 10.9929Z" fill="white" stroke="white" stroke-width="0.3"/>
</svg>
