<svg width="104" height="93" viewBox="0 0 104 93" fill="none" xmlns="http://www.w3.org/2000/svg">
<path d="M48.0433 0.26374C77.3613 -2.25945 77.4204 13.7812 90.6348 28.7368C103.849 43.6925 106.675 50.4616 101.695 67.711C96.716 84.9605 79.9172 98.4619 59.1605 90.8051C38.4038 83.1484 26.4992 90.5024 13.4031 83.6943C0.306884 76.8863 -4.56606 63.7565 5.02851 48.2755C14.6231 32.7946 11.8828 3.38791 48.0433 0.26374Z" fill="#92140C"/>
<path d="M40.4275 23.0847C40.7325 23.7998 40.817 24.5908 40.6702 25.3578C40.5234 26.1248 40.152 26.8332 39.6028 27.3934C39.0537 27.9536 38.3517 28.3404 37.5855 28.5049C36.8193 28.6694 36.0234 28.6041 35.2986 28.3174C34.5737 28.0307 33.9525 27.5353 33.5135 26.8941C33.0745 26.2529 32.8375 25.4946 32.8325 24.7152C32.8274 23.9358 33.0546 23.1703 33.4852 22.5156C33.9158 21.8608 34.5304 21.3464 35.2514 21.0372C35.7293 20.8316 36.2423 20.7215 36.7611 20.7131C37.2799 20.7048 37.7943 20.7983 38.275 20.9885C38.7557 21.1786 39.1932 21.4616 39.5625 21.8213C39.9319 22.181 40.2258 22.6103 40.4275 23.0847Z" fill="#F9C0A8"/>
<path d="M39.5601 23.4573C39.7925 24.0023 39.8569 24.6051 39.745 25.1896C39.6331 25.7741 39.3499 26.3139 38.9315 26.7408C38.513 27.1677 37.9779 27.4624 37.394 27.5877C36.8101 27.713 36.2036 27.6632 35.6512 27.4446C35.0989 27.226 34.6255 26.8485 34.291 26.3598C33.9566 25.8711 33.776 25.2932 33.7723 24.6992C33.7686 24.1052 33.9418 23.5219 34.27 23.023C34.5982 22.5241 35.0668 22.1321 35.6163 21.8967C35.9804 21.7401 36.3713 21.6562 36.7666 21.6499C37.1619 21.6436 37.5539 21.7149 37.9202 21.8598C38.2864 22.0048 38.6198 22.2205 38.9011 22.4946C39.1825 22.7687 39.4064 23.0958 39.5601 23.4573Z" fill="#FCD3C3"/>
<path d="M36.7408 23.0081C36.8294 22.9202 36.8319 22.7794 36.7464 22.6935C36.661 22.6077 36.5199 22.6094 36.4312 22.6973L35.1608 23.9577C35.0722 24.0456 35.0697 24.1865 35.1551 24.2723C35.2406 24.3581 35.3817 24.3564 35.4703 24.2685L35.8344 23.9073C35.9848 23.7577 36.2063 23.7071 36.4008 23.7779L35.6885 24.4846C35.6 24.5724 35.5975 24.7134 35.6829 24.7992C35.7684 24.885 35.9095 24.8833 35.9981 24.7954L36.7103 24.0888C36.7792 24.2836 36.7273 24.5038 36.5773 24.6533L36.2132 25.0146C36.1474 25.0799 36.127 25.1775 36.1616 25.2609C36.1962 25.3443 36.2788 25.3968 36.3702 25.3933L38.1062 25.3241C38.1633 25.3215 38.2178 25.2972 38.2586 25.2563C38.3025 25.2123 38.3273 25.1531 38.3278 25.0919C38.3272 25.0331 38.3032 24.9776 38.2611 24.9377C38.219 24.8978 38.1621 24.8767 38.1031 24.8791L36.9253 24.926C37.2204 24.5985 37.2706 24.1228 37.0488 23.7562L37.2685 23.5382C37.3571 23.4502 37.3597 23.3094 37.2742 23.2236C37.1887 23.1377 37.0476 23.1394 36.959 23.2273L36.7393 23.4453C36.6435 23.3864 36.5375 23.345 36.4263 23.3232L36.7423 23.0097L36.7408 23.0081Z" fill="#F38D5D"/>
<path d="M39.523 23.3728C39.5058 23.3763 39.4438 23.2649 39.3092 23.0731C39.1215 22.8029 38.8925 22.5637 38.6303 22.3644C38.4499 22.2292 38.2551 22.1139 38.0495 22.0207C37.8129 21.9158 37.5635 21.8417 37.3074 21.8003C37.1698 21.7771 37.0305 21.7644 36.8908 21.7625C36.5952 21.7568 36.3 21.7954 36.0152 21.8772C35.8658 21.9206 35.7198 21.975 35.5783 22.04C35.4375 22.1067 35.3015 22.1833 35.1715 22.2692C35.046 22.3538 34.9271 22.4478 34.8159 22.5504C34.7077 22.6484 34.6075 22.7549 34.5165 22.8688C34.4281 22.9785 34.3479 23.0944 34.2766 23.2157C34.1433 23.4386 34.0391 23.6774 33.9668 23.9263C33.9042 24.1438 33.866 24.3674 33.8529 24.5928C33.8354 24.9225 33.8692 25.2525 33.9532 25.5709C34.013 25.7979 34.0603 25.9212 34.0438 25.9286C34.0273 25.9359 33.9552 25.8236 33.8678 25.5983C33.746 25.2765 33.6856 24.9345 33.6896 24.5895C33.6958 24.0711 33.8358 23.5618 34.0962 23.1107C34.2496 22.8436 34.4417 22.6002 34.6661 22.3885C34.785 22.2767 34.9127 22.1745 35.0479 22.0831C35.1874 21.9893 35.3338 21.9062 35.4859 21.8346C35.6387 21.7642 35.7966 21.7056 35.9583 21.6595C36.1153 21.6139 36.2757 21.5811 36.4379 21.5613C36.5937 21.5428 36.7507 21.5365 36.9072 21.5427C37.0573 21.5474 37.2066 21.5637 37.3539 21.5913C37.6249 21.643 37.8873 21.7308 38.134 21.8525C38.3472 21.957 38.5469 22.0864 38.7291 22.2379C38.9947 22.4572 39.2166 22.7242 39.3835 23.0252C39.5003 23.2375 39.5359 23.3672 39.523 23.3728Z" fill="#F38D5D"/>
<path d="M62.8254 70.6661C62.7514 71.2774 62.4961 71.8534 62.0917 72.3214C61.6872 72.7894 61.1519 73.1282 60.5534 73.295C59.9548 73.4618 59.3201 73.4491 58.7294 73.2585C58.1387 73.0679 57.6186 72.7079 57.2349 72.2242C56.8513 71.7405 56.6213 71.1547 56.5741 70.541C56.527 69.9273 56.6647 69.3133 56.9699 68.7766C57.2751 68.24 57.7341 67.8049 58.2887 67.5263C58.8434 67.2477 59.4688 67.1383 60.0858 67.2117C60.495 67.26 60.8905 67.3876 61.2497 67.5873C61.6088 67.787 61.9247 68.0549 62.1791 68.3757C62.4335 68.6965 62.6215 69.0639 62.7324 69.4569C62.8433 69.8499 62.8749 70.2608 62.8254 70.6661Z" fill="#F9C0A8"/>
<path d="M62.0831 70.5779C62.0268 71.0438 61.8322 71.4828 61.5239 71.8394C61.2157 72.196 60.8077 72.4542 60.3516 72.5812C59.8955 72.7083 59.4117 72.6986 58.9616 72.5533C58.5114 72.408 58.1151 72.1336 57.8228 71.7649C57.5305 71.3963 57.3553 70.9498 57.3194 70.4821C57.2835 70.0145 57.3886 69.5465 57.6212 69.1376C57.8539 68.7287 58.2037 68.3972 58.6265 68.185C59.0492 67.9728 59.5258 67.8894 59.996 67.9455C60.3078 67.9823 60.6091 68.0796 60.8828 68.2318C61.1564 68.384 61.3971 68.5882 61.5909 68.8327C61.7847 69.0771 61.928 69.3571 62.0124 69.6566C62.0969 69.956 62.1209 70.2691 62.0831 70.5779Z" fill="#FCD3C3"/>
<path d="M60.3267 69.1528C60.4223 69.1276 60.4798 69.032 60.4551 68.9392C60.4305 68.8465 60.333 68.7917 60.2375 68.8169L58.8668 69.1784C58.7712 69.2036 58.7137 69.2992 58.7384 69.3919C58.763 69.4847 58.8604 69.5394 58.956 69.5142L59.3489 69.4106C59.5112 69.3675 59.6832 69.4205 59.7886 69.5462L59.0202 69.7488C58.9246 69.774 58.8671 69.8697 58.8917 69.9624C58.9163 70.0551 59.0138 70.1098 59.1094 70.0846L59.8778 69.882C59.8479 70.0429 59.725 70.1734 59.563 70.2166L59.1701 70.3201C59.0992 70.3389 59.0465 70.3978 59.0372 70.4687C59.0279 70.5396 59.0638 70.6083 59.1278 70.6421L60.346 71.2821C60.3862 71.303 60.4333 71.3079 60.4775 71.296C60.525 71.2832 60.5655 71.2524 60.59 71.2106C60.6129 71.1701 60.6184 71.1225 60.6054 71.0784C60.5923 71.0344 60.5616 70.9974 60.5202 70.9757L59.6937 70.5414C60.0258 70.4336 60.2486 70.1272 60.2417 69.7879L60.4788 69.7253C60.5744 69.7001 60.6319 69.6045 60.6072 69.5118C60.5826 69.4191 60.4852 69.3643 60.3896 69.3895L60.1525 69.4521C60.1101 69.3737 60.0538 69.3034 59.9862 69.2444L60.3271 69.1545L60.3267 69.1528Z" fill="#F38D5D"/>
<path d="M62.0909 70.5055C62.0777 70.5011 62.0793 70.4001 62.0629 70.2152C62.0412 69.9555 61.9788 69.7008 61.878 69.4602C61.8077 69.296 61.7198 69.1399 61.6157 68.9944C61.4949 68.8288 61.3532 68.6792 61.1939 68.5494C61.1087 68.479 61.0182 68.4151 60.9231 68.3585C60.7226 68.2375 60.5048 68.1471 60.2771 68.0904C60.1574 68.061 60.0357 68.0405 59.9129 68.0291C59.7899 68.019 59.6663 68.0177 59.5431 68.0252C59.4235 68.0335 59.3047 68.0509 59.1878 68.0772C59.0748 68.1016 58.9639 68.135 58.8563 68.177C58.7523 68.2172 58.6513 68.265 58.5544 68.32C58.3747 68.4201 58.2087 68.5427 58.0605 68.6847C57.9314 68.8091 57.8166 68.9473 57.7184 69.0968C57.5758 69.316 57.4683 69.5557 57.3999 69.8074C57.351 69.9868 57.3346 70.0902 57.3203 70.0887C57.3061 70.0872 57.3011 69.9816 57.3304 69.7924C57.3743 69.5235 57.4683 69.2649 57.6077 69.0299C57.8172 68.6767 58.115 68.3828 58.4722 68.1765C58.6833 68.0541 58.9114 67.9632 59.1492 67.9069C59.275 67.8772 59.4031 67.8577 59.5321 67.8485C59.6649 67.8394 59.7982 67.8405 59.9309 67.8515C60.0636 67.8637 60.1951 67.8861 60.3242 67.9185C60.45 67.9494 60.5731 67.9904 60.6921 68.0411C60.8064 68.0901 60.9165 68.148 61.0214 68.2142C61.1225 68.2769 61.2185 68.3472 61.3086 68.4244C61.474 68.5672 61.6192 68.7314 61.7403 68.9126C61.8451 69.0686 61.9309 69.2365 61.9958 69.4126C62.0911 69.6682 62.1376 69.9392 62.1329 70.2118C62.1289 70.4037 62.102 70.5067 62.0909 70.5055Z" fill="#F38D5D"/>
<path d="M30.5684 26.2858C30.81 26.8521 30.8769 27.4787 30.7606 28.0862C30.6444 28.6937 30.3502 29.2548 29.9152 29.6985C29.4803 30.1422 28.9242 30.4486 28.3174 30.5789C27.7105 30.7092 27.0801 30.6575 26.506 30.4304C25.9319 30.2033 25.4398 29.8109 25.0921 29.3031C24.7444 28.7952 24.5567 28.1945 24.5527 27.5772C24.5487 26.9599 24.7286 26.3535 25.0697 25.835C25.4107 25.3164 25.8976 24.9089 26.4687 24.664C26.8472 24.5012 27.2535 24.414 27.6644 24.4073C28.0753 24.4007 28.4828 24.4748 28.8635 24.6254C29.2443 24.776 29.5908 25.0002 29.8833 25.2851C30.1758 25.57 30.4086 25.91 30.5684 26.2858Z" fill="#F9C0A8"/>
<path d="M29.8804 26.581C30.0645 27.0126 30.1154 27.4901 30.0268 27.9531C29.9382 28.416 29.7139 28.8436 29.3825 29.1817C29.051 29.5198 28.6272 29.7533 28.1647 29.8525C27.7022 29.9518 27.2218 29.9123 26.7843 29.7392C26.3468 29.5661 25.9719 29.267 25.707 28.8799C25.4421 28.4928 25.2991 28.0351 25.2961 27.5646C25.2931 27.0942 25.4303 26.6321 25.6903 26.237C25.9503 25.8419 26.3214 25.5314 26.7566 25.3449C27.045 25.2208 27.3547 25.1544 27.6678 25.1494C27.9809 25.1444 28.2914 25.2009 28.5815 25.3157C28.8715 25.4305 29.1356 25.6014 29.3584 25.8185C29.5813 26.0356 29.7587 26.2947 29.8804 26.581Z" fill="#FCD3C3"/>
<path d="M27.6483 26.2246C27.7185 26.1549 27.7205 26.0434 27.6528 25.9754C27.5851 25.9075 27.4733 25.9087 27.4032 25.9784L26.3969 26.9767C26.3267 27.0463 26.3247 27.1579 26.3924 27.2259C26.4601 27.2938 26.5719 27.2925 26.642 27.2229L26.9305 26.9368C27.0495 26.8183 27.225 26.7782 27.3791 26.8343L26.8149 27.394C26.7448 27.4636 26.7428 27.5752 26.8104 27.6432C26.8781 27.7112 26.9899 27.7098 27.0601 27.6402L27.6242 27.0805C27.6788 27.2348 27.6376 27.4093 27.5188 27.5277L27.2304 27.8138C27.1784 27.8656 27.1622 27.9429 27.1896 28.0089C27.217 28.075 27.2824 28.1165 27.3548 28.1138L28.7298 28.059C28.775 28.0569 28.8182 28.0377 28.8505 28.0052C28.8853 27.9704 28.905 27.9235 28.9053 27.8751C28.9049 27.8285 28.8859 27.7845 28.8525 27.7529C28.8192 27.7213 28.7741 27.7046 28.7274 27.7065L27.7945 27.7437C28.0282 27.4843 28.068 27.1075 27.8923 26.8171L28.0664 26.6444C28.1365 26.5748 28.1385 26.4632 28.0708 26.3952C28.0031 26.3272 27.8914 26.3286 27.8212 26.3982L27.6471 26.5709C27.5713 26.5242 27.4873 26.4914 27.3993 26.4741L27.6496 26.2258L27.6483 26.2246Z" fill="#F38D5D"/>
<path d="M29.8527 26.5148C29.839 26.5176 29.79 26.4294 29.6833 26.2774C29.5346 26.0634 29.3532 25.874 29.1456 25.716C29.0027 25.609 28.8484 25.5177 28.6855 25.4438C28.4981 25.3608 28.3006 25.3021 28.0978 25.2693C27.9888 25.2509 27.8785 25.2409 27.7678 25.2393C27.5337 25.2348 27.2999 25.2654 27.0743 25.3301C26.956 25.3645 26.8403 25.4076 26.7282 25.4591C26.6167 25.512 26.509 25.5726 26.406 25.6407C26.3066 25.7077 26.2124 25.7821 26.1243 25.8634C26.0386 25.941 25.9593 26.0254 25.8872 26.1156C25.8172 26.2024 25.7537 26.2943 25.6972 26.3903C25.5916 26.5669 25.5091 26.7561 25.4518 26.9532C25.4022 27.1255 25.3719 27.3025 25.3616 27.4811C25.3477 27.7422 25.3745 28.0036 25.4411 28.2558C25.4884 28.4356 25.5259 28.5333 25.5128 28.5391C25.4997 28.5449 25.4426 28.456 25.3734 28.2775C25.2769 28.0227 25.2291 27.7517 25.2322 27.4785C25.2371 27.0679 25.348 26.6645 25.5543 26.3072C25.6758 26.0956 25.828 25.9029 26.0057 25.7352C26.0999 25.6466 26.201 25.5657 26.3081 25.4932C26.4186 25.4189 26.5346 25.3532 26.655 25.2964C26.776 25.2406 26.9011 25.1943 27.0292 25.1578C27.1536 25.1216 27.2806 25.0956 27.4091 25.08C27.5325 25.0653 27.6568 25.0603 27.7808 25.0652C27.8997 25.069 28.0179 25.0818 28.1346 25.1037C28.3492 25.1447 28.557 25.2142 28.7525 25.3106C28.9213 25.3934 29.0795 25.4958 29.2238 25.6159C29.4342 25.7896 29.6099 26.001 29.7422 26.2394C29.8347 26.4076 29.8629 26.5103 29.8527 26.5148Z" fill="#F38D5D"/>
<path d="M56.3313 75.5169C56.238 76.2887 55.9156 77.016 55.405 77.6068C54.8944 78.1976 54.2185 78.6254 53.4628 78.836C52.7072 79.0466 51.9058 79.0306 51.16 78.7899C50.4142 78.5493 49.7576 78.0948 49.2732 77.4841C48.7888 76.8734 48.4985 76.1338 48.439 75.359C48.3794 74.5842 48.5533 73.809 48.9386 73.1315C49.324 72.4539 49.9034 71.9046 50.6037 71.5529C51.3039 71.2012 52.0935 71.063 52.8725 71.1557C53.3891 71.2166 53.8885 71.3777 54.3419 71.6299C54.7954 71.882 55.1942 72.2203 55.5154 72.6253C55.8366 73.0303 56.074 73.4942 56.214 73.9903C56.354 74.4865 56.3938 75.0052 56.3313 75.5169Z" fill="#F9C0A8"/>
<path d="M55.3942 75.4064C55.3231 75.9945 55.0774 76.5487 54.6882 76.999C54.299 77.4492 53.7839 77.7752 53.2081 77.9356C52.6322 78.0961 52.0215 78.0838 51.4531 77.9003C50.8848 77.7169 50.3844 77.3705 50.0154 76.905C49.6463 76.4395 49.4252 75.8759 49.3799 75.2854C49.3346 74.695 49.4672 74.1042 49.7609 73.5879C50.0547 73.0717 50.4963 72.6531 51.03 72.3852C51.5637 72.1173 52.1655 72.012 52.7591 72.0829C53.1528 72.1293 53.5332 72.2521 53.8787 72.4443C54.2242 72.6365 54.528 72.8943 54.7728 73.2029C55.0175 73.5116 55.1983 73.865 55.3049 74.2431C55.4116 74.6212 55.4419 75.0165 55.3942 75.4064Z" fill="#FCD3C3"/>
<path d="M53.1754 73.6067C53.2961 73.5749 53.3687 73.4542 53.3376 73.3371C53.3065 73.2201 53.1834 73.1509 53.0627 73.1827L51.3323 73.639C51.2116 73.6709 51.139 73.7916 51.1701 73.9086C51.2012 74.0257 51.3242 74.0948 51.4449 74.063L51.9409 73.9322C52.1459 73.8778 52.363 73.9448 52.4961 74.1034L51.5259 74.3592C51.4053 74.391 51.3326 74.5118 51.3637 74.6288C51.3948 74.7459 51.5179 74.815 51.6385 74.7832L52.6087 74.5274C52.5709 74.7305 52.4158 74.8953 52.2112 74.9498L51.7152 75.0805C51.6256 75.1043 51.5591 75.1786 51.5474 75.2681C51.5356 75.3576 51.581 75.4443 51.6618 75.4871L53.1998 76.2951C53.2506 76.3214 53.31 76.3276 53.3658 76.3126C53.4258 76.2964 53.4769 76.2575 53.5078 76.2048C53.5368 76.1536 53.5438 76.0935 53.5272 76.0379C53.5107 75.9823 53.472 75.9356 53.4197 75.9082L52.3762 75.3599C52.7955 75.2238 53.0769 74.8369 53.0681 74.4085L53.3674 74.3296C53.4881 74.2978 53.5607 74.1771 53.5296 74.06C53.4985 73.9429 53.3755 73.8738 53.2548 73.9056L52.9555 73.9845C52.902 73.8857 52.8309 73.7968 52.7455 73.7223L53.1759 73.6088L53.1754 73.6067Z" fill="#F38D5D"/>
<path d="M55.4039 75.3151C55.3871 75.3095 55.3892 75.182 55.3685 74.9486C55.3411 74.6207 55.2623 74.2991 55.135 73.9954C55.0463 73.7881 54.9353 73.5909 54.8038 73.4073C54.6513 73.1982 54.4724 73.0094 54.2713 72.8454C54.1638 72.7565 54.0495 72.6759 53.9294 72.6043C53.6763 72.4516 53.4014 72.3375 53.1138 72.2659C52.9627 72.2288 52.8091 72.2029 52.654 72.1885C52.4987 72.1758 52.3427 72.1742 52.1871 72.1835C52.0361 72.194 51.8861 72.216 51.7385 72.2493C51.5958 72.28 51.4559 72.3222 51.32 72.3753C51.1887 72.4261 51.0613 72.4864 50.9389 72.5558C50.7119 72.6822 50.5024 72.8369 50.3153 73.0163C50.1523 73.1733 50.0074 73.3478 49.8834 73.5366C49.7033 73.8133 49.5677 74.116 49.4812 74.4337C49.4195 74.6602 49.3988 74.7907 49.3808 74.7888C49.3628 74.7869 49.3566 74.6536 49.3935 74.4148C49.4489 74.0752 49.5676 73.7488 49.7436 73.452C50.0081 73.0062 50.3841 72.6351 50.8351 72.3746C51.1016 72.2201 51.3896 72.1053 51.6898 72.0342C51.8487 71.9968 52.0103 71.9722 52.1732 71.9606C52.3409 71.9491 52.5092 71.9504 52.6767 71.9644C52.8442 71.9797 53.0103 72.008 53.1733 72.0489C53.3322 72.088 53.4875 72.1397 53.6378 72.2037C53.782 72.2655 53.9211 72.3386 54.0536 72.4223C54.1811 72.5014 54.3024 72.5901 54.4161 72.6876C54.6249 72.8679 54.8082 73.0752 54.9611 73.3039C55.0935 73.501 55.2017 73.7129 55.2837 73.9353C55.4041 74.258 55.4628 74.6001 55.4569 74.9442C55.4518 75.1865 55.4178 75.3166 55.4039 75.3151Z" fill="#F38D5D"/>
<g clip-path="url(#clip0_176_4518)">
<path d="M76.8002 37.9953L63.7617 37.3657L62.8076 56.8005L75.8461 57.43L76.8002 37.9953Z" fill="white" stroke="#263238" stroke-width="0.114759" stroke-linecap="round" stroke-linejoin="round"/>
<path d="M64.6746 38.7368L68.0686 38.8939" stroke="#263238" stroke-width="0.229517" stroke-linecap="round" stroke-linejoin="round"/>
<path d="M64.6443 39.3832L66.9526 39.4892" stroke="#263238" stroke-width="0.229517" stroke-linecap="round" stroke-linejoin="round"/>
<path d="M65.3985 40.947L75.1608 41.3976" stroke="#263238" stroke-width="0.229517" stroke-linecap="round" stroke-linejoin="round"/>
<path d="M65.3695 41.591L75.1315 42.0431" stroke="#263238" stroke-width="0.229517" stroke-linecap="round" stroke-linejoin="round"/>
<path d="M65.3343 42.3453L73.6595 42.7308" stroke="#263238" stroke-width="0.229517" stroke-linecap="round" stroke-linejoin="round"/>
<path d="M66.1377 43.0709L65.3438 43.0342L65.3068 43.8215L66.1007 43.8582L66.1377 43.0709Z" stroke="#263238" stroke-width="0.114759" stroke-linecap="round" stroke-linejoin="round"/>
<path d="M67.5752 43.1363L66.7812 43.0996L66.7443 43.887L67.5382 43.9236L67.5752 43.1363Z" stroke="#263238" stroke-width="0.114759" stroke-linecap="round" stroke-linejoin="round"/>
<path d="M69.0166 43.2037L68.2227 43.167L68.1857 43.9544L68.9796 43.991L69.0166 43.2037Z" stroke="#263238" stroke-width="0.114759" stroke-linecap="round" stroke-linejoin="round"/>
<path d="M70.456 43.2691L69.6621 43.2324L69.6251 44.0198L70.4191 44.0565L70.456 43.2691Z" stroke="#263238" stroke-width="0.114759" stroke-linecap="round" stroke-linejoin="round"/>
<path d="M64.8809 40.9216C64.8795 40.9609 64.8663 40.9989 64.843 41.0307C64.8197 41.0625 64.7874 41.0868 64.7502 41.1003C64.713 41.1139 64.6725 41.1162 64.634 41.1069C64.5955 41.0976 64.5606 41.0772 64.5338 41.0482C64.507 41.0192 64.4896 40.9829 64.4836 40.944C64.4777 40.9052 64.4835 40.8654 64.5004 40.8298C64.5173 40.7943 64.5444 40.7645 64.5784 40.7443C64.6125 40.7241 64.6518 40.7143 64.6913 40.7163C64.7438 40.719 64.7931 40.742 64.8286 40.7804C64.8641 40.8188 64.8829 40.8695 64.8809 40.9216Z" fill="#263238"/>
<path d="M65.2228 44.7151L74.985 45.1657" stroke="#263238" stroke-width="0.229517" stroke-linecap="round" stroke-linejoin="round"/>
<path d="M65.1917 45.36L74.9538 45.8122" stroke="#263238" stroke-width="0.229517" stroke-linecap="round" stroke-linejoin="round"/>
<path d="M65.1563 46.1153L73.4817 46.4993" stroke="#263238" stroke-width="0.229517" stroke-linecap="round" stroke-linejoin="round"/>
<path d="M65.9599 46.8389L65.166 46.8022L65.129 47.5896L65.923 47.6263L65.9599 46.8389Z" stroke="#263238" stroke-width="0.114759" stroke-linecap="round" stroke-linejoin="round"/>
<path d="M67.3994 46.9058L66.6055 46.8691L66.5685 47.6565L67.3624 47.6932L67.3994 46.9058Z" stroke="#263238" stroke-width="0.114759" stroke-linecap="round" stroke-linejoin="round"/>
<path d="M68.8389 46.9727L68.0449 46.936L68.0079 47.7234L68.8019 47.7601L68.8389 46.9727Z" stroke="#263238" stroke-width="0.114759" stroke-linecap="round" stroke-linejoin="round"/>
<path d="M70.2783 47.0386L69.4844 47.002L69.4474 47.7893L70.2413 47.826L70.2783 47.0386Z" stroke="#263238" stroke-width="0.114759" stroke-linecap="round" stroke-linejoin="round"/>
<path d="M64.7031 44.6917C64.7014 44.7309 64.6879 44.7687 64.6644 44.8004C64.641 44.832 64.6085 44.856 64.5713 44.8693C64.5341 44.8826 64.4937 44.8847 64.4553 44.8752C64.4168 44.8657 64.3821 44.8451 64.3555 44.8161C64.3289 44.787 64.3116 44.7508 64.3058 44.7119C64.3 44.6731 64.3059 44.6334 64.3229 44.5979C64.3398 44.5625 64.367 44.5328 64.401 44.5127C64.435 44.4925 64.4742 44.4829 64.5138 44.4849C64.5665 44.4876 64.616 44.5108 64.6514 44.5496C64.6869 44.5883 64.7055 44.6394 64.7031 44.6917Z" fill="#263238"/>
<path d="M65.0453 48.4831L74.8073 48.9352" stroke="#263238" stroke-width="0.229517" stroke-linecap="round" stroke-linejoin="round"/>
<path d="M65.0138 49.1306L74.7745 49.581" stroke="#263238" stroke-width="0.229517" stroke-linecap="round" stroke-linejoin="round"/>
<path d="M64.9786 49.8844L73.304 50.2684" stroke="#263238" stroke-width="0.229517" stroke-linecap="round" stroke-linejoin="round"/>
<path d="M65.7842 50.6075L64.9902 50.5708L64.9533 51.3582L65.7472 51.3948L65.7842 50.6075Z" stroke="#263238" stroke-width="0.114759" stroke-linecap="round" stroke-linejoin="round"/>
<path d="M67.2236 50.6744L66.4297 50.6377L66.3927 51.4251L67.1866 51.4617L67.2236 50.6744Z" stroke="#263238" stroke-width="0.114759" stroke-linecap="round" stroke-linejoin="round"/>
<path d="M68.6631 50.7422L67.8691 50.7056L67.8322 51.4929L68.6261 51.5296L68.6631 50.7422Z" stroke="#263238" stroke-width="0.114759" stroke-linecap="round" stroke-linejoin="round"/>
<path d="M70.1006 50.8082L69.3066 50.7715L69.2697 51.5589L70.0636 51.5955L70.1006 50.8082Z" stroke="#263238" stroke-width="0.114759" stroke-linecap="round" stroke-linejoin="round"/>
<path d="M64.5254 48.4603C64.5236 48.4995 64.5102 48.5373 64.4867 48.5689C64.4632 48.6005 64.4308 48.6245 64.3936 48.6378C64.3563 48.6512 64.3159 48.6532 64.2775 48.6437C64.2391 48.6343 64.2044 48.6137 64.1778 48.5846C64.1512 48.5556 64.1338 48.5193 64.128 48.4805C64.1222 48.4417 64.1282 48.402 64.1451 48.3665C64.1621 48.331 64.1893 48.3013 64.2233 48.2812C64.2573 48.2611 64.2965 48.2514 64.336 48.2534C64.3887 48.2561 64.4382 48.2794 64.4737 48.3181C64.5092 48.3569 64.5278 48.408 64.5254 48.4603Z" fill="#263238"/>
<path d="M64.8636 52.3591L74.6241 52.811" stroke="#263238" stroke-width="0.229517" stroke-linecap="round" stroke-linejoin="round"/>
<path d="M64.8324 53.006L74.5929 53.4579" stroke="#263238" stroke-width="0.229517" stroke-linecap="round" stroke-linejoin="round"/>
<path d="M64.7952 53.7593L73.1204 54.1449" stroke="#263238" stroke-width="0.229517" stroke-linecap="round" stroke-linejoin="round"/>
<path d="M65.6025 54.4844L64.8086 54.4478L64.7716 55.2351L65.5655 55.2718L65.6025 54.4844Z" stroke="#263238" stroke-width="0.114759" stroke-linecap="round" stroke-linejoin="round"/>
<path d="M67.04 54.5508L66.2461 54.5142L66.2091 55.3015L67.003 55.3382L67.04 54.5508Z" stroke="#263238" stroke-width="0.114759" stroke-linecap="round" stroke-linejoin="round"/>
<path d="M68.4795 54.6172L67.6855 54.5806L67.6486 55.3679L68.4425 55.4046L68.4795 54.6172Z" stroke="#263238" stroke-width="0.114759" stroke-linecap="round" stroke-linejoin="round"/>
<path d="M69.9209 54.6832L69.127 54.6465L69.09 55.4339L69.8839 55.4705L69.9209 54.6832Z" stroke="#263238" stroke-width="0.114759" stroke-linecap="round" stroke-linejoin="round"/>
<path d="M64.3506 52.3369C64.3489 52.3757 64.3356 52.4132 64.3124 52.4445C64.2891 52.4758 64.2571 52.4996 64.2202 52.5129C64.1834 52.5262 64.1434 52.5283 64.1053 52.5191C64.0672 52.5098 64.0328 52.4896 64.0063 52.4609C63.9798 52.4322 63.9625 52.3964 63.9565 52.358C63.9506 52.3195 63.9562 52.2802 63.9728 52.245C63.9894 52.2097 64.0161 52.1801 64.0496 52.16C64.0831 52.1398 64.1219 52.1299 64.1611 52.1316C64.1871 52.1327 64.2127 52.1389 64.2363 52.1498C64.2599 52.1607 64.2812 52.1761 64.2988 52.1952C64.3164 52.2143 64.33 52.2366 64.3389 52.2609C64.3478 52.2852 64.3518 52.311 64.3506 52.3369Z" fill="#263238"/>
<path d="M65.6124 43.3616L65.7166 43.5359L66.137 43.0716" stroke="#263238" stroke-width="0.229517" stroke-linecap="round" stroke-linejoin="round"/>
<path d="M68.3175 47.2156L68.4214 47.3915L68.8421 46.9256" stroke="#263238" stroke-width="0.229517" stroke-linecap="round" stroke-linejoin="round"/>
<path d="M66.6964 50.9958L66.8019 51.172L67.221 50.7059" stroke="#263238" stroke-width="0.229517" stroke-linecap="round" stroke-linejoin="round"/>
<path d="M69.3761 54.9729L69.48 55.1488L69.9007 54.683" stroke="#263238" stroke-width="0.229517" stroke-linecap="round" stroke-linejoin="round"/>
</g>
<path opacity="0.2" d="M64.3372 58.5396C64.3372 58.5396 64.3215 65.9614 64.3372 66.3942C64.3529 66.827 64.9265 69.4336 64.9265 69.4336L63.1016 72.7563L64.6731 74.0062L67.7278 71.0386C67.7278 71.0386 70.3287 72.6263 70.804 74.8971C71.2794 77.1679 74.1102 78.8215 77.047 85.1098C79.9838 91.3982 83.3331 71.0386 83.3331 71.0386L74.2712 59.7681L64.3372 58.5396Z" fill="black" fill-opacity="0.7"/>
<path d="M91.6454 87.558L77.6981 89.9026C77.6981 89.9026 75.27 77.1609 73.8223 75.1521C72.3745 73.1433 72.6436 72.3185 71.9364 70.9657C71.5121 70.1486 69.3827 68.625 67.7149 67.1209C67.5695 66.9908 67.4281 66.8608 67.2925 66.7327C67.2336 66.6803 67.1786 66.624 67.1236 66.5716C66.9016 66.3542 66.6954 66.1427 66.5127 65.935C66.4459 65.8613 66.3804 65.7875 66.3162 65.7138C66.0065 65.3731 65.7759 64.9697 65.6405 64.5318C65.6345 64.5122 65.6305 64.492 65.6287 64.4716C65.623 64.448 65.6191 64.424 65.6169 64.3998C65.5796 64.099 65.5403 63.7554 65.501 63.3828C65.501 63.309 65.4853 63.2314 65.4755 63.1538L65.4637 63.0606C65.4303 62.7501 65.393 62.4201 65.3497 62.0805C65.3065 61.7408 65.2594 61.3565 65.2044 60.9858C65.1867 60.8577 65.169 60.7296 65.1474 60.5977C65.1258 60.454 65.1022 60.3104 65.0786 60.1649L65.0138 59.7922C65.0138 59.7709 65.004 59.7515 65.002 59.734L64.9235 59.2973C64.9181 59.2816 64.9148 59.2653 64.9136 59.2488C64.8861 59.1226 64.8606 58.9984 64.8311 58.8722C64.7702 58.5908 64.7015 58.3152 64.6347 58.0474C64.4995 57.5433 64.3254 57.0502 64.1141 56.5723C63.1083 54.3539 64.4166 55.1555 63.6289 49.4475C63.6289 49.4475 64.2084 48.1238 65.8605 49.1816C65.9881 49.2639 66.1114 49.3526 66.2298 49.4475C66.5646 49.715 66.8601 50.0272 67.1079 50.3752C67.4438 50.849 67.6998 51.3733 67.8662 51.9279C68.1362 52.8274 68.2125 53.7729 68.0901 54.7033C68.0901 54.7033 69.3316 58.9072 69.9858 59.864C70.6399 60.8209 73.3449 55.3244 73.1701 54.6839C73.1087 54.3966 73.0621 54.1064 73.0306 53.8144C73.0188 53.7193 73.007 53.6203 72.9933 53.5116C72.9795 53.4029 72.9677 53.2942 72.956 53.1797C72.956 53.1254 72.9422 53.0672 72.9344 53.0109C72.9344 52.9876 72.9344 52.9643 72.9344 52.9429C72.9108 52.7236 72.8833 52.4907 72.8577 52.2501C72.8577 52.1821 72.844 52.1181 72.8361 52.056L72.8008 51.7066C72.7996 51.6872 72.7996 51.6678 72.8008 51.6484C72.8008 51.5824 72.7851 51.5145 72.7792 51.4446C72.7634 51.3087 72.7497 51.1709 72.7359 51.0331C72.7222 50.8953 72.7124 50.7964 72.7006 50.678C72.677 50.4548 72.6554 50.2316 72.6338 50.0161C72.6181 49.855 72.6024 49.6959 72.5886 49.5406C72.5886 49.5057 72.5886 49.4708 72.5788 49.4378C72.4963 48.5838 72.4315 47.8851 72.4079 47.5823C72.4079 47.5823 70.4435 44.706 70.247 43.3513C70.0506 41.9965 70.0624 40.57 70.8855 39.9897C72.8342 38.6195 72.2606 40.8281 73.1367 41.7365C74.0128 42.6448 75.3467 44.1489 76.1049 44.6167C76.8043 45.0553 77.4289 46.7516 77.5173 47.0078C77.4171 46.6352 76.4173 42.9708 76.3957 42.2333C76.3701 41.457 75.769 37.3501 76.7885 35.877C77.8081 34.4039 79.1674 35.5471 79.2932 35.8382C79.4189 36.1293 79.4562 40.1081 79.8157 41.2144C80.1752 42.3207 81.6799 46.9341 81.6799 46.9341C81.6799 46.9341 81.7428 42.4468 82.0826 40.438C82.4225 38.4293 83.3045 36.8591 84.1689 36.7698C85.0332 36.6805 85.8327 37.6219 85.8327 37.6219C85.8327 37.6219 85.4909 40.8243 85.5891 41.5637C85.6873 42.3032 85.4477 44.9738 85.8583 46.4159C85.8583 46.4159 85.8111 42.5904 86.4122 42.1013C87.0133 41.6122 87.53 41.3774 87.8678 41.7132C88.2057 42.0489 88.2784 44.3081 88.6222 45.6706C88.966 47.033 88.9227 48.8846 89.1487 51.0099C89.3746 53.1351 90.2644 56.0852 90.0876 57.7718C89.9108 59.4584 89.3667 63.6409 88.9286 66.0961C88.4906 68.5513 87.3728 71.9187 87.3728 71.9187C87.3728 71.9187 87.8816 73.7139 87.7834 75.3151C87.6852 76.9164 91.6454 87.558 91.6454 87.558Z" fill="white"/>
<path opacity="0.8" d="M79.7916 41.2113C80.0588 42.0323 80.9506 44.7728 81.3946 46.1411C81.3946 46.1411 79.4459 47.556 79.495 48.8719C79.5441 50.1878 79.1375 52.8428 78.2614 52.7672C77.3852 52.6915 77.4756 47.1659 77.179 46.2381C77.3577 46.6263 77.4717 46.9621 77.4952 47.0261C77.4304 46.7874 76.3893 42.9853 76.3677 42.2322C76.3677 42.0536 76.3264 41.7024 76.2852 41.2462V41.2365C76.2852 41.2365 78.2221 39.4044 79.6443 40.5262C79.6761 40.7579 79.7254 40.9869 79.7916 41.2113Z" fill="#FFE4C8"/>
<path opacity="0.8" d="M85.5831 42.8013C84.6756 43.6534 83.3064 45.1556 83.1335 46.6054C83.1335 46.6054 83.6403 50.654 83.4242 52.4183L81.6562 46.9431C81.6562 46.9431 81.7191 42.4559 82.059 40.4471L82.0884 40.2821C83.1918 39.7265 84.4097 39.429 85.6479 39.4126C85.572 40.1268 85.5464 40.8454 85.5713 41.5631C85.5974 41.9753 85.6013 42.3887 85.5831 42.8013Z" fill="#FFE4C8"/>
<path opacity="0.4" d="M86.3876 42.0939C86.366 42.1094 86.3129 42.1502 86.2363 42.2162C86.2826 42.1287 86.3338 42.0438 86.3896 41.9619L86.3876 42.0939Z" fill="#92E3A9"/>
<path opacity="0.8" d="M86.849 53.2813C86.849 53.2813 85.6822 48.9571 85.6704 45.4752C85.6605 44.1865 85.8118 43.0123 86.2342 42.2185C86.2804 42.131 86.3316 42.0461 86.3874 41.9642V42.0904C86.5976 41.909 86.8315 41.7563 87.0828 41.6362C86.7547 42.1409 86.3776 43.1287 86.8137 44.7416C87.4992 47.2531 86.9021 50.3235 86.849 53.2813Z" fill="#FFE4C8"/>
<path opacity="0.8" d="M70.7539 61.5285C70.7539 61.5285 71.0663 65.6489 67.715 67.124C67.5696 66.9939 67.4282 66.8639 67.2926 66.7358C67.2337 66.6834 67.1787 66.6271 67.1237 66.5747C66.9017 66.3573 66.6955 66.1438 66.5128 65.9381C66.444 65.8624 66.3831 65.7887 66.3163 65.7168C66.0066 65.3762 65.776 64.9728 65.6406 64.5349C65.6348 64.5152 65.6308 64.4951 65.6288 64.4747C65.6231 64.4511 65.6192 64.4271 65.617 64.4029C65.5797 64.102 65.5404 63.7585 65.5011 63.3859C65.5011 63.3121 65.4854 63.2345 65.4756 63.1569L65.4638 63.0637C65.4304 62.7512 65.3931 62.4232 65.3498 62.0836C65.3066 61.7439 65.2595 61.3596 65.2045 60.9889C65.1848 60.8608 65.1671 60.7308 65.1475 60.6007C65.1259 60.4571 65.1023 60.3116 65.0787 60.1679L65.0139 59.7953L65.0021 59.7371C64.9746 59.5915 64.9491 59.4498 64.9196 59.3062C64.9154 59.2902 64.9121 59.274 64.9098 59.2577C64.8823 59.1315 64.8568 59.0054 64.8273 58.8812C64.7644 58.5997 64.6957 58.3241 64.6309 58.0563C65.9568 56.7947 69.0174 57.5866 67.5362 54.6656C67.5362 54.6656 68.2827 52.1658 66.226 49.4564C67.6325 50.5762 68.3534 52.5462 68.0863 54.6967C68.0863 54.6967 69.3278 58.8986 69.9819 59.8574C70.6361 60.8162 73.3411 55.3177 73.1663 54.6753C73.1048 54.3888 73.0589 54.0992 73.0287 53.8078C73.015 53.7127 73.0032 53.6137 72.9914 53.505C72.9796 53.3963 72.9639 53.2876 72.9521 53.1712C72.9521 53.1188 72.9384 53.0605 72.9305 53.0043C72.9305 52.981 72.9305 52.9577 72.9305 52.9363C72.907 52.7151 72.8814 52.4841 72.8539 52.2415C72.8539 52.1755 72.8402 52.1115 72.8323 52.0474C72.8323 51.931 72.8087 51.8145 72.7969 51.6981C72.7959 51.6787 72.7959 51.6592 72.7969 51.6398C72.7969 51.5738 72.7812 51.5059 72.7753 51.436C72.7596 51.2982 72.7478 51.1624 72.7321 51.0246L72.6968 50.6675C72.6732 50.4462 72.6516 50.223 72.63 50.0076C72.6162 49.8445 72.6005 49.6854 72.5848 49.5321C72.5848 49.4971 72.5848 49.4622 72.575 49.4292C72.63 49.6835 73.6259 54.3667 74.1936 55.4594C74.7614 56.5812 72.2901 62.4989 70.7539 61.5285Z" fill="#FFE4C8"/>
<path opacity="0.8" d="M88.9047 66.091C88.4667 68.5481 87.3489 71.9135 87.3489 71.9135C87.3489 71.9135 87.8577 73.7088 87.7595 75.31C87.732 75.7409 88.0031 76.8278 88.4077 78.1883C88.2918 77.8894 87.0326 74.6831 87.0601 73.5633C87.0837 72.3988 86.7458 72.0669 86.0779 70.6248C85.41 69.1828 84.4062 69.34 84.4062 69.34C84.4062 69.34 84.0133 72.9383 83.1018 70.5744C82.1903 68.2104 82.0116 65.4602 84.3158 55.9112C84.3158 55.9112 84.6635 57.1087 84.3728 60.6663C84.0821 64.2239 84.9425 65.3011 84.9425 65.3011C86.2382 63.071 87.2666 60.6995 88.007 58.2344C88.007 58.2344 87.7084 62.3859 87.4432 64.2763C87.178 66.1667 88.3881 62.0851 89.2328 59.5639C90.0185 57.1961 90.0559 56.2975 89.7534 54.6128C89.9773 55.7987 90.1462 56.9302 90.0598 57.757C89.8869 59.4416 89.3428 63.628 88.9047 66.091Z" fill="#FFE4C8"/>
<path opacity="0.8" d="M73.1426 74.0854C73.8223 75.1549 75.4861 76.5659 76.4821 80.4689C77.478 84.372 76.8494 88.6438 76.8494 88.6438L73.1426 74.0854Z" fill="#FFE4C8"/>
<path opacity="0.8" d="M67.7959 51.9307C67.7959 51.9307 64.3169 53.6774 64.0419 56.5887C63.0361 54.3703 64.3444 55.1719 63.5566 49.4638C63.5566 49.4638 64.1361 48.1402 65.7882 49.198C65.9159 49.2802 66.0391 49.369 66.1575 49.4638C66.4923 49.7314 66.7879 50.0436 67.0356 50.3916L67.7959 51.9307Z" fill="#FFE4C8" fill-opacity="0.7"/>
<path d="M77.6981 89.9035C77.6981 89.9035 75.2721 77.1618 73.8223 75.153C72.3726 73.1442 72.6437 72.3194 71.9365 70.9666C71.2293 69.6138 65.8605 66.3202 65.6228 64.3988C65.3852 62.4773 65.1141 58.7936 64.1063 56.5752C63.0986 54.3568 64.4088 55.1584 63.6191 49.4484C63.6191 49.4484 64.2085 48.1267 65.8527 49.1844C67.4969 50.2422 68.373 52.3558 68.0843 54.6984C68.0843 54.6984 69.3258 58.9003 69.9819 59.8591C70.638 60.8179 73.3371 55.3195 73.1643 54.677C72.9914 54.0346 72.4708 48.5692 72.3883 47.5735C72.3883 47.5735 70.4239 44.6952 70.2274 43.3405C70.031 41.9858 70.0428 40.5593 70.8659 39.9809C72.8146 38.6107 72.241 40.8193 73.1171 41.7277C73.9932 42.636 75.3271 44.1363 76.0834 44.6059C76.8397 45.0756 77.5076 47.0262 77.5076 47.0262C77.5076 47.0262 76.3977 43.0009 76.3761 42.2226C76.3545 41.4443 75.7494 37.3394 76.769 35.8663C77.7885 34.3932 79.1479 35.5363 79.2736 35.8275C79.3993 36.1186 79.4366 40.0973 79.7981 41.2017C80.1595 42.306 81.6584 46.9233 81.6584 46.9233C81.6584 46.9233 81.7232 42.4361 82.0631 40.4273C82.4029 38.4185 83.2869 36.8484 84.1493 36.7591C85.0116 36.6698 85.8131 37.6111 85.8131 37.6111C85.8131 37.6111 85.4713 40.8135 85.5676 41.553C85.6638 42.2925 85.4281 44.9611 85.8387 46.4051C85.8387 46.4051 85.7915 42.5797 86.3926 42.0906C86.9937 41.6015 87.5104 41.3667 87.8483 41.7024C88.1861 42.0382 88.2588 44.2973 88.6026 45.6598C88.9464 47.0223 88.9051 48.8739 89.1291 50.9991C89.353 53.1243 90.2449 56.0744 90.0681 57.7591C89.8913 59.4438 89.3471 63.6302 88.9071 66.0854C88.4671 68.5405 87.3552 71.9079 87.3552 71.9079C87.3552 71.9079 87.864 73.7032 87.7638 75.3044C87.6636 76.9056 91.6514 87.5648 91.6514 87.5648" stroke="#263238" stroke-width="0.114759" stroke-linecap="round" stroke-linejoin="round"/>
<path d="M81.6523 46.9326C82.059 47.8759 83.0628 51.8566 83.4203 52.4097C83.6021 52.7152 83.8677 52.9635 84.1864 53.1259" stroke="#263238" stroke-width="0.114759" stroke-linecap="round" stroke-linejoin="round"/>
<path d="M85.8329 46.4092C85.8329 46.4092 85.7465 47.2243 86.1924 49.827C86.6383 52.4297 86.8564 53.536 87.1078 54.1163" stroke="#263238" stroke-width="0.114759" stroke-linecap="round" stroke-linejoin="round"/>
<path d="M77.5 47.0361C78.0441 48.6218 78.3526 51.1488 78.6629 51.9096C78.9733 52.6704 79.2523 52.8276 79.2523 52.8276" stroke="#263238" stroke-width="0.114759" stroke-linecap="round" stroke-linejoin="round"/>
<path d="M78.3809 50.8398C78.7086 51.0858 78.9681 51.4096 79.1352 51.7812" stroke="#263238" stroke-width="0.114759" stroke-linecap="round" stroke-linejoin="round"/>
<path d="M69.9824 59.8608C69.9824 59.8608 70.281 61.9628 71.6129 61.8017" stroke="#263238" stroke-width="0.114759" stroke-linecap="round" stroke-linejoin="round"/>
<path d="M73.1653 54.6787C73.1653 54.6787 73.5091 57.1785 72.9434 58.2382" stroke="#263238" stroke-width="0.114759" stroke-linecap="round" stroke-linejoin="round"/>
<path d="M83.8183 54.7021C83.8183 54.7021 84.7141 55.2436 84.1149 56.8371C83.5158 58.4305 82.4727 64.8392 82.4727 64.8392" stroke="#263238" stroke-width="0.114759" stroke-linecap="round" stroke-linejoin="round"/>
<path d="M87.7173 56.3867C88.0925 57.8229 88.1259 57.8598 87.5209 59.6241C86.9159 61.3883 85.9238 65.7028 85.9238 65.7028" stroke="#263238" stroke-width="0.114759" stroke-linecap="round" stroke-linejoin="round"/>
<path d="M87.3497 71.9025C87.3497 71.9025 86.7604 70.738 87.2476 69.7676" stroke="#263238" stroke-width="0.114759" stroke-linecap="round" stroke-linejoin="round"/>
<path d="M73.8223 75.1553C73.8223 75.1553 75.3034 77.2106 75.9478 79.5105" stroke="#263238" stroke-width="0.114759" stroke-linecap="round" stroke-linejoin="round"/>
<path d="M84.7207 39.1271L85.1214 38.735L85.3022 38.6846L85.2904 38.8787L84.923 39.3425L84.7207 39.1271Z" fill="#757575" stroke="#263238" stroke-width="0.114759" stroke-linecap="round" stroke-linejoin="round"/>
<path d="M85.0454 39.3421L84.3932 40.8035L66.8706 63.8861L64.9199 62.6575L67.5758 59.3736L83.3128 39.868L84.7016 38.9966C84.7843 39.0199 84.8594 39.064 84.9196 39.1245C84.9799 39.1851 85.0232 39.26 85.0454 39.3421Z" fill="#20446C"/>
<path opacity="0.3" d="M85.0454 39.3421L84.3932 40.8035L66.8706 63.8861L64.9199 62.6575L67.5758 59.3736C68.7918 59.2494 68.9961 59.9559 68.9961 59.9559L84.0867 40.491C83.9374 39.969 83.301 39.868 83.301 39.868L84.6898 38.9966C84.7746 39.0181 84.8522 39.0614 84.9146 39.1221C84.9771 39.1827 85.0222 39.2586 85.0454 39.3421Z" fill="black" fill-opacity="0.7"/>
<path d="M85.0454 39.3421L84.3932 40.8035L66.8706 63.8861L64.9199 62.6575L67.5758 59.3736L83.3128 39.868L84.7016 38.9966C84.7842 39.0199 84.8594 39.064 84.9196 39.1245C84.9799 39.1851 85.0232 39.26 85.0454 39.3421Z" stroke="#263238" stroke-width="0.114759" stroke-linecap="round" stroke-linejoin="round"/>
<path d="M72.5871 57.0527C72.5871 57.0527 70.6226 60.8878 68.7486 63.6011L67.4049 63.9447C67.4049 63.9447 64.3208 66.9724 62.4389 68.4824C62.0972 68.2727 61.7876 68.0159 61.5195 67.7196C61.5195 67.7196 64.1911 62.6521 67.1476 59.4419C67.4939 59.5645 67.8201 59.7365 68.116 59.9523C68.5004 60.2202 68.8421 60.5434 69.1297 60.9111L72.424 56.8159L72.5871 57.0527Z" fill="#F0792E"/>
<path opacity="0.3" d="M72.5876 57.0522C72.5876 57.0522 70.6232 60.8873 68.7492 63.6006L67.4055 63.9441C67.4055 63.9441 64.3214 66.9719 62.4395 68.4818L62.4905 67.6609C64.5316 64.5807 67.1246 61.2211 68.1166 59.9518C68.501 60.2196 68.8427 60.5428 69.1303 60.9106L67.2994 63.325L68.3484 63.1309L72.4246 56.8076L72.5876 57.0522Z" fill="black" fill-opacity="0.7"/>
<path d="M72.5871 57.0527C72.5871 57.0527 70.6226 60.8878 68.7486 63.6011L67.4049 63.9447C67.4049 63.9447 64.3208 66.9724 62.4389 68.4824C62.0972 68.2727 61.7876 68.0159 61.5195 67.7196C61.5195 67.7196 64.1911 62.6521 67.1476 59.4419C67.4939 59.5645 67.8201 59.7365 68.116 59.9523C68.5004 60.2202 68.8421 60.5434 69.1297 60.9111L72.424 56.8159L72.5871 57.0527Z" stroke="#263238" stroke-width="0.114759" stroke-linecap="round" stroke-linejoin="round"/>
<path d="M79.2503 52.827L73.7755 58.0673L72.9014 58.9096C73.5005 57.388 73.2098 55.0279 73.1724 54.7504C73.1729 54.742 73.1729 54.7335 73.1724 54.7251C73.1736 54.7109 73.1736 54.6966 73.1724 54.6824C73.111 54.3959 73.0651 54.1063 73.0349 53.8149C73.0212 53.7198 73.0094 53.6208 72.9976 53.5121C72.9858 53.4034 72.9701 53.2947 72.9583 53.1783C72.9583 53.1259 72.9446 53.0676 72.9367 53.0114C72.9367 52.9881 72.9367 52.9648 72.9367 52.9434C72.9131 52.7241 72.8856 52.4912 72.8601 52.2486C72.8601 52.1826 72.8464 52.1186 72.8385 52.0545C72.8385 51.9381 72.8149 51.8216 72.8031 51.7052C72.8021 51.6858 72.8021 51.6663 72.8031 51.6469C72.8031 51.5809 72.7874 51.513 72.7815 51.4431C72.7658 51.3053 72.754 51.1695 72.7383 51.0317L72.7029 50.6746C72.6794 50.4533 72.6578 50.2301 72.6362 50.0147C72.6204 49.8516 72.6047 49.6944 72.591 49.5392C72.591 49.5042 72.591 49.4693 72.5812 49.4363C72.4987 48.5823 72.4338 47.8836 72.4102 47.5808C72.4102 47.5808 70.4458 44.7045 70.2494 43.3478C70.0529 41.9912 70.0647 40.5666 70.8878 39.9882C72.8365 38.618 72.2629 40.8267 73.1391 41.735C74.0152 42.6433 75.349 44.1475 76.1073 44.6152C76.8655 45.083 77.5295 47.0355 77.5295 47.0355C78.0737 48.6211 78.3821 51.1462 78.6925 51.9089C79.0028 52.6717 79.2503 52.827 79.2503 52.827Z" fill="white"/>
<path d="M78.3809 50.8398C78.7086 51.0858 78.9681 51.4096 79.1352 51.7812" stroke="#263238" stroke-width="0.114759" stroke-linecap="round" stroke-linejoin="round"/>
<path opacity="0.8" d="M73.1097 41.7359C73.978 42.6519 75.3118 44.1386 76.0701 44.6122C75.964 44.5598 74.5673 43.8883 73.7874 44.6355C72.9761 45.4118 72.3888 47.5759 72.3888 47.5759C72.3888 47.5759 70.4243 44.6995 70.2279 43.3429C70.0315 41.9862 70.0433 40.5616 70.8663 39.9833C72.8072 38.613 72.2375 40.8217 73.1097 41.7359Z" fill="#FFE4C8"/>
<path opacity="0.8" d="M73.7744 58.0714L72.9003 58.9098C73.4994 57.3882 73.2087 55.0281 73.1714 54.7506C73.1737 54.728 73.1737 54.7052 73.1714 54.6826C73.1099 54.3961 73.064 54.1065 73.0339 53.8151C73.0201 53.72 73.0083 53.621 72.9965 53.5123C72.9847 53.4036 72.969 53.2949 72.9572 53.1785C72.9572 53.1261 72.9435 53.0679 72.9356 53.0116C72.9356 52.9883 72.9356 52.965 72.9356 52.9436C72.9121 52.7224 72.8865 52.4914 72.859 52.2488C72.859 52.1828 72.8453 52.1188 72.8374 52.0547C72.8374 51.9383 72.8138 51.8218 72.8021 51.7054C72.801 51.686 72.801 51.6665 72.8021 51.6472C72.8021 51.5812 72.7863 51.5132 72.7804 51.4434C72.7647 51.3056 72.7529 51.1697 72.7372 51.0319L72.7019 50.6748C72.6783 50.4535 72.6567 50.2303 72.6351 50.0149C72.6213 49.8519 72.6056 49.6927 72.5899 49.5394C72.5899 49.5045 72.5899 49.4695 72.5801 49.4365C72.6351 49.6908 73.631 54.374 74.1988 55.4667C74.3913 55.8743 74.1929 56.9379 73.7744 58.0714Z" fill="#FFE4C8"/>
<path d="M79.2503 52.8276C79.2503 52.8276 78.9733 52.6704 78.661 51.9096C78.3486 51.1488 78.0422 48.6218 77.4981 47.0361C77.4981 47.0361 76.8321 45.0953 76.0739 44.6159C75.3156 44.1365 73.9798 42.6537 73.1076 41.7376C72.2354 40.8215 72.8051 38.6128 70.8564 39.9908C70.0333 40.5731 70.0176 41.9957 70.2179 43.3505C70.4183 44.7052 72.3788 47.5835 72.3788 47.5835C72.4613 48.5791 72.9799 54.0465 73.1547 54.687" stroke="#263238" stroke-width="0.114759" stroke-linecap="round" stroke-linejoin="round"/>
<path d="M73.1653 54.6787C73.1653 54.6787 73.5091 57.1785 72.9434 58.2382" stroke="#263238" stroke-width="0.114759" stroke-linecap="round" stroke-linejoin="round"/>
<path opacity="0.2" d="M39.5646 57.7451C39.5646 57.7451 40.8081 63.4493 38.1148 67.6008C35.4216 71.7522 33.3492 72.8566 32.418 74.0949C31.4869 75.3331 27.835 82.2484 27.835 82.2484L23.5723 69.7784L27.835 54.3467L39.5646 57.7451Z" fill="black" fill-opacity="0.7"/>
<g clip-path="url(#clip1_176_4518)">
<path d="M36.619 34.4069L24.5195 39.2661L31.8837 57.3013L43.9832 52.4421L36.619 34.4069Z" fill="white" stroke="#263238" stroke-width="0.114759" stroke-linecap="round" stroke-linejoin="round"/>
<path d="M25.9272 40.1294L29.0739 38.8583" stroke="#263238" stroke-width="0.229517" stroke-linecap="round" stroke-linejoin="round"/>
<path d="M26.175 40.7282L28.3146 39.863" stroke="#263238" stroke-width="0.229517" stroke-linecap="round" stroke-linejoin="round"/>
<path d="M27.5223 41.8329L36.5728 38.1759" stroke="#263238" stroke-width="0.229517" stroke-linecap="round" stroke-linejoin="round"/>
<path d="M27.768 42.4306L36.8189 38.775" stroke="#263238" stroke-width="0.229517" stroke-linecap="round" stroke-linejoin="round"/>
<path d="M28.0547 43.1296L35.7734 40.0121" stroke="#263238" stroke-width="0.229517" stroke-linecap="round" stroke-linejoin="round"/>
<path d="M29.0915 43.4526L28.3555 43.75L28.6553 44.48L29.3914 44.1826L29.0915 43.4526Z" stroke="#263238" stroke-width="0.114759" stroke-linecap="round" stroke-linejoin="round"/>
<path d="M30.4255 42.914L29.6895 43.2114L29.9893 43.9414L30.7254 43.644L30.4255 42.914Z" stroke="#263238" stroke-width="0.114759" stroke-linecap="round" stroke-linejoin="round"/>
<path d="M31.7595 42.374L31.0234 42.6714L31.3233 43.4014L32.0594 43.104L31.7595 42.374Z" stroke="#263238" stroke-width="0.114759" stroke-linecap="round" stroke-linejoin="round"/>
<path d="M33.0935 41.8349L32.3574 42.1323L32.6573 42.8623L33.3933 42.5649L33.0935 41.8349Z" stroke="#263238" stroke-width="0.114759" stroke-linecap="round" stroke-linejoin="round"/>
<path d="M27.0406 42.0262C27.0559 42.0625 27.06 42.1024 27.0523 42.141C27.0447 42.1796 27.0256 42.215 26.9976 42.2428C26.9696 42.2707 26.9338 42.2896 26.895 42.2972C26.8561 42.3048 26.8158 42.3008 26.7792 42.2856C26.7426 42.2705 26.7114 42.2448 26.6895 42.212C26.6676 42.1792 26.6561 42.1407 26.6564 42.1014C26.6566 42.0621 26.6687 42.0237 26.691 41.9912C26.7133 41.9587 26.7448 41.9335 26.7816 41.9188C26.8303 41.8994 26.8848 41.8998 26.9333 41.9198C26.9818 41.9399 27.0203 41.9781 27.0406 42.0262Z" fill="#263238"/>
<path d="M28.9559 45.3275L38.0064 41.6705" stroke="#263238" stroke-width="0.229517" stroke-linecap="round" stroke-linejoin="round"/>
<path d="M29.2035 45.9247L38.2544 42.2691" stroke="#263238" stroke-width="0.229517" stroke-linecap="round" stroke-linejoin="round"/>
<path d="M29.4907 46.6243L37.2089 43.5052" stroke="#263238" stroke-width="0.229517" stroke-linecap="round" stroke-linejoin="round"/>
<path d="M30.5271 46.9458L29.791 47.2432L30.0909 47.9731L30.8269 47.6757L30.5271 46.9458Z" stroke="#263238" stroke-width="0.114759" stroke-linecap="round" stroke-linejoin="round"/>
<path d="M31.8611 46.4082L31.125 46.7056L31.4249 47.4355L32.1609 47.1381L31.8611 46.4082Z" stroke="#263238" stroke-width="0.114759" stroke-linecap="round" stroke-linejoin="round"/>
<path d="M33.195 45.8681L32.459 46.1655L32.7589 46.8955L33.4949 46.5981L33.195 45.8681Z" stroke="#263238" stroke-width="0.114759" stroke-linecap="round" stroke-linejoin="round"/>
<path d="M34.529 45.3301L33.793 45.6274L34.0928 46.3574L34.8289 46.06L34.529 45.3301Z" stroke="#263238" stroke-width="0.114759" stroke-linecap="round" stroke-linejoin="round"/>
<path d="M28.4748 45.5218C28.4898 45.5581 28.4936 45.598 28.4857 45.6365C28.4778 45.675 28.4585 45.7102 28.4303 45.7378C28.4022 45.7654 28.3664 45.7841 28.3275 45.7915C28.2887 45.7989 28.2484 45.7947 28.212 45.7794C28.1755 45.7641 28.1445 45.7384 28.1227 45.7056C28.101 45.6728 28.0896 45.6343 28.09 45.5951C28.0903 45.5558 28.1024 45.5175 28.1248 45.4851C28.1471 45.4527 28.1786 45.4276 28.2154 45.4129C28.2643 45.3934 28.3191 45.3939 28.3677 45.4143C28.4163 45.4347 28.4548 45.4733 28.4748 45.5218Z" fill="#263238"/>
<path d="M30.393 48.8207L39.4439 45.1651" stroke="#263238" stroke-width="0.229517" stroke-linecap="round" stroke-linejoin="round"/>
<path d="M30.6375 49.4203L39.6865 45.7637" stroke="#263238" stroke-width="0.229517" stroke-linecap="round" stroke-linejoin="round"/>
<path d="M30.9262 50.1194L38.6445 47.0003" stroke="#263238" stroke-width="0.229517" stroke-linecap="round" stroke-linejoin="round"/>
<path d="M31.9607 50.4409L31.2246 50.7383L31.5245 51.4682L32.2605 51.1709L31.9607 50.4409Z" stroke="#263238" stroke-width="0.114759" stroke-linecap="round" stroke-linejoin="round"/>
<path d="M33.2966 49.9013L32.5605 50.1987L32.8604 50.9287L33.5965 50.6313L33.2966 49.9013Z" stroke="#263238" stroke-width="0.114759" stroke-linecap="round" stroke-linejoin="round"/>
<path d="M34.6325 49.3633L33.8965 49.6606L34.1964 50.3906L34.9324 50.0932L34.6325 49.3633Z" stroke="#263238" stroke-width="0.114759" stroke-linecap="round" stroke-linejoin="round"/>
<path d="M35.9646 48.8247L35.2285 49.1221L35.5284 49.852L36.2644 49.5546L35.9646 48.8247Z" stroke="#263238" stroke-width="0.114759" stroke-linecap="round" stroke-linejoin="round"/>
<path d="M29.9103 49.0154C29.9253 49.0517 29.9291 49.0917 29.9212 49.1301C29.9133 49.1686 29.894 49.2039 29.8659 49.2315C29.8377 49.2591 29.802 49.2778 29.7631 49.2852C29.7242 49.2926 29.684 49.2884 29.6475 49.2731C29.6111 49.2578 29.58 49.2321 29.5583 49.1993C29.5366 49.1665 29.5252 49.128 29.5255 49.0887C29.5259 49.0495 29.538 49.0112 29.5603 48.9788C29.5826 48.9463 29.6142 48.9212 29.6509 48.9066C29.6999 48.8871 29.7546 48.8876 29.8032 48.908C29.8518 48.9283 29.8903 48.967 29.9103 49.0154Z" fill="#263238"/>
<path d="M31.8676 52.4135L40.917 48.7583" stroke="#263238" stroke-width="0.229517" stroke-linecap="round" stroke-linejoin="round"/>
<path d="M32.1137 53.0126L41.1631 49.3575" stroke="#263238" stroke-width="0.229517" stroke-linecap="round" stroke-linejoin="round"/>
<path d="M32.4004 53.7121L40.1191 50.5946" stroke="#263238" stroke-width="0.229517" stroke-linecap="round" stroke-linejoin="round"/>
<path d="M33.4392 54.0346L32.7031 54.332L33.003 55.062L33.739 54.7646L33.4392 54.0346Z" stroke="#263238" stroke-width="0.114759" stroke-linecap="round" stroke-linejoin="round"/>
<path d="M34.7712 53.4956L34.0352 53.793L34.335 54.5229L35.0711 54.2255L34.7712 53.4956Z" stroke="#263238" stroke-width="0.114759" stroke-linecap="round" stroke-linejoin="round"/>
<path d="M36.1071 52.957L35.3711 53.2544L35.671 53.9844L36.407 53.687L36.1071 52.957Z" stroke="#263238" stroke-width="0.114759" stroke-linecap="round" stroke-linejoin="round"/>
<path d="M37.4411 52.417L36.7051 52.7144L37.0049 53.4443L37.741 53.1469L37.4411 52.417Z" stroke="#263238" stroke-width="0.114759" stroke-linecap="round" stroke-linejoin="round"/>
<path d="M31.3933 52.6063C31.4081 52.6422 31.4119 52.6818 31.4041 52.7199C31.3963 52.758 31.3773 52.793 31.3495 52.8204C31.3217 52.8478 31.2863 52.8664 31.2478 52.8738C31.2093 52.8813 31.1695 52.8772 31.1333 52.8622C31.0971 52.8473 31.0662 52.822 31.0446 52.7896C31.0229 52.7572 31.0114 52.7191 31.0115 52.6803C31.0116 52.6414 31.0233 52.6034 31.0451 52.5711C31.067 52.5388 31.098 52.5137 31.1343 52.4989C31.1584 52.4891 31.1842 52.4841 31.2103 52.4841C31.2364 52.4842 31.2622 52.4894 31.2862 52.4993C31.3103 52.5093 31.3321 52.5239 31.3505 52.5422C31.3689 52.5606 31.3834 52.5823 31.3933 52.6063Z" fill="#263238"/>
<path d="M28.7392 43.935L28.9075 44.0499L29.0925 43.4534" stroke="#263238" stroke-width="0.229517" stroke-linecap="round" stroke-linejoin="round"/>
<path d="M32.8232 46.3076L32.992 46.4239L33.1765 45.8259" stroke="#263238" stroke-width="0.229517" stroke-linecap="round" stroke-linejoin="round"/>
<path d="M32.954 50.413L33.1243 50.5289L33.3073 49.9314" stroke="#263238" stroke-width="0.229517" stroke-linecap="round" stroke-linejoin="round"/>
<path d="M37.0692 52.9067L37.2381 53.023L37.4226 52.4251" stroke="#263238" stroke-width="0.229517" stroke-linecap="round" stroke-linejoin="round"/>
</g>
<path d="M36.6097 55.3835C37.0694 53.8308 38.8609 48.8603 38.6252 46.6613C38.6064 46.4782 38.5642 46.2982 38.4995 46.1256C37.8708 44.4837 35.3014 44.6428 34.3153 46.0033C33.2309 47.4997 32.3508 50.1917 32.2703 51.8259C32.2014 52.6448 31.9317 53.4349 31.4845 54.1277C31.331 54.3839 31.1576 54.6279 30.9659 54.8575L25.1061 41.126C24.5143 41.6128 23.9974 42.1823 23.5719 42.8165C23.3323 43.17 23.1777 43.5729 23.12 43.9946C23.0002 45.3532 21.4483 50.9118 20.804 53.2582C20.7922 53.3087 20.7765 53.3553 20.7647 53.4038C20.144 55.6591 21.7823 64.0358 21.3128 66.4677C20.8433 68.8996 20.5545 68.8472 20.4858 70.5745C20.4367 71.8361 18.6097 75.6731 16.5569 79.6111C15.3783 81.8664 14.1368 84.1547 13.1094 86.016L28.1018 85.4007C28.3611 83.5996 28.6283 81.7014 28.8719 79.8615C28.9777 79.0962 29.1273 78.3374 29.3197 77.5888C29.6498 76.269 30.0525 75.0754 30.302 74.3767C30.62 73.3496 30.8823 72.3066 31.0877 71.2519C32.8302 69.4294 35.1167 66.5628 35.7787 64.6219V64.6083C35.9411 64.2091 35.9927 63.7743 35.928 63.3487C35.8549 62.9993 35.8148 62.6439 35.8082 62.2871C35.7395 60.1754 36.2247 56.6761 36.6097 55.3835Z" fill="white"/>
<path opacity="0.8" d="M31.4889 54.1394C31.0253 55.0613 30.4654 55.958 30.1138 56.9905C29.7621 58.023 29.3712 58.1705 28.3222 58.9779C27.2732 59.7853 26.5071 58.4559 26.5071 58.4559C26.5071 58.4559 27.8959 57.0293 27.4343 56.2375C26.9727 55.4456 25.2381 53.4756 25.3402 52.381C25.4424 51.2863 24.2932 48.8486 24.2932 48.8486C24.2932 48.8486 26.9118 47.3309 26.403 45.5492C26.126 44.5846 24.7509 43.552 23.5723 42.8165C23.9978 42.1823 24.5147 41.6128 25.1065 41.126L30.9703 54.8692C31.162 54.6395 31.3354 54.3955 31.4889 54.1394Z" fill="#FFE4C8"/>
<path opacity="0.8" d="M21.9804 62.5695C22.0157 62.686 22.8683 65.4692 22.1493 66.6279C21.4303 67.7866 20.6917 69.3218 21.0433 70.8978C21.3223 72.1554 18.9669 76.697 16.5625 79.6122C18.6094 75.6742 20.4363 71.8371 20.4913 70.5756C20.5601 68.8482 20.8489 68.9006 21.3184 66.4687C21.7879 64.0368 20.1397 55.6601 20.7703 53.4048C20.7821 53.3563 20.7978 53.3097 20.8096 53.2593C21.2673 55.8154 22.334 60.9062 22.6267 62.5424C22.992 64.6249 22.0197 62.653 21.9804 62.5695Z" fill="#FFE4C8"/>
<path opacity="0.8" d="M27.3789 79.3521C29.1213 71.9419 34.9851 66.2572 35.7788 64.6133C35.1167 66.5541 32.8321 69.4208 31.0877 71.2432C30.8823 72.2979 30.62 73.341 30.302 74.368C30.0564 75.0667 29.6537 76.2603 29.3198 77.5801C27.6225 79.5637 27.3789 79.3521 27.3789 79.3521Z" fill="#FFE4C8"/>
<path opacity="0.8" d="M36.609 55.3836C36.2161 56.6762 35.7387 60.1755 35.8134 62.2775C35.5049 60.9557 34.9117 59.2808 34.8135 56.9459C34.6465 52.9866 36.9174 54.4073 36.1257 52.4568C35.334 50.5062 33.0769 53.006 34.1888 48.8778C35.0021 45.8617 37.3122 45.8909 38.4987 46.1257C38.5635 46.2983 38.6057 46.4783 38.6244 46.6614C38.8602 48.8604 37.0686 53.8348 36.609 55.3836Z" fill="#FFE4C8"/>
<path d="M30.9703 54.8687C30.6149 55.5471 30.3255 56.2574 30.106 56.99C29.8604 57.941 28.617 57.8052 27.9746 58.3952" stroke="#263238" stroke-width="0.114759" stroke-linecap="round" stroke-linejoin="round"/>
<path d="M26.2793 53.1958C26.2793 53.1958 27.9726 53.7781 28.9568 54.5447C29.941 55.3113 30.6698 55.4879 30.6698 55.4879" stroke="#263238" stroke-width="0.114759" stroke-linecap="round" stroke-linejoin="round"/>
<path d="M25.2012 49.0518C25.2012 49.0518 26.5664 49.4303 27.5781 48.9548C27.6238 48.4705 27.7099 47.9908 27.8355 47.5205" stroke="#263238" stroke-width="0.114759" stroke-linecap="round" stroke-linejoin="round"/>
<path d="M27.9023 49.1494C27.9023 49.1494 27.9161 49.3435 28.6115 49.3435" stroke="#263238" stroke-width="0.114759" stroke-linecap="round" stroke-linejoin="round"/>
<path d="M31.0865 71.2461C30.1341 72.1936 29.402 73.3347 28.9414 74.5902" stroke="#263238" stroke-width="0.114759" stroke-linecap="round" stroke-linejoin="round"/>
<path d="M20.6836 53.8169C20.6227 54.9814 22.0037 59.1115 22.4241 61.165C22.8445 63.2184 22.9996 64.6701 22.9996 64.6701" stroke="#263238" stroke-width="0.114759" stroke-linecap="round" stroke-linejoin="round"/>
<path d="M15.3945 81.9203C17.2843 78.5277 19.1014 75.0361 20.4274 71.2689C20.5865 70.7274 20.3743 70.0229 20.5334 69.4814C22.3132 64.5904 20.2938 59.4996 20.6258 54.4922C20.9028 52.5183 21.5412 50.529 22.1816 48.5396C22.4821 47.0995 22.5941 45.4905 23.0754 44.0426C23.5704 42.9519 24.0576 41.6825 25.1125 41.1313C27.1162 45.6671 29.114 50.2242 30.9763 54.8745C31.8171 54.3951 31.9585 53.3218 32.094 52.4213C32.5459 50.2611 33.0036 48.2795 33.8306 46.4629C34.6714 44.9995 36.8126 44.3765 38.1268 45.572C38.5039 45.9449 38.7195 46.4481 38.7279 46.9753C38.4725 49.4828 37.675 52.0215 36.8715 54.366C36.5552 55.449 36.2331 56.3554 36.0975 57.4306C36.1132 57.7858 36.1191 57.9644 36.1348 58.3215C35.6693 60.1245 36.0975 61.7122 35.9914 63.5016C35.5848 66.7293 32.9721 68.9768 31.0804 71.3737C30.6148 73.1768 30.1473 74.9798 29.5089 76.7906C28.7231 79.4981 28.4717 82.1862 28.2025 84.7967" stroke="#263238" stroke-width="0.114759" stroke-linecap="round" stroke-linejoin="round"/>
<path d="M60.0193 30.2104H43.7383V54.5713H60.0193V30.2104Z" fill="white" stroke="#263238" stroke-width="0.114759" stroke-linecap="round" stroke-linejoin="round"/>
<path d="M44.9582 31.8688L49.1959 31.8602" stroke="#263238" stroke-width="0.229517" stroke-linecap="round" stroke-linejoin="round"/>
<path d="M44.9605 32.6789L47.8424 32.672" stroke="#263238" stroke-width="0.229517" stroke-linecap="round" stroke-linejoin="round"/>
<path d="M45.9963 34.5893L58.1851 34.5634" stroke="#263238" stroke-width="0.229517" stroke-linecap="round" stroke-linejoin="round"/>
<path d="M45.9984 35.3975L58.1871 35.3734" stroke="#263238" stroke-width="0.229517" stroke-linecap="round" stroke-linejoin="round"/>
<path d="M46.0008 36.3419L56.3954 36.3213" stroke="#263238" stroke-width="0.229517" stroke-linecap="round" stroke-linejoin="round"/>
<path d="M47.0479 37.2006L46.0566 37.2026L46.0587 38.1895L47.05 38.1874L47.0479 37.2006Z" stroke="#263238" stroke-width="0.114759" stroke-linecap="round" stroke-linejoin="round"/>
<path d="M48.8409 37.1957L47.8496 37.1978L47.8517 38.1846L48.843 38.1825L48.8409 37.1957Z" stroke="#263238" stroke-width="0.114759" stroke-linecap="round" stroke-linejoin="round"/>
<path d="M50.6417 37.1918L49.6504 37.1938L49.6525 38.1807L50.6438 38.1786L50.6417 37.1918Z" stroke="#263238" stroke-width="0.114759" stroke-linecap="round" stroke-linejoin="round"/>
<path d="M52.4366 37.1884L51.4453 37.1904L51.4474 38.1773L52.4387 38.1752L52.4366 37.1884Z" stroke="#263238" stroke-width="0.114759" stroke-linecap="round" stroke-linejoin="round"/>
<path d="M45.3491 34.5877C45.3497 34.6369 45.3356 34.6852 45.3085 34.7264C45.2814 34.7676 45.2427 34.7999 45.1971 34.8191C45.1516 34.8383 45.1014 34.8436 45.0528 34.8343C45.0043 34.825 44.9596 34.8016 44.9244 34.7669C44.8893 34.7323 44.8653 34.688 44.8555 34.6398C44.8457 34.5915 44.8506 34.5415 44.8694 34.4959C44.8883 34.4504 44.9203 34.4116 44.9614 34.3842C45.0026 34.3569 45.0509 34.3423 45.1004 34.3424C45.1659 34.3426 45.2287 34.3684 45.2753 34.4143C45.3218 34.4602 45.3484 34.5225 45.3491 34.5877Z" fill="#263238"/>
<path d="M46.0061 39.3115L58.1949 39.2855" stroke="#263238" stroke-width="0.229517" stroke-linecap="round" stroke-linejoin="round"/>
<path d="M46.0082 40.1196L58.1968 40.0956" stroke="#263238" stroke-width="0.229517" stroke-linecap="round" stroke-linejoin="round"/>
<path d="M46.0123 41.0669L56.4071 41.0445" stroke="#263238" stroke-width="0.229517" stroke-linecap="round" stroke-linejoin="round"/>
<path d="M47.0577 41.9227L46.0664 41.9248L46.0685 42.9116L47.0598 42.9096L47.0577 41.9227Z" stroke="#263238" stroke-width="0.114759" stroke-linecap="round" stroke-linejoin="round"/>
<path d="M48.8526 41.9208L47.8613 41.9229L47.8634 42.9097L48.8547 42.9076L48.8526 41.9208Z" stroke="#263238" stroke-width="0.114759" stroke-linecap="round" stroke-linejoin="round"/>
<path d="M50.6495 41.9159L49.6582 41.918L49.6603 42.9048L50.6516 42.9027L50.6495 41.9159Z" stroke="#263238" stroke-width="0.114759" stroke-linecap="round" stroke-linejoin="round"/>
<path d="M52.4464 41.9125L51.4551 41.9146L51.4572 42.9014L52.4484 42.8993L52.4464 41.9125Z" stroke="#263238" stroke-width="0.114759" stroke-linecap="round" stroke-linejoin="round"/>
<path d="M45.3589 39.3133C45.3591 39.3624 45.3446 39.4105 45.3173 39.4515C45.29 39.4924 45.2511 39.5244 45.2055 39.5433C45.1599 39.5622 45.1098 39.5672 45.0613 39.5577C45.0129 39.5482 44.9684 39.5245 44.9334 39.4898C44.8985 39.4551 44.8747 39.4108 44.8651 39.3626C44.8555 39.3144 44.8605 39.2644 44.8794 39.219C44.8984 39.1736 44.9304 39.1348 44.9716 39.1076C45.0127 39.0804 45.061 39.0659 45.1103 39.0661C45.1762 39.0663 45.2392 39.0924 45.2858 39.1387C45.3324 39.185 45.3586 39.2478 45.3589 39.3133Z" fill="#263238"/>
<path d="M46.016 44.0347L58.2047 44.0106" stroke="#263238" stroke-width="0.229517" stroke-linecap="round" stroke-linejoin="round"/>
<path d="M46.0178 44.8452L58.2047 44.819" stroke="#263238" stroke-width="0.229517" stroke-linecap="round" stroke-linejoin="round"/>
<path d="M46.0202 45.7901L56.4149 45.7676" stroke="#263238" stroke-width="0.229517" stroke-linecap="round" stroke-linejoin="round"/>
<path d="M47.0674 46.6473L46.0762 46.6494L46.0783 47.6363L47.0695 47.6342L47.0674 46.6473Z" stroke="#263238" stroke-width="0.114759" stroke-linecap="round" stroke-linejoin="round"/>
<path d="M48.8624 46.6434L47.8711 46.6455L47.8732 47.6323L48.8645 47.6303L48.8624 46.6434Z" stroke="#263238" stroke-width="0.114759" stroke-linecap="round" stroke-linejoin="round"/>
<path d="M50.6612 46.6405L49.6699 46.6426L49.672 47.6294L50.6633 47.6273L50.6612 46.6405Z" stroke="#263238" stroke-width="0.114759" stroke-linecap="round" stroke-linejoin="round"/>
<path d="M52.4561 46.6361L51.4648 46.6382L51.4669 47.625L52.4582 47.6229L52.4561 46.6361Z" stroke="#263238" stroke-width="0.114759" stroke-linecap="round" stroke-linejoin="round"/>
<path d="M45.3687 44.0374C45.3689 44.0866 45.3544 44.1347 45.3271 44.1756C45.2998 44.2166 45.2609 44.2485 45.2153 44.2674C45.1697 44.2863 45.1195 44.2913 45.0711 44.2818C45.0226 44.2723 44.9781 44.2487 44.9432 44.2139C44.9083 44.1792 44.8845 44.1349 44.8749 44.0867C44.8653 44.0385 44.8703 43.9885 44.8892 43.9431C44.9082 43.8977 44.9402 43.859 44.9813 43.8317C45.0224 43.8045 45.0707 43.7901 45.1201 43.7902C45.1859 43.7904 45.249 43.8165 45.2956 43.8628C45.3421 43.9091 45.3684 43.9719 45.3687 44.0374Z" fill="#263238"/>
<path d="M46.0277 48.8926L58.2144 48.8684" stroke="#263238" stroke-width="0.229517" stroke-linecap="round" stroke-linejoin="round"/>
<path d="M46.0297 49.7031L58.2164 49.6789" stroke="#263238" stroke-width="0.229517" stroke-linecap="round" stroke-linejoin="round"/>
<path d="M46.0301 50.648L56.4247 50.6275" stroke="#263238" stroke-width="0.229517" stroke-linecap="round" stroke-linejoin="round"/>
<path d="M47.0792 51.5057L46.0879 51.5078L46.09 52.4947L47.0813 52.4926L47.0792 51.5057Z" stroke="#263238" stroke-width="0.114759" stroke-linecap="round" stroke-linejoin="round"/>
<path d="M48.8741 51.5013L47.8828 51.5034L47.8849 52.4903L48.8762 52.4882L48.8741 51.5013Z" stroke="#263238" stroke-width="0.114759" stroke-linecap="round" stroke-linejoin="round"/>
<path d="M50.671 51.4974L49.6797 51.4995L49.6818 52.4863L50.673 52.4843L50.671 51.4974Z" stroke="#263238" stroke-width="0.114759" stroke-linecap="round" stroke-linejoin="round"/>
<path d="M52.4698 51.493L51.4785 51.4951L51.4806 52.482L52.4719 52.4799L52.4698 51.493Z" stroke="#263238" stroke-width="0.114759" stroke-linecap="round" stroke-linejoin="round"/>
<path d="M45.3884 48.8942C45.3886 48.9429 45.3743 48.9905 45.3473 49.0311C45.3203 49.0717 45.2818 49.1034 45.2367 49.1222C45.1916 49.141 45.1419 49.1461 45.0939 49.1368C45.0459 49.1276 45.0018 49.1043 44.967 49.0701C44.9323 49.0358 44.9085 48.9921 44.8987 48.9444C44.889 48.8967 44.8936 48.8472 44.9121 48.8021C44.9305 48.757 44.962 48.7184 45.0025 48.6912C45.043 48.6639 45.0908 48.6492 45.1397 48.6489C45.1722 48.6487 45.2044 48.6549 45.2345 48.6672C45.2646 48.6794 45.292 48.6974 45.3151 48.7202C45.3382 48.743 45.3566 48.7701 45.3692 48.7999C45.3817 48.8298 45.3883 48.8618 45.3884 48.8942Z" fill="#263238"/>
<path d="M46.4107 37.5953L46.5511 37.807L47.0464 37.201" stroke="#263238" stroke-width="0.229517" stroke-linecap="round" stroke-linejoin="round"/>
<path d="M50.0142 42.252L50.1544 42.4657L50.65 41.8578" stroke="#263238" stroke-width="0.229517" stroke-linecap="round" stroke-linejoin="round"/>
<path d="M48.2271 47.0772L48.3692 47.2911L48.8629 46.683" stroke="#263238" stroke-width="0.229517" stroke-linecap="round" stroke-linejoin="round"/>
<path d="M51.8091 51.8887L51.9493 52.1024L52.4449 51.4945" stroke="#263238" stroke-width="0.229517" stroke-linecap="round" stroke-linejoin="round"/>
<defs>
<clipPath id="clip0_176_4518">
<rect width="15.0258" height="20.7621" fill="white" transform="matrix(0.998836 0.0482276 -0.0490328 0.998797 62.8086 36.667)"/>
</clipPath>
<clipPath id="clip1_176_4518">
<rect width="15.0086" height="20.7861" fill="white" transform="matrix(0.927964 -0.372671 0.378023 0.925796 23.3574 39.0293)"/>
</clipPath>
</defs>
</svg>
