<svg width="34" height="27" viewBox="0 0 34 27" fill="none" xmlns="http://www.w3.org/2000/svg">
<path d="M32.6738 12.2638L31.6111 12.7584L32.6738 12.2638L27.9561 2.12533C27.3058 0.727792 25.264 0.90821 24.8688 2.39811L19.2076 23.7423C18.7672 25.4025 20.8426 26.5449 22.0097 25.2848L32.3887 14.0791C32.8435 13.588 32.9562 12.8707 32.6738 12.2638Z" stroke="#F0792E" stroke-width="2.3"/>
<path d="M21.0843 2.39811L15.423 23.7423C14.9827 25.4025 17.0581 26.5449 18.2252 25.2848L28.6042 14.0791C29.059 13.588 29.1717 12.8707 28.8893 12.2638L24.1716 2.12533C23.5213 0.72779 21.4795 0.908212 21.0843 2.39811Z" fill="#FFEEDC" stroke="#F0792E" stroke-width="2.3"/>
<path d="M9.6706 6.01497H15.0777M1.01929 10.296H11.8334M6.96707 21.3044H10.752" stroke="#F0792E" stroke-width="2" stroke-linecap="round" stroke-linejoin="round"/>
</svg>
