<svg width="30" height="24" viewBox="0 0 30 24" fill="none" xmlns="http://www.w3.org/2000/svg">
<path d="M22.0003 12C22.0007 12.2336 21.9194 12.4601 21.7703 12.64L16.7703 18.64C16.6005 18.8442 16.3566 18.9726 16.0922 18.997C15.8278 19.0214 15.5645 18.9397 15.3603 18.77C15.1561 18.6002 15.0276 18.3563 15.0033 18.0919C14.9789 17.8275 15.0605 17.5642 15.2303 17.36L19.7103 12L15.3903 6.63997C15.3072 6.53768 15.2452 6.41998 15.2077 6.29365C15.1703 6.16731 15.1582 6.03482 15.1722 5.90379C15.1861 5.77276 15.2258 5.64578 15.289 5.53014C15.3521 5.4145 15.4375 5.31249 15.5403 5.22997C15.6431 5.13839 15.7637 5.06903 15.8946 5.02624C16.0255 4.98345 16.1638 4.96814 16.3008 4.98129C16.4379 4.99443 16.5708 5.03573 16.6911 5.10262C16.8115 5.1695 16.9167 5.26052 17.0003 5.36997L21.8303 11.37C21.9558 11.5551 22.0156 11.7769 22.0003 12Z" fill="white"/>
<path d="M16.0003 12C16.0007 12.2336 15.9194 12.4601 15.7703 12.64L10.7703 18.64C10.6005 18.8442 10.3566 18.9726 10.0922 18.997C9.82777 19.0214 9.56449 18.9397 9.36028 18.77C9.15606 18.6002 9.02763 18.3563 9.00325 18.0919C8.97888 17.8275 9.06054 17.5642 9.23028 17.36L13.7103 12L9.39028 6.63997C9.30721 6.53768 9.24518 6.41998 9.20775 6.29365C9.17031 6.16731 9.15822 6.03482 9.17216 5.90379C9.1861 5.77276 9.2258 5.64578 9.28897 5.53014C9.35214 5.4145 9.43755 5.31249 9.54027 5.22997C9.6431 5.13839 9.76372 5.06903 9.8946 5.02624C10.0255 4.98345 10.1638 4.96814 10.3008 4.98129C10.4379 4.99443 10.5708 5.03573 10.6911 5.10262C10.8115 5.1695 10.9167 5.26052 11.0003 5.36997L15.8303 11.37C15.9558 11.5551 16.0156 11.7769 16.0003 12Z" fill="white"/>
</svg>
