<svg width="42" height="89" viewBox="0 0 42 89" fill="none" xmlns="http://www.w3.org/2000/svg">
<path d="M22.8098 55.7339C22.7254 59.1644 24.4274 58.9005 24.4274 58.9005C24.6043 58.5048 24.8182 58.1267 25.066 57.7711C25.958 56.4015 27.3222 54.4805 26.8103 53.3431C26.4757 52.6633 26.0948 52.0074 25.6703 51.3798C24.7599 49.9839 23.7123 48.5695 23.7123 48.5695L28.2537 47.8174C28.2537 47.8174 31.4889 49.1553 34.0407 49.311H34.2386C36.5713 49.3558 36.194 47.5271 36.194 46.936C36.194 46.6853 35.5633 46.2235 34.8271 45.7697C33.7715 45.1258 32.4996 44.4898 32.4996 44.4898L33.191 43.0596C33.5875 43.1411 33.9939 43.1634 34.3969 43.1256C36.165 42.9329 35.9222 41.1913 35.6346 40.434C35.5528 40.2149 35.1464 39.8877 34.579 39.5077C32.7609 38.3097 29.2802 36.6419 29.2802 36.6419H24.1688L19.155 50.348C19.155 50.348 22.8916 52.2981 22.8098 55.7339Z" fill="white"/>
<path opacity="0.1" d="M22.8098 55.7339C22.7254 59.1644 24.4274 58.9005 24.4274 58.9005C24.6043 58.5048 24.8182 58.1267 25.066 57.7711C25.958 56.4015 27.3222 54.4805 26.8103 53.3431C26.4757 52.6633 26.0948 52.0074 25.6703 51.3798C24.7599 49.9839 23.7123 48.5695 23.7123 48.5695L28.2537 47.8174C28.2537 47.8174 31.4889 49.1553 34.0407 49.311H34.2386C36.5713 49.3558 36.194 47.5271 36.194 46.936C36.194 46.6853 35.5633 46.2235 34.8271 45.7697C33.7715 45.1258 32.4996 44.4898 32.4996 44.4898L33.191 43.0596C33.5875 43.1411 33.9939 43.1634 34.3969 43.1256C36.165 42.9329 35.9222 41.1913 35.6346 40.434C35.5528 40.2149 35.1464 39.8877 34.579 39.5077C32.7609 38.3097 29.2802 36.6419 29.2802 36.6419H24.1688L19.155 50.348C19.155 50.348 22.8916 52.2981 22.8098 55.7339Z" fill="#FFE4C8"/>
<path opacity="0.4" d="M22.8098 55.7339C22.7254 59.1644 24.4274 58.9005 24.4274 58.9005C24.6043 58.5048 24.8182 58.1267 25.066 57.7711C25.0031 57.4415 24.9721 57.1065 24.9737 56.771C24.9974 55.594 25.9606 53.3405 25.9606 53.3405L24.9737 51.7783C25.1773 51.6002 25.414 51.4639 25.6703 51.3772C24.7599 49.9813 23.7123 48.5668 23.7123 48.5668L28.2537 47.8148C28.2537 47.8148 31.489 49.1527 34.0407 49.3083H34.2386C34.0908 48.0285 34.5975 46.4056 34.8271 45.7697C33.7715 45.1258 32.4996 44.4898 32.4996 44.4898L33.191 43.0596C33.5875 43.1411 33.9939 43.1634 34.3969 43.1256C34.1647 42.0093 34.3969 40.4603 34.5737 39.5077C32.7556 38.3097 29.275 36.6419 29.275 36.6419H24.1688L19.155 50.348C19.155 50.348 22.8916 52.2981 22.8098 55.7339Z" fill="#FFE4C8"/>
<path d="M24.1688 36.6444H29.275C29.275 36.6444 35.2915 39.5313 35.6319 40.4338C35.9723 41.3363 36.2494 43.6136 33.1884 43.0726L32.497 44.5002C32.497 44.5002 36.1914 46.3474 36.1914 46.9464C36.1914 47.5454 36.5898 49.4639 34.0381 49.3214C31.4863 49.1789 28.2537 47.8304 28.2537 47.8304L23.7097 48.5825C23.7097 48.5825 26.1268 51.8415 26.805 53.3562C27.4832 54.8708 24.8496 57.7683 24.4301 58.9135C24.4301 58.9135 22.728 59.1906 22.8125 55.7469C22.8969 52.3033 19.155 50.3637 19.155 50.3637" stroke="#263238" stroke-width="0.230207" stroke-linecap="round" stroke-linejoin="round"/>
<path d="M25.3799 52.7238C25.3799 52.7238 24.1 52.0087 23.4034 53.3386" stroke="#263238" stroke-width="0.230207" stroke-linecap="round" stroke-linejoin="round"/>
<path d="M37.2524 57.621L17.5918 57.6097C17.0295 57.6095 16.4727 57.499 15.9533 57.2845C15.4339 57.07 14.962 56.7558 14.5646 56.3597C14.1671 55.9637 13.8519 55.4936 13.6369 54.9762C13.4219 54.4588 13.3114 53.9043 13.3116 53.3444L13.3213 4.26523C13.3213 3.70498 13.4322 3.15021 13.6475 2.63263C13.8629 2.11504 14.1785 1.64477 14.5765 1.24869C14.9744 0.852604 15.4468 0.538462 15.9667 0.324209C16.4865 0.109956 17.0437 -0.000211432 17.6063 3.04631e-07L37.2669 0.0112839C38.4024 0.0121386 39.4911 0.461888 40.2937 1.26168C41.0963 2.06148 41.5471 3.14587 41.5471 4.27652L41.5374 53.3557C41.5376 53.916 41.4269 54.4709 41.2116 54.9886C40.9963 55.5063 40.6807 55.9766 40.2827 56.3727C39.8847 56.7689 39.4123 57.083 38.8923 57.2972C38.3723 57.5114 37.8151 57.6214 37.2524 57.621Z" fill="#20446C"/>
<path d="M37.2425 1.7505H33.4334C33.3088 1.75321 33.186 1.78043 33.072 1.83057C32.958 1.88071 32.8551 1.9528 32.7692 2.04268C32.6833 2.13257 32.6161 2.23847 32.5714 2.35431C32.5268 2.47015 32.5056 2.59364 32.509 2.71767V3.40598C32.5123 3.52996 32.4909 3.65335 32.4462 3.7691C32.4014 3.88484 32.3342 3.99067 32.2483 4.08051C32.1625 4.17035 32.0597 4.24244 31.9458 4.29265C31.8319 4.34287 31.7092 4.37023 31.5847 4.37315H24.1543C24.0297 4.37022 23.9069 4.34288 23.7929 4.29268C23.679 4.24249 23.576 4.17042 23.49 4.0806C23.404 3.99079 23.3367 3.88498 23.2918 3.76922C23.2469 3.65347 23.2253 3.53004 23.2283 3.40598V2.70639C23.2315 2.58241 23.2102 2.45902 23.1654 2.34327C23.1207 2.22752 23.0535 2.1217 22.9676 2.03186C22.8818 1.94202 22.7789 1.86993 22.6651 1.81971C22.5512 1.7695 22.4285 1.74214 22.304 1.73922H17.6255C17.2316 1.73879 16.8414 1.8157 16.4772 1.96554C16.1131 2.11537 15.7822 2.3352 15.5035 2.61246C15.2248 2.88972 15.0036 3.21896 14.8528 3.58137C14.7019 3.94378 14.6242 4.33225 14.6242 4.72456L14.6145 52.6303C14.6154 53.4216 14.9316 54.1803 15.4937 54.7397C16.0558 55.2991 16.8179 55.6136 17.6126 55.614L37.2328 55.6253C37.6267 55.6257 38.0169 55.5488 38.3811 55.399C38.7452 55.2491 39.0761 55.0293 39.3548 54.752C39.6335 54.4748 39.8547 54.1455 40.0055 53.7831C40.1564 53.4207 40.2341 53.0323 40.2341 52.6399L40.2438 4.73423C40.2429 3.94232 39.9263 3.18316 39.3635 2.62365C38.8007 2.06414 38.0378 1.75007 37.2425 1.7505Z" fill="#FAFAFA"/>
<path d="M31.4725 40.2897H23.8199C23.1319 40.2897 22.4721 40.0165 21.9857 39.53C21.4992 39.0435 21.2259 38.3837 21.2259 37.6958C21.2259 37.0076 21.4991 36.3475 21.9855 35.8606C22.4719 35.3737 23.1317 35.0999 23.8199 35.0992H31.4725C32.1607 35.0999 32.8205 35.3737 33.3069 35.8606C33.7933 36.3475 34.0665 37.0076 34.0665 37.6958C34.0665 38.3837 33.7932 39.0435 33.3067 39.53C32.8203 40.0165 32.1605 40.2897 31.4725 40.2897Z" fill="#053C6D" stroke="#053C6D" stroke-width="0.230207" stroke-linecap="round" stroke-linejoin="round"/>
<path d="M24.8482 25.5846H24.8599C24.9091 25.5846 24.9519 25.5374 24.9519 25.4751C24.9519 25.4128 24.9091 25.3655 24.8599 25.3655H24.0384C23.9892 25.3655 23.9463 25.4128 23.9463 25.4751C23.9463 25.5374 23.9892 25.5846 24.0384 25.5846L24.2738 25.5846L24.2738 25.5846H24.8482ZM24.8482 25.5846V25.5859M24.8482 25.5846V25.5859M24.8482 25.5859H24.6555H24.6357L24.6454 25.6032C24.6739 25.6539 24.6945 25.7103 24.7064 25.7695L24.7082 25.7788H24.7178H24.8599C24.9091 25.7788 24.9519 25.8261 24.9519 25.8884C24.9519 25.9507 24.9091 25.998 24.8599 25.998H24.7178H24.7082L24.7064 26.0073C24.6606 26.2335 24.4937 26.3957 24.2979 26.4089L24.274 26.4106L24.2901 26.4284L24.6884 26.8684L24.6884 26.8684C24.7063 26.8882 24.7171 26.9158 24.7178 26.9453C24.7185 26.9748 24.7091 27.0031 24.6922 27.0241C24.6742 27.0456 24.6501 27.0573 24.6254 27.0574L24.6253 27.0574C24.6024 27.0576 24.5798 27.0475 24.5625 27.0285L23.9754 26.3801C23.9754 26.38 23.9754 26.38 23.9754 26.38C23.9476 26.3492 23.9384 26.3009 23.9528 26.2584C23.9673 26.2161 24.0017 26.1898 24.0384 26.1898L24.8482 25.5859Z" fill="#263238" stroke="white" stroke-width="0.0230207"/>
<path d="M25.0715 17.4214V13.508" stroke="#263238" stroke-width="0.230207" stroke-linecap="round" stroke-linejoin="round"/>
<path d="M25.0715 19.7728V18.208" stroke="#263238" stroke-width="0.230207" stroke-linecap="round" stroke-linejoin="round"/>
<path d="M25.0715 21.2364V20.3973" stroke="#263238" stroke-width="0.230207" stroke-linecap="round" stroke-linejoin="round"/>
<path d="M25.809 13.9655L25.0701 13.0525L24.3312 13.9655" stroke="#263238" stroke-width="0.230207" stroke-linecap="round" stroke-linejoin="round"/>
<path d="M30.2201 15.9724V12.059" stroke="#263238" stroke-width="0.230207" stroke-linecap="round" stroke-linejoin="round"/>
<path d="M30.2201 18.3198V16.755" stroke="#263238" stroke-width="0.230207" stroke-linecap="round" stroke-linejoin="round"/>
<path d="M30.2201 19.7844V18.9453" stroke="#263238" stroke-width="0.230207" stroke-linecap="round" stroke-linejoin="round"/>
<path d="M30.9595 12.5136L30.2206 11.6005L29.4818 12.5136" stroke="#263238" stroke-width="0.230207" stroke-linecap="round" stroke-linejoin="round"/>
<path d="M27.5274 13.3438V9.43045" stroke="#263238" stroke-width="0.230207" stroke-linecap="round" stroke-linejoin="round"/>
<path d="M27.5274 15.6903V14.1254" stroke="#263238" stroke-width="0.230207" stroke-linecap="round" stroke-linejoin="round"/>
<path d="M27.5274 17.1574V16.3182" stroke="#263238" stroke-width="0.230207" stroke-linecap="round" stroke-linejoin="round"/>
<path d="M28.2648 9.88664L27.5259 8.97097L26.7871 9.88664" stroke="#263238" stroke-width="0.230207" stroke-linecap="round" stroke-linejoin="round"/>
<path d="M31.6279 19.7707C32.1437 17.5699 30.7777 15.3677 28.577 14.8519C26.3762 14.3362 24.174 15.7021 23.6582 17.9029C23.1424 20.1037 24.5084 22.3059 26.7091 22.8217C28.9099 23.3374 31.1121 21.9715 31.6279 19.7707Z" fill="#F87000" stroke="#EF8B24" stroke-width="0.230207" stroke-linecap="round" stroke-linejoin="round"/>
<path d="M28.8146 17.7262C28.9699 17.7262 29.0957 17.6027 29.0957 17.4504C29.0957 17.2981 28.9699 17.1745 28.8146 17.1745H26.589C26.4338 17.1745 26.308 17.2981 26.308 17.4504C26.308 17.6027 26.4338 17.7262 26.589 17.7262H27.2269C27.4907 17.7258 27.7303 17.8769 27.8395 18.1125H26.5917C26.4366 18.1125 26.3107 18.2361 26.3107 18.3884C26.3107 18.5407 26.4366 18.6642 26.5917 18.6642H27.8395C27.7293 18.8992 27.4902 19.0498 27.2269 19.0505H26.589C26.4737 19.0506 26.3701 19.1196 26.3274 19.2247C26.2847 19.3298 26.3115 19.4498 26.395 19.5277L27.9856 21.0037C28.0382 21.052 28.1076 21.0786 28.1795 21.0781C28.2568 21.0777 28.3307 21.0469 28.3847 20.9927C28.4358 20.9397 28.4634 20.8689 28.4613 20.7959C28.4592 20.723 28.4276 20.6538 28.3735 20.6037L27.2943 19.6022C27.8417 19.5712 28.3034 19.1909 28.4297 18.667H28.8146C28.9699 18.667 29.0957 18.5435 29.0957 18.3912C29.0957 18.2388 28.9699 18.1153 28.8146 18.1153H28.4297C28.397 17.9779 28.3399 17.8471 28.2611 17.729H28.8146V17.7262Z" fill="white"/>
<path d="M25.3005 25.6424C25.3666 25.6503 25.4333 25.633 25.4871 25.5938C25.5409 25.5547 25.578 25.4966 25.5908 25.4313H25.7808V27.1149H25.5169V25.8298H25.3137L25.3005 25.6424Z" fill="#263238"/>
<path d="M26.0645 25.8357C26.0528 25.7771 26.0541 25.7166 26.0686 25.6586C26.083 25.6006 26.1101 25.5465 26.148 25.5003C26.1859 25.454 26.2335 25.4168 26.2876 25.3912C26.3416 25.3656 26.4006 25.3524 26.4604 25.3524C26.5201 25.3524 26.5792 25.3656 26.6332 25.3912C26.6872 25.4168 26.7349 25.454 26.7727 25.5003C26.8106 25.5465 26.8377 25.6006 26.8522 25.6586C26.8666 25.7166 26.868 25.7771 26.8562 25.8357V26.7117C26.868 26.7703 26.8666 26.8308 26.8522 26.8888C26.8377 26.9468 26.8106 27.0009 26.7727 27.0471C26.7349 27.0934 26.6872 27.1306 26.6332 27.1562C26.5792 27.1818 26.5201 27.195 26.4604 27.195C26.4006 27.195 26.3416 27.1818 26.2876 27.1562C26.2335 27.1306 26.1859 27.0934 26.148 27.0471C26.1101 27.0009 26.083 26.9468 26.0686 26.8888C26.0541 26.8308 26.0528 26.7703 26.0645 26.7117V25.8357ZM26.3284 26.7276C26.3284 26.849 26.3812 26.8938 26.4656 26.8938C26.5501 26.8938 26.6002 26.849 26.6002 26.7276V25.8198C26.6002 25.6984 26.5475 25.6536 26.4656 25.6536C26.3838 25.6536 26.3284 25.6984 26.3284 25.8198V26.7276Z" fill="#263238"/>
<path d="M27.0181 25.8357C27.0063 25.7771 27.0077 25.7166 27.0221 25.6586C27.0365 25.6006 27.0637 25.5465 27.1015 25.5003C27.1394 25.454 27.1871 25.4168 27.2411 25.3912C27.2951 25.3656 27.3541 25.3524 27.4139 25.3524C27.4736 25.3524 27.5327 25.3656 27.5867 25.3912C27.6407 25.4168 27.6884 25.454 27.7262 25.5003C27.7641 25.5465 27.7912 25.6006 27.8057 25.6586C27.8201 25.7166 27.8215 25.7771 27.8097 25.8357V26.7117C27.8215 26.7703 27.8201 26.8308 27.8057 26.8888C27.7912 26.9468 27.7641 27.0009 27.7262 27.0471C27.6884 27.0934 27.6407 27.1306 27.5867 27.1562C27.5327 27.1818 27.4736 27.195 27.4139 27.195C27.3541 27.195 27.2951 27.1818 27.2411 27.1562C27.1871 27.1306 27.1394 27.0934 27.1015 27.0471C27.0637 27.0009 27.0365 26.9468 27.0221 26.8888C27.0077 26.8308 27.0063 26.7703 27.0181 26.7117V25.8357ZM27.2819 26.7276C27.2819 26.849 27.3347 26.8938 27.4192 26.8938C27.5036 26.8938 27.5537 26.849 27.5537 26.7276V25.8198C27.5537 25.6984 27.501 25.6536 27.4192 25.6536C27.3374 25.6536 27.2819 25.6984 27.2819 25.8198V26.7276Z" fill="#263238"/>
<path d="M27.9716 25.8357C27.9598 25.7771 27.9612 25.7166 27.9756 25.6586C27.99 25.6006 28.0172 25.5465 28.055 25.5003C28.0929 25.454 28.1406 25.4168 28.1946 25.3912C28.2486 25.3656 28.3076 25.3524 28.3674 25.3524C28.4272 25.3524 28.4862 25.3656 28.5402 25.3912C28.5942 25.4168 28.6419 25.454 28.6797 25.5003C28.7176 25.5465 28.7447 25.6006 28.7592 25.6586C28.7736 25.7166 28.775 25.7771 28.7632 25.8357V26.7117C28.775 26.7703 28.7736 26.8308 28.7592 26.8888C28.7447 26.9468 28.7176 27.0009 28.6797 27.0471C28.6419 27.0934 28.5942 27.1306 28.5402 27.1562C28.4862 27.1818 28.4272 27.195 28.3674 27.195C28.3076 27.195 28.2486 27.1818 28.1946 27.1562C28.1406 27.1306 28.0929 27.0934 28.055 27.0471C28.0172 27.0009 27.99 26.9468 27.9756 26.8888C27.9612 26.8308 27.9598 26.7703 27.9716 26.7117V25.8357ZM28.2354 26.7276C28.2354 26.849 28.2882 26.8938 28.3727 26.8938C28.4571 26.8938 28.5072 26.849 28.5072 26.7276V25.8198C28.5072 25.6984 28.4545 25.6536 28.3727 25.6536C28.2909 25.6536 28.2354 25.6984 28.2354 25.8198V26.7276Z" fill="#263238"/>
<path d="M29.2106 26.8606V27.1245H28.9468V26.8606H29.2106Z" fill="#263238"/>
<path d="M29.3725 25.8346C29.3631 25.7772 29.3663 25.7184 29.3819 25.6624C29.3974 25.6064 29.425 25.5544 29.4627 25.5101C29.5003 25.4657 29.5472 25.4301 29.5999 25.4057C29.6527 25.3813 29.7102 25.3686 29.7684 25.3686C29.8265 25.3686 29.884 25.3813 29.9368 25.4057C29.9896 25.4301 30.0364 25.4657 30.074 25.5101C30.1117 25.5544 30.1393 25.6064 30.1548 25.6624C30.1704 25.7184 30.1736 25.7772 30.1642 25.8346V26.7107C30.1736 26.7681 30.1704 26.8268 30.1548 26.8829C30.1393 26.9389 30.1117 26.9909 30.074 27.0352C30.0364 27.0796 29.9896 27.1152 29.9368 27.1396C29.884 27.164 29.8265 27.1766 29.7684 27.1766C29.7102 27.1766 29.6527 27.164 29.5999 27.1396C29.5472 27.1152 29.5003 27.0796 29.4627 27.0352C29.425 26.9909 29.3974 26.9389 29.3819 26.8829C29.3663 26.8268 29.3631 26.7681 29.3725 26.7107V25.8346ZM29.6364 26.7265C29.6364 26.8479 29.6892 26.8928 29.7736 26.8928C29.8581 26.8928 29.9109 26.8479 29.9109 26.7265V25.8188C29.9109 25.6974 29.8581 25.6525 29.7736 25.6525C29.6892 25.6525 29.6364 25.6974 29.6364 25.8188V26.7265Z" fill="#263238"/>
<path d="M30.3241 25.8346C30.3147 25.7772 30.3179 25.7184 30.3334 25.6624C30.349 25.6064 30.3765 25.5544 30.4142 25.5101C30.4519 25.4657 30.4987 25.4301 30.5515 25.4057C30.6043 25.3813 30.6617 25.3686 30.7199 25.3686C30.7781 25.3686 30.8355 25.3813 30.8883 25.4057C30.9411 25.4301 30.9879 25.4657 31.0256 25.5101C31.0632 25.5544 31.0908 25.6064 31.1064 25.6624C31.1219 25.7184 31.1251 25.7772 31.1157 25.8346V26.7107C31.1251 26.7681 31.1219 26.8268 31.1064 26.8829C31.0908 26.9389 31.0632 26.9909 31.0256 27.0352C30.9879 27.0796 30.9411 27.1152 30.8883 27.1396C30.8355 27.164 30.7781 27.1766 30.7199 27.1766C30.6617 27.1766 30.6043 27.164 30.5515 27.1396C30.4987 27.1152 30.4519 27.0796 30.4142 27.0352C30.3765 26.9909 30.349 26.9389 30.3334 26.8829C30.3179 26.8268 30.3147 26.7681 30.3241 26.7107V25.8346ZM30.588 26.7265C30.588 26.8479 30.6407 26.8928 30.7252 26.8928C30.8096 26.8928 30.8624 26.8479 30.8624 26.7265V25.8188C30.8624 25.6974 30.8096 25.6525 30.7252 25.6525C30.6407 25.6525 30.588 25.6974 30.588 25.8188V26.7265Z" fill="#263238"/>
<path d="M22.9987 28.6719H23.2626V30.3528H22.9987V28.6719Z" fill="#263238"/>
<path d="M23.4547 28.6719H23.8743C24.1382 28.6719 24.2675 28.817 24.2675 29.0862V29.9385C24.2675 30.2024 24.1382 30.3528 23.8743 30.3528H23.4547V28.6719ZM23.7186 28.912V30.1127H23.869C23.9535 30.1127 24.0036 30.0704 24.0036 29.9491V29.0756C24.0036 28.9542 23.9535 28.912 23.869 28.912H23.7186Z" fill="#263238"/>
<path d="M24.6682 30.0987V30.3626H24.4043V30.0987H24.6682Z" fill="#263238"/>
<path d="M25.2522 28.8947C25.1677 28.8947 25.1149 28.9396 25.1149 29.0583V29.2404H24.8669V29.0768C24.8669 28.8129 25.0015 28.6546 25.2601 28.6546C25.5187 28.6546 25.6533 28.8076 25.6533 29.0768C25.6479 29.2043 25.6161 29.3293 25.5597 29.4438C25.5034 29.5583 25.4238 29.6598 25.326 29.7418C25.1704 29.9107 25.1281 29.9898 25.1281 30.0796C25.1268 30.091 25.1268 30.1025 25.1281 30.1139H25.6269V30.354H24.8643V30.1482C24.8687 30.0466 24.8944 29.9471 24.9399 29.8561C24.9854 29.7652 25.0495 29.6849 25.1281 29.6204C25.2074 29.5565 25.272 29.4763 25.3175 29.3852C25.363 29.2942 25.3885 29.1944 25.392 29.0926C25.3841 28.9343 25.3313 28.8947 25.2522 28.8947Z" fill="#263238"/>
<path d="M25.9777 28.883C26.0438 28.8909 26.1104 28.8735 26.1642 28.8344C26.218 28.7952 26.2551 28.7372 26.2679 28.6719H26.4447V30.3528H26.1809V29.0703H25.9777V28.883Z" fill="#263238"/>
<path d="M27.147 30.3737C27.0903 30.3793 27.033 30.3721 26.9795 30.3525C26.926 30.333 26.8775 30.3017 26.8377 30.2609C26.798 30.2201 26.7679 30.1708 26.7497 30.1168C26.7315 30.0628 26.7257 30.0054 26.7327 29.9489V29.8169C26.7247 29.7494 26.7358 29.681 26.7647 29.6194C26.7936 29.5578 26.8392 29.5056 26.8963 29.4686C26.8394 29.4347 26.7936 29.385 26.7645 29.3254C26.7355 29.2659 26.7244 29.1992 26.7327 29.1335V29.0807C26.7281 29.0237 26.7354 28.9664 26.7541 28.9123C26.7728 28.8583 26.8025 28.8087 26.8413 28.7666C26.88 28.7246 26.9271 28.6911 26.9795 28.6681C27.0319 28.6452 27.0885 28.6334 27.1457 28.6334C27.2029 28.6334 27.2594 28.6452 27.3118 28.6681C27.3642 28.6911 27.4113 28.7246 27.4501 28.7666C27.4889 28.8087 27.5185 28.8583 27.5372 28.9123C27.5559 28.9664 27.5632 29.0237 27.5586 29.0807V29.1335C27.5663 29.1991 27.5549 29.2656 27.5259 29.325C27.4969 29.3844 27.4515 29.4342 27.395 29.4686C27.4521 29.5056 27.4977 29.5578 27.5266 29.6194C27.5555 29.681 27.5666 29.7494 27.5586 29.8169V29.9489C27.5656 30.0052 27.5598 30.0623 27.5418 30.1161C27.5237 30.1699 27.4939 30.219 27.4544 30.2597C27.4149 30.3005 27.3668 30.3319 27.3136 30.3516C27.2604 30.3713 27.2035 30.3789 27.147 30.3737ZM26.9966 29.1783C26.9966 29.3129 27.0599 29.3551 27.147 29.3551C27.2341 29.3551 27.2948 29.3129 27.2948 29.1783V29.0833C27.2948 28.9329 27.2288 28.8933 27.147 28.8933C27.0652 28.8933 26.9966 28.9329 26.9966 29.0833V29.1783ZM27.147 30.1336C27.2288 30.1336 27.2921 30.0914 27.2948 29.9436V29.7879C27.2948 29.6533 27.2393 29.5979 27.147 29.5979C27.0546 29.5979 26.9966 29.6533 26.9966 29.7879V29.9436C26.9966 30.0914 27.0625 30.1336 27.147 30.1336Z" fill="#263238"/>
<path d="M27.8926 28.883C27.9587 28.8909 28.0253 28.8735 28.0791 28.8344C28.133 28.7952 28.17 28.7372 28.1828 28.6719H28.3596V30.3528H28.0958V29.0703H27.8926V28.883Z" fill="#263238"/>
<path d="M29.4489 29.9354C29.4489 30.2178 29.3196 30.3735 29.0452 30.3735C28.7707 30.3735 28.6493 30.2178 28.6493 29.9486V29.9064H28.9V29.9723C28.9 30.0911 28.9528 30.1386 29.0372 30.1386C29.1217 30.1386 29.185 30.0911 29.185 29.9301V29.6267C29.1649 29.6727 29.1311 29.7114 29.088 29.7374C29.045 29.7634 28.995 29.7754 28.9449 29.7718C28.7496 29.7718 28.652 29.6346 28.652 29.3865V29.0751C28.6426 29.0178 28.6458 28.959 28.6613 28.903C28.6769 28.8469 28.7045 28.7949 28.7421 28.7506C28.7798 28.7063 28.8266 28.6707 28.8794 28.6463C28.9322 28.6218 28.9896 28.6092 29.0478 28.6092C29.106 28.6092 29.1634 28.6218 29.2162 28.6463C29.269 28.6707 29.3158 28.7063 29.3535 28.7506C29.3911 28.7949 29.4187 28.8469 29.4343 28.903C29.4498 28.959 29.453 29.0178 29.4436 29.0751L29.4489 29.9354ZM29.185 29.3601V29.0567C29.185 28.9379 29.1322 28.8957 29.0478 28.8957C28.9634 28.8957 28.9106 28.9379 28.9106 29.0567V29.3601C28.9106 29.4815 28.9634 29.5264 29.0478 29.5264C29.1322 29.5264 29.185 29.4815 29.185 29.3601Z" fill="#263238"/>
<path d="M29.8641 29.8115V29.9725C29.8641 30.0912 29.9168 30.1361 30.0013 30.1361C30.0857 30.1361 30.1385 30.0912 30.1385 29.9725V29.603C30.1385 29.4816 30.0857 29.4368 30.0013 29.4368C29.9168 29.4368 29.8641 29.4816 29.8641 29.603V29.6532H29.6134L29.6609 28.6768H30.3575V28.9169H29.8984L29.8746 29.318C29.8979 29.2786 29.9317 29.2463 29.9723 29.2249C30.0128 29.2035 30.0585 29.1937 30.1042 29.1967C30.2968 29.1967 30.3971 29.3339 30.3971 29.5793V29.954C30.3971 30.2179 30.2625 30.3788 30.0013 30.3788C29.74 30.3788 29.6081 30.2232 29.6081 29.954V29.8168L29.8641 29.8115Z" fill="#263238"/>
<path d="M30.5596 29.0888C30.5596 28.8064 30.6889 28.6534 30.9634 28.6534C31.0188 28.6488 31.0746 28.6568 31.1265 28.6768C31.1785 28.6968 31.2252 28.7283 31.2633 28.7689C31.3013 28.8095 31.3297 28.8582 31.3463 28.9113C31.3629 28.9644 31.3673 29.0205 31.3592 29.0756V29.1178H31.1085V29.0571C31.1085 28.9384 31.0557 28.8935 30.9713 28.8935C30.8869 28.8935 30.8235 28.9384 30.8235 29.0993V29.4054C30.8435 29.3591 30.8773 29.3201 30.9202 29.2936C30.9632 29.2672 31.0133 29.2546 31.0637 29.2577C31.2589 29.2577 31.3592 29.3949 31.3592 29.6429V29.949C31.371 30.0076 31.3696 30.0681 31.3552 30.1261C31.3407 30.1841 31.3136 30.2382 31.2757 30.2844C31.2379 30.3307 31.1902 30.3679 31.1362 30.3935C31.0822 30.4191 31.0231 30.4323 30.9634 30.4323C30.9036 30.4323 30.8446 30.4191 30.7906 30.3935C30.7366 30.3679 30.6889 30.3307 30.651 30.2844C30.6132 30.2382 30.586 30.1841 30.5716 30.1261C30.5572 30.0681 30.5558 30.0076 30.5676 29.949L30.5596 29.0888ZM30.8235 29.664V29.9728C30.8235 30.0915 30.8789 30.1364 30.9607 30.1364C31.0425 30.1364 31.098 30.0915 31.098 29.9728V29.6693C31.098 29.5506 31.0452 29.5031 30.9607 29.5031C30.8763 29.5031 30.8235 29.5453 30.8235 29.664Z" fill="#263238"/>
<path d="M32.3055 28.6719V28.9014L31.9149 30.3528H31.651L32.0389 28.912H31.5112V28.6719H32.3055Z" fill="#263238"/>
<path d="M27.3082 27.5377H27.6275V27.6274H27.522V28.1737H27.4217V27.6274H27.3161L27.3082 27.5377Z" fill="#263238"/>
<path d="M27.653 27.6918C27.6502 27.6707 27.6521 27.6492 27.6587 27.6289C27.6652 27.6087 27.6763 27.5901 27.691 27.5747C27.7056 27.5592 27.7236 27.5473 27.7435 27.5397C27.7634 27.5321 27.7848 27.5291 27.8061 27.5309C27.8272 27.529 27.8485 27.532 27.8683 27.5396C27.8881 27.5472 27.906 27.5592 27.9205 27.5747C27.935 27.5902 27.9457 27.6088 27.952 27.6291C27.9582 27.6494 27.9598 27.6709 27.9565 27.6918V28.0217C27.9598 28.0427 27.9582 28.0641 27.952 28.0844C27.9457 28.1047 27.935 28.1233 27.9205 28.1388C27.906 28.1543 27.8881 28.1663 27.8683 28.1739C27.8485 28.1815 27.8272 28.1845 27.8061 28.1827C27.7848 28.1844 27.7634 28.1814 27.7435 28.1738C27.7236 28.1662 27.7056 28.1543 27.691 28.1388C27.6763 28.1234 27.6652 28.1048 27.6587 28.0846C27.6521 28.0643 27.6502 28.0428 27.653 28.0217V27.6918ZM27.7533 28.0296C27.7533 28.0745 27.7744 28.0903 27.8061 28.0903C27.8377 28.0903 27.8562 28.0745 27.8562 28.0296V27.6839C27.8562 27.6391 27.8377 27.6206 27.8061 27.6206C27.7744 27.6206 27.7533 27.6391 27.7533 27.6839V28.0296Z" fill="#263238"/>
<path d="M25.5165 36.3068C25.8965 36.3068 26.0892 36.5338 26.0892 36.9296V37.0061H25.7224V36.9032C25.7224 36.7291 25.6511 36.6604 25.5271 36.6604C25.4031 36.6604 25.3344 36.7291 25.3344 36.9032C25.3344 37.0774 25.411 37.2199 25.6643 37.431C25.9915 37.716 26.0918 37.9218 26.0918 38.2042C26.0918 38.6 25.8965 38.8269 25.5139 38.8269C25.1313 38.8269 24.9333 38.6 24.9333 38.2042V38.0511H25.3028V38.2279C25.3028 38.4047 25.3793 38.468 25.5033 38.468C25.6274 38.468 25.7039 38.4047 25.7039 38.2279C25.7039 38.0511 25.6274 37.9139 25.3714 37.7001C25.2436 37.6149 25.1383 37.5001 25.0644 37.3655C24.9904 37.2309 24.95 37.0805 24.9465 36.927C24.9545 36.5285 25.1471 36.3068 25.5165 36.3068Z" fill="white"/>
<path d="M26.7124 37.362H27.2401V37.7156H26.7124V38.4387H27.3826V38.7923H26.3271V36.3197H27.3826V36.6733H26.7124V37.362Z" fill="white"/>
<path d="M27.9764 37.0113V38.8031H27.628V36.3305H28.1162L28.5094 37.8109V36.3305H28.8551V38.8031H28.4566L27.9764 37.0113Z" fill="white"/>
<path d="M29.1297 36.3305H29.7393C30.1272 36.3305 30.3172 36.5469 30.3172 36.9401V38.1909C30.3172 38.5867 30.1272 38.8031 29.7393 38.8031H29.1244L29.1297 36.3305ZM29.5176 36.6841V38.4495H29.7393C29.8633 38.4495 29.9372 38.3862 29.9372 38.2094V36.9243C29.9372 36.7475 29.8633 36.6841 29.7393 36.6841H29.5176Z" fill="white"/>
<path d="M10.9841 32.3951C10.9841 32.3951 12.6835 32.9229 13.2799 34.4006" stroke="#263238" stroke-width="0.230207" stroke-linecap="round" stroke-linejoin="round"/>
<path d="M3.28102 79.2703C3.46837 75.9823 3.59504 72.623 3.75864 69.9182C4.09905 64.3134 4.35502 60.5504 4.86431 56.7241C5.37361 52.8978 5.28917 47.1108 5.54513 45.0921C5.8011 43.0734 6.56108 42.6433 7.16274 40.2446C7.76439 37.8459 8.30271 33.0669 9.28964 32.394C10.2766 31.7211 13.2875 30.4624 13.2875 30.4624V43.997C15.074 46.744 17.2009 47.4275 17.2009 47.4275C18.5625 43.4877 18.3936 41.9255 19.7526 40.4768C21.1116 39.0281 22.0959 37.1413 24.2386 37.9303C25.2572 38.3077 25.8008 38.6903 25.2942 42.1524C24.7875 45.6146 23.7636 46.686 23.7636 46.686C23.5921 47.8655 23.8481 51.2934 24.2729 53.0482C24.6978 54.803 23.0828 59.4605 22.3176 62.4398C21.5523 65.419 17.4674 71.4514 17.4674 71.4514C17.3687 73.7154 17.4181 75.9835 17.6152 78.2411C17.6468 78.5604 17.6864 78.9035 17.7313 79.2623L17.9951 88.5273L3.28102 88.2687V79.2703Z" fill="white"/>
<path opacity="0.8" d="M24.9711 38.9396C24.8927 38.7431 24.8927 38.524 24.9711 38.3274C24.7514 38.1446 24.4975 38.0074 24.2243 37.9237C22.0868 37.132 21.1052 39.0267 19.7383 40.4702C19.6164 40.6002 19.5027 40.7377 19.3979 40.8818C20.6302 40.4174 22.2452 40.4253 22.8943 41.3278C23.715 42.4572 25.3801 40.4147 24.9711 38.9396Z" fill="#FFE4C8"/>
<path opacity="0.8" d="M15.7402 75.9489L15.0646 78.4717C15.0646 78.4717 16.0146 77.5428 17.4396 75.2866C17.371 73.0884 17.4554 71.4339 17.4554 71.4339C17.4554 71.4339 21.5377 65.3989 22.3056 62.4223C23.0735 59.4457 24.6805 54.7829 24.261 53.0307C23.8414 51.2785 23.5828 47.848 23.7517 46.6684C23.9519 46.4238 24.1179 46.153 24.2451 45.8636C24.0708 45.6813 23.85 45.5499 23.6065 45.4836C22.8997 47.3977 22.617 49.4424 22.7779 51.4764C23.0418 54.8779 22.4586 55.1708 21.3319 59.5855C20.2051 64.0003 18.3236 69.0194 17.4475 69.9166C16.5714 70.8138 16.1861 74.8644 15.7402 75.9489Z" fill="#FFE4C8"/>
<path opacity="0.8" d="M14.1277 46.145C14.1277 46.145 12.7872 46.3535 12.2462 46.6728C12.2462 46.6728 14.8666 47.3562 15.0354 48.0872C15.2043 48.8181 15.7664 49.5728 16.7639 48.6809C16.7639 48.6809 16.814 48.1241 16.9169 47.3166C16.2863 47.0343 14.6792 46.1503 13.278 43.9996V30.4624C13.278 30.4624 11.7897 31.0852 10.5626 31.6868C11.473 31.8082 12.4098 32.0879 12.766 32.7028C12.6477 33.0789 12.4497 33.4251 12.1856 33.7179C11.9215 34.0106 11.5975 34.2431 11.2355 34.3995C10.2671 34.8323 11.2355 42.1366 11.2355 42.1366C11.2355 42.1366 9.65223 42.5298 9.12446 43.9838C9.12446 43.9838 11.7343 44.2477 12.8188 45.0789C13.2729 45.4118 13.7098 45.7676 14.1277 46.145Z" fill="#FFE4C8"/>
<path opacity="0.8" d="M3.75049 69.9187C3.61591 72.1089 3.51035 74.7293 3.37577 77.3919C3.71091 72.3279 4.72949 63.6356 4.72949 63.6356C4.72949 63.6356 5.63989 66.8497 5.7085 66.5093C5.90905 65.5013 5.28101 59.8146 5.33643 57.788C5.36281 56.8697 5.29684 54.5158 5.21504 52.2174C5.14115 53.8007 5.0356 55.384 4.85616 56.7245C4.33895 60.5614 4.0909 64.3138 3.75049 69.9187Z" fill="#FFE4C8"/>
<path d="M3.28102 88.8835V79.2703C3.46837 75.9823 3.59504 72.623 3.75864 69.9182C4.09905 64.3133 4.35502 60.5504 4.86431 56.7241C5.37361 52.8978 5.28917 47.1108 5.54513 45.0921C5.8011 43.0734 6.56108 42.6433 7.16274 40.2446C7.76439 37.8459 8.30271 33.0669 9.28964 32.394C10.2766 31.7211 13.2875 30.4624 13.2875 30.4624V43.997C15.074 46.744 17.2009 47.4275 17.2009 47.4275C18.5625 43.4877 18.3936 41.9255 19.7526 40.4768C21.1116 39.0281 22.0959 37.1413 24.2386 37.9303C25.2572 38.3077 25.8008 38.6903 25.2942 42.1524C24.7875 45.6146 23.7636 46.686 23.7636 46.686C23.5921 47.8655 23.8481 51.2934 24.2729 53.0482C24.6978 54.803 23.0828 59.4605 22.3176 62.4398C21.5523 65.419 17.4674 71.4514 17.4674 71.4514C17.3687 73.7154 17.4181 75.9835 17.6152 78.2411C17.6468 78.5604 17.6864 78.9035 17.7313 79.2623C17.7313 79.2623 17.8685 85.2446 18.5229 88.8756" stroke="#263238" stroke-width="0.230207" stroke-linecap="round" stroke-linejoin="round"/>
<path d="M17.1927 47.4212C17.1927 47.4212 16.7678 49.3212 15.9181 49.746C15.0684 50.1709 13.8387 49.7408 13.8387 49.7408" stroke="#263238" stroke-width="0.230207" stroke-linecap="round" stroke-linejoin="round"/>
<path d="M13.2798 43.9985C13.2798 43.9985 12.4301 42.1065 9.70683 43.7479" stroke="#263238" stroke-width="0.230207" stroke-linecap="round" stroke-linejoin="round"/>
<path d="M13.2801 36.3549C13.2801 36.3549 13.1112 35.3522 11.6968 35.0962" stroke="#263238" stroke-width="0.230207" stroke-linecap="round" stroke-linejoin="round"/>
<path d="M17.449 71.4366C15.8314 73.4843 16.1296 75.4424 15.5174 76.4636C14.9052 77.4848 14.9896 81.1422 14.9896 81.1422" stroke="#263238" stroke-width="0.230207" stroke-linecap="round" stroke-linejoin="round"/>
<path d="M5.7092 51.7772V58.902C5.7321 60.9384 5.93075 62.9691 6.30294 64.9713" stroke="#263238" stroke-width="0.230207" stroke-linecap="round" stroke-linejoin="round"/>
<path d="M23.7438 46.6701C23.7438 46.6701 23.7438 45.4562 23.4034 45.0868" stroke="#263238" stroke-width="0.230207" stroke-linecap="round" stroke-linejoin="round"/>
<path d="M22.8101 42.8509C22.8101 42.8509 22.058 40.3123 19.844 41.4206" stroke="#263238" stroke-width="0.230207" stroke-linecap="round" stroke-linejoin="round"/>
<path d="M15.9921 46.7967C14.3481 46.831 12.683 46.1027 11.7066 46.9893" stroke="#263238" stroke-width="0.230207" stroke-linecap="round" stroke-linejoin="round"/>
<path d="M2.59007 76.0087H3.03339C3.17336 76.0087 3.3076 76.0643 3.40658 76.1633C3.50555 76.2623 3.56116 76.3965 3.56116 76.5365V85.5771C3.56116 85.7171 3.50555 85.8513 3.40658 85.9503C3.3076 86.0493 3.17336 86.1049 3.03339 86.1049H2.59007V76.0087Z" fill="#263238"/>
<path d="M2.59007 77.3171C2.59007 77.3171 10.3905 75.2773 17.8768 77.6021C17.9924 77.6386 18.0934 77.7109 18.165 77.8087C18.2367 77.9064 18.2753 78.0245 18.2753 78.1457V82.9352C18.2756 82.9773 18.2666 83.0189 18.249 83.0571C18.2313 83.0953 18.2054 83.1291 18.1731 83.1561C18.1408 83.1831 18.1029 83.2026 18.0622 83.2133C18.0215 83.2239 17.9789 83.2253 17.9375 83.2175C16.3305 82.9273 9.26368 81.811 2.97534 83.2809L2.59007 77.3171Z" fill="#263238"/>
<path d="M2.92683 77.2275V76.1482C2.92718 76.0638 2.91085 75.9801 2.87878 75.902C2.84671 75.8239 2.79953 75.7529 2.73995 75.6931C2.68037 75.6332 2.60957 75.5858 2.5316 75.5534C2.45363 75.521 2.37003 75.5043 2.28559 75.5043H1.4095C1.30167 75.5055 1.19607 75.5352 1.1034 75.5904C1.01072 75.6455 0.934254 75.7241 0.881736 75.8183L0.116474 77.2275V85.4738L0.879097 86.4001C0.935581 86.4694 1.00681 86.5253 1.08761 86.5636C1.16841 86.602 1.25674 86.6218 1.34617 86.6217H2.29351C2.37794 86.6217 2.46154 86.605 2.53951 86.5726C2.61748 86.5403 2.68829 86.4928 2.74787 86.433C2.80745 86.3731 2.85463 86.3021 2.8867 86.224C2.91877 86.1459 2.9351 86.0623 2.93475 85.9778L2.92683 77.2275Z" fill="#F0792E" stroke="#263238" stroke-width="0.230207" stroke-linecap="round" stroke-linejoin="round"/>
<path d="M2.37443 76.6954L4.15565 76.3655C4.20525 76.3562 4.25629 76.3579 4.30514 76.3706C4.35399 76.3833 4.39944 76.4066 4.43826 76.4388C4.47707 76.4711 4.50828 76.5115 4.52968 76.5572C4.55107 76.6029 4.56212 76.6528 4.56203 76.7033V77.7298L3.97093 78.1678V81.5086H4.56203V83.2555C4.56205 83.3533 4.52812 83.4481 4.46603 83.5236C4.40395 83.5992 4.31756 83.6508 4.22162 83.6698L2.53276 84.0207C2.47312 84.0333 2.41142 84.0324 2.35218 84.0181C2.29293 84.0038 2.23763 83.9764 2.19033 83.9379C2.14303 83.8995 2.10492 83.851 2.07879 83.7959C2.05266 83.7408 2.03917 83.6806 2.0393 83.6197V77.1017C2.03834 77.0054 2.07143 76.9118 2.13275 76.8374C2.19406 76.7631 2.27965 76.7128 2.37443 76.6954Z" fill="#F0792E" stroke="#263238" stroke-width="0.230207" stroke-linecap="round" stroke-linejoin="round"/>
<path d="M2.44201 83.5603L3.89336 83.2278C3.94635 83.2152 3.99337 83.1846 4.02652 83.1414C4.05967 83.0981 4.07694 83.0448 4.07544 82.9904V81.9005" stroke="#263238" stroke-width="0.230207" stroke-linecap="round" stroke-linejoin="round"/>
<path d="M3.48633 81.4565V77.8809L4.06687 77.4375V76.7673" stroke="#263238" stroke-width="0.230207" stroke-linecap="round" stroke-linejoin="round"/>
<path d="M1.12723 76.1568V85.7093" stroke="#263238" stroke-width="0.230207" stroke-linecap="round" stroke-linejoin="round"/>
<path d="M8.17425 79.8855C8.10426 79.8855 8.03714 79.8577 7.98766 79.8083C7.93817 79.7588 7.91037 79.6916 7.91037 79.6217V79.0517C7.91037 78.9817 7.93817 78.9146 7.98766 78.8651C8.03714 78.8156 8.10426 78.7878 8.17425 78.7878C8.24423 78.7878 8.31135 78.8156 8.36084 78.8651C8.41033 78.9146 8.43813 78.9817 8.43813 79.0517V79.6217C8.43813 79.6916 8.41033 79.7588 8.36084 79.8083C8.31135 79.8577 8.24423 79.8855 8.17425 79.8855Z" fill="white"/>
<path d="M12.1916 79.9917C12.1216 79.9917 12.0545 79.9639 12.005 79.9144C11.9555 79.8649 11.9277 79.7978 11.9277 79.7278V79.1578C11.9277 79.0878 11.9555 79.0207 12.005 78.9712C12.0545 78.9217 12.1216 78.8939 12.1916 78.8939C12.2616 78.8939 12.3287 78.9217 12.3782 78.9712C12.4277 79.0207 12.4555 79.0878 12.4555 79.1578V79.7278C12.4555 79.7978 12.4277 79.8649 12.3782 79.9144C12.3287 79.9639 12.2616 79.9917 12.1916 79.9917Z" fill="white"/>
<path d="M15.7688 80.4309C15.6988 80.4309 15.6316 80.4031 15.5822 80.3536C15.5327 80.3041 15.5049 80.237 15.5049 80.167V79.597C15.5049 79.527 15.5327 79.4599 15.5822 79.4104C15.6316 79.3609 15.6988 79.3331 15.7688 79.3331C15.8387 79.3331 15.9059 79.3609 15.9553 79.4104C16.0048 79.4599 16.0326 79.527 16.0326 79.597V80.167C16.0326 80.237 16.0048 80.3041 15.9553 80.3536C15.9059 80.4031 15.8387 80.4309 15.7688 80.4309Z" fill="white"/>
</svg>
