<svg width="28" height="32" viewBox="0 0 28 32" fill="none" xmlns="http://www.w3.org/2000/svg">
<path d="M22.0836 25.2687C20.0332 28.9642 16.1366 31.2599 11.9144 31.2599C5.50615 31.2599 0.292546 26.0463 0.292546 19.6379C0.292546 14.6773 3.38868 10.3196 8.03537 8.67938L5.93845 0.781246C5.90748 0.664378 5.93253 0.539886 6.00614 0.444182C6.07975 0.348478 6.19366 0.292301 6.31442 0.292301H17.5143C17.635 0.292301 17.7489 0.348322 17.8227 0.444182C17.8964 0.540041 17.9213 0.664378 17.8904 0.781246L15.7935 8.67969C18.2043 9.53355 20.2853 11.1769 21.6821 13.3384C21.7987 13.5189 21.747 13.7596 21.5665 13.8762C21.3863 13.9929 21.1454 13.9411 21.0285 13.7605C19.6619 11.6459 17.5939 10.0628 15.2058 9.30277C15.0081 9.23991 14.8945 9.03278 14.9477 8.83219L17.0085 1.07038H12.3035V4.40725C12.3035 4.62216 12.1293 4.79629 11.9144 4.79629C11.6995 4.79629 11.5254 4.62216 11.5254 4.40725V1.07038H6.82032L8.88099 8.83219C8.93421 9.03278 8.82061 9.23991 8.62298 9.30277C4.10576 10.7402 1.07063 14.8936 1.07063 19.6379C1.07063 25.6172 5.93518 30.4818 11.9144 30.4818C15.8538 30.4818 19.4898 28.3396 21.4032 24.8911C21.5075 24.7032 21.7442 24.6355 21.9322 24.7397C22.12 24.844 22.1879 25.0808 22.0836 25.2687ZM27.7068 19.2894C27.7068 21.8036 25.6614 23.849 23.1472 23.849C20.6331 23.849 18.5877 21.8036 18.5877 19.2894C18.5877 16.7753 20.6331 14.7299 23.1472 14.7299C25.6614 14.7299 27.7068 16.7753 27.7068 19.2894ZM26.9287 19.2894C26.9287 17.2043 25.2323 15.508 23.1472 15.508C21.0621 15.508 19.3658 17.2043 19.3658 19.2894C19.3658 21.3745 21.0621 23.0709 23.1472 23.0709C25.2323 23.0709 26.9287 21.3745 26.9287 19.2894ZM25.2373 17.7748C25.0752 17.634 24.8293 17.6513 24.6885 17.8134L22.6636 20.1439L21.6465 18.9911C21.5044 18.8301 21.2585 18.8146 21.0975 18.9567C20.9362 19.0988 20.921 19.3447 21.0631 19.5057L22.3741 20.9917C22.4481 21.0754 22.5542 21.1234 22.6658 21.1234H22.6673C22.7794 21.1229 22.886 21.0742 22.9596 20.9895L25.2759 18.3237C25.4169 18.1615 25.3996 17.9158 25.2373 17.7748Z" fill="#92140C" stroke="#92140C" stroke-width="0.581481"/>
</svg>
