<svg width="202" height="126" viewBox="0 0 202 126" fill="none" xmlns="http://www.w3.org/2000/svg">
<path d="M11.2771 125.714C11.2771 125.714 -11.3164 99.19 7.45629 70.4736C24.1123 44.9952 43.5319 46.7362 57.7791 57.0759C63.8475 61.48 81.3426 57.6186 96.2339 31.693C116.541 -3.66252 186.933 17.7805 174.098 72.1761C167.887 98.4996 193.001 99.4563 180.205 125.769L11.2771 125.714Z" fill="#EBF3FA"/>
<path d="M166.776 24.8784C166.776 24.8784 165.952 24.2564 165.739 23.3266C165.581 22.6369 165.977 21.7709 166.009 21.7317L164.905 21.5115C164.905 21.5115 164.578 22.9764 165.131 23.9509C165.301 24.2495 165.793 24.6606 166.11 24.8137C166.459 24.9838 166.776 24.8784 166.776 24.8784Z" fill="#6BB7BF"/>
<path d="M168.694 24.2071L169.698 25.3564C169.698 25.3564 166.859 26.1099 165.237 24.1017C165.236 24.1017 167.626 24.9099 168.694 24.2071Z" fill="#86D1CD"/>
<path d="M116.927 9.78217C116.927 9.78217 117.952 8.0818 119.76 9.1225L120.751 8.04486C120.751 8.04486 119.716 7.35978 117.529 8.84924C116.096 9.82374 116.927 9.78217 116.927 9.78217Z" fill="#F99746"/>
<path d="M115.915 11.4502C115.915 11.4502 115.571 9.59663 118.623 8.22879C118.623 8.22879 117.529 8.84997 117.3 10.7343L115.915 11.4502Z" fill="#F99746"/>
<path d="M53.7147 64.9768C53.7147 64.9768 52.0366 64.3156 52.6955 62.5398L51.5809 61.8154C51.5809 61.8154 51.1237 62.8453 52.7887 64.5804C53.8779 65.715 53.7147 64.9768 53.7147 64.9768Z" fill="#5685D8"/>
<path d="M55.361 65.6318C55.361 65.6318 53.7522 66.2199 52.0665 63.6935C52.0665 63.6935 52.7877 64.5803 54.5104 64.5002L55.361 65.6318Z" fill="#739AF0"/>
<path d="M58.5502 41.7098C58.5502 41.7098 59.4762 41.1247 59.574 40.4181C59.574 40.4181 60.4753 40.4666 60.6708 40.7591C60.6708 40.7591 60.2567 41.9291 59.7695 42.1485C59.7687 42.1485 58.6726 42.2216 58.5502 41.7098Z" fill="#F1A34F"/>
<path d="M8.882 84.5799C8.882 84.5799 7.89442 83.9557 7.78974 83.2021C7.78974 83.2021 6.82755 83.2544 6.61972 83.5662C6.61972 83.5662 7.06156 84.8139 7.5819 85.0479C7.5819 85.0479 8.75192 85.1265 8.882 84.5799Z" fill="#F1A34F"/>
<path d="M108.465 28.8988C108.465 28.8988 107.085 28.0275 106.94 26.9744C106.94 26.9744 105.596 27.0468 105.306 27.4825C105.306 27.4825 105.923 29.2252 106.65 29.5523C106.649 29.5523 108.283 29.6608 108.465 28.8988Z" fill="#86D1CD"/>
<path d="M193.19 24.8462L201.768 51.7041C202.146 52.8887 201.486 54.1688 200.301 54.5475L153.185 69.5961C152 69.9748 150.72 69.3143 150.342 68.1297L141.764 41.2717C141.385 40.0871 142.045 38.807 143.23 38.4283L190.346 23.3798C191.532 23.0011 192.811 23.6607 193.19 24.8462Z" fill="#CDE0FB"/>
<path d="M166.094 58.9867L153.537 62.997C153.005 63.1664 152.432 62.8708 152.262 62.3397L152.223 62.2188C152.053 61.6877 152.35 61.1143 152.881 60.9441L165.438 56.933C165.969 56.7636 166.543 57.0592 166.713 57.5904L166.752 57.7112C166.921 58.2439 166.625 58.8173 166.094 58.9867Z" fill="#AFCDFB"/>
<path d="M182.642 53.7015L170.084 57.7127C169.553 57.882 168.979 57.5865 168.809 57.0553L168.771 56.9345C168.601 56.4034 168.897 55.8299 169.428 55.6598L181.986 51.6486C182.517 51.4793 183.09 51.7749 183.26 52.306L183.299 52.4268C183.468 52.958 183.173 53.5314 182.642 53.7015Z" fill="#AFCDFB"/>
<path d="M167.696 44.6279C167.842 45.0859 167.882 45.4861 167.816 45.8295C167.733 46.2628 167.482 46.5461 167.063 46.68C166.643 46.814 166.274 46.7285 165.956 46.4237C165.702 46.182 165.503 45.8325 165.357 45.3745C165.211 44.9165 165.17 44.5186 165.234 44.1784C165.317 43.745 165.569 43.4609 165.992 43.3262C166.414 43.1915 166.785 43.2762 167.103 43.581C167.352 43.8212 167.55 44.1699 167.696 44.6279ZM167.119 44.8095C167.027 44.5224 166.918 44.2915 166.79 44.1175C166.596 43.8566 166.385 43.7627 166.158 43.835C165.925 43.9097 165.806 44.1075 165.801 44.4285C165.796 44.6456 165.839 44.8988 165.932 45.189C166.181 45.9703 166.505 46.2975 166.904 46.1697C167.134 46.0958 167.251 45.8957 167.254 45.5685C167.257 45.3561 167.213 45.1028 167.119 44.8095Z" fill="#AFCDFB"/>
<path d="M170.274 43.8043C170.42 44.2623 170.46 44.6626 170.394 45.0059C170.311 45.4393 170.06 45.7225 169.641 45.8565C169.221 45.9904 168.852 45.905 168.534 45.6001C168.28 45.3584 168.081 45.009 167.935 44.551C167.789 44.093 167.748 43.695 167.812 43.3548C167.895 42.9214 168.147 42.6374 168.57 42.5027C168.992 42.368 169.363 42.4527 169.681 42.7575C169.931 42.9984 170.128 43.3463 170.274 43.8043ZM169.698 43.986C169.606 43.6989 169.497 43.4679 169.369 43.294C169.175 43.033 168.964 42.9391 168.737 43.0115C168.504 43.0862 168.384 43.284 168.38 43.605C168.374 43.822 168.417 44.0753 168.511 44.3655C168.76 45.1468 169.084 45.4739 169.483 45.3461C169.713 45.2722 169.83 45.0721 169.833 44.745C169.836 44.5325 169.791 44.2793 169.698 43.986Z" fill="#AFCDFB"/>
<path d="M174.181 42.5565C174.327 43.0145 174.367 43.4148 174.301 43.7581C174.218 44.1915 173.967 44.4747 173.547 44.6087C173.128 44.7426 172.759 44.6572 172.44 44.3523C172.187 44.1106 171.988 43.7612 171.842 43.3032C171.695 42.8452 171.654 42.4472 171.718 42.107C171.802 41.6736 172.054 41.3896 172.477 41.2549C172.899 41.1202 173.269 41.2049 173.588 41.5097C173.837 41.7498 174.035 42.0985 174.181 42.5565ZM173.604 42.7382C173.513 42.4511 173.403 42.2202 173.276 42.0462C173.082 41.7852 172.871 41.6913 172.644 41.7637C172.41 41.8384 172.291 42.0362 172.286 42.3572C172.281 42.5742 172.324 42.8275 172.417 43.1177C172.667 43.899 172.991 44.2261 173.389 44.0983C173.62 44.0244 173.737 43.8243 173.74 43.4972C173.743 43.2839 173.698 43.0315 173.604 42.7382Z" fill="#AFCDFB"/>
<path d="M176.76 41.733C176.906 42.191 176.946 42.5912 176.88 42.9345C176.797 43.3679 176.546 43.6512 176.126 43.7851C175.707 43.919 175.338 43.8336 175.019 43.5288C174.766 43.2871 174.567 42.9376 174.421 42.4796C174.274 42.0216 174.233 41.6237 174.297 41.2834C174.381 40.8501 174.633 40.566 175.056 40.4313C175.478 40.2966 175.848 40.3813 176.167 40.6869C176.416 40.9263 176.614 41.275 176.76 41.733ZM176.183 41.9146C176.092 41.6275 175.982 41.3966 175.855 41.2226C175.661 40.9617 175.45 40.8678 175.223 40.9401C174.989 41.0148 174.87 41.2126 174.865 41.5336C174.86 41.7507 174.903 42.0039 174.996 42.2941C175.246 43.0754 175.57 43.4025 175.968 43.2748C176.199 43.2009 176.316 43.0007 176.319 42.6736C176.322 42.4604 176.277 42.2079 176.183 41.9146Z" fill="#AFCDFB"/>
<path d="M179.339 40.9093C179.485 41.3673 179.525 41.7675 179.459 42.1109C179.376 42.5442 179.125 42.8275 178.705 42.9614C178.286 43.0954 177.917 43.0099 177.598 42.7051C177.345 42.4634 177.146 42.1139 177 41.6559C176.853 41.1979 176.813 40.8 176.876 40.4597C176.96 40.0264 177.212 39.7423 177.635 39.6076C178.057 39.4729 178.427 39.5576 178.746 39.8632C178.995 40.1034 179.193 40.4513 179.339 40.9093ZM178.762 41.0909C178.671 40.8038 178.561 40.5729 178.434 40.3989C178.24 40.138 178.029 40.0441 177.802 40.1164C177.568 40.1911 177.449 40.3889 177.444 40.7099C177.439 40.927 177.482 41.1802 177.575 41.4704C177.825 42.2517 178.149 42.5789 178.548 42.4511C178.778 42.3772 178.895 42.1771 178.898 41.8499C178.901 41.6375 178.855 41.3842 178.762 41.0909Z" fill="#AFCDFB"/>
<path d="M181.917 40.0856C182.063 40.5436 182.103 40.9439 182.037 41.2872C181.954 41.7205 181.703 42.0038 181.283 42.1377C180.864 42.2717 180.495 42.1862 180.176 41.8814C179.923 41.6397 179.724 41.2903 179.578 40.8323C179.431 40.3743 179.391 39.9763 179.454 39.6361C179.538 39.2027 179.79 38.9187 180.213 38.784C180.635 38.6493 181.005 38.7339 181.324 39.0395C181.574 39.2797 181.771 39.6276 181.917 40.0856ZM181.34 40.2673C181.249 39.9801 181.139 39.7492 181.012 39.5753C180.818 39.3143 180.607 39.2204 180.38 39.2928C180.146 39.3674 180.027 39.5653 180.022 39.8862C180.017 40.1033 180.06 40.3566 180.153 40.6468C180.403 41.428 180.727 41.7552 181.126 41.6274C181.356 41.5535 181.473 41.3534 181.476 41.0262C181.479 40.8138 181.434 40.5605 181.34 40.2673Z" fill="#AFCDFB"/>
<path d="M185.824 38.838C185.971 39.2959 186.011 39.6962 185.945 40.0395C185.861 40.4729 185.611 40.7562 185.191 40.8901C184.771 41.024 184.403 40.9386 184.084 40.6338C183.831 40.3921 183.631 40.0426 183.485 39.5846C183.339 39.1266 183.298 38.7286 183.362 38.3884C183.445 37.9551 183.698 37.671 184.12 37.5363C184.543 37.4016 184.913 37.4863 185.232 37.7911C185.48 38.0313 185.678 38.38 185.824 38.838ZM185.248 39.0196C185.156 38.7325 185.046 38.5016 184.919 38.3276C184.725 38.0667 184.514 37.9728 184.287 38.0451C184.054 38.1198 183.935 38.3176 183.93 38.6386C183.925 38.8557 183.968 39.1089 184.061 39.3991C184.31 40.1804 184.634 40.5075 185.033 40.3797C185.263 40.3059 185.38 40.1057 185.383 39.7786C185.386 39.5654 185.341 39.3129 185.248 39.0196Z" fill="#AFCDFB"/>
<path d="M188.403 38.0143C188.549 38.4723 188.589 38.8725 188.523 39.2158C188.439 39.6492 188.189 39.9325 187.769 40.0664C187.35 40.2004 186.981 40.1149 186.662 39.8101C186.409 39.5684 186.21 39.2189 186.063 38.7609C185.917 38.3029 185.876 37.905 185.94 37.5647C186.023 37.1314 186.276 36.8473 186.698 36.7126C187.121 36.5779 187.491 36.6626 187.81 36.9674C188.059 37.2076 188.256 37.5563 188.403 38.0143ZM187.826 38.1959C187.734 37.9088 187.625 37.6779 187.497 37.5039C187.303 37.243 187.092 37.1491 186.865 37.2214C186.632 37.2961 186.513 37.4939 186.508 37.8149C186.503 38.032 186.546 38.2852 186.639 38.5754C186.888 39.3567 187.212 39.6839 187.611 39.5561C187.841 39.4822 187.958 39.282 187.961 38.9549C187.965 38.7425 187.92 38.4892 187.826 38.1959Z" fill="#AFCDFB"/>
<path d="M190.981 37.1907C191.127 37.6487 191.167 38.049 191.101 38.3923C191.017 38.8256 190.767 39.1089 190.347 39.2428C189.928 39.3768 189.559 39.2913 189.24 38.9865C188.987 38.7448 188.788 38.3954 188.641 37.9374C188.495 37.4794 188.454 37.0814 188.518 36.7412C188.601 36.3078 188.854 36.0238 189.276 35.8891C189.699 35.7544 190.069 35.839 190.388 36.1446C190.636 36.3848 190.834 36.7327 190.981 37.1907ZM190.404 37.3724C190.312 37.0852 190.203 36.8543 190.075 36.6804C189.881 36.4194 189.67 36.3255 189.443 36.3979C189.21 36.4725 189.091 36.6704 189.086 36.9913C189.081 37.2084 189.124 37.4616 189.217 37.7518C189.466 38.5331 189.791 38.8603 190.189 38.7325C190.419 38.6586 190.536 38.4585 190.539 38.1313C190.543 37.9189 190.497 37.6656 190.404 37.3724Z" fill="#AFCDFB"/>
<path d="M193.56 36.367C193.706 36.825 193.746 37.2253 193.68 37.5686C193.597 38.002 193.346 38.2853 192.926 38.4192C192.507 38.5531 192.138 38.4677 191.819 38.1629C191.566 37.9212 191.367 37.5717 191.22 37.1137C191.074 36.6557 191.033 36.2577 191.097 35.9175C191.18 35.4842 191.433 35.2001 191.855 35.0654C192.278 34.9307 192.648 35.0154 192.967 35.3202C193.215 35.5611 193.413 35.9098 193.56 36.367ZM192.982 36.5487C192.891 36.2616 192.781 36.0307 192.654 35.8567C192.46 35.5958 192.249 35.5019 192.022 35.5742C191.788 35.6489 191.669 35.8467 191.664 36.1677C191.659 36.3848 191.702 36.638 191.795 36.9282C192.045 37.7095 192.369 38.0366 192.767 37.9088C192.998 37.835 193.115 37.6348 193.118 37.3077C193.121 37.0952 193.076 36.842 192.982 36.5487Z" fill="#AFCDFB"/>
<path d="M159.061 37.8957L146.772 41.8206C146.241 41.9907 145.668 41.6944 145.498 41.1632C145.328 40.6321 145.624 40.0587 146.155 39.8885L158.444 35.9636C158.975 35.7943 159.549 36.0898 159.719 36.621C159.889 37.1529 159.593 37.7263 159.061 37.8957Z" fill="#AFCDFB"/>
<path d="M188.91 30.6286C188.798 30.2776 188.573 29.9943 188.287 29.8049C188.204 29.7495 188.092 29.7795 188.047 29.8688L188.009 29.9458C187.972 30.0197 187.994 30.1105 188.062 30.1567C188.269 30.2953 188.431 30.5016 188.513 30.7556C188.594 31.0104 188.581 31.2721 188.494 31.5045C188.464 31.5823 188.498 31.6693 188.572 31.7078L188.648 31.7478C188.736 31.794 188.845 31.7532 188.881 31.66C189.003 31.3406 189.022 30.9796 188.91 30.6286Z" fill="#AFCDFB"/>
<path d="M189.707 30.3745C189.523 29.798 189.139 29.3392 188.657 29.0513C188.575 29.0028 188.469 29.0351 188.426 29.1206L188.404 29.1645C188.365 29.2422 188.393 29.3369 188.468 29.3815C188.87 29.6248 189.19 30.0089 189.344 30.4907C189.498 30.9726 189.461 31.4706 189.274 31.9024C189.239 31.9825 189.27 32.0764 189.348 32.1172L189.391 32.1403C189.475 32.1849 189.581 32.1495 189.619 32.0625C189.844 31.5468 189.891 30.951 189.707 30.3745Z" fill="#AFCDFB"/>
<path d="M190.404 30.1514C190.157 29.3801 189.638 28.7697 188.985 28.394C188.903 28.3471 188.798 28.3794 188.755 28.4641C188.716 28.5426 188.744 28.6381 188.82 28.6819C189.404 29.0175 189.868 29.5625 190.088 30.2522C190.308 30.9419 190.246 31.6555 189.965 32.2666C189.928 32.3467 189.96 32.4406 190.038 32.4822C190.122 32.526 190.227 32.4922 190.266 32.406C190.58 31.7209 190.65 30.9234 190.404 30.1514Z" fill="#AFCDFB"/>
<path d="M191.16 29.9104C190.845 28.9274 190.178 28.1546 189.342 27.6858C189.26 27.6397 189.155 27.6712 189.112 27.7559L189.074 27.8313C189.034 27.9106 189.063 28.0068 189.14 28.0499C189.886 28.4694 190.481 29.1599 190.762 30.0374C191.042 30.9149 190.957 31.8224 190.592 32.596C190.555 32.6761 190.587 32.7715 190.665 32.8123L190.739 32.8516C190.823 32.8955 190.927 32.8608 190.967 32.7754C191.377 31.9094 191.474 30.8926 191.16 29.9104Z" fill="#AFCDFB"/>
<path d="M159.452 48.1671H132.627V125.433H159.452V48.1671Z" fill="#F0792E"/>
<path d="M132.627 48.1671H61.7593V125.433H132.627V48.1671Z" fill="#F9AD7D"/>
<path d="M132.627 91.3725V85.9643L61.7592 85.9643V91.3725L132.627 91.3725Z" fill="#FFA412"/>
<path d="M159.453 91.3723V85.9641H132.628V91.3723L159.453 91.3723Z" fill="#FA9712"/>
<path d="M110.62 48.9947C110.62 48.9947 126.631 38.5908 137.514 41.9339L135.269 44.0306L136.28 47.5545C136.28 47.5545 124.178 43.6134 110.289 49.5874L110.62 48.9947Z" fill="#F99746"/>
<path d="M109.725 46.6386C109.725 46.6386 106.9 46.2968 102.69 45.7179C91.5124 44.18 70.5761 40.964 66.8182 37.9874C60.9135 33.3112 74.9052 13.4525 80.9623 10.6961C87.0186 7.94194 109.725 46.6386 109.725 46.6386Z" fill="#F99746"/>
<path d="M154.022 21.9089C155.031 26.8291 109.31 48.0833 109.31 48.0833C109.31 48.0833 110.142 45.8341 111.495 42.3117C111.495 42.3117 111.497 42.3087 111.499 42.3056C116.442 29.4424 128.35 -0.40835 132.263 0.00423369C132.657 0.0450302 133.116 0.185124 133.63 0.410659C139.64 3.0555 153.092 17.3781 154.022 21.9089Z" fill="#F99746"/>
<path d="M133.243 4.78589C130.452 9.63605 111.79 41.8045 111.498 42.3056C116.442 29.4424 128.349 -0.40835 132.263 0.00423369C132.263 0.00423369 133.038 -0.018089 133.629 0.410659C134.342 0.931007 134.785 2.10795 133.243 4.78589Z" fill="#ED7D2B"/>
<path d="M102.697 45.7179H102.689C91.5116 44.18 70.5753 40.964 66.8174 37.9874C65.1209 33.208 69.523 32.8185 72.7275 32.4821C75.9289 32.1458 102.697 45.7179 102.697 45.7179Z" fill="#ED7D2B"/>
<path d="M101.198 48.1611C101.198 48.1611 103.761 42.3302 108.805 42.0077C114.074 41.6706 117.066 48.1611 117.066 48.1611H101.198Z" fill="#ED7D2B"/>
<path d="M133.764 48.1671H59.6108V58.7942H133.764V48.1671Z" fill="#FFC261"/>
<path d="M161.714 48.1671H133.764V58.7942H161.714V48.1671Z" fill="#FA9712"/>
<path d="M103.794 47.2766C103.794 47.2766 89.2709 42.6758 79.4705 45.7178C68.1738 49.224 68.8434 63.1626 68.8434 63.1626L71.5006 62.0703L75.0876 63.753C75.0876 63.753 75.6926 48.9931 84.9026 46.9263C92.8656 45.1405 103.794 47.2766 103.794 47.2766Z" fill="#F99746"/>
<path d="M96.3448 48.1671H90.9366V125.425H96.3448V48.1671Z" fill="#FFA412"/>
<path d="M40.8807 42.2701L35.9154 43.9343L40.7086 58.2354L45.6739 56.5712L40.8807 42.2701Z" fill="#ED7D2B"/>
<path d="M35.9155 43.9352L22.7982 48.3316L27.5914 62.6327L40.7087 58.2363L35.9155 43.9352Z" fill="#F99746"/>
<path d="M38.591 51.9337L38.2557 50.933L25.1384 55.3294L25.4738 56.3301L38.591 51.9337Z" fill="#FFB93E"/>
<path d="M43.5553 50.2698L43.22 49.2692L38.2546 50.9333L38.59 51.934L43.5553 50.2698Z" fill="#F69B34"/>
<path d="M32.2901 44.9034C32.2901 44.9034 35.6993 41.7305 38.7352 41.4842L38.301 42.0461L38.8045 42.6126C38.8045 42.6126 35.4137 42.8451 32.2455 45.0381L32.2901 44.9034Z" fill="#FFB93E"/>
<path d="M31.5776 45.0719C31.5776 45.0719 31.0334 45.1843 30.2182 45.3382C28.0537 45.7469 23.9794 46.4505 23.0996 46.1326C21.7164 45.6338 23.0742 41.09 24.0249 40.204C24.9747 39.318 31.5776 45.0719 31.5776 45.0719Z" fill="#FFB93E"/>
<path d="M38.2431 37.747C38.7349 38.5952 31.5909 45.3651 31.5909 45.3651C31.5909 45.3651 31.6056 44.8971 31.6371 44.1612C31.6371 44.1612 31.6371 44.1605 31.6371 44.1597C31.7541 41.4725 32.1067 35.2083 32.8564 35.0421C32.9318 35.0251 33.0257 35.0228 33.1343 35.0328C34.4113 35.1498 37.7897 36.9657 38.2431 37.747Z" fill="#FFB93E"/>
<path d="M33.3352 35.8664C33.1196 36.9371 31.661 44.0488 31.6379 44.1596C31.7549 41.4725 32.1074 35.2083 32.8572 35.042C32.8572 35.042 32.9996 34.9897 33.135 35.0328C33.299 35.0851 33.4537 35.2752 33.3352 35.8664Z" fill="#F69B34"/>
<path d="M30.2201 45.3374L30.2186 45.3382C28.054 45.7469 23.9798 46.4505 23.1 46.1326C22.4896 45.3536 23.2801 45.008 23.852 44.747C24.4239 44.4861 30.2201 45.3374 30.2201 45.3374Z" fill="#F69B34"/>
<path d="M30.094 45.8824C30.094 45.8824 30.2064 44.6439 31.1201 44.2714C32.0746 43.8819 33.0306 44.8979 33.0306 44.8979L30.094 45.8824Z" fill="#F69B34"/>
<path d="M36.1253 43.8644L22.4 48.4646L23.0593 50.4316L36.7845 45.8314L36.1253 43.8644Z" fill="#FFA15A"/>
<path d="M41.2991 42.1302L36.1257 43.8641L36.785 45.8311L41.9583 44.0972L41.2991 42.1302Z" fill="#F78639"/>
<path d="M30.5203 45.5577C30.5203 45.5577 27.5468 45.6069 25.9218 46.7777C24.0483 48.1271 25.0374 50.6657 25.0374 50.6657L25.4615 50.2985L26.2297 50.3878C26.2297 50.3878 25.4261 47.6183 27.0026 46.6646C28.365 45.8402 30.5203 45.5577 30.5203 45.5577Z" fill="#FFBE55"/>
<path d="M29.1995 46.1869L28.1989 46.5222L33.0334 60.9467L34.0341 60.6113L29.1995 46.1869Z" fill="#FFB93E"/>
<path d="M101.331 86.2363H87.6883V125.531H101.331V86.2363Z" fill="#C5DDF8"/>
<path d="M87.6878 86.2363H51.6468V125.531H87.6878V86.2363Z" fill="#F3F7FC"/>
<path d="M87.6883 108.208V105.458H51.6473V108.208L87.6883 108.208Z" fill="#94B8E0"/>
<path d="M101.33 108.208V105.458H87.6877V108.208H101.33Z" fill="#94B8E0"/>
<path d="M77.9384 85.6313C77.9384 85.6313 88.9881 80.6164 96.6894 82.5216L95.1514 83.5507L95.9265 85.3673C95.9265 85.3673 87.3577 83.1335 77.7167 85.9277L77.9384 85.6313Z" fill="#4A75CB"/>
<path d="M76.0463 85.4387C76.0463 85.4387 74.6099 85.2648 72.4685 84.9707C66.7839 84.1887 56.1368 82.553 54.2255 81.0389C51.2228 78.6611 58.3383 68.5613 61.4188 67.1596C64.4986 65.7594 76.0463 85.4387 76.0463 85.4387Z" fill="#C5DDF8"/>
<path d="M98.5733 72.8627C99.0867 75.3644 75.8343 86.1739 75.8343 86.1739C75.8343 86.1739 76.2576 85.03 76.9458 83.2388C76.9458 83.2388 76.9466 83.2373 76.9481 83.2358C79.4621 76.6937 85.5177 61.5128 87.5082 61.7229C87.7084 61.7437 87.9424 61.8153 88.2033 61.9292C91.2592 63.2747 98.1007 70.5581 98.5733 72.8627Z" fill="#C5DDF8"/>
<path d="M88.0066 64.1545C86.5864 66.6216 77.0962 82.981 76.9477 83.2358C79.4617 76.6937 85.5172 61.5128 87.5078 61.7229C87.5078 61.7229 87.9019 61.7114 88.2029 61.9292C88.5654 62.194 88.791 62.7921 88.0066 64.1545Z" fill="#F3F7FC"/>
<path d="M72.4723 84.9707H72.4685C66.7839 84.1887 56.1368 82.553 54.2255 81.0389C53.3626 78.608 55.6018 78.4102 57.2314 78.2393C58.8586 78.0684 72.4723 84.9707 72.4723 84.9707Z" fill="#F3F7FC"/>
<path d="M71.7094 86.2131C71.7094 86.2131 73.0126 83.2481 75.5782 83.0833C78.2576 82.9117 79.7794 86.2131 79.7794 86.2131H71.7094Z" fill="#4A75CB"/>
<path d="M88.2662 86.2363H50.5549V91.6407H88.2662V86.2363Z" fill="#94B8E0"/>
<path d="M102.481 86.2363H88.2666V91.6407H102.481V86.2363Z" fill="#507BAA"/>
<path d="M73.025 85.783C73.025 85.783 65.6385 83.4429 60.6544 84.9901C54.9098 86.7729 55.25 93.8622 55.25 93.8622L56.6009 93.3064L58.4252 94.1624C58.4252 94.1624 58.7331 86.6558 63.417 85.6051C67.4674 84.6968 73.025 85.783 73.025 85.783Z" fill="#4A75CB"/>
<path d="M69.2361 86.2363H66.4858V125.87H69.2361V86.2363Z" fill="#94B8E0"/>
<path d="M182.419 100.974C182.308 101.042 182.196 101.107 182.082 101.169C182.044 101.191 182.004 101.212 181.966 101.232C181.877 101.279 181.789 101.324 181.7 101.369C177.422 103.469 172.205 101.857 169.879 97.6394C167.662 93.616 168.853 88.6326 172.493 86.0155C172.783 85.8069 173.088 85.6129 173.409 85.4366C173.525 85.3735 173.64 85.312 173.757 85.255C173.87 85.1988 173.985 85.1449 174.1 85.0941C174.452 84.9371 174.809 84.8055 175.17 84.6969C175.706 84.5353 176.251 84.4267 176.796 84.369C178.488 84.1897 180.191 84.4991 181.7 85.2373C183.302 86.0201 184.687 87.2871 185.613 88.9667C187.944 93.1972 186.507 98.4877 182.419 100.974Z" fill="#FFB93E"/>
<path d="M177.804 101.582C174.818 101.582 172.069 99.9594 170.63 97.3476C169.574 95.4333 169.328 93.2225 169.935 91.1227C170.543 89.0228 171.931 87.2855 173.846 86.2302C175.054 85.5643 176.418 85.2118 177.79 85.2118C180.775 85.2118 183.524 86.8344 184.964 89.4462C186.019 91.3605 186.265 93.5712 185.658 95.6711C185.051 97.771 183.662 99.5083 181.748 100.564C180.539 101.229 179.175 101.582 177.804 101.582ZM177.79 85.6991C176.5 85.6991 175.218 86.03 174.082 86.6566C172.281 87.6488 170.976 89.283 170.405 91.2574C169.834 93.2318 170.065 95.3109 171.058 97.1113C172.411 99.5675 174.996 101.093 177.804 101.093C179.094 101.093 180.376 100.762 181.512 100.136C183.313 99.1434 184.618 97.5093 185.189 95.5349C185.76 93.5605 185.529 91.4814 184.537 89.6809C183.182 87.2247 180.597 85.6991 177.79 85.6991Z" fill="#FFA412"/>
<path d="M177.797 87.3701L179.602 91.0272L183.638 91.6137L180.717 94.4602L181.406 98.4798L177.797 96.5816L174.187 98.4798L174.877 94.4602L171.956 91.6137L175.992 91.0272L177.797 87.3701Z" fill="#FFA412"/>
<path d="M38.6746 110.787C38.5638 110.855 38.4514 110.92 38.3375 110.983C38.299 111.004 38.2597 111.025 38.2212 111.045C38.1327 111.092 38.0442 111.137 37.9549 111.182C33.6774 113.283 28.4601 111.67 26.1347 107.453C23.917 103.429 25.1086 98.4458 28.748 95.8287C29.0382 95.6201 29.3438 95.4261 29.6647 95.2498C29.7802 95.1867 29.8957 95.1251 30.0127 95.0681C30.1258 95.012 30.2405 94.9581 30.3552 94.9073C30.707 94.7502 31.0641 94.6186 31.4251 94.5101C31.9617 94.3484 32.5059 94.2399 33.0516 94.1822C34.7435 94.0028 36.4462 94.3122 37.9557 95.0504C39.5575 95.8333 40.9423 97.1003 41.8683 98.7799C44.1991 103.01 42.762 108.301 38.6746 110.787Z" fill="#FFB93E"/>
<path d="M34.0589 111.395C31.0738 111.395 28.3243 109.773 26.8849 107.161C25.8296 105.246 25.5832 103.036 26.1906 100.936C26.7979 98.836 28.1865 97.0987 30.1009 96.0433C31.3094 95.3775 32.6734 95.025 34.0451 95.025C37.0301 95.025 39.7796 96.6476 41.2191 99.2593C42.2744 101.174 42.5207 103.384 41.9134 105.484C41.3061 107.584 39.9174 109.321 38.0031 110.377C36.7946 111.043 35.4306 111.395 34.0589 111.395ZM34.0451 95.5122C32.7557 95.5122 31.4733 95.8432 30.3372 96.4698C28.5368 97.462 27.2313 99.0961 26.6601 101.071C26.089 103.045 26.3207 105.124 27.3129 106.924C28.6668 109.381 31.2516 110.906 34.0597 110.906C35.349 110.906 36.6314 110.575 37.7675 109.949C39.568 108.957 40.8735 107.322 41.4446 105.348C42.0158 103.374 41.7841 101.295 40.7919 99.4941C39.4371 97.0379 36.8523 95.5122 34.0451 95.5122Z" fill="#FFA412"/>
<path d="M34.0524 97.1834L35.8575 100.84L39.8933 101.427L36.9728 104.274L37.6618 108.293L34.0524 106.395L30.4423 108.293L31.132 104.274L28.2116 101.427L32.2474 100.84L34.0524 97.1834Z" fill="#FFA412"/>
<path d="M187.802 79.1147C187.74 79.1532 187.676 79.1894 187.612 79.2255C187.59 79.2379 187.568 79.2494 187.547 79.261C187.496 79.2879 187.446 79.3133 187.396 79.3379C184.983 80.5233 182.037 79.6135 180.725 77.2327C179.473 74.9619 180.146 72.1493 182.2 70.6721C182.364 70.5544 182.536 70.4451 182.717 70.345C182.782 70.3088 182.848 70.275 182.913 70.2426C182.977 70.2111 183.042 70.1803 183.107 70.1518C183.305 70.0633 183.507 69.9886 183.71 69.9278C184.013 69.837 184.32 69.7754 184.628 69.7431C185.583 69.6422 186.544 69.8162 187.396 70.2334C188.299 70.6752 189.081 71.3903 189.604 72.3386C190.92 74.7256 190.109 77.7115 187.802 79.1147Z" fill="#FFB93E"/>
<path d="M185.197 79.4573C183.512 79.4573 181.96 78.5413 181.148 77.0672C180.552 75.9865 180.413 74.7387 180.756 73.5541C181.099 72.3687 181.883 71.388 182.963 70.7923C183.645 70.4166 184.415 70.2173 185.189 70.2173C186.874 70.2173 188.426 71.1333 189.238 72.6073C189.834 73.688 189.973 74.9358 189.63 76.1204C189.287 77.3051 188.503 78.2865 187.423 78.8823C186.74 79.2587 185.971 79.4573 185.197 79.4573ZM185.188 70.4936C184.461 70.4936 183.737 70.6807 183.095 71.034C182.079 71.5943 181.342 72.5165 181.02 73.6311C180.698 74.7457 180.829 75.9188 181.389 76.9348C182.153 78.3211 183.612 79.1825 185.197 79.1825C185.924 79.1825 186.648 78.9954 187.29 78.6421C188.306 78.0817 189.043 77.1596 189.365 76.045C189.688 74.9304 189.557 73.7573 188.996 72.7413C188.232 71.3549 186.773 70.4936 185.188 70.4936Z" fill="#FFA412"/>
<path d="M185.193 71.4366L186.212 73.501L188.489 73.832L186.841 75.4385L187.23 77.7069L185.193 76.6354L183.156 77.7069L183.545 75.4385L181.897 73.832L184.174 73.501L185.193 71.4366Z" fill="#FFA412"/>
<path d="M22.5634 89.7536C22.5011 89.7921 22.4372 89.8283 22.3733 89.8645C22.3517 89.8768 22.3294 89.8883 22.3078 89.8999C22.2578 89.9268 22.2078 89.9522 22.1577 89.9768C19.7438 91.1623 16.7988 90.2524 15.4864 87.8716C14.2348 85.6008 14.9075 82.7882 16.9612 81.3111C17.1252 81.1933 17.2976 81.084 17.4785 80.9839C17.5431 80.9477 17.6093 80.9139 17.6748 80.8815C17.7386 80.85 17.8033 80.8192 17.868 80.7907C18.0666 80.7022 18.2682 80.6275 18.4714 80.5667C18.7739 80.4759 19.0811 80.4143 19.389 80.382C20.3442 80.2811 21.3049 80.4551 22.157 80.8723C23.0607 81.3141 23.8427 82.0292 24.3654 82.9776C25.6816 85.3645 24.8703 88.3504 22.5634 89.7536Z" fill="#FFB93E"/>
<path d="M19.9582 90.0961C18.2732 90.0961 16.7214 89.1801 15.9093 87.706C15.3135 86.6253 15.1742 85.3775 15.5175 84.1929C15.8601 83.0075 16.6444 82.0268 17.7244 81.4311C18.4064 81.0554 19.1761 80.8561 19.9505 80.8561C21.6355 80.8561 23.1873 81.772 23.9993 83.2461C24.5951 84.3268 24.7345 85.5746 24.3911 86.7592C24.0478 87.9439 23.2642 88.9253 22.1843 89.5211C21.5015 89.8975 20.7325 90.0961 19.9582 90.0961ZM19.9497 81.1324C19.2223 81.1324 18.4987 81.3194 17.8568 81.6728C16.8407 82.2331 16.1033 83.1553 15.7815 84.2699C15.4598 85.3845 15.5899 86.5575 16.1503 87.5736C16.9146 88.9599 18.3733 89.8213 19.9582 89.8213C20.6856 89.8213 21.4091 89.6342 22.0511 89.2809C23.0672 88.7205 23.8046 87.7984 24.1264 86.6838C24.4489 85.5692 24.318 84.3961 23.7576 83.38C22.9933 81.9937 21.5346 81.1324 19.9497 81.1324Z" fill="#FFA412"/>
<path d="M19.9547 82.0754L20.9731 84.1398L23.2508 84.4708L21.6027 86.0773L21.9915 88.3457L19.9547 87.2742L17.9172 88.3457L18.3067 86.0773L16.6579 84.4708L18.9356 84.1398L19.9547 82.0754Z" fill="#FFA412"/>
<path d="M100.848 13.4247C100.811 13.4701 100.773 13.5148 100.733 13.5587C100.72 13.5733 100.706 13.5887 100.693 13.6025C100.663 13.6356 100.632 13.6687 100.6 13.7011C99.0923 15.2405 96.6252 15.3375 94.9995 13.8889C93.4485 12.5072 93.2068 10.2026 94.3653 8.53992C94.4576 8.40752 94.5585 8.27897 94.6693 8.15505C94.7086 8.1104 94.7493 8.06729 94.7901 8.02496C94.8302 7.98416 94.8702 7.94337 94.9118 7.90488C95.038 7.7848 95.1704 7.67472 95.3082 7.57466C95.5129 7.42533 95.7285 7.29678 95.9525 7.18978C96.6468 6.85879 97.4196 6.7341 98.1739 6.82185C98.9745 6.91499 99.7558 7.24675 100.403 7.82329C102.033 9.27733 102.217 11.7498 100.848 13.4247Z" fill="#CDE0FB"/>
<path d="M97.7327 14.5894C96.8244 14.5894 95.9592 14.2607 95.2757 13.6518C94.5375 12.9945 94.1003 12.0885 94.0433 11.1024C93.9864 10.1156 94.3174 9.16576 94.9747 8.42758C95.6321 7.68939 96.5381 7.25141 97.5241 7.19522C98.5102 7.13749 99.4608 7.46925 100.199 8.12661C100.937 8.78397 101.374 9.68996 101.431 10.676C101.488 11.6628 101.157 12.6127 100.5 13.3509C99.8426 14.0891 98.9374 14.5263 97.9506 14.5832C97.8774 14.5878 97.8051 14.5894 97.7327 14.5894ZM97.742 7.40921C97.6735 7.40921 97.6057 7.41151 97.5372 7.41536C96.6097 7.46925 95.7576 7.88029 95.1395 8.5746C94.5214 9.26891 94.2104 10.1618 94.2635 11.0894C94.3174 12.0169 94.7284 12.869 95.4227 13.4871C96.117 14.1052 97.0099 14.4162 97.9375 14.3631C98.865 14.3092 99.7171 13.8982 100.335 13.2038C100.953 12.5095 101.264 11.6166 101.211 10.6891C101.157 9.76155 100.746 8.90944 100.052 8.29133C99.4092 7.71864 98.5956 7.40921 97.742 7.40921Z" fill="#AFCDFB"/>
<path d="M96.8302 8.31978L98.1496 9.60757L99.9593 9.2504L99.1418 10.9038L100.041 12.5134L98.2158 12.2478L96.9626 13.5995L96.6517 11.7821L94.9782 11.0077L96.6109 10.1502L96.8302 8.31978Z" fill="#AFCDFB"/>
<path d="M88.9731 122.764C88.9069 122.845 88.8392 122.925 88.7683 123.004C88.7445 123.031 88.7206 123.057 88.6968 123.083C88.6421 123.143 88.5867 123.201 88.5305 123.259C85.8372 126.008 81.4304 126.182 78.5261 123.595C75.7558 121.127 75.324 117.012 77.393 114.04C77.5578 113.803 77.7387 113.574 77.9357 113.353C78.0065 113.274 78.0781 113.196 78.152 113.121C78.2228 113.048 78.296 112.976 78.3691 112.907C78.5946 112.693 78.8317 112.496 79.0773 112.317C79.4421 112.05 79.8278 111.82 80.228 111.63C81.4689 111.039 82.8482 110.817 84.1961 110.974C85.6262 111.14 87.021 111.733 88.178 112.763C91.0899 115.357 91.4178 119.772 88.9731 122.764Z" fill="#94B8E0"/>
<path d="M83.4068 124.845C81.785 124.845 80.2393 124.258 79.0185 123.17C77.7007 121.996 76.9186 120.378 76.817 118.616C76.7154 116.853 77.3058 115.156 78.4805 113.839C79.6551 112.521 81.2723 111.739 83.035 111.637C84.7962 111.534 86.4943 112.126 87.8121 113.301C89.1307 114.475 89.9119 116.092 90.0143 117.855C90.1159 119.618 89.5248 121.314 88.3509 122.632C87.177 123.95 85.559 124.732 83.7963 124.834C83.6662 124.841 83.5361 124.845 83.4068 124.845ZM83.4238 112.02C83.3021 112.02 83.1805 112.023 83.0581 112.03C81.4009 112.126 79.8799 112.861 78.7753 114.101C77.6707 115.34 77.1157 116.936 77.2111 118.593C77.3066 120.251 78.0417 121.772 79.2818 122.876C80.5211 123.981 82.1167 124.537 83.774 124.44C85.4313 124.345 86.9523 123.61 88.0569 122.37C89.1614 121.13 89.7164 119.535 89.621 117.877C89.5255 116.22 88.7904 114.699 87.5504 113.595C86.4019 112.572 84.9486 112.02 83.4238 112.02Z" fill="#F3F7FC"/>
<path d="M81.797 113.646L84.1539 115.946L87.3853 115.308L85.9259 118.261L87.5316 121.137L84.2725 120.662L82.0333 123.077L81.4783 119.83L78.4886 118.447L81.4052 116.916L81.797 113.646Z" fill="#C5DDF8"/>
<path d="M192.064 126H0.217493C0.0975929 126 0 125.896 0 125.77V125.692C0 125.565 0.09829 125.461 0.217493 125.461H192.065C192.185 125.461 192.282 125.565 192.282 125.692V125.77C192.282 125.896 192.184 126 192.064 126Z" fill="#2E3552"/>
<path d="M111.702 75.995C111.702 75.995 110.698 76.6801 109.581 76.5669C108.752 76.483 107.935 75.7156 107.903 75.6648L107.242 76.814C107.242 76.814 108.753 77.73 110.049 77.4791C110.446 77.4021 111.089 77.008 111.38 76.7124C111.701 76.3876 111.702 75.995 111.702 75.995Z" fill="#6BB7BF"/>
<path d="M111.675 73.6018L113.335 72.9137C113.335 72.9137 113.108 76.3645 110.256 77.419C110.256 77.4198 112.058 75.0574 111.675 73.6018Z" fill="#86D1CD"/>
<path d="M123.324 114.854C123.324 114.854 124.049 115.675 124.762 115.659C124.762 115.659 124.858 116.557 124.6 116.796C124.6 116.796 123.379 116.573 123.085 116.126C123.085 116.127 122.839 115.056 123.324 114.854Z" fill="#F99746"/>
<path d="M111.95 103.563C111.95 103.563 111.293 102.766 111.302 101.812C111.309 101.105 111.896 100.354 111.937 100.324L110.914 99.8531C110.914 99.8531 110.255 101.202 110.566 102.278C110.662 102.607 111.045 103.121 111.317 103.345C111.618 103.591 111.95 103.563 111.95 103.563Z" fill="#CDE0FB"/>
<path d="M113.972 103.356L114.682 104.708C114.682 104.708 111.745 104.78 110.634 102.45C110.634 102.449 112.77 103.791 113.972 103.356Z" fill="#CDE0FB"/>
</svg>
