<svg width="104" height="93" viewBox="0 0 104 93" fill="none" xmlns="http://www.w3.org/2000/svg">
<path d="M48.0433 0.26374C77.3613 -2.25945 77.4204 13.7812 90.6348 28.7368C103.849 43.6925 106.675 50.4616 101.695 67.711C96.716 84.9605 79.9172 98.4619 59.1605 90.8051C38.4038 83.1484 26.4992 90.5024 13.4031 83.6943C0.306884 76.8863 -4.56606 63.7565 5.02851 48.2755C14.6231 32.7946 11.8828 3.38791 48.0433 0.26374Z" fill="#92140C"/>
<path d="M40.4265 23.085C40.7315 23.8 40.816 24.5911 40.6692 25.358C40.5224 26.125 40.151 26.8334 39.6019 27.3936C39.0528 27.9538 38.3507 28.3407 37.5845 28.5051C36.8183 28.6696 36.0224 28.6044 35.2976 28.3176C34.5727 28.0309 33.9515 27.5356 33.5125 26.8944C33.0736 26.2532 32.8366 25.4948 32.8315 24.7154C32.8265 23.936 33.0536 23.1705 33.4842 22.5158C33.9148 21.8611 34.5295 21.3466 35.2504 21.0375C35.7283 20.8319 36.2413 20.7217 36.7601 20.7134C37.2789 20.705 37.7934 20.7986 38.274 20.9887C38.7547 21.1789 39.1922 21.4619 39.5616 21.8215C39.9309 22.1812 40.2248 22.6106 40.4265 23.085Z" fill="#F9C0A8"/>
<path d="M39.5586 23.4573C39.7911 24.0023 39.8554 24.6051 39.7435 25.1896C39.6316 25.7741 39.3485 26.3139 38.93 26.7408C38.5115 27.1677 37.9764 27.4624 37.3925 27.5877C36.8086 27.713 36.2021 27.6632 35.6497 27.4446C35.0974 27.226 34.624 26.8485 34.2896 26.3598C33.9551 25.8711 33.7746 25.2932 33.7708 24.6992C33.7671 24.1052 33.9403 23.5219 34.2685 23.023C34.5968 22.5241 35.0653 22.1321 35.6148 21.8967C35.9789 21.7401 36.3698 21.6562 36.7652 21.6499C37.1605 21.6436 37.5525 21.7149 37.9187 21.8598C38.285 22.0048 38.6183 22.2205 38.8997 22.4946C39.1811 22.7687 39.405 23.0958 39.5586 23.4573Z" fill="#FCD3C3"/>
<path d="M36.7398 23.0084C36.8284 22.9205 36.8309 22.7796 36.7455 22.6938C36.66 22.608 36.5189 22.6096 36.4303 22.6975L35.1598 23.9579C35.0712 24.0458 35.0687 24.1867 35.1542 24.2725C35.2396 24.3583 35.3807 24.3567 35.4693 24.2688L35.8335 23.9075C35.9838 23.7579 36.2053 23.7073 36.3998 23.7782L35.6876 24.4848C35.599 24.5727 35.5965 24.7136 35.6819 24.7994C35.7674 24.8853 35.9086 24.8835 35.9971 24.7957L36.7094 24.089C36.7782 24.2838 36.7263 24.5041 36.5763 24.6536L36.2122 25.0148C36.1465 25.0802 36.1261 25.1778 36.1606 25.2612C36.1952 25.3445 36.2778 25.397 36.3692 25.3936L38.1052 25.3243C38.1623 25.3218 38.2168 25.2975 38.2576 25.2565C38.3015 25.2125 38.3264 25.1533 38.3268 25.0922C38.3262 25.0333 38.3023 24.9778 38.2601 24.9379C38.218 24.898 38.1612 24.8769 38.1022 24.8793L36.9243 24.9263C37.2194 24.5988 37.2696 24.123 37.0478 23.7564L37.2676 23.5384C37.3562 23.4505 37.3587 23.3097 37.2732 23.2238C37.1877 23.138 37.0466 23.1396 36.958 23.2275L36.7383 23.4456C36.6425 23.3867 36.5366 23.3453 36.4254 23.3234L36.7414 23.0099L36.7398 23.0084Z" fill="#F38D5D"/>
<path d="M39.5216 23.3728C39.5043 23.3763 39.4424 23.2649 39.3077 23.0731C39.12 22.8029 38.891 22.5637 38.6289 22.3644C38.4484 22.2292 38.2537 22.1139 38.048 22.0207C37.8114 21.9158 37.562 21.8417 37.3059 21.8003C37.1683 21.7771 37.029 21.7644 36.8893 21.7625C36.5937 21.7568 36.2986 21.7954 36.0138 21.8772C35.8644 21.9206 35.7183 21.975 35.5769 22.04C35.436 22.1067 35.3001 22.1833 35.17 22.2692C35.0445 22.3538 34.9256 22.4478 34.8144 22.5504C34.7062 22.6484 34.6061 22.7549 34.515 22.8688C34.4266 22.9785 34.3464 23.0944 34.2751 23.2157C34.1418 23.4386 34.0377 23.6774 33.9653 23.9263C33.9027 24.1438 33.8645 24.3674 33.8514 24.5928C33.8339 24.9225 33.8677 25.2525 33.9517 25.5709C34.0115 25.7979 34.0588 25.9212 34.0423 25.9286C34.0258 25.9359 33.9537 25.8236 33.8663 25.5983C33.7445 25.2765 33.6841 24.9345 33.6881 24.5895C33.6943 24.0711 33.8343 23.5618 34.0947 23.1107C34.2482 22.8436 34.4402 22.6002 34.6647 22.3885C34.7835 22.2767 34.9112 22.1745 35.0465 22.0831C35.186 21.9893 35.3324 21.9062 35.4844 21.8346C35.6372 21.7642 35.7951 21.7056 35.9568 21.6595C36.1139 21.6139 36.2743 21.5811 36.4364 21.5613C36.5922 21.5428 36.7492 21.5365 36.9058 21.5427C37.0558 21.5474 37.2052 21.5637 37.3525 21.5913C37.6234 21.643 37.8858 21.7308 38.1326 21.8525C38.3457 21.957 38.5455 22.0864 38.7276 22.2379C38.9932 22.4572 39.2151 22.7242 39.3821 23.0252C39.4988 23.2375 39.5344 23.3672 39.5216 23.3728Z" fill="#F38D5D"/>
<path d="M62.8244 70.6663C62.7504 71.2776 62.4951 71.8537 62.0907 72.3216C61.6862 72.7896 61.1509 73.1284 60.5524 73.2952C59.9539 73.462 59.3191 73.4493 58.7284 73.2587C58.1377 73.0681 57.6176 72.7082 57.2339 72.2244C56.8503 71.7407 56.6203 71.1549 56.5732 70.5412C56.526 69.9275 56.6637 69.3135 56.9689 68.7769C57.2742 68.2402 57.7331 67.8051 58.2878 67.5265C58.8424 67.248 59.4678 67.1385 60.0848 67.212C60.494 67.2602 60.8895 67.3878 61.2487 67.5875C61.6079 67.7873 61.9237 68.0552 62.1781 68.376C62.4325 68.6968 62.6205 69.0642 62.7314 69.4571C62.8423 69.8501 62.8739 70.261 62.8244 70.6663Z" fill="#F9C0A8"/>
<path d="M62.0817 70.5784C62.0253 71.0443 61.8307 71.4833 61.5225 71.8399C61.2142 72.1965 60.8062 72.4546 60.3501 72.5817C59.894 72.7088 59.4102 72.6991 58.9601 72.5538C58.5099 72.4085 58.1136 72.1341 57.8213 71.7654C57.529 71.3967 57.3538 70.9503 57.3179 70.4826C57.2821 70.0149 57.3871 69.547 57.6198 69.1381C57.8524 68.7292 58.2023 68.3977 58.625 68.1855C59.0477 67.9732 59.5243 67.8899 59.9945 67.946C60.3063 67.9828 60.6077 68.0801 60.8813 68.2323C61.155 68.3845 61.3956 68.5887 61.5894 68.8332C61.7833 69.0776 61.9265 69.3576 62.011 69.6571C62.0954 69.9565 62.1194 70.2696 62.0817 70.5784Z" fill="#FCD3C3"/>
<path d="M60.3252 69.153C60.4208 69.1278 60.4783 69.0322 60.4537 68.9395C60.429 68.8468 60.3316 68.792 60.236 68.8172L58.8653 69.1786C58.7698 69.2038 58.7123 69.2995 58.7369 69.3922C58.7615 69.4849 58.859 69.5396 58.9546 69.5144L59.3474 69.4108C59.5098 69.3677 59.6818 69.4208 59.7871 69.5464L59.0187 69.7491C58.9232 69.7743 58.8656 69.8699 58.8902 69.9626C58.9149 70.0553 59.0124 70.1101 59.1079 70.0849L59.8763 69.8822C59.8465 70.0431 59.7236 70.1736 59.5615 70.2168L59.1687 70.3204C59.0977 70.3392 59.045 70.398 59.0357 70.4689C59.0264 70.5398 59.0623 70.6085 59.1264 70.6424L60.3446 71.2824C60.3848 71.3032 60.4318 71.3081 60.476 71.2962C60.5235 71.2834 60.564 71.2526 60.5885 71.2109C60.6115 71.1703 60.617 71.1227 60.6039 71.0787C60.5908 71.0346 60.5602 70.9976 60.5187 70.9759L59.6922 70.5417C60.0243 70.4339 60.2472 70.1274 60.2402 69.7881L60.4773 69.7256C60.5729 69.7004 60.6304 69.6048 60.6058 69.512C60.5811 69.4193 60.4837 69.3646 60.3881 69.3898L60.151 69.4523C60.1087 69.374 60.0523 69.3036 59.9847 69.2446L60.3256 69.1547L60.3252 69.153Z" fill="#F38D5D"/>
<path d="M62.089 70.5057C62.0757 70.5013 62.0774 70.4004 62.061 70.2155C62.0393 69.9558 61.9769 69.701 61.876 69.4605C61.8058 69.2963 61.7178 69.1401 61.6137 68.9947C61.4929 68.8291 61.3512 68.6795 61.192 68.5496C61.1068 68.4792 61.0162 68.4154 60.9211 68.3587C60.7207 68.2377 60.5029 68.1474 60.2752 68.0906C60.1555 68.0612 60.0338 68.0407 59.911 68.0293C59.788 68.0193 59.6644 68.018 59.5411 68.0254C59.4215 68.0337 59.3028 68.0511 59.1858 68.0775C59.0728 68.1018 58.962 68.1352 58.8544 68.1773C58.7503 68.2175 58.6494 68.2653 58.5524 68.3202C58.3727 68.4203 58.2067 68.5429 58.0585 68.685C57.9294 68.8094 57.8147 68.9476 57.7164 69.0971C57.5738 69.3163 57.4664 69.556 57.3979 69.8077C57.349 69.9871 57.3326 70.0904 57.3184 70.0889C57.3042 70.0874 57.2992 69.9818 57.3285 69.7927C57.3723 69.5237 57.4664 69.2651 57.6057 69.0301C57.8153 68.677 58.113 68.3831 58.4703 68.1767C58.6813 68.0543 58.9095 67.9635 59.1472 67.9071C59.2731 67.8775 59.4011 67.858 59.5301 67.8488C59.6629 67.8397 59.7963 67.8407 59.9289 67.8518C60.0616 67.864 60.1931 67.8864 60.3223 67.9188C60.4481 67.9497 60.5711 67.9907 60.6901 68.0414C60.8044 68.0903 60.9145 68.1482 61.0195 68.2145C61.1205 68.2771 61.2165 68.3474 61.3067 68.4247C61.472 68.5674 61.6172 68.7316 61.7383 68.9128C61.8431 69.0689 61.9289 69.2367 61.9938 69.4129C62.0892 69.6685 62.1357 69.9395 62.131 70.212C62.127 70.4039 62.1 70.507 62.089 70.5057Z" fill="#F38D5D"/>
<path d="M30.5679 26.286C30.8095 26.8524 30.8764 27.4789 30.7602 28.0864C30.6439 28.6939 30.3497 29.255 29.9148 29.6987C29.4798 30.1425 28.9237 30.4488 28.3169 30.5791C27.71 30.7094 27.0796 30.6577 26.5055 30.4306C25.9314 30.2035 25.4393 29.8112 25.0916 29.3033C24.744 28.7954 24.5562 28.1948 24.5522 27.5774C24.5482 26.9601 24.7281 26.3538 25.0692 25.8352C25.4102 25.3166 25.8971 24.9091 26.4682 24.6643C26.8467 24.5014 27.253 24.4142 27.6639 24.4076C28.0748 24.4009 28.4823 24.4751 28.863 24.6257C29.2438 24.7763 29.5903 25.0004 29.8828 25.2853C30.1754 25.5702 30.4081 25.9103 30.5679 26.286Z" fill="#F9C0A8"/>
<path d="M29.8809 26.5815C30.065 27.0131 30.1159 27.4906 30.0273 27.9536C29.9387 28.4165 29.7144 28.8441 29.3829 29.1822C29.0515 29.5203 28.6277 29.7538 28.1652 29.853C27.7027 29.9522 27.2223 29.9128 26.7848 29.7397C26.3473 29.5665 25.9724 29.2675 25.7075 28.8804C25.4425 28.4933 25.2996 28.0356 25.2966 27.5651C25.2936 27.0947 25.4308 26.6326 25.6908 26.2375C25.9508 25.8424 26.3219 25.5319 26.7571 25.3454C27.0455 25.2213 27.3552 25.1549 27.6683 25.1499C27.9814 25.1449 28.2919 25.2014 28.5819 25.3162C28.872 25.431 29.1361 25.6018 29.3589 25.8189C29.5818 26.0361 29.7592 26.2952 29.8809 26.5815Z" fill="#FCD3C3"/>
<path d="M27.6483 26.2251C27.7185 26.1554 27.7205 26.0439 27.6528 25.9759C27.5851 25.908 27.4733 25.9092 27.4032 25.9788L26.3969 26.9772C26.3267 27.0468 26.3247 27.1584 26.3924 27.2263C26.4601 27.2943 26.5719 27.293 26.642 27.2234L26.9305 26.9373C27.0495 26.8187 27.225 26.7787 27.3791 26.8348L26.8149 27.3945C26.7448 27.4641 26.7428 27.5757 26.8104 27.6437C26.8781 27.7117 26.9899 27.7103 27.0601 27.6407L27.6242 27.081C27.6788 27.2353 27.6376 27.4098 27.5188 27.5282L27.2304 27.8143C27.1784 27.8661 27.1622 27.9434 27.1896 28.0094C27.217 28.0755 27.2824 28.117 27.3548 28.1143L28.7298 28.0595C28.775 28.0574 28.8182 28.0382 28.8505 28.0057C28.8853 27.9709 28.905 27.924 28.9053 27.8756C28.9049 27.829 28.8859 27.785 28.8525 27.7534C28.8192 27.7218 28.7741 27.7051 28.7274 27.707L27.7945 27.7442C28.0282 27.4848 28.068 27.108 27.8923 26.8176L28.0664 26.6449C28.1365 26.5753 28.1385 26.4637 28.0708 26.3957C28.0031 26.3277 27.8914 26.329 27.8212 26.3987L27.6471 26.5713C27.5713 26.5247 27.4873 26.4919 27.3993 26.4746L27.6496 26.2263L27.6483 26.2251Z" fill="#F38D5D"/>
<path d="M29.8522 26.5148C29.8385 26.5176 29.7895 26.4294 29.6828 26.2774C29.5341 26.0634 29.3527 25.874 29.1451 25.716C29.0022 25.609 28.8479 25.5177 28.6851 25.4438C28.4977 25.3608 28.3001 25.3021 28.0973 25.2693C27.9883 25.2509 27.878 25.2409 27.7673 25.2393C27.5332 25.2348 27.2994 25.2654 27.0738 25.3301C26.9555 25.3645 26.8398 25.4076 26.7278 25.4591C26.6162 25.512 26.5085 25.5726 26.4055 25.6407C26.3061 25.7077 26.2119 25.7821 26.1238 25.8634C26.0381 25.941 25.9588 26.0254 25.8867 26.1156C25.8167 26.2024 25.7532 26.2943 25.6967 26.3903C25.5911 26.5669 25.5086 26.7561 25.4513 26.9532C25.4017 27.1255 25.3715 27.3025 25.3611 27.4811C25.3472 27.7422 25.374 28.0036 25.4406 28.2558C25.4879 28.4356 25.5254 28.5333 25.5123 28.5391C25.4992 28.5449 25.4421 28.456 25.3729 28.2775C25.2764 28.0227 25.2286 27.7517 25.2318 27.4785C25.2367 27.0679 25.3476 26.6645 25.5538 26.3072C25.6754 26.0956 25.8275 25.9029 26.0052 25.7352C26.0994 25.6466 26.2005 25.5657 26.3076 25.4932C26.4181 25.4189 26.5341 25.3532 26.6545 25.2964C26.7755 25.2406 26.9006 25.1943 27.0287 25.1578C27.1531 25.1216 27.2801 25.0956 27.4086 25.08C27.532 25.0653 27.6563 25.0603 27.7803 25.0652C27.8992 25.069 28.0175 25.0818 28.1341 25.1037C28.3487 25.1447 28.5566 25.2142 28.752 25.3106C28.9208 25.3934 29.0791 25.4958 29.2234 25.6159C29.4337 25.7896 29.6095 26.001 29.7417 26.2394C29.8342 26.4076 29.8624 26.5103 29.8522 26.5148Z" fill="#F38D5D"/>
<path d="M56.3308 75.5169C56.2375 76.2887 55.9151 77.016 55.4045 77.6068C54.8939 78.1976 54.218 78.6254 53.4624 78.836C52.7067 79.0466 51.9053 79.0306 51.1595 78.7899C50.4137 78.5493 49.7571 78.0948 49.2727 77.4841C48.7884 76.8734 48.498 76.1338 48.4385 75.359C48.3789 74.5842 48.5528 73.809 48.9382 73.1315C49.3235 72.4539 49.903 71.9046 50.6032 71.5529C51.3035 71.2012 52.093 71.063 52.872 71.1557C53.3886 71.2166 53.888 71.3777 54.3415 71.6299C54.7949 71.882 55.1937 72.2203 55.5149 72.6253C55.8361 73.0303 56.0735 73.4942 56.2135 73.9903C56.3535 74.4865 56.3934 75.0052 56.3308 75.5169Z" fill="#F9C0A8"/>
<path d="M55.3942 75.4066C55.3231 75.9947 55.0774 76.549 54.6882 76.9992C54.299 77.4494 53.7839 77.7754 53.2081 77.9358C52.6322 78.0963 52.0215 78.084 51.4531 77.9006C50.8848 77.7171 50.3844 77.3707 50.0154 76.9052C49.6463 76.4398 49.4252 75.8761 49.3799 75.2857C49.3346 74.6952 49.4672 74.1045 49.7609 73.5882C50.0547 73.0719 50.4963 72.6533 51.03 72.3854C51.5637 72.1175 52.1655 72.0123 52.7591 72.0831C53.1528 72.1296 53.5332 72.2524 53.8787 72.4446C54.2242 72.6368 54.528 72.8945 54.7728 73.2032C55.0175 73.5118 55.1983 73.8653 55.3049 74.2434C55.4116 74.6214 55.4419 75.0167 55.3942 75.4066Z" fill="#FCD3C3"/>
<path d="M53.1764 73.6069C53.297 73.5751 53.3696 73.4544 53.3385 73.3373C53.3075 73.2203 53.1844 73.1511 53.0637 73.1829L51.3332 73.6393C51.2126 73.6711 51.14 73.7919 51.1711 73.9089C51.2022 74.026 51.3252 74.0951 51.4459 74.0632L51.9418 73.9325C52.1469 73.878 52.364 73.945 52.497 74.1036L51.5269 74.3595C51.4063 74.3913 51.3336 74.5121 51.3647 74.6291C51.3958 74.7462 51.5189 74.8152 51.6395 74.7834L52.6097 74.5276C52.5719 74.7307 52.4168 74.8955 52.2122 74.95L51.7162 75.0808C51.6266 75.1045 51.5601 75.1788 51.5484 75.2683C51.5366 75.3578 51.582 75.4446 51.6628 75.4873L53.2008 76.2953C53.2516 76.3216 53.3109 76.3279 53.3667 76.3128C53.4267 76.2966 53.4779 76.2578 53.5088 76.2051C53.5378 76.1538 53.5447 76.0938 53.5282 76.0382C53.5117 75.9825 53.473 75.9358 53.4207 75.9084L52.3772 75.3602C52.7965 75.2241 53.0779 74.8372 53.0691 74.4088L53.3684 74.3298C53.4891 74.298 53.5617 74.1773 53.5306 74.0602C53.4995 73.9431 53.3765 73.874 53.2558 73.9059L52.9564 73.9848C52.903 73.8859 52.8319 73.7971 52.7465 73.7226L53.1769 73.6091L53.1764 73.6069Z" fill="#F38D5D"/>
<path d="M55.4043 75.3148C55.3876 75.3092 55.3897 75.1818 55.369 74.9484C55.3416 74.6205 55.2628 74.2989 55.1355 73.9951C55.0468 73.7878 54.9357 73.5907 54.8043 73.4071C54.6518 73.1979 54.4729 73.0091 54.2718 72.8452C54.1643 72.7562 54.0499 72.6757 53.9299 72.6041C53.6768 72.4514 53.4018 72.3373 53.1143 72.2656C52.9632 72.2285 52.8095 72.2027 52.6545 72.1882C52.4992 72.1756 52.3432 72.1739 52.1876 72.1833C52.0366 72.1938 51.8866 72.2158 51.739 72.249C51.5963 72.2798 51.4564 72.3219 51.3205 72.3751C51.1892 72.4258 51.0617 72.4861 50.9393 72.5555C50.7124 72.6819 50.5028 72.8367 50.3158 73.016C50.1528 73.1731 50.0079 73.3476 49.8839 73.5363C49.7038 73.8131 49.5682 74.1157 49.4817 74.4335C49.42 74.66 49.3993 74.7904 49.3813 74.7885C49.3633 74.7867 49.3571 74.6534 49.394 74.4145C49.4494 74.075 49.5681 73.7485 49.7441 73.4518C50.0086 73.0059 50.3845 72.6349 50.8356 72.3744C51.1021 72.2198 51.3901 72.1051 51.6903 72.0339C51.8492 71.9965 52.0108 71.9719 52.1737 71.9603C52.3414 71.9488 52.5097 71.9501 52.6772 71.9641C52.8447 71.9795 53.0108 72.0078 53.1738 72.0487C53.3326 72.0877 53.488 72.1395 53.6383 72.2035C53.7825 72.2653 53.9215 72.3384 54.0541 72.422C54.1816 72.5011 54.3029 72.5898 54.4166 72.6874C54.6254 72.8677 54.8087 73.0749 54.9616 73.3037C55.0939 73.5007 55.2022 73.7127 55.2842 73.935C55.4045 74.2577 55.4633 74.5999 55.4574 74.944C55.4523 75.1863 55.4183 75.3164 55.4043 75.3148Z" fill="#F38D5D"/>
<g clip-path="url(#clip0_7_38536)">
<path d="M76.8012 37.9955L63.7627 37.366L62.8086 56.8007L75.8471 57.4303L76.8012 37.9955Z" fill="white" stroke="#263238" stroke-width="0.114759" stroke-linecap="round" stroke-linejoin="round"/>
<path d="M64.6756 38.7368L68.0696 38.8939" stroke="#263238" stroke-width="0.229517" stroke-linecap="round" stroke-linejoin="round"/>
<path d="M64.6448 39.3834L66.9531 39.4894" stroke="#263238" stroke-width="0.229517" stroke-linecap="round" stroke-linejoin="round"/>
<path d="M65.3995 40.947L75.1618 41.3976" stroke="#263238" stroke-width="0.229517" stroke-linecap="round" stroke-linejoin="round"/>
<path d="M65.37 41.5915L75.132 42.0436" stroke="#263238" stroke-width="0.229517" stroke-linecap="round" stroke-linejoin="round"/>
<path d="M65.3353 42.3453L73.6604 42.7308" stroke="#263238" stroke-width="0.229517" stroke-linecap="round" stroke-linejoin="round"/>
<path d="M66.1391 43.0711L65.3452 43.0344L65.3082 43.8218L66.1022 43.8585L66.1391 43.0711Z" stroke="#263238" stroke-width="0.114759" stroke-linecap="round" stroke-linejoin="round"/>
<path d="M67.5766 43.1368L66.7827 43.1001L66.7457 43.8875L67.5397 43.9241L67.5766 43.1368Z" stroke="#263238" stroke-width="0.114759" stroke-linecap="round" stroke-linejoin="round"/>
<path d="M69.0176 43.2037L68.2236 43.167L68.1867 43.9544L68.9806 43.991L69.0176 43.2037Z" stroke="#263238" stroke-width="0.114759" stroke-linecap="round" stroke-linejoin="round"/>
<path d="M70.456 43.2696L69.6621 43.2329L69.6251 44.0203L70.4191 44.0569L70.456 43.2696Z" stroke="#263238" stroke-width="0.114759" stroke-linecap="round" stroke-linejoin="round"/>
<path d="M64.8814 40.9216C64.88 40.9609 64.8667 40.9989 64.8435 41.0307C64.8202 41.0625 64.7879 41.0868 64.7507 41.1003C64.7134 41.1139 64.673 41.1162 64.6345 41.1069C64.596 41.0976 64.5611 41.0772 64.5343 41.0482C64.5075 41.0192 64.49 40.9829 64.4841 40.944C64.4781 40.9052 64.484 40.8654 64.5009 40.8298C64.5178 40.7943 64.5449 40.7645 64.5789 40.7443C64.6129 40.7241 64.6522 40.7143 64.6918 40.7163C64.7443 40.719 64.7936 40.742 64.8291 40.7804C64.8646 40.8188 64.8834 40.8695 64.8814 40.9216Z" fill="#263238"/>
<path d="M65.2228 44.7153L74.985 45.1659" stroke="#263238" stroke-width="0.229517" stroke-linecap="round" stroke-linejoin="round"/>
<path d="M65.1932 45.3603L74.9553 45.8124" stroke="#263238" stroke-width="0.229517" stroke-linecap="round" stroke-linejoin="round"/>
<path d="M65.1578 46.1158L73.4832 46.4998" stroke="#263238" stroke-width="0.229517" stroke-linecap="round" stroke-linejoin="round"/>
<path d="M65.9619 46.8394L65.168 46.8027L65.131 47.5901L65.9249 47.6268L65.9619 46.8394Z" stroke="#263238" stroke-width="0.114759" stroke-linecap="round" stroke-linejoin="round"/>
<path d="M67.4004 46.9063L66.6064 46.8696L66.5695 47.657L67.3634 47.6937L67.4004 46.9063Z" stroke="#263238" stroke-width="0.114759" stroke-linecap="round" stroke-linejoin="round"/>
<path d="M68.8398 46.9732L68.0459 46.9365L68.0089 47.7239L68.8029 47.7606L68.8398 46.9732Z" stroke="#263238" stroke-width="0.114759" stroke-linecap="round" stroke-linejoin="round"/>
<path d="M70.2788 47.0389L69.4849 47.0022L69.4479 47.7896L70.2418 47.8262L70.2788 47.0389Z" stroke="#263238" stroke-width="0.114759" stroke-linecap="round" stroke-linejoin="round"/>
<path d="M64.7046 44.6922C64.7028 44.7314 64.6894 44.7692 64.6659 44.8008C64.6424 44.8325 64.61 44.8564 64.5728 44.8698C64.5355 44.8831 64.4951 44.8852 64.4567 44.8757C64.4183 44.8662 64.3836 44.8456 64.357 44.8166C64.3304 44.7875 64.313 44.7513 64.3072 44.7124C64.3014 44.6736 64.3074 44.6339 64.3243 44.5984C64.3413 44.563 64.3685 44.5333 64.4025 44.5131C64.4364 44.493 64.4757 44.4833 64.5152 44.4854C64.5679 44.4881 64.6174 44.5113 64.6529 44.5501C64.6884 44.5888 64.707 44.6399 64.7046 44.6922Z" fill="#263238"/>
<path d="M65.0457 48.4833L74.8078 48.9354" stroke="#263238" stroke-width="0.229517" stroke-linecap="round" stroke-linejoin="round"/>
<path d="M65.0152 49.1306L74.776 49.581" stroke="#263238" stroke-width="0.229517" stroke-linecap="round" stroke-linejoin="round"/>
<path d="M64.9801 49.8846L73.3055 50.2686" stroke="#263238" stroke-width="0.229517" stroke-linecap="round" stroke-linejoin="round"/>
<path d="M65.7851 50.6075L64.9912 50.5708L64.9542 51.3582L65.7482 51.3948L65.7851 50.6075Z" stroke="#263238" stroke-width="0.114759" stroke-linecap="round" stroke-linejoin="round"/>
<path d="M67.2236 50.6744L66.4297 50.6377L66.3927 51.4251L67.1866 51.4617L67.2236 50.6744Z" stroke="#263238" stroke-width="0.114759" stroke-linecap="round" stroke-linejoin="round"/>
<path d="M68.6636 50.7427L67.8696 50.7061L67.8327 51.4934L68.6266 51.5301L68.6636 50.7427Z" stroke="#263238" stroke-width="0.114759" stroke-linecap="round" stroke-linejoin="round"/>
<path d="M70.1015 50.8084L69.3076 50.7717L69.2706 51.5591L70.0646 51.5958L70.1015 50.8084Z" stroke="#263238" stroke-width="0.114759" stroke-linecap="round" stroke-linejoin="round"/>
<path d="M64.5274 48.4603C64.5256 48.4995 64.5121 48.5373 64.4886 48.5689C64.4652 48.6005 64.4328 48.6245 64.3955 48.6378C64.3583 48.6512 64.3179 48.6532 64.2795 48.6437C64.2411 48.6343 64.2063 48.6137 64.1797 48.5846C64.1531 48.5556 64.1358 48.5193 64.13 48.4805C64.1242 48.4417 64.1301 48.402 64.1471 48.3665C64.164 48.331 64.1912 48.3013 64.2252 48.2812C64.2592 48.2611 64.2985 48.2514 64.338 48.2534C64.3907 48.2561 64.4402 48.2794 64.4757 48.3181C64.5111 48.3569 64.5297 48.408 64.5274 48.4603Z" fill="#263238"/>
<path d="M64.8646 52.3593L74.6251 52.8112" stroke="#263238" stroke-width="0.229517" stroke-linecap="round" stroke-linejoin="round"/>
<path d="M64.8338 53.0065L74.5943 53.4584" stroke="#263238" stroke-width="0.229517" stroke-linecap="round" stroke-linejoin="round"/>
<path d="M64.7967 53.7598L73.1219 54.1453" stroke="#263238" stroke-width="0.229517" stroke-linecap="round" stroke-linejoin="round"/>
<path d="M65.604 54.4847L64.8101 54.448L64.7731 55.2354L65.567 55.272L65.604 54.4847Z" stroke="#263238" stroke-width="0.114759" stroke-linecap="round" stroke-linejoin="round"/>
<path d="M67.0415 54.5511L66.2476 54.5144L66.2106 55.3018L67.0045 55.3384L67.0415 54.5511Z" stroke="#263238" stroke-width="0.114759" stroke-linecap="round" stroke-linejoin="round"/>
<path d="M68.4805 54.6175L67.6865 54.5808L67.6495 55.3682L68.4435 55.4048L68.4805 54.6175Z" stroke="#263238" stroke-width="0.114759" stroke-linecap="round" stroke-linejoin="round"/>
<path d="M69.9209 54.6832L69.127 54.6465L69.09 55.4339L69.8839 55.4705L69.9209 54.6832Z" stroke="#263238" stroke-width="0.114759" stroke-linecap="round" stroke-linejoin="round"/>
<path d="M64.3511 52.3371C64.3494 52.3759 64.3361 52.4134 64.3128 52.4447C64.2896 52.4761 64.2576 52.4999 64.2207 52.5131C64.1839 52.5264 64.1439 52.5286 64.1058 52.5193C64.0677 52.51 64.0333 52.4898 64.0068 52.4611C63.9803 52.4325 63.963 52.3966 63.957 52.3582C63.9511 52.3198 63.9567 52.2805 63.9733 52.2452C63.9898 52.21 64.0166 52.1804 64.0501 52.1602C64.0836 52.14 64.1224 52.1301 64.1615 52.1318C64.1876 52.1329 64.2132 52.1391 64.2368 52.15C64.2604 52.161 64.2817 52.1764 64.2993 52.1955C64.3169 52.2145 64.3305 52.2369 64.3394 52.2612C64.3483 52.2855 64.3523 52.3113 64.3511 52.3371Z" fill="#263238"/>
<path d="M65.6139 43.3618L65.7181 43.5362L66.1385 43.0719" stroke="#263238" stroke-width="0.229517" stroke-linecap="round" stroke-linejoin="round"/>
<path d="M68.318 47.2158L68.4219 47.3917L68.8426 46.9259" stroke="#263238" stroke-width="0.229517" stroke-linecap="round" stroke-linejoin="round"/>
<path d="M66.6969 50.9961L66.8024 51.1722L67.2215 50.7061" stroke="#263238" stroke-width="0.229517" stroke-linecap="round" stroke-linejoin="round"/>
<path d="M69.3766 54.9734L69.4805 55.1493L69.9012 54.6834" stroke="#263238" stroke-width="0.229517" stroke-linecap="round" stroke-linejoin="round"/>
</g>
<path opacity="0.2" d="M64.3372 58.5396C64.3372 58.5396 64.3215 65.9614 64.3372 66.3942C64.3529 66.827 64.9265 69.4336 64.9265 69.4336L63.1016 72.7563L64.6731 74.0062L67.7278 71.0386C67.7278 71.0386 70.3287 72.6263 70.804 74.8971C71.2794 77.1679 74.1102 78.8215 77.047 85.1098C79.9838 91.3982 83.3331 71.0386 83.3331 71.0386L74.2712 59.7681L64.3372 58.5396Z" fill="black" fill-opacity="0.7"/>
<path d="M91.6459 87.5585L77.6986 89.9031C77.6986 89.9031 75.2705 77.1614 73.8228 75.1526C72.375 73.1438 72.6441 72.319 71.9369 70.9662C71.5126 70.1491 69.3832 68.6255 67.7154 67.1214C67.57 66.9913 67.4286 66.8613 67.293 66.7332C67.2341 66.6808 67.1791 66.6245 67.1241 66.5721C66.9021 66.3547 66.6958 66.1432 66.5132 65.9355C66.4464 65.8617 66.3809 65.788 66.3167 65.7142C66.007 65.3736 65.7764 64.9702 65.641 64.5323C65.635 64.5127 65.631 64.4925 65.6292 64.4721C65.6235 64.4485 65.6195 64.4245 65.6174 64.4003C65.5801 64.0995 65.5408 63.7559 65.5015 63.3833C65.5015 63.3095 65.4858 63.2319 65.4759 63.1543L65.4642 63.0611C65.4308 62.7506 65.3934 62.4206 65.3502 62.081C65.307 61.7413 65.2599 61.357 65.2049 60.9863C65.1872 60.8582 65.1695 60.7301 65.1479 60.5982C65.1263 60.4545 65.1027 60.3109 65.0791 60.1653L65.0143 59.7927C65.0143 59.7713 65.0045 59.7519 65.0025 59.7345L64.9239 59.2978C64.9186 59.2821 64.9153 59.2658 64.9141 59.2493C64.8866 59.1231 64.8611 58.9989 64.8316 58.8727C64.7707 58.5913 64.702 58.3157 64.6352 58.0479C64.4999 57.5438 64.3259 57.0507 64.1146 56.5728C63.1088 54.3544 64.4171 55.156 63.6294 49.448C63.6294 49.448 64.2089 48.1243 65.861 49.1821C65.9886 49.2644 66.1119 49.3531 66.2303 49.448C66.5651 49.7155 66.8606 50.0277 67.1084 50.3757C67.4443 50.8494 67.7003 51.3738 67.8666 51.9284C68.1367 52.8279 68.2129 53.7733 68.0906 54.7038C68.0906 54.7038 69.3321 58.9077 69.9862 59.8645C70.6404 60.8214 73.3454 55.3249 73.1706 54.6844C73.1092 54.3971 73.0626 54.1069 73.0311 53.8149C73.0193 53.7198 73.0075 53.6208 72.9938 53.5121C72.98 53.4034 72.9682 53.2947 72.9564 53.1802C72.9564 53.1259 72.9427 53.0676 72.9348 53.0114C72.9348 52.9881 72.9348 52.9648 72.9348 52.9434C72.9113 52.7241 72.8838 52.4912 72.8582 52.2505C72.8582 52.1826 72.8445 52.1186 72.8366 52.0565L72.8013 51.7071C72.8001 51.6877 72.8001 51.6683 72.8013 51.6489C72.8013 51.5829 72.7855 51.515 72.7796 51.4451C72.7639 51.3092 72.7502 51.1714 72.7364 51.0336C72.7227 50.8958 72.7129 50.7969 72.7011 50.6785C72.6775 50.4553 72.6559 50.2321 72.6343 50.0166C72.6186 49.8555 72.6028 49.6964 72.5891 49.5411C72.5891 49.5062 72.5891 49.4712 72.5793 49.4383C72.4968 48.5843 72.4319 47.8856 72.4084 47.5828C72.4084 47.5828 70.444 44.7065 70.2475 43.3517C70.0511 41.997 70.0629 40.5705 70.886 39.9902C72.8347 38.6199 72.261 40.8286 73.1372 41.737C74.0133 42.6453 75.3471 44.1494 76.1054 44.6172C76.8047 45.0558 77.4294 46.7521 77.5178 47.0083C77.4176 46.6357 76.4177 42.9713 76.3961 42.2338C76.3706 41.4575 75.7695 37.3506 76.789 35.8775C77.8086 34.4044 79.1679 35.5476 79.2937 35.8387C79.4194 36.1298 79.4567 40.1086 79.8162 41.2149C80.1757 42.3211 81.6804 46.9346 81.6804 46.9346C81.6804 46.9346 81.7433 42.4473 82.0831 40.4385C82.423 38.4297 83.305 36.8596 84.1693 36.7703C85.0337 36.681 85.8332 37.6223 85.8332 37.6223C85.8332 37.6223 85.4914 40.8248 85.5896 41.5642C85.6878 42.3037 85.4482 44.9743 85.8587 46.4163C85.8587 46.4163 85.8116 42.5909 86.4127 42.1018C87.0138 41.6127 87.5305 41.3779 87.8683 41.7137C88.2062 42.0494 88.2789 44.3086 88.6227 45.6711C88.9664 47.0335 88.9232 48.8851 89.1491 51.0103C89.375 53.1356 90.2649 56.0857 90.0881 57.7723C89.9113 59.4589 89.3672 63.6414 88.9291 66.0966C88.4911 68.5518 87.3733 71.9191 87.3733 71.9191C87.3733 71.9191 87.8821 73.7144 87.7839 75.3156C87.6856 76.9168 91.6459 87.5585 91.6459 87.5585Z" fill="white"/>
<path opacity="0.8" d="M79.7926 41.2116C80.0598 42.0325 80.9516 44.773 81.3956 46.1413C81.3956 46.1413 79.4469 47.5562 79.496 48.8721C79.5451 50.188 79.1385 52.8431 78.2623 52.7674C77.3862 52.6917 77.4766 47.1661 77.1799 46.2384C77.3587 46.6265 77.4726 46.9623 77.4962 47.0264C77.4314 46.7876 76.3902 42.9855 76.3686 42.2324C76.3686 42.0539 76.3274 41.7026 76.2861 41.2465V41.2368C76.2861 41.2368 78.223 39.4046 79.6453 40.5264C79.6771 40.7581 79.7263 40.9871 79.7926 41.2116Z" fill="#FFE4C8"/>
<path opacity="0.8" d="M85.5841 42.8016C84.6765 43.6536 83.3073 45.1558 83.1345 46.6056C83.1345 46.6056 83.6413 50.6543 83.4252 52.4185L81.6572 46.9433C81.6572 46.9433 81.7201 42.4561 82.0599 40.4473L82.0894 40.2823C83.1928 39.7268 84.4106 39.4293 85.6489 39.4128C85.573 40.127 85.5474 40.8456 85.5723 41.5633C85.5984 41.9756 85.6023 42.3889 85.5841 42.8016Z" fill="#FFE4C8"/>
<path opacity="0.4" d="M86.3871 42.0944C86.3655 42.1099 86.3125 42.1507 86.2358 42.2167C86.2821 42.1292 86.3333 42.0443 86.3891 41.9624L86.3871 42.0944Z" fill="#92E3A9"/>
<path opacity="0.8" d="M86.8495 53.2818C86.8495 53.2818 85.6826 48.9576 85.6709 45.4757C85.661 44.187 85.8123 43.0128 86.2346 42.219C86.2809 42.1315 86.3321 42.0466 86.3879 41.9647V42.0909C86.5981 41.9095 86.832 41.7568 87.0833 41.6367C86.7552 42.1413 86.378 43.1292 86.8141 44.7421C87.4997 47.2535 86.9025 50.324 86.8495 53.2818Z" fill="#FFE4C8"/>
<path opacity="0.8" d="M70.7539 61.5287C70.7539 61.5287 71.0663 65.6492 67.715 67.1242C67.5696 66.9942 67.4282 66.8641 67.2926 66.736C67.2337 66.6836 67.1787 66.6273 67.1237 66.5749C66.9017 66.3576 66.6955 66.1441 66.5128 65.9383C66.444 65.8626 66.3831 65.7889 66.3163 65.7171C66.0066 65.3764 65.776 64.973 65.6406 64.5351C65.6348 64.5155 65.6308 64.4953 65.6288 64.4749C65.6231 64.4513 65.6192 64.4273 65.617 64.4031C65.5797 64.1023 65.5404 63.7588 65.5011 63.3861C65.5011 63.3124 65.4854 63.2347 65.4756 63.1571L65.4638 63.0639C65.4304 62.7515 65.3931 62.4235 65.3498 62.0838C65.3066 61.7442 65.2595 61.3599 65.2045 60.9892C65.1848 60.8611 65.1671 60.731 65.1475 60.601C65.1259 60.4574 65.1023 60.3118 65.0787 60.1682L65.0139 59.7955L65.0021 59.7373C64.9746 59.5918 64.9491 59.4501 64.9196 59.3064C64.9154 59.2905 64.9121 59.2743 64.9098 59.2579C64.8823 59.1318 64.8568 59.0056 64.8273 58.8814C64.7644 58.6 64.6957 58.3244 64.6309 58.0565C65.9568 56.795 69.0174 57.5869 67.5362 54.6659C67.5362 54.6659 68.2827 52.166 66.226 49.4566C67.6325 50.5765 68.3534 52.5465 68.0863 54.6969C68.0863 54.6969 69.3278 58.8989 69.9819 59.8576C70.6361 60.8164 73.3411 55.318 73.1663 54.6756C73.1048 54.389 73.0589 54.0994 73.0287 53.808C73.015 53.7129 73.0032 53.6139 72.9914 53.5052C72.9796 53.3965 72.9639 53.2879 72.9521 53.1714C72.9521 53.119 72.9384 53.0608 72.9305 53.0045C72.9305 52.9812 72.9305 52.9579 72.9305 52.9366C72.907 52.7153 72.8814 52.4843 72.8539 52.2417C72.8539 52.1758 72.8402 52.1117 72.8323 52.0477C72.8323 51.9312 72.8087 51.8148 72.7969 51.6983C72.7959 51.6789 72.7959 51.6595 72.7969 51.6401C72.7969 51.5741 72.7812 51.5062 72.7753 51.4363C72.7596 51.2985 72.7478 51.1626 72.7321 51.0248L72.6968 50.6677C72.6732 50.4465 72.6516 50.2233 72.63 50.0078C72.6162 49.8448 72.6005 49.6856 72.5848 49.5323C72.5848 49.4974 72.5848 49.4624 72.575 49.4294C72.63 49.6837 73.6259 54.367 74.1936 55.4597C74.7614 56.5815 72.2901 62.4991 70.7539 61.5287Z" fill="#FFE4C8"/>
<path opacity="0.8" d="M88.9037 66.0912C88.4657 68.5484 87.3479 71.9138 87.3479 71.9138C87.3479 71.9138 87.8567 73.7091 87.7585 75.3103C87.731 75.7411 88.0021 76.828 88.4067 78.1886C88.2908 77.8897 87.0317 74.6834 87.0592 73.5635C87.0827 72.399 86.7448 72.0671 86.0769 70.6251C85.409 69.183 84.4052 69.3402 84.4052 69.3402C84.4052 69.3402 84.0123 72.9386 83.1009 70.5746C82.1894 68.2106 82.0106 65.4605 84.3149 55.9115C84.3149 55.9115 84.6626 57.109 84.3718 60.6666C84.0811 64.2241 84.9415 65.3013 84.9415 65.3013C86.2372 63.0713 87.2656 60.6998 88.006 58.2347C88.006 58.2347 87.7074 62.3861 87.4422 64.2765C87.177 66.1669 88.3871 62.0853 89.2318 59.5641C90.0176 57.1963 90.0549 56.2977 89.7524 54.613C89.9763 55.7989 90.1453 56.9304 90.0588 57.7572C89.886 59.4419 89.3418 63.6283 88.9037 66.0912Z" fill="#FFE4C8"/>
<path opacity="0.8" d="M73.1431 74.0857C73.8228 75.1551 75.4866 76.5661 76.4826 80.4692C77.4785 84.3722 76.8499 88.644 76.8499 88.644L73.1431 74.0857Z" fill="#FFE4C8"/>
<path opacity="0.8" d="M67.7949 51.9309C67.7949 51.9309 64.3159 53.6777 64.0409 56.589C63.0351 54.3706 64.3434 55.1721 63.5557 49.4641C63.5557 49.4641 64.1352 48.1404 65.7872 49.1982C65.9149 49.2805 66.0382 49.3692 66.1565 49.4641C66.4914 49.7316 66.7869 50.0439 67.0346 50.3918L67.7949 51.9309Z" fill="#FFE4C8" fill-opacity="0.7"/>
<path d="M77.6986 89.9037C77.6986 89.9037 75.2726 77.162 73.8228 75.1533C72.3731 73.1445 72.6442 72.3196 71.937 70.9668C71.2298 69.6141 65.861 66.3204 65.6233 64.399C65.3856 62.4776 65.1146 58.7938 64.1068 56.5754C63.0991 54.357 64.4093 55.1586 63.6196 49.4486C63.6196 49.4486 64.209 48.1269 65.8532 49.1847C67.4974 50.2424 68.3735 52.356 68.0848 54.6986C68.0848 54.6986 69.3263 58.9006 69.9824 59.8594C70.6385 60.8181 73.3376 55.3197 73.1647 54.6773C72.9919 54.0349 72.4713 48.5694 72.3888 47.5738C72.3888 47.5738 70.4244 44.6955 70.2279 43.3408C70.0315 41.986 70.0433 40.5595 70.8664 39.9811C72.8151 38.6109 72.2415 40.8196 73.1176 41.7279C73.9937 42.6362 75.3276 44.1365 76.0839 44.6062C76.8402 45.0759 77.5081 47.0264 77.5081 47.0264C77.5081 47.0264 76.3982 43.0011 76.3766 42.2228C76.3549 41.4445 75.7499 37.3396 76.7694 35.8665C77.789 34.3934 79.1483 35.5366 79.2741 35.8277C79.3998 36.1188 79.4371 40.0976 79.7986 41.2019C80.16 42.3063 81.6589 46.9236 81.6589 46.9236C81.6589 46.9236 81.7237 42.4363 82.0635 40.4275C82.4034 38.4188 83.2874 36.8486 84.1498 36.7593C85.0121 36.67 85.8136 37.6114 85.8136 37.6114C85.8136 37.6114 85.4718 40.8138 85.5681 41.5532C85.6643 42.2927 85.4286 44.9614 85.8392 46.4054C85.8392 46.4054 85.792 42.5799 86.3931 42.0908C86.9942 41.6018 87.5109 41.3669 87.8488 41.7027C88.1866 42.0384 88.2593 44.2976 88.6031 45.6601C88.9469 47.0226 88.9056 48.8741 89.1296 50.9994C89.3535 53.1246 90.2453 56.0747 90.0685 57.7593C89.8918 59.444 89.3476 63.6304 88.9076 66.0856C88.4675 68.5408 87.3557 71.9082 87.3557 71.9082C87.3557 71.9082 87.8645 73.7034 87.7643 75.3046C87.6641 76.9059 91.6519 87.565 91.6519 87.565" stroke="#263238" stroke-width="0.114759" stroke-linecap="round" stroke-linejoin="round"/>
<path d="M81.6528 46.9329C82.0595 47.8761 83.0633 51.8568 83.4208 52.4099C83.6026 52.7154 83.8682 52.9637 84.1869 53.1261" stroke="#263238" stroke-width="0.114759" stroke-linecap="round" stroke-linejoin="round"/>
<path d="M85.8329 46.4094C85.8329 46.4094 85.7465 47.2246 86.1924 49.8273C86.6383 52.4299 86.8564 53.5362 87.1078 54.1165" stroke="#263238" stroke-width="0.114759" stroke-linecap="round" stroke-linejoin="round"/>
<path d="M77.5 47.0364C78.0441 48.6221 78.3526 51.149 78.6629 51.9099C78.9733 52.6707 79.2523 52.8279 79.2523 52.8279" stroke="#263238" stroke-width="0.114759" stroke-linecap="round" stroke-linejoin="round"/>
<path d="M78.3804 50.8401C78.7081 51.086 78.9676 51.4098 79.1347 51.7814" stroke="#263238" stroke-width="0.114759" stroke-linecap="round" stroke-linejoin="round"/>
<path d="M69.9819 59.8613C69.9819 59.8613 70.2805 61.9633 71.6124 61.8022" stroke="#263238" stroke-width="0.114759" stroke-linecap="round" stroke-linejoin="round"/>
<path d="M73.1644 54.679C73.1644 54.679 73.5081 57.1788 72.9424 58.2385" stroke="#263238" stroke-width="0.114759" stroke-linecap="round" stroke-linejoin="round"/>
<path d="M83.8173 54.7026C83.8173 54.7026 84.7131 55.2441 84.1139 56.8376C83.5148 58.431 82.4717 64.8397 82.4717 64.8397" stroke="#263238" stroke-width="0.114759" stroke-linecap="round" stroke-linejoin="round"/>
<path d="M87.7169 56.387C88.0921 57.8232 88.1254 57.8601 87.5204 59.6243C86.9154 61.3885 85.9233 65.7031 85.9233 65.7031" stroke="#263238" stroke-width="0.114759" stroke-linecap="round" stroke-linejoin="round"/>
<path d="M87.3492 71.9028C87.3492 71.9028 86.7599 70.7382 87.2471 69.7678" stroke="#263238" stroke-width="0.114759" stroke-linecap="round" stroke-linejoin="round"/>
<path d="M73.8228 75.1553C73.8228 75.1553 75.3039 77.2106 75.9483 79.5105" stroke="#263238" stroke-width="0.114759" stroke-linecap="round" stroke-linejoin="round"/>
<path d="M84.7212 39.1273L85.1219 38.7353L85.3027 38.6848L85.2909 38.8789L84.9235 39.3428L84.7212 39.1273Z" fill="#757575" stroke="#263238" stroke-width="0.114759" stroke-linecap="round" stroke-linejoin="round"/>
<path d="M85.0459 39.3425L84.3937 40.804L66.8711 63.8866L64.9204 62.658L67.5763 59.3741L83.3132 39.8685L84.7021 38.9971C84.7847 39.0204 84.8599 39.0645 84.9201 39.125C84.9804 39.1856 85.0237 39.2605 85.0459 39.3425Z" fill="#20446C"/>
<path opacity="0.3" d="M85.0459 39.3425L84.3937 40.804L66.8711 63.8866L64.9204 62.658L67.5763 59.3741C68.7923 59.2499 68.9966 59.9563 68.9966 59.9563L84.0872 40.4915C83.9379 39.9694 83.3015 39.8685 83.3015 39.8685L84.6903 38.9971C84.7751 39.0186 84.8527 39.0619 84.9151 39.1226C84.9776 39.1832 85.0227 39.2591 85.0459 39.3425Z" fill="black" fill-opacity="0.7"/>
<path d="M85.0459 39.3425L84.3937 40.804L66.8711 63.8866L64.9204 62.658L67.5763 59.3741L83.3132 39.8685L84.7021 38.9971C84.7847 39.0204 84.8599 39.0645 84.9201 39.125C84.9804 39.1856 85.0237 39.2605 85.0459 39.3425Z" stroke="#263238" stroke-width="0.114759" stroke-linecap="round" stroke-linejoin="round"/>
<path d="M72.5871 57.0529C72.5871 57.0529 70.6226 60.8881 68.7486 63.6014L67.4049 63.9449C67.4049 63.9449 64.3208 66.9726 62.4389 68.4826C62.0972 68.273 61.7876 68.0161 61.5195 67.7199C61.5195 67.7199 64.1911 62.6523 67.1476 59.4421C67.4939 59.5648 67.8201 59.7367 68.116 59.9526C68.5004 60.2204 68.8421 60.5436 69.1297 60.9114L72.424 56.8162L72.5871 57.0529Z" fill="#F0792E"/>
<path opacity="0.3" d="M72.5871 57.0522C72.5871 57.0522 70.6227 60.8873 68.7487 63.6006L67.405 63.9441C67.405 63.9441 64.3209 66.9719 62.439 68.4818L62.49 67.6609C64.5311 64.5807 67.1241 61.2211 68.1161 59.9518C68.5005 60.2196 68.8422 60.5428 69.1298 60.9106L67.2989 63.325L68.3479 63.1309L72.4241 56.8076L72.5871 57.0522Z" fill="black" fill-opacity="0.7"/>
<path d="M72.5871 57.0529C72.5871 57.0529 70.6226 60.8881 68.7486 63.6014L67.4049 63.9449C67.4049 63.9449 64.3208 66.9726 62.4389 68.4826C62.0972 68.273 61.7876 68.0161 61.5195 67.7199C61.5195 67.7199 64.1911 62.6523 67.1476 59.4421C67.4939 59.5648 67.8201 59.7367 68.116 59.9526C68.5004 60.2204 68.8421 60.5436 69.1297 60.9114L72.424 56.8162L72.5871 57.0529Z" stroke="#263238" stroke-width="0.114759" stroke-linecap="round" stroke-linejoin="round"/>
<path d="M79.2503 52.8272L73.7755 58.0675L72.9014 58.9098C73.5005 57.3882 73.2098 55.0281 73.1724 54.7506C73.1729 54.7422 73.1729 54.7338 73.1724 54.7254C73.1736 54.7112 73.1736 54.6969 73.1724 54.6827C73.111 54.3961 73.0651 54.1065 73.0349 53.8151C73.0212 53.72 73.0094 53.621 72.9976 53.5123C72.9858 53.4036 72.9701 53.295 72.9583 53.1785C72.9583 53.1261 72.9446 53.0679 72.9367 53.0116C72.9367 52.9883 72.9367 52.965 72.9367 52.9437C72.9131 52.7243 72.8856 52.4914 72.8601 52.2488C72.8601 52.1828 72.8464 52.1188 72.8385 52.0548C72.8385 51.9383 72.8149 51.8219 72.8031 51.7054C72.8021 51.686 72.8021 51.6666 72.8031 51.6472C72.8031 51.5812 72.7874 51.5133 72.7815 51.4434C72.7658 51.3056 72.754 51.1697 72.7383 51.0319L72.7029 50.6748C72.6794 50.4536 72.6578 50.2304 72.6362 50.0149C72.6204 49.8519 72.6047 49.6947 72.591 49.5394C72.591 49.5045 72.591 49.4695 72.5812 49.4365C72.4987 48.5826 72.4338 47.8839 72.4102 47.5811C72.4102 47.5811 70.4458 44.7047 70.2494 43.3481C70.0529 41.9914 70.0647 40.5668 70.8878 39.9885C72.8365 38.6182 72.2629 40.8269 73.1391 41.7352C74.0152 42.6436 75.349 44.1477 76.1073 44.6155C76.8655 45.0832 77.5295 47.0357 77.5295 47.0357C78.0737 48.6214 78.3821 51.1464 78.6925 51.9092C79.0028 52.6719 79.2503 52.8272 79.2503 52.8272Z" fill="white"/>
<path d="M78.3804 50.8401C78.7081 51.086 78.9676 51.4098 79.1347 51.7814" stroke="#263238" stroke-width="0.114759" stroke-linecap="round" stroke-linejoin="round"/>
<path opacity="0.8" d="M73.1092 41.7361C73.9775 42.6522 75.3113 44.1389 76.0696 44.6125C75.9635 44.5601 74.5668 43.8885 73.7869 44.6357C72.9756 45.4121 72.3883 47.5761 72.3883 47.5761C72.3883 47.5761 70.4239 44.6998 70.2274 43.3431C70.031 41.9865 70.0428 40.5619 70.8659 39.9835C72.8067 38.6133 72.237 40.822 73.1092 41.7361Z" fill="#FFE4C8"/>
<path opacity="0.8" d="M73.7754 58.0716L72.9012 58.9101C73.5004 57.3884 73.2097 55.0284 73.1723 54.7508C73.1747 54.7282 73.1747 54.7055 73.1723 54.6829C73.1109 54.3963 73.065 54.1067 73.0348 53.8153C73.0211 53.7202 73.0093 53.6212 72.9975 53.5126C72.9857 53.4039 72.97 53.2952 72.9582 53.1787C72.9582 53.1263 72.9445 53.0681 72.9366 53.0118C72.9366 52.9885 72.9366 52.9652 72.9366 52.9439C72.913 52.7226 72.8875 52.4917 72.86 52.2491C72.86 52.1831 72.8463 52.119 72.8384 52.055C72.8384 51.9385 72.8148 51.8221 72.803 51.7056C72.802 51.6862 72.802 51.6668 72.803 51.6474C72.803 51.5814 72.7873 51.5135 72.7814 51.4436C72.7657 51.3058 72.7539 51.1699 72.7382 51.0321L72.7028 50.675C72.6793 50.4538 72.6577 50.2306 72.6361 50.0151C72.6223 49.8521 72.6066 49.693 72.5909 49.5396C72.5909 49.5047 72.5909 49.4698 72.5811 49.4368C72.6361 49.691 73.632 54.3743 74.1997 55.467C74.3922 55.8746 74.1938 56.9382 73.7754 58.0716Z" fill="#FFE4C8"/>
<path d="M79.2503 52.8276C79.2503 52.8276 78.9733 52.6704 78.661 51.9096C78.3486 51.1488 78.0422 48.6218 77.4981 47.0361C77.4981 47.0361 76.8321 45.0953 76.0739 44.6159C75.3156 44.1365 73.9798 42.6537 73.1076 41.7376C72.2354 40.8215 72.8051 38.6128 70.8564 39.9908C70.0333 40.5731 70.0176 41.9957 70.2179 43.3505C70.4183 44.7052 72.3788 47.5835 72.3788 47.5835C72.4613 48.5791 72.9799 54.0465 73.1547 54.687" stroke="#263238" stroke-width="0.114759" stroke-linecap="round" stroke-linejoin="round"/>
<path d="M73.1644 54.679C73.1644 54.679 73.5081 57.1788 72.9424 58.2385" stroke="#263238" stroke-width="0.114759" stroke-linecap="round" stroke-linejoin="round"/>
<path opacity="0.2" d="M39.5646 57.7454C39.5646 57.7454 40.8081 63.4495 38.1148 67.601C35.4216 71.7525 33.3492 72.8568 32.418 74.0951C31.4869 75.3334 27.835 82.2486 27.835 82.2486L23.5723 69.7786L27.835 54.3469L39.5646 57.7454Z" fill="black" fill-opacity="0.7"/>
<g clip-path="url(#clip1_7_38536)">
<path d="M36.619 34.4072L24.5195 39.2664L31.8837 57.3015L43.9832 52.4424L36.619 34.4072Z" fill="white" stroke="#263238" stroke-width="0.114759" stroke-linecap="round" stroke-linejoin="round"/>
<path d="M25.9282 40.1294L29.0749 38.8583" stroke="#263238" stroke-width="0.229517" stroke-linecap="round" stroke-linejoin="round"/>
<path d="M26.174 40.7285L28.3137 39.8633" stroke="#263238" stroke-width="0.229517" stroke-linecap="round" stroke-linejoin="round"/>
<path d="M27.5218 41.8332L36.5723 38.1761" stroke="#263238" stroke-width="0.229517" stroke-linecap="round" stroke-linejoin="round"/>
<path d="M27.7675 42.4308L36.8184 38.7752" stroke="#263238" stroke-width="0.229517" stroke-linecap="round" stroke-linejoin="round"/>
<path d="M28.0552 43.1301L35.7739 40.0126" stroke="#263238" stroke-width="0.229517" stroke-linecap="round" stroke-linejoin="round"/>
<path d="M29.092 43.4531L28.356 43.7505L28.6558 44.4805L29.3919 44.1831L29.092 43.4531Z" stroke="#263238" stroke-width="0.114759" stroke-linecap="round" stroke-linejoin="round"/>
<path d="M30.4245 42.9143L29.6885 43.2117L29.9883 43.9416L30.7244 43.6442L30.4245 42.9143Z" stroke="#263238" stroke-width="0.114759" stroke-linecap="round" stroke-linejoin="round"/>
<path d="M31.7605 42.3745L31.0244 42.6719L31.3243 43.4018L32.0603 43.1045L31.7605 42.3745Z" stroke="#263238" stroke-width="0.114759" stroke-linecap="round" stroke-linejoin="round"/>
<path d="M33.0935 41.8349L32.3574 42.1323L32.6573 42.8623L33.3933 42.5649L33.0935 41.8349Z" stroke="#263238" stroke-width="0.114759" stroke-linecap="round" stroke-linejoin="round"/>
<path d="M27.0401 42.0262C27.0554 42.0625 27.0595 42.1024 27.0519 42.141C27.0442 42.1796 27.0251 42.215 26.9971 42.2428C26.9691 42.2707 26.9334 42.2896 26.8945 42.2972C26.8556 42.3048 26.8153 42.3008 26.7787 42.2856C26.7421 42.2705 26.7109 42.2448 26.689 42.212C26.6672 42.1792 26.6556 42.1407 26.6559 42.1014C26.6561 42.0621 26.6682 42.0237 26.6905 41.9912C26.7128 41.9587 26.7443 41.9335 26.7811 41.9188C26.8299 41.8994 26.8843 41.8998 26.9328 41.9198C26.9813 41.9399 27.0198 41.9781 27.0401 42.0262Z" fill="#263238"/>
<path d="M28.9564 45.3275L38.0068 41.6705" stroke="#263238" stroke-width="0.229517" stroke-linecap="round" stroke-linejoin="round"/>
<path d="M29.2025 45.9252L38.2534 42.2696" stroke="#263238" stroke-width="0.229517" stroke-linecap="round" stroke-linejoin="round"/>
<path d="M29.4902 46.6245L37.2084 43.5055" stroke="#263238" stroke-width="0.229517" stroke-linecap="round" stroke-linejoin="round"/>
<path d="M30.5266 46.9463L29.7905 47.2437L30.0904 47.9736L30.8264 47.6762L30.5266 46.9463Z" stroke="#263238" stroke-width="0.114759" stroke-linecap="round" stroke-linejoin="round"/>
<path d="M31.8601 46.4087L31.124 46.7061L31.4239 47.436L32.1599 47.1386L31.8601 46.4087Z" stroke="#263238" stroke-width="0.114759" stroke-linecap="round" stroke-linejoin="round"/>
<path d="M33.195 45.8686L32.459 46.166L32.7589 46.896L33.4949 46.5986L33.195 45.8686Z" stroke="#263238" stroke-width="0.114759" stroke-linecap="round" stroke-linejoin="round"/>
<path d="M34.5285 45.3305L33.7925 45.6279L34.0923 46.3579L34.8284 46.0605L34.5285 45.3305Z" stroke="#263238" stroke-width="0.114759" stroke-linecap="round" stroke-linejoin="round"/>
<path d="M28.4753 45.522C28.4903 45.5583 28.4941 45.5983 28.4862 45.6367C28.4782 45.6752 28.459 45.7105 28.4308 45.7381C28.4027 45.7657 28.3669 45.7844 28.328 45.7918C28.2891 45.7992 28.2489 45.795 28.2125 45.7797C28.176 45.7644 28.1449 45.7387 28.1232 45.7059C28.1015 45.673 28.0901 45.6346 28.0905 45.5953C28.0908 45.556 28.1029 45.5178 28.1253 45.4853C28.1476 45.4529 28.1791 45.4278 28.2158 45.4132C28.2648 45.3937 28.3196 45.3942 28.3682 45.4146C28.4168 45.4349 28.4553 45.4736 28.4753 45.522Z" fill="#263238"/>
<path d="M30.3925 48.8209L39.4434 45.1654" stroke="#263238" stroke-width="0.229517" stroke-linecap="round" stroke-linejoin="round"/>
<path d="M30.6375 49.4203L39.6865 45.7637" stroke="#263238" stroke-width="0.229517" stroke-linecap="round" stroke-linejoin="round"/>
<path d="M30.9253 50.1196L38.6435 47.0006" stroke="#263238" stroke-width="0.229517" stroke-linecap="round" stroke-linejoin="round"/>
<path d="M31.9616 50.4411L31.2256 50.7385L31.5255 51.4685L32.2615 51.1711L31.9616 50.4411Z" stroke="#263238" stroke-width="0.114759" stroke-linecap="round" stroke-linejoin="round"/>
<path d="M33.2961 49.9016L32.5601 50.199L32.8599 50.9289L33.596 50.6316L33.2961 49.9016Z" stroke="#263238" stroke-width="0.114759" stroke-linecap="round" stroke-linejoin="round"/>
<path d="M34.632 49.3635L33.896 49.6609L34.1959 50.3909L34.9319 50.0935L34.632 49.3635Z" stroke="#263238" stroke-width="0.114759" stroke-linecap="round" stroke-linejoin="round"/>
<path d="M35.9646 48.8249L35.2285 49.1223L35.5284 49.8523L36.2644 49.5549L35.9646 48.8249Z" stroke="#263238" stroke-width="0.114759" stroke-linecap="round" stroke-linejoin="round"/>
<path d="M29.9103 49.0157C29.9253 49.052 29.9291 49.0919 29.9212 49.1304C29.9133 49.1689 29.894 49.2041 29.8659 49.2317C29.8377 49.2593 29.802 49.278 29.7631 49.2854C29.7242 49.2928 29.684 49.2886 29.6475 49.2733C29.6111 49.258 29.58 49.2323 29.5583 49.1995C29.5366 49.1667 29.5252 49.1282 29.5255 49.089C29.5259 49.0497 29.538 49.0114 29.5603 48.979C29.5826 48.9466 29.6142 48.9215 29.6509 48.9068C29.6999 48.8873 29.7546 48.8878 29.8032 48.9082C29.8518 48.9286 29.8903 48.9672 29.9103 49.0157Z" fill="#263238"/>
<path d="M31.868 52.414L40.9175 48.7588" stroke="#263238" stroke-width="0.229517" stroke-linecap="round" stroke-linejoin="round"/>
<path d="M32.1141 53.0131L41.1635 49.3579" stroke="#263238" stroke-width="0.229517" stroke-linecap="round" stroke-linejoin="round"/>
<path d="M32.3999 53.7121L40.1186 50.5946" stroke="#263238" stroke-width="0.229517" stroke-linecap="round" stroke-linejoin="round"/>
<path d="M33.4392 54.0346L32.7031 54.332L33.003 55.062L33.739 54.7646L33.4392 54.0346Z" stroke="#263238" stroke-width="0.114759" stroke-linecap="round" stroke-linejoin="round"/>
<path d="M34.7717 53.4958L34.0356 53.7932L34.3355 54.5232L35.0716 54.2258L34.7717 53.4958Z" stroke="#263238" stroke-width="0.114759" stroke-linecap="round" stroke-linejoin="round"/>
<path d="M36.1062 52.957L35.3701 53.2544L35.67 53.9844L36.406 53.687L36.1062 52.957Z" stroke="#263238" stroke-width="0.114759" stroke-linecap="round" stroke-linejoin="round"/>
<path d="M37.4411 52.4172L36.7051 52.7146L37.0049 53.4446L37.741 53.1472L37.4411 52.4172Z" stroke="#263238" stroke-width="0.114759" stroke-linecap="round" stroke-linejoin="round"/>
<path d="M31.3933 52.6065C31.4081 52.6425 31.4119 52.682 31.4041 52.7201C31.3963 52.7582 31.3773 52.7932 31.3495 52.8206C31.3217 52.848 31.2863 52.8666 31.2478 52.8741C31.2093 52.8815 31.1695 52.8775 31.1333 52.8625C31.0971 52.8475 31.0662 52.8222 31.0446 52.7898C31.0229 52.7574 31.0114 52.7194 31.0115 52.6805C31.0116 52.6416 31.0233 52.6036 31.0451 52.5714C31.067 52.5391 31.098 52.514 31.1343 52.4992C31.1584 52.4893 31.1842 52.4843 31.2103 52.4844C31.2364 52.4844 31.2622 52.4896 31.2862 52.4996C31.3103 52.5095 31.3321 52.5241 31.3505 52.5425C31.3689 52.5608 31.3834 52.5826 31.3933 52.6065Z" fill="#263238"/>
<path d="M28.7392 43.9355L28.9075 44.0504L29.0925 43.4539" stroke="#263238" stroke-width="0.229517" stroke-linecap="round" stroke-linejoin="round"/>
<path d="M32.8232 46.3078L32.992 46.4242L33.1765 45.8262" stroke="#263238" stroke-width="0.229517" stroke-linecap="round" stroke-linejoin="round"/>
<path d="M32.954 50.4133L33.1243 50.5292L33.3073 49.9316" stroke="#263238" stroke-width="0.229517" stroke-linecap="round" stroke-linejoin="round"/>
<path d="M37.0702 52.9067L37.239 53.023L37.4235 52.4251" stroke="#263238" stroke-width="0.229517" stroke-linecap="round" stroke-linejoin="round"/>
</g>
<path d="M36.6102 55.384C37.0699 53.8313 38.8614 48.8608 38.6257 46.6618C38.6069 46.4787 38.5647 46.2987 38.5 46.1261C37.8713 44.4841 35.3019 44.6433 34.3157 46.0038C33.2314 47.5002 32.3513 50.1922 32.2708 51.8264C32.2019 52.6453 31.9322 53.4353 31.485 54.1282C31.3315 54.3844 31.1581 54.6284 30.9664 54.858L25.1066 41.1265C24.5148 41.6133 23.9979 42.1828 23.5723 42.8169C23.3328 43.1705 23.1782 43.5734 23.1205 43.995C23.0007 45.3536 21.4488 50.9122 20.8045 53.2587C20.7927 53.3092 20.777 53.3558 20.7652 53.4043C20.1444 55.6596 21.7828 64.0363 21.3133 66.4682C20.8438 68.9001 20.555 68.8477 20.4862 70.575C20.4371 71.8366 18.6102 75.6736 16.5574 79.6116C15.3788 81.8669 14.1373 84.1552 13.1099 86.0164L28.1023 85.4012C28.3616 83.6001 28.6288 81.7019 28.8723 79.862C28.9782 79.0967 29.1278 78.3379 29.3202 77.5893C29.6503 76.2695 30.053 75.0759 30.3024 74.3772C30.6205 73.3501 30.8828 72.307 31.0882 71.2524C32.8306 69.4299 35.1172 66.5633 35.7792 64.6224V64.6088C35.9416 64.2096 35.9932 63.7747 35.9285 63.3492C35.8554 62.9998 35.8153 62.6444 35.8087 62.2876C35.7399 60.1759 36.2252 56.6766 36.6102 55.384Z" fill="white"/>
<path opacity="0.8" d="M31.4889 54.1399C31.0253 55.0618 30.4654 55.9585 30.1138 56.991C29.7621 58.0235 29.3712 58.171 28.3222 58.9784C27.2732 59.7858 26.5071 58.4563 26.5071 58.4563C26.5071 58.4563 27.8959 57.0298 27.4343 56.2379C26.9727 55.4461 25.2381 53.4761 25.3402 52.3815C25.4424 51.2868 24.2932 48.8491 24.2932 48.8491C24.2932 48.8491 26.9118 47.3314 26.403 45.5497C26.126 44.5851 24.7509 43.5525 23.5723 42.8169C23.9978 42.1828 24.5147 41.6133 25.1065 41.1265L30.9703 54.8696C31.162 54.64 31.3354 54.396 31.4889 54.1399Z" fill="#FFE4C8"/>
<path opacity="0.8" d="M21.9813 62.57C22.0167 62.6865 22.8693 65.4697 22.1503 66.6284C21.4313 67.7871 20.6927 69.3223 21.0443 70.8982C21.3233 72.1559 18.9679 76.6975 16.5635 79.6127C18.6104 75.6747 20.4373 71.8376 20.4923 70.5761C20.5611 68.8487 20.8498 68.9011 21.3193 66.4692C21.7888 64.0373 20.1407 55.6606 20.7713 53.4053C20.783 53.3568 20.7988 53.3102 20.8105 53.2598C21.2683 55.8159 22.3349 60.9067 22.6276 62.5429C22.993 64.6254 22.0206 62.6535 21.9813 62.57Z" fill="#FFE4C8"/>
<path opacity="0.8" d="M27.3789 79.3526C29.1213 71.9424 34.9851 66.2577 35.7788 64.6138C35.1167 66.5546 32.8321 69.4213 31.0877 71.2437C30.8823 72.2984 30.62 73.3415 30.302 74.3685C30.0564 75.0672 29.6537 76.2608 29.3198 77.5806C27.6225 79.5642 27.3789 79.3526 27.3789 79.3526Z" fill="#FFE4C8"/>
<path opacity="0.8" d="M36.6099 55.384C36.217 56.6767 35.7397 60.176 35.8143 62.278C35.5059 60.9562 34.9127 59.2813 34.8145 56.9464C34.6475 52.9871 36.9183 54.4078 36.1267 52.4572C35.335 50.5067 33.0779 53.0065 34.1898 48.8783C35.003 45.8622 37.3132 45.8913 38.4997 46.1262C38.5644 46.2988 38.6067 46.4788 38.6254 46.6619C38.8612 48.8608 37.0696 53.8352 36.6099 55.384Z" fill="#FFE4C8"/>
<path d="M30.9708 54.8694C30.6154 55.5479 30.326 56.2582 30.1065 56.9907C29.8609 57.9418 28.6175 57.8059 27.9751 58.3959" stroke="#263238" stroke-width="0.114759" stroke-linecap="round" stroke-linejoin="round"/>
<path d="M26.2793 53.1963C26.2793 53.1963 27.9726 53.7785 28.9568 54.5452C29.941 55.3118 30.6698 55.4884 30.6698 55.4884" stroke="#263238" stroke-width="0.114759" stroke-linecap="round" stroke-linejoin="round"/>
<path d="M25.2012 49.0521C25.2012 49.0521 26.5664 49.4305 27.5781 48.955C27.6238 48.4708 27.7099 47.991 27.8355 47.5208" stroke="#263238" stroke-width="0.114759" stroke-linecap="round" stroke-linejoin="round"/>
<path d="M27.9033 49.1499C27.9033 49.1499 27.9171 49.344 28.6125 49.344" stroke="#263238" stroke-width="0.114759" stroke-linecap="round" stroke-linejoin="round"/>
<path d="M31.0865 71.2463C30.1341 72.1938 29.402 73.335 28.9414 74.5904" stroke="#263238" stroke-width="0.114759" stroke-linecap="round" stroke-linejoin="round"/>
<path d="M20.6841 53.8174C20.6232 54.9819 22.0042 59.112 22.4246 61.1655C22.8449 63.2189 23.0001 64.6706 23.0001 64.6706" stroke="#263238" stroke-width="0.114759" stroke-linecap="round" stroke-linejoin="round"/>
<path d="M15.396 81.9208C17.2858 78.5282 19.1029 75.0366 20.4288 71.2694C20.588 70.7279 20.3758 70.0234 20.5349 69.4819C22.3147 64.5909 20.2953 59.5001 20.6272 54.4927C20.9042 52.5188 21.5427 50.5294 22.1831 48.5401C22.4836 47.1 22.5956 45.491 23.0769 44.0431C23.5719 42.9524 24.0591 41.683 25.114 41.1318C27.1177 45.6676 29.1155 50.2247 30.9778 54.875C31.8185 54.3956 31.96 53.3223 32.0955 52.4218C32.5473 50.2616 33.005 48.28 33.8321 46.4634C34.6728 45 36.814 44.3769 38.1282 45.5725C38.5054 45.9454 38.721 46.4486 38.7293 46.9757C38.474 49.4833 37.6764 52.022 36.873 54.3665C36.5567 55.4495 36.2345 56.3559 36.099 57.4311C36.1147 57.7863 36.1206 57.9649 36.1363 58.322C35.6707 60.125 36.099 61.7126 35.9929 63.5021C35.5863 66.7297 32.9736 68.9773 31.0819 71.3742C30.6163 73.1773 30.1488 74.9803 29.5103 76.7911C28.7246 79.4986 28.4731 82.1867 28.204 84.7971" stroke="#263238" stroke-width="0.114759" stroke-linecap="round" stroke-linejoin="round"/>
<path d="M60.0188 30.2104H43.7378V54.5713H60.0188V30.2104Z" fill="white" stroke="#263238" stroke-width="0.114759" stroke-linecap="round" stroke-linejoin="round"/>
<path d="M44.9577 31.8688L49.1954 31.8602" stroke="#263238" stroke-width="0.229517" stroke-linecap="round" stroke-linejoin="round"/>
<path d="M44.96 32.6789L47.8419 32.672" stroke="#263238" stroke-width="0.229517" stroke-linecap="round" stroke-linejoin="round"/>
<path d="M45.9963 34.5893L58.1851 34.5634" stroke="#263238" stroke-width="0.229517" stroke-linecap="round" stroke-linejoin="round"/>
<path d="M45.9984 35.3977L58.1871 35.3737" stroke="#263238" stroke-width="0.229517" stroke-linecap="round" stroke-linejoin="round"/>
<path d="M46.0008 36.3419L56.3954 36.3213" stroke="#263238" stroke-width="0.229517" stroke-linecap="round" stroke-linejoin="round"/>
<path d="M47.0469 37.2006L46.0557 37.2026L46.0578 38.1895L47.049 38.1874L47.0469 37.2006Z" stroke="#263238" stroke-width="0.114759" stroke-linecap="round" stroke-linejoin="round"/>
<path d="M48.8414 37.1954L47.8501 37.1975L47.8522 38.1843L48.8435 38.1823L48.8414 37.1954Z" stroke="#263238" stroke-width="0.114759" stroke-linecap="round" stroke-linejoin="round"/>
<path d="M50.6407 37.192L49.6494 37.1941L49.6515 38.1809L50.6428 38.1788L50.6407 37.192Z" stroke="#263238" stroke-width="0.114759" stroke-linecap="round" stroke-linejoin="round"/>
<path d="M52.4366 37.1881L51.4453 37.1902L51.4474 38.177L52.4387 38.1749L52.4366 37.1881Z" stroke="#263238" stroke-width="0.114759" stroke-linecap="round" stroke-linejoin="round"/>
<path d="M45.3491 34.588C45.3497 34.6372 45.3356 34.6855 45.3085 34.7267C45.2814 34.7679 45.2427 34.8001 45.1971 34.8193C45.1516 34.8386 45.1014 34.8439 45.0528 34.8346C45.0043 34.8253 44.9596 34.8018 44.9244 34.7672C44.8893 34.7325 44.8653 34.6883 44.8555 34.64C44.8457 34.5918 44.8506 34.5417 44.8694 34.4962C44.8883 34.4507 44.9203 34.4118 44.9614 34.3845C45.0026 34.3571 45.0509 34.3426 45.1004 34.3427C45.1659 34.3428 45.2287 34.3686 45.2753 34.4145C45.3218 34.4604 45.3484 34.5227 45.3491 34.588Z" fill="#263238"/>
<path d="M46.0061 39.3115L58.1949 39.2855" stroke="#263238" stroke-width="0.229517" stroke-linecap="round" stroke-linejoin="round"/>
<path d="M46.0082 40.1199L58.1968 40.0958" stroke="#263238" stroke-width="0.229517" stroke-linecap="round" stroke-linejoin="round"/>
<path d="M46.0114 41.0672L56.4061 41.0447" stroke="#263238" stroke-width="0.229517" stroke-linecap="round" stroke-linejoin="round"/>
<path d="M47.0562 41.9225L46.0649 41.9246L46.067 42.9114L47.0583 42.9093L47.0562 41.9225Z" stroke="#263238" stroke-width="0.114759" stroke-linecap="round" stroke-linejoin="round"/>
<path d="M48.8531 41.9208L47.8618 41.9229L47.8639 42.9097L48.8552 42.9076L48.8531 41.9208Z" stroke="#263238" stroke-width="0.114759" stroke-linecap="round" stroke-linejoin="round"/>
<path d="M50.65 41.9159L49.6587 41.918L49.6608 42.9048L50.6521 42.9027L50.65 41.9159Z" stroke="#263238" stroke-width="0.114759" stroke-linecap="round" stroke-linejoin="round"/>
<path d="M52.4464 41.9122L51.4551 41.9143L51.4572 42.9011L52.4484 42.8991L52.4464 41.9122Z" stroke="#263238" stroke-width="0.114759" stroke-linecap="round" stroke-linejoin="round"/>
<path d="M45.3589 39.3133C45.3591 39.3624 45.3446 39.4105 45.3173 39.4515C45.29 39.4924 45.2511 39.5244 45.2055 39.5433C45.1599 39.5622 45.1098 39.5672 45.0613 39.5577C45.0129 39.5482 44.9684 39.5245 44.9334 39.4898C44.8985 39.4551 44.8747 39.4108 44.8651 39.3626C44.8555 39.3144 44.8605 39.2644 44.8794 39.219C44.8984 39.1736 44.9304 39.1348 44.9716 39.1076C45.0127 39.0804 45.061 39.0659 45.1103 39.0661C45.1762 39.0663 45.2392 39.0924 45.2858 39.1387C45.3324 39.185 45.3586 39.2478 45.3589 39.3133Z" fill="#263238"/>
<path d="M46.016 44.0347L58.2047 44.0106" stroke="#263238" stroke-width="0.229517" stroke-linecap="round" stroke-linejoin="round"/>
<path d="M46.0178 44.8452L58.2047 44.819" stroke="#263238" stroke-width="0.229517" stroke-linecap="round" stroke-linejoin="round"/>
<path d="M46.0206 45.7898L56.4154 45.7674" stroke="#263238" stroke-width="0.229517" stroke-linecap="round" stroke-linejoin="round"/>
<path d="M47.066 46.6473L46.0747 46.6494L46.0768 47.6363L47.0681 47.6342L47.066 46.6473Z" stroke="#263238" stroke-width="0.114759" stroke-linecap="round" stroke-linejoin="round"/>
<path d="M48.8629 46.6437L47.8716 46.6458L47.8737 47.6326L48.8649 47.6305L48.8629 46.6437Z" stroke="#263238" stroke-width="0.114759" stroke-linecap="round" stroke-linejoin="round"/>
<path d="M50.6612 46.6405L49.6699 46.6426L49.672 47.6294L50.6633 47.6273L50.6612 46.6405Z" stroke="#263238" stroke-width="0.114759" stroke-linecap="round" stroke-linejoin="round"/>
<path d="M52.4561 46.6363L51.4648 46.6384L51.4669 47.6253L52.4582 47.6232L52.4561 46.6363Z" stroke="#263238" stroke-width="0.114759" stroke-linecap="round" stroke-linejoin="round"/>
<path d="M45.3682 44.0374C45.3684 44.0866 45.3539 44.1347 45.3266 44.1756C45.2993 44.2166 45.2604 44.2485 45.2148 44.2674C45.1692 44.2863 45.119 44.2913 45.0706 44.2818C45.0222 44.2723 44.9777 44.2487 44.9427 44.2139C44.9078 44.1792 44.884 44.1349 44.8744 44.0867C44.8648 44.0385 44.8698 43.9885 44.8887 43.9431C44.9077 43.8977 44.9397 43.859 44.9808 43.8317C45.0219 43.8045 45.0702 43.7901 45.1196 43.7902C45.1854 43.7904 45.2485 43.8165 45.2951 43.8628C45.3416 43.9091 45.3679 43.9719 45.3682 44.0374Z" fill="#263238"/>
<path d="M46.0268 48.8926L58.2135 48.8684" stroke="#263238" stroke-width="0.229517" stroke-linecap="round" stroke-linejoin="round"/>
<path d="M46.0292 49.7029L58.2159 49.6787" stroke="#263238" stroke-width="0.229517" stroke-linecap="round" stroke-linejoin="round"/>
<path d="M46.0291 50.6478L56.4237 50.6272" stroke="#263238" stroke-width="0.229517" stroke-linecap="round" stroke-linejoin="round"/>
<path d="M47.0777 51.5057L46.0864 51.5078L46.0885 52.4947L47.0798 52.4926L47.0777 51.5057Z" stroke="#263238" stroke-width="0.114759" stroke-linecap="round" stroke-linejoin="round"/>
<path d="M48.8726 51.5016L47.8813 51.5037L47.8834 52.4905L48.8747 52.4884L48.8726 51.5016Z" stroke="#263238" stroke-width="0.114759" stroke-linecap="round" stroke-linejoin="round"/>
<path d="M50.67 51.4974L49.6787 51.4995L49.6808 52.4863L50.6721 52.4843L50.67 51.4974Z" stroke="#263238" stroke-width="0.114759" stroke-linecap="round" stroke-linejoin="round"/>
<path d="M52.4683 51.493L51.4771 51.4951L51.4791 52.482L52.4704 52.4799L52.4683 51.493Z" stroke="#263238" stroke-width="0.114759" stroke-linecap="round" stroke-linejoin="round"/>
<path d="M45.3869 48.8944C45.3871 48.9431 45.3728 48.9908 45.3458 49.0313C45.3188 49.0719 45.2803 49.1036 45.2352 49.1225C45.1901 49.1413 45.1405 49.1464 45.0925 49.1371C45.0445 49.1278 45.0003 49.1046 44.9656 49.0703C44.9308 49.0361 44.9071 48.9923 44.8973 48.9446C44.8875 48.8969 44.8921 48.8474 44.9106 48.8024C44.9291 48.7573 44.9606 48.7187 45.0011 48.6914C45.0416 48.6641 45.0893 48.6494 45.1382 48.6492C45.1707 48.649 45.2029 48.6552 45.2331 48.6674C45.2632 48.6796 45.2906 48.6977 45.3137 48.7204C45.3368 48.7432 45.3551 48.7703 45.3677 48.8002C45.3803 48.83 45.3868 48.8621 45.3869 48.8944Z" fill="#263238"/>
<path d="M46.4112 37.595L46.5516 37.8068L47.0469 37.2008" stroke="#263238" stroke-width="0.229517" stroke-linecap="round" stroke-linejoin="round"/>
<path d="M50.0142 42.252L50.1544 42.4657L50.65 41.8578" stroke="#263238" stroke-width="0.229517" stroke-linecap="round" stroke-linejoin="round"/>
<path d="M48.2276 47.0772L48.3697 47.2911L48.8633 46.683" stroke="#263238" stroke-width="0.229517" stroke-linecap="round" stroke-linejoin="round"/>
<path d="M51.8086 51.8887L51.9488 52.1024L52.4444 51.4945" stroke="#263238" stroke-width="0.229517" stroke-linecap="round" stroke-linejoin="round"/>
<defs>
<clipPath id="clip0_7_38536">
<rect width="15.0258" height="20.7621" fill="white" transform="matrix(0.998836 0.0482276 -0.0490328 0.998797 62.8086 36.6672)"/>
</clipPath>
<clipPath id="clip1_7_38536">
<rect width="15.0086" height="20.7861" fill="white" transform="matrix(0.927964 -0.372671 0.378023 0.925796 23.3579 39.0298)"/>
</clipPath>
</defs>
</svg>
