<svg width="26" height="27" viewBox="0 0 26 27" fill="none" xmlns="http://www.w3.org/2000/svg">
<path d="M11.5191 0.574576C12.311 -0.191535 13.5678 -0.191536 14.3598 0.574576L15.7568 1.92603C16.2096 2.36412 16.8393 2.56872 17.4632 2.48048L19.3877 2.20826C20.4787 2.05395 21.4955 2.79268 21.6859 3.87796L22.0217 5.79244C22.1306 6.41305 22.5197 6.9487 23.0763 7.24401L24.7933 8.15501C25.7667 8.67143 26.155 9.86673 25.6711 10.8566L24.8175 12.6029C24.5408 13.169 24.5408 13.831 24.8175 14.3971L25.6711 16.1434C26.155 17.1333 25.7667 18.3286 24.7933 18.845L23.0763 19.756C22.5197 20.0513 22.1306 20.5869 22.0217 21.2076L21.6859 23.122C21.4955 24.2073 20.4787 24.9461 19.3877 24.7917L17.4632 24.5195C16.8393 24.4313 16.2096 24.6359 15.7568 25.074L14.3598 26.4254C13.5678 27.1915 12.311 27.1915 11.5191 26.4254L10.1221 25.074C9.66925 24.6359 9.03956 24.4313 8.41568 24.5195L6.49113 24.7917C5.40014 24.9461 4.38336 24.2073 4.19298 23.122L3.85716 21.2076C3.74829 20.5869 3.35913 20.0513 2.80253 19.756L1.08553 18.845C0.112198 18.3286 -0.27618 17.1333 0.207717 16.1434L1.06133 14.3971C1.33804 13.831 1.33804 13.169 1.06133 12.6029L0.207717 10.8566C-0.276179 9.86673 0.112197 8.67143 1.08553 8.15501L2.80253 7.24401C3.35913 6.9487 3.74829 6.41305 3.85716 5.79244L4.19298 3.87797C4.38336 2.79268 5.40014 2.05395 6.49113 2.20826L8.41568 2.48048C9.03956 2.56872 9.66925 2.36412 10.1221 1.92603L11.5191 0.574576Z" fill="url(#paint0_linear_218_3943)"/>
<defs>
<linearGradient id="paint0_linear_218_3943" x1="1.93985" y1="1.40046" x2="24.489" y2="25.5995" gradientUnits="userSpaceOnUse">
<stop stop-color="#E0412B"/>
<stop offset="1" stop-color="#F0792E"/>
</linearGradient>
</defs>
</svg>
