<svg width="20" height="35" viewBox="0 0 20 35" fill="none" xmlns="http://www.w3.org/2000/svg">
<path d="M12.8893 20.021L8.47654 32.8147L14.8127 35.0002L19.2255 22.2065L12.8893 20.021Z" fill="#F1BEF5"/>
<path d="M15.1821 28.16C15.0439 28.4088 14.835 28.611 14.5818 28.741C14.3286 28.871 14.0426 28.9229 13.7598 28.8902C13.4771 28.8575 13.2105 28.7416 12.9937 28.5573C12.7769 28.3729 12.6196 28.1284 12.5419 27.8547C12.4641 27.5809 12.4693 27.2902 12.5569 27.0194C12.6444 26.7486 12.8103 26.5099 13.0336 26.3335C13.2569 26.1571 13.5276 26.0509 13.8113 26.0283C14.095 26.0058 14.379 26.068 14.6273 26.207C14.9589 26.3933 15.2033 26.7033 15.3073 27.0692C15.4112 27.4351 15.3662 27.8272 15.1821 28.16Z" fill="#A14CAF" stroke="#263238" stroke-width="0.230207" stroke-linecap="round" stroke-linejoin="round"/>
<path d="M13.4425 26.786L13.4461 26.7726C13.462 26.7141 13.4283 26.6545 13.3715 26.6391C13.3148 26.6237 13.2555 26.658 13.2397 26.7165L12.9839 27.6572C12.968 27.7156 13.0017 27.7752 13.0585 27.7907C13.1153 27.8061 13.1745 27.7718 13.1904 27.7133L13.2637 27.4437L13.2637 27.4437L13.4425 26.786ZM13.4425 26.786L13.4437 26.7863M13.4425 26.786L13.4437 26.7863M13.4437 26.7863L13.3837 27.0069L13.3769 27.0319L13.4015 27.0237C13.4589 27.0044 13.5191 26.9956 13.5793 26.9975L13.5902 26.9978L13.5931 26.9873L13.6373 26.8246C13.6532 26.7661 13.7124 26.7318 13.7692 26.7472C13.826 26.7626 13.8597 26.8222 13.8438 26.8807L13.7995 27.0434L13.7967 27.0539L13.8062 27.0592C14.0077 27.1697 14.1127 27.4024 14.0642 27.6315L14.0574 27.6634L14.0851 27.6462L14.6324 27.3051L14.6324 27.3051C14.6567 27.2899 14.6857 27.2852 14.7131 27.2918C14.7405 27.2984 14.7641 27.3158 14.7788 27.3403C14.7936 27.3661 14.7977 27.3971 14.7899 27.4263C14.7827 27.4534 14.7656 27.4767 14.7422 27.4915C14.7422 27.4915 14.7422 27.4915 14.7422 27.4915L13.9356 27.9942C13.9356 27.9942 13.9356 27.9942 13.9356 27.9942C13.8979 28.0175 13.8504 28.0153 13.8155 27.9887C13.7805 27.9621 13.7651 27.9161 13.7769 27.8727L13.4437 26.7863Z" fill="white" stroke="#BFBFBF" stroke-width="0.0276248"/>
<path d="M8.48045 32.8161L14.8136 34.9953L19.2348 22.2084L12.9016 20.024L8.48045 32.8161ZM18.5617 22.5332L14.4915 34.3352L9.14573 32.5018L13.2107 20.6893L18.5617 22.5332Z" fill="white"/>
<path opacity="0.5" d="M13.8316 21.6898L13.2868 23.2613C13.2566 23.3459 13.1943 23.4152 13.1135 23.4543C13.0327 23.4935 12.9398 23.4994 12.8547 23.4709C12.7697 23.4412 12.7 23.379 12.6607 23.298C12.6215 23.217 12.6159 23.1238 12.6452 23.0387L13.1899 21.4672C13.2202 21.3827 13.2825 21.3134 13.3632 21.2742C13.444 21.235 13.537 21.2291 13.6221 21.2577C13.7071 21.2874 13.7768 21.3495 13.816 21.4305C13.8553 21.5115 13.8609 21.6047 13.8316 21.6898Z" fill="#20446C"/>
<path d="M4.54597 0.0298331L0.133242 12.8236L6.46944 15.009L10.8822 2.21527L4.54597 0.0298331Z" fill="#F1BEF5"/>
<path d="M6.83878 8.16935C6.70058 8.41813 6.49166 8.62031 6.23849 8.75029C5.98531 8.88026 5.69926 8.93218 5.41655 8.89948C5.13385 8.86678 4.86721 8.75093 4.65039 8.56659C4.43356 8.38226 4.27632 8.13773 4.19856 7.86397C4.1208 7.59021 4.12602 7.29953 4.21357 7.02874C4.30112 6.75795 4.46705 6.51923 4.69035 6.3428C4.91365 6.16637 5.18429 6.06017 5.46799 6.03765C5.75169 6.01513 6.03568 6.0773 6.28403 6.21628C6.61561 6.40264 6.86003 6.71258 6.96396 7.07848C7.06789 7.44437 7.02289 7.83651 6.83878 8.16935Z" fill="#A14CAF" stroke="#263238" stroke-width="0.230207" stroke-linecap="round" stroke-linejoin="round"/>
<path d="M5.0992 6.79673L5.10283 6.78336C5.11873 6.7249 5.08505 6.66532 5.02825 6.64988C4.97151 6.63446 4.91225 6.66878 4.89636 6.72723L4.64062 7.66797C4.62473 7.72642 4.65845 7.78602 4.7152 7.80144C4.77199 7.81688 4.8312 7.78256 4.84709 7.7241L4.92039 7.4545L4.92039 7.45447L5.0992 6.79673ZM5.0992 6.79673L5.10038 6.79705M5.0992 6.79673L5.10038 6.79705M5.10038 6.79705L5.04041 7.01767L5.03361 7.04268L5.05818 7.03444C5.11556 7.01521 5.17578 7.00636 5.23597 7.00827L5.24691 7.00861L5.24978 6.99805L5.29401 6.83533C5.3099 6.77687 5.36911 6.74255 5.4259 6.75799C5.4827 6.77342 5.51638 6.833 5.50048 6.89146L5.45625 7.05418L5.45339 7.06471L5.46295 7.06996C5.66438 7.18051 5.76943 7.41318 5.72088 7.64231L5.71413 7.67416L5.74177 7.65694L6.28907 7.31586L6.28908 7.31586C6.31336 7.30069 6.34243 7.29593 6.36984 7.30255C6.39722 7.30916 6.42086 7.32658 6.4355 7.35108C6.45032 7.37692 6.45437 7.40788 6.44661 7.43705C6.43943 7.46414 6.42234 7.48746 6.3989 7.50225C6.39889 7.50226 6.39888 7.50227 6.39886 7.50228L5.59233 8.00494C5.59233 8.00495 5.59232 8.00495 5.59232 8.00496C5.55463 8.0283 5.50707 8.02607 5.47218 7.99947C5.43725 7.97283 5.4218 7.92692 5.43356 7.88352L5.10038 6.79705Z" fill="white" stroke="#BFBFBF" stroke-width="0.0276248"/>
<path d="M0.137161 12.8249L6.47035 15.0041L10.8915 2.21722L4.55835 0.0328206L0.137161 12.8249ZM10.2184 2.542L6.1482 14.3441L0.802437 12.5106L4.86741 0.698094L10.2184 2.542Z" fill="white"/>
<path d="M4.52833 0.115559L0.115607 12.9093L6.4518 15.0947L10.8645 2.301L4.52833 0.115559Z" stroke="#263238" stroke-width="0.230207" stroke-linecap="round" stroke-linejoin="round"/>
<path opacity="0.5" d="M5.48835 1.69865L4.94355 3.27016C4.91326 3.35469 4.85104 3.42397 4.77025 3.46315C4.68945 3.50232 4.59652 3.50826 4.51139 3.47969C4.42644 3.44998 4.35671 3.38783 4.31745 3.30685C4.27818 3.22586 4.27258 3.13263 4.30186 3.04753L4.84665 1.47602C4.87694 1.39149 4.93916 1.3222 5.01995 1.28303C5.10075 1.24385 5.19368 1.23791 5.27881 1.26648C5.36376 1.2962 5.43349 1.35834 5.47276 1.43933C5.51202 1.52031 5.51763 1.61354 5.48835 1.69865Z" fill="#20446C"/>
<path opacity="0.5" d="M6.57584 11.7432L6.03104 13.3147C6.00075 13.3993 5.93853 13.4686 5.85774 13.5077C5.77694 13.5469 5.68401 13.5528 5.59888 13.5243C5.51393 13.4946 5.4442 13.4324 5.40493 13.3514C5.36567 13.2704 5.36007 13.1772 5.38935 13.0921L5.93414 11.5206C5.96443 11.4361 6.02665 11.3668 6.10744 11.3276C6.18824 11.2884 6.28117 11.2825 6.3663 11.3111C6.45125 11.3408 6.52098 11.4029 6.56024 11.4839C6.59951 11.5649 6.60512 11.6581 6.57584 11.7432Z" fill="#20446C"/>
<path opacity="0.5" d="M15.0595 31.9769L14.5147 33.5484C14.4844 33.6329 14.4222 33.7022 14.3414 33.7414C14.2606 33.7806 14.1677 33.7865 14.0826 33.7579C13.998 33.7276 13.9287 33.6654 13.8896 33.5846C13.8504 33.5038 13.8445 33.4109 13.873 33.3258L14.4178 31.7543C14.4481 31.6697 14.5103 31.6004 14.5911 31.5613C14.6719 31.5221 14.7649 31.5162 14.85 31.5447C14.9349 31.5744 15.0047 31.6366 15.0439 31.7176C15.0832 31.7986 15.0888 31.8918 15.0595 31.9769Z" fill="#20446C"/>
</svg>
