<svg width="12" height="1" viewBox="0 0 12 1" fill="none" xmlns="http://www.w3.org/2000/svg">
<path d="M0.262117 0.524414H11.7373C11.8068 0.524414 11.8735 0.496789 11.9226 0.447616C11.9718 0.398442 11.9994 0.331752 11.9994 0.26221C11.9994 0.192669 11.9718 0.125972 11.9226 0.0767987C11.8735 0.0276252 11.8068 1.65801e-08 11.7373 0H0.262117C0.227696 -8.20963e-09 0.19361 0.00678102 0.161808 0.0199582C0.130007 0.0331354 0.101118 0.0524504 0.076778 0.0767987C0.0524384 0.101147 0.0331302 0.130054 0.0199578 0.161866C0.00678526 0.193679 0 0.227777 0 0.26221C0 0.296644 0.00678526 0.330736 0.0199578 0.362548C0.0331302 0.394361 0.0524384 0.423267 0.076778 0.447616C0.101118 0.471964 0.130007 0.491279 0.161808 0.504456C0.19361 0.517633 0.227696 0.524414 0.262117 0.524414Z" fill="#90B9E7"/>
</svg>
