<svg width="13" height="13" viewBox="0 0 13 13" fill="none" xmlns="http://www.w3.org/2000/svg">
<path d="M6.50274 12.9054L6.50277 12.9054C8.2002 12.9035 9.82754 12.228 11.0278 11.0272C12.228 9.82636 12.9032 8.19828 12.9052 6.50011L12.9052 6.5C12.9052 6.34616 12.8441 6.19861 12.7353 6.08982C12.6266 5.98102 12.4791 5.91989 12.3253 5.91989C12.1715 5.91989 12.024 5.98102 11.9152 6.08982C11.8065 6.19861 11.7454 6.34616 11.7454 6.5L11.7454 6.50011C11.7468 7.74242 11.308 8.94501 10.5069 9.89419C9.70577 10.8434 8.59427 11.4777 7.36988 11.6844C6.14549 11.8912 4.88748 11.6569 3.81938 11.0234C2.75129 10.3898 1.94227 9.39793 1.53608 8.22397C1.12989 7.05 1.15285 5.76998 1.60088 4.61135C2.0489 3.45272 2.89297 2.49052 3.9831 1.8957C5.07323 1.30089 6.33882 1.11198 7.55501 1.36253C8.67323 1.5929 9.68312 2.18107 10.4344 3.03399L9.93607 2.8961L9.93606 2.8961C9.7878 2.8551 9.62933 2.87469 9.49551 2.95058C9.36169 3.02647 9.26351 3.15242 9.22253 3.30072C9.18155 3.44902 9.20113 3.60753 9.27697 3.74139C9.35282 3.87525 9.47871 3.9735 9.62697 4.01451L9.65221 3.92327L9.62698 4.01451L11.6105 4.56306L11.6104 4.56371L11.6216 4.56541C11.6469 4.56926 11.6725 4.57138 11.6981 4.57176C11.7339 4.57768 11.7702 4.58013 11.8064 4.57906L11.8065 4.57969L11.8172 4.57813C11.854 4.57281 11.8901 4.5639 11.9251 4.55154C11.9503 4.54696 11.9753 4.54064 11.9997 4.53262L11.9998 4.53315L12.0093 4.52886C12.0172 4.52524 12.0237 4.52116 12.0285 4.5177C12.0332 4.51606 12.0396 4.51355 12.0465 4.50977L12.0468 4.51041L12.0564 4.50351C12.0812 4.48569 12.1045 4.46591 12.1261 4.44436C12.1529 4.42462 12.178 4.40261 12.201 4.37856L12.2017 4.3792L12.2094 4.36846C12.2288 4.34156 12.2458 4.31303 12.2603 4.28319C12.2794 4.25264 12.2955 4.22035 12.3085 4.18675C12.3121 4.18085 12.3172 4.1713 12.3206 4.15875L12.8726 2.17386L12.8726 2.17371C12.9136 2.02541 12.894 1.86689 12.8182 1.73304C12.7423 1.59918 12.6164 1.50093 12.4682 1.45992C12.3199 1.41891 12.1614 1.43851 12.0276 1.5144C11.8938 1.59029 11.7956 1.71624 11.7546 1.86454L11.7546 1.86456L11.558 2.57688C10.9278 1.76317 10.1102 1.11258 9.17384 0.681376C8.17863 0.223088 7.08252 0.027961 5.99038 0.114662C4.89824 0.201364 3.84661 0.566993 2.9361 1.17657C2.02559 1.78614 1.28667 2.61927 0.790014 3.59623C0.293363 4.57319 0.0555996 5.66131 0.0994686 6.75649C0.143338 7.85167 0.467371 8.91726 1.04057 9.85134C1.61378 10.7854 2.41697 11.5567 3.37332 12.0914C4.32967 12.6262 5.40717 12.9064 6.50274 12.9054Z" fill="white" stroke="white" stroke-width="0.18"/>
</svg>
