<svg width="28" height="28" viewBox="0 0 28 28" fill="none" xmlns="http://www.w3.org/2000/svg">
<g clip-path="url(#clip0_7_67024)">
<path fill-rule="evenodd" clip-rule="evenodd" d="M2.35059 4.81226C2.35059 5.23697 2.00626 5.5813 1.58154 5.5813C1.15672 5.5813 0.8125 5.23697 0.8125 4.81226V1.58228C0.8125 1.15746 1.15672 0.813232 1.58154 0.813232H4.81132C5.23614 0.813232 5.58036 1.15746 5.58036 1.58228C5.58036 2.00699 5.23614 2.35132 4.81132 2.35132H2.35059V4.81226ZM12.9634 21.321C12.5386 21.321 12.1943 20.9767 12.1943 20.552C12.1943 20.1272 12.5386 19.783 12.9634 19.783H13.6299C14.0546 19.783 14.3989 20.1272 14.3989 20.552C14.3989 20.9767 14.0546 21.321 13.6299 21.321H12.9634ZM13.5273 11.0671C13.5273 11.4919 13.183 11.8362 12.7583 11.8362C12.3335 11.8362 11.9893 11.4919 11.9893 11.0671V10.4006C11.9893 9.97581 12.3335 9.63159 12.7583 9.63159C13.183 9.63159 13.5273 9.97581 13.5273 10.4006V11.0671ZM18.2441 19.6804C17.8193 19.6804 17.4751 19.3361 17.4751 18.9114C17.4751 18.4866 17.8193 18.1423 18.2441 18.1423H18.9106C19.3354 18.1423 19.6797 18.4866 19.6797 18.9114C19.6797 19.3361 19.3354 19.6804 18.9106 19.6804H18.2441ZM2.37622 14.7073H5.95483C5.94458 14.757 5.93945 14.8084 5.93945 14.8611V17.1682C5.93945 17.5929 6.28368 17.9373 6.7085 17.9373C7.13321 17.9373 7.47754 17.5929 7.47754 17.1682V14.8611C7.47754 14.8084 7.47241 14.757 7.46216 14.7073H14.2451V15.5789H10.1948C9.77 15.5789 9.42578 15.9231 9.42578 16.3479C9.42578 16.7726 9.77 17.1169 10.1948 17.1169H15.0142C15.4389 17.1169 15.7832 16.7726 15.7832 16.3479V14.7073H18.6543V16.9631C18.6543 17.3878 18.9985 17.7322 19.4233 17.7322C19.8481 17.7322 20.1924 17.3878 20.1924 16.9631V14.7073H25.4988C25.9235 14.7073 26.2678 14.3629 26.2678 13.9382C26.2678 13.5134 25.9235 13.1692 25.4988 13.1692H21.9868V11.6824H22.7559C23.1806 11.6824 23.5249 11.338 23.5249 10.9133C23.5249 10.4885 23.1806 10.1443 22.7559 10.1443H18.9106C18.4858 10.1443 18.1416 10.4885 18.1416 10.9133C18.1416 11.338 18.4858 11.6824 18.9106 11.6824H20.4487V13.1692H15.7832V11.1697C15.7832 10.7449 15.4389 10.4006 15.0142 10.4006C14.5893 10.4006 14.2451 10.7449 14.2451 11.1697V13.1692H2.37622C1.9514 13.1692 1.60718 13.5134 1.60718 13.9382C1.60718 14.3629 1.9514 14.7073 2.37622 14.7073ZM15.6807 5.27368C15.6807 4.84886 16.0249 4.50464 16.4497 4.50464C16.8744 4.50464 17.2187 4.84886 17.2187 5.27368V9.32397C17.2187 9.74869 16.8744 10.093 16.4497 10.093C16.0249 10.093 15.6807 9.74869 15.6807 9.32397V5.27368ZM11.1177 5.5813H12.8608V5.27368C12.8608 4.84886 13.2051 4.50464 13.6299 4.50464C14.0546 4.50464 14.3989 4.84886 14.3989 5.27368V7.83716C14.3989 8.26187 14.0546 8.6062 13.6299 8.6062C13.2051 8.6062 12.8608 8.26187 12.8608 7.83716V7.11938H11.1177V7.47827C11.1177 7.90299 10.7733 8.24731 10.3486 8.24731C9.92381 8.24731 9.57959 7.90299 9.57959 7.47827V5.27368C9.57959 4.84886 9.92381 4.50464 10.3486 4.50464C10.7733 4.50464 11.1177 4.84886 11.1177 5.27368V5.5813ZM4.96513 11.6311C4.54051 11.6311 4.19608 11.2868 4.19608 10.8621C4.19608 10.4372 4.54051 10.093 4.96513 10.093H10.6562C11.081 10.093 11.4253 10.4372 11.4253 10.8621C11.4253 11.2868 11.081 11.6311 10.6562 11.6311H4.96513ZM21.7305 21.8337V22.6028C21.7305 23.0275 22.0747 23.3718 22.4995 23.3718C22.9242 23.3718 23.2686 23.0275 23.2686 22.6028V17.9885C23.2686 17.564 22.9242 17.2195 22.4995 17.2195C22.0747 17.2195 21.7305 17.564 21.7305 17.9885V20.2957H19.167C18.7422 20.2957 18.3979 20.6402 18.3979 21.0647C18.3979 21.4894 18.7422 21.8337 19.167 21.8337H21.7305ZM13.8862 23.3718H16.1934C16.6181 23.3718 16.9624 23.0275 16.9624 22.6028V18.655C16.9624 18.2302 16.6181 17.886 16.1934 17.886C15.7685 17.886 15.4243 18.2302 15.4243 18.655V21.8337H13.8862C13.4614 21.8337 13.1172 22.178 13.1172 22.6028C13.1172 23.0275 13.4614 23.3718 13.8862 23.3718ZM9.63086 18.7063C9.63086 18.2815 9.97508 17.9373 10.3999 17.9373C10.8246 17.9373 11.1689 18.2815 11.1689 18.7063V20.9622C11.1689 21.3869 10.8246 21.7312 10.3999 21.7312C9.97508 21.7312 9.63086 21.3869 9.63086 20.9622V18.7063ZM4.96533 18.6038H8.19531C8.62003 18.6038 8.96435 18.948 8.96435 19.3728V22.6028C8.96435 23.0275 8.62003 23.3718 8.19531 23.3718H4.96533C4.54051 23.3718 4.19629 23.0275 4.19629 22.6028V19.3728C4.19629 18.948 4.54051 18.6038 4.96533 18.6038ZM7.42627 20.1418H5.73437V21.8337H7.42627V20.1418ZM19.6797 4.50464H22.9097C23.3344 4.50464 23.6787 4.84886 23.6787 5.27368V8.50366C23.6787 8.92838 23.3344 9.2727 22.9097 9.2727H19.6797C19.2549 9.2727 18.9106 8.92838 18.9106 8.50366V5.27368C18.9106 4.84886 19.2549 4.50464 19.6797 4.50464ZM22.1406 6.04272H20.4487V7.73462H22.1406V6.04272ZM4.96533 4.50464C4.54051 4.50464 4.19629 4.84886 4.19629 5.27368V8.50366C4.19629 8.92838 4.54051 9.2727 4.96533 9.2727H8.19531C8.62003 9.2727 8.96435 8.92838 8.96435 8.50366V5.27368C8.96435 4.84886 8.62003 4.50464 8.19531 4.50464H4.96533ZM7.42627 6.04272V7.73462H5.73437V6.04272H7.42627ZM25.5244 23.0642C25.5244 22.6394 25.8686 22.2952 26.2935 22.2952C26.7182 22.2952 27.0625 22.6394 27.0625 23.0642V26.2942C27.0625 26.7189 26.7182 27.0632 26.2935 27.0632H23.0636C22.639 27.0632 22.2945 26.7189 22.2945 26.2942C22.2945 25.8694 22.639 25.5251 23.0636 25.5251H25.5244V23.0642ZM0.8125 23.0642V26.2942C0.8125 26.7189 1.15672 27.0632 1.58154 27.0632H4.81132C5.23614 27.0632 5.58036 26.7189 5.58036 26.2942C5.58036 25.8694 5.23614 25.5251 4.81132 25.5251H2.35059V23.0642C2.35059 22.6394 2.00626 22.2952 1.58154 22.2952C1.15672 22.2952 0.8125 22.6394 0.8125 23.0642ZM27.0625 4.81226V1.58228C27.0625 1.15746 26.7182 0.813232 26.2935 0.813232H23.0636C22.639 0.813232 22.2945 1.15746 22.2945 1.58228C22.2945 2.00699 22.639 2.35132 23.0636 2.35132H25.5244V4.81226C25.5244 5.23697 25.8686 5.5813 26.2935 5.5813C26.7182 5.5813 27.0625 5.23697 27.0625 4.81226Z" fill="#F0792E"/>
</g>
<defs>
<clipPath id="clip0_7_67024">
<rect width="28" height="28" fill="white"/>
</clipPath>
</defs>
</svg>
