<svg width="35" height="24" viewBox="0 0 35 24" fill="none" xmlns="http://www.w3.org/2000/svg">
<path d="M8.82483 5.59204L8.82483 5.59204C11.174 5.5658 13.5181 5.36743 15.8383 4.99854C15.8877 4.98848 15.9381 4.98509 15.9884 4.98846M8.82483 5.59204L15.9823 5.08973M8.82483 5.59204L8.82419 5.59205C8.67 5.59475 8.5232 5.65859 8.41608 5.76953C8.30896 5.88046 8.25029 6.02941 8.25299 6.1836C8.25569 6.33779 8.31953 6.48459 8.43046 6.59171C8.48539 6.64475 8.55023 6.68645 8.62128 6.71443C8.69204 6.7423 8.76757 6.75602 8.8436 6.75481M8.82483 5.59204L8.84276 6.65336M15.9884 4.98846C15.9887 4.98848 15.9889 4.9885 15.9892 4.98852L15.9823 5.08973M15.9884 4.98846C15.9881 4.98845 15.9879 4.98844 15.9876 4.98842L15.9823 5.08973M15.9884 4.98846C16.5883 5.02032 17.1702 5.20389 17.6798 5.522L17.6858 5.52578L17.6857 5.52598C17.7847 5.59795 17.8585 5.69936 17.8966 5.81574C17.9346 5.93212 17.9349 6.05754 17.8975 6.17412C17.86 6.29069 17.7868 6.39247 17.6881 6.46495C17.5894 6.53742 17.4703 6.57688 17.3479 6.57771L17.3472 6.57771C17.2138 6.57769 17.0844 6.53287 16.9796 6.45058M15.9823 5.08973C16.5652 5.12056 17.1308 5.29891 17.626 5.60806C17.7078 5.66747 17.7687 5.75118 17.8001 5.84725C17.8315 5.94333 17.8318 6.04686 17.8009 6.1431C17.77 6.23933 17.7095 6.32335 17.628 6.38317C17.5465 6.443 17.4483 6.47558 17.3472 6.47626C17.2342 6.47624 17.1246 6.43745 17.0367 6.36636M16.9796 6.45058C16.9818 6.45184 16.984 6.45311 16.9862 6.45438L17.0367 6.36636M16.9796 6.45058C16.9773 6.44881 16.9751 6.44703 16.9729 6.44523L17.0367 6.36636M16.9796 6.45058C16.6745 6.27709 16.3337 6.17592 15.9834 6.15487M17.0367 6.36636C16.7131 6.18092 16.3508 6.07361 15.9784 6.05296M15.9784 6.05296L15.9942 6.15318C15.9906 6.15374 15.987 6.15431 15.9834 6.15487M15.9784 6.05296C13.6215 6.42327 11.2409 6.62392 8.85524 6.65336H8.84276M15.9784 6.05296L15.9728 6.15425C15.9763 6.15445 15.9799 6.15466 15.9834 6.15487M15.9834 6.15487C13.6252 6.52486 11.2434 6.72535 8.85649 6.7548L8.85524 6.75482V6.75481H8.8436M8.8436 6.75481C8.84391 6.7548 8.84422 6.7548 8.84453 6.75479L8.84276 6.65336M8.8436 6.75481H8.84276V6.65336" fill="#F0792E" stroke="#F0792E" stroke-width="0.2"/>
<path d="M14.0714 8.51286C14.0509 8.50007 14.0343 8.48188 14.0235 8.46029C14.0127 8.43871 14.008 8.41455 14.01 8.39048L19.8287 8.25034C19.7534 8.18895 19.6612 8.15186 19.5644 8.14398C19.4676 8.13609 19.3706 8.15778 19.2864 8.20618C16.8094 9.62919 15.0793 9.15693 14.0714 8.51286ZM14.0714 8.51286L14.0714 8.51286L14.0714 8.51286ZM26.3987 18.1722C25.9681 18.1728 25.5484 18.0368 25.2 17.7839L25.0985 17.7136C25.0984 17.7135 25.0982 17.7134 25.0981 17.7133C25.0803 17.7012 25.056 17.6815 25.0332 17.6598L19.3908 13.5963C19.3274 13.5528 19.2732 13.4972 19.2314 13.4326C19.1894 13.3676 19.1608 13.295 19.1472 13.2188C19.1337 13.1426 19.1355 13.0645 19.1525 12.9891C19.1695 12.9136 19.2014 12.8423 19.2463 12.7793C19.2912 12.7163 19.3482 12.663 19.414 12.6223C19.4798 12.5816 19.5531 12.5545 19.6295 12.5425C19.7059 12.5305 19.784 12.5339 19.8591 12.5525C19.9338 12.5709 20.0041 12.6041 20.066 12.6499L20.4491 12.9229L20.4496 12.9232L25.7358 16.7352L28.3673 15.5413L28.2698 15.5693L28.3672 15.5411C28.4579 15.8539 28.4731 16.1837 28.4117 16.5035C28.3503 16.8233 28.214 17.1241 28.0139 17.381M26.3987 18.1722C26.3985 18.1722 26.3984 18.1722 26.3983 18.1722L26.3985 18.0708L26.3987 18.1722ZM26.3987 18.1722C26.7105 18.1728 27.0183 18.1018 27.2984 17.9646C27.5784 17.8274 27.8232 17.6278 28.0139 17.381M28.0139 17.381C28.014 17.3809 28.014 17.3808 28.0141 17.3807L27.9338 17.3187L28.0139 17.381ZM27.6961 14.5305L19.8928 8.1717C19.8016 8.09734 19.6899 8.05241 19.5726 8.04286C19.4553 8.03331 19.3379 8.05959 19.2358 8.11821C18.0108 8.82203 16.9771 9.05344 16.1304 9.03325C15.2837 9.01307 14.617 8.7411 14.126 8.42737L14.126 8.42737L14.1251 8.42679C14.1204 8.42387 14.1167 8.41972 14.1142 8.41478C14.1117 8.40985 14.1106 8.40433 14.1111 8.39883L14.1112 8.39884L14.1114 8.39331C14.1116 8.38545 14.114 8.3778 14.1183 8.37122C14.1226 8.36464 14.1287 8.35938 14.1358 8.35602L14.1358 8.35613L14.1401 8.35385L18.4659 6.0566C18.4659 6.05656 18.466 6.05653 18.4661 6.05649C18.6166 5.97736 18.7813 5.92877 18.9507 5.9135C19.12 5.89824 19.2906 5.91658 19.4528 5.96746C19.4529 5.96751 19.4531 5.96756 19.4532 5.96761L22.008 6.79699C22.0081 6.79701 22.0082 6.79704 22.0082 6.79706C23.0013 7.12394 24.0785 7.0849 25.0452 6.68698C25.0453 6.68697 25.0453 6.68695 25.0453 6.68694L26.1586 6.23107L26.1587 6.23105C26.2293 6.20208 26.2936 6.15947 26.3478 6.10567C26.402 6.05186 26.445 5.9879 26.4745 5.91746C26.504 5.84701 26.5193 5.77144 26.5195 5.69508C26.5198 5.61871 26.505 5.54304 26.4761 5.47238C26.4471 5.40172 26.4045 5.33746 26.3507 5.28327L26.2787 5.35475L26.3507 5.28327C26.2969 5.22908 26.2329 5.18602 26.1625 5.15654C26.092 5.12707 26.0165 5.11176 25.9401 5.11149C25.8637 5.11121 25.7881 5.12598 25.7174 5.15494C25.7174 5.15495 25.7174 5.15495 25.7174 5.15496L24.603 5.61136L24.6029 5.6114C23.8918 5.90354 23.0998 5.93209 22.3695 5.6919L22.3691 5.69177L19.8106 4.86149L19.8106 4.86149L19.81 4.86129C19.5002 4.763 19.1741 4.72699 18.8504 4.75534C18.5267 4.7837 18.2118 4.87584 17.9238 5.02647L17.9233 5.02676L13.599 7.32329C13.5988 7.32336 13.5987 7.32343 13.5985 7.32351C13.4117 7.42058 13.2536 7.56489 13.1399 7.74208C13.0261 7.9194 12.9608 8.12346 12.9504 8.3339C12.9401 8.54434 12.9851 8.75382 13.081 8.94144C13.1768 9.12906 13.3202 9.28828 13.4968 9.40322L13.4975 9.40368C14.4941 10.0406 16.5616 10.8325 19.4619 9.31874L26.966 15.4325L26.9661 15.4326C27.1037 15.5444 27.2034 15.696 27.2516 15.8666L27.2516 15.8667L27.252 15.8679C27.2922 16.0037 27.2992 16.1472 27.2723 16.2862C27.2454 16.4252 27.1855 16.5556 27.0976 16.6666C26.954 16.8464 26.7469 16.9641 26.519 16.9957C26.291 17.0272 26.0596 16.97 25.8726 16.836L25.8715 16.8352L25.7854 16.7753C25.7697 16.761 25.7533 16.7477 25.736 16.7354L27.6961 14.5305Z" fill="#F0792E" stroke="#F0792E" stroke-width="0.2"/>
<path d="M18.0295 16.3347L18.0295 16.3347L18.031 16.3357L23.219 20.0168C23.5506 20.2522 23.9441 20.3839 24.3496 20.396L24.3506 20.3979L24.4134 20.3978C24.8505 20.3974 25.2762 20.2585 25.6295 20.0012C25.9827 19.7438 26.2455 19.3812 26.38 18.9654C26.5145 18.5495 26.5138 18.1017 26.3781 17.6862C26.2424 17.2708 25.9786 16.9089 25.6246 16.6526L25.6244 16.6525L20.4522 12.9253L20.4523 12.9252L20.4474 12.922C20.3221 12.8423 20.1711 12.8135 20.0252 12.8416C19.8794 12.8696 19.7498 12.9524 19.6631 13.073C19.5764 13.1935 19.5391 13.3427 19.5589 13.4899C19.5787 13.637 19.654 13.7711 19.7695 13.8645L19.7694 13.8646L19.7739 13.8679L24.9432 17.5934C25.1267 17.7372 25.2478 17.9462 25.2812 18.177C25.3147 18.4084 25.2576 18.6438 25.1216 18.834C24.9857 19.0242 24.7814 19.1546 24.5517 19.1978C24.3225 19.2409 24.0856 19.194 23.8901 19.0669L18.7036 15.3874L18.7037 15.3874L18.7022 15.3864C18.5764 15.3004 18.4217 15.2672 18.2717 15.294C18.1216 15.3209 17.9881 15.4056 17.8999 15.53C17.8117 15.6543 17.7758 15.8083 17.8001 15.9588C17.8243 16.1094 17.9067 16.2443 18.0295 16.3347Z" fill="#F0792E" stroke="#F0792E" stroke-width="0.2"/>
<path d="M17.0473 17.786L17.0474 17.786L21.6964 21.0063C21.7876 21.0694 21.8902 21.1138 21.9985 21.1372C22.1069 21.1606 22.2187 21.1623 22.3277 21.1424C22.4367 21.1225 22.5408 21.0814 22.6338 21.0213C22.7269 20.9612 22.8072 20.8834 22.8701 20.7923C22.9955 20.6095 23.0442 20.3848 23.0057 20.1665C22.9673 19.9481 22.8448 19.7536 22.6645 19.6246C22.6644 19.6246 22.6644 19.6245 22.6643 19.6245L18.0388 16.3434C17.9754 16.2999 17.9212 16.2443 17.8795 16.1797C17.8376 16.1149 17.809 16.0424 17.7954 15.9664C17.7818 15.8904 17.7835 15.8125 17.8003 15.7372C17.8172 15.6618 17.8488 15.5906 17.8935 15.5276C17.9382 15.4647 17.9949 15.4113 18.0604 15.3705C18.126 15.3297 18.199 15.3023 18.2752 15.29C18.3514 15.2778 18.4293 15.2808 18.5043 15.2989C18.579 15.317 18.6495 15.3497 18.7115 15.3952L23.3373 18.6765L23.3376 18.6767C23.7665 18.9832 24.058 19.4456 24.1496 19.9647C24.2412 20.4838 24.1255 21.0181 23.8274 21.4529C23.6783 21.6703 23.4877 21.8559 23.2665 21.9991C23.0452 22.1423 22.7978 22.2403 22.5384 22.2872C22.4176 22.3093 22.295 22.3203 22.1722 22.32M17.0473 17.786L22.1724 22.2186M17.0473 17.786C16.9205 17.6982 16.764 17.6644 16.6123 17.692C16.4605 17.7195 16.3259 17.8063 16.2381 17.9331C16.1503 18.0599 16.1165 18.2164 16.1441 18.3682C16.1716 18.5199 16.2584 18.6545 16.3852 18.7423L16.4429 18.6589L16.3852 18.7423L21.0341 21.9625L17.0473 17.786ZM22.1722 22.32L22.1724 22.2186M22.1722 22.32C22.1723 22.32 22.1723 22.32 22.1724 22.32L22.1724 22.2186M22.1722 22.32C21.7653 22.3199 21.3682 22.1952 21.0342 21.9626L21.0343 21.9627L21.0921 21.8793C21.4091 22.1001 21.7861 22.2185 22.1724 22.2186" fill="#F0792E" stroke="#F0792E" stroke-width="0.2"/>
<path d="M19.4299 23.8954L19.4299 23.8984C19.0765 23.8967 18.7296 23.8023 18.4241 23.6247C18.424 23.6246 18.4239 23.6246 18.4239 23.6246L15.8436 22.137L15.8429 22.1366C15.7105 22.059 15.6141 21.9321 15.5749 21.7836C15.5357 21.6352 15.5567 21.4773 15.6335 21.3443C15.7102 21.2114 15.8365 21.1142 15.9846 21.074C16.1328 21.0337 16.2909 21.0538 16.4243 21.1296L16.4249 21.1299L19.0042 22.6173C19.0043 22.6174 19.0044 22.6174 19.0046 22.6175C19.1996 22.7274 19.4298 22.7568 19.6462 22.6995C19.8626 22.6421 20.0481 22.5023 20.1629 22.3101C20.2717 22.1263 20.3063 21.9078 20.2596 21.6994C20.2129 21.4908 20.0884 21.308 19.9115 21.1881L19.9106 21.1875L19.9106 21.1875L16.6135 18.9035L16.6135 18.9035C16.5507 18.86 16.4972 18.8046 16.4558 18.7404C16.4145 18.6762 16.3862 18.6045 16.3725 18.5294C16.3589 18.4543 16.3602 18.3772 16.3764 18.3026C16.3925 18.2279 16.4232 18.1572 16.4667 18.0945C16.5102 18.0317 16.5656 17.9781 16.6298 17.9368C16.694 17.8954 16.7657 17.8672 16.8408 17.8535C16.9159 17.8399 16.993 17.8412 17.0676 17.8573C17.1422 17.8735 17.2129 17.9042 17.2757 17.9477L19.4299 23.8954ZM19.4299 23.8954L19.4299 23.8984H19.4301L19.4299 23.8954ZM20.5723 20.2312L17.2757 17.9477L19.4304 23.8984C19.8589 23.8977 20.276 23.7601 20.621 23.5059C20.966 23.2515 21.2208 22.8936 21.3483 22.4844C21.4758 22.0751 21.4692 21.6359 21.3297 21.2306C21.1901 20.8253 20.9248 20.4752 20.5723 20.2312C20.5723 20.2312 20.5723 20.2312 20.5723 20.2312Z" fill="#F0792E" stroke="#F0792E" stroke-width="0.2"/>
<path d="M12.6544 20.0534L12.6544 20.0534L13.9362 18.9304L13.9363 18.9303L12.6544 20.0534ZM12.6544 20.0534C12.3436 20.3258 12.1233 20.6866 12.023 21.0875C11.9226 21.4884 11.947 21.9104 12.0928 22.2971C12.2387 22.6838 12.499 23.0168 12.8391 23.2516C13.1791 23.4864 13.5827 23.6119 13.9959 23.6113M12.6544 20.0534L15.3347 23.1095M15.3347 23.1095L15.3346 23.1096C14.9643 23.4341 14.4883 23.6125 13.9959 23.6113M15.3347 23.1095L16.6166 21.9841L15.3347 23.1095ZM13.9959 23.6113C13.9958 23.6113 13.9957 23.6113 13.9957 23.6113L13.9959 23.5099L13.9961 23.6113C13.996 23.6113 13.9959 23.6113 13.9959 23.6113ZM15.2757 19.588L15.2758 19.588C15.4522 19.5882 15.6243 19.6421 15.7693 19.7426C15.9143 19.843 16.0253 19.9853 16.0875 20.1503C16.1497 20.3154 16.1602 20.4955 16.1175 20.6666C16.0748 20.8378 15.981 20.9919 15.8486 21.1084L14.5669 22.2338C14.5668 22.2338 14.5668 22.2338 14.5668 22.2338C14.4811 22.309 14.3813 22.3667 14.2733 22.4034C14.1652 22.4401 14.051 22.4551 13.9371 22.4477C13.7071 22.4326 13.4925 22.3269 13.3405 22.1536C13.2653 22.0678 13.2076 21.9681 13.1709 21.86C13.1342 21.752 13.1192 21.6377 13.1266 21.5239C13.1341 21.41 13.1639 21.2987 13.2143 21.1963C13.2648 21.094 13.3349 21.0026 13.4207 20.9273C13.4207 20.9273 13.4207 20.9273 13.4207 20.9273L14.703 19.8028L14.7031 19.8028C14.8614 19.6639 15.065 19.5875 15.2757 19.588Z" fill="#F0792E" stroke="#F0792E" stroke-width="0.2"/>
<path d="M14.807 17.1107C14.959 17.2976 15.0768 17.5102 15.1545 17.7386C15.2404 17.9913 15.2758 18.2583 15.2584 18.5246C15.2411 18.7909 15.1715 19.0511 15.0536 19.2905C14.9357 19.5299 14.7718 19.7437 14.5712 19.9197L14.5712 19.9197L12.428 21.7994C12.428 21.7994 12.4279 21.7994 12.4279 21.7995C12.0586 22.1254 11.5829 22.305 11.0903 22.3042M14.807 17.1107L11.0905 22.2028C11.0478 22.2028 11.0051 22.2028 10.9624 22.1989M14.807 17.1107L14.8082 17.1095L14.7442 17.0365C14.7357 17.0269 14.7271 17.0173 14.7185 17.0078M14.807 17.1107L14.7185 17.0078M11.0903 22.3042L11.0905 22.2028V22.3042H11.0903ZM11.0903 22.3042H11.0886C11.0475 22.3042 11.0015 22.3042 10.9547 22.3001M10.9547 22.3001C10.9551 22.3001 10.9556 22.3001 10.956 22.3002L10.9624 22.1989M10.9547 22.3001C10.6887 22.2833 10.4286 22.214 10.1894 22.0962C9.95003 21.9783 9.73633 21.8142 9.56068 21.6133C9.38243 21.4129 9.24549 21.1792 9.15771 20.9257C9.06989 20.6721 9.03301 20.4036 9.0492 20.1357C9.06539 19.8678 9.13433 19.6057 9.25205 19.3645C9.36978 19.1233 9.53398 18.9078 9.73523 18.7302L9.73543 18.73L11.8769 16.8501C11.8769 16.8501 11.8769 16.8501 11.8769 16.8501C12.0774 16.6741 12.3106 16.5393 12.5632 16.4534C12.8158 16.3675 13.0829 16.3322 13.3491 16.3495C13.6154 16.3668 13.8756 16.4364 14.115 16.5543C14.3302 16.6602 14.5247 16.8034 14.6897 16.9769L14.6906 16.9761L14.7185 17.0078M10.9547 22.3001C10.9542 22.3 10.9537 22.3 10.9533 22.3L10.9624 22.1989M10.9624 22.1989L14.7185 17.0078M13.2751 17.5095C13.3882 17.5166 13.4987 17.546 13.6004 17.5959C13.7024 17.6459 13.7935 17.7156 13.8684 17.801L13.8685 17.8011L13.8823 17.8169C13.9577 17.9026 14.0153 18.0024 14.0521 18.1105C14.0888 18.2185 14.1039 18.3328 14.0965 18.4467C14.089 18.5606 14.0593 18.6719 14.0088 18.7743C13.9583 18.8767 13.8882 18.9681 13.8024 19.0434L13.8024 19.0434L11.6609 20.9233L11.6605 20.9237C11.5752 20.9995 11.4757 21.0575 11.3677 21.0943C11.2597 21.1312 11.1455 21.1461 11.0317 21.1383C10.8589 21.1261 10.6935 21.0634 10.5561 20.958C10.4187 20.8525 10.3153 20.7089 10.2588 20.5451C10.2023 20.3813 10.1953 20.2045 10.2385 20.0367C10.2817 19.8692 10.3731 19.718 10.5014 19.6019L12.6423 17.7225L12.6424 17.7224C12.7925 17.5904 12.9836 17.5149 13.1827 17.5082H13.2137C13.2335 17.5082 13.2543 17.5087 13.2751 17.5095Z" fill="#F0792E" stroke="#F0792E" stroke-width="0.2"/>
<path d="M7.13734 19.8496L7.13736 19.8496L7.08575 19.7881C6.73118 19.3832 6.55174 18.8541 6.58686 18.317C6.622 17.7795 6.86913 17.278 7.27392 16.9227L9.75659 14.7433C9.95707 14.5672 10.1903 14.4323 10.4429 14.3464C10.6955 14.2605 10.9626 14.2251 11.2289 14.2424C11.4951 14.2598 11.7554 14.3294 11.9948 14.4473C12.2341 14.5652 12.4479 14.7291 12.6239 14.9297L12.624 14.9298L12.6782 14.9916C13.0334 15.3966 13.2132 15.9261 13.178 16.4636C13.1429 17.0011 12.8957 17.5027 12.4907 17.8579L10.0083 20.0371C10.0082 20.0371 10.0082 20.0372 10.0082 20.0372C9.63843 20.3637 9.16188 20.5435 8.66861 20.5424M7.13734 19.8496L8.66882 20.441M7.13734 19.8496L7.13871 19.8512C7.31442 20.0522 7.52822 20.2165 7.76776 20.3344C8.00692 20.4522 8.267 20.5215 8.53303 20.5383M7.13734 19.8496L8.54068 20.4371M8.66861 20.5424L8.66882 20.441M8.66861 20.5424H8.66882V20.441M8.66861 20.5424H8.667C8.62628 20.5424 8.58026 20.5424 8.53303 20.5383M8.66882 20.441C8.62659 20.441 8.58387 20.441 8.54068 20.4371M8.53303 20.5383C8.53347 20.5383 8.5339 20.5384 8.53434 20.5384L8.54068 20.4371M8.53303 20.5383C8.53259 20.5383 8.53214 20.5382 8.5317 20.5382L8.54068 20.4371M11.0937 15.4014H11.0939C11.1124 15.4014 11.1306 15.4022 11.1506 15.4039L11.1506 15.4039L11.1529 15.4041C11.2666 15.4111 11.3778 15.4406 11.48 15.4909C11.5823 15.5411 11.6735 15.6112 11.7485 15.6969L11.8018 15.7578L11.8019 15.758C11.8772 15.8438 11.9349 15.9436 11.9716 16.0516C12.0084 16.1597 12.0235 16.2739 12.016 16.3878C12.0086 16.5017 11.9788 16.6131 11.9284 16.7154C11.8779 16.8178 11.8078 16.9093 11.722 16.9845L11.7219 16.9846L9.23926 19.1639C9.0661 19.3159 8.83971 19.3929 8.60981 19.3781C8.3799 19.3633 8.16529 19.2578 8.01308 19.0849L7.959 19.0231L7.95897 19.0231C7.80686 18.8496 7.72988 18.6229 7.74495 18.3927C7.76003 18.1625 7.86592 17.9477 8.03934 17.7955L8.03937 17.7955L10.5221 15.6161L10.5221 15.6161C10.6801 15.4772 10.8833 15.4008 11.0937 15.4014ZM11.1592 15.3028C11.1366 15.3009 11.1155 15.2999 11.0939 15.2999L11.8249 15.6301C11.7411 15.5343 11.6391 15.456 11.5248 15.3998C11.4105 15.3436 11.2863 15.3107 11.1592 15.3028Z" fill="#F0792E" stroke="#F0792E" stroke-width="0.2"/>
<path d="M5.22374 14.8284L5.22395 14.8282L6.77843 13.4638C6.77844 13.4638 6.77844 13.4637 6.77845 13.4637C6.97893 13.2877 7.21213 13.1528 7.46474 13.0669C7.71736 12.9809 7.98443 12.9456 8.25071 12.9629C8.51698 12.9802 8.77723 13.0498 9.0166 13.1677C9.25596 13.2857 9.46975 13.4496 9.64574 13.6502L9.64584 13.6503L9.66251 13.6693C9.8386 13.8698 9.97347 14.103 10.0594 14.3556C10.1453 14.6083 10.1807 14.8753 10.1634 15.1416C10.146 15.4079 10.0764 15.6681 9.95852 15.9075C9.8406 16.1469 9.67668 16.3606 9.47611 16.5366C9.47611 16.5366 9.47611 16.5366 9.4761 16.5366L7.92182 17.9009C7.92176 17.901 7.92169 17.901 7.92163 17.9011L7.9216 17.9011L5.22374 14.8284ZM5.22374 14.8284C4.92069 15.0958 4.70373 15.4471 4.60029 15.8379C4.49684 16.2286 4.51155 16.6412 4.64256 17.0236C4.77357 17.406 5.01499 17.741 5.33632 17.9862C5.65715 18.231 6.04326 18.3754 6.44598 18.4011C6.49317 18.4057 6.53995 18.4057 6.58032 18.4057H6.58213H6.58237V18.3043L5.22374 14.8284ZM8.11576 14.1214V14.1214C8.12839 14.1214 8.13972 14.1217 8.15286 14.1221C8.1605 14.1223 8.16875 14.1225 8.17823 14.1227C8.29134 14.13 8.40191 14.1595 8.50361 14.2095C8.60591 14.2599 8.69721 14.33 8.77221 14.4159L8.77227 14.416L8.78907 14.4352L8.78918 14.4353C8.86449 14.5211 8.92216 14.6208 8.9589 14.7289C8.99564 14.837 9.01073 14.9512 9.00331 15.0651C8.99588 15.179 8.96609 15.2903 8.91564 15.3927C8.86518 15.4951 8.79505 15.5865 8.70925 15.6618L8.70923 15.6618L7.15526 17.0258C7.15517 17.0259 7.15508 17.026 7.15499 17.0261C7.06742 17.1018 6.96569 17.1594 6.85571 17.1956C6.74561 17.2318 6.62942 17.2457 6.51388 17.2367C6.39834 17.2277 6.28574 17.1958 6.18261 17.1429C6.07948 17.09 5.98788 17.0172 5.91311 16.9286L5.91313 16.9286L5.91183 16.9271C5.83653 16.8414 5.77886 16.7416 5.74212 16.6335C5.70538 16.5255 5.69029 16.4112 5.69771 16.2973C5.70514 16.1834 5.73493 16.0721 5.78538 15.9697C5.83584 15.8673 5.90597 15.7759 5.99177 15.7006L5.99179 15.7006L7.5463 14.3361L7.54636 14.3361C7.70378 14.1977 7.9062 14.1214 8.11576 14.1214Z" fill="#F0792E" stroke="#F0792E" stroke-width="0.2"/>
<path d="M5.36227 15.638L5.36267 15.6383C5.44772 15.7024 5.54847 15.7415 5.65368 15.7519L5.65763 15.7582L5.71346 15.7586C5.83578 15.7593 5.95521 15.7215 6.05477 15.6504C6.15433 15.5793 6.22893 15.4786 6.26796 15.3627C6.30699 15.2468 6.30845 15.1215 6.27216 15.0047C6.23589 14.888 6.16378 14.7857 6.06607 14.7123C6.06597 14.7122 6.06587 14.7122 6.06578 14.7121L4.4264 13.4647L4.42639 13.4647C4.36562 13.4185 4.29634 13.3846 4.2225 13.3652C4.14866 13.3457 4.07172 13.341 3.99606 13.3513C3.84325 13.3721 3.70496 13.4527 3.6116 13.5754C3.56537 13.6362 3.53156 13.7055 3.51211 13.7793C3.49266 13.8532 3.48794 13.9301 3.49822 14.0058C3.50851 14.0814 3.5336 14.1543 3.57205 14.2203C3.6105 14.2862 3.66157 14.344 3.72234 14.3902C3.72234 14.3902 3.72235 14.3902 3.72235 14.3902L5.36227 15.638Z" fill="#F0792E" stroke="#F0792E" stroke-width="0.2"/>
<path d="M27.8092 16.2863L27.8094 16.2863C27.8858 16.2861 27.9615 16.2709 28.032 16.2414C28.1025 16.212 28.1665 16.169 28.2203 16.1149C28.2204 16.1148 28.2204 16.1148 28.2205 16.1148L30.9132 13.4221L30.9132 13.4221L30.9144 13.4208C31.0203 13.3112 31.0789 13.1643 31.0776 13.0119C31.0762 12.8594 31.0151 12.7136 30.9073 12.6058C30.7995 12.498 30.6537 12.4369 30.5013 12.4355C30.3488 12.4342 30.202 12.4928 30.0923 12.5987L30.0923 12.5987L30.091 12.6L27.3981 15.2938C27.3981 15.2938 27.3981 15.2938 27.3981 15.2938C27.3168 15.3752 27.2615 15.4787 27.2391 15.5915C27.2166 15.7043 27.2282 15.8211 27.2722 15.9274C27.3161 16.0336 27.3906 16.1244 27.4862 16.1883C27.5818 16.2521 27.6942 16.2862 27.8092 16.2863Z" fill="#F0792E" stroke="#F0792E" stroke-width="0.2"/>
<path d="M31.481 15.2904C31.5802 15.2909 31.6779 15.2659 31.7646 15.2177L31.7651 15.2174L34.5635 13.6448L34.5139 13.5563L34.5636 13.6447L34.5635 13.6447C34.6735 13.5831 34.7604 13.4874 34.8113 13.3721C34.8621 13.2568 34.8741 13.1281 34.8455 13.0054C34.8454 13.0053 34.8454 13.0053 34.8454 13.0052L31.9914 0.552805L31.9914 0.552784C31.9695 0.457639 31.9241 0.369523 31.8592 0.296561C31.7944 0.223599 31.7122 0.168138 31.6203 0.135295C31.5284 0.102452 31.4297 0.0932846 31.3333 0.108637C31.2368 0.123989 31.1459 0.163366 31.0687 0.223138L31.1308 0.303346L31.0687 0.223138L25.2649 4.71819C25.1515 4.80593 25.0746 4.93245 25.0488 5.07345C25.0231 5.21445 25.0503 5.35999 25.1253 5.48213L25.1254 5.48218L30.9854 15.0137L30.9854 15.0137C31.0375 15.0984 31.1104 15.1683 31.1972 15.2167C31.284 15.2651 31.3816 15.2905 31.481 15.2904ZM31.481 15.2904C31.4808 15.2904 31.4807 15.2904 31.4806 15.2904L31.4812 15.189L31.4813 15.2904C31.4812 15.2904 31.4811 15.2904 31.481 15.2904ZM31.0616 1.69932L33.6153 12.8412L31.683 13.9273L26.3893 5.3172L31.0616 1.69932Z" fill="#F0792E" stroke="#F0792E" stroke-width="0.2"/>
<path d="M2.97146 0.725681L2.97146 0.725667C2.99329 0.630523 3.03872 0.542406 3.10357 0.469444C3.16842 0.396481 3.25059 0.341021 3.34252 0.308178C3.43444 0.275336 3.53316 0.266167 3.62956 0.281519C3.72596 0.296871 3.81694 0.336247 3.89411 0.396016C3.89412 0.396018 3.89412 0.396019 3.89412 0.396021L9.69843 4.8906L9.69844 4.8906L2.97146 0.725681ZM2.97146 0.725681L0.116906 13.1767C0.11689 13.1768 0.116874 13.1768 0.116858 13.1769C0.0882288 13.2996 0.100232 13.4283 0.151063 13.5435C0.201922 13.6589 0.288896 13.7546 0.398877 13.8162L3.1973 15.3865M2.97146 0.725681L3.1973 15.3865M3.1973 15.3865C3.28408 15.4352 3.38191 15.4608 3.48143 15.4609L3.1973 15.3865ZM8.57353 5.49008L3.27977 14.1007L1.34755 13.0151L3.90118 1.8722L8.57353 5.49008Z" fill="#F0792E" stroke="#F0792E" stroke-width="0.2"/>
</svg>
