<svg width="35" height="24" viewBox="0 0 35 24" fill="none" xmlns="http://www.w3.org/2000/svg">
<path d="M8.82492 5.5921L8.82492 5.5921C11.1741 5.56585 13.5183 5.36749 15.8385 4.99859C15.8878 4.98853 15.9383 4.98514 15.9886 4.98852M8.82492 5.5921L15.9824 5.08978M8.82492 5.5921L8.82428 5.59211C8.67009 5.59481 8.52328 5.65865 8.41616 5.76959C8.30904 5.88052 8.25038 6.02947 8.25308 6.18366C8.25577 6.33785 8.31961 6.48465 8.43055 6.59178C8.48548 6.64482 8.55032 6.68652 8.62137 6.7145C8.69212 6.74237 8.76766 6.75609 8.84369 6.75488M8.82492 5.5921L8.84285 6.65343M15.9886 4.98852C15.9888 4.98853 15.9891 4.98855 15.9894 4.98857L15.9824 5.08978M15.9886 4.98852C15.9883 4.9885 15.988 4.98849 15.9878 4.98847L15.9824 5.08978M15.9886 4.98852C16.5884 5.02037 17.1704 5.20395 17.6799 5.52206L17.686 5.52584L17.6859 5.52604C17.7849 5.59801 17.8587 5.69941 17.8968 5.8158C17.9348 5.93218 17.9351 6.05761 17.8977 6.17418C17.8602 6.29076 17.7869 6.39254 17.6882 6.46501C17.5896 6.53748 17.4705 6.57695 17.3481 6.57778L17.3474 6.57778C17.214 6.57776 17.0845 6.53294 16.9798 6.45065M15.9824 5.08978C16.5654 5.12061 17.131 5.29896 17.6262 5.60812C17.708 5.66753 17.7689 5.75124 17.8003 5.84731C17.8317 5.94339 17.832 6.04693 17.8011 6.14316C17.7702 6.23939 17.7097 6.32341 17.6282 6.38324C17.5467 6.44307 17.4484 6.47564 17.3474 6.47633C17.2343 6.47631 17.1247 6.43751 17.0369 6.36642M16.9798 6.45065C16.982 6.45191 16.9842 6.45317 16.9864 6.45444L17.0369 6.36642M16.9798 6.45065C16.9775 6.44888 16.9753 6.4471 16.973 6.4453L17.0369 6.36642M16.9798 6.45065C16.6747 6.27715 16.3339 6.17599 15.9836 6.15493M17.0369 6.36642C16.7133 6.18099 16.3509 6.07367 15.9786 6.05302M15.9786 6.05302L15.9943 6.15324C15.9908 6.15381 15.9872 6.15437 15.9836 6.15493M15.9786 6.05302C13.6216 6.42334 11.2411 6.62399 8.85533 6.65343H8.84285M15.9786 6.05302L15.973 6.15432C15.9765 6.15451 15.9801 6.15472 15.9836 6.15493M15.9836 6.15493C13.6253 6.52492 11.2435 6.72542 8.85658 6.75487L8.85533 6.75489V6.75488H8.84369M8.84369 6.75488C8.844 6.75487 8.84431 6.75487 8.84463 6.75486L8.84285 6.65343M8.84369 6.75488H8.84285V6.65343" fill="#F0792E" stroke="#F0792E" stroke-width="0.2"/>
<path d="M14.0716 8.51307C14.0511 8.50028 14.0345 8.48209 14.0236 8.46051C14.0128 8.43892 14.0081 8.41476 14.0101 8.39069L19.8289 8.25054C19.7536 8.18916 19.6614 8.15207 19.5646 8.14418C19.4678 8.1363 19.3708 8.15799 19.2866 8.20639C16.8096 9.62941 15.0794 9.15715 14.0716 8.51307ZM14.0716 8.51307L14.0716 8.51307L14.0716 8.51307ZM26.3989 18.1725C25.9684 18.1731 25.5487 18.0371 25.2002 17.7843L25.0988 17.7139C25.0986 17.7138 25.0985 17.7137 25.0983 17.7136C25.0805 17.7015 25.0562 17.6818 25.0335 17.6601L19.391 13.5966C19.3276 13.5531 19.2734 13.4974 19.2316 13.4329C19.1896 13.3679 19.161 13.2952 19.1474 13.2191C19.1339 13.1429 19.1357 13.0648 19.1527 12.9893C19.1697 12.9139 19.2016 12.8426 19.2465 12.7796C19.2914 12.7166 19.3484 12.6632 19.4142 12.6226C19.48 12.5819 19.5533 12.5548 19.6297 12.5428C19.7061 12.5308 19.7842 12.5342 19.8593 12.5527C19.934 12.5712 20.0044 12.6043 20.0662 12.6502L20.4493 12.9232L20.4498 12.9235L25.7361 16.7355L28.3676 15.5415L28.2701 15.5696L28.3675 15.5414C28.4582 15.8542 28.4734 16.184 28.412 16.5038C28.3506 16.8236 28.2142 17.1244 28.0142 17.3813M26.3989 18.1725C26.3988 18.1725 26.3987 18.1725 26.3986 18.1725L26.3988 18.0711L26.3989 18.1725ZM26.3989 18.1725C26.7108 18.1731 27.0186 18.1021 27.2986 17.9649C27.5787 17.8277 27.8235 17.6281 28.0142 17.3813M28.0142 17.3813C28.0142 17.3812 28.0143 17.3811 28.0144 17.381L27.9341 17.319L28.0142 17.3813ZM27.6964 14.5308L19.893 8.17191C19.8018 8.09754 19.6901 8.05262 19.5728 8.04307C19.4555 8.03352 19.3381 8.05979 19.236 8.11842C18.0109 8.82224 16.9773 9.05366 16.1306 9.03347C15.2838 9.01328 14.6171 8.74131 14.1262 8.42758L14.1262 8.42758L14.1253 8.42701C14.1206 8.42408 14.1168 8.41993 14.1143 8.41499C14.1118 8.41006 14.1108 8.40454 14.1112 8.39904L14.1114 8.39905L14.1115 8.39352C14.1118 8.38566 14.1141 8.37801 14.1185 8.37143C14.1228 8.36485 14.1288 8.35959 14.1359 8.35623L14.136 8.35634L14.1403 8.35406L18.4661 6.05678C18.4661 6.05675 18.4662 6.05671 18.4663 6.05668C18.6168 5.97755 18.7815 5.92895 18.9509 5.91369C19.1201 5.89843 19.2908 5.91677 19.453 5.96765C19.4531 5.9677 19.4533 5.96774 19.4534 5.96779L22.0083 6.79718C22.0083 6.79721 22.0084 6.79723 22.0085 6.79725C23.0015 7.12414 24.0787 7.08509 25.0455 6.68717C25.0455 6.68716 25.0456 6.68714 25.0456 6.68713L26.1589 6.23126L26.1589 6.23124C26.2296 6.20227 26.2938 6.15966 26.348 6.10585C26.4022 6.05204 26.4453 5.98809 26.4748 5.91764C26.5042 5.84719 26.5195 5.77162 26.5198 5.69526C26.5201 5.61889 26.5053 5.54322 26.4763 5.47256C26.4474 5.4019 26.4048 5.33764 26.351 5.28345L26.279 5.35493L26.351 5.28345C26.2972 5.22926 26.2332 5.1862 26.1627 5.15672C26.0923 5.12725 26.0167 5.11193 25.9404 5.11166C25.864 5.11139 25.7884 5.12616 25.7177 5.15512C25.7177 5.15513 25.7177 5.15513 25.7177 5.15514L24.6033 5.61154L24.6032 5.61158C23.8921 5.90373 23.1 5.93227 22.3697 5.69208L22.3693 5.69196L19.8108 4.86166L19.8108 4.86166L19.8102 4.86146C19.5004 4.76317 19.1743 4.72717 18.8506 4.75552C18.5269 4.78387 18.212 4.87602 17.924 5.02664L17.9235 5.02694L13.5991 7.32349C13.599 7.32356 13.5988 7.32363 13.5987 7.32371C13.4119 7.42078 13.2537 7.56509 13.14 7.74228C13.0262 7.91961 12.9609 8.12367 12.9506 8.33411C12.9402 8.54455 12.9852 8.75403 13.0811 8.94166C13.177 9.12928 13.3203 9.2885 13.4969 9.40344L13.4976 9.4039C14.4943 10.0408 16.5618 10.8327 19.4621 9.31896L26.9663 15.4328L26.9664 15.4328C27.104 15.5447 27.2037 15.6963 27.2519 15.8669L27.2519 15.8669L27.2523 15.8681C27.2925 16.004 27.2994 16.1474 27.2725 16.2865C27.2457 16.4255 27.1858 16.5559 27.0979 16.6669C26.9543 16.8467 26.7471 16.9644 26.5192 16.996C26.2913 17.0275 26.0599 16.9703 25.8729 16.8363L25.8717 16.8355L25.7857 16.7756C25.77 16.7613 25.7535 16.748 25.7363 16.7357L27.6964 14.5308Z" fill="#F0792E" stroke="#F0792E" stroke-width="0.2"/>
<path d="M18.0297 16.3348L18.0297 16.3348L18.0311 16.3358L23.2192 20.017C23.5508 20.2524 23.9443 20.3841 24.3499 20.3962L24.3508 20.3981L24.4136 20.398C24.8507 20.3976 25.2764 20.2587 25.6297 20.0014C25.983 19.744 26.2457 19.3814 26.3802 18.9656C26.5147 18.5497 26.5141 18.1019 26.3784 17.6864C26.2427 17.2709 25.9789 16.9091 25.6249 16.6528L25.6247 16.6527L20.4524 12.9254L20.4525 12.9253L20.4476 12.9222C20.3223 12.8424 20.1713 12.8136 20.0254 12.8417C19.8796 12.8698 19.7501 12.9526 19.6633 13.0731C19.5766 13.1937 19.5393 13.3428 19.5591 13.49C19.5789 13.6372 19.6542 13.7712 19.7697 13.8646L19.7696 13.8647L19.7741 13.868L24.9434 17.5936C25.1269 17.7374 25.248 17.9464 25.2815 18.1772C25.315 18.4086 25.2578 18.644 25.1219 18.8342C24.9859 19.0244 24.7817 19.1548 24.5519 19.198C24.3227 19.2411 24.0858 19.1942 23.8903 19.0671L18.7038 15.3876L18.7038 15.3876L18.7024 15.3866C18.5765 15.3005 18.4219 15.2674 18.2719 15.2942C18.1218 15.321 17.9883 15.4058 17.9 15.5301C17.8118 15.6545 17.776 15.8085 17.8003 15.959C17.8245 16.1095 17.9069 16.2445 18.0297 16.3348Z" fill="#F0792E" stroke="#F0792E" stroke-width="0.2"/>
<path d="M17.0475 17.7862L17.0475 17.7862L21.6966 21.0066C21.7878 21.0696 21.8904 21.1141 21.9988 21.1374C22.1071 21.1608 22.2189 21.1626 22.328 21.1427C22.437 21.1228 22.541 21.0816 22.6341 21.0215C22.7271 20.9614 22.8074 20.8836 22.8704 20.7925C22.9958 20.6097 23.0444 20.385 23.006 20.1667C22.9675 19.9483 22.845 19.7538 22.6647 19.6248C22.6647 19.6248 22.6646 19.6248 22.6646 19.6247L18.039 16.3436C17.9756 16.3001 17.9214 16.2445 17.8797 16.1799C17.8378 16.1151 17.8092 16.0426 17.7956 15.9666C17.782 15.8906 17.7836 15.8127 17.8005 15.7373C17.8173 15.662 17.849 15.5908 17.8937 15.5278C17.9383 15.4648 17.9951 15.4114 18.0606 15.3706C18.1262 15.3298 18.1992 15.3025 18.2754 15.2902C18.3516 15.2779 18.4295 15.2809 18.5045 15.2991C18.5792 15.3172 18.6496 15.3499 18.7116 15.3953L23.3376 18.6767L23.3379 18.6769C23.7667 18.9834 24.0583 19.4458 24.1498 19.9649C24.2414 20.4841 24.1257 21.0184 23.8276 21.4531C23.6786 21.6705 23.4879 21.8561 23.2667 21.9994C23.0455 22.1426 22.798 22.2405 22.5387 22.2875C22.4178 22.3095 22.2953 22.3205 22.1725 22.3203M17.0475 17.7862L22.1726 22.2188M17.0475 17.7862C16.9207 17.6984 16.7642 17.6646 16.6124 17.6921C16.4607 17.7197 16.3261 17.8065 16.2383 17.9333C16.1505 18.0601 16.1166 18.2166 16.1442 18.3684C16.1718 18.5201 16.2585 18.6547 16.3853 18.7425L16.4431 18.6591L16.3854 18.7425L21.0343 21.9628L17.0475 17.7862ZM22.1725 22.3203L22.1726 22.2188M22.1725 22.3203C22.1725 22.3203 22.1725 22.3203 22.1726 22.3203L22.1726 22.2188M22.1725 22.3203C21.7655 22.3201 21.3684 22.1954 21.0344 21.9628L21.0345 21.9629L21.0923 21.8795C21.4093 22.1003 21.7863 22.2187 22.1726 22.2188" fill="#F0792E" stroke="#F0792E" stroke-width="0.2"/>
<path d="M19.4301 23.8955L19.4301 23.8986C19.0767 23.8968 18.7298 23.8024 18.4242 23.6248C18.4242 23.6248 18.4241 23.6247 18.4241 23.6247L15.8437 22.1371L15.8431 22.1367C15.7107 22.0591 15.6143 21.9322 15.5751 21.7837C15.5358 21.6353 15.5569 21.4774 15.6336 21.3444C15.7104 21.2115 15.8367 21.1143 15.9848 21.0741C16.133 21.0338 16.291 21.0539 16.4245 21.1297L16.425 21.13L19.0044 22.6174C19.0045 22.6175 19.0046 22.6175 19.0048 22.6176C19.1998 22.7275 19.43 22.7569 19.6464 22.6996C19.8628 22.6422 20.0483 22.5025 20.1631 22.3102C20.2719 22.1264 20.3065 21.9079 20.2598 21.6995C20.2131 21.4909 20.0886 21.3081 19.9117 21.1882L19.9108 21.1876L19.9109 21.1876L16.6137 18.9035L16.6137 18.9035C16.5509 18.8601 16.4973 18.8046 16.456 18.7405C16.4146 18.6763 16.3863 18.6046 16.3727 18.5294C16.3591 18.4543 16.3604 18.3772 16.3765 18.3026C16.3927 18.228 16.4234 18.1573 16.4669 18.0945C16.5103 18.0318 16.5658 17.9782 16.6299 17.9369C16.6941 17.8955 16.7658 17.8672 16.841 17.8536C16.9161 17.84 16.9932 17.8413 17.0678 17.8574C17.1424 17.8736 17.2131 17.9043 17.2759 17.9477L19.4301 23.8955ZM19.4301 23.8955L19.4301 23.8986H19.4303L19.4301 23.8955ZM20.5725 20.2313L17.2759 17.9477L19.4306 23.8986C19.8591 23.8978 20.2763 23.7603 20.6212 23.506C20.9662 23.2516 21.221 22.8937 21.3485 22.4845C21.476 22.0752 21.4695 21.636 21.3299 21.2307C21.1903 20.8254 20.925 20.4753 20.5726 20.2313C20.5726 20.2313 20.5725 20.2313 20.5725 20.2313Z" fill="#F0792E" stroke="#F0792E" stroke-width="0.2"/>
<path d="M12.6545 20.0536L12.6545 20.0536L13.9363 18.9306L13.9364 18.9305L12.6545 20.0536ZM12.6545 20.0536C12.3437 20.326 12.1234 20.6868 12.0231 21.0877C11.9227 21.4886 11.9471 21.9106 12.093 22.2973C12.2388 22.684 12.4991 23.0171 12.8392 23.2519C13.1792 23.4867 13.5828 23.6122 13.996 23.6116M12.6545 20.0536L15.3348 23.1098M15.3348 23.1098L15.3348 23.1098C14.9644 23.4344 14.4884 23.6127 13.996 23.6116M15.3348 23.1098L16.6167 21.9843L15.3348 23.1098ZM13.996 23.6116C13.996 23.6116 13.9959 23.6116 13.9958 23.6116L13.9961 23.5101L13.9962 23.6116C13.9962 23.6116 13.9961 23.6116 13.996 23.6116ZM15.2758 19.5882L15.276 19.5882C15.4524 19.5884 15.6245 19.6424 15.7695 19.7428C15.9145 19.8432 16.0255 19.9855 16.0877 20.1505C16.1499 20.3156 16.1603 20.4957 16.1177 20.6668C16.075 20.838 15.9812 20.9921 15.8488 21.1087L14.567 22.234C14.567 22.234 14.567 22.234 14.567 22.234C14.4812 22.3093 14.3814 22.3669 14.2734 22.4036C14.1653 22.4403 14.0511 22.4554 13.9372 22.4479C13.7073 22.4329 13.4927 22.3271 13.3407 22.1539C13.2654 22.0681 13.2078 21.9683 13.1711 21.8602C13.1344 21.7522 13.1193 21.638 13.1268 21.5241C13.1342 21.4102 13.164 21.2989 13.2145 21.1966C13.2649 21.0942 13.335 21.0028 13.4208 20.9275C13.4208 20.9275 13.4208 20.9275 13.4208 20.9275L14.7032 19.803L14.7032 19.803C14.8616 19.6641 15.0652 19.5877 15.2758 19.5882Z" fill="#F0792E" stroke="#F0792E" stroke-width="0.2"/>
<path d="M14.8071 17.1109C14.9592 17.2978 15.0769 17.5104 15.1546 17.7388C15.2406 17.9915 15.2759 18.2585 15.2586 18.5248C15.2413 18.7911 15.1717 19.0513 15.0538 19.2907C14.9358 19.5301 14.7719 19.7439 14.5713 19.9199L14.5713 19.9199L12.4282 21.7996C12.4281 21.7996 12.4281 21.7997 12.428 21.7997C12.0588 22.1257 11.583 22.3052 11.0905 22.3044M14.8071 17.1109L11.0906 22.203C11.0479 22.203 11.0052 22.203 10.9625 22.1991M14.8071 17.1109L14.8084 17.1097L14.7443 17.0367C14.7358 17.027 14.7273 17.0175 14.7186 17.008M14.8071 17.1109L14.7186 17.008M11.0905 22.3044L11.0906 22.203V22.3044H11.0905ZM11.0905 22.3044H11.0887C11.0476 22.3044 11.0016 22.3044 10.9548 22.3003M10.9548 22.3003C10.9552 22.3003 10.9557 22.3004 10.9561 22.3004L10.9625 22.1991M10.9548 22.3003C10.6888 22.2835 10.4287 22.2142 10.1895 22.0964C9.95013 21.9786 9.73643 21.8144 9.56078 21.6135C9.38253 21.4131 9.24558 21.1794 9.1578 20.9259C9.06998 20.6723 9.0331 20.4038 9.04929 20.1359C9.06548 19.868 9.13442 19.6059 9.25215 19.3647C9.36988 19.1235 9.53408 18.908 9.73533 18.7304L9.73553 18.7302L11.877 16.8503C11.877 16.8503 11.877 16.8503 11.877 16.8503C12.0775 16.6743 12.3107 16.5394 12.5634 16.4535C12.816 16.3676 13.083 16.3323 13.3493 16.3497C13.6155 16.367 13.8758 16.4365 14.1151 16.5544C14.3303 16.6604 14.5249 16.8036 14.6899 16.9771L14.6908 16.9763L14.7186 17.008M10.9548 22.3003C10.9543 22.3003 10.9539 22.3002 10.9534 22.3002L10.9625 22.1991M10.9625 22.1991L14.7186 17.008M13.2753 17.5097C13.3883 17.5168 13.4989 17.5462 13.6006 17.5961C13.7025 17.6461 13.7936 17.7158 13.8686 17.8012L13.8686 17.8012L13.8825 17.817C13.9578 17.9028 14.0155 18.0026 14.0522 18.1107C14.089 18.2187 14.104 18.333 14.0966 18.4469C14.0892 18.5608 14.0594 18.6721 14.0089 18.7745C13.9585 18.8769 13.8884 18.9683 13.8026 19.0436L13.8025 19.0436L11.661 20.9235L11.6606 20.9239C11.5753 20.9997 11.4758 21.0577 11.3678 21.0945C11.2598 21.1314 11.1456 21.1463 11.0318 21.1385C10.859 21.1263 10.6937 21.0636 10.5562 20.9582C10.4188 20.8527 10.3154 20.7091 10.2589 20.5453C10.2024 20.3815 10.1954 20.2047 10.2386 20.0369C10.2818 19.8694 10.3732 19.7182 10.5015 19.6021L12.6425 17.7227L12.6426 17.7226C12.7926 17.5906 12.9837 17.5151 13.1829 17.5084H13.2139C13.2337 17.5084 13.2545 17.5088 13.2753 17.5097Z" fill="#F0792E" stroke="#F0792E" stroke-width="0.2"/>
<path d="M7.13742 19.8498L7.13743 19.8498L7.08583 19.7883C6.73125 19.3834 6.55181 18.8543 6.58693 18.3172C6.62207 17.7797 6.8692 17.2782 7.27399 16.9228L9.7567 14.7434C9.95718 14.5673 10.1904 14.4325 10.443 14.3465C10.6956 14.2606 10.9627 14.2253 11.229 14.2426C11.4953 14.2599 11.7555 14.3295 11.9949 14.4474C12.2343 14.5654 12.448 14.7293 12.624 14.9299L12.6241 14.9299L12.6783 14.9918C13.0335 15.3967 13.2133 15.9262 13.1781 16.4638C13.143 17.0013 12.8958 17.5028 12.4909 17.8581L10.0084 20.0373C10.0083 20.0373 10.0083 20.0374 10.0083 20.0374C9.63853 20.3639 9.16198 20.5437 8.6687 20.5426M7.13742 19.8498L8.66891 20.4412M7.13742 19.8498L7.13879 19.8514C7.31449 20.0525 7.5283 20.2167 7.76784 20.3347C8.007 20.4524 8.26708 20.5217 8.53312 20.5385M7.13742 19.8498L8.54077 20.4374M8.6687 20.5426L8.66891 20.4412M8.6687 20.5426H8.66891V20.4412M8.6687 20.5426H8.66709C8.62637 20.5427 8.58035 20.5427 8.53312 20.5385M8.66891 20.4412C8.62668 20.4412 8.58396 20.4412 8.54077 20.4374M8.53312 20.5385C8.53356 20.5386 8.53399 20.5386 8.53443 20.5386L8.54077 20.4374M8.53312 20.5385C8.53267 20.5385 8.53223 20.5385 8.53179 20.5384L8.54077 20.4374M11.0938 15.4015H11.094C11.1125 15.4015 11.1307 15.4024 11.1507 15.4041L11.1507 15.4041L11.1531 15.4042C11.2668 15.4113 11.3779 15.4408 11.4802 15.491C11.5824 15.5413 11.6736 15.6113 11.7486 15.6971L11.8019 15.758L11.802 15.7582C11.8773 15.8439 11.935 15.9437 11.9717 16.0518C12.0085 16.1599 12.0236 16.2741 12.0162 16.388C12.0087 16.5019 11.9789 16.6132 11.9285 16.7156C11.878 16.818 11.8079 16.9094 11.7221 16.9847L11.7221 16.9847L9.23935 19.1641C9.06619 19.3161 8.8398 19.3931 8.6099 19.3783C8.37999 19.3635 8.16537 19.258 8.01316 19.0851L7.95909 19.0233L7.95905 19.0233C7.80694 18.8498 7.72996 18.6231 7.74503 18.3929C7.76011 18.1627 7.866 17.9479 8.03942 17.7957L8.03945 17.7957L10.5222 15.6163L10.5222 15.6162C10.6802 15.4774 10.8835 15.401 11.0938 15.4015ZM11.1593 15.303C11.1368 15.301 11.1156 15.3001 11.094 15.3001L11.825 15.6303C11.7412 15.5344 11.6392 15.4562 11.5249 15.4C11.4107 15.3438 11.2864 15.3108 11.1593 15.303Z" fill="#F0792E" stroke="#F0792E" stroke-width="0.2"/>
<path d="M5.22379 14.8285L5.224 14.8283L6.7785 13.4639C6.77851 13.4639 6.77851 13.4639 6.77852 13.4639C6.979 13.2878 7.2122 13.1529 7.46481 13.067C7.71744 12.9811 7.98451 12.9457 8.25079 12.963C8.51707 12.9804 8.77732 13.05 9.01669 13.1679C9.25606 13.2858 9.46985 13.4497 9.64584 13.6503L9.64594 13.6504L9.66261 13.6695C9.8387 13.8699 9.97357 14.1032 10.0595 14.3558C10.1454 14.6084 10.1808 14.8755 10.1635 15.1418C10.1461 15.408 10.0765 15.6683 9.95862 15.9077C9.8407 16.147 9.67678 16.3608 9.47621 16.5368C9.47621 16.5368 9.4762 16.5368 9.4762 16.5368L7.9219 17.9011C7.92184 17.9011 7.92177 17.9012 7.92171 17.9012L7.92169 17.9013L5.22379 14.8285ZM5.22379 14.8285C4.92074 15.096 4.70378 15.4473 4.60033 15.838C4.49689 16.2288 4.5116 16.6414 4.64261 17.0238C4.77362 17.4062 5.01504 17.7411 5.33638 17.9863C5.65721 18.2312 6.04332 18.3755 6.44605 18.4013C6.49324 18.4059 6.54002 18.4059 6.58039 18.4059H6.58219H6.58244V18.3045L5.22379 14.8285ZM8.11585 14.1215V14.1215C8.12848 14.1215 8.1398 14.1218 8.15295 14.1222C8.16059 14.1224 8.16884 14.1227 8.17831 14.1229C8.29142 14.1301 8.40199 14.1596 8.5037 14.2097C8.606 14.26 8.6973 14.3302 8.7723 14.416L8.77237 14.4161L8.78916 14.4353L8.78928 14.4354C8.86458 14.5212 8.92225 14.621 8.95899 14.729C8.99573 14.8371 9.01082 14.9514 9.0034 15.0653C8.99598 15.1792 8.96619 15.2905 8.91573 15.3929C8.86527 15.4953 8.79514 15.5867 8.70934 15.662L8.70932 15.662L7.15533 17.026C7.15524 17.0261 7.15515 17.0262 7.15506 17.0262C7.06749 17.102 6.96577 17.1596 6.85578 17.1957C6.74568 17.2319 6.62949 17.2459 6.51395 17.2369C6.3984 17.2278 6.2858 17.1959 6.18267 17.1431C6.07955 17.0902 5.98794 17.0173 5.91317 16.9288L5.91319 16.9288L5.9119 16.9273C5.83659 16.8415 5.77892 16.7418 5.74218 16.6337C5.70544 16.5256 5.69035 16.4114 5.69777 16.2975C5.7052 16.1836 5.73499 16.0723 5.78544 15.9699C5.8359 15.8675 5.90603 15.776 5.99183 15.7008L5.99185 15.7007L7.54637 14.3363L7.54644 14.3362C7.70386 14.1978 7.90628 14.1215 8.11585 14.1215Z" fill="#F0792E" stroke="#F0792E" stroke-width="0.2"/>
<path d="M5.36233 15.6383L5.36273 15.6386C5.44778 15.7027 5.54853 15.7418 5.65374 15.7522L5.65769 15.7585L5.71352 15.7589C5.83584 15.7596 5.95527 15.7217 6.05483 15.6507C6.15439 15.5796 6.22899 15.4789 6.26802 15.363C6.30705 15.2471 6.30852 15.1218 6.27222 15.005C6.23596 14.8883 6.16384 14.786 6.06613 14.7126C6.06603 14.7125 6.06594 14.7124 6.06584 14.7124L4.42645 13.465L4.42644 13.4649C4.36567 13.4187 4.29638 13.3849 4.22254 13.3655C4.14871 13.346 4.07176 13.3413 3.9961 13.3516C3.84329 13.3723 3.705 13.453 3.61164 13.5757C3.56541 13.6365 3.5316 13.7058 3.51215 13.7796C3.4927 13.8534 3.48798 13.9304 3.49826 14.006C3.50855 14.0817 3.53363 14.1546 3.57209 14.2206C3.61054 14.2865 3.66161 14.3443 3.72238 14.3905C3.72238 14.3905 3.72238 14.3905 3.72239 14.3905L5.36233 15.6383Z" fill="#F0792E" stroke="#F0792E" stroke-width="0.2"/>
<path d="M27.8095 16.2866L27.8097 16.2866C27.8861 16.2864 27.9618 16.2712 28.0323 16.2417C28.1028 16.2123 28.1668 16.1693 28.2206 16.1152C28.2207 16.1151 28.2207 16.1151 28.2207 16.1151L30.9135 13.4223L30.9135 13.4223L30.9147 13.4211C31.0206 13.3114 31.0792 13.1646 31.0779 13.0121C31.0766 12.8597 31.0154 12.7139 30.9076 12.6061C30.7998 12.4983 30.654 12.4371 30.5016 12.4358C30.3491 12.4345 30.2023 12.4931 30.0926 12.599L30.0926 12.599L30.0913 12.6002L27.3984 15.2941C27.3984 15.2941 27.3984 15.2941 27.3984 15.2941C27.3171 15.3754 27.2618 15.479 27.2394 15.5918C27.2169 15.7045 27.2284 15.8214 27.2724 15.9276C27.3164 16.0339 27.3909 16.1247 27.4865 16.1885C27.5821 16.2524 27.6945 16.2865 27.8095 16.2866Z" fill="#F0792E" stroke="#F0792E" stroke-width="0.2"/>
<path d="M31.4813 15.2906C31.5805 15.2911 31.6782 15.266 31.765 15.2179L31.7654 15.2176L34.5638 13.6449L34.5142 13.5564L34.5639 13.6448L34.5639 13.6449C34.6738 13.5832 34.7608 13.4876 34.8116 13.3722C34.8625 13.2569 34.8745 13.1282 34.8458 13.0055C34.8458 13.0055 34.8458 13.0054 34.8458 13.0054L31.9917 0.55281L31.9917 0.552789C31.9699 0.457644 31.9244 0.369527 31.8596 0.296564C31.7947 0.223601 31.7125 0.16814 31.6206 0.135297C31.5287 0.102453 31.43 0.0932856 31.3336 0.108638C31.2372 0.12399 31.1462 0.163368 31.069 0.223141L31.1311 0.303349L31.069 0.223141L25.2651 4.71824C25.1518 4.80598 25.0749 4.9325 25.0491 5.0735C25.0233 5.2145 25.0506 5.36005 25.1256 5.48219L25.1256 5.48224L30.9857 15.0138L30.9857 15.0139C31.0378 15.0985 31.1107 15.1685 31.1976 15.2169C31.2843 15.2653 31.382 15.2907 31.4813 15.2906ZM31.4813 15.2906C31.4812 15.2906 31.481 15.2906 31.4809 15.2906L31.4815 15.1891L31.4816 15.2906C31.4815 15.2906 31.4814 15.2906 31.4813 15.2906ZM31.062 1.69933L33.6156 12.8414L31.6834 13.9275L26.3896 5.31725L31.062 1.69933Z" fill="#F0792E" stroke="#F0792E" stroke-width="0.2"/>
<path d="M2.97149 0.725565L2.97149 0.72555C2.99332 0.630405 3.03875 0.542288 3.1036 0.469325C3.16845 0.396361 3.25063 0.340901 3.34255 0.308058C3.43448 0.275215 3.5332 0.266046 3.6296 0.281398C3.726 0.29675 3.81698 0.336127 3.89415 0.395896C3.89416 0.395898 3.89416 0.3959 3.89416 0.395902L9.69853 4.89052L9.69854 4.89053L2.97149 0.725565ZM2.97149 0.725565L0.116907 13.1767C0.116891 13.1768 0.116875 13.1768 0.116859 13.1769C0.0882297 13.2996 0.100233 13.4283 0.151064 13.5436C0.201924 13.6589 0.288899 13.7546 0.398881 13.8162L3.19733 15.3865M2.97149 0.725565L3.19733 15.3865M3.19733 15.3865C3.28412 15.4353 3.38195 15.4609 3.48147 15.461L3.19733 15.3865ZM8.57362 5.49001L3.2798 14.1007L1.34756 13.0151L3.90122 1.8721L8.57362 5.49001Z" fill="#F0792E" stroke="#F0792E" stroke-width="0.2"/>
</svg>
