<svg width="42" height="89" viewBox="0 0 42 89" fill="none" xmlns="http://www.w3.org/2000/svg">
<path d="M22.8108 55.7339C22.7264 59.1644 24.4284 58.9005 24.4284 58.9005C24.6053 58.5048 24.8191 58.1267 25.067 57.7711C25.9589 56.4015 27.3232 54.4805 26.8113 53.3431C26.4767 52.6633 26.0958 52.0074 25.6713 51.3798C24.7609 49.9839 23.7133 48.5695 23.7133 48.5695L28.2547 47.8174C28.2547 47.8174 31.4899 49.1553 34.0417 49.311H34.2396C36.5723 49.3558 36.195 47.5271 36.195 46.936C36.195 46.6853 35.5643 46.2235 34.8281 45.7697C33.7725 45.1258 32.5006 44.4898 32.5006 44.4898L33.192 43.0596C33.5885 43.1411 33.9949 43.1634 34.3979 43.1256C36.1659 42.9329 35.9232 41.1913 35.6355 40.434C35.5537 40.2149 35.1474 39.8877 34.58 39.5077C32.7619 38.3097 29.2812 36.6419 29.2812 36.6419H24.1698L19.156 50.348C19.156 50.348 22.8926 52.2981 22.8108 55.7339Z" fill="white"/>
<path opacity="0.1" d="M22.8108 55.7339C22.7264 59.1644 24.4284 58.9005 24.4284 58.9005C24.6053 58.5048 24.8191 58.1267 25.067 57.7711C25.9589 56.4015 27.3232 54.4805 26.8113 53.3431C26.4767 52.6633 26.0958 52.0074 25.6713 51.3798C24.7609 49.9839 23.7133 48.5695 23.7133 48.5695L28.2547 47.8174C28.2547 47.8174 31.4899 49.1553 34.0417 49.311H34.2396C36.5723 49.3558 36.195 47.5271 36.195 46.936C36.195 46.6853 35.5643 46.2235 34.8281 45.7697C33.7725 45.1258 32.5006 44.4898 32.5006 44.4898L33.192 43.0596C33.5885 43.1411 33.9949 43.1634 34.3979 43.1256C36.1659 42.9329 35.9232 41.1913 35.6355 40.434C35.5537 40.2149 35.1474 39.8877 34.58 39.5077C32.7619 38.3097 29.2812 36.6419 29.2812 36.6419H24.1698L19.156 50.348C19.156 50.348 22.8926 52.2981 22.8108 55.7339Z" fill="#FFE4C8"/>
<path opacity="0.4" d="M22.8108 55.7339C22.7264 59.1644 24.4284 58.9005 24.4284 58.9005C24.6053 58.5048 24.8191 58.1267 25.067 57.7711C25.0041 57.4415 24.9731 57.1065 24.9747 56.771C24.9984 55.594 25.9616 53.3405 25.9616 53.3405L24.9747 51.7783C25.1783 51.6002 25.415 51.4639 25.6713 51.3772C24.7609 49.9813 23.7133 48.5668 23.7133 48.5668L28.2547 47.8148C28.2547 47.8148 31.4899 49.1527 34.0417 49.3083H34.2396C34.0918 48.0285 34.5985 46.4056 34.8281 45.7697C33.7725 45.1258 32.5006 44.4898 32.5006 44.4898L33.192 43.0596C33.5885 43.1411 33.9949 43.1634 34.3979 43.1256C34.1657 42.0093 34.3979 40.4603 34.5747 39.5077C32.7566 38.3097 29.276 36.6419 29.276 36.6419H24.1698L19.156 50.348C19.156 50.348 22.8926 52.2981 22.8108 55.7339Z" fill="#FFE4C8"/>
<path d="M24.1698 36.6444H29.276C29.276 36.6444 35.2925 39.5313 35.6329 40.4338C35.9733 41.3363 36.2504 43.6136 33.1893 43.0726L32.498 44.5002C32.498 44.5002 36.1923 46.3474 36.1923 46.9464C36.1923 47.5454 36.5908 49.4639 34.0391 49.3214C31.4873 49.1789 28.2547 47.8304 28.2547 47.8304L23.7107 48.5825C23.7107 48.5825 26.1278 51.8415 26.806 53.3562C27.4842 54.8708 24.8506 57.7683 24.4311 58.9135C24.4311 58.9135 22.729 59.1906 22.8135 55.7469C22.8979 52.3033 19.156 50.3637 19.156 50.3637" stroke="#263238" stroke-width="0.230207" stroke-linecap="round" stroke-linejoin="round"/>
<path d="M25.3794 52.7238C25.3794 52.7238 24.0995 52.0087 23.4029 53.3386" stroke="#263238" stroke-width="0.230207" stroke-linecap="round" stroke-linejoin="round"/>
<path d="M37.2529 57.621L17.5923 57.6097C17.03 57.6095 16.4732 57.499 15.9538 57.2845C15.4344 57.07 14.9625 56.7558 14.5651 56.3597C14.1676 55.9637 13.8524 55.4936 13.6374 54.9762C13.4224 54.4588 13.3119 53.9043 13.3121 53.3444L13.3218 4.26523C13.3218 3.70498 13.4327 3.15021 13.648 2.63263C13.8634 2.11504 14.179 1.64477 14.577 1.24869C14.9749 0.852604 15.4473 0.538462 15.9671 0.324209C16.487 0.109956 17.0442 -0.000211432 17.6068 3.04631e-07L37.2674 0.0112839C38.4029 0.0121386 39.4916 0.461888 40.2942 1.26168C41.0968 2.06148 41.5476 3.14587 41.5476 4.27652L41.5379 53.3557C41.5381 53.916 41.4274 54.4709 41.2121 54.9886C40.9968 55.5063 40.6812 55.9766 40.2832 56.3727C39.8852 56.7689 39.4128 57.083 38.8928 57.2972C38.3728 57.5114 37.8156 57.6214 37.2529 57.621Z" fill="#20446C"/>
<path d="M37.2439 1.75025H33.4348C33.3103 1.75297 33.1875 1.78018 33.0735 1.83032C32.9595 1.88047 32.8566 1.95255 32.7707 2.04244C32.6848 2.13232 32.6176 2.23823 32.5729 2.35407C32.5283 2.46991 32.5071 2.59339 32.5105 2.71743V3.40573C32.5137 3.52971 32.4924 3.6531 32.4476 3.76885C32.4029 3.8846 32.3357 3.99042 32.2498 4.08026C32.164 4.1701 32.0611 4.24219 31.9473 4.29241C31.8334 4.34262 31.7107 4.36998 31.5862 4.37291H24.1557C24.0312 4.36998 23.9084 4.34263 23.7944 4.29244C23.6804 4.24224 23.5775 4.17017 23.4915 4.08036C23.4055 3.99054 23.3382 3.88473 23.2932 3.76897C23.2483 3.65322 23.2268 3.52979 23.2298 3.40573V2.70614C23.233 2.58216 23.2116 2.45877 23.1669 2.34302C23.1222 2.22728 23.055 2.12146 22.9691 2.03162C22.8832 1.94178 22.7804 1.86968 22.6665 1.81947C22.5527 1.76925 22.4299 1.7419 22.3054 1.73897H17.627C17.233 1.73855 16.8428 1.81545 16.4787 1.96529C16.1146 2.11513 15.7837 2.33496 15.505 2.61222C15.2262 2.88947 15.0051 3.21872 14.8542 3.58113C14.7034 3.94353 14.6257 4.332 14.6257 4.72431L14.616 52.63C14.6169 53.4214 14.9331 54.1801 15.4952 54.7395C16.0573 55.2989 16.8194 55.6133 17.6141 55.6138L37.2342 55.625C37.6282 55.6255 38.0184 55.5486 38.3825 55.3987C38.7467 55.2489 39.0775 55.029 39.3563 54.7518C39.635 54.4745 39.8561 54.1453 40.007 53.7829C40.1579 53.4205 40.2355 53.032 40.2355 52.6397L40.2452 4.73398C40.2444 3.94207 39.9278 3.18291 39.3649 2.6234C38.8021 2.06389 38.0392 1.74983 37.2439 1.75025Z" fill="#FAFAFA"/>
<path d="M31.4735 40.2897H23.8209C23.1329 40.2897 22.4731 40.0165 21.9867 39.53C21.5002 39.0435 21.2269 38.3837 21.2269 37.6958C21.2269 37.0076 21.5001 36.3475 21.9865 35.8606C22.4729 35.3737 23.1327 35.0999 23.8209 35.0992H31.4735C32.1617 35.0999 32.8215 35.3737 33.3079 35.8606C33.7943 36.3475 34.0675 37.0076 34.0675 37.6958C34.0675 38.3837 33.7942 39.0435 33.3077 39.53C32.8212 40.0165 32.1615 40.2897 31.4735 40.2897Z" fill="#053C6D" stroke="#053C6D" stroke-width="0.230207" stroke-linecap="round" stroke-linejoin="round"/>
<path d="M24.8497 25.5846H24.8613C24.9106 25.5846 24.9534 25.5374 24.9534 25.4751C24.9534 25.4128 24.9106 25.3655 24.8613 25.3655H24.0399C23.9906 25.3655 23.9478 25.4128 23.9478 25.4751C23.9478 25.5374 23.9906 25.5846 24.0399 25.5846L24.2753 25.5846L24.2753 25.5846H24.8497ZM24.8497 25.5846V25.5859M24.8497 25.5846V25.5859M24.8497 25.5859H24.657H24.6371L24.6469 25.6032C24.6753 25.6539 24.696 25.7103 24.7078 25.7695L24.7097 25.7788H24.7192H24.8613C24.9106 25.7788 24.9534 25.8261 24.9534 25.8884C24.9534 25.9507 24.9106 25.998 24.8613 25.998H24.7192H24.7097L24.7078 26.0073C24.6621 26.2335 24.4952 26.3957 24.2994 26.4089L24.2754 26.4106L24.2916 26.4284L24.6899 26.8684L24.6899 26.8684C24.7078 26.8882 24.7186 26.9158 24.7193 26.9453C24.72 26.9748 24.7106 27.0031 24.6937 27.0241C24.6757 27.0456 24.6516 27.0573 24.6268 27.0574L24.6268 27.0574C24.6039 27.0576 24.5813 27.0475 24.5639 27.0285L23.9769 26.3801C23.9769 26.38 23.9769 26.38 23.9769 26.38C23.9491 26.3492 23.9398 26.3009 23.9543 26.2584C23.9688 26.2161 24.0032 26.1898 24.0399 26.1898L24.8497 25.5859Z" fill="#263238" stroke="white" stroke-width="0.0230207"/>
<path d="M25.0725 17.4217V13.5083" stroke="#263238" stroke-width="0.230207" stroke-linecap="round" stroke-linejoin="round"/>
<path d="M25.0725 19.773V18.2082" stroke="#263238" stroke-width="0.230207" stroke-linecap="round" stroke-linejoin="round"/>
<path d="M25.0725 21.2364V20.3973" stroke="#263238" stroke-width="0.230207" stroke-linecap="round" stroke-linejoin="round"/>
<path d="M25.8105 13.9655L25.0716 13.0525L24.3327 13.9655" stroke="#263238" stroke-width="0.230207" stroke-linecap="round" stroke-linejoin="round"/>
<path d="M30.2206 15.9722V12.0588" stroke="#263238" stroke-width="0.230207" stroke-linecap="round" stroke-linejoin="round"/>
<path d="M30.2206 18.3198V16.755" stroke="#263238" stroke-width="0.230207" stroke-linecap="round" stroke-linejoin="round"/>
<path d="M30.2206 19.7844V18.9453" stroke="#263238" stroke-width="0.230207" stroke-linecap="round" stroke-linejoin="round"/>
<path d="M30.9595 12.5138L30.2206 11.6008L29.4818 12.5138" stroke="#263238" stroke-width="0.230207" stroke-linecap="round" stroke-linejoin="round"/>
<path d="M27.5283 13.3436V9.4302" stroke="#263238" stroke-width="0.230207" stroke-linecap="round" stroke-linejoin="round"/>
<path d="M27.5283 15.69V14.1252" stroke="#263238" stroke-width="0.230207" stroke-linecap="round" stroke-linejoin="round"/>
<path d="M27.5283 17.1574V16.3182" stroke="#263238" stroke-width="0.230207" stroke-linecap="round" stroke-linejoin="round"/>
<path d="M28.2663 9.88664L27.5274 8.97097L26.7885 9.88664" stroke="#263238" stroke-width="0.230207" stroke-linecap="round" stroke-linejoin="round"/>
<path d="M31.6289 19.771C32.1447 17.5702 30.7787 15.368 28.5779 14.8522C26.3772 14.3364 24.175 15.7024 23.6592 17.9031C23.1434 20.1039 24.5094 22.3061 26.7101 22.8219C28.9109 23.3377 31.1131 21.9717 31.6289 19.771Z" fill="#F87000" stroke="#EF8B24" stroke-width="0.230207" stroke-linecap="round" stroke-linejoin="round"/>
<path d="M28.8156 17.726C28.9709 17.726 29.0967 17.6025 29.0967 17.4501C29.0967 17.2979 28.9709 17.1742 28.8156 17.1742H26.59C26.4348 17.1742 26.309 17.2979 26.309 17.4501C26.309 17.6025 26.4348 17.726 26.59 17.726H27.2279C27.4917 17.7256 27.7313 17.8767 27.8405 18.1122H26.5927C26.4376 18.1122 26.3117 18.2358 26.3117 18.3881C26.3117 18.5405 26.4376 18.664 26.5927 18.664H27.8405C27.7303 18.8989 27.4912 19.0496 27.2279 19.0502H26.59C26.4747 19.0503 26.3711 19.1194 26.3284 19.2245C26.2857 19.3295 26.3125 19.4496 26.396 19.5275L27.9866 21.0034C28.0392 21.0517 28.1086 21.0783 28.1805 21.0779C28.2578 21.0775 28.3316 21.0466 28.3857 20.9924C28.4368 20.9394 28.4644 20.8686 28.4623 20.7957C28.4602 20.7227 28.4286 20.6535 28.3745 20.6034L27.2953 19.602C27.8427 19.5709 28.3044 19.1906 28.4307 18.6668H28.8156C28.9709 18.6668 29.0967 18.5433 29.0967 18.3909C29.0967 18.2385 28.9709 18.115 28.8156 18.115H28.4307C28.398 17.9776 28.3409 17.8468 28.2621 17.7288H28.8156V17.726Z" fill="white"/>
<path d="M25.301 25.6424C25.3671 25.6503 25.4338 25.633 25.4876 25.5938C25.5414 25.5547 25.5785 25.4966 25.5913 25.4313H25.7813V27.1149H25.5174V25.8298H25.3142L25.301 25.6424Z" fill="#263238"/>
<path d="M26.066 25.8359C26.0542 25.7773 26.0556 25.7168 26.0701 25.6588C26.0845 25.6008 26.1116 25.5468 26.1495 25.5005C26.1874 25.4543 26.235 25.417 26.289 25.3915C26.3431 25.3659 26.4021 25.3526 26.4619 25.3526C26.5216 25.3526 26.5806 25.3659 26.6347 25.3915C26.6887 25.417 26.7363 25.4543 26.7742 25.5005C26.8121 25.5468 26.8392 25.6008 26.8536 25.6588C26.8681 25.7168 26.8695 25.7773 26.8577 25.8359V26.712C26.8695 26.7706 26.8681 26.8311 26.8536 26.8891C26.8392 26.9471 26.8121 27.0011 26.7742 27.0474C26.7363 27.0936 26.6887 27.1309 26.6347 27.1564C26.5806 27.182 26.5216 27.1953 26.4619 27.1953C26.4021 27.1953 26.3431 27.182 26.289 27.1564C26.235 27.1309 26.1874 27.0936 26.1495 27.0474C26.1116 27.0011 26.0845 26.9471 26.0701 26.8891C26.0556 26.8311 26.0542 26.7706 26.066 26.712V25.8359ZM26.3299 26.7278C26.3299 26.8492 26.3827 26.8941 26.4671 26.8941C26.5516 26.8941 26.6017 26.8492 26.6017 26.7278V25.8201C26.6017 25.6987 26.5489 25.6538 26.4671 25.6538C26.3853 25.6538 26.3299 25.6987 26.3299 25.8201V26.7278Z" fill="#263238"/>
<path d="M27.019 25.8359C27.0073 25.7773 27.0086 25.7168 27.0231 25.6588C27.0375 25.6008 27.0646 25.5468 27.1025 25.5005C27.1404 25.4543 27.188 25.417 27.2421 25.3915C27.2961 25.3659 27.3551 25.3526 27.4149 25.3526C27.4746 25.3526 27.5337 25.3659 27.5877 25.3915C27.6417 25.417 27.6893 25.4543 27.7272 25.5005C27.7651 25.5468 27.7922 25.6008 27.8067 25.6588C27.8211 25.7168 27.8225 25.7773 27.8107 25.8359V26.712C27.8225 26.7706 27.8211 26.8311 27.8067 26.8891C27.7922 26.9471 27.7651 27.0011 27.7272 27.0474C27.6893 27.0936 27.6417 27.1309 27.5877 27.1564C27.5337 27.182 27.4746 27.1953 27.4149 27.1953C27.3551 27.1953 27.2961 27.182 27.2421 27.1564C27.188 27.1309 27.1404 27.0936 27.1025 27.0474C27.0646 27.0011 27.0375 26.9471 27.0231 26.8891C27.0086 26.8311 27.0073 26.7706 27.019 26.712V25.8359ZM27.2829 26.7278C27.2829 26.8492 27.3357 26.8941 27.4201 26.8941C27.5046 26.8941 27.5547 26.8492 27.5547 26.7278V25.8201C27.5547 25.6987 27.5019 25.6538 27.4201 25.6538C27.3383 25.6538 27.2829 25.6987 27.2829 25.8201V26.7278Z" fill="#263238"/>
<path d="M27.9716 25.8359C27.9598 25.7773 27.9612 25.7168 27.9756 25.6588C27.99 25.6008 28.0172 25.5468 28.055 25.5005C28.0929 25.4543 28.1406 25.417 28.1946 25.3915C28.2486 25.3659 28.3076 25.3526 28.3674 25.3526C28.4272 25.3526 28.4862 25.3659 28.5402 25.3915C28.5942 25.417 28.6419 25.4543 28.6797 25.5005C28.7176 25.5468 28.7447 25.6008 28.7592 25.6588C28.7736 25.7168 28.775 25.7773 28.7632 25.8359V26.712C28.775 26.7706 28.7736 26.8311 28.7592 26.8891C28.7447 26.9471 28.7176 27.0011 28.6797 27.0474C28.6419 27.0936 28.5942 27.1309 28.5402 27.1564C28.4862 27.182 28.4272 27.1953 28.3674 27.1953C28.3076 27.1953 28.2486 27.182 28.1946 27.1564C28.1406 27.1309 28.0929 27.0936 28.055 27.0474C28.0172 27.0011 27.99 26.9471 27.9756 26.8891C27.9612 26.8311 27.9598 26.7706 27.9716 26.712V25.8359ZM28.2354 26.7278C28.2354 26.8492 28.2882 26.8941 28.3727 26.8941C28.4571 26.8941 28.5072 26.8492 28.5072 26.7278V25.8201C28.5072 25.6987 28.4545 25.6538 28.3727 25.6538C28.2909 25.6538 28.2354 25.6987 28.2354 25.8201V26.7278Z" fill="#263238"/>
<path d="M29.2106 26.8608V27.1247H28.9468V26.8608H29.2106Z" fill="#263238"/>
<path d="M29.3725 25.8348C29.3631 25.7775 29.3663 25.7187 29.3819 25.6627C29.3974 25.6066 29.425 25.5546 29.4627 25.5103C29.5003 25.466 29.5472 25.4304 29.5999 25.406C29.6527 25.3815 29.7102 25.3689 29.7684 25.3689C29.8265 25.3689 29.884 25.3815 29.9368 25.406C29.9896 25.4304 30.0364 25.466 30.074 25.5103C30.1117 25.5546 30.1393 25.6066 30.1548 25.6627C30.1704 25.7187 30.1736 25.7775 30.1642 25.8348V26.7109C30.1736 26.7683 30.1704 26.8271 30.1548 26.8831C30.1393 26.9392 30.1117 26.9911 30.074 27.0355C30.0364 27.0798 29.9896 27.1154 29.9368 27.1398C29.884 27.1642 29.8265 27.1769 29.7684 27.1769C29.7102 27.1769 29.6527 27.1642 29.5999 27.1398C29.5472 27.1154 29.5003 27.0798 29.4627 27.0355C29.425 26.9911 29.3974 26.9392 29.3819 26.8831C29.3663 26.8271 29.3631 26.7683 29.3725 26.7109V25.8348ZM29.6364 26.7268C29.6364 26.8482 29.6892 26.893 29.7736 26.893C29.8581 26.893 29.9109 26.8482 29.9109 26.7268V25.819C29.9109 25.6976 29.8581 25.6528 29.7736 25.6528C29.6892 25.6528 29.6364 25.6976 29.6364 25.819V26.7268Z" fill="#263238"/>
<path d="M30.3255 25.8348C30.3161 25.7775 30.3193 25.7187 30.3349 25.6627C30.3505 25.6066 30.378 25.5546 30.4157 25.5103C30.4533 25.466 30.5002 25.4304 30.553 25.406C30.6057 25.3815 30.6632 25.3689 30.7214 25.3689C30.7795 25.3689 30.837 25.3815 30.8898 25.406C30.9426 25.4304 30.9894 25.466 31.0271 25.5103C31.0647 25.5546 31.0923 25.6066 31.1078 25.6627C31.1234 25.7187 31.1266 25.7775 31.1172 25.8348V26.7109C31.1266 26.7683 31.1234 26.8271 31.1078 26.8831C31.0923 26.9392 31.0647 26.9911 31.0271 27.0355C30.9894 27.0798 30.9426 27.1154 30.8898 27.1398C30.837 27.1642 30.7795 27.1769 30.7214 27.1769C30.6632 27.1769 30.6057 27.1642 30.553 27.1398C30.5002 27.1154 30.4533 27.0798 30.4157 27.0355C30.378 26.9911 30.3505 26.9392 30.3349 26.8831C30.3193 26.8271 30.3161 26.7683 30.3255 26.7109V25.8348ZM30.5894 26.7268C30.5894 26.8482 30.6422 26.893 30.7267 26.893C30.8111 26.893 30.8639 26.8482 30.8639 26.7268V25.819C30.8639 25.6976 30.8111 25.6528 30.7267 25.6528C30.6422 25.6528 30.5894 25.6976 30.5894 25.819V26.7268Z" fill="#263238"/>
<path d="M23.0007 28.6719H23.2645V30.3528H23.0007V28.6719Z" fill="#263238"/>
<path d="M23.4557 28.6719H23.8753C24.1392 28.6719 24.2685 28.817 24.2685 29.0862V29.9385C24.2685 30.2024 24.1392 30.3528 23.8753 30.3528H23.4557V28.6719ZM23.7196 28.912V30.1127H23.87C23.9544 30.1127 24.0046 30.0704 24.0046 29.9491V29.0756C24.0046 28.9542 23.9544 28.912 23.87 28.912H23.7196Z" fill="#263238"/>
<path d="M24.6696 30.0989V30.3628H24.4058V30.0989H24.6696Z" fill="#263238"/>
<path d="M25.2541 28.8945C25.1697 28.8945 25.1169 28.9393 25.1169 29.0581V29.2402H24.8689V29.0766C24.8689 28.8127 25.0034 28.6543 25.262 28.6543C25.5207 28.6543 25.6552 28.8074 25.6552 29.0766C25.6499 29.2041 25.618 29.329 25.5617 29.4435C25.5054 29.558 25.4258 29.6595 25.328 29.7415C25.1723 29.9104 25.1301 29.9896 25.1301 30.0793C25.1288 30.0907 25.1288 30.1022 25.1301 30.1136H25.6288V30.3538H24.8662V30.1479C24.8706 30.0463 24.8964 29.9468 24.9419 29.8559C24.9873 29.765 25.0515 29.6846 25.1301 29.6202C25.2094 29.5563 25.274 29.4761 25.3195 29.385C25.365 29.2939 25.3904 29.1941 25.394 29.0924C25.3861 28.9341 25.3333 28.8945 25.2541 28.8945Z" fill="#263238"/>
<path d="M25.9787 28.883C26.0447 28.8909 26.1114 28.8735 26.1652 28.8344C26.219 28.7952 26.2561 28.7372 26.2689 28.6719H26.4457V30.3528H26.1818V29.0703H25.9787V28.883Z" fill="#263238"/>
<path d="M27.1485 30.3735C27.0918 30.3791 27.0345 30.3718 26.981 30.3523C26.9275 30.3327 26.879 30.3014 26.8392 30.2606C26.7994 30.2198 26.7693 30.1706 26.7512 30.1166C26.733 30.0626 26.7272 30.0052 26.7342 29.9486V29.8167C26.7262 29.7491 26.7373 29.6807 26.7662 29.6192C26.7951 29.5576 26.8407 29.5054 26.8978 29.4684C26.8409 29.4345 26.7951 29.3847 26.766 29.3252C26.7369 29.2657 26.7259 29.199 26.7342 29.1332V29.0805C26.7296 29.0234 26.7369 28.9661 26.7556 28.9121C26.7743 28.858 26.8039 28.8084 26.8427 28.7664C26.8815 28.7244 26.9286 28.6908 26.981 28.6679C27.0334 28.645 27.09 28.6331 27.1471 28.6331C27.2043 28.6331 27.2609 28.645 27.3133 28.6679C27.3657 28.6908 27.4128 28.7244 27.4516 28.7664C27.4903 28.8084 27.52 28.858 27.5387 28.9121C27.5574 28.9661 27.5647 29.0234 27.5601 29.0805V29.1332C27.5677 29.1989 27.5564 29.2654 27.5274 29.3248C27.4984 29.3842 27.453 29.434 27.3965 29.4684C27.4536 29.5054 27.4992 29.5576 27.5281 29.6192C27.557 29.6807 27.5681 29.7491 27.5601 29.8167V29.9486C27.5671 30.0049 27.5613 30.0621 27.5433 30.1159C27.5252 30.1697 27.4954 30.2187 27.4559 30.2595C27.4164 30.3002 27.3683 30.3316 27.3151 30.3513C27.2619 30.3711 27.205 30.3786 27.1485 30.3735ZM26.9981 29.1781C26.9981 29.3127 27.0614 29.3549 27.1485 29.3549C27.2355 29.3549 27.2962 29.3127 27.2962 29.1781V29.0831C27.2962 28.9327 27.2303 28.8931 27.1485 28.8931C27.0667 28.8931 26.9981 28.9327 26.9981 29.0831V29.1781ZM27.1485 30.1334C27.2303 30.1334 27.2936 30.0911 27.2962 29.9434V29.7877C27.2962 29.6531 27.2408 29.5977 27.1485 29.5977C27.0561 29.5977 26.9981 29.6531 26.9981 29.7877V29.9434C26.9981 30.0911 27.064 30.1334 27.1485 30.1334Z" fill="#263238"/>
<path d="M27.8931 28.883C27.9592 28.8909 28.0258 28.8735 28.0796 28.8344C28.1335 28.7952 28.1705 28.7372 28.1833 28.6719H28.3601V30.3528H28.0963V29.0703H27.8931V28.883Z" fill="#263238"/>
<path d="M29.4499 29.9357C29.4499 30.218 29.3206 30.3737 29.0461 30.3737C28.7717 30.3737 28.6503 30.218 28.6503 29.9488V29.9066H28.901V29.9726C28.901 30.0913 28.9538 30.1388 29.0382 30.1388C29.1227 30.1388 29.186 30.0913 29.186 29.9304V29.6269C29.1659 29.673 29.132 29.7117 29.089 29.7377C29.046 29.7637 28.996 29.7757 28.9459 29.772C28.7506 29.772 28.653 29.6348 28.653 29.3868V29.0754C28.6436 29.018 28.6467 28.9592 28.6623 28.9032C28.6779 28.8472 28.7054 28.7952 28.7431 28.7509C28.7807 28.7065 28.8276 28.6709 28.8804 28.6465C28.9332 28.6221 28.9906 28.6094 29.0488 28.6094C29.1069 28.6094 29.1644 28.6221 29.2172 28.6465C29.27 28.6709 29.3168 28.7065 29.3545 28.7509C29.3921 28.7952 29.4197 28.8472 29.4353 28.9032C29.4508 28.9592 29.454 29.018 29.4446 29.0754L29.4499 29.9357ZM29.186 29.3604V29.0569C29.186 28.9382 29.1332 28.896 29.0488 28.896C28.9643 28.896 28.9116 28.9382 28.9116 29.0569V29.3604C28.9116 29.4818 28.9643 29.5266 29.0488 29.5266C29.1332 29.5266 29.186 29.4818 29.186 29.3604Z" fill="#263238"/>
<path d="M29.8641 29.8117V29.9727C29.8641 30.0915 29.9168 30.1363 30.0013 30.1363C30.0857 30.1363 30.1385 30.0915 30.1385 29.9727V29.6033C30.1385 29.4819 30.0857 29.437 30.0013 29.437C29.9168 29.437 29.8641 29.4819 29.8641 29.6033V29.6534H29.6134L29.6609 28.677H30.3575V28.9172H29.8984L29.8746 29.3183C29.8979 29.2788 29.9317 29.2466 29.9723 29.2251C30.0128 29.2037 30.0585 29.1939 30.1042 29.1969C30.2968 29.1969 30.3971 29.3341 30.3971 29.5795V29.9542C30.3971 30.2181 30.2625 30.3791 30.0013 30.3791C29.74 30.3791 29.6081 30.2234 29.6081 29.9542V29.817L29.8641 29.8117Z" fill="#263238"/>
<path d="M30.5611 29.0885C30.5611 28.8062 30.6904 28.6531 30.9649 28.6531C31.0203 28.6486 31.0761 28.6566 31.128 28.6766C31.1799 28.6966 31.2267 28.728 31.2647 28.7686C31.3028 28.8092 31.3312 28.8579 31.3478 28.911C31.3644 28.9641 31.3688 29.0203 31.3607 29.0753V29.1176H31.11V29.0569C31.11 28.9381 31.0572 28.8933 30.9728 28.8933C30.8883 28.8933 30.825 28.9381 30.825 29.0991V29.4052C30.845 29.3589 30.8788 29.3198 30.9217 29.2934C30.9647 29.2669 31.0148 29.2544 31.0651 29.2574C31.2604 29.2574 31.3607 29.3946 31.3607 29.6427V29.9488C31.3725 30.0074 31.3711 30.0679 31.3566 30.1259C31.3422 30.1839 31.3151 30.2379 31.2772 30.2842C31.2393 30.3304 31.1917 30.3677 31.1377 30.3932C31.0836 30.4188 31.0246 30.4321 30.9649 30.4321C30.9051 30.4321 30.8461 30.4188 30.7921 30.3932C30.738 30.3677 30.6904 30.3304 30.6525 30.2842C30.6146 30.2379 30.5875 30.1839 30.5731 30.1259C30.5586 30.0679 30.5573 30.0074 30.569 29.9488L30.5611 29.0885ZM30.825 29.6638V29.9725C30.825 30.0913 30.8804 30.1362 30.9622 30.1362C31.044 30.1362 31.0994 30.0913 31.0994 29.9725V29.6691C31.0994 29.5503 31.0467 29.5028 30.9622 29.5028C30.8778 29.5028 30.825 29.5451 30.825 29.6638Z" fill="#263238"/>
<path d="M32.3064 28.6719V28.9014L31.9159 30.3528H31.652L32.0399 28.912H31.5122V28.6719H32.3064Z" fill="#263238"/>
<path d="M27.3092 27.538H27.6285V27.6277H27.523V28.1739H27.4227V27.6277H27.3171L27.3092 27.538Z" fill="#263238"/>
<path d="M27.655 27.6918C27.6521 27.6707 27.6541 27.6492 27.6606 27.6289C27.6672 27.6087 27.6782 27.5901 27.6929 27.5747C27.7076 27.5592 27.7256 27.5473 27.7455 27.5397C27.7654 27.5321 27.7868 27.5291 27.808 27.5309C27.8292 27.529 27.8505 27.532 27.8703 27.5396C27.8901 27.5472 27.908 27.5592 27.9225 27.5747C27.9369 27.5902 27.9477 27.6088 27.954 27.6291C27.9602 27.6494 27.9617 27.6709 27.9584 27.6918V28.0217C27.9617 28.0427 27.9602 28.0641 27.954 28.0844C27.9477 28.1047 27.9369 28.1233 27.9225 28.1388C27.908 28.1543 27.8901 28.1663 27.8703 28.1739C27.8505 28.1815 27.8292 28.1845 27.808 28.1827C27.7868 28.1844 27.7654 28.1814 27.7455 28.1738C27.7256 28.1662 27.7076 28.1543 27.6929 28.1388C27.6782 28.1234 27.6672 28.1048 27.6606 28.0846C27.6541 28.0643 27.6521 28.0428 27.655 28.0217V27.6918ZM27.7552 28.0296C27.7552 28.0745 27.7764 28.0903 27.808 28.0903C27.8397 28.0903 27.8582 28.0745 27.8582 28.0296V27.6839C27.8582 27.6391 27.8397 27.6206 27.808 27.6206C27.7764 27.6206 27.7552 27.6391 27.7552 27.6839V28.0296Z" fill="#263238"/>
<path d="M25.517 36.3071C25.897 36.3071 26.0896 36.534 26.0896 36.9299V37.0064H25.7228V36.9035C25.7228 36.7293 25.6516 36.6607 25.5276 36.6607C25.4036 36.6607 25.3349 36.7293 25.3349 36.9035C25.3349 37.0776 25.4115 37.2201 25.6648 37.4312C25.992 37.7162 26.0923 37.9221 26.0923 38.2044C26.0923 38.6002 25.897 38.8272 25.5144 38.8272C25.1318 38.8272 24.9338 38.6002 24.9338 38.2044V38.0514H25.3033V38.2282C25.3033 38.405 25.3798 38.4683 25.5038 38.4683C25.6279 38.4683 25.7044 38.405 25.7044 38.2282C25.7044 38.0514 25.6279 37.9141 25.3719 37.7004C25.2441 37.6152 25.1388 37.5004 25.0649 37.3658C24.9909 37.2312 24.9505 37.0808 24.947 36.9272C24.9549 36.5287 25.1476 36.3071 25.517 36.3071Z" fill="white"/>
<path d="M26.7138 37.3618H27.2416V37.7154H26.7138V38.4384H27.3841V38.792H26.3286V36.3194H27.3841V36.673H26.7138V37.3618Z" fill="white"/>
<path d="M27.9769 37.0116V38.8034H27.6285V36.3308H28.1167L28.5099 37.8112V36.3308H28.8556V38.8034H28.4571L27.9769 37.0116Z" fill="white"/>
<path d="M29.1307 36.3308H29.7403C30.1282 36.3308 30.3182 36.5472 30.3182 36.9403V38.1912C30.3182 38.587 30.1282 38.8034 29.7403 38.8034H29.1254L29.1307 36.3308ZM29.5186 36.6844V38.4498H29.7403C29.8643 38.4498 29.9382 38.3864 29.9382 38.2096V36.9245C29.9382 36.7477 29.8643 36.6844 29.7403 36.6844H29.5186Z" fill="white"/>
<path d="M10.9836 32.3951C10.9836 32.3951 12.683 32.9229 13.2794 34.4006" stroke="#263238" stroke-width="0.230207" stroke-linecap="round" stroke-linejoin="round"/>
<path d="M3.282 79.2705C3.46936 75.9825 3.59602 72.6233 3.75963 69.9185C4.10004 64.3136 4.35601 60.5506 4.8653 56.7243C5.3746 52.898 5.29015 47.1111 5.54612 45.0923C5.80209 43.0736 6.56207 42.6435 7.16373 40.2448C7.76538 37.8461 8.3037 33.0672 9.29062 32.3943C10.2775 31.7214 13.2885 30.4627 13.2885 30.4627V43.9972C15.0749 46.7443 17.2018 47.4277 17.2018 47.4277C18.5635 43.4879 18.3946 41.9257 19.7536 40.477C21.1126 39.0283 22.0969 37.1415 24.2396 37.9306C25.2582 38.3079 25.8018 38.6905 25.2951 42.1527C24.7885 45.6148 23.7646 46.6862 23.7646 46.6862C23.5931 47.8658 23.8491 51.2936 24.2739 53.0484C24.6988 54.8032 23.0838 59.4608 22.3185 62.44C21.5533 65.4193 17.4684 71.4516 17.4684 71.4516C17.3697 73.7157 17.4191 75.9838 17.6161 78.2414C17.6478 78.5607 17.6874 78.9037 17.7323 79.2626L17.9961 88.5275L3.282 88.2689V79.2705Z" fill="white"/>
<path opacity="0.8" d="M24.9711 38.9399C24.8927 38.7434 24.8927 38.5242 24.9711 38.3277C24.7514 38.1449 24.4975 38.0076 24.2243 37.9239C22.0868 37.1323 21.1052 39.027 19.7383 40.4704C19.6164 40.6005 19.5027 40.738 19.3979 40.8821C20.6302 40.4176 22.2452 40.4255 22.8943 41.328C23.715 42.4574 25.3801 40.415 24.9711 38.9399Z" fill="#FFE4C8"/>
<path opacity="0.8" d="M15.7412 75.9489L15.0656 78.4717C15.0656 78.4717 16.0156 77.5428 17.4406 75.2866C17.372 73.0884 17.4564 71.4339 17.4564 71.4339C17.4564 71.4339 21.5387 65.3989 22.3066 62.4223C23.0745 59.4457 24.6815 54.7829 24.262 53.0307C23.8424 51.2785 23.5838 47.848 23.7527 46.6684C23.9529 46.4238 24.1189 46.153 24.2461 45.8636C24.0717 45.6813 23.851 45.5499 23.6075 45.4836C22.9007 47.3977 22.618 49.4424 22.7789 51.4764C23.0428 54.8779 22.4596 55.1708 21.3329 59.5855C20.2061 64.0003 18.3246 69.0194 17.4485 69.9166C16.5724 70.8138 16.1871 74.8644 15.7412 75.9489Z" fill="#FFE4C8"/>
<path opacity="0.8" d="M14.1277 46.1452C14.1277 46.1452 12.7872 46.3537 12.2462 46.673C12.2462 46.673 14.8666 47.3565 15.0354 48.0874C15.2043 48.8184 15.7664 49.5731 16.7639 48.6812C16.7639 48.6812 16.814 48.1244 16.9169 47.3169C16.2863 47.0345 14.6792 46.1505 13.278 43.9999V30.4627C13.278 30.4627 11.7897 31.0854 10.5626 31.6871C11.473 31.8085 12.4098 32.0882 12.766 32.703C12.6477 33.0791 12.4497 33.4253 12.1856 33.7181C11.9215 34.0109 11.5975 34.2434 11.2355 34.3998C10.2671 34.8326 11.2355 42.1368 11.2355 42.1368C11.2355 42.1368 9.65223 42.53 9.12446 43.984C9.12446 43.984 11.7343 44.2479 12.8188 45.0791C13.2729 45.4121 13.7098 45.7679 14.1277 46.1452Z" fill="#FFE4C8"/>
<path opacity="0.8" d="M3.75098 69.9189C3.6164 72.1092 3.51085 74.7295 3.37627 77.3921C3.7114 72.3282 4.72999 63.6359 4.72999 63.6359C4.72999 63.6359 5.64039 66.85 5.70899 66.5096C5.90955 65.5015 5.2815 59.8148 5.33692 57.7882C5.36331 56.8699 5.29734 54.5161 5.21553 52.2176C5.14165 53.8009 5.03609 55.3842 4.85665 56.7248C4.33944 60.5616 4.09139 64.314 3.75098 69.9189Z" fill="#FFE4C8"/>
<path d="M3.282 88.8838V79.2705C3.46936 75.9825 3.59602 72.6233 3.75963 69.9185C4.10004 64.3136 4.35601 60.5506 4.8653 56.7243C5.3746 52.898 5.29015 47.1111 5.54612 45.0923C5.80209 43.0736 6.56207 42.6435 7.16372 40.2448C7.76538 37.8461 8.3037 33.0672 9.29062 32.3943C10.2775 31.7214 13.2885 30.4627 13.2885 30.4627V43.9972C15.0749 46.7443 17.2018 47.4277 17.2018 47.4277C18.5635 43.4879 18.3946 41.9257 19.7536 40.477C21.1126 39.0283 22.0969 37.1415 24.2396 37.9306C25.2582 38.3079 25.8018 38.6905 25.2951 42.1527C24.7885 45.6148 23.7646 46.6862 23.7646 46.6862C23.5931 47.8658 23.8491 51.2936 24.2739 53.0484C24.6988 54.8032 23.0838 59.4608 22.3185 62.44C21.5533 65.4193 17.4684 71.4516 17.4684 71.4516C17.3697 73.7157 17.4191 75.9838 17.6161 78.2414C17.6478 78.5607 17.6874 78.9037 17.7323 79.2626C17.7323 79.2626 17.8695 85.2448 18.5239 88.8758" stroke="#263238" stroke-width="0.230207" stroke-linecap="round" stroke-linejoin="round"/>
<path d="M17.1927 47.4212C17.1927 47.4212 16.7678 49.3212 15.9181 49.746C15.0684 50.1709 13.8387 49.7408 13.8387 49.7408" stroke="#263238" stroke-width="0.230207" stroke-linecap="round" stroke-linejoin="round"/>
<path d="M13.2788 43.9985C13.2788 43.9985 12.4291 42.1065 9.70584 43.7479" stroke="#263238" stroke-width="0.230207" stroke-linecap="round" stroke-linejoin="round"/>
<path d="M13.2801 36.3549C13.2801 36.3549 13.1112 35.3522 11.6968 35.0962" stroke="#263238" stroke-width="0.230207" stroke-linecap="round" stroke-linejoin="round"/>
<path d="M17.449 71.4366C15.8314 73.4843 16.1296 75.4424 15.5174 76.4636C14.9052 77.4848 14.9896 81.1422 14.9896 81.1422" stroke="#263238" stroke-width="0.230207" stroke-linecap="round" stroke-linejoin="round"/>
<path d="M5.70871 51.7769V58.9018C5.73161 60.9382 5.93025 62.9688 6.30245 64.9711" stroke="#263238" stroke-width="0.230207" stroke-linecap="round" stroke-linejoin="round"/>
<path d="M23.7433 46.6701C23.7433 46.6701 23.7433 45.4562 23.4029 45.0868" stroke="#263238" stroke-width="0.230207" stroke-linecap="round" stroke-linejoin="round"/>
<path d="M22.8096 42.8509C22.8096 42.8509 22.0575 40.3123 19.8435 41.4206" stroke="#263238" stroke-width="0.230207" stroke-linecap="round" stroke-linejoin="round"/>
<path d="M15.9926 46.7967C14.3486 46.831 12.6835 46.1027 11.7071 46.9893" stroke="#263238" stroke-width="0.230207" stroke-linecap="round" stroke-linejoin="round"/>
<path d="M2.59007 76.0089H3.03339C3.17336 76.0089 3.3076 76.0646 3.40658 76.1635C3.50555 76.2625 3.56116 76.3967 3.56116 76.5367V85.5773C3.56116 85.7173 3.50555 85.8516 3.40658 85.9505C3.3076 86.0495 3.17336 86.1051 3.03339 86.1051H2.59007V76.0089Z" fill="#263238"/>
<path d="M2.59007 77.3173C2.59007 77.3173 10.3905 75.2775 17.8768 77.6023C17.9924 77.6388 18.0934 77.7112 18.165 77.8089C18.2367 77.9067 18.2753 78.0247 18.2753 78.1459V82.9354C18.2756 82.9775 18.2666 83.0192 18.249 83.0574C18.2313 83.0956 18.2054 83.1294 18.1731 83.1564C18.1408 83.1834 18.1029 83.2029 18.0622 83.2135C18.0215 83.2241 17.9789 83.2256 17.9375 83.2178C16.3305 82.9275 9.26368 81.8113 2.97534 83.2811L2.59007 77.3173Z" fill="#263238"/>
<path d="M2.92683 77.2277V76.1484C2.92718 76.064 2.91085 75.9803 2.87878 75.9022C2.84671 75.8241 2.79953 75.7531 2.73995 75.6933C2.68037 75.6335 2.60957 75.586 2.5316 75.5536C2.45363 75.5212 2.37003 75.5046 2.28559 75.5046H1.4095C1.30167 75.5058 1.19607 75.5355 1.1034 75.5906C1.01072 75.6457 0.934254 75.7244 0.881736 75.8186L0.116474 77.2277V85.4741L0.879097 86.4003C0.935581 86.4696 1.00681 86.5255 1.08761 86.5639C1.16841 86.6022 1.25674 86.622 1.34617 86.622H2.29351C2.37794 86.622 2.46154 86.6053 2.53951 86.5729C2.61748 86.5405 2.68829 86.493 2.74787 86.4332C2.80745 86.3734 2.85463 86.3024 2.8867 86.2243C2.91877 86.1462 2.9351 86.0625 2.93475 85.9781L2.92683 77.2277Z" fill="#F0792E" stroke="#263238" stroke-width="0.230207" stroke-linecap="round" stroke-linejoin="round"/>
<path d="M2.37443 76.6951L4.15565 76.3653C4.20525 76.3559 4.25629 76.3577 4.30514 76.3704C4.35399 76.383 4.39944 76.4063 4.43826 76.4386C4.47707 76.4708 4.50828 76.5113 4.52968 76.557C4.55107 76.6027 4.56212 76.6526 4.56203 76.703V77.7295L3.97093 78.1676V81.5083H4.56203V83.2552C4.56205 83.353 4.52812 83.4478 4.46603 83.5234C4.40395 83.5989 4.31756 83.6506 4.22162 83.6695L2.53276 84.0205C2.47312 84.0331 2.41142 84.0322 2.35218 84.0179C2.29293 84.0035 2.23763 83.9761 2.19033 83.9377C2.14303 83.8992 2.10492 83.8507 2.07879 83.7956C2.05266 83.7406 2.03917 83.6804 2.0393 83.6194V77.1015C2.03834 77.0051 2.07143 76.9115 2.13275 76.8372C2.19406 76.7628 2.27965 76.7125 2.37443 76.6951Z" fill="#F0792E" stroke="#263238" stroke-width="0.230207" stroke-linecap="round" stroke-linejoin="round"/>
<path d="M2.4425 83.5603L3.89386 83.2278C3.94685 83.2152 3.99386 83.1846 4.02701 83.1414C4.06016 83.0981 4.07744 83.0448 4.07594 82.9904V81.9005" stroke="#263238" stroke-width="0.230207" stroke-linecap="round" stroke-linejoin="round"/>
<path d="M3.48534 81.4567V77.8811L4.06588 77.4378V76.7675" stroke="#263238" stroke-width="0.230207" stroke-linecap="round" stroke-linejoin="round"/>
<path d="M1.12773 76.1565V85.7091" stroke="#263238" stroke-width="0.230207" stroke-linecap="round" stroke-linejoin="round"/>
<path d="M8.17376 79.8853C8.10377 79.8853 8.03665 79.8575 7.98716 79.808C7.93767 79.7585 7.90987 79.6914 7.90987 79.6214V79.0514C7.90987 78.9814 7.93767 78.9143 7.98716 78.8648C8.03665 78.8153 8.10377 78.7875 8.17376 78.7875C8.24374 78.7875 8.31086 78.8153 8.36035 78.8648C8.40984 78.9143 8.43764 78.9814 8.43764 79.0514V79.6214C8.43764 79.6914 8.40984 79.7585 8.36035 79.808C8.31086 79.8575 8.24374 79.8853 8.17376 79.8853Z" fill="white"/>
<path d="M12.1906 79.9917C12.1206 79.9917 12.0535 79.9639 12.004 79.9144C11.9545 79.8649 11.9267 79.7978 11.9267 79.7278V79.1578C11.9267 79.0878 11.9545 79.0207 12.004 78.9712C12.0535 78.9217 12.1206 78.8939 12.1906 78.8939C12.2606 78.8939 12.3277 78.9217 12.3772 78.9712C12.4267 79.0207 12.4545 79.0878 12.4545 79.1578V79.7278C12.4545 79.7978 12.4267 79.8649 12.3772 79.9144C12.3277 79.9639 12.2606 79.9917 12.1906 79.9917Z" fill="white"/>
<path d="M15.7688 80.4311C15.6988 80.4311 15.6316 80.4033 15.5822 80.3539C15.5327 80.3044 15.5049 80.2372 15.5049 80.1673V79.5973C15.5049 79.5273 15.5327 79.4602 15.5822 79.4107C15.6316 79.3612 15.6988 79.3334 15.7688 79.3334C15.8387 79.3334 15.9059 79.3612 15.9553 79.4107C16.0048 79.4602 16.0326 79.5273 16.0326 79.5973V80.1673C16.0326 80.2372 16.0048 80.3044 15.9553 80.3539C15.9059 80.4033 15.8387 80.4311 15.7688 80.4311Z" fill="white"/>
</svg>
