<svg width="20" height="19" viewBox="0 0 20 19" fill="none" xmlns="http://www.w3.org/2000/svg">
<path d="M19.0762 9.16848C19.1421 11.0463 18.6473 12.9014 17.6543 14.4991C16.6613 16.0969 15.2149 17.3656 13.4978 18.1448C11.7807 18.9239 9.87017 19.1786 8.00775 18.8765C6.14533 18.5744 4.41468 17.7292 3.03468 16.4477C1.65468 15.1663 0.687301 13.5061 0.254877 11.6771C-0.177548 9.84816 -0.0555958 7.93259 0.605314 6.17266C1.26622 4.41272 2.4364 2.88746 3.96788 1.78977C5.49935 0.692069 7.32332 0.0712328 9.20915 0.00577324C11.7378 -0.0820005 14.1979 0.834027 16.0484 2.55235C17.8988 4.27067 18.9879 6.65055 19.0762 9.16848Z" fill="#20446C"/>
<g opacity="0.1">
<path opacity="0.1" d="M9.20749 0.00710225C6.67885 0.0950355 4.28884 1.17957 2.5632 3.02214C0.837567 4.8647 -0.0823494 7.31438 0.00579787 9.83231C0.00579787 9.83231 6.72014 9.89917 8.24612 7.15492C9.77211 4.41067 9.20749 0.00710225 9.20749 0.00710225Z" fill="white"/>
</g>
<path d="M16.6312 9.10181C16.6817 10.5296 16.3058 11.9402 15.5509 13.1552C14.796 14.3701 13.6961 15.3348 12.3905 15.9271C11.0848 16.5194 9.63207 16.7127 8.21605 16.4825C6.80002 16.2524 5.48439 15.6091 4.43562 14.6342C3.38686 13.6593 2.65212 12.3964 2.32437 11.0055C1.99662 9.61464 2.09061 8.15819 2.59443 6.82049C3.09825 5.4828 3.98926 4.324 5.15471 3.49072C6.32015 2.65745 7.70765 2.18716 9.14161 2.13937C11.0615 2.07539 12.9285 2.77261 14.3327 4.07796C15.7369 5.38332 16.5635 7.19014 16.6312 9.10181Z" fill="#20446C"/>
<g opacity="0.2">
<path opacity="0.2" d="M16.6312 9.10181C16.6817 10.5296 16.3058 11.9402 15.5509 13.1552C14.796 14.3701 13.6961 15.3348 12.3905 15.9271C11.0848 16.5194 9.63207 16.7127 8.21605 16.4825C6.80002 16.2524 5.48439 15.6091 4.43562 14.6342C3.38686 13.6593 2.65212 12.3964 2.32437 11.0055C1.99662 9.61464 2.09061 8.15819 2.59443 6.82049C3.09825 5.4828 3.98926 4.324 5.15471 3.49072C6.32015 2.65745 7.70765 2.18716 9.14161 2.13937C11.0615 2.07539 12.9285 2.77261 14.3327 4.07796C15.7369 5.38332 16.5635 7.19014 16.6312 9.10181Z" fill="#20446C"/>
</g>
<path d="M16.8504 9.39638C16.8996 10.8043 16.5285 12.1952 15.7839 13.3931C15.0394 14.591 13.9548 15.5422 12.6674 16.1264C11.38 16.7106 9.94756 16.9015 8.55117 16.6751C7.15477 16.4487 5.85715 15.8151 4.82236 14.8544C3.78758 13.8937 3.0621 12.649 2.73766 11.2778C2.41322 9.90654 2.50438 8.4703 2.99963 7.15064C3.49487 5.83099 4.37196 4.68719 5.51999 3.86386C6.66801 3.04053 8.03542 2.57465 9.44934 2.52512C11.3457 2.45948 13.1907 3.14645 14.5785 4.43496C15.9664 5.72348 16.7836 7.50807 16.8504 9.39638Z" fill="#F0792E"/>
<path d="M11.6094 7.67527C11.8535 7.67527 12.0514 7.48101 12.0514 7.24133C12.0514 7.00181 11.8535 6.80739 11.6094 6.80739H8.10857C7.86442 6.80739 7.66654 7.00181 7.66654 7.24133C7.66654 7.48101 7.86442 7.67527 8.10857 7.67527H9.11194C9.52685 7.67459 9.90379 7.91224 10.0756 8.28278H8.11288C7.86891 8.28278 7.67086 8.4772 7.67086 8.71672C7.67086 8.9564 7.86891 9.15066 8.11288 9.15066H10.0756C9.90223 9.52018 9.52616 9.75715 9.11194 9.75817H8.10857C7.92727 9.75834 7.76427 9.86699 7.6971 10.0323C7.62993 10.1975 7.67206 10.3864 7.80346 10.5089L10.3054 12.8305C10.3881 12.9064 10.4972 12.9483 10.6103 12.9476C10.7319 12.9469 10.8481 12.8985 10.9331 12.8132C11.0135 12.7298 11.0569 12.6184 11.0536 12.5037C11.0503 12.3889 11.0006 12.2801 10.9154 12.2013L9.21795 10.626C10.079 10.5772 10.8053 9.97904 11.0038 9.15506H11.6094C11.8535 9.15506 12.0514 8.96081 12.0514 8.72112C12.0514 8.48144 11.8535 8.28719 11.6094 8.28719H11.0038C10.9524 8.07106 10.8626 7.86528 10.7386 7.67967H11.6094V7.67527Z" fill="white"/>
<g opacity="0.2">
<path opacity="0.2" d="M16.8504 9.39638C16.8996 10.8043 16.5285 12.1952 15.7839 13.3931C15.0394 14.591 13.9548 15.5422 12.6674 16.1264C11.38 16.7106 9.94756 16.9015 8.55117 16.6751C7.15477 16.4487 5.85715 15.8151 4.82236 14.8544C3.78758 13.8937 3.0621 12.649 2.73766 11.2778C2.41322 9.90654 2.50438 8.4703 2.99963 7.15064C3.49487 5.83099 4.37196 4.68719 5.51999 3.86386C6.66801 3.04053 8.03542 2.57465 9.44934 2.52512C11.3457 2.45948 13.1907 3.14645 14.5785 4.43496C15.9664 5.72348 16.7836 7.50807 16.8504 9.39638Z" fill="white"/>
</g>
<path d="M9.81982 16.8388H9.8778L10.0487 16.8236L10.3295 16.7963C10.4567 16.7875 10.5831 16.7703 10.7079 16.7446L11.181 16.6535C11.2702 16.6369 11.3579 16.6135 11.4435 16.5836L11.7273 16.4985C11.8306 16.4723 11.9325 16.4408 12.0325 16.4043L12.3377 16.2766C12.4445 16.231 12.5574 16.1915 12.6643 16.1368L13 15.9606C13.4934 15.695 13.9551 15.3749 14.3764 15.0063L14.7091 14.6872L14.877 14.5231C14.9288 14.4623 14.9777 14.4015 15.0326 14.3407C15.1333 14.2161 15.2462 14.0976 15.3378 13.9639L15.6247 13.5536L15.6979 13.4473C15.7224 13.4138 15.7407 13.3743 15.762 13.3379L15.8902 13.113L16.0184 12.885C16.0642 12.8091 16.0917 12.724 16.1313 12.645C16.2015 12.4809 16.2778 12.3198 16.3419 12.1526L16.5159 11.633C16.721 10.9003 16.8166 10.1415 16.7997 9.38103C16.7643 8.62071 16.6151 7.86991 16.3572 7.15342C16.287 6.98323 16.2198 6.81305 16.1496 6.6459C16.0794 6.47875 15.9848 6.3268 15.9024 6.16877C15.8639 6.08955 15.8211 6.01245 15.7742 5.9378L15.6308 5.71899L15.4873 5.50322C15.4629 5.46675 15.4416 5.43028 15.4172 5.39685L15.3347 5.29656L15.0296 4.90757C14.9197 4.78297 14.8007 4.67052 14.6908 4.55504L14.5229 4.38485C14.4649 4.33015 14.4039 4.28153 14.3429 4.22986L13.9919 3.92596C13.5445 3.58726 13.0603 3.29978 12.5483 3.06895L12.2034 2.917C12.0905 2.86837 11.9745 2.84102 11.8677 2.80152L11.5442 2.69515C11.4435 2.65868 11.3367 2.64652 11.239 2.61917L10.9491 2.55535C10.8609 2.53234 10.7711 2.51609 10.6805 2.50673L10.2044 2.44899C10.078 2.43132 9.95047 2.4232 9.82287 2.42467H9.54208H9.36812H9.82287C9.95032 2.42088 10.0779 2.42698 10.2044 2.44291L10.6835 2.49457C10.7749 2.50409 10.8657 2.51931 10.9552 2.54016L11.2604 2.60397C11.358 2.62829 11.4648 2.64044 11.5656 2.67691L11.8891 2.78024C11.9989 2.81671 12.118 2.8471 12.2309 2.89572L12.5788 3.04463C13.095 3.27521 13.5843 3.56159 14.0377 3.89861L14.3917 4.20251L14.5748 4.3575L14.7427 4.52769C14.8556 4.64621 14.9777 4.75865 15.0875 4.88325L15.3927 5.27529L15.4751 5.37558L15.5484 5.48195L15.6918 5.70076L15.8383 5.91957C15.8902 5.9925 15.9238 6.0776 15.9696 6.15358C16.052 6.31161 16.1405 6.45748 16.2198 6.63374C16.2992 6.81001 16.3572 6.97411 16.4274 7.14734C16.9713 8.59769 17.027 10.1848 16.5861 11.6694L16.4152 12.1952C16.348 12.3654 16.2687 12.5264 16.1985 12.6905C16.1588 12.7726 16.1313 12.8577 16.0855 12.9337C16.0398 13.0096 15.997 13.0856 15.9543 13.1616L15.8261 13.3895C15.8048 13.426 15.7834 13.4655 15.759 13.502L15.6857 13.6083L15.3805 14.0216C15.2798 14.1554 15.1669 14.2739 15.0753 14.3985L14.9166 14.5808L14.7488 14.748L14.4131 15.0701C13.9855 15.4392 13.5176 15.7593 13.0183 16.0244L12.6826 16.1976C12.5727 16.2523 12.4598 16.2888 12.3499 16.3344L12.0447 16.462C11.9446 16.4985 11.8428 16.5299 11.7395 16.5562L11.4526 16.6383C11.366 16.6673 11.2772 16.6896 11.1871 16.7051L10.714 16.7902C10.5882 16.8146 10.4607 16.8288 10.3325 16.8328L10.0518 16.854H9.8778L9.81982 16.8388Z" fill="#263238"/>
<path d="M1.57983 14.2375C1.5618 14.215 1.54645 14.1906 1.53405 14.1646L1.40892 13.9518C1.35704 13.8607 1.29295 13.7452 1.22886 13.6054C1.16477 13.4656 1.08236 13.3167 1.01522 13.1374L0.902296 12.8608C0.862621 12.7636 0.832099 12.6603 0.795476 12.5569C0.716125 12.3442 0.65814 12.1132 0.587945 11.8671C0.458052 11.3347 0.369287 10.7932 0.322425 10.2473C0.28625 9.69951 0.293396 9.14978 0.343791 8.60314C0.374311 8.35394 0.398723 8.11386 0.444502 7.89505C0.465866 7.7826 0.481129 7.67624 0.505545 7.57291C0.529961 7.46958 0.55437 7.37537 0.575734 7.26901C0.618462 7.08059 0.673397 6.91648 0.719177 6.77061C0.753845 6.64577 0.795624 6.52299 0.844308 6.40288L0.935863 6.17495C0.943245 6.14717 0.954553 6.12056 0.96944 6.09594C0.965563 6.12501 0.958394 6.15356 0.948074 6.18103L0.871775 6.412C0.835151 6.51228 0.795474 6.63689 0.755799 6.78276C0.716123 6.92863 0.664242 7.08666 0.624567 7.27812C0.60422 7.37335 0.582859 7.47465 0.560478 7.58203C0.536062 7.68232 0.523854 7.79172 0.50249 7.90113C0.459763 8.11994 0.438403 8.35698 0.410935 8.60618C0.362721 9.14892 0.357613 9.69461 0.395669 10.2381C0.439604 10.7808 0.52531 11.3193 0.652033 11.8488C0.719176 12.092 0.777162 12.3229 0.850409 12.5357C0.887032 12.639 0.91756 12.7454 0.954184 12.8396L1.06099 13.1192C1.12814 13.2985 1.20444 13.4504 1.26548 13.5902C1.32652 13.73 1.3845 13.8455 1.43333 13.9397L1.54626 14.1585C1.56174 14.1828 1.57309 14.2095 1.57983 14.2375Z" fill="white"/>
<path d="M9.77885 1.92938C9.70174 1.9373 9.62401 1.9373 9.5469 1.92938H9.27222C9.16845 1.92938 9.04637 1.92938 8.91209 1.92938C8.7778 1.92938 8.63436 1.94457 8.47565 1.9628C8.31695 1.98104 8.1552 2.00231 7.98123 2.02966C7.22516 2.1594 6.49341 2.40331 5.81127 2.75296C5.65561 2.83805 5.50607 2.91402 5.37483 2.99912C5.24785 3.07087 5.1246 3.14897 5.00555 3.23312C4.89262 3.30606 4.79801 3.379 4.70035 3.44282C4.60268 3.50664 4.54469 3.56134 4.4867 3.60996C4.42866 3.66163 4.36639 3.70839 4.30054 3.74976C4.35281 3.69239 4.40889 3.63858 4.46839 3.58869C4.52333 3.53703 4.59352 3.47624 4.67593 3.41243C4.75833 3.34861 4.85294 3.26655 4.96587 3.19058C5.07879 3.1146 5.19476 3.02951 5.3321 2.94745C5.46944 2.8654 5.61289 2.78031 5.76854 2.69521C6.11134 2.51716 6.46744 2.36577 6.83368 2.2424C7.20006 2.12056 7.57563 2.02808 7.95681 1.96585C8.13383 1.94153 8.30168 1.91418 8.46039 1.90506C8.61909 1.89595 8.76559 1.88379 8.89988 1.88075C9.03416 1.87772 9.15624 1.88075 9.26306 1.88075C9.36988 1.88075 9.46145 1.88075 9.53469 1.89899C9.61673 1.90305 9.69834 1.9132 9.77885 1.92938Z" fill="white"/>
<path d="M11.0198 18.4619C10.9664 18.4864 10.91 18.5038 10.852 18.5135C10.7421 18.5439 10.5803 18.5773 10.382 18.6108C9.33275 18.7837 8.25748 18.7109 7.24146 18.398C7.04918 18.3403 6.89353 18.2826 6.78977 18.24C6.73459 18.2209 6.68143 18.1965 6.63106 18.1671C6.68858 18.1758 6.74491 18.1911 6.79892 18.2127C6.90574 18.2491 7.06139 18.2978 7.25672 18.3525C8.27 18.6344 9.33066 18.7057 10.3728 18.5622C10.5742 18.5348 10.736 18.5075 10.8459 18.4862C10.9025 18.4705 10.961 18.4623 11.0198 18.4619Z" fill="white"/>
</svg>
