<svg width="44" height="19" viewBox="0 0 44 19" fill="none" xmlns="http://www.w3.org/2000/svg">
<path d="M44.0003 0H21.9752H0V13.2872L22.0002 18.7096L44.0003 13.2872V0Z" fill="white"/>
<path d="M21.4522 17.8953C21.4605 17.8701 21.4439 17.8365 21.4107 17.8281L20.9702 17.719C20.9452 17.7106 20.912 17.7274 20.9037 17.761C20.8954 17.7861 20.912 17.8197 20.9452 17.8281L21.3857 17.9372C21.3857 17.9372 21.394 17.9372 21.4024 17.9372C21.4273 17.9372 21.4522 17.9204 21.4522 17.8953Z" fill="#717070"/>
<path d="M20.6621 17.7027C20.6704 17.6775 20.6537 17.6439 20.6205 17.6355L20.18 17.5264C20.1551 17.518 20.1218 17.5348 20.1135 17.5684C20.1052 17.6019 20.1218 17.6271 20.1551 17.6355L20.5956 17.7446C20.6039 17.7446 20.6039 17.7446 20.6122 17.7446C20.6371 17.7446 20.6621 17.7278 20.6621 17.7027Z" fill="#717070"/>
<path d="M19.8719 17.5013C19.8802 17.4761 19.8636 17.4425 19.8303 17.4341L19.3898 17.325C19.3566 17.3166 19.3316 17.3334 19.3233 17.367C19.315 17.3922 19.3316 17.4257 19.3649 17.4341L19.8054 17.5433C19.8054 17.5433 19.8137 17.5433 19.822 17.5433C19.8469 17.5433 19.8719 17.5265 19.8719 17.5013Z" fill="#717070"/>
<path d="M19.0827 17.2988C19.091 17.2736 19.0744 17.24 19.0411 17.2316L18.6006 17.1225C18.5757 17.1141 18.5425 17.1309 18.5341 17.1645C18.5258 17.1897 18.5425 17.2232 18.5757 17.2316L19.0162 17.3407C19.0245 17.3407 19.0245 17.3407 19.0328 17.3407C19.0578 17.3407 19.0744 17.324 19.0827 17.2988Z" fill="#717070"/>
<path d="M18.2935 17.0982C18.3018 17.073 18.2852 17.0394 18.252 17.031L17.8115 16.9219C17.7865 16.9135 17.7533 16.9303 17.745 16.9639C17.7366 16.9891 17.7533 17.0226 17.7865 17.031L18.227 17.1402C18.2353 17.1402 18.2353 17.1402 18.2436 17.1402C18.2686 17.1402 18.2935 17.1234 18.2935 17.0982Z" fill="#717070"/>
<path d="M17.5043 16.9052C17.5126 16.88 17.496 16.8464 17.4628 16.838L17.0223 16.7289C16.9973 16.7205 16.9641 16.7373 16.9558 16.7709C16.9475 16.7961 16.9641 16.8296 16.9973 16.838L17.4378 16.9471C17.4461 16.9471 17.4461 16.9471 17.4545 16.9471C17.4794 16.9471 17.496 16.9304 17.5043 16.9052Z" fill="#717070"/>
<path d="M16.7142 16.7034C16.7225 16.6783 16.7058 16.6447 16.6726 16.6363L16.2321 16.5272C16.2072 16.5188 16.1739 16.5356 16.1656 16.5691C16.1573 16.5943 16.1739 16.6279 16.2072 16.6363L16.6477 16.7454C16.656 16.7454 16.656 16.7454 16.6643 16.7454C16.6892 16.7454 16.7058 16.7286 16.7142 16.7034Z" fill="#717070"/>
<path d="M15.9246 16.5021C15.9329 16.4769 15.9163 16.4433 15.883 16.4349L15.4425 16.3258C15.4176 16.3174 15.3844 16.3342 15.3844 16.3678C15.376 16.393 15.3927 16.4265 15.4176 16.4349L15.8581 16.544H15.8664C15.8997 16.544 15.9163 16.5273 15.9246 16.5021Z" fill="#717070"/>
<path d="M15.1348 16.3087C15.1431 16.2835 15.1265 16.25 15.0932 16.2416L14.6527 16.1325C14.6278 16.1241 14.5946 16.1408 14.5862 16.1744C14.5779 16.1996 14.5946 16.2332 14.6278 16.2416L15.0683 16.3507H15.0766C15.1099 16.3423 15.1265 16.3339 15.1348 16.3087Z" fill="#717070"/>
<path d="M14.3456 16.1074C14.3539 16.0822 14.3373 16.0486 14.3041 16.0402L13.8636 15.9311C13.8386 15.9227 13.8054 15.9395 13.7971 15.9731C13.7888 15.9982 13.8054 16.0318 13.8386 16.0402L14.2791 16.1493C14.2874 16.1493 14.2874 16.1493 14.2957 16.1493C14.3207 16.1493 14.3373 16.1325 14.3456 16.1074Z" fill="#717070"/>
<path d="M13.5554 15.906C13.5638 15.8808 13.5471 15.8472 13.5139 15.8388L13.0734 15.7297C13.0485 15.7213 13.0152 15.7381 13.0069 15.7717C12.9986 15.7969 13.0152 15.8304 13.0485 15.8388L13.489 15.948H13.4973C13.5305 15.948 13.5471 15.9312 13.5554 15.906Z" fill="#717070"/>
<path d="M12.7653 15.7046C12.7736 15.6794 12.757 15.6459 12.7237 15.6375L12.2832 15.5284C12.25 15.52 12.225 15.5368 12.2167 15.5703C12.2084 15.5955 12.225 15.6291 12.2583 15.6375L12.6988 15.7466C12.7071 15.7466 12.7071 15.7466 12.7071 15.7466C12.7403 15.7466 12.757 15.7298 12.7653 15.7046Z" fill="#717070"/>
<path d="M11.9761 15.5112C11.9844 15.4861 11.9678 15.4525 11.9345 15.4441L11.494 15.335C11.4691 15.3266 11.4358 15.3434 11.4275 15.3769C11.4192 15.4105 11.4358 15.4357 11.4691 15.4441L11.9096 15.5532C11.9179 15.5532 11.9179 15.5532 11.9262 15.5532C11.9512 15.5448 11.9678 15.5364 11.9761 15.5112Z" fill="#717070"/>
<path d="M11.1879 15.3107C11.1962 15.2855 11.1796 15.2519 11.1463 15.2435L10.7058 15.1344C10.6809 15.126 10.6477 15.1428 10.6393 15.1764C10.631 15.2015 10.6477 15.2351 10.6809 15.2435L11.1214 15.3526C11.1297 15.3526 11.1297 15.3526 11.138 15.3526C11.163 15.3526 11.1796 15.3358 11.1879 15.3107Z" fill="#717070"/>
<path d="M10.3967 15.1085C10.405 15.0834 10.3884 15.0498 10.3552 15.0414L9.91467 14.9323C9.88974 14.9239 9.85649 14.9407 9.84818 14.9742C9.83987 14.9994 9.85649 15.033 9.88974 15.0414L10.3302 15.1505C10.3386 15.1505 10.3386 15.1505 10.3469 15.1505C10.3718 15.1505 10.3884 15.1337 10.3967 15.1085Z" fill="#717070"/>
<path d="M9.60853 14.9079C9.61684 14.8827 9.60022 14.8492 9.56698 14.8408L9.12647 14.7317C9.09323 14.7233 9.0683 14.74 9.05998 14.7736C9.05167 14.8072 9.0683 14.8324 9.10154 14.8408L9.54204 14.9499C9.55035 14.9499 9.55035 14.9499 9.55867 14.9499C9.5836 14.9499 9.60022 14.9331 9.60853 14.9079Z" fill="#717070"/>
<path d="M8.81738 14.7146C8.82569 14.6894 8.80906 14.6558 8.77582 14.6474L8.33532 14.5383C8.31038 14.5299 8.27714 14.5467 8.26883 14.5803C8.26052 14.6055 8.27714 14.639 8.31038 14.6474L8.75089 14.7565C8.7592 14.7565 8.7592 14.7565 8.76751 14.7565C8.79244 14.7481 8.80906 14.7398 8.81738 14.7146Z" fill="#717070"/>
<path d="M8.02918 14.5132C8.03749 14.488 8.02087 14.4544 7.98762 14.4461L7.54712 14.3369C7.52219 14.3285 7.48894 14.3453 7.48063 14.3789C7.47232 14.4041 7.48894 14.4377 7.52219 14.4461L7.96269 14.5552C7.971 14.5552 7.971 14.5552 7.97931 14.5552C8.00424 14.5552 8.02087 14.5384 8.02918 14.5132Z" fill="#717070"/>
<path d="M7.23901 14.3107C7.24732 14.2855 7.2307 14.2519 7.19745 14.2435L6.75695 14.1344C6.73201 14.126 6.69877 14.1428 6.69046 14.1764C6.68215 14.2016 6.69877 14.2352 6.73201 14.2435L7.17252 14.3527C7.18083 14.3527 7.18083 14.3527 7.18914 14.3527C7.20576 14.3527 7.2307 14.3359 7.23901 14.3107Z" fill="#717070"/>
<path d="M6.44884 14.1101C6.45715 14.0849 6.44052 14.0513 6.40728 14.043L5.96678 13.9338C5.94184 13.9254 5.9086 13.9422 5.90029 13.9758C5.89197 14.001 5.9086 14.0346 5.94184 14.043L6.38234 14.1521C6.38234 14.1521 6.39066 14.1521 6.39897 14.1521C6.41559 14.1521 6.44052 14.1353 6.44884 14.1101Z" fill="#717070"/>
<path d="M5.66064 13.9168C5.66895 13.8916 5.65233 13.858 5.61908 13.8496L5.17858 13.7405C5.14533 13.7321 5.1204 13.7489 5.11209 13.7741C5.10378 13.8076 5.1204 13.8328 5.15364 13.8412L5.59415 13.9503H5.60246C5.62739 13.9587 5.65233 13.9419 5.66064 13.9168Z" fill="#717070"/>
<path d="M4.87145 13.7154C4.87976 13.6902 4.86314 13.6566 4.8299 13.6482L4.38939 13.5391C4.35615 13.5307 4.33121 13.5475 4.3229 13.5811C4.31459 13.6062 4.33121 13.6398 4.36446 13.6482L4.80496 13.7573C4.81327 13.7573 4.81327 13.7573 4.82158 13.7573C4.83821 13.7573 4.86314 13.7405 4.87145 13.7154Z" fill="#717070"/>
<path d="M4.0803 13.5148C4.08861 13.4896 4.07198 13.456 4.03874 13.4476L3.59824 13.3385C3.5733 13.3301 3.54006 13.3469 3.53175 13.3805C3.52343 13.4056 3.54006 13.4392 3.5733 13.4476L4.0138 13.5567C4.02212 13.5567 4.02212 13.5567 4.03043 13.5567C4.04705 13.5567 4.07198 13.5399 4.0803 13.5148Z" fill="#717070"/>
<path d="M3.2921 13.3206C3.30041 13.2955 3.28379 13.2619 3.25054 13.2535L2.81004 13.1444C2.77679 13.136 2.75186 13.1528 2.74355 13.1863C2.73524 13.2115 2.75186 13.2451 2.7851 13.2535L3.22561 13.3626C3.23392 13.3626 3.23392 13.3626 3.24223 13.3626C3.25885 13.3542 3.28379 13.3374 3.2921 13.3206Z" fill="#717070"/>
<path d="M2.50094 13.12C2.50925 13.0948 2.49263 13.0613 2.45938 13.0529L2.01888 12.9437C1.98564 12.9354 1.9607 12.9521 1.95239 12.9857C1.94408 13.0109 1.9607 13.0445 1.99395 13.0529L2.43445 13.162H2.44276C2.46769 13.162 2.49263 13.1452 2.50094 13.12Z" fill="#717070"/>
<path d="M1.71274 12.9179C1.72105 12.8927 1.70443 12.8592 1.67118 12.8508L1.23068 12.7416C1.20575 12.7332 1.1725 12.75 1.16419 12.7836C1.15588 12.8088 1.1725 12.8424 1.20575 12.8508L1.64625 12.9599C1.65456 12.9599 1.65456 12.9599 1.65456 12.9599C1.6795 12.9599 1.70443 12.9431 1.71274 12.9179Z" fill="#717070"/>
<path d="M0.913591 12.7159C0.921903 12.6908 0.90528 12.6572 0.872034 12.6488L0.689185 12.5984V12.4138C0.689185 12.3802 0.664251 12.3634 0.639317 12.3634C0.614383 12.3634 0.589448 12.3886 0.589448 12.4138V12.6404C0.589448 12.6404 0.581137 12.6824 0.631005 12.6908C0.672562 12.6992 0.8471 12.7495 0.8471 12.7495C0.855412 12.7495 0.855412 12.7495 0.863723 12.7495C0.888657 12.7579 0.913591 12.7411 0.913591 12.7159Z" fill="#717070"/>
<path d="M0.697544 12.0453V11.5668C0.697544 11.5417 0.67261 11.5165 0.647675 11.5165C0.622741 11.5165 0.597807 11.5417 0.597807 11.5668V12.0453C0.597807 12.0705 0.622741 12.0957 0.647675 12.0957C0.67261 12.0957 0.697544 12.0705 0.697544 12.0453Z" fill="#717070"/>
<path d="M0.697544 11.1888V10.7104C0.697544 10.6768 0.67261 10.66 0.647675 10.66C0.622741 10.66 0.597807 10.6852 0.597807 10.7104V11.1888C0.597807 11.214 0.622741 11.2392 0.647675 11.2392C0.67261 11.2392 0.697544 11.214 0.697544 11.1888Z" fill="#717070"/>
<path d="M0.697544 10.3327V9.8627C0.697544 9.82913 0.67261 9.81234 0.647675 9.81234C0.622741 9.81234 0.597807 9.83752 0.597807 9.8627V10.3327C0.597807 10.3663 0.622741 10.3831 0.647675 10.3831C0.67261 10.3831 0.697544 10.3579 0.697544 10.3327Z" fill="#717070"/>
<path d="M0.697544 9.47631V8.99787C0.697544 8.97268 0.67261 8.9475 0.647675 8.9475C0.622741 8.9475 0.597807 8.97268 0.597807 8.99787V9.47631C0.597807 9.50988 0.622741 9.52667 0.647675 9.52667C0.67261 9.52667 0.697544 9.50149 0.697544 9.47631Z" fill="#717070"/>
<path d="M0.697544 8.6206V8.14216C0.697544 8.10858 0.67261 8.09179 0.647675 8.09179C0.622741 8.09179 0.597807 8.11697 0.597807 8.14216V8.6206C0.597807 8.64578 0.622741 8.67096 0.647675 8.67096C0.67261 8.67096 0.697544 8.64578 0.697544 8.6206Z" fill="#717070"/>
<path d="M0.697544 7.76378V7.28534C0.697544 7.25176 0.67261 7.23497 0.647675 7.23497C0.622741 7.23497 0.597807 7.26015 0.597807 7.28534V7.76378C0.597807 7.78896 0.622741 7.81414 0.647675 7.81414C0.67261 7.82253 0.697544 7.79735 0.697544 7.76378Z" fill="#717070"/>
<path d="M0.697544 6.90807V6.42962C0.697544 6.40444 0.67261 6.37926 0.647675 6.37926C0.622741 6.37926 0.597807 6.40444 0.597807 6.42962V6.90807C0.597807 6.93325 0.622741 6.95843 0.647675 6.95843C0.67261 6.96682 0.697544 6.94164 0.697544 6.90807Z" fill="#717070"/>
<path d="M0.697544 6.05199V5.57354C0.697544 5.54836 0.67261 5.52318 0.647675 5.52318C0.622741 5.52318 0.597807 5.54836 0.597807 5.57354V6.05199C0.597807 6.07717 0.622741 6.10235 0.647675 6.10235C0.67261 6.11074 0.697544 6.08556 0.697544 6.05199Z" fill="#717070"/>
<path d="M0.697544 5.1959V4.72585C0.697544 4.69227 0.67261 4.67549 0.647675 4.67549C0.622741 4.67549 0.597807 4.70067 0.597807 4.72585V5.1959C0.597807 5.22947 0.622741 5.25465 0.647675 5.25465C0.67261 5.25465 0.697544 5.22947 0.697544 5.1959Z" fill="#717070"/>
<path d="M0.697544 4.33945V3.8694C0.697544 3.84422 0.67261 3.81904 0.647675 3.81904C0.622741 3.81904 0.597807 3.84422 0.597807 3.8694V4.34784C0.597807 4.38142 0.622741 4.3982 0.647675 4.3982C0.67261 4.3982 0.697544 4.37302 0.697544 4.33945Z" fill="#717070"/>
<path d="M0.697544 3.49176V3.01332C0.697544 2.97974 0.67261 2.96296 0.647675 2.96296C0.622741 2.96296 0.597807 2.98814 0.597807 3.01332V3.49176C0.597807 3.51694 0.622741 3.54212 0.647675 3.54212C0.67261 3.54212 0.697544 3.51694 0.697544 3.49176Z" fill="#717070"/>
<path d="M0.697544 2.63608V2.15764C0.697544 2.12406 0.67261 2.10728 0.647675 2.10728C0.622741 2.10728 0.597807 2.13246 0.597807 2.15764V2.63608C0.597807 2.66966 0.622741 2.69484 0.647675 2.69484C0.67261 2.68644 0.697544 2.66126 0.697544 2.63608Z" fill="#717070"/>
<path d="M0.697544 1.77923V1.30079C0.697544 1.26721 0.67261 1.25043 0.647675 1.25043C0.622741 1.25043 0.597807 1.27561 0.597807 1.30079V1.77923C0.597807 1.80441 0.622741 1.82959 0.647675 1.82959C0.67261 1.82959 0.697544 1.80441 0.697544 1.77923Z" fill="#717070"/>
<path d="M1.38012 12.3556H1.37181C1.37181 12.3556 1.19727 12.3136 1.1474 12.2968C1.10584 12.2884 1.10584 12.2465 1.10584 12.2465V12.0198C1.10584 11.9946 1.13078 11.9695 1.15571 11.9695C1.18065 11.9695 1.20558 11.9946 1.20558 12.0198V12.2045L1.38843 12.2465C1.41336 12.2548 1.42999 12.28 1.42999 12.3136C1.42999 12.3388 1.40505 12.3556 1.38012 12.3556Z" fill="#717070"/>
<path d="M1.21347 1.44329V1.26702H1.38801C1.42126 1.26702 1.43788 1.24184 1.43788 1.21666C1.43788 1.18309 1.41295 1.1663 1.38801 1.1663H1.1636C1.13036 1.1663 1.11374 1.18309 1.11374 1.21666V1.44329C1.11374 1.46847 1.13867 1.49365 1.1636 1.49365C1.18854 1.49365 1.21347 1.46847 1.21347 1.44329Z" fill="#717070"/>
<path d="M1.21347 11.6421V11.1721C1.21347 11.1469 1.18854 11.1217 1.1636 11.1217C1.13036 11.1217 1.11374 11.1469 1.11374 11.1721V11.6421C1.11374 11.6757 1.13867 11.6925 1.1636 11.6925C1.18854 11.6925 1.21347 11.6673 1.21347 11.6421Z" fill="#717070"/>
<path d="M1.21347 10.7857V10.3156C1.21347 10.2821 1.18854 10.2653 1.1636 10.2653C1.13036 10.2653 1.11374 10.2905 1.11374 10.3156V10.7857C1.11374 10.8109 1.13867 10.8361 1.1636 10.8361C1.18854 10.8445 1.21347 10.8193 1.21347 10.7857Z" fill="#717070"/>
<path d="M1.21347 9.93763V9.46758C1.21347 9.43401 1.18854 9.41722 1.1636 9.41722C1.13036 9.41722 1.11374 9.4424 1.11374 9.46758V9.93763C1.11374 9.97121 1.13867 9.98799 1.1636 9.98799C1.18854 9.99639 1.21347 9.97121 1.21347 9.93763Z" fill="#717070"/>
<path d="M1.21347 9.08991V8.61986C1.21347 8.59468 1.18854 8.5695 1.1636 8.5695C1.13036 8.5695 1.11374 8.59468 1.11374 8.61986V9.08991C1.11374 9.11509 1.13867 9.14027 1.1636 9.14027C1.18854 9.14027 1.21347 9.11509 1.21347 9.08991Z" fill="#717070"/>
<path d="M1.21347 8.24335V7.7733C1.21347 7.73973 1.18854 7.72294 1.1636 7.72294C1.13036 7.72294 1.11374 7.74812 1.11374 7.7733V8.24335C1.11374 8.27693 1.13867 8.29371 1.1636 8.29371C1.18854 8.29371 1.21347 8.26853 1.21347 8.24335Z" fill="#717070"/>
<path d="M1.21347 7.38653V6.91648C1.21347 6.8913 1.18854 6.86612 1.1636 6.86612C1.13036 6.86612 1.11374 6.8913 1.11374 6.91648V7.38653C1.11374 7.42011 1.13867 7.43689 1.1636 7.43689C1.18854 7.44529 1.21347 7.42011 1.21347 7.38653Z" fill="#717070"/>
<path d="M1.21347 6.53884V6.06879C1.21347 6.04361 1.18854 6.01843 1.1636 6.01843C1.13036 6.01843 1.11374 6.04361 1.11374 6.06879V6.53884C1.11374 6.57241 1.13867 6.59759 1.1636 6.59759C1.18854 6.59759 1.21347 6.57241 1.21347 6.53884Z" fill="#717070"/>
<path d="M1.21347 5.69111V5.22106C1.21347 5.19588 1.18854 5.1707 1.1636 5.1707C1.13036 5.1707 1.11374 5.19588 1.11374 5.22106V5.69111C1.11374 5.72469 1.13867 5.74147 1.1636 5.74147C1.18854 5.74147 1.21347 5.71629 1.21347 5.69111Z" fill="#717070"/>
<path d="M1.21347 4.84341V4.37337C1.21347 4.34819 1.18854 4.32301 1.1636 4.32301C1.13036 4.32301 1.11374 4.34819 1.11374 4.37337V4.84341C1.11374 4.87699 1.13867 4.90217 1.1636 4.90217C1.18854 4.89378 1.21347 4.8686 1.21347 4.84341Z" fill="#717070"/>
<path d="M1.21347 3.98733V3.51729C1.21347 3.48371 1.18854 3.46692 1.1636 3.46692C1.13036 3.46692 1.11374 3.49211 1.11374 3.51729V3.98733C1.11374 4.02091 1.13867 4.0377 1.1636 4.0377C1.18854 4.04609 1.21347 4.02091 1.21347 3.98733Z" fill="#717070"/>
<path d="M1.21347 3.13887V2.66882C1.21347 2.63525 1.18854 2.61846 1.1636 2.61846C1.13036 2.61846 1.11374 2.64364 1.11374 2.66882V3.13887C1.11374 3.17244 1.13867 3.18923 1.1636 3.18923C1.18854 3.19762 1.21347 3.17244 1.21347 3.13887Z" fill="#717070"/>
<path d="M1.21347 2.29194V1.8219C1.21347 1.79672 1.18854 1.77153 1.1636 1.77153C1.13036 1.77153 1.11374 1.79672 1.11374 1.8219V2.29194C1.11374 2.32552 1.13867 2.3507 1.1636 2.3507C1.18854 2.34231 1.21347 2.31713 1.21347 2.29194Z" fill="#717070"/>
<path d="M21.8431 1.20868C21.8431 1.18349 21.8182 1.15831 21.7933 1.15831H21.3361C21.3029 1.15831 21.2863 1.18349 21.2863 1.20868C21.2863 1.24225 21.3112 1.25904 21.3361 1.25904H21.7933C21.8182 1.26743 21.8431 1.24225 21.8431 1.20868Z" fill="#717070"/>
<path d="M21.0273 1.20868C21.0273 1.18349 21.0024 1.15831 20.9775 1.15831H20.5203C20.4871 1.15831 20.4705 1.18349 20.4705 1.20868C20.4705 1.24225 20.4954 1.25904 20.5203 1.25904H20.9775C21.0024 1.26743 21.0273 1.24225 21.0273 1.20868Z" fill="#717070"/>
<path d="M20.2135 1.20868C20.2135 1.18349 20.1885 1.15831 20.1636 1.15831H19.7065C19.6732 1.15831 19.6566 1.18349 19.6566 1.20868C19.6566 1.24225 19.6815 1.25904 19.7065 1.25904H20.1636C20.1885 1.26743 20.2135 1.24225 20.2135 1.20868Z" fill="#717070"/>
<path d="M19.3986 1.20868C19.3986 1.18349 19.3737 1.15831 19.3488 1.15831H18.8917C18.8584 1.15831 18.8418 1.18349 18.8418 1.20868C18.8418 1.24225 18.8667 1.25904 18.8917 1.25904H19.3488C19.3737 1.26743 19.3986 1.24225 19.3986 1.20868Z" fill="#717070"/>
<path d="M18.5848 1.20868C18.5848 1.18349 18.5599 1.15831 18.5349 1.15831H18.0778C18.0446 1.15831 18.0279 1.18349 18.0279 1.20868C18.0279 1.24225 18.0529 1.25904 18.0778 1.25904H18.5349C18.5599 1.26743 18.5848 1.24225 18.5848 1.20868Z" fill="#717070"/>
<path d="M17.7611 1.20868C17.7611 1.18349 17.7362 1.15831 17.7112 1.15831H17.2541C17.2208 1.15831 17.2042 1.18349 17.2042 1.20868C17.2042 1.24225 17.2292 1.25904 17.2541 1.25904H17.7112C17.7445 1.26743 17.7611 1.24225 17.7611 1.20868Z" fill="#717070"/>
<path d="M16.9467 1.20868C16.9467 1.18349 16.9217 1.15831 16.8885 1.15831H16.4314C16.3981 1.15831 16.3815 1.18349 16.3815 1.20868C16.3815 1.24225 16.4064 1.25904 16.4314 1.25904H16.8885C16.9217 1.26743 16.9467 1.24225 16.9467 1.20868Z" fill="#717070"/>
<path d="M16.133 1.20868C16.133 1.18349 16.108 1.15831 16.0831 1.15831H15.6343C15.601 1.15831 15.5844 1.18349 15.5844 1.20868C15.5844 1.24225 15.6094 1.25904 15.6343 1.25904H16.0831C16.108 1.26743 16.133 1.24225 16.133 1.20868Z" fill="#717070"/>
<path d="M15.3166 1.20868C15.3166 1.18349 15.2917 1.15831 15.2667 1.15831H14.8096C14.7847 1.15831 14.7597 1.18349 14.7597 1.20868C14.7597 1.24225 14.7847 1.25904 14.8096 1.25904H15.2667C15.2917 1.26743 15.3166 1.24225 15.3166 1.20868Z" fill="#717070"/>
<path d="M14.5027 1.20868C14.5027 1.18349 14.4778 1.15831 14.4529 1.15831H13.9957C13.9708 1.15831 13.9459 1.18349 13.9459 1.20868C13.9459 1.24225 13.9708 1.25904 13.9957 1.25904H14.4529C14.4778 1.26743 14.5027 1.24225 14.5027 1.20868Z" fill="#717070"/>
<path d="M13.68 1.20868C13.68 1.18349 13.6551 1.15831 13.6301 1.15831H13.173C13.1398 1.15831 13.1232 1.18349 13.1232 1.20868C13.1232 1.24225 13.1481 1.25904 13.173 1.25904H13.6301C13.6551 1.26743 13.68 1.24225 13.68 1.20868Z" fill="#717070"/>
<path d="M12.8662 1.20868C12.8662 1.18349 12.8412 1.15831 12.808 1.15831H12.3592C12.3259 1.15831 12.3093 1.18349 12.3093 1.20868C12.3093 1.24225 12.3342 1.25904 12.3592 1.25904H12.8163C12.8412 1.26743 12.8662 1.24225 12.8662 1.20868Z" fill="#717070"/>
<path d="M12.0523 1.20868C12.0523 1.18349 12.0274 1.15831 12.0025 1.15831H11.5453C11.5204 1.15831 11.4955 1.18349 11.4955 1.20868C11.4955 1.24225 11.5204 1.25904 11.5453 1.25904H12.0025C12.0274 1.26743 12.0523 1.24225 12.0523 1.20868Z" fill="#717070"/>
<path d="M11.2365 1.20868C11.2365 1.18349 11.2116 1.15831 11.1866 1.15831H10.7295C10.6963 1.15831 10.6796 1.18349 10.6796 1.20868C10.6796 1.24225 10.7046 1.25904 10.7295 1.25904H11.1866C11.2116 1.26743 11.2365 1.24225 11.2365 1.20868Z" fill="#717070"/>
<path d="M10.4143 1.20868C10.4143 1.18349 10.3894 1.15831 10.3645 1.15831H9.91566C9.88242 1.15831 9.86579 1.18349 9.86579 1.20868C9.86579 1.24225 9.89073 1.25904 9.91566 1.25904H10.3645C10.3977 1.26743 10.4143 1.24225 10.4143 1.20868Z" fill="#717070"/>
<path d="M9.59894 1.20868C9.59894 1.18349 9.57401 1.15831 9.54907 1.15831H9.09195C9.05871 1.15831 9.04208 1.18349 9.04208 1.20868C9.04208 1.24225 9.06702 1.25904 9.09195 1.25904H9.54907C9.57401 1.26743 9.59894 1.24225 9.59894 1.20868Z" fill="#717070"/>
<path d="M8.78411 1.20868C8.78411 1.18349 8.75918 1.15831 8.73424 1.15831H8.27712C8.24387 1.15831 8.22725 1.18349 8.22725 1.20868C8.22725 1.24225 8.25218 1.25904 8.27712 1.25904H8.73424C8.75918 1.26743 8.78411 1.24225 8.78411 1.20868Z" fill="#717070"/>
<path d="M7.97026 1.20868C7.97026 1.18349 7.94533 1.15831 7.9204 1.15831H7.46327C7.43003 1.15831 7.4134 1.18349 7.4134 1.20868C7.4134 1.24225 7.43834 1.25904 7.46327 1.25904H7.9204C7.94533 1.26743 7.97026 1.24225 7.97026 1.20868Z" fill="#717070"/>
<path d="M7.15642 1.20868C7.15642 1.18349 7.13148 1.15831 7.10655 1.15831H6.64942C6.62449 1.15831 6.59956 1.18349 6.59956 1.20868C6.59956 1.24225 6.62449 1.25904 6.64942 1.25904H7.10655C7.13148 1.26743 7.15642 1.24225 7.15642 1.20868Z" fill="#717070"/>
<path d="M6.3406 1.20868C6.3406 1.18349 6.31566 1.15831 6.29073 1.15831H5.8336C5.80036 1.15831 5.78374 1.18349 5.78374 1.20868C5.78374 1.24225 5.80867 1.25904 5.8336 1.25904H6.29073C6.31566 1.26743 6.3406 1.24225 6.3406 1.20868Z" fill="#717070"/>
<path d="M5.51787 1.20868C5.51787 1.18349 5.49294 1.15831 5.468 1.15831H5.01088C4.98595 1.15831 4.96101 1.18349 4.96101 1.20868C4.96101 1.24225 4.98595 1.25904 5.01088 1.25904H5.468C5.49294 1.26743 5.51787 1.24225 5.51787 1.20868Z" fill="#717070"/>
<path d="M4.70403 1.20868C4.70403 1.18349 4.67909 1.15831 4.65416 1.15831H4.19703C4.16379 1.15831 4.14716 1.18349 4.14716 1.20868C4.14716 1.24225 4.1721 1.25904 4.19703 1.25904H4.65416C4.67909 1.26743 4.70403 1.24225 4.70403 1.20868Z" fill="#717070"/>
<path d="M3.89018 1.20868C3.89018 1.18349 3.86525 1.15831 3.84031 1.15831H3.38319C3.34994 1.15831 3.33332 1.18349 3.33332 1.20868C3.33332 1.24225 3.35825 1.25904 3.38319 1.25904H3.84031C3.86525 1.26743 3.89018 1.24225 3.89018 1.20868Z" fill="#717070"/>
<path d="M3.07436 1.20868C3.07436 1.18349 3.04943 1.15831 3.02449 1.15831H2.56737C2.54243 1.15831 2.5175 1.18349 2.5175 1.20868C2.5175 1.24225 2.54243 1.25904 2.56737 1.25904H3.02449C3.04943 1.26743 3.07436 1.24225 3.07436 1.20868Z" fill="#717070"/>
<path d="M2.26108 1.20868C2.26108 1.18349 2.23615 1.15831 2.21121 1.15831H1.7624C1.73746 1.15831 1.71253 1.18349 1.71253 1.20868C1.71253 1.24225 1.73746 1.25904 1.7624 1.25904H2.21121C2.23615 1.26743 2.26108 1.24225 2.26108 1.20868Z" fill="#717070"/>
<path d="M21.4438 17.3669C21.4521 17.3417 21.4355 17.3082 21.4022 17.2998L20.9534 17.1906C20.9285 17.1822 20.8952 17.199 20.8869 17.2326C20.8786 17.2578 20.8952 17.2914 20.9285 17.2998L21.369 17.4089C21.3773 17.4089 21.3773 17.4089 21.3856 17.4089C21.4188 17.4005 21.4438 17.3837 21.4438 17.3669Z" fill="#717070"/>
<path d="M20.6463 17.1564C20.6546 17.1312 20.638 17.0977 20.6047 17.0893L20.1642 16.9802C20.1393 16.9718 20.106 16.9885 20.0977 17.0221C20.0894 17.0473 20.106 17.0809 20.1393 17.0893L20.5798 17.1984C20.5881 17.1984 20.5881 17.1984 20.5964 17.1984C20.6213 17.1984 20.638 17.1816 20.6463 17.1564Z" fill="#717070"/>
<path d="M19.8472 16.9551C19.8555 16.9299 19.8389 16.8963 19.8057 16.8879L19.3652 16.7788C19.3402 16.7704 19.307 16.7872 19.2987 16.8208C19.2904 16.8543 19.307 16.8795 19.3402 16.8879L19.7807 16.997C19.789 16.997 19.789 16.997 19.789 16.997C19.814 16.997 19.8389 16.9802 19.8472 16.9551Z" fill="#717070"/>
<path d="M19.0496 16.7545C19.0579 16.7293 19.0413 16.6957 19.008 16.6873L18.5592 16.5782C18.5343 16.5698 18.501 16.5866 18.4927 16.6202C18.4844 16.6453 18.501 16.6789 18.5343 16.6873L18.9831 16.7964C18.9831 16.7964 18.9914 16.7964 18.9997 16.7964C19.0163 16.7964 19.0413 16.7796 19.0496 16.7545Z" fill="#717070"/>
<path d="M18.2432 16.5523C18.2515 16.5271 18.2349 16.4936 18.2016 16.4852L17.7611 16.3761C17.7362 16.3677 17.703 16.3844 17.6946 16.418C17.6863 16.4432 17.703 16.4768 17.7362 16.4852L18.185 16.5943H18.1933C18.2183 16.5943 18.2349 16.5775 18.2432 16.5523Z" fill="#717070"/>
<path d="M17.4461 16.351C17.4544 16.3174 17.4378 16.2922 17.4046 16.2838L16.9641 16.1747C16.9308 16.1663 16.9059 16.1831 16.8976 16.2167C16.8893 16.2418 16.9059 16.2754 16.9391 16.2838L17.3879 16.3929C17.3963 16.3929 17.3963 16.3929 17.4046 16.3929C17.4129 16.3929 17.4378 16.3761 17.4461 16.351Z" fill="#717070"/>
<path d="M16.6475 16.1504C16.6558 16.1252 16.6392 16.0916 16.6059 16.0832L16.1571 15.9741C16.1322 15.9657 16.0989 15.9825 16.0906 16.0161C16.0823 16.0412 16.0989 16.0748 16.1322 16.0832L16.581 16.1923C16.5893 16.1923 16.5893 16.1923 16.5976 16.1923C16.6142 16.1923 16.6392 16.1755 16.6475 16.1504Z" fill="#717070"/>
<path d="M15.8421 15.9471C15.8504 15.9219 15.8338 15.8884 15.8005 15.88L15.36 15.7709C15.3351 15.7625 15.3019 15.7793 15.2936 15.8044C15.2852 15.838 15.3019 15.8632 15.3351 15.8716L15.7839 15.9807C15.7839 15.9807 15.7922 15.9807 15.8005 15.9807C15.8172 15.9891 15.8338 15.9723 15.8421 15.9471Z" fill="#717070"/>
<path d="M15.0445 15.7465C15.0528 15.7213 15.0362 15.6877 15.0029 15.6793L14.5541 15.5702C14.5292 15.5618 14.4959 15.5786 14.4876 15.6122C14.4793 15.6374 14.4959 15.6709 14.5292 15.6793L14.9697 15.7885C14.978 15.7885 14.978 15.7885 14.9863 15.7885C15.0195 15.7885 15.0362 15.7717 15.0445 15.7465Z" fill="#717070"/>
<path d="M14.2375 15.5451C14.2458 15.5199 14.2292 15.4864 14.196 15.478L13.7472 15.3689C13.7222 15.3605 13.689 15.3773 13.6807 15.4108C13.6723 15.436 13.689 15.4696 13.7222 15.478L14.1627 15.5871C14.171 15.5871 14.171 15.5871 14.1793 15.5871C14.2126 15.5871 14.2375 15.5703 14.2375 15.5451Z" fill="#717070"/>
<path d="M13.441 15.3438C13.4493 15.3186 13.4327 15.285 13.3995 15.2766L12.959 15.1675C12.9257 15.1591 12.9008 15.1759 12.8925 15.2095C12.8842 15.243 12.9008 15.2682 12.934 15.2766L13.3828 15.3857H13.3911C13.4161 15.3857 13.4327 15.3689 13.441 15.3438Z" fill="#717070"/>
<path d="M12.6414 15.1417C12.6497 15.1165 12.6331 15.0829 12.5998 15.0745L12.151 14.9654C12.1261 14.957 12.0928 14.9738 12.0845 14.999C12.0762 15.0326 12.0928 15.0578 12.1261 15.0662L12.5666 15.1753C12.5666 15.1753 12.5749 15.1753 12.5832 15.1753C12.6165 15.1837 12.6331 15.1669 12.6414 15.1417Z" fill="#717070"/>
<path d="M11.835 14.9411C11.8433 14.9159 11.8267 14.8823 11.7935 14.8739L11.353 14.7648C11.328 14.7564 11.2948 14.7732 11.2865 14.8068C11.2782 14.8403 11.2948 14.8655 11.328 14.8739L11.7768 14.983C11.7852 14.983 11.7852 14.983 11.7935 14.983C11.8101 14.983 11.835 14.9662 11.835 14.9411Z" fill="#717070"/>
<path d="M11.0374 14.7386C11.0457 14.7134 11.0291 14.6798 10.9958 14.6714L10.547 14.5623C10.5221 14.5539 10.4888 14.5707 10.4805 14.6043C10.4722 14.6294 10.4888 14.663 10.5221 14.6714L10.9626 14.7805C10.9709 14.7805 10.9709 14.7805 10.9792 14.7805C11.0124 14.7805 11.0291 14.7637 11.0374 14.7386Z" fill="#717070"/>
<path d="M10.2393 14.5379C10.2476 14.5127 10.231 14.4792 10.1978 14.4708L9.74894 14.3617C9.72401 14.3533 9.69076 14.3701 9.68245 14.4036C9.67414 14.4372 9.69076 14.4624 9.72401 14.4708L10.1728 14.5883C10.1728 14.5883 10.1811 14.5883 10.1894 14.5883C10.2144 14.5799 10.231 14.5631 10.2393 14.5379Z" fill="#717070"/>
<path d="M9.44224 14.3366C9.45055 14.3114 9.43393 14.2778 9.40068 14.2694L8.95187 14.1603C8.91862 14.1519 8.89369 14.1687 8.88538 14.2023C8.87707 14.2358 8.89369 14.261 8.92693 14.2694L9.36744 14.3785C9.37575 14.3785 9.37575 14.3785 9.38406 14.3785C9.40899 14.3701 9.43393 14.3617 9.44224 14.3366Z" fill="#717070"/>
<path d="M8.6353 14.1345C8.64361 14.1093 8.62699 14.0757 8.59374 14.0673L8.14493 13.9582C8.11999 13.9498 8.08675 13.9666 8.07844 14.0002C8.07012 14.0253 8.08675 14.0589 8.11999 14.0673L8.56881 14.1764C8.57712 14.1764 8.57712 14.1764 8.58543 14.1764C8.61036 14.1764 8.62699 14.1596 8.6353 14.1345Z" fill="#717070"/>
<path d="M7.8378 13.9331C7.84611 13.9079 7.82949 13.8743 7.79624 13.8659L7.35574 13.7568C7.33081 13.7484 7.29756 13.7652 7.28925 13.7988C7.28094 13.8324 7.29756 13.8575 7.33081 13.8659L7.77962 13.9751C7.78793 13.9751 7.78793 13.9751 7.79624 13.9751C7.81287 13.9667 7.82949 13.9583 7.8378 13.9331Z" fill="#717070"/>
<path d="M7.04016 13.7325C7.04847 13.7073 7.03185 13.6737 6.9986 13.6653L6.54979 13.5562C6.52485 13.5478 6.49161 13.5646 6.4833 13.5982C6.47499 13.6234 6.49161 13.657 6.52485 13.6653L6.97367 13.7745C6.98198 13.7745 6.98198 13.7745 6.99029 13.7745C7.00691 13.7661 7.03185 13.7577 7.04016 13.7325Z" fill="#717070"/>
<path d="M6.23378 13.53C6.24209 13.5048 6.22547 13.4712 6.19223 13.4628L5.75172 13.3537C5.72679 13.3453 5.69354 13.3621 5.68523 13.3957C5.67692 13.4209 5.69354 13.4544 5.72679 13.4628L6.16729 13.5804C6.1756 13.5804 6.1756 13.5804 6.18391 13.5804C6.20885 13.5636 6.23378 13.5468 6.23378 13.53Z" fill="#717070"/>
<path d="M5.43713 13.3206C5.44544 13.2955 5.42881 13.2619 5.39557 13.2535L4.94676 13.1444C4.92182 13.136 4.88858 13.1528 4.88027 13.1863C4.87195 13.2115 4.88858 13.2451 4.92182 13.2535L5.36232 13.3626H5.37064C5.41219 13.3626 5.42881 13.3458 5.43713 13.3206Z" fill="#717070"/>
<path d="M4.63766 13.12C4.64597 13.0948 4.62935 13.0613 4.5961 13.0529L4.1556 12.9437C4.12235 12.9354 4.09742 12.9521 4.08911 12.9857C4.0808 13.0109 4.09742 13.0445 4.13066 13.0529L4.57117 13.162H4.57948C4.60441 13.162 4.62935 13.1452 4.63766 13.12Z" fill="#717070"/>
<path d="M3.83114 12.9179C3.83945 12.8927 3.82282 12.8592 3.78958 12.8508L3.34077 12.7416C3.31583 12.7332 3.28259 12.75 3.27427 12.7836C3.26596 12.8088 3.28259 12.8424 3.31583 12.8508L3.75633 12.9599C3.76464 12.9599 3.76464 12.9599 3.77296 12.9599C3.8062 12.9599 3.82282 12.9431 3.83114 12.9179Z" fill="#717070"/>
<path d="M3.03364 12.7165C3.04195 12.6914 3.02533 12.6578 2.99208 12.6494L2.55158 12.5403C2.51834 12.5319 2.4934 12.5487 2.48509 12.5822C2.47678 12.6074 2.4934 12.641 2.52665 12.6494L2.96715 12.7585H2.97546C3.00871 12.7585 3.02533 12.7417 3.03364 12.7165Z" fill="#717070"/>
<path d="M2.23698 12.5152C2.24529 12.49 2.22867 12.4564 2.19543 12.448L1.74661 12.3389C1.72168 12.3305 1.68843 12.3473 1.68012 12.3809C1.67181 12.4145 1.68843 12.4396 1.72168 12.448L2.17049 12.5571C2.1788 12.5571 2.1788 12.5571 2.18711 12.5571C2.20374 12.5571 2.22867 12.5404 2.23698 12.5152Z" fill="#717070"/>
<path d="M22.5406 17.9375C22.549 17.9375 22.549 17.9375 22.5573 17.9375L22.9978 17.8284C23.0227 17.82 23.0393 17.7948 23.0393 17.7612C23.031 17.736 23.0061 17.7108 22.9728 17.7192L22.5323 17.8284C22.5074 17.8368 22.4908 17.8619 22.4908 17.8955C22.4991 17.9207 22.5157 17.9375 22.5406 17.9375Z" fill="#717070"/>
<path d="M23.33 17.7441C23.3383 17.7441 23.3383 17.7441 23.3466 17.7441L23.7871 17.635C23.812 17.6266 23.8287 17.6014 23.8287 17.5679C23.8203 17.5427 23.7954 17.5175 23.7622 17.5259L23.3217 17.635C23.2884 17.6434 23.2718 17.6686 23.2801 17.7022C23.2884 17.7273 23.305 17.7441 23.33 17.7441Z" fill="#717070"/>
<path d="M24.1184 17.5428C24.1268 17.5428 24.1268 17.5428 24.1268 17.5428L24.5673 17.4336C24.5922 17.4252 24.6088 17.4001 24.6088 17.3665C24.6005 17.3413 24.5756 17.3161 24.5423 17.3245L24.1018 17.4336C24.0769 17.442 24.0603 17.4672 24.0603 17.5008C24.0769 17.526 24.0935 17.5428 24.1184 17.5428Z" fill="#717070"/>
<path d="M24.9082 17.3407C24.9165 17.3407 24.9165 17.3407 24.9248 17.3407L25.3653 17.2316C25.3903 17.2232 25.4069 17.1981 25.4069 17.1645C25.3986 17.1309 25.3736 17.1141 25.3404 17.1225L24.8999 17.2316C24.875 17.24 24.8583 17.2652 24.8583 17.2988C24.8666 17.324 24.8833 17.3407 24.9082 17.3407Z" fill="#717070"/>
<path d="M25.6984 17.1399C25.6984 17.1399 25.7067 17.1399 25.715 17.1399L26.1555 17.0308C26.1804 17.0224 26.197 16.9972 26.197 16.9636C26.1887 16.9384 26.1638 16.9217 26.1306 16.9217L25.6901 17.0308C25.6651 17.0392 25.6485 17.0644 25.6485 17.0979C25.6568 17.1231 25.6734 17.1399 25.6984 17.1399Z" fill="#717070"/>
<path d="M26.488 16.9467H26.4963L26.9368 16.8375C26.9617 16.8291 26.9867 16.804 26.9783 16.7704C26.97 16.7452 26.9451 16.72 26.9119 16.7284L26.4713 16.8375C26.4464 16.8459 26.4298 16.8711 26.4298 16.9047C26.4464 16.9299 26.463 16.9467 26.488 16.9467Z" fill="#717070"/>
<path d="M27.2775 16.7461C27.2858 16.7461 27.2858 16.7461 27.2941 16.7461L27.7346 16.6369C27.7596 16.6285 27.7762 16.6034 27.7762 16.5698C27.7679 16.5446 27.7429 16.5194 27.7097 16.5278L27.2692 16.6369C27.2442 16.6453 27.2276 16.6705 27.2359 16.7041C27.2359 16.7293 27.2526 16.7461 27.2775 16.7461Z" fill="#717070"/>
<path d="M28.0673 16.5435C28.0673 16.5435 28.0756 16.5435 28.0839 16.5435L28.5245 16.4344C28.5494 16.426 28.566 16.4009 28.5577 16.3673C28.5494 16.3421 28.5245 16.3169 28.4912 16.3253L28.0507 16.4344C28.0258 16.4428 28.0091 16.468 28.0091 16.5016C28.0258 16.5268 28.0424 16.5435 28.0673 16.5435Z" fill="#717070"/>
<path d="M28.8581 16.3427H28.8665L29.307 16.2336C29.3319 16.2252 29.3568 16.2 29.3485 16.1664C29.3402 16.1328 29.3153 16.116 29.282 16.1244L28.8415 16.2336C28.8166 16.242 28.7917 16.2671 28.8 16.3007C28.8166 16.3343 28.8415 16.3427 28.8581 16.3427Z" fill="#717070"/>
<path d="M29.6469 16.1493C29.6552 16.1493 29.6552 16.1493 29.6635 16.1493L30.104 16.0402C30.129 16.0318 30.1539 16.0066 30.1456 15.9731C30.1373 15.9395 30.1123 15.9227 30.0791 15.9311L29.6386 16.0402C29.6137 16.0486 29.5887 16.0738 29.597 16.1074C29.6054 16.1325 29.622 16.1493 29.6469 16.1493Z" fill="#717070"/>
<path d="M30.4373 15.9485H30.4456L30.8861 15.8394C30.911 15.831 30.9276 15.8058 30.9193 15.7722C30.911 15.747 30.8861 15.7302 30.8528 15.7302L30.4123 15.8394C30.3874 15.8477 30.3708 15.8729 30.3708 15.9065C30.3957 15.9317 30.4207 15.9485 30.4373 15.9485Z" fill="#717070"/>
<path d="M31.2336 15.7466H31.2419L31.6824 15.6375C31.7073 15.6291 31.724 15.6039 31.724 15.5703C31.7156 15.5368 31.6907 15.52 31.6575 15.5284L31.217 15.6375C31.192 15.6459 31.1671 15.6711 31.1754 15.7046C31.1837 15.7298 31.2087 15.7466 31.2336 15.7466Z" fill="#717070"/>
<path d="M32.0164 15.5446H32.0247L32.4652 15.4355C32.4984 15.4271 32.515 15.4019 32.5067 15.3683C32.4984 15.3432 32.4735 15.3264 32.4402 15.3264L31.9997 15.4355C31.9665 15.4439 31.9499 15.4691 31.9582 15.5026C31.9748 15.5362 31.9997 15.5446 32.0164 15.5446Z" fill="#717070"/>
<path d="M32.8129 15.3524C32.8213 15.3524 32.8213 15.3524 32.8213 15.3524L33.2618 15.2433C33.2867 15.2349 33.3116 15.2097 33.3033 15.1761C33.295 15.1509 33.2701 15.1342 33.2368 15.1342L32.7963 15.2433C32.7714 15.2517 32.7465 15.2768 32.7548 15.3104C32.7631 15.3356 32.788 15.3524 32.8129 15.3524Z" fill="#717070"/>
<path d="M33.5943 15.151C33.6026 15.151 33.6026 15.151 33.6109 15.151L34.0514 15.0419C34.0764 15.0335 34.1013 15.0083 34.093 14.9748C34.0847 14.9496 34.0597 14.9328 34.0265 14.9328L33.586 15.0419C33.5527 15.0503 33.5361 15.0755 33.5444 15.1091C33.5527 15.1342 33.5777 15.151 33.5943 15.151Z" fill="#717070"/>
<path d="M34.3932 14.9485C34.3932 14.9485 34.4015 14.9485 34.4098 14.9485L34.8503 14.8394C34.8753 14.831 34.9002 14.8058 34.8919 14.7723C34.8836 14.7471 34.8586 14.7303 34.8254 14.7303L34.3849 14.8394C34.36 14.8478 34.3433 14.873 34.3433 14.9066C34.3433 14.9317 34.3683 14.9485 34.3932 14.9485Z" fill="#717070"/>
<path d="M35.1824 14.7474C35.1824 14.7474 35.1907 14.7474 35.199 14.7474L35.6395 14.6383C35.6645 14.6299 35.6811 14.6047 35.6811 14.5711C35.6728 14.5375 35.6478 14.5208 35.6146 14.5291L35.1741 14.6383C35.1491 14.6467 35.1325 14.6718 35.1325 14.7054C35.1325 14.739 35.1575 14.7474 35.1824 14.7474Z" fill="#717070"/>
<path d="M35.9717 14.5545C35.98 14.5545 35.98 14.5545 35.9883 14.5545L36.4288 14.4454C36.4538 14.437 36.4704 14.4119 36.4704 14.3783C36.4621 14.3531 36.4372 14.3363 36.4039 14.3363L35.9634 14.4454C35.9302 14.4538 35.9135 14.479 35.9219 14.5126C35.9219 14.5378 35.9468 14.5545 35.9717 14.5545Z" fill="#717070"/>
<path d="M36.7614 14.3529C36.7614 14.3529 36.7697 14.3529 36.778 14.3529L37.2185 14.2438C37.2435 14.2354 37.2684 14.2103 37.2601 14.1767C37.2518 14.1515 37.2268 14.1263 37.1936 14.1347L36.7531 14.2438C36.7282 14.2522 36.7032 14.2774 36.7115 14.311C36.7115 14.3362 36.7365 14.3529 36.7614 14.3529Z" fill="#717070"/>
<path d="M37.5509 14.1518C37.5592 14.1518 37.5592 14.1518 37.5676 14.1518L38.0081 14.0427C38.033 14.0343 38.0579 14.0091 38.0496 13.9755C38.0413 13.9504 38.0164 13.9336 37.9831 13.9336L37.5426 14.0427C37.5177 14.0511 37.5011 14.0763 37.5011 14.1098C37.5011 14.135 37.526 14.1518 37.5509 14.1518Z" fill="#717070"/>
<path d="M38.3411 13.9592C38.3494 13.9592 38.3494 13.9592 38.3577 13.9592L38.7982 13.8501C38.8232 13.8417 38.8398 13.8165 38.8398 13.783C38.8315 13.7578 38.8065 13.741 38.7733 13.741L38.3328 13.8501C38.3079 13.8585 38.2912 13.8837 38.2912 13.9173C38.2912 13.9424 38.3162 13.9592 38.3411 13.9592Z" fill="#717070"/>
<path d="M39.1283 13.7571C39.1366 13.7571 39.1366 13.7571 39.1449 13.7571L39.5854 13.648C39.6104 13.6396 39.6353 13.6144 39.627 13.5808C39.6187 13.5473 39.5938 13.5389 39.5605 13.5389L39.12 13.648C39.0951 13.6564 39.0784 13.6816 39.0784 13.7151C39.0784 13.7403 39.1034 13.7571 39.1283 13.7571Z" fill="#717070"/>
<path d="M39.9186 13.5567C39.9269 13.5567 39.9269 13.5567 39.9353 13.5567L40.3758 13.4476C40.4007 13.4392 40.4256 13.414 40.4173 13.3805C40.409 13.3469 40.3841 13.3301 40.3508 13.3385L39.9103 13.4476C39.8771 13.456 39.8605 13.4812 39.8688 13.5148C39.8688 13.5399 39.8937 13.5567 39.9186 13.5567Z" fill="#717070"/>
<path d="M40.7093 13.3546C40.7176 13.3546 40.7176 13.3546 40.7259 13.3546L41.1664 13.2455C41.1914 13.2371 41.208 13.2119 41.208 13.1783C41.1997 13.1448 41.1747 13.128 41.1415 13.1364L40.701 13.2455C40.6761 13.2539 40.6511 13.2791 40.6594 13.3126C40.6594 13.3378 40.6844 13.3546 40.7093 13.3546Z" fill="#717070"/>
<path d="M41.5002 13.1618H41.5085L41.949 13.0526C41.9823 13.0442 41.9989 13.0191 41.9906 12.9855C41.9823 12.9603 41.9574 12.9435 41.9241 12.9435L41.4836 13.0526C41.4587 13.061 41.4421 13.0862 41.4421 13.1198C41.4504 13.145 41.4753 13.1618 41.5002 13.1618Z" fill="#717070"/>
<path d="M42.2882 12.9594C42.2882 12.9594 42.2965 12.9594 42.3048 12.9594L42.7453 12.8503C42.7703 12.8419 42.7952 12.8167 42.7786 12.7831C42.7703 12.7579 42.7453 12.7328 42.7121 12.7412L42.2716 12.8503C42.2466 12.8587 42.23 12.8838 42.2383 12.9174C42.2383 12.9426 42.2633 12.9594 42.2882 12.9594Z" fill="#717070"/>
<path d="M43.0768 12.7587C43.0768 12.7587 43.0851 12.7587 43.0934 12.7587C43.0934 12.7587 43.2679 12.7167 43.3095 12.6999C43.3511 12.6915 43.3511 12.6496 43.3511 12.6496V12.4229C43.3511 12.3894 43.3261 12.3726 43.3012 12.3726C43.2679 12.3726 43.243 12.3977 43.243 12.4229V12.6076L43.0602 12.6496C43.0269 12.658 43.0103 12.6831 43.0186 12.7167C43.0352 12.7419 43.0518 12.7587 43.0768 12.7587Z" fill="#717070"/>
<path d="M43.3015 12.0957C43.3348 12.0957 43.3514 12.0705 43.3514 12.0453V11.5668C43.3514 11.5333 43.3265 11.5165 43.3015 11.5165C43.2683 11.5165 43.2434 11.5417 43.2434 11.5668V12.0453C43.2434 12.0705 43.2683 12.0957 43.3015 12.0957Z" fill="#717070"/>
<path d="M43.3015 11.2392C43.3348 11.2392 43.3514 11.214 43.3514 11.1888V10.7104C43.3514 10.6768 43.3265 10.66 43.3015 10.66C43.2683 10.66 43.2434 10.6852 43.2434 10.7104V11.1888C43.2434 11.214 43.2683 11.2392 43.3015 11.2392Z" fill="#717070"/>
<path d="M43.3015 10.3831C43.3348 10.3831 43.3514 10.3579 43.3514 10.3327V9.8627C43.3514 9.82913 43.3265 9.81234 43.3015 9.81234C43.2683 9.81234 43.2434 9.83752 43.2434 9.8627V10.3327C43.2434 10.3579 43.2683 10.3831 43.3015 10.3831Z" fill="#717070"/>
<path d="M43.3015 9.52667C43.3348 9.52667 43.3514 9.50149 43.3514 9.47631V8.99787C43.3514 8.97268 43.3265 8.9475 43.3015 8.9475C43.2683 8.9475 43.2434 8.97268 43.2434 8.99787V9.47631C43.2434 9.50149 43.2683 9.52667 43.3015 9.52667Z" fill="#717070"/>
<path d="M43.3015 8.67096C43.3348 8.67096 43.3514 8.64578 43.3514 8.6206V8.14216C43.3514 8.10858 43.3265 8.09179 43.3015 8.09179C43.2683 8.09179 43.2434 8.11697 43.2434 8.14216V8.6206C43.2434 8.64578 43.2683 8.67096 43.3015 8.67096Z" fill="#717070"/>
<path d="M43.3015 7.82363C43.3348 7.82363 43.3514 7.79844 43.3514 7.77326V7.30322C43.3514 7.26964 43.3265 7.25285 43.3015 7.25285C43.2683 7.25285 43.2434 7.27803 43.2434 7.30322V7.77326C43.2434 7.79844 43.2683 7.82363 43.3015 7.82363Z" fill="#717070"/>
<path d="M43.3015 6.96641C43.3348 6.96641 43.3514 6.94123 43.3514 6.91605V6.43761C43.3514 6.40403 43.3265 6.38725 43.3015 6.38725C43.2683 6.38725 43.2434 6.41243 43.2434 6.43761V6.91605C43.2434 6.94123 43.2683 6.96641 43.3015 6.96641Z" fill="#717070"/>
<path d="M43.3015 6.11036C43.3348 6.11036 43.3514 6.08518 43.3514 6.06V5.58156C43.3514 5.54798 43.3265 5.5312 43.3015 5.5312C43.2683 5.5312 43.2434 5.55638 43.2434 5.58156V6.05161C43.2434 6.08518 43.2683 6.11036 43.3015 6.11036Z" fill="#717070"/>
<path d="M43.3015 5.25465C43.3348 5.25465 43.3514 5.22947 43.3514 5.1959V4.72585C43.3514 4.69227 43.3265 4.67549 43.3015 4.67549C43.2683 4.67549 43.2434 4.70067 43.2434 4.72585V5.1959C43.2434 5.22947 43.2683 5.25465 43.3015 5.25465Z" fill="#717070"/>
<path d="M43.3015 4.3982C43.3348 4.3982 43.3514 4.37302 43.3514 4.34784V3.8694C43.3514 3.83582 43.3265 3.81904 43.3015 3.81904C43.2683 3.81904 43.2434 3.84422 43.2434 3.8694V4.34784C43.2434 4.37302 43.2683 4.3982 43.3015 4.3982Z" fill="#717070"/>
<path d="M43.3015 3.54212C43.3348 3.54212 43.3514 3.51694 43.3514 3.49176V3.01332C43.3514 2.97974 43.3265 2.96296 43.3015 2.96296C43.2683 2.96296 43.2434 2.98814 43.2434 3.01332V3.49176C43.2434 3.51694 43.2683 3.54212 43.3015 3.54212Z" fill="#717070"/>
<path d="M43.3015 2.68603C43.3348 2.68603 43.3514 2.66085 43.3514 2.63567V2.16562C43.3514 2.13205 43.3265 2.11526 43.3015 2.11526C43.2683 2.11526 43.2434 2.14044 43.2434 2.16562V2.63567C43.2434 2.66085 43.2683 2.68603 43.3015 2.68603Z" fill="#717070"/>
<path d="M43.3015 1.82959C43.3348 1.82959 43.3514 1.80441 43.3514 1.77923V1.30079C43.3514 1.26721 43.3265 1.25043 43.3015 1.25043C43.2683 1.25043 43.2434 1.27561 43.2434 1.30079V1.77923C43.2434 1.80441 43.2683 1.82959 43.3015 1.82959Z" fill="#717070"/>
<path d="M43.3026 0.972953C43.3358 0.972953 43.3525 0.947772 43.3525 0.922591V0.695961C43.3525 0.653992 43.3358 0.637205 43.3026 0.637205H43.0782C43.0533 0.637205 43.0283 0.662386 43.0283 0.695961C43.0283 0.721142 43.0533 0.746323 43.0782 0.746323H43.2527V0.922591C43.2444 0.947772 43.2693 0.972953 43.3026 0.972953Z" fill="#717070"/>
<path d="M42.5125 12.3121C42.5042 12.2869 42.5208 12.2533 42.5541 12.245L42.7369 12.1946V12.0099C42.7369 11.9764 42.7619 11.9596 42.7868 11.9596C42.8117 11.9596 42.8367 11.9847 42.8367 12.0099V12.2366C42.8367 12.2366 42.845 12.2785 42.7951 12.2869C42.7536 12.2953 42.5707 12.3457 42.5707 12.3457C42.5624 12.3457 42.5624 12.3457 42.5624 12.3457C42.5375 12.3541 42.5208 12.3373 42.5125 12.3121Z" fill="#717070"/>
<path d="M42.7876 1.49365C42.8126 1.49365 42.8375 1.46847 42.8375 1.44329V1.21666C42.8375 1.17469 42.8209 1.1663 42.7876 1.1663H42.5632C42.53 1.1663 42.5134 1.19148 42.5134 1.21666C42.5134 1.24184 42.5383 1.26702 42.5632 1.26702H42.7378V1.44329C42.7295 1.46847 42.7544 1.49365 42.7876 1.49365Z" fill="#717070"/>
<path d="M42.7868 11.6925C42.8117 11.6925 42.8367 11.6673 42.8367 11.6421V11.1721C42.8367 11.1469 42.8117 11.1217 42.7868 11.1217C42.7536 11.1217 42.7369 11.1469 42.7369 11.1721V11.6421C42.7286 11.6673 42.7536 11.6925 42.7868 11.6925Z" fill="#717070"/>
<path d="M42.7868 10.8448C42.8117 10.8448 42.8367 10.8196 42.8367 10.7945V10.3244C42.8367 10.2908 42.8117 10.274 42.7868 10.274C42.7536 10.274 42.7369 10.2992 42.7369 10.3244V10.7945C42.7286 10.8196 42.7536 10.8448 42.7868 10.8448Z" fill="#717070"/>
<path d="M42.7868 9.99635C42.8117 9.99635 42.8367 9.97117 42.8367 9.94599V9.47594C42.8367 9.44236 42.8117 9.42558 42.7868 9.42558C42.7536 9.42558 42.7369 9.45076 42.7369 9.47594V9.94599C42.7286 9.97117 42.7536 9.99635 42.7868 9.99635Z" fill="#717070"/>
<path d="M42.7868 9.14027C42.8117 9.14027 42.8367 9.11509 42.8367 9.08991V8.61986C42.8367 8.59468 42.8117 8.5695 42.7868 8.5695C42.7536 8.5695 42.7369 8.59468 42.7369 8.61986V9.08991C42.7286 9.11509 42.7536 9.14027 42.7868 9.14027Z" fill="#717070"/>
<path d="M42.7868 8.29371C42.8117 8.29371 42.8367 8.26853 42.8367 8.24335V7.7733C42.8367 7.73973 42.8117 7.72294 42.7868 7.72294C42.7536 7.72294 42.7369 7.74812 42.7369 7.7733V8.24335C42.7286 8.26853 42.7536 8.29371 42.7868 8.29371Z" fill="#717070"/>
<path d="M42.7868 7.44488C42.8117 7.44488 42.8367 7.4197 42.8367 7.39452V6.92447C42.8367 6.89929 42.8117 6.87411 42.7868 6.87411C42.7536 6.87411 42.7369 6.89929 42.7369 6.92447V7.39452C42.7286 7.4197 42.7536 7.44488 42.7868 7.44488Z" fill="#717070"/>
<path d="M42.7868 6.59759C42.8117 6.59759 42.8367 6.57241 42.8367 6.53884V6.06879C42.8367 6.04361 42.8117 6.01843 42.7868 6.01843C42.7536 6.01843 42.7369 6.04361 42.7369 6.06879V6.53884C42.7286 6.57241 42.7536 6.59759 42.7868 6.59759Z" fill="#717070"/>
<path d="M42.7868 5.74147C42.8117 5.74147 42.8367 5.71629 42.8367 5.69111V5.22106C42.8367 5.19588 42.8117 5.1707 42.7868 5.1707C42.7536 5.1707 42.7369 5.19588 42.7369 5.22106V5.69111C42.7286 5.71629 42.7536 5.74147 42.7868 5.74147Z" fill="#717070"/>
<path d="M42.7868 4.89382C42.8117 4.89382 42.8367 4.86864 42.8367 4.83506V4.36501C42.8367 4.33144 42.8117 4.31465 42.7868 4.31465C42.7536 4.31465 42.7369 4.33983 42.7369 4.36501V4.83506C42.7286 4.86864 42.7536 4.89382 42.7868 4.89382Z" fill="#717070"/>
<path d="M42.7868 4.04608C42.8117 4.04608 42.8367 4.0209 42.8367 3.99572V3.52567C42.8367 3.4921 42.8117 3.47531 42.7868 3.47531C42.7536 3.47531 42.7369 3.50049 42.7369 3.52567V3.99572C42.7286 4.0209 42.7536 4.04608 42.7868 4.04608Z" fill="#717070"/>
<path d="M42.7868 3.19799C42.8117 3.19799 42.8367 3.1728 42.8367 3.14762V2.67758C42.8367 2.644 42.8117 2.62721 42.7868 2.62721C42.7536 2.62721 42.7369 2.6524 42.7369 2.67758V3.14762C42.7286 3.1728 42.7536 3.19799 42.7868 3.19799Z" fill="#717070"/>
<path d="M42.7868 2.34231C42.8117 2.34231 42.8367 2.31713 42.8367 2.29194V1.8219C42.8367 1.79672 42.8117 1.77153 42.7868 1.77153C42.7536 1.77153 42.7369 1.79672 42.7369 1.8219V2.29194C42.7286 2.31713 42.7536 2.34231 42.7868 2.34231Z" fill="#717070"/>
<path d="M22.149 1.26702H22.6061C22.6311 1.26702 22.656 1.24184 22.656 1.21666C22.656 1.19148 22.6311 1.1663 22.6061 1.1663H22.149C22.1241 1.1663 22.0991 1.19148 22.0991 1.21666C22.0991 1.24184 22.1241 1.26702 22.149 1.26702Z" fill="#717070"/>
<path d="M22.9638 1.26702H23.421C23.4459 1.26702 23.4708 1.24184 23.4708 1.21666C23.4708 1.19148 23.4459 1.1663 23.421 1.1663H22.9638C22.9389 1.1663 22.914 1.19148 22.914 1.21666C22.914 1.24184 22.9389 1.26702 22.9638 1.26702Z" fill="#717070"/>
<path d="M23.7862 1.26702H24.2433C24.2766 1.26702 24.3015 1.24184 24.3015 1.21666C24.3015 1.19148 24.2766 1.1663 24.2433 1.1663H23.7862C23.7613 1.1663 23.7363 1.19148 23.7363 1.21666C23.728 1.24184 23.753 1.26702 23.7862 1.26702Z" fill="#717070"/>
<path d="M24.6024 1.26702H25.0595C25.0928 1.26702 25.1094 1.24184 25.1094 1.21666C25.1094 1.19148 25.0844 1.1663 25.0595 1.1663H24.6024C24.5691 1.1663 24.5525 1.19148 24.5525 1.21666C24.5525 1.24184 24.5691 1.26702 24.6024 1.26702Z" fill="#717070"/>
<path d="M25.4162 1.26702H25.8734C25.9066 1.26702 25.9232 1.24184 25.9232 1.21666C25.9232 1.19148 25.8983 1.1663 25.8734 1.1663H25.4162C25.3913 1.1663 25.3664 1.19148 25.3664 1.21666C25.3664 1.24184 25.3913 1.26702 25.4162 1.26702Z" fill="#717070"/>
<path d="M26.2301 1.26702H26.6872C26.7121 1.26702 26.7371 1.24184 26.7371 1.21666C26.7371 1.19148 26.7121 1.1663 26.6872 1.1663H26.2301C26.2051 1.1663 26.1802 1.19148 26.1802 1.21666C26.1802 1.24184 26.2051 1.26702 26.2301 1.26702Z" fill="#717070"/>
<path d="M27.0534 1.26702H27.5106C27.5438 1.26702 27.5604 1.24184 27.5604 1.21666C27.5604 1.19148 27.5355 1.1663 27.5106 1.1663H27.0534C27.0202 1.1663 27.0036 1.19148 27.0036 1.21666C26.9953 1.24184 27.0202 1.26702 27.0534 1.26702Z" fill="#717070"/>
<path d="M27.8683 1.26702H28.3254C28.3586 1.26702 28.3753 1.24184 28.3753 1.21666C28.3753 1.19148 28.3503 1.1663 28.3254 1.1663H27.8683C27.835 1.1663 27.8184 1.19148 27.8184 1.21666C27.8101 1.24184 27.835 1.26702 27.8683 1.26702Z" fill="#717070"/>
<path d="M28.6821 1.26702H29.1392C29.1725 1.26702 29.1891 1.24184 29.1891 1.21666C29.1891 1.19148 29.1642 1.1663 29.1392 1.1663H28.6821C28.6489 1.1663 28.6322 1.19148 28.6322 1.21666C28.6239 1.24184 28.6489 1.26702 28.6821 1.26702Z" fill="#717070"/>
<path d="M29.4973 1.26702H29.9544C29.9794 1.26702 30.0043 1.24184 30.0043 1.21666C30.0043 1.19148 29.9794 1.1663 29.9544 1.1663H29.4973C29.4641 1.1663 29.4474 1.19148 29.4474 1.21666C29.4474 1.24184 29.4724 1.26702 29.4973 1.26702Z" fill="#717070"/>
<path d="M30.3121 1.26702H30.7693C30.7942 1.26702 30.8191 1.24184 30.8191 1.21666C30.8191 1.19148 30.7942 1.1663 30.7693 1.1663H30.3121C30.2789 1.1663 30.2623 1.19148 30.2623 1.21666C30.2623 1.24184 30.2872 1.26702 30.3121 1.26702Z" fill="#717070"/>
<path d="M31.1345 1.26702H31.5833C31.6166 1.26702 31.6332 1.24184 31.6332 1.21666C31.6332 1.19148 31.6082 1.1663 31.5833 1.1663H31.1345C31.1013 1.1663 31.0846 1.19148 31.0846 1.21666C31.0763 1.24184 31.1013 1.26702 31.1345 1.26702Z" fill="#717070"/>
<path d="M31.9493 1.26702H32.3981C32.4314 1.26702 32.448 1.24184 32.448 1.21666C32.448 1.19148 32.4231 1.1663 32.3981 1.1663H31.9493C31.9161 1.1663 31.8995 1.19148 31.8995 1.21666C31.8912 1.24184 31.9161 1.26702 31.9493 1.26702Z" fill="#717070"/>
<path d="M32.7622 1.26702H33.2193C33.2443 1.26702 33.2692 1.24184 33.2692 1.21666C33.2692 1.19148 33.2443 1.1663 33.2193 1.1663H32.7622C32.7373 1.1663 32.7123 1.19148 32.7123 1.21666C32.704 1.24184 32.7289 1.26702 32.7622 1.26702Z" fill="#717070"/>
<path d="M33.5784 1.26702H34.0272C34.0604 1.26702 34.0771 1.24184 34.0771 1.21666C34.0771 1.19148 34.0521 1.1663 34.0272 1.1663H33.5784C33.5451 1.1663 33.5285 1.19148 33.5285 1.21666C33.5285 1.24184 33.5534 1.26702 33.5784 1.26702Z" fill="#717070"/>
<path d="M34.3932 1.26702H34.8503C34.8836 1.26702 34.9002 1.24184 34.9002 1.21666C34.9002 1.19148 34.8753 1.1663 34.8503 1.1663H34.3932C34.36 1.1663 34.3433 1.19148 34.3433 1.21666C34.3433 1.24184 34.3683 1.26702 34.3932 1.26702Z" fill="#717070"/>
<path d="M35.2146 1.26702H35.6717C35.705 1.26702 35.7216 1.24184 35.7216 1.21666C35.7216 1.19148 35.6966 1.1663 35.6717 1.1663H35.2146C35.1813 1.1663 35.1647 1.19148 35.1647 1.21666C35.1564 1.24184 35.1813 1.26702 35.2146 1.26702Z" fill="#717070"/>
<path d="M36.0294 1.26702H36.4865C36.5198 1.26702 36.5364 1.24184 36.5364 1.21666C36.5364 1.19148 36.5115 1.1663 36.4865 1.1663H36.0294C36.0045 1.1663 35.9795 1.19148 35.9795 1.21666C35.9712 1.24184 35.9962 1.26702 36.0294 1.26702Z" fill="#717070"/>
<path d="M36.8436 1.26702H37.3008C37.3257 1.26702 37.3506 1.24184 37.3506 1.21666C37.3506 1.19148 37.3257 1.1663 37.3008 1.1663H36.8436C36.8187 1.1663 36.7938 1.19148 36.7938 1.21666C36.7938 1.24184 36.8104 1.26702 36.8436 1.26702Z" fill="#717070"/>
<path d="M37.6575 1.26702H38.1146C38.1478 1.26702 38.1645 1.24184 38.1645 1.21666C38.1645 1.19148 38.1395 1.1663 38.1146 1.1663H37.6575C37.6325 1.1663 37.6076 1.19148 37.6076 1.21666C37.6076 1.24184 37.6325 1.26702 37.6575 1.26702Z" fill="#717070"/>
<path d="M38.4733 1.26702H38.9304C38.9637 1.26702 38.9803 1.24184 38.9803 1.21666C38.9803 1.19148 38.9554 1.1663 38.9304 1.1663H38.4733C38.4484 1.1663 38.4234 1.19148 38.4234 1.21666C38.4234 1.24184 38.4484 1.26702 38.4733 1.26702Z" fill="#717070"/>
<path d="M39.2881 1.26702H39.7453C39.7702 1.26702 39.7951 1.24184 39.7951 1.21666C39.7951 1.19148 39.7702 1.1663 39.7453 1.1663H39.2881C39.2632 1.1663 39.2383 1.19148 39.2383 1.21666C39.2383 1.24184 39.2632 1.26702 39.2881 1.26702Z" fill="#717070"/>
<path d="M40.1115 1.26702H40.5686C40.6018 1.26702 40.6185 1.24184 40.6185 1.21666C40.6185 1.19148 40.5935 1.1663 40.5686 1.1663H40.1115C40.0782 1.1663 40.0616 1.19148 40.0616 1.21666C40.0533 1.24184 40.0782 1.26702 40.1115 1.26702Z" fill="#717070"/>
<path d="M40.9253 1.26702H41.3824C41.4157 1.26702 41.4323 1.24184 41.4323 1.21666C41.4323 1.19148 41.4074 1.1663 41.3824 1.1663H40.9253C40.8921 1.1663 40.8755 1.19148 40.8755 1.21666C40.8671 1.24184 40.8921 1.26702 40.9253 1.26702Z" fill="#717070"/>
<path d="M41.7385 1.26702H42.1957C42.2289 1.26702 42.2455 1.24184 42.2455 1.21666C42.2455 1.19148 42.2206 1.1663 42.1957 1.1663H41.7385C41.7136 1.1663 41.6887 1.19148 41.6887 1.21666C41.6887 1.24184 41.7136 1.26702 41.7385 1.26702Z" fill="#717070"/>
<path d="M22.549 17.4001C22.549 17.4001 22.5573 17.4001 22.5656 17.4001L23.0061 17.291C23.0393 17.2826 23.0559 17.249 23.0476 17.2239C23.0393 17.1903 23.0144 17.1735 22.9811 17.1819L22.5323 17.291C22.5074 17.2994 22.4908 17.3246 22.4908 17.3582C22.5074 17.3833 22.524 17.4001 22.549 17.4001Z" fill="#717070"/>
<path d="M23.3466 17.1989C23.3549 17.1989 23.3549 17.1989 23.3632 17.1989L23.8037 17.0898C23.837 17.0814 23.8536 17.0562 23.8453 17.0226C23.837 16.9975 23.812 16.9807 23.7788 16.9807L23.3383 17.0898C23.3134 17.0982 23.2967 17.1234 23.2967 17.1569C23.305 17.1821 23.3217 17.1989 23.3466 17.1989Z" fill="#717070"/>
<path d="M24.152 16.9968C24.1603 16.9968 24.1603 16.9968 24.1686 16.9968L24.6091 16.8877C24.634 16.8793 24.659 16.8541 24.6507 16.8205C24.6424 16.7953 24.6174 16.7786 24.5842 16.7786L24.1354 16.8877C24.1104 16.8961 24.0938 16.9213 24.0938 16.9548C24.1021 16.98 24.1271 16.9968 24.152 16.9968Z" fill="#717070"/>
<path d="M24.9512 16.7964C24.9595 16.7964 24.9595 16.7964 24.9678 16.7964L25.4166 16.6873C25.4416 16.6789 25.4582 16.6537 25.4582 16.6202C25.4499 16.5866 25.4249 16.5698 25.3917 16.5782L24.9512 16.6873C24.9262 16.6957 24.9096 16.7209 24.9096 16.7545C24.9096 16.7796 24.9262 16.7964 24.9512 16.7964Z" fill="#717070"/>
<path d="M25.7483 16.5943C25.7483 16.5943 25.7566 16.5943 25.765 16.5943L26.2138 16.4852C26.2387 16.4768 26.2553 16.4516 26.2553 16.418C26.247 16.3844 26.2221 16.3677 26.1888 16.3761L25.74 16.4852C25.7151 16.4936 25.6902 16.5187 25.6985 16.5523C25.7068 16.5775 25.7234 16.5943 25.7483 16.5943Z" fill="#717070"/>
<path d="M26.5556 16.3935C26.5639 16.3935 26.5639 16.3935 26.5722 16.3935L27.0127 16.2844C27.0377 16.276 27.0626 16.2508 27.0543 16.2172C27.046 16.192 27.0211 16.1752 26.9878 16.1752L26.5473 16.2844C26.5224 16.2927 26.5058 16.3179 26.5058 16.3515C26.5058 16.3767 26.5307 16.3935 26.5556 16.3935Z" fill="#717070"/>
<path d="M27.3517 16.191C27.3517 16.191 27.36 16.191 27.3683 16.191L27.8088 16.0818C27.8338 16.0735 27.8587 16.0483 27.8504 16.0147C27.8421 15.9895 27.8171 15.9727 27.7839 15.9727L27.3434 16.0818C27.3185 16.0902 27.3018 16.1154 27.3018 16.149C27.3102 16.1742 27.3268 16.191 27.3517 16.191Z" fill="#717070"/>
<path d="M28.1498 15.9905C28.1581 15.9905 28.1581 15.9905 28.1664 15.9905L28.6069 15.8814C28.6318 15.873 28.6485 15.8478 28.6485 15.8142C28.6401 15.789 28.6152 15.7638 28.582 15.7722L28.1415 15.8814C28.1165 15.8897 28.0999 15.9149 28.0999 15.9485C28.1082 15.9737 28.1248 15.9905 28.1498 15.9905Z" fill="#717070"/>
<path d="M28.9561 15.7882C28.9645 15.7882 28.9645 15.7882 28.9728 15.7882L29.4133 15.6791C29.4382 15.6707 29.4548 15.6455 29.4548 15.612C29.4465 15.5868 29.4216 15.57 29.3883 15.57L28.9395 15.6791C28.9146 15.6875 28.898 15.7127 28.898 15.7463C28.9063 15.7714 28.9312 15.7882 28.9561 15.7882Z" fill="#717070"/>
<path d="M29.7538 15.5877C29.7538 15.5877 29.7621 15.5877 29.7704 15.5877L30.2192 15.4786C30.2442 15.4702 30.2608 15.445 30.2608 15.4115C30.2525 15.3863 30.2275 15.3611 30.1943 15.3695L29.7455 15.4786C29.7205 15.487 29.7039 15.5122 29.7039 15.5458C29.7039 15.571 29.7289 15.5877 29.7538 15.5877Z" fill="#717070"/>
<path d="M30.5531 15.3855C30.5614 15.3855 30.5614 15.3855 30.5697 15.3855L31.0185 15.2764C31.0434 15.268 31.0601 15.2428 31.0601 15.2092C31.0517 15.1841 31.0268 15.1673 30.9936 15.1673L30.5531 15.2764C30.5281 15.2848 30.5032 15.31 30.5115 15.3435C30.5115 15.3687 30.5281 15.3855 30.5531 15.3855Z" fill="#717070"/>
<path d="M31.359 15.1841C31.3673 15.1841 31.3673 15.1841 31.3756 15.1841L31.8245 15.075C31.8494 15.0666 31.866 15.0414 31.866 15.0079C31.8577 14.9827 31.8328 14.9659 31.7995 14.9659L31.359 15.075C31.3341 15.0834 31.3175 15.1086 31.3175 15.1422C31.3091 15.1673 31.3341 15.1841 31.359 15.1841Z" fill="#717070"/>
<path d="M32.157 14.9824C32.1653 14.9824 32.1653 14.9824 32.1653 14.9824L32.6141 14.8733C32.6391 14.8649 32.6557 14.8397 32.6557 14.8061C32.6474 14.781 32.6224 14.7642 32.5892 14.7642L32.1487 14.8733C32.1154 14.8817 32.0988 14.9069 32.1071 14.9404C32.1154 14.9656 32.1321 14.9824 32.157 14.9824Z" fill="#717070"/>
<path d="M32.9541 14.7805C32.9624 14.7805 32.9624 14.7805 32.9707 14.7805L33.4112 14.6714C33.4444 14.663 33.4611 14.6378 33.4528 14.6043C33.4444 14.5707 33.4195 14.5539 33.3863 14.5623L32.9458 14.6714C32.9125 14.6798 32.8959 14.705 32.9042 14.7386C32.9125 14.7637 32.9291 14.7805 32.9541 14.7805Z" fill="#717070"/>
<path d="M33.761 14.5797C33.7693 14.5797 33.7693 14.5797 33.7776 14.5797L34.2181 14.4706C34.243 14.4622 34.2679 14.437 34.2596 14.4034C34.2513 14.3782 34.2264 14.3614 34.1931 14.3614L33.7443 14.4706C33.7194 14.4789 33.6945 14.5041 33.7028 14.5377C33.7111 14.5629 33.736 14.5797 33.761 14.5797Z" fill="#717070"/>
<path d="M34.5589 14.3705C34.5672 14.3705 34.5672 14.3705 34.5756 14.3705L35.0244 14.2614C35.0493 14.253 35.0659 14.2279 35.0659 14.1943C35.0576 14.1607 35.0327 14.1439 34.9994 14.1523L34.5506 14.2614C34.5257 14.2698 34.5091 14.295 34.5091 14.3286C34.5091 14.3622 34.534 14.3705 34.5589 14.3705Z" fill="#717070"/>
<path d="M35.3564 14.1769C35.3647 14.1769 35.3647 14.1769 35.3731 14.1769L35.8136 14.0678C35.8385 14.0594 35.8634 14.0342 35.8551 14.0007C35.8468 13.9755 35.8219 13.9587 35.7886 13.9587L35.3398 14.0678C35.3149 14.0762 35.2983 14.1014 35.2983 14.135C35.3149 14.1602 35.3315 14.1769 35.3564 14.1769Z" fill="#717070"/>
<path d="M36.1621 13.9673H36.1704L36.6192 13.8582C36.6442 13.8498 36.6608 13.8246 36.6608 13.7911C36.6525 13.7659 36.6275 13.7407 36.5943 13.7491L36.1538 13.8582C36.1206 13.8666 36.1039 13.8918 36.1122 13.9254C36.1122 13.9589 36.1372 13.9673 36.1621 13.9673Z" fill="#717070"/>
<path d="M36.9607 13.7648C36.9607 13.7648 36.9691 13.7648 36.9774 13.7648L37.4262 13.6557C37.4511 13.6473 37.476 13.6221 37.4677 13.5886C37.4594 13.5634 37.4345 13.5382 37.4012 13.5466L36.9607 13.6557C36.9275 13.6641 36.9109 13.6893 36.9192 13.7228C36.9109 13.7564 36.9358 13.7648 36.9607 13.7648Z" fill="#717070"/>
<path d="M37.7581 13.5651C37.7581 13.5651 37.7664 13.5651 37.7747 13.5651L38.2152 13.456C38.2485 13.4476 38.2651 13.4224 38.2568 13.3888C38.2485 13.3553 38.2235 13.3385 38.1903 13.3469L37.7498 13.456C37.7248 13.4644 37.7082 13.4896 37.7082 13.5231C37.7165 13.5483 37.7332 13.5651 37.7581 13.5651Z" fill="#717070"/>
<path d="M38.565 13.3624C38.565 13.3624 38.5733 13.3624 38.5817 13.3624L39.0222 13.2532C39.0554 13.2448 39.072 13.2197 39.0637 13.1861C39.0554 13.1609 39.0305 13.1441 38.9972 13.1441L38.5567 13.2532C38.5318 13.2616 38.5152 13.2868 38.5152 13.3204C38.5152 13.3456 38.5401 13.3624 38.565 13.3624Z" fill="#717070"/>
<path d="M39.3631 13.162H39.3714L39.8202 13.0529C39.8452 13.0445 39.8618 13.0193 39.8618 12.9857C39.8535 12.9521 39.8285 12.9354 39.7953 12.9437L39.3548 13.0529C39.3299 13.0613 39.3132 13.0864 39.3132 13.12C39.3132 13.1452 39.3382 13.162 39.3631 13.162Z" fill="#717070"/>
<path d="M40.1602 12.9594C40.1685 12.9594 40.1685 12.9594 40.1768 12.9594L40.6256 12.8503C40.6505 12.8419 40.6755 12.8167 40.6672 12.7831C40.6589 12.7579 40.6339 12.7328 40.6007 12.7412L40.1519 12.8503C40.1269 12.8587 40.1103 12.8838 40.1103 12.9174C40.1186 12.9426 40.1352 12.9594 40.1602 12.9594Z" fill="#717070"/>
<path d="M40.9665 12.7585H40.9749L41.4237 12.6494C41.4486 12.641 41.4735 12.6158 41.4652 12.5822C41.4569 12.5487 41.432 12.5319 41.3987 12.5403L40.9499 12.6494C40.925 12.6578 40.9084 12.683 40.9084 12.7165C40.9167 12.7417 40.9416 12.7585 40.9665 12.7585Z" fill="#717070"/>
<path d="M41.7642 12.5567C41.7725 12.5567 41.7725 12.5567 41.7808 12.5567L42.2213 12.4475C42.2546 12.4391 42.2712 12.414 42.2629 12.3804C42.2546 12.3552 42.2296 12.33 42.1964 12.3384L41.7559 12.4475C41.7309 12.4559 41.7143 12.4811 41.7143 12.5147C41.7143 12.5399 41.7393 12.5567 41.7642 12.5567Z" fill="#717070"/>
<path d="M21.3859 0.637205H20.9287C20.8955 0.637205 20.8789 0.662386 20.8789 0.695961C20.8789 0.721142 20.9038 0.746323 20.9287 0.746323H21.3859C21.4108 0.746323 21.4357 0.721142 21.4357 0.695961C21.4357 0.662386 21.4108 0.637205 21.3859 0.637205Z" fill="#717070"/>
<path d="M20.5621 0.637205H20.105C20.0801 0.637205 20.0552 0.662386 20.0552 0.695961C20.0552 0.721142 20.0801 0.746323 20.105 0.746323H20.5621C20.5954 0.746323 20.6203 0.721142 20.6203 0.695961C20.612 0.662386 20.5871 0.637205 20.5621 0.637205Z" fill="#717070"/>
<path d="M19.7404 0.637205H19.2833C19.25 0.637205 19.2334 0.662386 19.2334 0.695961C19.2334 0.721142 19.2583 0.746323 19.2833 0.746323H19.7404C19.7737 0.746323 19.7903 0.721142 19.7903 0.695961C19.7986 0.662386 19.7737 0.637205 19.7404 0.637205Z" fill="#717070"/>
<path d="M18.9167 0.637205H18.4596C18.4263 0.637205 18.4097 0.662386 18.4097 0.695961C18.4097 0.721142 18.4346 0.746323 18.4596 0.746323H18.9167C18.9416 0.746323 18.9666 0.721142 18.9666 0.695961C18.9749 0.662386 18.9499 0.637205 18.9167 0.637205Z" fill="#717070"/>
<path d="M18.1019 0.637205H17.6447C17.6198 0.637205 17.5949 0.662386 17.5949 0.695961C17.5949 0.721142 17.6198 0.746323 17.6447 0.746323H18.1019C18.1268 0.746323 18.1517 0.721142 18.1517 0.695961C18.1517 0.662386 18.1268 0.637205 18.1019 0.637205Z" fill="#717070"/>
<path d="M17.2791 0.637205H16.822C16.7888 0.637205 16.7721 0.662386 16.7721 0.695961C16.7721 0.721142 16.7971 0.746323 16.822 0.746323H17.2791C17.3041 0.746323 17.329 0.721142 17.329 0.695961C17.329 0.662386 17.3041 0.637205 17.2791 0.637205Z" fill="#717070"/>
<path d="M16.4574 0.637205H16.0003C15.967 0.637205 15.9504 0.662386 15.9504 0.695961C15.9504 0.721142 15.9753 0.746323 16.0003 0.746323H16.4574C16.4906 0.746323 16.5073 0.721142 16.5073 0.695961C16.5156 0.662386 16.4906 0.637205 16.4574 0.637205Z" fill="#717070"/>
<path d="M15.6416 0.637205H15.1845C15.1512 0.637205 15.1346 0.662386 15.1346 0.695961C15.1346 0.721142 15.1595 0.746323 15.1845 0.746323H15.6416C15.6665 0.746323 15.6914 0.721142 15.6914 0.695961C15.6914 0.662386 15.6665 0.637205 15.6416 0.637205Z" fill="#717070"/>
<path d="M14.8189 0.637205H14.3617C14.3285 0.637205 14.3119 0.662386 14.3119 0.695961C14.3119 0.721142 14.3368 0.746323 14.3617 0.746323H14.8189C14.8521 0.746323 14.8687 0.721142 14.8687 0.695961C14.8687 0.662386 14.8438 0.637205 14.8189 0.637205Z" fill="#717070"/>
<path d="M13.9971 0.637205H13.54C13.5067 0.637205 13.4901 0.662386 13.4901 0.695961C13.4901 0.721142 13.5151 0.746323 13.54 0.746323H13.9971C14.0304 0.746323 14.047 0.721142 14.047 0.695961C14.0553 0.662386 14.0304 0.637205 13.9971 0.637205Z" fill="#717070"/>
<path d="M13.1734 0.637205H12.7163C12.6913 0.637205 12.6664 0.662386 12.6664 0.695961C12.6664 0.721142 12.6913 0.746323 12.7163 0.746323H13.1734C13.2067 0.746323 13.2233 0.721142 13.2233 0.695961C13.2316 0.662386 13.2067 0.637205 13.1734 0.637205Z" fill="#717070"/>
<path d="M12.3586 0.637205H11.9014C11.8682 0.637205 11.8516 0.662386 11.8516 0.695961C11.8516 0.721142 11.8765 0.746323 11.9014 0.746323H12.3586C12.3918 0.746323 12.4084 0.721142 12.4084 0.695961C12.4084 0.662386 12.3835 0.637205 12.3586 0.637205Z" fill="#717070"/>
<path d="M11.5368 0.637205H11.0797C11.0548 0.637205 11.0298 0.662386 11.0298 0.695961C11.0298 0.721142 11.0548 0.746323 11.0797 0.746323H11.5368C11.5618 0.746323 11.5867 0.721142 11.5867 0.695961C11.595 0.662386 11.5701 0.637205 11.5368 0.637205Z" fill="#717070"/>
<path d="M10.721 0.637205H10.2639C10.2306 0.637205 10.214 0.662386 10.214 0.695961C10.214 0.721142 10.239 0.746323 10.2639 0.746323H10.721C10.7543 0.746323 10.7709 0.721142 10.7709 0.695961C10.7709 0.662386 10.7459 0.637205 10.721 0.637205Z" fill="#717070"/>
<path d="M9.89829 0.637205H9.44116C9.41623 0.637205 9.3913 0.662386 9.3913 0.695961C9.3913 0.721142 9.41623 0.746323 9.44116 0.746323H9.89829C9.93153 0.746323 9.94816 0.721142 9.94816 0.695961C9.94816 0.662386 9.92322 0.637205 9.89829 0.637205Z" fill="#717070"/>
<path d="M9.07556 0.637205H8.61844C8.58519 0.637205 8.56857 0.662386 8.56857 0.695961C8.56857 0.721142 8.59351 0.746323 8.61844 0.746323H9.07556C9.1005 0.746323 9.12543 0.721142 9.12543 0.695961C9.12543 0.662386 9.10881 0.637205 9.07556 0.637205Z" fill="#717070"/>
<path d="M8.25284 0.637205H7.79571C7.77078 0.637205 7.74585 0.662386 7.74585 0.695961C7.74585 0.721142 7.77078 0.746323 7.79571 0.746323H8.25284C8.28608 0.746323 8.30271 0.721142 8.30271 0.695961C8.31102 0.662386 8.28608 0.637205 8.25284 0.637205Z" fill="#717070"/>
<path d="M7.43899 0.637205H6.98187C6.95693 0.637205 6.932 0.662386 6.932 0.695961C6.932 0.721142 6.95693 0.746323 6.98187 0.746323H7.43899C7.47224 0.746323 7.48886 0.721142 7.48886 0.695961C7.48886 0.662386 7.46393 0.637205 7.43899 0.637205Z" fill="#717070"/>
<path d="M6.61528 0.637205H6.15816C6.12491 0.637205 6.10829 0.662386 6.10829 0.695961C6.10829 0.721142 6.13322 0.746323 6.15816 0.746323H6.61528C6.64022 0.746323 6.66515 0.721142 6.66515 0.695961C6.66515 0.662386 6.64022 0.637205 6.61528 0.637205Z" fill="#717070"/>
<path d="M5.79256 0.637205H5.33543C5.3105 0.637205 5.28556 0.662386 5.28556 0.695961C5.28556 0.721142 5.3105 0.746323 5.33543 0.746323H5.79256C5.8258 0.746323 5.84242 0.721142 5.84242 0.695961C5.85074 0.662386 5.8258 0.637205 5.79256 0.637205Z" fill="#717070"/>
<path d="M4.97871 0.637205H4.52159C4.49665 0.637205 4.47172 0.662386 4.47172 0.695961C4.47172 0.721142 4.49665 0.746323 4.52159 0.746323H4.97871C5.00364 0.746323 5.02858 0.721142 5.02858 0.695961C5.02858 0.662386 5.00364 0.637205 4.97871 0.637205Z" fill="#717070"/>
<path d="M4.15598 0.637205H3.69886C3.66561 0.637205 3.64899 0.662386 3.64899 0.695961C3.64899 0.721142 3.67393 0.746323 3.69886 0.746323H4.15598C4.18923 0.746323 4.20585 0.721142 4.20585 0.695961C4.20585 0.662386 4.18092 0.637205 4.15598 0.637205Z" fill="#717070"/>
<path d="M3.33326 0.637205H2.87614C2.84289 0.637205 2.82627 0.662386 2.82627 0.695961C2.82627 0.721142 2.8512 0.746323 2.87614 0.746323H3.33326C3.36651 0.746323 3.38313 0.721142 3.38313 0.695961C3.39144 0.662386 3.36651 0.637205 3.33326 0.637205Z" fill="#717070"/>
<path d="M2.51744 0.637205H2.06032C2.03538 0.637205 2.01045 0.662386 2.01045 0.695961C2.01045 0.721142 2.03538 0.746323 2.06032 0.746323H2.51744C2.54237 0.746323 2.56731 0.721142 2.56731 0.695961C2.56731 0.662386 2.54237 0.637205 2.51744 0.637205Z" fill="#717070"/>
<path d="M1.69472 0.637205H1.23759C1.20435 0.637205 1.18772 0.662386 1.18772 0.695961C1.18772 0.721142 1.21266 0.746323 1.23759 0.746323H1.69472C1.72796 0.746323 1.74458 0.721142 1.74458 0.695961C1.74458 0.662386 1.71965 0.637205 1.69472 0.637205Z" fill="#717070"/>
<path d="M22.1993 0.637205H21.9749H21.7505C21.7172 0.637205 21.7006 0.662386 21.7006 0.695961C21.7006 0.721142 21.7255 0.746323 21.7505 0.746323H21.9749H22.1993C22.2325 0.746323 22.2492 0.721142 22.2492 0.695961C22.2492 0.662386 22.2242 0.637205 22.1993 0.637205Z" fill="#717070"/>
<path d="M23.0224 0.637205H22.5653C22.5321 0.637205 22.5154 0.662386 22.5154 0.695961C22.5154 0.721142 22.5404 0.746323 22.5653 0.746323H23.0224C23.0557 0.746323 23.0723 0.721142 23.0723 0.695961C23.0723 0.662386 23.0474 0.637205 23.0224 0.637205Z" fill="#717070"/>
<path d="M23.8373 0.637205H23.3801C23.3469 0.637205 23.3303 0.662386 23.3303 0.695961C23.3303 0.721142 23.3552 0.746323 23.3801 0.746323H23.8373C23.8705 0.746323 23.8871 0.721142 23.8871 0.695961C23.8954 0.662386 23.8705 0.637205 23.8373 0.637205Z" fill="#717070"/>
<path d="M24.66 0.637205H24.2029C24.1696 0.637205 24.153 0.662386 24.153 0.695961C24.153 0.721142 24.1779 0.746323 24.2029 0.746323H24.66C24.6849 0.746323 24.7099 0.721142 24.7099 0.695961C24.7099 0.662386 24.6932 0.637205 24.66 0.637205Z" fill="#717070"/>
<path d="M25.4827 0.637205H25.0256C24.9923 0.637205 24.9757 0.662386 24.9757 0.695961C24.9757 0.721142 25.0007 0.746323 25.0256 0.746323H25.4827C25.5076 0.746323 25.5326 0.721142 25.5326 0.695961C25.5326 0.662386 25.5076 0.637205 25.4827 0.637205Z" fill="#717070"/>
<path d="M26.2975 0.637205H25.8404C25.8072 0.637205 25.7906 0.662386 25.7906 0.695961C25.7906 0.721142 25.8155 0.746323 25.8404 0.746323H26.2975C26.3308 0.746323 26.3474 0.721142 26.3474 0.695961C26.3557 0.662386 26.3308 0.637205 26.2975 0.637205Z" fill="#717070"/>
<path d="M27.1213 0.637205H26.6641C26.6392 0.637205 26.6143 0.662386 26.6143 0.695961C26.6143 0.721142 26.6392 0.746323 26.6641 0.746323H27.1213C27.1462 0.746323 27.1711 0.721142 27.1711 0.695961C27.1711 0.662386 27.1545 0.637205 27.1213 0.637205Z" fill="#717070"/>
<path d="M27.943 0.637205H27.4859C27.4609 0.637205 27.436 0.662386 27.436 0.695961C27.436 0.721142 27.4609 0.746323 27.4859 0.746323H27.943C27.9762 0.746323 27.9929 0.721142 27.9929 0.695961C27.9929 0.662386 27.9679 0.637205 27.943 0.637205Z" fill="#717070"/>
<path d="M28.7667 0.637205H28.3096C28.2763 0.637205 28.2597 0.662386 28.2597 0.695961C28.2597 0.721142 28.2846 0.746323 28.3096 0.746323H28.7667C28.7916 0.746323 28.8166 0.721142 28.8166 0.695961C28.8166 0.662386 28.7916 0.637205 28.7667 0.637205Z" fill="#717070"/>
<path d="M29.5806 0.637205H29.1234C29.0902 0.637205 29.0736 0.662386 29.0736 0.695961C29.0736 0.721142 29.0985 0.746323 29.1234 0.746323H29.5806C29.6055 0.746323 29.6304 0.721142 29.6304 0.695961C29.6387 0.662386 29.6138 0.637205 29.5806 0.637205Z" fill="#717070"/>
<path d="M30.4023 0.637205H29.9452C29.9119 0.637205 29.8953 0.662386 29.8953 0.695961C29.8953 0.721142 29.9202 0.746323 29.9452 0.746323H30.4023C30.4272 0.746323 30.4522 0.721142 30.4522 0.695961C30.4522 0.662386 30.4272 0.637205 30.4023 0.637205Z" fill="#717070"/>
<path d="M31.225 0.637205H30.7679C30.7346 0.637205 30.718 0.662386 30.718 0.695961C30.718 0.721142 30.743 0.746323 30.7679 0.746323H31.225C31.25 0.746323 31.2749 0.721142 31.2749 0.695961C31.2749 0.662386 31.25 0.637205 31.225 0.637205Z" fill="#717070"/>
<path d="M32.0398 0.637205H31.5827C31.5495 0.637205 31.5329 0.662386 31.5329 0.695961C31.5329 0.721142 31.5578 0.746323 31.5827 0.746323H32.0398C32.0648 0.746323 32.0897 0.721142 32.0897 0.695961C32.098 0.662386 32.0731 0.637205 32.0398 0.637205Z" fill="#717070"/>
<path d="M32.8616 0.637205H32.4045C32.3712 0.637205 32.3546 0.662386 32.3546 0.695961C32.3546 0.721142 32.3795 0.746323 32.4045 0.746323H32.8616C32.8865 0.746323 32.9115 0.721142 32.9115 0.695961C32.9115 0.662386 32.8865 0.637205 32.8616 0.637205Z" fill="#717070"/>
<path d="M33.6863 0.637205H33.2292C33.2042 0.637205 33.1793 0.662386 33.1793 0.695961C33.1793 0.721142 33.2042 0.746323 33.2292 0.746323H33.6863C33.7112 0.746323 33.7362 0.721142 33.7362 0.695961C33.7362 0.662386 33.7112 0.637205 33.6863 0.637205Z" fill="#717070"/>
<path d="M34.5001 0.637205H34.043C34.0181 0.637205 33.9931 0.662386 33.9931 0.695961C33.9931 0.721142 34.0181 0.746323 34.043 0.746323H34.5001C34.5251 0.746323 34.55 0.721142 34.55 0.695961C34.5583 0.662386 34.5334 0.637205 34.5001 0.637205Z" fill="#717070"/>
<path d="M35.3229 0.637205H34.8657C34.8408 0.637205 34.8159 0.662386 34.8159 0.695961C34.8159 0.721142 34.8408 0.746323 34.8657 0.746323H35.3229C35.3478 0.746323 35.3727 0.721142 35.3727 0.695961C35.3727 0.662386 35.3561 0.637205 35.3229 0.637205Z" fill="#717070"/>
<path d="M36.1466 0.637205H35.6894C35.6645 0.637205 35.6396 0.662386 35.6396 0.695961C35.6396 0.721142 35.6645 0.746323 35.6894 0.746323H36.1466C36.1715 0.746323 36.1964 0.721142 36.1964 0.695961C36.1964 0.662386 36.1715 0.637205 36.1466 0.637205Z" fill="#717070"/>
<path d="M36.9604 0.637205H36.5033C36.47 0.637205 36.4534 0.662386 36.4534 0.695961C36.4534 0.721142 36.4784 0.746323 36.5033 0.746323H36.9604C36.9937 0.746323 37.0103 0.721142 37.0103 0.695961C37.0186 0.662386 36.9937 0.637205 36.9604 0.637205Z" fill="#717070"/>
<path d="M37.7831 0.637205H37.326C37.2928 0.637205 37.2761 0.662386 37.2761 0.695961C37.2761 0.721142 37.3011 0.746323 37.326 0.746323H37.7831C37.8164 0.746323 37.833 0.721142 37.833 0.695961C37.833 0.662386 37.8164 0.637205 37.7831 0.637205Z" fill="#717070"/>
<path d="M38.6059 0.637205H38.1487C38.1155 0.637205 38.0989 0.662386 38.0989 0.695961C38.0989 0.721142 38.1238 0.746323 38.1487 0.746323H38.6059C38.6391 0.746323 38.6557 0.721142 38.6557 0.695961C38.6557 0.662386 38.6308 0.637205 38.6059 0.637205Z" fill="#717070"/>
<path d="M39.4207 0.637205H38.9636C38.9303 0.637205 38.9137 0.662386 38.9137 0.695961C38.9137 0.721142 38.9386 0.746323 38.9636 0.746323H39.4207C39.4539 0.746323 39.4706 0.721142 39.4706 0.695961C39.4789 0.662386 39.4539 0.637205 39.4207 0.637205Z" fill="#717070"/>
<path d="M40.2434 0.637205H39.7863C39.7531 0.637205 39.7364 0.662386 39.7364 0.695961C39.7364 0.721142 39.7614 0.746323 39.7863 0.746323H40.2434C40.2684 0.746323 40.2933 0.721142 40.2933 0.695961C40.3016 0.662386 40.2767 0.637205 40.2434 0.637205Z" fill="#717070"/>
<path d="M41.0661 0.637205H40.609C40.5841 0.637205 40.5592 0.662386 40.5592 0.695961C40.5592 0.721142 40.5841 0.746323 40.609 0.746323H41.0661C41.0911 0.746323 41.116 0.721142 41.116 0.695961C41.116 0.662386 41.0911 0.637205 41.0661 0.637205Z" fill="#717070"/>
<path d="M41.8899 0.637205H41.4327C41.4078 0.637205 41.3829 0.662386 41.3829 0.695961C41.3829 0.721142 41.4078 0.746323 41.4327 0.746323H41.8899C41.9148 0.746323 41.9397 0.721142 41.9397 0.695961C41.9397 0.662386 41.9148 0.637205 41.8899 0.637205Z" fill="#717070"/>
<path d="M42.7047 0.637205H42.2476C42.2143 0.637205 42.1977 0.662386 42.1977 0.695961C42.1977 0.721142 42.2226 0.746323 42.2476 0.746323H42.7047C42.7296 0.746323 42.7546 0.721142 42.7546 0.695961C42.7629 0.662386 42.7379 0.637205 42.7047 0.637205Z" fill="#717070"/>
<path d="M21.7418 17.4931C21.7418 17.4931 21.8831 17.5267 21.9163 17.5351C21.9329 17.5435 21.9496 17.5435 21.9745 17.5351C21.9911 17.5351 22.0161 17.5351 22.0327 17.5351C22.0659 17.5267 22.2072 17.4931 22.2072 17.4931C22.2322 17.4847 22.2571 17.4596 22.2488 17.426C22.2405 17.4008 22.2155 17.384 22.1823 17.384C22.1823 17.384 22.0077 17.426 21.9994 17.4344C21.9911 17.4344 21.9828 17.4344 21.9828 17.4344C21.9745 17.4344 21.9662 17.4344 21.9662 17.4344C21.9496 17.4344 21.7833 17.384 21.7833 17.384C21.7584 17.3756 21.7252 17.3924 21.7169 17.426C21.6919 17.4512 21.7169 17.4847 21.7418 17.4931Z" fill="#717070"/>
<path d="M22.2165 17.9293C22.2082 17.9209 22.1915 17.9209 22.1749 17.9209C22.1749 17.9209 22.1334 17.9293 22.0918 17.9461C22.0502 17.9544 22.0004 17.9712 21.9921 17.9712H21.9838H21.9754H21.9671H21.9588C21.9505 17.9712 21.909 17.9544 21.8591 17.9461C21.8175 17.9377 21.776 17.9209 21.776 17.9209C21.7593 17.9209 21.7427 17.9209 21.7344 17.9293C21.7178 17.9377 21.7095 17.9461 21.7095 17.9628C21.7095 17.9796 21.7095 17.988 21.7178 18.0048C21.7261 18.0132 21.7344 18.0216 21.751 18.03C21.751 18.03 21.7843 18.0384 21.8258 18.0468C21.8674 18.0552 21.909 18.0636 21.9256 18.072C21.9339 18.072 21.9422 18.072 21.9505 18.072C21.9588 18.072 21.9671 18.072 21.9754 18.072C21.9838 18.072 21.9921 18.072 22.0004 18.072C22.0087 18.072 22.017 18.072 22.0253 18.072C22.0419 18.0636 22.0918 18.0552 22.125 18.0468C22.1666 18.0384 22.1999 18.03 22.1999 18.03C22.2165 18.03 22.2248 18.0216 22.2331 18.0048C22.2414 17.988 22.2414 17.9796 22.2414 17.9628C22.2414 17.9461 22.2331 17.9377 22.2165 17.9293Z" fill="#717070"/>
<path d="M0.589915 0.695961V0.922591C0.589915 0.947772 0.61485 0.972953 0.639784 0.972953C0.673029 0.972953 0.689652 0.947772 0.689652 0.922591V0.746323H0.86419C0.897436 0.746323 0.914058 0.721142 0.914058 0.695961C0.914058 0.662386 0.889124 0.637205 0.86419 0.637205H0.639784C0.61485 0.637205 0.589915 0.653992 0.589915 0.695961Z" fill="#717070"/>
<path fill-rule="evenodd" clip-rule="evenodd" d="M11.7684 9.90435C12.1839 10.0638 12.6494 10.1478 13.1564 10.1478C13.6633 10.1478 14.1288 10.0638 14.5527 9.91275C14.9682 9.75327 15.3339 9.51824 15.6248 9.21607C15.9157 8.9139 16.1484 8.54457 16.3064 8.12489C16.4643 7.69681 16.5474 7.21837 16.5474 6.69796C16.5474 6.18594 16.4643 5.69911 16.3064 5.27103C16.1484 4.84295 15.9157 4.47363 15.6248 4.17145C15.3339 3.86928 14.9682 3.63426 14.5527 3.46638C14.1371 3.29851 13.6633 3.21457 13.1564 3.21457C12.641 3.21457 12.1756 3.29851 11.7684 3.45799C11.3611 3.62586 11.0037 3.86089 10.7045 4.16306C10.4136 4.46523 10.1809 4.83456 10.023 5.26264C9.86506 5.68232 9.78194 6.16916 9.78194 6.68957C9.78194 7.20997 9.86506 7.69681 10.023 8.1165C10.1809 8.53618 10.4136 8.9055 10.7045 9.20768C10.9954 9.50985 11.3528 9.74487 11.7684 9.90435ZM12.4584 4.87661C12.6412 4.7675 12.8739 4.70874 13.1565 4.70874C13.4308 4.70874 13.6718 4.7591 13.863 4.88501C14.0542 4.99413 14.2038 5.13682 14.3118 5.32148C14.4199 5.49775 14.503 5.70759 14.5528 5.95101C14.6027 6.19443 14.6276 6.44624 14.6276 6.69805C14.6276 6.94986 14.6027 7.20167 14.5528 7.43669C14.5113 7.68011 14.4282 7.88996 14.3118 8.07462C14.2038 8.25928 14.0542 8.40197 13.863 8.51109C13.6718 8.62021 13.4391 8.67896 13.1565 8.67896C12.8823 8.67896 12.6412 8.62021 12.4584 8.51109C12.2672 8.40197 12.1259 8.25928 12.0096 8.07462C11.9015 7.88996 11.8184 7.67172 11.7685 7.43669C11.727 7.19328 11.702 6.94147 11.702 6.69805C11.702 6.44624 11.7187 6.19443 11.7685 5.95101C11.8184 5.71599 11.8932 5.50614 12.0096 5.32148C12.1176 5.13682 12.2672 4.99413 12.4584 4.87661Z" fill="#EE7E22"/>
<path d="M25.3989 9.99755L23.6702 7.16048L23.0884 7.72285V9.98916H21.1768V2.01513H23.0884V5.58246L25.1912 3.37491L27.6347 3.2574L24.9917 5.84266L27.7012 10.1318L25.3989 9.99755Z" fill="#AECA36"/>
<path d="M35.8126 10.0135C35.7959 10.0135 34.1918 10.0051 33.1529 10.0051C32.4465 10.0051 32.3052 9.9967 32.2636 9.98831C32.0143 9.94634 31.7899 9.8708 31.5904 9.76168C31.3909 9.64417 31.233 9.48469 31.125 9.26645C31.0086 9.05661 30.9587 8.77962 30.9587 8.44387V2.05626H32.8703V3.38246H34.1503V4.72546H32.8703V7.83113C32.8454 8.37672 33.1779 8.46066 33.1779 8.46066C33.2527 8.47744 33.3607 8.49423 33.5269 8.49423C33.6267 8.49423 33.7181 8.49423 33.8012 8.48584C33.8926 8.47744 33.9757 8.46905 34.0505 8.45226L34.0921 8.44387L36.1284 10.0219L35.8126 10.0135Z" fill="#6D4897"/>
<path fill-rule="evenodd" clip-rule="evenodd" d="M26.8708 9.9799C27.2947 10.1478 27.7684 10.2317 28.2921 10.2317C29.0401 10.2317 29.6967 10.0554 30.2286 9.7113C30.3699 9.61897 30.5029 9.50146 30.6525 9.35037L30.7107 9.29161L29.5803 8.15846L29.5221 8.22561C29.4473 8.31794 29.3559 8.39349 29.2479 8.46903C28.9985 8.6453 28.7076 8.72924 28.3585 8.72924C27.8682 8.72924 27.5108 8.60333 27.2531 8.35991C27.0786 8.18364 26.9539 7.93183 26.8874 7.59609L26.8209 7.24355H31.5418L31.5501 7.16801C31.5833 6.65599 31.5335 6.16076 31.4171 5.69071C31.2924 5.22067 31.093 4.80098 30.827 4.43166C30.5527 4.05394 30.2037 3.76016 29.7798 3.54193C29.3559 3.32369 28.8572 3.21457 28.2921 3.21457C27.7851 3.21457 27.3196 3.3069 26.9041 3.48317C26.4885 3.66783 26.1228 3.91964 25.8236 4.23021C25.5244 4.54078 25.2917 4.91849 25.1254 5.34657C24.9592 5.77465 24.8761 6.2447 24.8761 6.73993C24.8761 7.25194 24.9592 7.73038 25.1171 8.15846C25.275 8.58654 25.5077 8.95587 25.7986 9.26643C25.9732 9.45949 26.1893 9.62736 26.422 9.76166C26.5633 9.8456 26.7129 9.91275 26.8708 9.9799ZM27.5601 4.86017C27.7346 4.77623 27.959 4.72587 28.2333 4.72587C28.6488 4.72587 28.9564 4.83499 29.1558 5.05322C29.2722 5.17913 29.3719 5.33861 29.4467 5.54006L29.6046 5.94296H26.7871L26.9367 5.54006C26.9783 5.42255 27.0447 5.30504 27.1362 5.19592C27.2359 5.06162 27.3855 4.9525 27.5601 4.86017Z" fill="#1EA1DB"/>
<path fill-rule="evenodd" clip-rule="evenodd" d="M4.3563 3.38285V12.3725H6.2596V9.42632L6.71672 9.73689C6.79984 9.79565 6.89126 9.84601 6.991 9.89637C7.34007 10.0642 7.71409 10.1482 8.12134 10.1482C8.59509 10.1482 9.02728 10.0475 9.38467 9.8628C9.75037 9.67813 10.0496 9.41793 10.2906 9.10736C10.5316 8.79679 10.7145 8.43587 10.8308 8.02457C10.9472 7.62168 11.0054 7.1936 11.0054 6.75712C11.0054 6.29547 10.9472 5.8506 10.8308 5.42252C10.7145 4.98605 10.5316 4.60834 10.2906 4.28937C10.0413 3.96202 9.73374 3.70182 9.35973 3.50876C8.99403 3.30731 8.54522 3.20659 8.02992 3.20659C7.62266 3.20659 7.24865 3.29052 6.90788 3.45L6.90788 3.45001C6.81646 3.50037 6.72503 3.55073 6.64192 3.60948L6.1848 3.92845V3.38285H4.3563ZM7.04875 4.86013C7.2316 4.75941 7.456 4.70905 7.73028 4.70905L7.75521 4.70065C8.0378 4.70905 8.27883 4.7678 8.46999 4.88532C8.66115 5.01122 8.81906 5.16231 8.93542 5.34697C9.05178 5.54002 9.14321 5.74987 9.19308 5.99329C9.24294 6.2367 9.26788 6.48851 9.25957 6.74032C9.25125 6.99214 9.22632 7.24395 9.16814 7.47897C9.11827 7.72239 9.02685 7.92384 8.90218 8.10011C8.78582 8.27637 8.6279 8.41067 8.42843 8.51979C8.23727 8.62052 8.01286 8.67088 7.69703 8.67088C7.41445 8.67088 7.17342 8.60373 6.98226 8.49461C6.78278 8.3771 6.63318 8.2428 6.51682 8.05814C6.40046 7.88187 6.31735 7.66363 6.26748 7.42861C6.21761 7.18519 6.19268 6.93338 6.20099 6.68157C6.2093 6.42136 6.23423 6.16116 6.29241 5.92614C6.35059 5.68272 6.44202 5.47288 6.56669 5.29661C6.69136 5.11195 6.84927 4.97765 7.04875 4.86013Z" fill="#02A4B8"/>
<path d="M39.4129 6.94165C39.2882 6.73181 39.1303 6.54715 38.9308 6.40445C38.7397 6.26176 38.5153 6.15264 38.2659 6.06031C38.0997 6.00156 37.9252 5.95119 37.7423 5.90083C37.6426 5.87565 37.5428 5.85047 37.5428 5.85047L37.2519 5.78332C37.094 5.74975 36.9361 5.71617 36.7782 5.6826C36.5372 5.63223 36.3294 5.57348 36.1548 5.51472C35.9803 5.45597 35.839 5.38042 35.731 5.28809C35.6312 5.20415 35.5814 5.10343 35.5814 4.96074C35.5814 4.88519 35.598 4.80965 35.6146 4.75929L35.6312 4.72571L35.6562 4.69214C35.7143 4.62499 35.7891 4.56623 35.8723 4.53266C35.9637 4.49069 36.0551 4.46551 36.1632 4.45711C36.2712 4.44872 36.3709 4.44033 36.4707 4.44033C36.7699 4.44033 37.0359 4.49908 37.2519 4.6082C37.4597 4.71732 37.5678 4.91877 37.5927 5.23773L37.601 5.31327H37.8088H37.8836H39.4212L39.4129 5.22934C39.3797 4.81804 39.2716 4.4739 39.0971 4.19691C38.9225 3.92831 38.6981 3.70168 38.4405 3.5422C38.1745 3.38272 37.8753 3.26521 37.5428 3.19806C37.2104 3.13091 36.8696 3.09733 36.5205 3.09733C36.1715 3.09733 35.8224 3.13091 35.4899 3.18966C35.1492 3.24842 34.8417 3.36593 34.5757 3.52541C34.3014 3.68489 34.077 3.90313 33.9108 4.18012C33.7446 4.45711 33.6531 4.81804 33.6531 5.24612C33.6531 5.5399 33.7196 5.80011 33.836 6.00156C33.9523 6.20301 34.1186 6.37927 34.318 6.51357C34.5175 6.64787 34.7336 6.75699 34.9829 6.83253C35.2323 6.90808 35.4816 6.98362 35.7393 7.04238C36.3543 7.17668 36.8447 7.30258 37.1938 7.43688C37.5096 7.55439 37.6675 7.73066 37.6675 7.95729C37.6675 8.09998 37.6343 8.21749 37.5678 8.30143C37.5013 8.39376 37.4182 8.46931 37.3184 8.52806C37.2104 8.58682 37.094 8.62879 36.9694 8.65397C36.8364 8.67915 36.7117 8.69594 36.5954 8.69594C36.4291 8.69594 36.2712 8.67915 36.1133 8.63718C35.9637 8.59521 35.8307 8.53646 35.7143 8.45252C35.598 8.36858 35.5066 8.26786 35.4401 8.14195C35.3653 8.01605 35.332 7.86496 35.332 7.68869V7.61315L33.4121 7.62154L33.4204 7.70548C33.437 8.15035 33.5368 8.52806 33.7196 8.82184C33.8942 9.10723 34.2349 9.35065 34.5092 9.52691C34.7918 9.70318 35.1159 9.83748 35.4816 9.91302C35.839 9.98857 36.213 10.0305 36.5787 10.0305C36.9444 10.0305 37.3101 9.99696 37.6592 9.92142C38.0166 9.84587 38.3407 9.71997 38.615 9.5437C38.8976 9.36743 39.122 9.12402 39.3049 8.82184C39.4794 8.51967 39.5708 8.15035 39.5708 7.71387C39.5957 7.42849 39.5293 7.15989 39.4129 6.94165Z" fill="#E7328A"/>
<path d="M18.9837 10.1486C18.5016 10.1486 18.0445 10.0646 17.6372 9.89675C17.23 9.72888 16.8809 9.49385 16.5983 9.20007C16.3074 8.90629 16.083 8.54536 15.9251 8.13407C15.7672 7.72278 15.6841 7.26952 15.6841 6.77429C15.6841 6.27067 15.7589 5.79223 15.9002 5.35575C16.0498 4.91928 16.2659 4.53317 16.5484 4.21421C16.831 3.89525 17.1884 3.64344 17.604 3.46717C18.0112 3.2909 18.4933 3.19857 19.0169 3.19857C19.3992 3.19857 19.7732 3.24893 20.1306 3.34966C20.488 3.45038 20.8122 3.60986 21.0947 3.81131C21.3773 4.02115 21.6184 4.28975 21.7929 4.60032C21.9674 4.91089 22.0755 5.2886 22.1004 5.71668V5.80062H20.2304L20.2221 5.73347C20.114 5.04519 19.7151 4.70944 19.0086 4.70944C18.7509 4.70944 18.5265 4.76819 18.352 4.88571C18.1692 5.01161 18.0279 5.1627 17.9115 5.35575C17.7951 5.54881 17.712 5.76705 17.6705 6.00207C17.6206 6.24549 17.5957 6.4889 17.5957 6.71553C17.5957 6.93377 17.6206 7.16879 17.6705 7.41221C17.7203 7.64724 17.7951 7.85708 17.9032 8.04174C18.0112 8.2264 18.1442 8.37749 18.3271 8.495C18.5016 8.61251 18.7177 8.67127 18.9754 8.67127C19.3743 8.67127 19.6735 8.56215 19.8896 8.34391C20.1057 8.11728 20.2387 7.8235 20.2969 7.43739L20.3052 7.37024H22.1586L22.1503 7.46257C22.0339 8.33552 21.6932 9.00702 21.1363 9.46867C20.5628 9.91354 19.848 10.1486 18.9837 10.1486Z" fill="#F9BA16"/>
<path fill-rule="evenodd" clip-rule="evenodd" d="M12.9576 12.5907C13.0241 12.5907 13.0823 12.5991 13.1404 12.6075C13.1903 12.6159 13.2402 12.641 13.2817 12.6662C13.3233 12.6914 13.3482 12.725 13.3732 12.7753C13.3981 12.8173 13.4064 12.8761 13.4064 12.9432C13.4064 13.0104 13.3898 13.0691 13.3565 13.1195C13.3233 13.1698 13.2817 13.2034 13.2152 13.237C13.2984 13.2622 13.3648 13.3041 13.4064 13.3629C13.448 13.4216 13.4729 13.4972 13.4729 13.5895C13.4729 13.6567 13.4563 13.7238 13.4313 13.7742C13.4064 13.8245 13.3648 13.8665 13.3233 13.9001C13.2734 13.9337 13.2236 13.9588 13.1654 13.9756C13.1072 13.9924 13.049 14.0008 12.9825 14.0008H12.3093V12.5991H12.9576V12.5907ZM12.9163 13.1531C12.9745 13.1531 13.016 13.1363 13.0493 13.1112C13.0825 13.086 13.0991 13.044 13.0991 12.9853C13.0991 12.9517 13.0908 12.9265 13.0825 12.9013C13.077 12.8957 13.0723 12.8901 13.0677 12.8845L13.0677 12.8845C13.0585 12.8733 13.0493 12.8621 13.0326 12.851C13.016 12.8426 12.9911 12.8342 12.9661 12.8258C12.9412 12.8174 12.9163 12.8174 12.883 12.8174H12.6088V13.1447H12.9163V13.1531ZM12.9745 13.7448C12.9599 13.7469 12.9454 13.749 12.9329 13.749V13.7406H12.6088V13.3545H12.9412C13.0077 13.3545 13.0576 13.3713 13.0991 13.4048C13.1407 13.4384 13.1573 13.4888 13.1573 13.5559C13.1573 13.5979 13.149 13.6231 13.1407 13.6483C13.1241 13.6734 13.1074 13.6902 13.0908 13.707C13.0659 13.7238 13.0409 13.7322 13.016 13.7406C13.0035 13.7406 12.989 13.7427 12.9745 13.7448Z" fill="#717070"/>
<path d="M13.5227 12.5907H13.8634L14.1876 13.1447L14.5117 12.5907H14.8442L14.3289 13.4552V13.9924H14.0297V13.4468L13.5227 12.5907Z" fill="#717070"/>
<path d="M23.031 13.6651C22.7734 13.6651 22.6653 13.5057 22.7484 13.1951C22.8315 12.8761 23.031 12.6999 23.297 12.6999C23.4632 12.6999 23.538 12.7754 23.5297 12.9349H24.0616H24.0699C24.0949 12.8258 24.0949 12.7334 24.0616 12.6663C23.9868 12.4816 23.7624 12.3893 23.3801 12.3893C22.7567 12.3893 22.3412 12.6915 22.1916 13.2203C22.1916 13.2371 22.1833 13.2539 22.1833 13.2622C22.15 13.3965 22.15 13.4973 22.1833 13.6064C22.2498 13.8498 22.4991 13.9925 22.898 13.9925C23.4881 13.9925 23.8289 13.8078 23.9868 13.3965H23.4383C23.3718 13.5728 23.2222 13.6651 23.031 13.6651Z" fill="#16467B"/>
<path d="M24.061 13.8918L24.0277 13.9842H24.061H24.5846L25.0085 12.3726H24.4599L24.061 13.8918Z" fill="#16467B"/>
<path d="M22.2094 12.3726H22.1928H21.6608L21.2619 13.8918L21.237 13.9842H21.2619H21.7855L22.1928 12.4481L22.2094 12.3726Z" fill="#16467B"/>
<path d="M20.231 13.6651C19.965 13.6651 19.8653 13.5057 19.9484 13.1951C20.0232 12.8761 20.231 12.6999 20.4886 12.6999C20.6548 12.6999 20.738 12.7754 20.7297 12.9349H21.2616H21.2699C21.2948 12.8258 21.2865 12.7334 21.2616 12.6663C21.1868 12.4816 20.9541 12.3893 20.58 12.3893C19.9567 12.3893 19.5411 12.6915 19.3998 13.2203C19.3998 13.2371 19.3915 13.2539 19.3915 13.2622C19.3583 13.3882 19.3583 13.4973 19.3915 13.6064C19.458 13.8498 19.7074 13.9925 20.1146 13.9925C20.7047 13.9925 21.0455 13.8078 21.1951 13.3965H20.6465C20.5717 13.5728 20.4221 13.6651 20.231 13.6651Z" fill="#16467B"/>
<path d="M19.4068 12.3726H19.3902H18.8666L18.4344 13.9842H18.9746L19.3902 12.4481L19.4068 12.3726Z" fill="#16467B"/>
<path d="M29.6213 12.8434C29.4136 12.8434 29.2473 12.919 29.0977 13.0701L29.131 12.877H28.8151C28.7736 13.0533 28.7653 13.1624 28.7486 13.2044L28.5409 14.0018H28.865L29.0229 13.431C29.0728 13.2211 29.2639 13.0784 29.4551 13.0784C29.6546 13.0784 29.7211 13.1876 29.6546 13.4142L29.505 14.0018H29.8291L30.012 13.3135C30.0951 13.0113 29.9455 12.8434 29.6213 12.8434Z" fill="#16467B"/>
<path fill-rule="evenodd" clip-rule="evenodd" d="M26.7378 13.128C26.9372 13.086 27.0785 13.002 27.145 12.851C27.1473 12.844 27.1502 12.8365 27.1532 12.8286L27.1532 12.8286L27.1532 12.8286C27.1612 12.8079 27.17 12.7853 27.17 12.767C27.2032 12.6579 27.1866 12.574 27.145 12.5068C27.1385 12.5002 27.1326 12.4937 27.1269 12.4874C27.1108 12.4696 27.0969 12.4543 27.0785 12.4481C26.9954 12.3893 26.8458 12.3893 26.6546 12.3893H26.4136H25.8484L25.4246 13.9925H26.2391C26.3056 13.9925 26.3638 13.9925 26.4136 13.9841C26.5549 13.9757 26.6879 13.9421 26.8043 13.8582C26.9206 13.7827 27.0037 13.6651 27.037 13.5308C27.0868 13.3126 26.9954 13.1615 26.7378 13.128ZM26.1235 12.6239H26.4144H26.456C26.7136 12.6239 26.83 12.6575 26.7884 12.8169C26.7469 12.968 26.6305 13.01 26.4061 13.0184H26.3396H26.0072L26.1235 12.6239ZM26.4135 13.7246C26.5381 13.6911 26.6213 13.6323 26.6545 13.5064C26.6961 13.3385 26.6129 13.2798 26.4135 13.2714H26.3137H25.9563L25.8317 13.7414H26.2306C26.2971 13.7414 26.3553 13.733 26.4135 13.7246L26.4135 13.7246Z" fill="#16467B"/>
<path d="M31.6412 12.8674H31.2339L30.6189 13.3206L30.8682 12.3805H30.5524L30.1202 13.9921H30.4444L30.6106 13.3878L31.0345 13.9921H31.475L30.9929 13.3458L31.6412 12.8674Z" fill="#16467B"/>
<path fill-rule="evenodd" clip-rule="evenodd" d="M27.7515 12.8686C27.8263 12.8518 27.9011 12.8434 27.9925 12.8434C28.3582 12.8434 28.5078 12.9945 28.4247 13.2883L28.3 13.7332L28.3 13.7332C28.2834 13.8171 28.2668 13.901 28.2585 13.9766H27.926L27.9592 13.8255C27.8928 13.8926 27.818 13.9262 27.7431 13.9598C27.66 13.9934 27.5686 14.0101 27.4772 14.0101C27.3193 14.0101 27.2029 13.9682 27.1447 13.8926C27.0949 13.8339 27.0782 13.7499 27.1032 13.6492C27.1115 13.6366 27.1177 13.6219 27.124 13.6073C27.1302 13.5926 27.1364 13.5779 27.1447 13.5653C27.2278 13.3806 27.4273 13.3051 27.7515 13.2883C27.8096 13.2799 27.8761 13.2799 27.9343 13.2799H28.1088V13.2631C28.1587 13.1036 28.0922 13.0281 27.926 13.0281C27.8595 13.0281 27.8013 13.0365 27.7515 13.0617C27.7099 13.0952 27.6767 13.1372 27.6517 13.1792H27.3276C27.3858 13.0197 27.5271 12.9106 27.7515 12.8686ZM27.7424 13.8079C27.892 13.766 28.0083 13.6568 28.0499 13.489L28.0582 13.4806H27.8421H27.7424C27.5678 13.4974 27.4681 13.5393 27.4349 13.6652C27.4016 13.7743 27.4681 13.8247 27.6177 13.8247C27.6676 13.8247 27.7008 13.8247 27.7424 13.8079Z" fill="#16467B"/>
<path fill-rule="evenodd" clip-rule="evenodd" d="M16.3323 11.4831C17.0554 10.7529 17.9364 10.5682 18.3021 11.0634C18.6512 11.5671 18.3437 12.5659 17.6123 13.2962C16.8892 14.0264 15.9999 14.2195 15.6425 13.7242C15.2934 13.2206 15.6009 12.2134 16.3323 11.4831Z" fill="#EE7E22"/>
<path fill-rule="evenodd" clip-rule="evenodd" d="M16.8135 11.0963C16.7304 11.1551 16.6556 11.2306 16.5725 11.3062C15.9408 11.9357 15.6666 12.817 15.9824 13.2535C16.3149 13.69 17.0961 13.5305 17.7444 12.8926C18.0935 12.5484 18.3262 12.1455 18.4259 11.7762C18.4592 11.4992 18.4176 11.2558 18.293 11.0711C18.0104 10.6766 17.412 10.7102 16.8135 11.0963Z" fill="#AD2424"/>
<path fill-rule="evenodd" clip-rule="evenodd" d="M17.6935 11.0711C17.7766 11.155 17.7268 11.3481 17.5772 11.4908C17.4276 11.6334 17.2364 11.6838 17.1533 11.5999C17.0702 11.5159 17.1117 11.3313 17.2613 11.1718C17.4109 11.0291 17.6021 10.9871 17.6935 11.0711ZM17.1699 13.6569C16.8374 13.9171 16.4717 14.043 16.1309 13.9926C16.2805 14.001 16.3886 13.8415 16.4883 13.6233C16.5881 13.3967 16.6379 13.1868 16.6961 12.9938C16.7543 12.6916 16.7626 12.4734 16.7294 12.423C16.6795 12.3475 16.5465 12.3726 16.3969 12.4566C16.3221 12.4986 16.2307 12.4734 16.3387 12.3307C16.4551 12.188 16.9039 11.8522 17.0701 11.7935C17.2447 11.7431 17.4524 11.8187 17.3859 12.0201C17.3278 12.1628 16.7044 13.8248 17.1699 13.6569Z" fill="white"/>
</svg>
