<svg width="19" height="19" viewBox="0 0 19 19" fill="none" xmlns="http://www.w3.org/2000/svg">
<path d="M9.5 0C4.25389 0 0 4.25389 0 9.5C0 13.9017 2.99778 17.5961 7.06167 18.6728L9.5 19L11.9383 18.6728C16.0022 17.5961 19 13.9017 19 9.5C19 4.25389 14.7461 0 9.5 0ZM9.5 2.11111C11.2522 2.11111 12.6667 3.52556 12.6667 5.27778C12.6667 7.03 11.2522 8.44444 9.5 8.44444C7.74778 8.44444 6.33333 7.03 6.33333 5.27778C6.33333 3.52556 7.74778 2.11111 9.5 2.11111ZM9.5 17.2056C6.86111 17.2056 4.52833 15.8544 3.16667 13.8067C3.19833 11.7061 7.38889 10.5556 9.5 10.5556C11.6006 10.5556 15.8017 11.7061 15.8333 13.8067C14.4717 15.8544 12.1389 17.2056 9.5 17.2056Z" fill="#434B53"/>
</svg>
