<svg width="15" height="15" viewBox="0 0 15 15" fill="none" xmlns="http://www.w3.org/2000/svg">
<path opacity="0.81" d="M8.24205 15.0001H8.23653L6.63581 14.9868C6.51683 14.9857 6.40114 14.9476 6.3048 14.8777C6.20846 14.8079 6.13625 14.7098 6.09819 14.597L5.75155 13.5677C5.26202 13.4279 4.79152 13.2283 4.35065 12.9736L3.37145 13.4419C3.26441 13.4939 3.14382 13.5112 3.02647 13.4914C2.90913 13.4716 2.80088 13.4157 2.71681 13.3314L1.59631 12.1851C1.51284 12.1 1.45798 11.991 1.43938 11.8732C1.42078 11.7554 1.43936 11.6348 1.49254 11.5281L1.97496 10.5562C1.72823 10.1111 1.53657 9.63752 1.40422 9.14602L0.381971 8.7838C0.26979 8.74378 0.172794 8.66992 0.104374 8.5724C0.0359553 8.47488 -0.000513051 8.35851 5.45326e-06 8.23937L0.0132539 6.6381C0.0142568 6.5189 0.0524599 6.40299 0.122525 6.30657C0.19259 6.21015 0.291015 6.13803 0.404049 6.10029L1.43182 5.75464C1.57235 5.26553 1.77179 4.79532 2.02574 4.35435L1.55657 3.37371C1.50498 3.26673 1.4879 3.14636 1.50767 3.02924C1.52745 2.91213 1.58311 2.80405 1.66696 2.71995L2.80844 1.59686C2.89331 1.51341 3.00206 1.45847 3.11957 1.43967C3.23708 1.42087 3.35753 1.43914 3.46418 1.49194L4.43676 1.97564C4.88155 1.72835 5.355 1.53661 5.84649 1.40471L6.20859 0.380994C6.24818 0.269689 6.32119 0.173342 6.41763 0.105141C6.51406 0.0369412 6.62921 0.000219327 6.74731 0L8.34913 0.0132514C8.46829 0.0142546 8.58416 0.0524693 8.68055 0.122558C8.77694 0.192647 8.84903 0.291107 8.88675 0.40418L9.23118 1.43231C9.72058 1.57261 10.191 1.77212 10.6321 2.02643L11.6124 1.55931C11.7191 1.50763 11.8393 1.4905 11.9562 1.51029C12.0732 1.53008 12.181 1.58581 12.2648 1.66974L13.3886 2.81272C13.473 2.89699 13.5289 3.00546 13.5487 3.12304C13.5685 3.24062 13.5511 3.36144 13.499 3.46868L13.0155 4.44049C13.2636 4.88694 13.4564 5.36199 13.5896 5.85514L14.6118 6.21625C14.7242 6.25633 14.8213 6.33036 14.8897 6.42811C14.9582 6.52585 14.9945 6.64245 14.9938 6.76178L14.9805 8.36196C14.9793 8.48094 14.9411 8.59659 14.8713 8.69294C14.8015 8.78928 14.7035 8.86155 14.5908 8.89976L13.562 9.24542C13.4212 9.7348 13.2218 10.2053 12.968 10.6468L13.435 11.6263C13.4867 11.7335 13.5038 11.854 13.484 11.9714C13.4643 12.0887 13.4086 12.1969 13.3246 12.2812L12.1831 13.4043C12.0981 13.4879 11.989 13.5428 11.8712 13.5612C11.7534 13.5796 11.6328 13.5607 11.5263 13.507L10.5548 13.0244C10.1098 13.2716 9.63644 13.4637 9.14508 13.5965L8.78298 14.6191C8.7434 14.7308 8.67009 14.8275 8.57318 14.8957C8.47628 14.964 8.36057 15.0005 8.24205 15.0001ZM6.89414 14.0647L7.99256 14.0735L8.43414 12.8113L8.68252 12.7561C9.25019 12.6279 9.79311 12.4078 10.2899 12.1045L10.5107 11.972L11.7095 12.5683L12.4922 11.7953L11.9182 10.5949L12.054 10.374C12.365 9.88206 12.594 9.34272 12.7318 8.77718L12.7914 8.5287L14.0598 8.10354L14.0687 6.99921L12.808 6.55748L12.7517 6.30791C12.6238 5.7403 12.4038 5.19751 12.1003 4.70111L11.9679 4.48025L12.564 3.28206L11.7912 2.49909L10.5824 3.07554L10.3616 2.93861C9.86987 2.62761 9.33068 2.39896 8.76532 2.26166L8.51804 2.20092L8.09192 0.933156L6.99459 0.92432L6.5475 2.18546L6.29911 2.24067C5.73151 2.36909 5.18862 2.58916 4.69177 2.89223L4.47098 3.02475L3.2721 2.42952L2.4894 3.20254L3.0778 4.41068L2.94202 4.63154C2.6308 5.12303 2.40185 5.66203 2.2642 6.22729L2.20458 6.47577L0.936151 6.90203L0.927319 7.99973L2.18802 8.44146L2.24432 8.69104C2.37241 9.25893 2.59242 9.80205 2.89565 10.2989L3.02812 10.5198L2.43199 11.718L3.20475 12.501L4.41026 11.9201L4.63105 12.057C5.12281 12.368 5.66199 12.5967 6.22735 12.734L6.47574 12.7947L6.89414 14.0647ZM7.52118 11.8516H7.48475C6.71976 11.8455 5.9701 11.6364 5.31221 11.2459C4.65433 10.8553 4.11176 10.2972 3.73985 9.62848C3.36794 8.95973 3.17999 8.20426 3.19517 7.43914C3.21035 6.67402 3.42813 5.92661 3.82628 5.27315C3.85669 5.21893 3.89772 5.1714 3.94691 5.13339C3.9961 5.09538 4.05244 5.06768 4.11257 5.05194C4.1727 5.0362 4.23538 5.03274 4.29688 5.04177C4.35837 5.05081 4.41742 5.07215 4.47049 5.10452C4.52355 5.13689 4.56955 5.17963 4.60574 5.23018C4.64193 5.28073 4.66756 5.33806 4.6811 5.39874C4.69465 5.45942 4.69583 5.52221 4.68457 5.58336C4.67332 5.64451 4.64986 5.70276 4.6156 5.75464C4.3029 6.26846 4.13197 6.85604 4.12024 7.45747C4.1085 8.05891 4.25637 8.65271 4.54878 9.17836C4.84119 9.704 5.26768 10.1427 5.78479 10.4497C6.30191 10.7568 6.89115 10.9212 7.49247 10.9262H7.51786C8.40949 10.914 9.26065 10.552 9.88809 9.91815C10.5155 9.28432 10.869 8.42935 10.8725 7.53734C10.876 6.64534 10.5291 5.78763 9.90666 5.14893C9.28418 4.51023 8.43586 4.14161 7.54436 4.12245C7.30229 4.12145 7.06075 4.14514 6.82348 4.19313C6.76311 4.20798 6.70037 4.2105 6.639 4.20054C6.57763 4.19059 6.51889 4.16836 6.46631 4.13518C6.41372 4.10201 6.36836 4.05857 6.33293 4.00746C6.29751 3.95635 6.27274 3.89862 6.26012 3.83773C6.2475 3.77683 6.24728 3.71401 6.25948 3.65303C6.27167 3.59205 6.29603 3.53414 6.3311 3.48279C6.36617 3.43144 6.41123 3.38768 6.46358 3.35414C6.51594 3.3206 6.57451 3.29796 6.63581 3.28758C6.9369 3.22326 7.24424 3.19288 7.55209 3.19702C8.69921 3.20156 9.79756 3.66177 10.6055 4.4764C11.4134 5.29103 11.8648 6.39336 11.8602 7.54088C11.8557 8.68841 11.3956 9.78713 10.5813 10.5953C9.76694 11.4036 8.66499 11.8551 7.51786 11.8505L7.52118 11.8516Z" fill="white"/>
</svg>
