<svg width="4" height="3" viewBox="0 0 4 3" fill="none" xmlns="http://www.w3.org/2000/svg">
<g clip-path="url(#clip0_7_60443)">
<path d="M3.2986 0.512137C2.99275 0.335583 2.60165 0.440494 2.4249 0.746347L1.97936 1.51815C1.85044 1.74102 2.01641 1.8189 2.20147 1.92986L2.63019 2.1773C2.77537 2.26104 2.9608 2.21133 3.04455 2.06634L3.50256 1.27317C3.65643 1.00664 3.56513 0.66601 3.2986 0.512137Z" fill="#EA4335"/>
<path d="M2.79307 0.832436L2.36435 0.584999C2.12769 0.453624 1.99367 0.444928 1.8965 0.599366L1.2642 1.69442C1.08765 2.00008 1.19275 2.39099 1.49841 2.56717C1.76494 2.72104 2.10557 2.62973 2.25944 2.3632L2.90385 1.24698C2.98796 1.10181 2.93825 0.916178 2.79307 0.832436Z" fill="#FBBC04"/>
<path d="M2.87574 0.269027L2.57461 0.0951197C2.24154 -0.0971237 1.81566 0.0168611 1.62342 0.349931L1.05009 1.3429C0.965404 1.4894 1.01569 1.67692 1.16219 1.76142L1.49942 1.95612C1.66595 2.05234 1.87879 1.99525 1.97501 1.82871L2.63 0.694346C2.76572 0.45938 3.06609 0.378853 3.30105 0.514577L2.87574 0.269027Z" fill="#34A853"/>
<path d="M1.70511 0.633724L1.3796 0.446206C1.23442 0.362656 1.04899 0.412181 0.965249 0.556978L0.574714 1.23182C0.382471 1.56394 0.496456 1.98888 0.829526 2.18056L1.07734 2.32327L1.3779 2.49642L1.50833 2.57146C1.27677 2.41647 1.20324 2.10589 1.34482 1.86128L1.44595 1.68662L1.81626 1.04675C1.89981 0.902338 1.8501 0.717274 1.70511 0.633724Z" fill="#4285F4"/>
</g>
<defs>
<clipPath id="clip0_7_60443">
<rect width="3.70859" height="2.44767" fill="white" transform="scale(1.07846)"/>
</clipPath>
</defs>
</svg>
