<svg width="69" height="140" viewBox="0 0 69 140" fill="none" xmlns="http://www.w3.org/2000/svg">
<path d="M58.0128 140L10.3716 139.973C9.00907 139.972 7.65998 139.704 6.40136 139.183C5.14274 138.661 3.99924 137.898 3.03614 136.936C2.07305 135.973 1.30923 134.831 0.788287 133.574C0.267344 132.317 -0.000514492 130.97 7.41887e-07 129.609L0.023536 10.3631C0.0235359 9.00188 0.292139 7.65399 0.814001 6.39642C1.33586 5.13885 2.10075 3.99626 3.06499 3.0339C4.02923 2.07155 5.17392 1.30829 6.43367 0.787722C7.69341 0.267156 9.04354 -0.000513709 10.4069 7.40152e-07L58.0481 0.0274163C60.7995 0.0294927 63.4376 1.12224 65.3824 3.06547C67.3272 5.00871 68.4197 7.64342 68.4197 10.3905L68.3962 129.637C68.3967 130.998 68.1284 132.346 67.6068 133.604C67.0851 134.862 66.3202 136.005 65.3559 136.967C64.3915 137.93 63.2466 138.693 61.9867 139.213C60.7267 139.734 59.3763 140.001 58.0128 140Z" fill="#20446C"/>
<path d="M58.0723 4.48828H48.8421C48.5402 4.49487 48.2427 4.56099 47.9665 4.68282C47.6903 4.80465 47.4409 4.9798 47.2328 5.19819C47.0246 5.41657 46.8617 5.67389 46.7535 5.95535C46.6453 6.2368 46.5939 6.53683 46.6023 6.83819V8.51055C46.6101 8.81178 46.5583 9.11158 46.4499 9.39281C46.3415 9.67403 46.1786 9.93115 45.9706 10.1494C45.7625 10.3677 45.5134 10.5429 45.2374 10.6649C44.9615 10.7869 44.6641 10.8534 44.3624 10.8605H26.3572C26.0553 10.8533 25.7578 10.7869 25.4816 10.6649C25.2054 10.543 24.956 10.3679 24.7476 10.1497C24.5393 9.93144 24.376 9.67435 24.2672 9.39311C24.1584 9.11186 24.1061 8.81197 24.1134 8.51055V6.81078C24.1212 6.50955 24.0695 6.20974 23.9611 5.92852C23.8527 5.64729 23.6898 5.39018 23.4817 5.1719C23.2737 4.95362 23.0245 4.77846 22.7486 4.65645C22.4726 4.53444 22.1753 4.46797 21.8735 4.46086H10.5369C9.58223 4.45983 8.63669 4.64669 7.75437 5.01075C6.87206 5.3748 6.07026 5.90892 5.39483 6.58256C4.71939 7.25621 4.18356 8.05616 3.81797 8.9367C3.45239 9.81723 3.26422 10.7611 3.26422 11.7143L3.24069 128.109C3.24277 130.032 4.00896 131.875 5.37105 133.235C6.73314 134.594 8.57977 135.358 10.5055 135.359L58.0487 135.386C59.0034 135.387 59.949 135.2 60.8313 134.836C61.7136 134.472 62.5154 133.938 63.1908 133.265C63.8662 132.591 64.4021 131.791 64.7677 130.91C65.1333 130.03 65.3214 129.086 65.3214 128.133L65.3449 11.7378C65.3429 9.81368 64.5756 7.96917 63.2118 6.60974C61.848 5.25031 59.9994 4.48724 58.0723 4.48828Z" fill="#FAFAFA"/>
</svg>
