<svg width="6" height="6" viewBox="0 0 6 6" fill="none" xmlns="http://www.w3.org/2000/svg">
<path d="M5.93615 2.37498C6.05795 2.95346 6.00467 3.55492 5.78306 4.10324C5.56144 4.65156 5.18146 5.12209 4.69119 5.45529C4.20092 5.78849 3.6224 5.96938 3.02885 5.97506C2.4353 5.98075 1.85339 5.81098 1.35678 5.48723C0.860162 5.16348 0.471157 4.70032 0.238991 4.15634C0.00682579 3.61237 -0.0580609 3.01204 0.052538 2.43133C0.163137 1.85063 0.444252 1.31564 0.860309 0.894077C1.27636 0.472515 1.80866 0.183329 2.38983 0.0631142C2.77514 -0.0170813 3.17254 -0.0208901 3.55933 0.0519055C3.94612 0.124701 4.31471 0.272674 4.64405 0.487369C4.97339 0.702065 5.25701 0.979274 5.47871 1.30316C5.70042 1.62704 5.85586 1.99125 5.93615 2.37498Z" fill="#FFE8DE"/>
<path d="M5.23738 2.52003C5.33018 2.96089 5.28955 3.41924 5.12063 3.83709C4.95172 4.25494 4.66211 4.6135 4.28847 4.86739C3.91482 5.12128 3.47394 5.25909 3.0216 5.26337C2.56927 5.26765 2.12584 5.13822 1.74741 4.89145C1.36898 4.64468 1.07258 4.29167 0.89572 3.8771C0.718856 3.46252 0.66948 3.00502 0.753842 2.56249C0.838204 2.11996 1.05251 1.7123 1.36964 1.3911C1.68677 1.0699 2.09246 0.849604 2.53538 0.758088C2.82898 0.697026 3.1318 0.694169 3.42651 0.74968C3.72123 0.80519 4.00207 0.917981 4.253 1.08161C4.50392 1.24523 4.72001 1.45648 4.88891 1.7033C5.05782 1.95011 5.17623 2.22764 5.23738 2.52003Z" fill="#FFD2C0"/>
<path d="M3.20546 1.75329C3.28396 1.70141 3.30631 1.59691 3.25539 1.51984C3.2045 1.44283 3.09956 1.42236 3.02106 1.47424L1.89544 2.21804C1.81694 2.26992 1.79462 2.37447 1.84551 2.45149C1.89644 2.52855 2.00133 2.54897 2.07983 2.49709L2.40245 2.28391C2.53571 2.19554 2.7074 2.19186 2.84137 2.2745L2.2103 2.69151C2.13185 2.74335 2.10948 2.84794 2.16037 2.92495C2.21129 3.00202 2.31625 3.0224 2.39469 2.97056L3.02576 2.55355C3.04854 2.7092 2.97797 2.86529 2.845 2.95363L2.52238 3.16681C2.46412 3.20539 2.4348 3.27495 2.44832 3.34236C2.46184 3.40977 2.5155 3.46154 2.58379 3.47303L3.8815 3.6879C3.92423 3.69475 3.96821 3.68502 4.00443 3.66078C4.04337 3.63473 4.07044 3.59445 4.07963 3.54899C4.08779 3.50508 4.07806 3.46006 4.05262 3.42386C4.02719 3.38766 3.98808 3.36324 3.94396 3.35598L3.06348 3.21015C3.32997 3.0115 3.43639 2.66487 3.32516 2.35774L3.51987 2.22909C3.59837 2.17721 3.62072 2.07271 3.56979 1.99565C3.51887 1.91858 3.41397 1.89816 3.33547 1.95004L3.14077 2.07869C3.07831 2.02014 3.00572 1.97305 2.92642 1.93971L3.20639 1.7547L3.20546 1.75329Z" fill="#F38D5D"/>
<path d="M5.2202 2.4491C5.20686 2.4491 5.1772 2.35683 5.1053 2.1937C5.00552 1.96417 4.87048 1.7515 4.70501 1.56333C4.5908 1.43535 4.46305 1.32002 4.32398 1.21935C4.16361 1.10537 3.98922 1.01234 3.80508 0.94255C3.70628 0.90433 3.60467 0.87373 3.50115 0.85102C3.28244 0.801793 3.05754 0.785619 2.83399 0.803041C2.71665 0.812579 2.60019 0.830837 2.48559 0.857664C2.3712 0.885808 2.25897 0.92207 2.14978 0.966171C2.04413 1.00996 1.94203 1.06178 1.84437 1.12118C1.74964 1.17757 1.65965 1.24151 1.57528 1.31236C1.49354 1.38044 1.41698 1.45446 1.34623 1.5338C1.2145 1.67927 1.10214 1.84102 1.01191 2.01507C0.933485 2.16728 0.872321 2.32771 0.829547 2.49339C0.768169 2.73588 0.744913 2.98638 0.760608 3.23596C0.771727 3.41385 0.788778 3.51276 0.775434 3.51572C0.762091 3.51867 0.725028 3.42419 0.693152 3.24334C0.649872 2.98553 0.655148 2.72196 0.708717 2.46608C0.789347 2.08152 0.96805 1.7241 1.22762 1.42825C1.38079 1.253 1.55915 1.10127 1.7569 0.977981C1.86161 0.912912 1.97143 0.856383 2.08529 0.808946C2.20267 0.760436 2.3236 0.720953 2.44704 0.690843C2.57085 0.661705 2.69676 0.642208 2.82361 0.63253C2.94696 0.622518 3.07092 0.622518 3.19426 0.63253C3.31273 0.642417 3.43022 0.661669 3.54563 0.690105C3.65638 0.716442 3.76493 0.751237 3.87031 0.794183C4.06397 0.873874 4.24598 0.979142 4.41145 1.10716C4.55444 1.2173 4.68383 1.34391 4.79692 1.48435C4.96201 1.68785 5.08769 1.92012 5.16757 2.16934C5.22317 2.34502 5.23058 2.44689 5.2202 2.4491Z" fill="#F38D5D"/>
</svg>
