<svg width="29" height="29" viewBox="0 0 29 29" fill="none" xmlns="http://www.w3.org/2000/svg">
<path d="M14.4143 28.9991C14.3955 29.0002 14.3767 29.0002 14.3579 28.9991L11.1569 28.6105C11.0614 28.5992 10.9719 28.5583 10.9008 28.4935C10.8298 28.4286 10.7808 28.3432 10.7609 28.2491L10.2248 25.7525C9.09188 25.3248 8.03077 24.7267 7.07812 23.9789L4.66274 24.8147C4.57186 24.846 4.47348 24.8482 4.3813 24.8209C4.28912 24.7937 4.20771 24.7384 4.14842 24.6627L2.16924 22.1184C2.10984 22.0427 2.0756 21.9503 2.07132 21.8541C2.06704 21.758 2.09294 21.6629 2.14537 21.5822L3.53318 19.4352C3.03353 18.3336 2.70424 17.1623 2.55661 15.9617L0.259513 14.8437C0.17308 14.8017 0.101934 14.7336 0.0560213 14.6492C0.0101092 14.5647 -0.00827312 14.468 0.00343654 14.3726L0.391889 11.1705C0.403172 11.075 0.444089 10.9854 0.5089 10.9143C0.57371 10.8433 0.659151 10.7943 0.753214 10.7743L3.24889 10.2381C3.67703 9.1048 4.27527 8.04335 5.02299 7.09029L4.18748 4.67407C4.15618 4.58315 4.154 4.48474 4.18123 4.39252C4.20845 4.3003 4.26374 4.21888 4.33939 4.15956L6.87738 2.16992C6.9531 2.11064 7.04537 2.07638 7.14142 2.07191C7.23746 2.06744 7.33251 2.09297 7.4134 2.14496L9.55969 3.53434C10.6608 3.03425 11.8316 2.70483 13.0319 2.55743L14.1496 0.259517C14.1917 0.173159 14.2597 0.10209 14.3441 0.0561798C14.4285 0.0102698 14.5251 -0.00819795 14.6205 0.0033513L17.8214 0.391946C17.9169 0.403233 18.0065 0.444172 18.0775 0.509005C18.1486 0.573838 18.1975 0.659308 18.2175 0.753404L18.7535 3.24995C19.8861 3.67853 20.9471 4.27655 21.9002 5.02358L24.3156 4.18886C24.4065 4.15756 24.5049 4.15537 24.5971 4.1826C24.6892 4.20984 24.7706 4.26515 24.8299 4.34083L26.8178 6.89056C26.8772 6.96628 26.9114 7.05868 26.9157 7.15484C26.92 7.25099 26.8941 7.34608 26.8417 7.42678L25.4539 9.57272C25.9534 10.6744 26.2827 11.8456 26.4304 13.0462L28.7275 14.1642C28.814 14.2062 28.8851 14.2742 28.931 14.3587C28.9769 14.4432 28.9953 14.5399 28.9836 14.6353L28.5952 17.8374C28.5837 17.9328 28.5427 18.0224 28.478 18.0934C28.4132 18.1644 28.3278 18.2134 28.2338 18.2336L25.7382 18.7698C25.3096 19.901 24.7117 20.9605 23.9651 21.9122L24.7996 24.3295C24.8309 24.4204 24.8331 24.5188 24.8058 24.611C24.7786 24.7032 24.7233 24.7847 24.6477 24.844L22.1097 26.8336C22.034 26.893 21.9416 26.9273 21.8455 26.9316C21.7494 26.9358 21.6543 26.91 21.5736 26.8575L19.4219 25.4703C18.3208 25.9704 17.15 26.2998 15.9497 26.4472L14.8321 28.7451C14.7931 28.8223 14.7333 28.887 14.6595 28.9319C14.5857 28.9768 14.5007 29.0001 14.4143 28.9991ZM7.17578 23.4318L7.28429 23.5143C8.25479 24.2957 9.34625 24.9135 10.5156 25.3433L10.6404 25.3889L11.2329 28.147L14.4165 28.5193L15.6242 25.9946L15.7565 25.9794C16.9967 25.8438 18.2062 25.5061 19.3373 24.9797L19.4577 24.9232L21.8275 26.4559L24.3417 24.4673L23.4139 21.8221L23.4975 21.719C24.2779 20.7466 24.8944 19.6533 25.3226 18.4821L25.3681 18.3562L28.1253 17.7646L28.4975 14.5799L25.9736 13.3675L25.9584 13.235C25.8229 11.9945 25.4854 10.7845 24.9591 9.65304L24.9037 9.53148L26.4348 7.16193L24.4469 4.64693L21.8091 5.57499L21.7006 5.49141C20.7288 4.71028 19.6358 4.09355 18.4649 3.66567L18.3401 3.62009L17.7477 0.86195L14.5651 0.48638L13.3531 3.01115L13.2207 3.02526C11.9806 3.16167 10.7712 3.49971 9.63998 4.02605L9.51954 4.0814L7.15191 2.54874L4.63779 4.5373L5.56553 7.18146L5.48306 7.29001C4.70228 8.26233 4.08543 9.35565 3.65688 10.5268L3.61131 10.6517L0.867152 11.2411L0.480859 14.429L3.00474 15.6415L3.01994 15.7739C3.15542 17.0145 3.49301 18.2245 4.0193 19.3559L4.07571 19.4764L2.54359 21.847L4.53145 24.362L7.17578 23.4318ZM14.5641 22.4864C14.2376 22.4862 13.9115 22.4662 13.5875 22.4267C12.1471 22.2519 10.7812 21.6892 9.63565 20.7985C9.58514 20.7592 9.55231 20.7014 9.54437 20.6379C9.53644 20.5744 9.55405 20.5104 9.59333 20.4598C9.63261 20.4093 9.69034 20.3765 9.75383 20.3685C9.81731 20.3606 9.88137 20.3782 9.93187 20.4175C11.2473 21.4389 12.8637 21.996 14.5288 22.002C16.194 22.0079 17.8143 21.4624 19.137 20.4505C20.4597 19.4386 21.4105 18.0172 21.8409 16.408C22.2713 14.7988 22.1572 13.0924 21.5163 11.555C20.8755 10.0175 19.744 8.73541 18.2984 7.90874C16.8527 7.08207 15.1742 6.75728 13.5247 6.98506C11.8751 7.21283 10.3473 7.98034 9.17962 9.16788C8.0119 10.3554 7.26993 11.8962 7.06944 13.5498C7.00477 14.083 6.9964 14.6214 7.04449 15.1563C7.04834 15.1883 7.04572 15.2208 7.03681 15.2518C7.02789 15.2827 7.01284 15.3116 6.99257 15.3367C6.97229 15.3618 6.9472 15.3825 6.91876 15.3977C6.89033 15.4129 6.85914 15.4222 6.82704 15.4251C6.79494 15.428 6.76258 15.4244 6.73188 15.4146C6.70118 15.4048 6.67276 15.3889 6.64832 15.3679C6.62387 15.3468 6.60389 15.3211 6.58956 15.2922C6.57523 15.2634 6.56684 15.2319 6.56488 15.1997C6.41568 13.5889 6.75673 11.9705 7.54328 10.557C8.32982 9.14348 9.52513 8.00082 10.9724 7.27893C12.4196 6.55704 14.0512 6.28963 15.6531 6.5118C17.2549 6.73397 18.7523 7.43533 19.9486 8.52387C21.1449 9.61241 21.9844 11.0373 22.3568 12.6115C22.7293 14.1858 22.6173 15.8359 22.0356 17.3454C21.454 18.8549 20.4297 20.1532 19.0974 21.0701C17.765 21.987 16.1867 22.4795 14.5695 22.4831L14.5641 22.4864Z" fill="#90B9E7"/>
</svg>
