<svg width="44" height="44" viewBox="0 0 44 44" fill="none" xmlns="http://www.w3.org/2000/svg">
<circle cx="22" cy="22" r="22" fill="white"/>
<path d="M22.9289 17.8186H15.3419C14.8931 17.8186 14.5293 18.1825 14.5293 18.6313V23.7243C14.5293 24.1731 14.8931 24.5369 15.3419 24.5369H22.9289C23.3777 24.5369 23.7415 24.1731 23.7415 23.7243V18.6313C23.7415 18.1825 23.3777 17.8186 22.9289 17.8186ZM22.1162 22.9116H16.1546V19.4439H22.1162V22.9116Z" fill="#92140C"/>
<path d="M19.7092 27.727C20.0267 27.4095 20.0267 26.8947 19.7092 26.5772C19.3916 26.2596 18.8768 26.2596 18.5593 26.5772C18.2418 26.8947 18.2418 27.4095 18.5593 27.727C18.8768 28.0446 19.3916 28.0446 19.7092 27.727Z" fill="#92140C"/>
<path d="M19.1366 29.812C18.6875 29.8124 18.3238 30.1769 18.3242 30.626C18.3247 31.0751 18.6891 31.4388 19.1382 31.4384C19.5874 31.438 19.951 31.0735 19.9506 30.6244C19.9502 30.1753 19.5857 29.8115 19.1366 29.812Z" fill="#92140C"/>
<path d="M15.6617 27.9711C16.1108 27.9707 16.4745 27.6062 16.474 27.1571C16.4736 26.708 16.1092 26.3443 15.66 26.3447C15.2109 26.3452 14.8472 26.7096 14.8477 27.1587C14.8481 27.6079 15.2126 27.9715 15.6617 27.9711Z" fill="#92140C"/>
<path d="M23.1818 27.7256C23.4993 27.408 23.4993 26.8932 23.1818 26.5757C22.8643 26.2582 22.3495 26.2582 22.032 26.5757C21.7144 26.8932 21.7144 27.408 22.032 27.7256C22.3495 28.0431 22.8643 28.0431 23.1818 27.7256Z" fill="#92140C"/>
<path d="M16.2345 31.2046C16.5521 30.887 16.5521 30.3722 16.2345 30.0547C15.917 29.7372 15.4022 29.7372 15.0847 30.0547C14.7672 30.3722 14.7672 30.887 15.0847 31.2046C15.4022 31.5221 15.917 31.5221 16.2345 31.2046Z" fill="#92140C"/>
<path d="M23.3292 31.0205C23.5407 30.6244 23.3911 30.1318 22.995 29.9202C22.5989 29.7087 22.1063 29.8583 21.8947 30.2544C21.6832 30.6506 21.8328 31.1432 22.229 31.3547C22.6251 31.5662 23.1177 31.4166 23.3292 31.0205Z" fill="#92140C"/>
<path d="M31.8918 16.6883H27.4811L27.5095 15.7861C27.5725 14.5457 27.1367 13.3668 26.2816 12.4654C25.4643 11.6038 24.3732 11.1125 23.1938 11.0686V8.99638C23.1938 8.46138 22.7585 8.02612 22.2235 8.02612H16.0498C15.5148 8.02612 15.0795 8.46138 15.0795 8.99638V11.0686C13.9001 11.1125 12.809 11.6038 11.9916 12.4655C11.1366 13.3669 10.7007 14.5456 10.7638 15.7861C10.777 16.2075 11.2333 30.7778 11.2364 30.8832C11.2723 32.2014 11.8217 33.4332 12.7835 34.3518C13.7374 35.2629 14.9898 35.7646 16.3098 35.7646L21.9714 35.7646C23.2655 35.7646 24.5668 35.1946 25.5416 34.201C25.9404 33.7945 26.2676 33.3365 26.5135 32.8513H31.8918C33.0542 32.8513 33.9999 31.9056 33.9999 30.7433V18.7963C33.9999 17.6339 33.0542 16.6883 31.8918 16.6883ZM21.5684 9.65143V14.54H16.7048V9.65143H21.5684ZM21.9714 34.1393L16.3098 34.1393C15.4098 34.1393 14.5561 33.7974 13.906 33.1764C13.2563 32.556 12.8852 31.7259 12.8611 30.8389C12.86 30.7978 12.4364 17.2694 12.3881 15.727C12.3879 15.7212 12.3877 15.7154 12.3874 15.7096C12.3454 14.9157 12.6236 14.1608 13.1708 13.5841C13.6781 13.0492 14.3506 12.7378 15.0795 12.6951V14.5478C14.6808 14.5997 14.3727 14.9399 14.3727 15.3527C14.3727 15.8015 14.7365 16.1654 15.1853 16.1654H23.0879C23.5367 16.1654 23.9006 15.8015 23.9006 15.3527C23.9006 14.9398 23.5924 14.5997 23.1938 14.5478V12.6951C23.9226 12.7377 24.5951 13.0492 25.1024 13.584C25.6496 14.1607 25.9278 14.9157 25.8859 15.7096C25.8856 15.7153 25.8854 15.7211 25.8852 15.7268L25.4139 30.7129C25.4136 30.7214 25.4135 30.7299 25.4135 30.7384C25.4135 31.5469 25.0373 32.3941 24.3814 33.0627C23.7102 33.7469 22.8319 34.1393 21.9714 34.1393ZM27.0388 30.7521L27.43 18.3136H29.1218V31.226H27.0106C27.0287 31.0679 27.0383 30.9097 27.0388 30.7521ZM32.3746 30.7432C32.3746 31.0094 32.158 31.2259 31.8918 31.2259H30.7471V18.3136H31.8918C32.158 18.3136 32.3746 18.5301 32.3746 18.7963V30.7432Z" fill="#92140C"/>
<path d="M29.9357 13.5033C30.3845 13.5033 30.7484 13.1394 30.7484 12.6906V8.91324C30.7484 8.46444 30.3845 8.10059 29.9357 8.10059C29.4869 8.10059 29.123 8.46444 29.123 8.91324V12.6906C29.123 13.1394 29.4869 13.5033 29.9357 13.5033Z" fill="#92140C"/>
<path d="M33.1877 9.73267C32.7389 9.73267 32.375 10.0965 32.375 10.5453V12.6963C32.375 13.1451 32.7389 13.509 33.1877 13.509C33.6365 13.509 34.0003 13.1451 34.0003 12.6963V10.5453C34.0003 10.0965 33.6365 9.73267 33.1877 9.73267Z" fill="#92140C"/>
</svg>
