<svg width="24" height="25" viewBox="0 0 24 25" fill="none" xmlns="http://www.w3.org/2000/svg">
<path d="M21.2203 24.0286L4.18346 24.9958C3.49814 25.0346 2.82507 24.8022 2.30956 24.3488C1.79404 23.8954 1.47744 23.2574 1.42811 22.5725L0.00667848 2.80222C-0.0189713 2.44391 0.0294376 2.08416 0.14889 1.7454C0.268342 1.40663 0.456277 1.09612 0.700974 0.833205C0.945671 0.570294 1.24188 0.360626 1.57115 0.217275C1.90041 0.0739233 2.25567 -3.78128e-05 2.61476 1.45027e-08H21.0763C21.7683 0.00197864 22.4313 0.278434 22.9198 0.768734C23.4083 1.25903 23.6825 1.92315 23.6822 2.6154V21.4228C23.6809 22.0892 23.4254 22.7299 22.9679 23.2141C22.5104 23.6984 21.8853 23.9897 21.2203 24.0286Z" fill="#6C9ED7"/>
</svg>
