<svg width="49" height="105" viewBox="0 0 49 105" fill="none" xmlns="http://www.w3.org/2000/svg">
<path d="M26.9122 65.7046C26.8126 69.7488 28.8192 69.4377 28.8192 69.4377C29.0277 68.9713 29.2798 68.5255 29.572 68.1063C30.6235 66.4917 32.2319 64.2269 31.6283 62.8861C31.2339 62.0847 30.7849 61.3114 30.2844 60.5716C29.2111 58.9259 27.9761 57.2584 27.9761 57.2584L33.33 56.3718C33.33 56.3718 37.144 57.949 40.1523 58.1326H40.3856C43.1357 58.1855 42.6909 56.0296 42.6909 55.3327C42.6909 55.0372 41.9473 54.4928 41.0794 53.9577C39.835 53.1986 38.3355 52.4489 38.3355 52.4489L39.1506 50.7628C39.618 50.8589 40.0972 50.8851 40.5723 50.8405C42.6566 50.6134 42.3704 48.5602 42.0313 47.6674C41.9349 47.4092 41.4558 47.0234 40.787 46.5754C38.6435 45.1631 34.5402 43.197 34.5402 43.197H28.5143L22.6035 59.3552C22.6035 59.3552 27.0086 61.6542 26.9122 65.7046Z" fill="white"/>
<path opacity="0.1" d="M26.9122 65.7046C26.8126 69.7488 28.8192 69.4377 28.8192 69.4377C29.0277 68.9713 29.2798 68.5255 29.572 68.1063C30.6235 66.4917 32.2319 64.2269 31.6283 62.8861C31.2339 62.0847 30.7849 61.3114 30.2844 60.5716C29.2111 58.9259 27.9761 57.2584 27.9761 57.2584L33.33 56.3718C33.33 56.3718 37.144 57.949 40.1523 58.1326H40.3856C43.1357 58.1855 42.6909 56.0296 42.6909 55.3327C42.6909 55.0372 41.9473 54.4928 41.0794 53.9577C39.835 53.1986 38.3355 52.4489 38.3355 52.4489L39.1506 50.7628C39.618 50.8589 40.0972 50.8851 40.5723 50.8405C42.6566 50.6134 42.3704 48.5602 42.0313 47.6674C41.9349 47.4092 41.4558 47.0234 40.787 46.5754C38.6435 45.1631 34.5402 43.197 34.5402 43.197H28.5143L22.6035 59.3552C22.6035 59.3552 27.0086 61.6542 26.9122 65.7046Z" fill="#FFE4C8"/>
<path opacity="0.4" d="M26.9122 65.7046C26.8126 69.7488 28.8192 69.4377 28.8192 69.4377C29.0277 68.9713 29.2798 68.5255 29.572 68.1063C29.4978 67.7177 29.4613 67.3228 29.4631 66.9272C29.4911 65.5397 30.6266 62.883 30.6266 62.883L29.4631 61.0413C29.7032 60.8313 29.9823 60.6706 30.2844 60.5685C29.2111 58.9228 27.9761 57.2553 27.9761 57.2553L33.33 56.3687C33.33 56.3687 37.144 57.9459 40.1523 58.1295H40.3856C40.2114 56.6207 40.8087 54.7074 41.0794 53.9577C39.835 53.1986 38.3355 52.4489 38.3355 52.4489L39.1506 50.7628C39.618 50.8589 40.0972 50.8851 40.5723 50.8405C40.2985 49.5246 40.5723 47.6985 40.7807 46.5754C38.6373 45.1631 34.534 43.197 34.534 43.197H28.5143L22.6035 59.3552C22.6035 59.3552 27.0086 61.6542 26.9122 65.7046Z" fill="#FFE4C8"/>
<path d="M28.5143 43.2006H34.534C34.534 43.2006 41.6269 46.604 42.0282 47.6679C42.4295 48.7319 42.7562 51.4166 39.1475 50.7789L38.3324 52.4619C38.3324 52.4619 42.6877 54.6396 42.6877 55.3457C42.6877 56.0519 43.1575 58.3136 40.1492 58.1456C37.1409 57.9776 33.33 56.3879 33.33 56.3879L27.973 57.2745C27.973 57.2745 30.8226 61.1165 31.6221 62.9022C32.4216 64.6879 29.3169 68.1037 28.8223 69.4539C28.8223 69.4539 26.8157 69.7805 26.9153 65.7207C27.0148 61.661 22.6035 59.3744 22.6035 59.3744" stroke="#263238" stroke-width="0.310691" stroke-linecap="round" stroke-linejoin="round"/>
<path d="M29.9391 62.1562C29.9391 62.1562 28.4303 61.3131 27.609 62.881" stroke="#263238" stroke-width="0.310691" stroke-linecap="round" stroke-linejoin="round"/>
<path d="M43.9367 67.9298L20.7587 67.9165C20.0958 67.9163 19.4394 67.786 18.8271 67.5332C18.2147 67.2804 17.6584 66.9099 17.1899 66.443C16.7213 65.9761 16.3497 65.4218 16.0962 64.8119C15.8428 64.202 15.7125 63.5483 15.7127 62.8882L15.7242 5.02832C15.7242 4.36783 15.8549 3.71381 16.1088 3.10363C16.3627 2.49344 16.7348 1.93904 17.2039 1.47209C17.673 1.00514 18.2299 0.634798 18.8428 0.382213C19.4557 0.129628 20.1125 -0.000249259 20.7758 3.59132e-07L43.9539 0.0133027C45.2925 0.0143102 46.5759 0.544523 47.5221 1.48741C48.4683 2.43029 48.9998 3.70869 48.9998 5.04162L48.9884 62.9015C48.9886 63.5621 48.8581 64.2162 48.6043 64.8265C48.3505 65.4368 47.9784 65.9913 47.5092 66.4583C47.04 66.9253 46.483 67.2956 45.8701 67.5481C45.2571 67.8006 44.6001 67.9303 43.9367 67.9298Z" fill="#20446C"/>
<path d="M43.9252 2.06357H39.4346C39.2877 2.06677 39.1429 2.09885 39.0086 2.15796C38.8742 2.21708 38.7529 2.30206 38.6516 2.40802C38.5503 2.51399 38.4711 2.63884 38.4185 2.77541C38.3658 2.91197 38.3408 3.05755 38.3449 3.20378V4.01523C38.3487 4.16139 38.3235 4.30686 38.2708 4.44331C38.218 4.57976 38.1388 4.70452 38.0375 4.81043C37.9363 4.91635 37.8151 5.00133 37.6809 5.06054C37.5466 5.11974 37.4019 5.15199 37.2551 5.15544H28.4954C28.3485 5.15198 28.2037 5.11975 28.0694 5.06057C27.935 5.00139 27.8137 4.91643 27.7123 4.81055C27.6109 4.70466 27.5315 4.57992 27.4786 4.44346C27.4256 4.30699 27.4002 4.16148 27.4037 4.01523V3.19047C27.4076 3.04432 27.3824 2.89884 27.3296 2.76239C27.2769 2.62594 27.1977 2.50118 27.0964 2.39527C26.9952 2.28936 26.874 2.20437 26.7397 2.14517C26.6055 2.08596 26.4608 2.05372 26.314 2.05027H20.7986C20.3341 2.04977 19.8741 2.14043 19.4449 2.31708C19.0156 2.49372 18.6255 2.75288 18.2969 3.07974C17.9683 3.4066 17.7076 3.79475 17.5298 4.222C17.3519 4.64925 17.2604 5.10721 17.2604 5.56971L17.2489 62.0462C17.2499 62.9791 17.6227 63.8735 18.2854 64.533C18.948 65.1925 19.8464 65.5632 20.7833 65.5637L43.9137 65.577C44.3782 65.5775 44.8382 65.4868 45.2675 65.3102C45.6967 65.1336 46.0868 64.8744 46.4154 64.5475C46.744 64.2207 47.0047 63.8325 47.1826 63.4053C47.3604 62.978 47.452 62.5201 47.452 62.0576L47.4634 5.58111C47.4624 4.64752 47.0891 3.75254 46.4256 3.09293C45.7621 2.43332 44.8627 2.06306 43.9252 2.06357Z" fill="#FAFAFA"/>
<path d="M37.1279 47.4974H28.1061C27.2951 47.4974 26.5173 47.1752 25.9438 46.6017C25.3703 46.0282 25.0481 45.2504 25.0481 44.4394C25.0481 43.628 25.3702 42.8499 25.9436 42.2759C26.517 41.7019 27.2948 41.379 28.1061 41.3782H37.1279C37.9392 41.379 38.717 41.7019 39.2904 42.2759C39.8638 42.8499 40.1859 43.628 40.1859 44.4394C40.1859 45.2504 39.8637 46.0282 39.2902 46.6017C38.7167 47.1752 37.9389 47.4974 37.1279 47.4974Z" fill="#053C6D" stroke="#053C6D" stroke-width="0.310691" stroke-linecap="round" stroke-linejoin="round"/>
<path d="M29.3161 30.1607H29.3317C29.3884 30.1607 29.4384 30.106 29.4384 30.0333C29.4384 29.9607 29.3884 29.906 29.3317 29.906H28.3632C28.3065 29.906 28.2565 29.9607 28.2565 30.0333C28.2565 30.106 28.3065 30.1607 28.3632 30.1607L28.6408 30.1607L28.6408 30.1607H29.3161ZM29.3161 30.1607V30.1621M29.3161 30.1607V30.1621M29.3161 30.1621H29.0908H29.0642L29.0772 30.1853C29.1107 30.2449 29.135 30.3112 29.1489 30.3808L29.1514 30.3933H29.1642H29.3317C29.3884 30.3933 29.4384 30.4479 29.4384 30.5206C29.4384 30.5933 29.3884 30.648 29.3317 30.648H29.1642H29.1514L29.1489 30.6605C29.0951 30.9264 28.8989 31.1169 28.6691 31.1325L28.6371 31.1346L28.6586 31.1584L29.1282 31.6772L29.1282 31.6772C29.149 31.7001 29.1615 31.7323 29.1624 31.7667C29.1632 31.801 29.1523 31.834 29.1326 31.8584C29.1117 31.8832 29.0838 31.8968 29.0552 31.897C29.0287 31.8972 29.0026 31.8855 28.9825 31.8635C28.9825 31.8635 28.9824 31.8635 28.9824 31.8634L28.2904 31.099C28.2904 31.099 28.2904 31.099 28.2904 31.099C28.2581 31.0631 28.2473 31.0069 28.2641 30.9575C28.281 30.9081 28.321 30.8778 28.3633 30.8777L29.3161 30.1621Z" fill="#263238" stroke="white" stroke-width="0.0310691"/>
<path d="M29.5823 20.5402V15.9266" stroke="#263238" stroke-width="0.310691" stroke-linecap="round" stroke-linejoin="round"/>
<path d="M29.5823 23.3092V21.4645" stroke="#263238" stroke-width="0.310691" stroke-linecap="round" stroke-linejoin="round"/>
<path d="M29.5823 25.0354V24.0462" stroke="#263238" stroke-width="0.310691" stroke-linecap="round" stroke-linejoin="round"/>
<path d="M30.4492 16.4645L29.5782 15.3881L28.7071 16.4645" stroke="#263238" stroke-width="0.310691" stroke-linecap="round" stroke-linejoin="round"/>
<path d="M35.6526 18.8292V14.2157" stroke="#263238" stroke-width="0.310691" stroke-linecap="round" stroke-linejoin="round"/>
<path d="M35.6526 21.5983V19.7535" stroke="#263238" stroke-width="0.310691" stroke-linecap="round" stroke-linejoin="round"/>
<path d="M35.6526 23.3249V22.3356" stroke="#263238" stroke-width="0.310691" stroke-linecap="round" stroke-linejoin="round"/>
<path d="M36.5196 14.7538L35.6485 13.6774L34.7775 14.7538" stroke="#263238" stroke-width="0.310691" stroke-linecap="round" stroke-linejoin="round"/>
<path d="M32.4786 15.7313V11.1178" stroke="#263238" stroke-width="0.310691" stroke-linecap="round" stroke-linejoin="round"/>
<path d="M32.4786 18.4989V16.6541" stroke="#263238" stroke-width="0.310691" stroke-linecap="round" stroke-linejoin="round"/>
<path d="M32.4786 20.227V19.2377" stroke="#263238" stroke-width="0.310691" stroke-linecap="round" stroke-linejoin="round"/>
<path d="M33.3514 11.6555L32.4804 10.576L31.6093 11.6555" stroke="#263238" stroke-width="0.310691" stroke-linecap="round" stroke-linejoin="round"/>
<path d="M37.3135 23.3081C37.9216 20.7136 36.3112 18.1174 33.7167 17.5094C31.1222 16.9013 28.526 18.5116 27.918 21.1062C27.3099 23.7007 28.9202 26.2969 31.5147 26.9049C34.1093 27.513 36.7055 25.9026 37.3135 23.3081Z" fill="#20446C" stroke="#263238" stroke-width="0.310691" stroke-linecap="round" stroke-linejoin="round"/>
<path d="M33.9961 20.8975C34.1791 20.8975 34.3274 20.7519 34.3274 20.5723C34.3274 20.3928 34.1791 20.2471 33.9961 20.2471H31.3723C31.1893 20.2471 31.041 20.3928 31.041 20.5723C31.041 20.7519 31.1893 20.8975 31.3723 20.8975H32.1243C32.4353 20.897 32.7178 21.0751 32.8465 21.3528H31.3755C31.1926 21.3528 31.0442 21.4986 31.0442 21.6781C31.0442 21.8577 31.1926 22.0033 31.3755 22.0033H32.8465C32.7166 22.2803 32.4347 22.4579 32.1243 22.4586H31.3723C31.2364 22.4588 31.1142 22.5402 31.0639 22.6641C31.0135 22.7879 31.0451 22.9295 31.1436 23.0213L33.0188 24.7613C33.0808 24.8182 33.1625 24.8496 33.2473 24.8491C33.3384 24.8486 33.4255 24.8123 33.4892 24.7484C33.5495 24.6858 33.582 24.6024 33.5795 24.5164C33.5771 24.4304 33.5398 24.3488 33.476 24.2897L32.2037 23.1091C32.8491 23.0725 33.3934 22.6242 33.5422 22.0066H33.9961C34.1791 22.0066 34.3274 21.861 34.3274 21.6814C34.3274 21.5017 34.1791 21.3561 33.9961 21.3561H33.5422C33.5037 21.1942 33.4364 21.0399 33.3435 20.9008H33.9961V20.8975Z" fill="white"/>
<path d="M29.8541 30.2311C29.932 30.2404 30.0106 30.2199 30.074 30.1738C30.1375 30.1276 30.1812 30.0592 30.1963 29.9822H30.4203V31.967H30.1092V30.452H29.8697L29.8541 30.2311Z" fill="#263238"/>
<path d="M30.7533 30.4587C30.7394 30.3896 30.741 30.3183 30.758 30.25C30.775 30.1816 30.807 30.1178 30.8517 30.0633C30.8963 30.0088 30.9525 29.9649 31.0162 29.9347C31.0799 29.9046 31.1494 29.8889 31.2199 29.8889C31.2904 29.8889 31.3599 29.9046 31.4236 29.9347C31.4873 29.9649 31.5435 30.0088 31.5881 30.0633C31.6328 30.1178 31.6648 30.1816 31.6818 30.25C31.6988 30.3183 31.7004 30.3896 31.6865 30.4587V31.4915C31.7004 31.5606 31.6988 31.6319 31.6818 31.7003C31.6648 31.7687 31.6328 31.8324 31.5881 31.8869C31.5435 31.9414 31.4873 31.9853 31.4236 32.0155C31.3599 32.0457 31.2904 32.0613 31.2199 32.0613C31.1494 32.0613 31.0799 32.0457 31.0162 32.0155C30.9525 31.9853 30.8963 31.9414 30.8517 31.8869C30.807 31.8324 30.775 31.7687 30.758 31.7003C30.741 31.6319 30.7394 31.5606 30.7533 31.4915V30.4587ZM31.0644 31.5102C31.0644 31.6533 31.1266 31.7062 31.2261 31.7062C31.3257 31.7062 31.3848 31.6533 31.3848 31.5102V30.44C31.3848 30.2969 31.3226 30.2441 31.2261 30.2441C31.1297 30.2441 31.0644 30.2969 31.0644 30.44V31.5102Z" fill="#263238"/>
<path d="M31.8758 30.4587C31.8619 30.3896 31.8635 30.3183 31.8806 30.25C31.8976 30.1816 31.9296 30.1178 31.9742 30.0633C32.0189 30.0088 32.0751 29.9649 32.1387 29.9347C32.2024 29.9046 32.272 29.8889 32.3425 29.8889C32.4129 29.8889 32.4825 29.9046 32.5462 29.9347C32.6099 29.9649 32.666 30.0088 32.7107 30.0633C32.7553 30.1178 32.7873 30.1816 32.8043 30.25C32.8214 30.3183 32.823 30.3896 32.8091 30.4587V31.4915C32.823 31.5606 32.8214 31.6319 32.8043 31.7003C32.7873 31.7687 32.7553 31.8324 32.7107 31.8869C32.666 31.9414 32.6099 31.9853 32.5462 32.0155C32.4825 32.0457 32.4129 32.0613 32.3425 32.0613C32.272 32.0613 32.2024 32.0457 32.1387 32.0155C32.0751 31.9853 32.0189 31.9414 31.9742 31.8869C31.9296 31.8324 31.8976 31.7687 31.8806 31.7003C31.8635 31.6319 31.8619 31.5606 31.8758 31.4915V30.4587ZM32.1869 31.5102C32.1869 31.6533 32.2491 31.7062 32.3487 31.7062C32.4482 31.7062 32.5073 31.6533 32.5073 31.5102V30.44C32.5073 30.2969 32.4451 30.2441 32.3487 30.2441C32.2522 30.2441 32.1869 30.2969 32.1869 30.44V31.5102Z" fill="#263238"/>
<path d="M32.9984 30.4587C32.9845 30.3896 32.9861 30.3183 33.0031 30.25C33.0201 30.1816 33.0521 30.1178 33.0968 30.0633C33.1414 30.0088 33.1976 29.9649 33.2613 29.9347C33.325 29.9046 33.3945 29.8889 33.465 29.8889C33.5355 29.8889 33.605 29.9046 33.6687 29.9347C33.7324 29.9649 33.7886 30.0088 33.8332 30.0633C33.8779 30.1178 33.9099 30.1816 33.9269 30.25C33.9439 30.3183 33.9455 30.3896 33.9316 30.4587V31.4915C33.9455 31.5606 33.9439 31.6319 33.9269 31.7003C33.9099 31.7687 33.8779 31.8324 33.8332 31.8869C33.7886 31.9414 33.7324 31.9853 33.6687 32.0155C33.605 32.0457 33.5355 32.0613 33.465 32.0613C33.3945 32.0613 33.325 32.0457 33.2613 32.0155C33.1976 31.9853 33.1414 31.9414 33.0968 31.8869C33.0521 31.8324 33.0201 31.7687 33.0031 31.7003C32.9861 31.6319 32.9845 31.5606 32.9984 31.4915V30.4587ZM33.3095 31.5102C33.3095 31.6533 33.3717 31.7062 33.4712 31.7062C33.5708 31.7062 33.6299 31.6533 33.6299 31.5102V30.44C33.6299 30.2969 33.5677 30.2441 33.4712 30.2441C33.3748 30.2441 33.3095 30.2969 33.3095 30.44V31.5102Z" fill="#263238"/>
<path d="M34.4618 31.6655V31.9766H34.1507V31.6655H34.4618Z" fill="#263238"/>
<path d="M34.6527 30.4571C34.6416 30.3894 34.6453 30.3202 34.6637 30.2541C34.682 30.188 34.7145 30.1267 34.7589 30.0745C34.8033 30.0222 34.8585 29.9803 34.9208 29.9515C34.983 29.9227 35.0507 29.9078 35.1193 29.9078C35.1879 29.9078 35.2556 29.9227 35.3178 29.9515C35.3801 29.9803 35.4353 30.0222 35.4797 30.0745C35.5241 30.1267 35.5566 30.188 35.5749 30.2541C35.5933 30.3202 35.597 30.3894 35.5859 30.4571V31.4899C35.597 31.5576 35.5933 31.6268 35.5749 31.6929C35.5566 31.759 35.5241 31.8203 35.4797 31.8725C35.4353 31.9248 35.3801 31.9667 35.3178 31.9955C35.2556 32.0243 35.1879 32.0392 35.1193 32.0392C35.0507 32.0392 34.983 32.0243 34.9208 31.9955C34.8585 31.9667 34.8033 31.9248 34.7589 31.8725C34.7145 31.8203 34.682 31.759 34.6637 31.6929C34.6453 31.6268 34.6416 31.5576 34.6527 31.4899V30.4571ZM34.9638 31.5086C34.9638 31.6517 35.026 31.7046 35.1255 31.7046C35.2251 31.7046 35.2873 31.6517 35.2873 31.5086V30.4384C35.2873 30.2953 35.2251 30.2424 35.1255 30.2424C35.026 30.2424 34.9638 30.2953 34.9638 30.4384V31.5086Z" fill="#263238"/>
<path d="M35.7752 30.4571C35.7641 30.3894 35.7679 30.3202 35.7862 30.2541C35.8046 30.188 35.8371 30.1267 35.8815 30.0745C35.9259 30.0222 35.9811 29.9803 36.0433 29.9515C36.1055 29.9227 36.1733 29.9078 36.2419 29.9078C36.3104 29.9078 36.3782 29.9227 36.4404 29.9515C36.5026 29.9803 36.5578 30.0222 36.6022 30.0745C36.6466 30.1267 36.6791 30.188 36.6975 30.2541C36.7158 30.3202 36.7196 30.3894 36.7085 30.4571V31.4899C36.7196 31.5576 36.7158 31.6268 36.6975 31.6929C36.6791 31.759 36.6466 31.8203 36.6022 31.8725C36.5578 31.9248 36.5026 31.9667 36.4404 31.9955C36.3782 32.0243 36.3104 32.0392 36.2419 32.0392C36.1733 32.0392 36.1055 32.0243 36.0433 31.9955C35.9811 31.9667 35.9259 31.9248 35.8815 31.8725C35.8371 31.8203 35.8046 31.759 35.7862 31.6929C35.7679 31.6268 35.7641 31.5576 35.7752 31.4899V30.4571ZM36.0863 31.5086C36.0863 31.6517 36.1485 31.7046 36.2481 31.7046C36.3476 31.7046 36.4098 31.6517 36.4098 31.5086V30.4384C36.4098 30.2953 36.3476 30.2424 36.2481 30.2424C36.1485 30.2424 36.0863 30.2953 36.0863 30.4384V31.5086Z" fill="#263238"/>
<path d="M27.1377 33.8023H27.4488V35.784H27.1377V33.8023Z" fill="#263238"/>
<path d="M27.6775 33.8023H28.1721C28.4832 33.8023 28.6356 33.9734 28.6356 34.2907V35.2956C28.6356 35.6067 28.4832 35.784 28.1721 35.784H27.6775V33.8023ZM27.9886 34.0854V35.5009H28.1659C28.2654 35.5009 28.3245 35.4511 28.3245 35.308V34.2783C28.3245 34.1352 28.2654 34.0854 28.1659 34.0854H27.9886Z" fill="#263238"/>
<path d="M29.1062 35.4857V35.7968H28.7951V35.4857H29.1062Z" fill="#263238"/>
<path d="M29.7971 34.0629C29.6975 34.0629 29.6353 34.1158 29.6353 34.2558V34.4705H29.3429V34.2776C29.3429 33.9665 29.5015 33.7798 29.8064 33.7798C30.1113 33.7798 30.2699 33.9603 30.2699 34.2776C30.2636 34.4279 30.2261 34.5752 30.1597 34.7102C30.0932 34.8452 29.9994 34.9649 29.8842 35.0616C29.7006 35.2607 29.6509 35.354 29.6509 35.4598C29.6493 35.4732 29.6493 35.4868 29.6509 35.5002H30.2388V35.7833H29.3398V35.5406C29.345 35.4209 29.3754 35.3036 29.429 35.1964C29.4826 35.0892 29.5582 34.9945 29.6509 34.9184C29.7443 34.8431 29.8204 34.7486 29.8741 34.6412C29.9278 34.5339 29.9578 34.4162 29.962 34.2963C29.9526 34.1096 29.8904 34.0629 29.7971 34.0629Z" fill="#263238"/>
<path d="M30.651 34.0512C30.7289 34.0605 30.8075 34.0401 30.871 33.9939C30.9344 33.9478 30.9781 33.8793 30.9932 33.8023H31.2017V35.784H30.8906V34.2721H30.651V34.0512Z" fill="#263238"/>
<path d="M32.0278 35.8088C31.9609 35.8154 31.8934 35.8069 31.8303 35.7838C31.7672 35.7608 31.7101 35.7239 31.6632 35.6758C31.6163 35.6277 31.5808 35.5696 31.5594 35.506C31.538 35.4423 31.5311 35.3746 31.5394 35.308V35.1524C31.53 35.0728 31.543 34.9921 31.5771 34.9195C31.6112 34.847 31.665 34.7854 31.7322 34.7418C31.6651 34.7018 31.6111 34.6432 31.5769 34.573C31.5426 34.5028 31.5296 34.4242 31.5394 34.3467V34.2845C31.534 34.2173 31.5426 34.1497 31.5646 34.086C31.5866 34.0222 31.6216 33.9638 31.6674 33.9142C31.7131 33.8647 31.7686 33.8251 31.8303 33.7981C31.8921 33.7711 31.9588 33.7571 32.0262 33.7571C32.0936 33.7571 32.1603 33.7711 32.2221 33.7981C32.2839 33.8251 32.3394 33.8647 32.3851 33.9142C32.4308 33.9638 32.4658 34.0222 32.4878 34.086C32.5099 34.1497 32.5185 34.2173 32.5131 34.2845V34.3467C32.5221 34.4241 32.5087 34.5025 32.4745 34.5725C32.4403 34.6425 32.3868 34.7013 32.3202 34.7418C32.3875 34.7854 32.4412 34.847 32.4753 34.9195C32.5094 34.9921 32.5225 35.0728 32.5131 35.1524V35.308C32.5213 35.3744 32.5145 35.4417 32.4932 35.5051C32.4719 35.5686 32.4367 35.6264 32.3902 35.6744C32.3436 35.7225 32.2869 35.7595 32.2242 35.7827C32.1615 35.806 32.0944 35.8149 32.0278 35.8088ZM31.8505 34.3996C31.8505 34.5582 31.9251 34.608 32.0278 34.608C32.1304 34.608 32.202 34.5582 32.202 34.3996V34.2876C32.202 34.1103 32.1242 34.0636 32.0278 34.0636C31.9313 34.0636 31.8505 34.1103 31.8505 34.2876V34.3996ZM32.0278 35.5257C32.1242 35.5257 32.1989 35.476 32.202 35.3018V35.1182C32.202 34.9596 32.1367 34.8942 32.0278 34.8942C31.9189 34.8942 31.8505 34.9596 31.8505 35.1182V35.3018C31.8505 35.476 31.9282 35.5257 32.0278 35.5257Z" fill="#263238"/>
<path d="M32.9069 34.0512C32.9848 34.0605 33.0634 34.0401 33.1268 33.9939C33.1903 33.9478 33.234 33.8793 33.2491 33.8023H33.4575V35.784H33.1464V34.2721H32.9069V34.0512Z" fill="#263238"/>
<path d="M34.7415 35.293C34.7415 35.6258 34.589 35.8094 34.2655 35.8094C33.9419 35.8094 33.7988 35.6258 33.7988 35.3085V35.2588H34.0944V35.3365C34.0944 35.4765 34.1566 35.5325 34.2562 35.5325C34.3557 35.5325 34.4304 35.4765 34.4304 35.2868V34.929C34.4067 34.9833 34.3667 35.0289 34.316 35.0596C34.2653 35.0902 34.2064 35.1044 34.1473 35.1001C33.9171 35.1001 33.802 34.9383 33.802 34.6459V34.2788C33.7909 34.2111 33.7946 34.1419 33.813 34.0758C33.8313 34.0098 33.8638 33.9485 33.9082 33.8962C33.9526 33.844 34.0078 33.802 34.0701 33.7732C34.1323 33.7444 34.2 33.7295 34.2686 33.7295C34.3372 33.7295 34.4049 33.7444 34.4671 33.7732C34.5294 33.802 34.5846 33.844 34.629 33.8962C34.6734 33.9485 34.7059 34.0098 34.7242 34.0758C34.7426 34.1419 34.7463 34.2111 34.7352 34.2788L34.7415 35.293ZM34.4304 34.6148V34.257C34.4304 34.117 34.3681 34.0673 34.2686 34.0673C34.169 34.0673 34.1068 34.117 34.1068 34.257V34.6148C34.1068 34.7579 34.169 34.8108 34.2686 34.8108C34.3681 34.8108 34.4304 34.7579 34.4304 34.6148Z" fill="#263238"/>
<path d="M35.2298 35.147V35.3368C35.2298 35.4768 35.292 35.5297 35.3916 35.5297C35.4911 35.5297 35.5534 35.4768 35.5534 35.3368V34.9012C35.5534 34.7581 35.4911 34.7053 35.3916 34.7053C35.292 34.7053 35.2298 34.7581 35.2298 34.9012V34.9603H34.9343L34.9903 33.8093H35.8116V34.0924H35.2703L35.2423 34.5653C35.2697 34.5187 35.3096 34.4807 35.3574 34.4555C35.4051 34.4302 35.459 34.4187 35.5129 34.4222C35.74 34.4222 35.8582 34.5839 35.8582 34.8732V35.315C35.8582 35.6261 35.6996 35.8159 35.3916 35.8159C35.0836 35.8159 34.9281 35.6323 34.9281 35.315V35.1532L35.2298 35.147Z" fill="#263238"/>
<path d="M36.0506 34.2928C36.0506 33.9599 36.203 33.7795 36.5266 33.7795C36.592 33.7741 36.6577 33.7835 36.7189 33.8071C36.7801 33.8307 36.8352 33.8678 36.8801 33.9157C36.925 33.9635 36.9585 34.0209 36.978 34.0835C36.9976 34.1461 37.0028 34.2123 36.9932 34.2772V34.327H36.6977V34.2555C36.6977 34.1155 36.6355 34.0626 36.5359 34.0626C36.4364 34.0626 36.3617 34.1155 36.3617 34.3052V34.6661C36.3853 34.6115 36.4251 34.5655 36.4757 34.5343C36.5264 34.5031 36.5854 34.4883 36.6448 34.4919C36.875 34.4919 36.9932 34.6537 36.9932 34.9461V35.307C37.0071 35.376 37.0055 35.4473 36.9885 35.5157C36.9714 35.5841 36.9395 35.6478 36.8948 35.7023C36.8502 35.7568 36.794 35.8008 36.7303 35.8309C36.6666 35.8611 36.597 35.8767 36.5266 35.8767C36.4561 35.8767 36.3865 35.8611 36.3229 35.8309C36.2592 35.8008 36.203 35.7568 36.1583 35.7023C36.1137 35.6478 36.0817 35.5841 36.0647 35.5157C36.0477 35.4473 36.0461 35.376 36.0599 35.307L36.0506 34.2928ZM36.3617 34.971V35.335C36.3617 35.4749 36.427 35.5278 36.5235 35.5278C36.6199 35.5278 36.6852 35.4749 36.6852 35.335V34.9772C36.6852 34.8372 36.623 34.7812 36.5235 34.7812C36.4239 34.7812 36.3617 34.831 36.3617 34.971Z" fill="#263238"/>
<path d="M38.1095 33.8023V34.073L37.6491 35.784H37.338L37.7953 34.0854H37.1732V33.8023H38.1095Z" fill="#263238"/>
<path d="M32.2165 32.4637H32.593V32.5695H32.4685V33.2134H32.3503V32.5695H32.2259L32.2165 32.4637Z" fill="#263238"/>
<path d="M32.6258 32.6457C32.6224 32.6207 32.6247 32.5954 32.6325 32.5715C32.6402 32.5476 32.6532 32.5257 32.6705 32.5075C32.6879 32.4893 32.709 32.4752 32.7325 32.4663C32.756 32.4574 32.7812 32.4538 32.8062 32.4559C32.8312 32.4537 32.8563 32.4572 32.8796 32.4662C32.903 32.4751 32.924 32.4893 32.9411 32.5076C32.9582 32.5258 32.9709 32.5478 32.9783 32.5717C32.9856 32.5956 32.9874 32.6209 32.9835 32.6457V33.0345C32.9874 33.0592 32.9856 33.0845 32.9783 33.1085C32.9709 33.1324 32.9582 33.1543 32.9411 33.1726C32.924 33.1909 32.903 33.2051 32.8796 33.214C32.8563 33.223 32.8312 33.2265 32.8062 33.2243C32.7812 33.2264 32.756 33.2228 32.7325 33.2139C32.709 33.2049 32.6879 33.1908 32.6705 33.1726C32.6532 33.1544 32.6402 33.1326 32.6325 33.1087C32.6247 33.0848 32.6224 33.0594 32.6258 33.0345V32.6457ZM32.744 33.0439C32.744 33.0967 32.7689 33.1154 32.8062 33.1154C32.8436 33.1154 32.8653 33.0967 32.8653 33.0439V32.6363C32.8653 32.5834 32.8436 32.5617 32.8062 32.5617C32.7689 32.5617 32.744 32.5834 32.744 32.6363V33.0439Z" fill="#263238"/>
<path d="M30.1045 42.8015C30.5525 42.8015 30.7796 43.0691 30.7796 43.5357V43.6259H30.3472V43.5046C30.3472 43.2993 30.2632 43.2184 30.117 43.2184C29.9708 43.2184 29.8899 43.2993 29.8899 43.5046C29.8899 43.7099 29.9801 43.8779 30.2787 44.1268C30.6645 44.4628 30.7827 44.7054 30.7827 45.0383C30.7827 45.5049 30.5525 45.7725 30.1014 45.7725C29.6503 45.7725 29.417 45.5049 29.417 45.0383V44.8579H29.8525V45.0663C29.8525 45.2747 29.9428 45.3494 30.089 45.3494C30.2352 45.3494 30.3254 45.2747 30.3254 45.0663C30.3254 44.8579 30.2352 44.6961 29.9334 44.4441C29.7828 44.3436 29.6587 44.2083 29.5715 44.0496C29.4843 43.891 29.4366 43.7136 29.4326 43.5326C29.4419 43.0629 29.669 42.8015 30.1045 42.8015Z" fill="white"/>
<path d="M31.514 44.0459H32.1362V44.4627H31.514V45.3151H32.3041V45.732H31.0598V42.8171H32.3041V43.2339H31.514V44.0459Z" fill="white"/>
<path d="M33.0056 43.6318V45.7441H32.595V42.8292H33.1705L33.634 44.5744V42.8292H34.0415V45.7441H33.5718L33.0056 43.6318Z" fill="white"/>
<path d="M34.3662 42.8292H35.0848C35.5421 42.8292 35.7661 43.0843 35.7661 43.5478V45.0224C35.7661 45.489 35.5421 45.7441 35.0848 45.7441H34.3599L34.3662 42.8292ZM34.8235 43.246V45.3273H35.0848C35.231 45.3273 35.3181 45.2526 35.3181 45.0442V43.5291C35.3181 43.3207 35.231 43.246 35.0848 43.246H34.8235Z" fill="white"/>
<path d="M12.966 38.1892C12.966 38.1892 14.9695 38.8114 15.6725 40.5536" stroke="#263238" stroke-width="0.310691" stroke-linecap="round" stroke-linejoin="round"/>
<path d="M3.88785 93.4521C4.10873 89.5759 4.25805 85.6156 4.45093 82.4269C4.85224 75.8193 5.154 71.3831 5.75441 66.8722C6.35483 62.3614 6.25528 55.5391 6.55704 53.1592C6.8588 50.7793 7.75475 50.2722 8.46404 47.4444C9.17334 44.6165 9.80797 38.9826 10.9715 38.1893C12.135 37.396 15.6845 35.9121 15.6845 35.9121V51.8681C17.7906 55.1066 20.2981 55.9124 20.2981 55.9124C21.9033 51.2677 21.7042 49.4261 23.3064 47.7181C24.9085 46.0102 26.0689 43.7859 28.595 44.7161C29.7958 45.161 30.4366 45.612 29.8393 49.6936C29.242 53.7752 28.035 55.0382 28.035 55.0382C27.8328 56.4288 28.1345 60.4699 28.6354 62.5387C29.1363 64.6075 27.2324 70.0983 26.3302 73.6105C25.428 77.1228 20.6123 84.2344 20.6123 84.2344C20.496 86.9035 20.5542 89.5773 20.7865 92.2388C20.8238 92.6153 20.8705 93.0197 20.9234 93.4428L21.2345 104.365L3.88785 104.06V93.4521Z" fill="white"/>
<path opacity="0.8" d="M29.4603 45.9065C29.3679 45.6748 29.3679 45.4164 29.4603 45.1847C29.2013 44.9692 28.9021 44.8074 28.5799 44.7088C26.0601 43.7755 24.9028 46.0091 23.2913 47.7108C23.1477 47.8641 23.0136 48.0262 22.89 48.1961C24.3428 47.6486 26.2467 47.6579 27.012 48.7219C27.9795 50.0533 29.9425 47.6455 29.4603 45.9065Z" fill="#FFE4C8"/>
<path opacity="0.8" d="M18.5733 89.539L17.7769 92.5131C17.7769 92.5131 18.8969 91.418 20.5768 88.7582C20.4959 86.1667 20.5954 84.2162 20.5954 84.2162C20.5954 84.2162 25.4081 77.1015 26.3134 73.5923C27.2186 70.0832 29.1132 64.5861 28.6186 62.5205C28.1239 60.4548 27.8191 56.4106 28.0182 55.02C28.2542 54.7315 28.4499 54.4123 28.5999 54.0712C28.3943 53.8562 28.1341 53.7013 27.8471 53.6232C27.0138 55.8797 26.6805 58.2902 26.8702 60.6881C27.1813 64.6981 26.4938 65.0434 25.1654 70.2481C23.8371 75.4527 21.6189 81.3697 20.5861 82.4274C19.5533 83.4851 19.0991 88.2604 18.5733 89.539Z" fill="#FFE4C8"/>
<path opacity="0.8" d="M16.677 54.4004C16.677 54.4004 15.0966 54.6462 14.4589 55.0226C14.4589 55.0226 17.548 55.8284 17.7471 56.6901C17.9462 57.5518 18.6089 58.4416 19.7848 57.3901C19.7848 57.3901 19.8439 56.7337 19.9652 55.7817C19.2217 55.4488 17.3271 54.4067 15.6752 51.8713V35.9121C15.6752 35.9121 13.9207 36.6463 12.4741 37.3556C13.5474 37.4987 14.6517 37.8285 15.0717 38.5533C14.9321 38.9967 14.6987 39.4048 14.3874 39.75C14.0761 40.0952 13.6941 40.3692 13.2674 40.5536C12.1256 41.0638 13.2674 49.6749 13.2674 49.6749C13.2674 49.6749 11.4008 50.1385 10.7786 51.8526C10.7786 51.8526 13.8553 52.1637 15.1339 53.1436C15.6693 53.5361 16.1843 53.9556 16.677 54.4004Z" fill="#FFE4C8"/>
<path opacity="0.8" d="M4.44108 82.4274C4.28242 85.0095 4.15798 88.0987 3.99932 91.2376C4.39441 85.2677 5.59523 75.0203 5.59523 75.0203C5.59523 75.0203 6.66851 78.8094 6.74939 78.4081C6.98583 77.2197 6.24542 70.5156 6.31075 68.1264C6.34186 67.0438 6.26409 64.2689 6.16765 61.5592C6.08054 63.4258 5.9561 65.2924 5.74456 66.8727C5.13482 71.396 4.84239 75.8198 4.44108 82.4274Z" fill="#FFE4C8"/>
<path d="M3.88785 104.785V93.4521C4.10873 89.5759 4.25805 85.6156 4.45093 82.4269C4.85224 75.8193 5.154 71.3831 5.75441 66.8722C6.35483 62.3614 6.25528 55.5391 6.55704 53.1592C6.8588 50.7793 7.75475 50.2722 8.46404 47.4444C9.17334 44.6165 9.80797 38.9826 10.9715 38.1893C12.135 37.396 15.6845 35.9121 15.6845 35.9121V51.8681C17.7907 55.1066 20.2981 55.9124 20.2981 55.9124C21.9033 51.2677 21.7042 49.4261 23.3064 47.7181C24.9085 46.0102 26.0689 43.7859 28.595 44.7161C29.7958 45.161 30.4366 45.612 29.8393 49.6936C29.242 53.7752 28.035 55.0382 28.035 55.0382C27.8328 56.4288 28.1345 60.4699 28.6354 62.5387C29.1363 64.6075 27.2324 70.0983 26.3302 73.6105C25.428 77.1228 20.6123 84.2344 20.6123 84.2344C20.496 86.9035 20.5542 89.5773 20.7865 92.2388C20.8238 92.6153 20.8705 93.0197 20.9234 93.4428C20.9234 93.4428 21.0851 100.495 21.8567 104.776" stroke="#263238" stroke-width="0.310691" stroke-linecap="round" stroke-linejoin="round"/>
<path d="M20.2877 55.9054C20.2877 55.9054 19.7868 58.1453 18.7851 58.6462C17.7834 59.147 16.3337 58.64 16.3337 58.64" stroke="#263238" stroke-width="0.310691" stroke-linecap="round" stroke-linejoin="round"/>
<path d="M15.6714 51.8683C15.6714 51.8683 14.6697 49.6377 11.4592 51.5727" stroke="#263238" stroke-width="0.310691" stroke-linecap="round" stroke-linejoin="round"/>
<path d="M15.6735 42.8594C15.6735 42.8594 15.4744 41.6773 13.8069 41.3755" stroke="#263238" stroke-width="0.310691" stroke-linecap="round" stroke-linejoin="round"/>
<path d="M20.5891 84.2158C18.6821 86.6299 19.0336 88.9382 18.3119 90.1421C17.5901 91.3461 17.6897 95.6578 17.6897 95.6578" stroke="#263238" stroke-width="0.310691" stroke-linecap="round" stroke-linejoin="round"/>
<path d="M6.74996 61.0395V69.4391C6.77695 71.8398 7.01114 74.2338 7.44992 76.5942" stroke="#263238" stroke-width="0.310691" stroke-linecap="round" stroke-linejoin="round"/>
<path d="M28.0103 55.0187C28.0103 55.0187 28.0103 53.5876 27.609 53.1521" stroke="#263238" stroke-width="0.310691" stroke-linecap="round" stroke-linejoin="round"/>
<path d="M26.9069 50.5157C26.9069 50.5157 26.0203 47.523 23.4102 48.8296" stroke="#263238" stroke-width="0.310691" stroke-linecap="round" stroke-linejoin="round"/>
<path d="M18.8689 55.1687C16.9308 55.2092 14.9678 54.3505 13.8167 55.3958" stroke="#263238" stroke-width="0.310691" stroke-linecap="round" stroke-linejoin="round"/>
<path d="M3.07136 89.6063H3.594C3.75901 89.6063 3.91727 89.6719 4.03395 89.7885C4.15064 89.9052 4.21619 90.0635 4.21619 90.2285V100.887C4.21619 101.052 4.15064 101.21 4.03395 101.327C3.91727 101.443 3.75901 101.509 3.594 101.509H3.07136V89.6063Z" fill="#263238"/>
<path d="M3.07136 91.1501C3.07136 91.1501 12.2673 88.7453 21.0931 91.4861C21.2293 91.5291 21.3483 91.6144 21.4328 91.7296C21.5173 91.8449 21.5628 91.984 21.5628 92.1269V97.7733C21.5632 97.8229 21.5526 97.872 21.5318 97.917C21.5109 97.9621 21.4804 98.0019 21.4423 98.0338C21.4042 98.0656 21.3596 98.0886 21.3116 98.1011C21.2636 98.1136 21.2134 98.1153 21.1646 98.1062C19.27 97.764 10.9389 96.448 3.52556 98.1808L3.07136 91.1501Z" fill="#263238"/>
<path d="M3.46863 91.044V89.7716C3.46904 89.6721 3.44979 89.5734 3.41198 89.4813C3.37417 89.3893 3.31855 89.3056 3.24832 89.235C3.17808 89.1645 3.0946 89.1085 3.00268 89.0704C2.91076 89.0322 2.81221 89.0125 2.71267 89.0125H1.67984C1.55271 89.014 1.42822 89.049 1.31897 89.114C1.20971 89.179 1.11956 89.2717 1.05765 89.3827L0.155475 91.044V100.766L1.05454 101.858C1.12113 101.939 1.2051 102.005 1.30036 102.05C1.39561 102.096 1.49974 102.119 1.60517 102.119H2.722C2.82154 102.119 2.92009 102.099 3.01202 102.061C3.10394 102.023 3.18741 101.967 3.25765 101.896C3.32789 101.826 3.38351 101.742 3.42131 101.65C3.45912 101.558 3.47837 101.459 3.47796 101.36L3.46863 91.044Z" fill="#F0792E" stroke="#263238" stroke-width="0.310691" stroke-linecap="round" stroke-linejoin="round"/>
<path d="M2.82013 90.4161L4.92002 90.0273C4.97849 90.0163 5.03867 90.0183 5.09626 90.0333C5.15385 90.0482 5.20743 90.0757 5.25319 90.1137C5.29894 90.1517 5.33574 90.1994 5.36097 90.2533C5.38619 90.3072 5.39921 90.366 5.3991 90.4255V91.6356L4.70225 92.152V96.0905H5.3991V98.1499C5.39912 98.2652 5.35912 98.3769 5.28593 98.466C5.21274 98.5551 5.1109 98.616 4.99779 98.6383L3.00679 99.0521C2.93647 99.0669 2.86373 99.0659 2.79389 99.049C2.72404 99.0321 2.65885 98.9998 2.60309 98.9545C2.54733 98.9091 2.5024 98.8519 2.47159 98.787C2.44079 98.7221 2.42488 98.6511 2.42504 98.5792V90.8952C2.42391 90.7816 2.46292 90.6712 2.5352 90.5836C2.60748 90.4959 2.70839 90.4366 2.82013 90.4161Z" fill="#F0792E" stroke="#263238" stroke-width="0.310691" stroke-linecap="round" stroke-linejoin="round"/>
<path d="M2.89633 98.5106L4.60735 98.1186C4.66982 98.1036 4.72524 98.0676 4.76432 98.0167C4.80341 97.9657 4.82377 97.9028 4.822 97.8386V96.5538" stroke="#263238" stroke-width="0.310691" stroke-linecap="round" stroke-linejoin="round"/>
<path d="M4.12644 96.0281V91.8127L4.81085 91.2901V90.4999" stroke="#263238" stroke-width="0.310691" stroke-linecap="round" stroke-linejoin="round"/>
<path d="M1.34647 89.7812V101.043" stroke="#263238" stroke-width="0.310691" stroke-linecap="round" stroke-linejoin="round"/>
<path d="M9.65132 94.1769C9.56881 94.1769 9.48968 94.1441 9.43134 94.0858C9.373 94.0275 9.34022 93.9483 9.34022 93.8658V93.1939C9.34022 93.1114 9.373 93.0322 9.43134 92.9739C9.48968 92.9155 9.56881 92.8828 9.65132 92.8828C9.73383 92.8828 9.81295 92.9155 9.8713 92.9739C9.92964 93.0322 9.96241 93.1114 9.96241 93.1939V93.8658C9.96241 93.9483 9.92964 94.0275 9.8713 94.0858C9.81295 94.1441 9.73383 94.1769 9.65132 94.1769Z" fill="white"/>
<path d="M14.3899 94.3015C14.3074 94.3015 14.2282 94.2687 14.1699 94.2104C14.1116 94.152 14.0788 94.0729 14.0788 93.9904V93.3184C14.0788 93.2359 14.1116 93.1568 14.1699 93.0984C14.2282 93.0401 14.3074 93.0073 14.3899 93.0073C14.4724 93.0073 14.5515 93.0401 14.6099 93.0984C14.6682 93.1568 14.701 93.2359 14.701 93.3184V93.9904C14.701 94.0729 14.6682 94.152 14.6099 94.2104C14.5515 94.2687 14.4724 94.3015 14.3899 94.3015Z" fill="white"/>
<path d="M18.6033 94.8208C18.5208 94.8208 18.4417 94.788 18.3834 94.7297C18.325 94.6714 18.2923 94.5922 18.2923 94.5097V93.8378C18.2923 93.7553 18.325 93.6761 18.3834 93.6178C18.4417 93.5594 18.5208 93.5267 18.6033 93.5267C18.6859 93.5267 18.765 93.5594 18.8233 93.6178C18.8817 93.6761 18.9144 93.7553 18.9144 93.8378V94.5097C18.9144 94.5922 18.8817 94.6714 18.8233 94.7297C18.765 94.788 18.6859 94.8208 18.6033 94.8208Z" fill="white"/>
</svg>
