<svg width="2" height="2" viewBox="0 0 2 2" fill="none" xmlns="http://www.w3.org/2000/svg">
<path d="M1.78696 1.46943C1.69406 1.62536 1.55698 1.75022 1.39307 1.82819C1.22917 1.90616 1.04582 1.93374 0.866225 1.90744C0.686635 1.88114 0.518889 1.80215 0.384225 1.68045C0.249561 1.55876 0.154036 1.39984 0.109747 1.22382C0.0654577 1.0478 0.0743955 0.862598 0.135429 0.691662C0.196462 0.520726 0.306846 0.371744 0.452603 0.263582C0.59836 0.15542 0.772935 0.0929403 0.954223 0.0840566C1.13551 0.0751729 1.31536 0.120282 1.47099 0.213675C1.67878 0.338875 1.82861 0.541173 1.88781 0.776429C1.947 1.01169 1.91075 1.2608 1.78696 1.46943Z" fill="#A14CAF" stroke="#263238" stroke-width="0.138124" stroke-linecap="round" stroke-linejoin="round"/>
<path d="M0.888715 0.888596L0.882232 0.895778L0.87345 0.905505L0.777882 1.21923C0.766763 1.25574 0.728803 1.27623 0.693356 1.26544C0.657936 1.25465 0.637826 1.21646 0.648945 1.17995L0.750522 0.8465L0.741267 0.84368L0.732011 0.840861L0.721365 0.837618M0.888715 0.888596L0.57892 0.973156M0.888715 0.888596L0.895198 0.881414M0.888715 0.888596L0.895198 0.881414M0.721365 0.837618C0.727455 0.836151 0.733649 0.834973 0.739931 0.834098L0.719263 0.836978L0.721365 0.837618ZM0.721365 0.837618C0.654103 0.853818 0.599487 0.905239 0.57892 0.973156M0.57892 0.973156L0.578925 0.973141L0.58818 0.97596L0.57892 0.973156ZM0.57892 0.973156L0.526997 1.14361C0.515869 1.18014 0.47792 1.20061 0.442471 1.18981C0.407048 1.17902 0.386932 1.14086 0.398059 1.10433L0.579239 0.509557C0.590367 0.473028 0.628343 0.452561 0.663765 0.463352C0.699214 0.47415 0.719305 0.512303 0.708177 0.548834L0.708926 0.549062L0.663861 0.697L0.658587 0.714312L0.675912 0.709082C0.712767 0.697956 0.751226 0.693486 0.789457 0.695858L0.787469 0.727895L0.799311 0.689021L0.830651 0.586141C0.841778 0.549611 0.879727 0.529138 0.915177 0.539937C0.950626 0.550735 0.970716 0.588888 0.959588 0.625418L0.928249 0.728298L0.897999 0.719083L0.932595 0.739454C1.05854 0.813616 1.12088 0.963593 1.08559 1.10837L1.08021 1.13046L1.09986 1.11902L1.45533 0.912152L1.45534 0.912146C1.47092 0.903057 1.48931 0.900616 1.50644 0.905304C1.52357 0.909992 1.53813 0.921435 1.54689 0.937169L1.55534 0.932466L1.54681 0.937033C1.55569 0.953608 1.55766 0.973222 1.55221 0.991483C1.54716 1.00842 1.53594 1.02279 1.52089 1.03166L0.997041 1.33654C0.97286 1.35053 0.942954 1.34822 0.921497 1.3308C0.900011 1.31337 0.891152 1.28416 0.899386 1.25704L0.951312 1.08658L0.951319 1.08655M0.57892 0.973156L0.951319 1.08655M0.951319 1.08655C0.973644 1.01261 0.951841 0.932549 0.895198 0.881414M0.951319 1.08655L0.895198 0.881414" fill="white" stroke="#BFBFBF" stroke-width="0.0161145"/>
</svg>
