<svg width="24" height="24" viewBox="0 0 24 24" fill="none" xmlns="http://www.w3.org/2000/svg">
<path d="M16.5 13.9998C15.397 13.9998 14.5 13.1028 14.5 11.9998C14.5 10.8968 15.397 9.99976 16.5 9.99976C17.603 9.99976 18.5 10.8968 18.5 11.9998C18.5 13.1028 17.603 13.9998 16.5 13.9998ZM16.5 11.4998C16.224 11.4998 16 11.7238 16 11.9998C16 12.2758 16.224 12.4998 16.5 12.4998C16.776 12.4998 17 12.2758 17 11.9998C17 11.7238 16.776 11.4998 16.5 11.4998Z" fill="#F0792E"/>
<path d="M11.5 11.25H12.5V12.75H11.5V11.25Z" fill="#F0792E"/>
<path d="M20.5 11.25H21.5V12.75H20.5V11.25Z" fill="#F0792E"/>
<path d="M22.25 16.9998H10.75C9.785 16.9998 9 16.2148 9 15.2498V8.74976C9 7.78476 9.785 6.99976 10.75 6.99976H22.25C23.215 6.99976 24 7.78476 24 8.74976V15.2498C24 16.2148 23.215 16.9998 22.25 16.9998ZM10.75 8.49976C10.612 8.49976 10.5 8.61176 10.5 8.74976V15.2498C10.5 15.3878 10.612 15.4998 10.75 15.4998H22.25C22.388 15.4998 22.5 15.3878 22.5 15.2498V8.74976C22.5 8.61176 22.388 8.49976 22.25 8.49976H10.75Z" fill="#20446C"/>
<path d="M10.25 4H5.75C4.785 4 4 3.215 4 2.25C4 1.836 3.664 1.5 3.25 1.5H2.75V0H3.25C4.491 0 5.5 1.009 5.5 2.25C5.5 2.388 5.612 2.5 5.75 2.5H10.25C10.388 2.5 10.5 2.388 10.5 2.25C10.5 1.009 11.509 0 12.75 0H13.25V1.5H12.75C12.336 1.5 12 1.836 12 2.25C12 3.215 11.215 4 10.25 4Z" fill="#20446C"/>
<path d="M13.25 24H2.75C1.233 24 0 22.767 0 21.25V2.75C0 1.233 1.233 0 2.75 0H13.25C14.767 0 16 1.233 16 2.75V4.25H14.5V2.75C14.5 2.061 13.939 1.5 13.25 1.5H2.75C2.061 1.5 1.5 2.061 1.5 2.75V21.25C1.5 21.939 2.061 22.5 2.75 22.5H13.25C13.939 22.5 14.5 21.939 14.5 21.25V19.75H16V21.25C16 22.767 14.767 24 13.25 24Z" fill="#20446C"/>
</svg>
