<svg width="44" height="28" viewBox="0 0 44 28" fill="none" xmlns="http://www.w3.org/2000/svg">
<path d="M41.8604 0.0919917H2.18035C1.91065 0.0885992 1.64296 0.139122 1.39281 0.240632C1.14266 0.342142 0.915038 0.492615 0.723134 0.683328C0.53123 0.874042 0.378871 1.1012 0.274889 1.35162C0.170907 1.60204 0.117372 1.87075 0.117393 2.14215V20.3322C0.113973 20.6057 0.164996 20.8772 0.267458 21.1306C0.369921 21.384 0.521749 21.6142 0.713998 21.8076C0.906246 22.0011 1.13503 22.1538 1.38686 22.2569C1.6387 22.36 1.90849 22.4114 2.18035 22.4079H18.8266L22.3616 26.9695L25.3058 22.4079H41.8604C42.4031 22.4012 42.9213 22.1795 43.3027 21.791C43.6841 21.4024 43.8979 20.8783 43.8979 20.3322V2.18827C43.9033 1.63861 43.6918 1.10922 43.3099 0.716234C42.9279 0.323246 42.4066 0.0987508 41.8604 0.0919917Z" fill="white"/>
<path d="M41.8606 0.0922573H42.0542C42.2478 0.107073 42.4383 0.150239 42.6196 0.220392C42.917 0.327722 43.1856 0.503191 43.404 0.732932C43.7072 1.05859 43.8982 1.47365 43.9491 1.9169C43.9898 3.90042 43.9796 6.7809 43.9949 10.4302C43.9949 12.2548 43.9949 14.2691 43.9949 16.4525C43.9949 17.5442 43.9949 18.6821 43.9949 19.8558C44.0088 20.1588 43.9952 20.4625 43.9541 20.763C43.8905 21.0736 43.762 21.3671 43.5772 21.624C43.3871 21.887 43.1404 22.1034 42.8555 22.2569C42.5706 22.4105 42.2549 22.4972 41.9319 22.5107L25.2806 22.5364L25.3876 22.48L22.4434 27.0467L22.3466 27.1953L22.2346 27.0518L18.6995 22.4954L18.8014 22.5466H2.80203C2.51169 22.5466 2.24172 22.5466 1.931 22.5466C1.63027 22.5134 1.34016 22.4156 1.08035 22.2596C0.822953 22.1058 0.599705 21.9004 0.424461 21.6562C0.249216 21.4119 0.125713 21.1341 0.0616106 20.8399C0.00827933 20.551 -0.0105315 20.2568 0.00557943 19.9634V12.4701C0.00557943 10.2935 0.00557943 8.1545 0.00557943 6.05309V2.18854C0.0107697 1.91733 0.0606885 1.64886 0.153298 1.3941C0.341603 0.894915 0.703607 0.481487 1.17204 0.230641C1.40536 0.107951 1.65922 0.0297555 1.92082 0C2.18569 0 2.43019 0 2.67468 0H12.4954H22.3517L36.6141 0.0410002H40.4904H41.5092H41.8555H41.5092H40.4904L36.6141 0.0666287L22.3517 0.107633H12.4954H2.68487C2.44224 0.0946651 2.1991 0.0946651 1.95647 0.107633C1.72411 0.129546 1.4987 0.199329 1.29429 0.312645C0.873019 0.529777 0.545134 0.894336 0.372327 1.33772C0.284941 1.56139 0.240018 1.79957 0.23989 2.0399V2.80359C0.23989 3.82867 0.23989 4.85375 0.23989 5.91983V12.3368C0.23989 14.5202 0.23989 16.7412 0.23989 18.9998V19.8455C0.22363 20.118 0.239017 20.3915 0.285735 20.6605C0.344783 20.9212 0.456696 21.1668 0.614465 21.382C0.772233 21.5972 0.972457 21.7773 1.2026 21.9111C1.43048 22.0499 1.68631 22.1357 1.95138 22.1622C2.21116 22.1622 2.51169 22.1622 2.79184 22.1622H18.8778L18.9185 22.2083C20.1359 23.787 21.3381 25.3348 22.4536 26.7751H22.2447L25.194 22.2135L25.2297 22.1571H25.2959H41.937C42.2297 22.1461 42.5161 22.0684 42.7746 21.9299C43.0331 21.7914 43.2571 21.5957 43.4295 21.3575C43.6001 21.1264 43.7183 20.8605 43.7759 20.5785C43.8153 20.2898 43.829 19.9982 43.8166 19.7071C43.8166 18.5334 43.8166 17.3956 43.8166 16.3039C43.8166 14.1205 43.8166 12.1062 43.8166 10.2815C43.8166 6.64251 43.8166 3.76204 43.8421 1.77851C43.8038 1.40709 43.6654 1.05325 43.4419 0.75517C43.2184 0.457092 42.9182 0.226101 42.5737 0.0871308C42.3372 0.0523778 42.0967 0.0541072 41.8606 0.0922573Z" fill="#263238"/>
<path d="M14.5885 5.22257V5.89911H14.1556V5.21744L13.4221 3.9976H13.8856L14.395 4.84329L14.9043 3.9976H15.3322L14.5885 5.22257Z" fill="#263238"/>
<path d="M15.3074 4.94645C15.2992 4.74216 15.352 4.5401 15.4589 4.36622C15.5658 4.19234 15.7219 4.05459 15.9072 3.97068C16.0925 3.88677 16.2985 3.86053 16.4987 3.89533C16.6989 3.93013 16.8842 4.02438 17.0308 4.16597C17.1774 4.30756 17.2786 4.49002 17.3213 4.68991C17.364 4.88979 17.3463 5.09796 17.2706 5.28767C17.1948 5.47738 17.0644 5.63996 16.8961 5.75452C16.7278 5.86907 16.5293 5.93037 16.3261 5.93054C16.1943 5.93607 16.0627 5.9147 15.9393 5.86773C15.8159 5.82076 15.7032 5.74915 15.6081 5.65721C15.5129 5.56528 15.4372 5.45491 15.3855 5.33276C15.3338 5.21062 15.3073 5.07921 15.3074 4.94645ZM16.9323 4.94645C16.9293 4.82957 16.8921 4.71617 16.8253 4.62044C16.7586 4.52471 16.6653 4.4509 16.5571 4.40825C16.4489 4.3656 16.3306 4.35599 16.217 4.38064C16.1034 4.40529 15.9996 4.4631 15.9185 4.54683C15.8374 4.63055 15.7826 4.73649 15.761 4.85138C15.7394 4.96627 15.752 5.08502 15.7971 5.19277C15.8423 5.30051 15.918 5.39247 16.0148 5.45715C16.1116 5.52183 16.2252 5.55634 16.3414 5.55638C16.4209 5.55862 16.5 5.54425 16.5737 5.51419C16.6474 5.48413 16.7142 5.43902 16.7697 5.38171C16.8252 5.3244 16.8683 5.25614 16.8963 5.18122C16.9243 5.10631 16.9365 5.02637 16.9323 4.94645Z" fill="#263238"/>
<path d="M17.6912 5.06368V3.9976H18.1293V5.02267C18.1293 5.38145 18.2821 5.53521 18.547 5.53521C18.8119 5.53521 18.9698 5.38657 18.9698 5.02267V3.9976H19.4027V5.06368C19.4027 5.29204 19.3126 5.51106 19.1521 5.67254C18.9916 5.83402 18.7739 5.92474 18.547 5.92474C18.32 5.92474 18.1024 5.83402 17.9419 5.67254C17.7814 5.51106 17.6912 5.29204 17.6912 5.06368Z" fill="#263238"/>
<path d="M21.0377 5.89911L20.671 5.38658H20.2737V5.89911H19.8356V3.9976H20.6506C21.16 3.9976 21.4707 4.26412 21.4707 4.68953C21.4756 4.81746 21.441 4.94379 21.3717 5.05116C21.3024 5.15852 21.2017 5.24168 21.0836 5.2892L21.5063 5.89911H21.0377ZM20.6251 4.3615H20.2737V5.02268H20.6251C20.8951 5.02268 21.0275 4.89967 21.0275 4.69465C21.0275 4.48964 20.8951 4.35638 20.6251 4.35638V4.3615Z" fill="#263238"/>
<path d="M22.4636 4.94591C22.4663 4.73614 22.5328 4.53226 22.6544 4.36178C22.7759 4.1913 22.9464 4.06244 23.143 3.99259C23.3396 3.92274 23.5528 3.91527 23.7537 3.97117C23.9547 4.02708 24.1337 4.14368 24.2667 4.30524L23.9866 4.56151C23.9274 4.49201 23.854 4.4363 23.7713 4.39824C23.6886 4.36019 23.5987 4.34069 23.5078 4.34111C23.3573 4.35504 23.2173 4.42505 23.1155 4.53741C23.0136 4.64978 22.9571 4.79638 22.9571 4.94847C22.9571 5.10057 23.0136 5.24717 23.1155 5.35953C23.2173 5.47189 23.3573 5.5419 23.5078 5.55583C23.5993 5.5567 23.6898 5.53688 23.7727 5.49785C23.8555 5.45882 23.9286 5.40157 23.9866 5.33031L24.2667 5.59171C24.1334 5.75358 23.9539 5.8703 23.7525 5.92606C23.5511 5.98182 23.3375 5.97392 23.1407 5.90343C22.9438 5.83294 22.7733 5.70327 22.6522 5.532C22.5311 5.36072 22.4652 5.15611 22.4636 4.94591Z" fill="#263238"/>
<path d="M24.4046 4.94645C24.3964 4.74216 24.4492 4.54009 24.5561 4.36621C24.663 4.19234 24.8191 4.05459 25.0044 3.97068C25.1897 3.88677 25.3957 3.86053 25.5959 3.89533C25.7961 3.93013 25.9814 4.02438 26.128 4.16597C26.2746 4.30756 26.3757 4.49002 26.4185 4.6899C26.4612 4.88978 26.4435 5.09795 26.3678 5.28766C26.292 5.47737 26.1616 5.63995 25.9933 5.75451C25.825 5.86906 25.6265 5.93036 25.4233 5.93052C25.2913 5.93679 25.1594 5.91594 25.0357 5.86923C24.912 5.82252 24.799 5.75095 24.7037 5.65886C24.6083 5.56678 24.5327 5.45612 24.4812 5.33364C24.4298 5.21116 24.4037 5.07941 24.4046 4.94645ZM26.0244 4.94645C26.0213 4.82956 25.9842 4.71616 25.9174 4.62043C25.8507 4.52471 25.7574 4.4509 25.6492 4.40825C25.541 4.3656 25.4227 4.35599 25.3091 4.38064C25.1955 4.40529 25.0917 4.46309 25.0106 4.54682C24.9295 4.63055 24.8747 4.73648 24.8531 4.85138C24.8315 4.96627 24.8441 5.08501 24.8892 5.19276C24.9343 5.3005 25.0101 5.39247 25.1069 5.45714C25.2037 5.52182 25.3173 5.55633 25.4335 5.55637C25.5132 5.5594 25.5927 5.54557 25.6667 5.51578C25.7408 5.48599 25.8078 5.44091 25.8635 5.38343C25.9192 5.32595 25.9623 5.25737 25.99 5.1821C26.0177 5.10683 26.0294 5.02655 26.0244 4.94645Z" fill="#263238"/>
<path d="M26.7982 3.99821H27.659C27.789 3.98861 27.9195 4.00606 28.0424 4.04949C28.1653 4.09292 28.278 4.16138 28.3734 4.25061C28.4688 4.33983 28.5449 4.4479 28.597 4.56806C28.649 4.68821 28.6759 4.81788 28.6759 4.94896C28.6759 5.08004 28.649 5.2097 28.597 5.32986C28.5449 5.45002 28.4688 5.55808 28.3734 5.64731C28.278 5.73653 28.1653 5.805 28.0424 5.84842C27.9195 5.89185 27.789 5.90931 27.659 5.8997H26.7982V3.99821ZM27.6336 5.53581C27.7147 5.54345 27.7966 5.53396 27.8739 5.50794C27.9512 5.48192 28.0223 5.43995 28.0826 5.38472C28.1429 5.32948 28.191 5.26219 28.224 5.18715C28.2569 5.11212 28.2739 5.03099 28.2739 4.94896C28.2739 4.86693 28.2569 4.7858 28.224 4.71076C28.191 4.63573 28.1429 4.56844 28.0826 4.5132C28.0223 4.45796 27.9512 4.41599 27.8739 4.38998C27.7966 4.36396 27.7147 4.35447 27.6336 4.36211H27.2363V5.53581H27.6336Z" fill="#263238"/>
<path d="M30.4914 5.54547V5.89911H29.0295V3.9976H30.4557V4.35125H29.4625V4.75103H30.3386V5.08931H29.4625V5.53009L30.4914 5.54547Z" fill="#263238"/>
<path d="M37.9845 7.89263H6.05206C5.05338 7.89263 4.24379 8.70725 4.24379 9.71214V16.4982C4.24379 17.503 5.05338 18.3177 6.05206 18.3177H37.9845C38.9832 18.3177 39.7928 17.503 39.7928 16.4982V9.71214C39.7928 8.70725 38.9832 7.89263 37.9845 7.89263Z" fill="#F5F5F5"/>
<path d="M11.4719 13.7409C11.4728 13.9555 11.4291 14.1679 11.3435 14.3645C11.258 14.561 11.1325 14.7374 10.9751 14.8822C10.8178 15.027 10.632 15.1371 10.4298 15.2054C10.2276 15.2736 10.0135 15.2985 9.80115 15.2785C8.48188 15.2785 7.76367 14.3303 7.76367 12.7466C7.76367 11.0398 8.66526 10.1839 9.99471 10.1839C10.3899 10.1657 10.7826 10.256 11.1306 10.4453L10.9829 10.7425C10.6816 10.5737 10.3391 10.4937 9.99471 10.5119C8.869 10.5119 8.13042 11.2551 8.13042 12.7158C8.12867 12.9182 8.14229 13.1204 8.17117 13.3206C8.29079 12.998 8.51163 12.7235 8.80024 12.5385C9.08884 12.3535 9.42949 12.2682 9.77059 12.2955C10.7995 12.2443 11.4719 12.8337 11.4719 13.7409ZM11.1051 13.7409C11.1051 13.0182 10.5958 12.5518 9.74512 12.5518C9.57415 12.5334 9.40125 12.5505 9.2371 12.602C9.07295 12.6535 8.92104 12.7383 8.79072 12.8512C8.66041 12.964 8.55448 13.1026 8.47946 13.2582C8.40444 13.4139 8.36192 13.5834 8.35454 13.7563C8.35454 14.3457 8.86391 14.9351 9.79096 14.9351C9.95632 14.9531 10.1236 14.9359 10.2819 14.8846C10.4402 14.8333 10.5861 14.7491 10.71 14.6375C10.8339 14.5259 10.9331 14.3893 11.0012 14.2366C11.0693 14.0839 11.1047 13.9185 11.1051 13.7511V13.7409Z" fill="#F0792E"/>
<path d="M18.1292 13.8279H17.0799V15.2272H16.7183V13.8279H13.8607V13.5614L16.5807 10.1786H17.0188L14.3446 13.505H16.7539V12.2698H17.1054V13.505H18.1547L18.1292 13.8279Z" fill="#F0792E"/>
<path d="M23.7014 13.8077C23.7014 14.6431 23.0953 15.2633 21.9441 15.2633C21.6192 15.2772 21.295 15.2244 20.9911 15.1081C20.6872 14.9917 20.4101 14.8144 20.1766 14.5867L20.3599 14.3048C20.568 14.5114 20.8159 14.673 21.0883 14.7796C21.3607 14.8863 21.652 14.9357 21.9441 14.925C22.8457 14.925 23.3296 14.4945 23.3296 13.8077C23.3296 13.1209 22.866 12.6903 21.8626 12.6903H21.5519V12.4392L23.0341 10.5274H20.3599V10.1943H23.5079V10.4557L21.9797 12.3982C23.1309 12.4084 23.7014 12.9876 23.7014 13.8077Z" fill="#F0792E"/>
<path d="M29.7532 10.1786V10.44L27.5986 15.2272H27.2064L29.3406 10.5118H26.5238V11.4805H26.1876V10.1786H29.7532Z" fill="#F0792E"/>
<path d="M32.3257 12.7062C32.3257 11.1276 33.1356 10.1435 34.2867 10.1435C35.4379 10.1435 36.2478 11.1276 36.2478 12.7062C36.2478 14.2848 35.4379 15.2689 34.2867 15.2689C33.1356 15.2689 32.3257 14.2848 32.3257 12.7062ZM35.8913 12.7062C35.8913 11.3018 35.2393 10.4869 34.2918 10.4869C33.3444 10.4869 32.6924 11.3018 32.6924 12.7062C32.6924 14.1105 33.3444 14.9255 34.2918 14.9255C35.2393 14.9255 35.8658 14.1105 35.8658 12.7062H35.8913Z" fill="#F0792E"/>
</svg>
