<svg width="21" height="31" viewBox="0 0 21 31" fill="none" xmlns="http://www.w3.org/2000/svg">
<path d="M17.5503 0.0766662V0.0757163H17.4745H3.04687C1.40904 0.0757163 0.0762099 1.40315 0.0762099 3.03553V27.9589C0.0762099 29.594 1.40631 30.9241 3.04142 30.9241H17.48C19.1151 30.9241 20.4452 29.594 20.4452 27.9589V3.03553C20.4451 1.42841 19.1532 0.116875 17.5503 0.0766662ZM1.42693 3.03553C1.42693 2.1488 2.15323 1.42644 3.04687 1.42644H17.4745C18.3682 1.42644 19.0945 2.14874 19.0945 3.03553V24.7871H1.42693V3.03553ZM19.0944 27.9589C19.0944 28.8491 18.3701 29.5734 17.4799 29.5734H3.04136C2.15123 29.5734 1.42687 28.8491 1.42687 27.9589V26.1378H19.0944V27.9589Z" fill="#F0792E" stroke="#F0792E" stroke-width="0.15"/>
<path d="M9.86121 28.5318H10.6606C11.0336 28.5318 11.3359 28.2294 11.3359 27.8564C11.3359 27.4835 11.0336 27.1811 10.6606 27.1811H9.86121C9.48821 27.1811 9.18586 27.4835 9.18586 27.8564C9.18586 28.2294 9.48827 28.5318 9.86121 28.5318Z" fill="#F0792E" stroke="#F0792E" stroke-width="0.15"/>
<path d="M7.41302 3.79738H13.1074C13.4804 3.79738 13.7828 3.49496 13.7828 3.12202C13.7828 2.74909 13.4804 2.44666 13.1074 2.44666H7.41302C7.04002 2.44666 6.73766 2.74909 6.73766 3.12202C6.73766 3.49496 7.04002 3.79738 7.41302 3.79738Z" fill="#F0792E" stroke="#F0792E" stroke-width="0.15"/>
<path d="M6.20364 16.8146H14.8793C15.2071 16.8146 15.4949 16.5965 15.5883 16.2796L17.3817 10.1946L17.309 10.1731L17.3817 10.1946C17.4484 9.96814 17.4057 9.72293 17.2664 9.5332C17.1269 9.3434 16.9068 9.23118 16.6727 9.23118H5.23818L5.05663 7.80519L5.05663 7.80519C5.00914 7.43241 4.69569 7.15178 4.32287 7.15178H1.82695C1.41732 7.15178 1.08708 7.48826 1.08708 7.90096C1.08708 8.31365 1.41732 8.65013 1.82695 8.65013H3.67226L4.96159 18.7779C4.98698 18.9773 5.08832 19.1501 5.23408 19.2678C5.10693 19.5524 5.03616 19.8682 5.03616 20.2002C5.03616 21.4488 6.03703 22.4664 7.26983 22.4664C8.50262 22.4664 9.5035 21.4488 9.5035 20.2002C9.5035 19.9305 9.45679 19.6716 9.37111 19.4313H11.1636C11.0782 19.6712 11.0316 19.9299 11.0316 20.1992C11.0316 21.4478 12.0325 22.4653 13.2653 22.4653C14.4981 22.4653 15.4989 21.4477 15.4989 20.1992C15.4989 19.7466 15.3674 19.3244 15.1412 18.9701C15.1777 18.8814 15.1979 18.7841 15.1979 18.6821C15.1979 18.2694 14.8677 17.9329 14.458 17.9329H6.34603L6.20364 16.8146ZM7.26983 20.9681C6.85535 20.9681 6.5159 20.6247 6.5159 20.2002C6.5159 19.7757 6.85535 19.4323 7.26983 19.4323C7.6843 19.4323 8.02375 19.7757 8.02375 20.2002C8.02381 20.6247 7.68431 20.9681 7.26983 20.9681ZM13.2653 20.9671C12.8509 20.9671 12.5114 20.6237 12.5114 20.1992C12.5114 19.7747 12.8509 19.4313 13.2653 19.4313C13.6798 19.4313 14.0193 19.7747 14.0193 20.1992C14.0193 20.6237 13.6797 20.9671 13.2653 20.9671ZM15.6797 10.7295L14.328 15.3162H6.01287L5.42895 10.7295H15.6797Z" fill="#F0792E" stroke="#F0792E" stroke-width="0.15"/>
</svg>
