<svg width="20" height="19" viewBox="0 0 20 19" fill="none" xmlns="http://www.w3.org/2000/svg">
<path d="M19.0752 9.16845C19.1411 11.0463 18.6462 12.9013 17.6533 14.4991C16.6603 16.0969 15.2139 17.3655 13.4968 18.1447C11.7797 18.9239 9.86916 19.1785 8.00674 18.8764C6.14433 18.5744 4.41369 17.7292 3.03369 16.4477C1.6537 15.1662 0.686319 13.506 0.253896 11.6771C-0.178527 9.84813 -0.0565753 7.93257 0.604333 6.17264C1.26524 4.41271 2.43542 2.88745 3.96688 1.78976C5.49835 0.692067 7.32232 0.0712326 9.20814 0.00577323C11.7368 -0.0820002 14.1969 0.834024 16.0473 2.55234C17.8977 4.27066 18.9869 6.65053 19.0752 9.16845Z" fill="#20446C"/>
<g opacity="0.1">
<path opacity="0.1" d="M9.20746 0.0067961C6.67883 0.094729 4.28883 1.17926 2.5632 3.02182C0.837565 4.86438 -0.0823492 7.31405 0.00579785 9.83197C0.00579785 9.83197 6.72012 9.89883 8.2461 7.15459C9.77208 4.41035 9.20746 0.0067961 9.20746 0.0067961Z" fill="white"/>
</g>
<path d="M16.6321 9.10153C16.6826 10.5293 16.3067 11.9399 15.5518 13.1549C14.7969 14.3698 13.6971 15.3345 12.3914 15.9268C11.0858 16.5191 9.63302 16.7124 8.217 16.4822C6.80098 16.2521 5.48535 15.6089 4.43659 14.6339C3.38783 13.659 2.65309 12.3961 2.32534 11.0053C1.9976 9.61436 2.09158 8.15791 2.5954 6.82023C3.09922 5.48254 3.99023 4.32374 5.15567 3.49047C6.32111 2.6572 7.70861 2.18691 9.14256 2.13912C11.0625 2.07514 12.9295 2.77235 14.3336 4.0777C15.7378 5.38305 16.5645 7.18987 16.6321 9.10153Z" fill="#20446C"/>
<g opacity="0.2">
<path opacity="0.2" d="M16.6302 9.10165C16.6807 10.5294 16.3047 11.9401 15.5499 13.155C14.795 14.3699 13.6951 15.3346 12.3895 15.9269C11.0838 16.5192 9.63106 16.7125 8.21504 16.4824C6.79902 16.2522 5.48339 15.609 4.43463 14.634C3.38587 13.6591 2.65113 12.3963 2.32338 11.0054C1.99564 9.61448 2.08962 8.15804 2.59344 6.82035C3.09726 5.48266 3.98827 4.32386 5.15371 3.49059C6.31915 2.65732 7.70665 2.18703 9.1406 2.13925C11.0605 2.07526 12.9275 2.77247 14.3317 4.07783C15.7359 5.38318 16.5625 7.19 16.6302 9.10165Z" fill="#20446C"/>
</g>
<path d="M16.8494 9.39647C16.8986 10.8044 16.5275 12.1952 15.7829 13.3932C15.0384 14.5911 13.9538 15.5423 12.6664 16.1264C11.379 16.7106 9.94655 16.9016 8.55016 16.6752C7.15377 16.4488 5.85615 15.8152 4.82137 14.8545C3.78659 13.8938 3.06111 12.6491 2.73667 11.2779C2.41224 9.90663 2.50339 8.47039 2.99864 7.15074C3.49388 5.83109 4.37097 4.6873 5.51899 3.86397C6.66701 3.04065 8.03442 2.57477 9.44833 2.52523C11.3447 2.4596 13.1896 3.14656 14.5775 4.43507C15.9654 5.72358 16.7825 7.50817 16.8494 9.39647Z" fill="#F0792E"/>
<path d="M11.6103 7.67524C11.8545 7.67524 12.0524 7.48099 12.0524 7.2413C12.0524 7.00179 11.8545 6.80737 11.6103 6.80737H8.10952C7.86537 6.80737 7.66749 7.00179 7.66749 7.2413C7.66749 7.48099 7.86537 7.67524 8.10952 7.67524H9.11289C9.5278 7.67456 9.90473 7.91221 10.0765 8.28275H8.11384C7.86986 8.28275 7.67181 8.47718 7.67181 8.71669C7.67181 8.95637 7.86986 9.15063 8.11384 9.15063H10.0765C9.90318 9.52015 9.52711 9.75712 9.11289 9.75814H8.10952C7.92822 9.75831 7.76522 9.86696 7.69806 10.0322C7.63089 10.1975 7.67302 10.3863 7.80442 10.5089L10.3064 12.8304C10.3891 12.9064 10.4982 12.9483 10.6113 12.9476C10.7328 12.9469 10.849 12.8984 10.934 12.8132C11.0145 12.7298 11.0578 12.6184 11.0545 12.5036C11.0512 12.3889 11.0015 12.2801 10.9164 12.2012L9.2189 10.626C10.08 10.5772 10.8062 9.97901 11.0048 9.15503H11.6103C11.8545 9.15503 12.0524 8.96078 12.0524 8.7211C12.0524 8.48141 11.8545 8.28716 11.6103 8.28716H11.0048C10.9533 8.07104 10.8636 7.86526 10.7396 7.67965H11.6103V7.67524Z" fill="white"/>
<g opacity="0.2">
<path opacity="0.2" d="M16.8494 9.39647C16.8986 10.8044 16.5275 12.1952 15.7829 13.3932C15.0384 14.5911 13.9538 15.5423 12.6664 16.1264C11.379 16.7106 9.94655 16.9016 8.55016 16.6752C7.15377 16.4488 5.85615 15.8152 4.82137 14.8545C3.78659 13.8938 3.06111 12.6491 2.73667 11.2779C2.41224 9.90663 2.50339 8.47039 2.99864 7.15074C3.49388 5.83109 4.37097 4.6873 5.51899 3.86397C6.66701 3.04065 8.03442 2.57477 9.44833 2.52523C11.3447 2.4596 13.1896 3.14656 14.5775 4.43507C15.9654 5.72358 16.7825 7.50817 16.8494 9.39647Z" fill="white"/>
</g>
<path d="M9.81782 16.8389H9.87581L10.0467 16.8237L10.3275 16.7964C10.4547 16.7876 10.5811 16.7703 10.706 16.7447L11.179 16.6535C11.2682 16.637 11.3559 16.6136 11.4415 16.5836L11.7253 16.4985C11.8286 16.4724 11.9305 16.4409 12.0305 16.4043L12.3357 16.2767C12.4425 16.2311 12.5555 16.1916 12.6623 16.1369L12.998 15.9606C13.4914 15.6951 13.9531 15.375 14.3744 15.0064L14.7071 14.6873L14.875 14.5232C14.9268 14.4624 14.9757 14.4016 15.0306 14.3408C15.1313 14.2162 15.2442 14.0977 15.3358 13.964L15.6227 13.5537L15.6959 13.4473C15.7203 13.4139 15.7387 13.3744 15.76 13.3379L15.8882 13.1131L16.0164 12.8851C16.0622 12.8092 16.0896 12.7241 16.1293 12.645C16.1995 12.4809 16.2758 12.3199 16.3399 12.1527L16.5139 11.633C16.719 10.9004 16.8146 10.1416 16.7977 9.38113C16.7623 8.62081 16.6131 7.87001 16.3552 7.15352C16.285 6.98333 16.2178 6.81315 16.1476 6.646C16.0774 6.47885 15.9828 6.3269 15.9004 6.16887C15.8619 6.08966 15.8191 6.01255 15.7722 5.9379L15.6288 5.71909L15.4853 5.50333C15.4609 5.46686 15.4396 5.43039 15.4151 5.39696L15.3327 5.29667L15.0276 4.90767C14.9177 4.78307 14.7986 4.67063 14.6888 4.55515L14.5209 4.38496C14.4629 4.33026 14.4019 4.28164 14.3409 4.22997L13.9899 3.92607C13.5425 3.58737 13.0583 3.29989 12.5463 3.06906L12.2014 2.91711C12.0885 2.86848 11.9725 2.84114 11.8657 2.80163L11.5422 2.69526C11.4415 2.65879 11.3347 2.64664 11.237 2.61928L10.9471 2.55546C10.8589 2.53245 10.7691 2.5162 10.6785 2.50684L10.2024 2.4491C10.076 2.43144 9.94848 2.42331 9.82088 2.42479H9.54009H9.36613H9.82088C9.94833 2.421 10.0759 2.42709 10.2024 2.44302L10.6815 2.49468C10.7729 2.5042 10.8637 2.51943 10.9532 2.54027L11.2584 2.60409C11.356 2.6284 11.4628 2.64056 11.5636 2.67703L11.8871 2.78035C11.9969 2.81682 12.116 2.84721 12.2289 2.89584L12.5768 3.04475C13.093 3.27532 13.5823 3.5617 14.0357 3.89872L14.3897 4.20262L14.5728 4.35761L14.7407 4.5278C14.8536 4.64632 14.9757 4.75876 15.0855 4.88336L15.3907 5.2754L15.4731 5.37569L15.5464 5.48205L15.6898 5.70086L15.8363 5.91967C15.8882 5.99261 15.9218 6.0777 15.9676 6.15368C16.05 6.31171 16.1385 6.45758 16.2178 6.63385C16.2972 6.81011 16.3552 6.97421 16.4254 7.14744C16.9693 8.59778 17.025 10.1849 16.5841 11.6695L16.4132 12.1953C16.346 12.3655 16.2666 12.5265 16.1965 12.6906C16.1568 12.7727 16.1293 12.8578 16.0835 12.9338C16.0378 13.0097 15.995 13.0857 15.9523 13.1617L15.8241 13.3896C15.8028 13.4261 15.7814 13.4656 15.757 13.5021L15.6837 13.6084L15.3785 14.0217C15.2778 14.1554 15.1649 14.274 15.0733 14.3986L14.9146 14.5809L14.7468 14.7481L14.411 15.0702C13.9835 15.4393 13.5156 15.7594 13.0163 16.0244L12.6806 16.1977C12.5707 16.2524 12.4578 16.2888 12.3479 16.3344L12.0427 16.4621C11.9426 16.4986 11.8408 16.53 11.7375 16.5563L11.4506 16.6383C11.364 16.6674 11.2752 16.6897 11.1851 16.7052L10.7121 16.7903C10.5862 16.8147 10.4587 16.8289 10.3306 16.8328L10.0498 16.8541H9.87581L9.81782 16.8389Z" fill="#263238"/>
<path d="M1.58081 14.2375C1.56278 14.215 1.54742 14.1905 1.53503 14.1645L1.4099 13.9518C1.35801 13.8606 1.29392 13.7451 1.22983 13.6054C1.16574 13.4656 1.08334 13.3166 1.01619 13.1373L0.903273 12.8608C0.863598 12.7635 0.833076 12.6602 0.796453 12.5569C0.717102 12.3442 0.659117 12.1132 0.588922 11.867C0.45903 11.3346 0.370266 10.7931 0.323404 10.2472C0.287229 9.69948 0.294374 9.14975 0.34477 8.60312C0.375289 8.35392 0.399701 8.11383 0.44548 7.89502C0.466844 7.78258 0.482107 7.67621 0.506523 7.57289C0.530939 7.46956 0.555348 7.37535 0.576712 7.26898C0.619439 7.08056 0.674375 6.91646 0.720154 6.77058C0.754823 6.64574 0.796601 6.52297 0.845285 6.40286L0.93684 6.17493C0.944222 6.14715 0.95553 6.12054 0.970416 6.09592C0.966539 6.12499 0.95937 6.15354 0.94905 6.18101L0.872752 6.41198C0.836128 6.51226 0.796451 6.63686 0.756776 6.78274C0.717101 6.92861 0.66522 7.08664 0.625544 7.2781C0.605198 7.37332 0.583837 7.47462 0.561456 7.582C0.53704 7.68229 0.524832 7.7917 0.503468 7.9011C0.460741 8.11991 0.439381 8.35695 0.411913 8.60615C0.3637 9.14889 0.358592 9.69458 0.396648 10.2381C0.440583 10.7808 0.526288 11.3192 0.653011 11.8488C0.720154 12.0919 0.778139 12.3229 0.851386 12.5356C0.888009 12.6389 0.918537 12.7453 0.95516 12.8395L1.06197 13.1191C1.12911 13.2984 1.20542 13.4504 1.26646 13.5902C1.32749 13.73 1.38548 13.8454 1.43431 13.9396L1.54723 14.1585C1.56272 14.1828 1.57406 14.2095 1.58081 14.2375Z" fill="white"/>
<path d="M9.7798 1.92949C9.70269 1.93742 9.62496 1.93742 9.54784 1.92949H9.27317C9.1694 1.92949 9.04732 1.92949 8.91304 1.92949C8.77875 1.92949 8.63531 1.94469 8.47661 1.96292C8.3179 1.98115 8.15615 2.00243 7.98219 2.02978C7.22612 2.15952 6.49437 2.40342 5.81223 2.75307C5.65658 2.83816 5.50703 2.91414 5.3758 2.99923C5.24881 3.07098 5.12556 3.14908 5.00651 3.23324C4.89359 3.30617 4.79897 3.37911 4.70131 3.44293C4.60365 3.50675 4.54566 3.56145 4.48767 3.61007C4.42962 3.66174 4.36735 3.7085 4.3015 3.74987C4.35378 3.6925 4.40985 3.63869 4.46936 3.5888C4.52429 3.53714 4.59449 3.47636 4.67689 3.41254C4.75929 3.34872 4.85391 3.26666 4.96683 3.19069C5.07976 3.11471 5.19572 3.02962 5.33306 2.94757C5.4704 2.86551 5.61385 2.78042 5.7695 2.69533C6.1123 2.51727 6.4684 2.36588 6.83464 2.24251C7.20102 2.12068 7.57659 2.0282 7.95777 1.96596C8.13478 1.94165 8.30264 1.9143 8.46134 1.90518C8.62004 1.89606 8.76654 1.88391 8.90083 1.88087C9.03511 1.87783 9.15719 1.88087 9.26401 1.88087C9.37083 1.88087 9.4624 1.88087 9.53564 1.8991C9.61768 1.90316 9.69929 1.91332 9.7798 1.92949Z" fill="white"/>
<path d="M11.0178 18.4619C10.9644 18.4865 10.908 18.5038 10.85 18.5136C10.7401 18.544 10.5784 18.5774 10.38 18.6108C9.33076 18.7838 8.2555 18.711 7.23947 18.3981C7.0472 18.3404 6.89155 18.2826 6.78779 18.2401C6.73261 18.221 6.67945 18.1966 6.62908 18.1671C6.6866 18.1759 6.74293 18.1912 6.79694 18.2127C6.90376 18.2492 7.05941 18.2978 7.25474 18.3525C8.26801 18.6344 9.32867 18.7058 10.3708 18.5622C10.5722 18.5349 10.734 18.5075 10.8439 18.4862C10.9005 18.4705 10.959 18.4623 11.0178 18.4619Z" fill="white"/>
</svg>
