<svg width="21" height="23" viewBox="0 0 21 23" fill="none" xmlns="http://www.w3.org/2000/svg">
<path d="M6.03802 19.2359C6.03802 21.2561 7.68205 22.899 9.70117 22.899C11.7205 22.899 13.3643 21.2561 13.3643 19.2359C13.3643 18.7869 12.9999 18.4225 12.5509 18.4225C12.1019 18.4225 11.7375 18.7869 11.7375 19.2359C11.7375 20.359 10.8233 21.2722 9.70117 21.2722C8.57901 21.2722 7.66483 20.359 7.66483 19.2359C7.66483 18.7869 7.30045 18.4225 6.85142 18.4225C6.40239 18.4225 6.03802 18.7869 6.03802 19.2359Z" fill="#434B53" stroke="#434B53" stroke-width="0.2"/>
<path d="M1.78152 18.1848L1.78154 18.1848L1.78364 18.183C3.55762 16.6736 4.57673 14.474 4.57673 12.1492V9.49896C4.57673 6.67368 6.87598 4.37545 9.70024 4.37545C9.71674 4.37545 9.73278 4.37531 9.74841 4.37518C9.81052 4.37465 9.86614 4.37417 9.91837 4.38262C10.3539 4.45637 10.7805 4.15731 10.8542 3.71452C10.9281 3.27202 10.6287 2.8523 10.1853 2.77856C10.0242 2.75128 9.85225 2.74864 9.70024 2.74864C5.97881 2.74864 2.94992 5.77664 2.94992 9.49896V12.1492C2.94992 13.9662 2.1666 15.6871 0.797307 16.8846C0.769451 16.903 0.742204 16.9234 0.716334 16.946C0.324748 17.2816 0.10018 17.77 0.10018 18.2858C0.10018 19.2582 0.891043 20.049 1.86344 20.049H17.537C18.5096 20.049 19.3005 19.2582 19.3005 18.2858C19.3005 17.7701 19.0759 17.2816 18.6841 16.947C18.6589 16.9249 18.6325 16.9055 18.6066 16.888C17.2351 15.6893 16.4507 13.9674 16.4507 12.1492V11.1139C16.4507 10.6649 16.0864 10.3005 15.6373 10.3005C15.1883 10.3005 14.8239 10.6649 14.8239 11.1139V12.1492C14.8239 14.474 15.842 16.6726 17.617 18.183L17.617 18.183L17.6191 18.1848C17.6218 18.1869 17.6246 18.1892 17.6276 18.1917C17.6348 18.1975 17.6429 18.2041 17.6515 18.2108C17.6634 18.2279 17.6737 18.252 17.6737 18.2858C17.6737 18.359 17.6106 18.4222 17.537 18.4222H1.86344C1.79015 18.4222 1.72699 18.3591 1.72699 18.2858C1.72699 18.2535 1.73688 18.2288 1.74839 18.211C1.75858 18.2034 1.76769 18.196 1.77539 18.1897C1.77754 18.188 1.77959 18.1863 1.78152 18.1848Z" fill="#434B53" stroke="#434B53" stroke-width="0.2"/>
<circle cx="16.2066" cy="4.75098" r="4.75098" fill="#CF1402"/>
</svg>
