<svg width="88" height="80" viewBox="0 0 88 80" fill="none" xmlns="http://www.w3.org/2000/svg">
<path d="M29.4265 13.085C29.7315 13.8 29.816 14.5911 29.6692 15.358C29.5224 16.125 29.151 16.8334 28.6019 17.3936C28.0528 17.9538 27.3507 18.3407 26.5845 18.5051C25.8183 18.6696 25.0224 18.6044 24.2976 18.3176C23.5727 18.0309 22.9515 17.5356 22.5125 16.8944C22.0736 16.2532 21.8366 15.4948 21.8315 14.7154C21.8265 13.936 22.0536 13.1705 22.4842 12.5158C22.9148 11.8611 23.5295 11.3466 24.2504 11.0375C24.7283 10.8319 25.2413 10.7217 25.7601 10.7134C26.2789 10.705 26.7934 10.7986 27.274 10.9887C27.7547 11.1789 28.1922 11.4619 28.5616 11.8215C28.9309 12.1812 29.2248 12.6106 29.4265 13.085Z" fill="#F9C0A8"/>
<path d="M28.5586 13.4573C28.7911 14.0023 28.8554 14.6051 28.7435 15.1896C28.6316 15.7741 28.3485 16.3139 27.93 16.7408C27.5115 17.1677 26.9764 17.4624 26.3925 17.5877C25.8086 17.713 25.2021 17.6632 24.6497 17.4446C24.0974 17.226 23.624 16.8485 23.2896 16.3598C22.9551 15.8711 22.7746 15.2932 22.7708 14.6992C22.7671 14.1052 22.9403 13.5219 23.2685 13.023C23.5968 12.5241 24.0653 12.1321 24.6148 11.8967C24.9789 11.7401 25.3698 11.6562 25.7652 11.6499C26.1605 11.6436 26.5525 11.7149 26.9187 11.8598C27.285 12.0048 27.6183 12.2205 27.8997 12.4946C28.1811 12.7687 28.405 13.0958 28.5586 13.4573Z" fill="#FCD3C3"/>
<path d="M25.7398 13.0084C25.8284 12.9205 25.8309 12.7796 25.7455 12.6938C25.66 12.608 25.5189 12.6096 25.4303 12.6975L24.1598 13.9579C24.0712 14.0458 24.0687 14.1867 24.1542 14.2725C24.2396 14.3583 24.3807 14.3567 24.4693 14.2688L24.8335 13.9075C24.9838 13.7579 25.2053 13.7073 25.3998 13.7782L24.6876 14.4848C24.599 14.5727 24.5965 14.7136 24.6819 14.7994C24.7674 14.8853 24.9086 14.8835 24.9971 14.7957L25.7094 14.089C25.7782 14.2838 25.7263 14.5041 25.5763 14.6536L25.2122 15.0148C25.1465 15.0802 25.1261 15.1778 25.1606 15.2612C25.1952 15.3445 25.2778 15.397 25.3692 15.3936L27.1052 15.3243C27.1623 15.3218 27.2168 15.2975 27.2576 15.2565C27.3015 15.2125 27.3264 15.1533 27.3268 15.0922C27.3262 15.0333 27.3023 14.9778 27.2601 14.9379C27.218 14.898 27.1612 14.8769 27.1022 14.8793L25.9243 14.9263C26.2194 14.5988 26.2696 14.123 26.0478 13.7564L26.2676 13.5384C26.3562 13.4505 26.3587 13.3097 26.2732 13.2238C26.1877 13.138 26.0466 13.1396 25.958 13.2275L25.7383 13.4456C25.6425 13.3867 25.5366 13.3453 25.4254 13.3234L25.7414 13.0099L25.7398 13.0084Z" fill="#F38D5D"/>
<path d="M28.5216 13.3728C28.5043 13.3763 28.4424 13.2649 28.3077 13.0731C28.12 12.8029 27.891 12.5637 27.6289 12.3644C27.4484 12.2292 27.2537 12.1139 27.048 12.0207C26.8114 11.9158 26.562 11.8417 26.3059 11.8003C26.1683 11.7771 26.029 11.7644 25.8893 11.7625C25.5937 11.7568 25.2986 11.7954 25.0138 11.8772C24.8644 11.9206 24.7183 11.975 24.5769 12.04C24.436 12.1067 24.3001 12.1833 24.17 12.2692C24.0445 12.3538 23.9256 12.4478 23.8144 12.5504C23.7062 12.6484 23.6061 12.7549 23.515 12.8688C23.4266 12.9785 23.3464 13.0944 23.2751 13.2157C23.1418 13.4386 23.0377 13.6774 22.9653 13.9263C22.9027 14.1438 22.8645 14.3674 22.8514 14.5928C22.8339 14.9225 22.8677 15.2525 22.9517 15.5709C23.0115 15.7979 23.0588 15.9212 23.0423 15.9286C23.0258 15.9359 22.9537 15.8236 22.8663 15.5983C22.7445 15.2765 22.6841 14.9345 22.6881 14.5895C22.6943 14.0711 22.8343 13.5618 23.0947 13.1107C23.2482 12.8436 23.4402 12.6002 23.6647 12.3885C23.7835 12.2767 23.9112 12.1745 24.0465 12.0831C24.186 11.9893 24.3324 11.9062 24.4844 11.8346C24.6372 11.7642 24.7951 11.7056 24.9568 11.6595C25.1139 11.6139 25.2743 11.5811 25.4364 11.5613C25.5922 11.5428 25.7492 11.5365 25.9058 11.5427C26.0558 11.5474 26.2052 11.5637 26.3525 11.5913C26.6234 11.643 26.8858 11.7308 27.1326 11.8525C27.3457 11.957 27.5455 12.0864 27.7276 12.2379C27.9932 12.4572 28.2151 12.7242 28.3821 13.0252C28.4988 13.2375 28.5344 13.3672 28.5216 13.3728Z" fill="#F38D5D"/>
<path d="M51.8244 60.6663C51.7504 61.2776 51.4951 61.8537 51.0907 62.3216C50.6862 62.7896 50.1509 63.1284 49.5524 63.2952C48.9539 63.462 48.3191 63.4493 47.7284 63.2587C47.1377 63.0681 46.6176 62.7082 46.2339 62.2244C45.8503 61.7407 45.6203 61.1549 45.5732 60.5412C45.526 59.9275 45.6637 59.3135 45.9689 58.7769C46.2742 58.2402 46.7331 57.8051 47.2878 57.5265C47.8424 57.248 48.4678 57.1385 49.0848 57.212C49.494 57.2602 49.8895 57.3878 50.2487 57.5875C50.6079 57.7873 50.9237 58.0552 51.1781 58.376C51.4325 58.6968 51.6205 59.0642 51.7314 59.4571C51.8423 59.8501 51.8739 60.261 51.8244 60.6663Z" fill="#F9C0A8"/>
<path d="M51.0817 60.5784C51.0253 61.0443 50.8307 61.4833 50.5225 61.8399C50.2142 62.1965 49.8062 62.4546 49.3501 62.5817C48.894 62.7088 48.4102 62.6991 47.9601 62.5538C47.5099 62.4085 47.1136 62.1341 46.8213 61.7654C46.529 61.3967 46.3538 60.9503 46.3179 60.4826C46.2821 60.0149 46.3871 59.547 46.6198 59.1381C46.8524 58.7292 47.2023 58.3977 47.625 58.1855C48.0477 57.9732 48.5243 57.8899 48.9945 57.946C49.3063 57.9828 49.6077 58.0801 49.8813 58.2323C50.155 58.3845 50.3956 58.5887 50.5894 58.8332C50.7833 59.0776 50.9265 59.3576 51.011 59.6571C51.0954 59.9565 51.1194 60.2696 51.0817 60.5784Z" fill="#FCD3C3"/>
<path d="M49.3252 59.153C49.4208 59.1278 49.4783 59.0322 49.4537 58.9395C49.429 58.8468 49.3316 58.792 49.236 58.8172L47.8653 59.1786C47.7698 59.2038 47.7123 59.2995 47.7369 59.3922C47.7615 59.4849 47.859 59.5396 47.9546 59.5144L48.3474 59.4108C48.5098 59.3677 48.6818 59.4208 48.7871 59.5464L48.0187 59.7491C47.9232 59.7743 47.8656 59.8699 47.8902 59.9626C47.9149 60.0553 48.0124 60.1101 48.1079 60.0849L48.8763 59.8822C48.8465 60.0431 48.7236 60.1736 48.5615 60.2168L48.1687 60.3204C48.0977 60.3392 48.045 60.398 48.0357 60.4689C48.0264 60.5398 48.0623 60.6085 48.1264 60.6424L49.3446 61.2824C49.3848 61.3032 49.4318 61.3081 49.476 61.2962C49.5235 61.2834 49.564 61.2526 49.5885 61.2109C49.6115 61.1703 49.617 61.1227 49.6039 61.0787C49.5908 61.0346 49.5602 60.9976 49.5187 60.9759L48.6922 60.5417C49.0243 60.4339 49.2472 60.1274 49.2402 59.7881L49.4773 59.7256C49.5729 59.7004 49.6304 59.6048 49.6058 59.512C49.5811 59.4193 49.4837 59.3646 49.3881 59.3898L49.151 59.4523C49.1087 59.374 49.0523 59.3036 48.9847 59.2446L49.3256 59.1547L49.3252 59.153Z" fill="#F38D5D"/>
<path d="M51.089 60.5057C51.0757 60.5013 51.0774 60.4004 51.061 60.2155C51.0393 59.9558 50.9769 59.701 50.876 59.4605C50.8058 59.2963 50.7178 59.1401 50.6137 58.9947C50.4929 58.8291 50.3512 58.6795 50.192 58.5496C50.1068 58.4792 50.0162 58.4154 49.9211 58.3587C49.7207 58.2377 49.5029 58.1474 49.2752 58.0906C49.1555 58.0612 49.0338 58.0407 48.911 58.0293C48.788 58.0193 48.6644 58.018 48.5411 58.0254C48.4215 58.0337 48.3028 58.0511 48.1858 58.0775C48.0728 58.1018 47.962 58.1352 47.8544 58.1773C47.7503 58.2175 47.6494 58.2653 47.5524 58.3202C47.3727 58.4203 47.2067 58.5429 47.0585 58.685C46.9294 58.8094 46.8147 58.9476 46.7164 59.0971C46.5738 59.3163 46.4664 59.556 46.3979 59.8077C46.349 59.9871 46.3326 60.0904 46.3184 60.0889C46.3042 60.0874 46.2992 59.9818 46.3285 59.7927C46.3723 59.5237 46.4664 59.2651 46.6057 59.0301C46.8153 58.677 47.113 58.3831 47.4703 58.1767C47.6813 58.0543 47.9095 57.9635 48.1472 57.9071C48.2731 57.8775 48.4011 57.858 48.5301 57.8488C48.6629 57.8397 48.7963 57.8407 48.9289 57.8518C49.0616 57.864 49.1931 57.8864 49.3223 57.9188C49.4481 57.9497 49.5711 57.9907 49.6901 58.0414C49.8044 58.0903 49.9145 58.1482 50.0195 58.2145C50.1205 58.2771 50.2165 58.3474 50.3067 58.4247C50.472 58.5674 50.6172 58.7316 50.7383 58.9128C50.8431 59.0689 50.9289 59.2367 50.9938 59.4129C51.0892 59.6685 51.1357 59.9395 51.131 60.212C51.127 60.4039 51.1 60.507 51.089 60.5057Z" fill="#F38D5D"/>
<path d="M19.5679 16.286C19.8095 16.8524 19.8764 17.4789 19.7602 18.0864C19.6439 18.6939 19.3497 19.255 18.9148 19.6987C18.4798 20.1425 17.9237 20.4488 17.3169 20.5791C16.71 20.7094 16.0796 20.6577 15.5055 20.4306C14.9314 20.2035 14.4393 19.8112 14.0916 19.3033C13.744 18.7954 13.5562 18.1948 13.5522 17.5774C13.5482 16.9601 13.7281 16.3538 14.0692 15.8352C14.4102 15.3166 14.8971 14.9091 15.4682 14.6643C15.8467 14.5014 16.253 14.4142 16.6639 14.4076C17.0748 14.4009 17.4823 14.4751 17.863 14.6257C18.2438 14.7763 18.5903 15.0004 18.8828 15.2853C19.1754 15.5702 19.4081 15.9103 19.5679 16.286Z" fill="#F9C0A8"/>
<path d="M18.8809 16.5815C19.065 17.0131 19.1159 17.4906 19.0273 17.9536C18.9387 18.4165 18.7144 18.8441 18.3829 19.1822C18.0515 19.5203 17.6277 19.7538 17.1652 19.853C16.7027 19.9522 16.2223 19.9128 15.7848 19.7397C15.3473 19.5665 14.9724 19.2675 14.7075 18.8804C14.4425 18.4933 14.2996 18.0356 14.2966 17.5651C14.2936 17.0947 14.4308 16.6326 14.6908 16.2375C14.9508 15.8424 15.3219 15.5319 15.7571 15.3454C16.0455 15.2213 16.3552 15.1549 16.6683 15.1499C16.9814 15.1449 17.2919 15.2014 17.5819 15.3162C17.872 15.431 18.1361 15.6018 18.3589 15.8189C18.5818 16.0361 18.7592 16.2952 18.8809 16.5815Z" fill="#FCD3C3"/>
<path d="M16.6483 16.2251C16.7185 16.1554 16.7205 16.0439 16.6528 15.9759C16.5851 15.908 16.4733 15.9092 16.4032 15.9788L15.3969 16.9772C15.3267 17.0468 15.3247 17.1584 15.3924 17.2263C15.4601 17.2943 15.5719 17.293 15.642 17.2234L15.9305 16.9373C16.0495 16.8187 16.225 16.7787 16.3791 16.8348L15.8149 17.3945C15.7448 17.4641 15.7428 17.5757 15.8104 17.6437C15.8781 17.7117 15.9899 17.7103 16.0601 17.6407L16.6242 17.081C16.6788 17.2353 16.6376 17.4098 16.5188 17.5282L16.2304 17.8143C16.1784 17.8661 16.1622 17.9434 16.1896 18.0094C16.217 18.0755 16.2824 18.117 16.3548 18.1143L17.7298 18.0595C17.775 18.0574 17.8182 18.0382 17.8505 18.0057C17.8853 17.9709 17.905 17.924 17.9053 17.8756C17.9049 17.829 17.8859 17.785 17.8525 17.7534C17.8192 17.7218 17.7741 17.7051 17.7274 17.707L16.7945 17.7442C17.0282 17.4848 17.068 17.108 16.8923 16.8176L17.0664 16.6449C17.1365 16.5753 17.1385 16.4637 17.0708 16.3957C17.0031 16.3277 16.8914 16.329 16.8212 16.3987L16.6471 16.5713C16.5713 16.5247 16.4873 16.4919 16.3993 16.4746L16.6496 16.2263L16.6483 16.2251Z" fill="#F38D5D"/>
<path d="M18.8522 16.5148C18.8385 16.5176 18.7895 16.4294 18.6828 16.2774C18.5341 16.0634 18.3527 15.874 18.1451 15.716C18.0022 15.609 17.8479 15.5177 17.6851 15.4438C17.4977 15.3608 17.3001 15.3021 17.0973 15.2693C16.9883 15.2509 16.878 15.2409 16.7673 15.2393C16.5332 15.2348 16.2994 15.2654 16.0738 15.3301C15.9555 15.3645 15.8398 15.4076 15.7278 15.4591C15.6162 15.512 15.5085 15.5726 15.4055 15.6407C15.3061 15.7077 15.2119 15.7821 15.1238 15.8634C15.0381 15.941 14.9588 16.0254 14.8867 16.1156C14.8167 16.2024 14.7532 16.2943 14.6967 16.3903C14.5911 16.5669 14.5086 16.7561 14.4513 16.9532C14.4017 17.1255 14.3715 17.3025 14.3611 17.4811C14.3472 17.7422 14.374 18.0036 14.4406 18.2558C14.4879 18.4356 14.5254 18.5333 14.5123 18.5391C14.4992 18.5449 14.4421 18.456 14.3729 18.2775C14.2764 18.0227 14.2286 17.7517 14.2318 17.4785C14.2367 17.0679 14.3476 16.6645 14.5538 16.3072C14.6754 16.0956 14.8275 15.9029 15.0052 15.7352C15.0994 15.6466 15.2005 15.5657 15.3076 15.4932C15.4181 15.4189 15.5341 15.3532 15.6545 15.2964C15.7755 15.2406 15.9006 15.1943 16.0287 15.1578C16.1531 15.1216 16.2801 15.0956 16.4086 15.08C16.532 15.0653 16.6563 15.0603 16.7803 15.0652C16.8992 15.069 17.0175 15.0818 17.1341 15.1037C17.3487 15.1447 17.5566 15.2142 17.752 15.3106C17.9208 15.3934 18.0791 15.4958 18.2234 15.6159C18.4337 15.7896 18.6095 16.001 18.7417 16.2394C18.8342 16.4076 18.8624 16.5103 18.8522 16.5148Z" fill="#F38D5D"/>
<path d="M45.3308 65.5169C45.2375 66.2887 44.9151 67.016 44.4045 67.6068C43.8939 68.1976 43.218 68.6254 42.4624 68.836C41.7067 69.0466 40.9053 69.0306 40.1595 68.7899C39.4137 68.5493 38.7571 68.0948 38.2727 67.4841C37.7884 66.8734 37.498 66.1338 37.4385 65.359C37.3789 64.5842 37.5528 63.809 37.9382 63.1315C38.3235 62.4539 38.903 61.9046 39.6032 61.5529C40.3035 61.2012 41.093 61.063 41.872 61.1557C42.3886 61.2166 42.888 61.3777 43.3415 61.6299C43.7949 61.882 44.1937 62.2203 44.5149 62.6253C44.8361 63.0303 45.0735 63.4942 45.2135 63.9903C45.3535 64.4865 45.3934 65.0052 45.3308 65.5169Z" fill="#F9C0A8"/>
<path d="M44.3942 65.4066C44.3231 65.9947 44.0774 66.549 43.6882 66.9992C43.299 67.4494 42.7839 67.7754 42.2081 67.9358C41.6322 68.0963 41.0215 68.084 40.4531 67.9006C39.8848 67.7171 39.3844 67.3707 39.0154 66.9052C38.6463 66.4398 38.4252 65.8761 38.3799 65.2857C38.3346 64.6952 38.4672 64.1045 38.7609 63.5882C39.0547 63.0719 39.4963 62.6533 40.03 62.3854C40.5637 62.1175 41.1655 62.0123 41.7591 62.0831C42.1528 62.1296 42.5332 62.2524 42.8787 62.4446C43.2242 62.6368 43.528 62.8945 43.7728 63.2032C44.0175 63.5118 44.1983 63.8653 44.3049 64.2434C44.4116 64.6214 44.4419 65.0167 44.3942 65.4066Z" fill="#FCD3C3"/>
<path d="M42.1764 63.6069C42.297 63.5751 42.3696 63.4544 42.3385 63.3373C42.3075 63.2203 42.1844 63.1511 42.0637 63.1829L40.3332 63.6393C40.2126 63.6711 40.14 63.7919 40.1711 63.9089C40.2022 64.026 40.3252 64.0951 40.4459 64.0632L40.9418 63.9325C41.1469 63.878 41.364 63.945 41.497 64.1036L40.5269 64.3595C40.4063 64.3913 40.3336 64.5121 40.3647 64.6291C40.3958 64.7462 40.5189 64.8152 40.6395 64.7834L41.6097 64.5276C41.5719 64.7307 41.4168 64.8955 41.2122 64.95L40.7162 65.0808C40.6266 65.1045 40.5601 65.1788 40.5484 65.2683C40.5366 65.3578 40.582 65.4446 40.6628 65.4873L42.2008 66.2953C42.2516 66.3216 42.3109 66.3279 42.3667 66.3128C42.4267 66.2966 42.4779 66.2578 42.5088 66.2051C42.5378 66.1538 42.5447 66.0938 42.5282 66.0382C42.5117 65.9825 42.473 65.9358 42.4207 65.9084L41.3772 65.3602C41.7965 65.2241 42.0779 64.8372 42.0691 64.4088L42.3684 64.3298C42.4891 64.298 42.5617 64.1773 42.5306 64.0602C42.4995 63.9431 42.3765 63.874 42.2558 63.9059L41.9564 63.9848C41.903 63.8859 41.8319 63.7971 41.7465 63.7226L42.1769 63.6091L42.1764 63.6069Z" fill="#F38D5D"/>
<path d="M44.4043 65.3148C44.3876 65.3092 44.3897 65.1818 44.369 64.9484C44.3416 64.6205 44.2628 64.2989 44.1355 63.9951C44.0468 63.7878 43.9357 63.5907 43.8043 63.4071C43.6518 63.1979 43.4729 63.0091 43.2718 62.8452C43.1643 62.7562 43.0499 62.6757 42.9299 62.6041C42.6768 62.4514 42.4018 62.3373 42.1143 62.2656C41.9632 62.2285 41.8095 62.2027 41.6545 62.1882C41.4992 62.1756 41.3432 62.1739 41.1876 62.1833C41.0366 62.1938 40.8866 62.2158 40.739 62.249C40.5963 62.2798 40.4564 62.3219 40.3205 62.3751C40.1892 62.4258 40.0617 62.4861 39.9393 62.5555C39.7124 62.6819 39.5028 62.8367 39.3158 63.016C39.1528 63.1731 39.0079 63.3476 38.8839 63.5363C38.7038 63.8131 38.5682 64.1157 38.4817 64.4335C38.42 64.66 38.3993 64.7904 38.3813 64.7885C38.3633 64.7867 38.3571 64.6534 38.394 64.4145C38.4494 64.075 38.5681 63.7485 38.7441 63.4518C39.0086 63.0059 39.3845 62.6349 39.8356 62.3744C40.1021 62.2198 40.3901 62.1051 40.6903 62.0339C40.8492 61.9965 41.0108 61.9719 41.1737 61.9603C41.3414 61.9488 41.5097 61.9501 41.6772 61.9641C41.8447 61.9795 42.0108 62.0078 42.1738 62.0487C42.3326 62.0877 42.488 62.1395 42.6383 62.2035C42.7825 62.2653 42.9215 62.3384 43.0541 62.422C43.1816 62.5011 43.3029 62.5898 43.4166 62.6874C43.6254 62.8677 43.8087 63.0749 43.9616 63.3037C44.0939 63.5007 44.2022 63.7127 44.2842 63.935C44.4045 64.2577 44.4633 64.5999 44.4574 64.944C44.4523 65.1863 44.4183 65.3164 44.4043 65.3148Z" fill="#F38D5D"/>
<g clip-path="url(#clip0_7_67730)">
<path d="M65.8012 27.9955L52.7627 27.366L51.8086 46.8007L64.8471 47.4303L65.8012 27.9955Z" fill="white" stroke="#263238" stroke-width="0.114759" stroke-linecap="round" stroke-linejoin="round"/>
<path d="M53.6756 28.7368L57.0696 28.8939" stroke="#263238" stroke-width="0.229517" stroke-linecap="round" stroke-linejoin="round"/>
<path d="M53.6448 29.3834L55.9531 29.4894" stroke="#263238" stroke-width="0.229517" stroke-linecap="round" stroke-linejoin="round"/>
<path d="M54.3995 30.947L64.1618 31.3976" stroke="#263238" stroke-width="0.229517" stroke-linecap="round" stroke-linejoin="round"/>
<path d="M54.37 31.5915L64.132 32.0436" stroke="#263238" stroke-width="0.229517" stroke-linecap="round" stroke-linejoin="round"/>
<path d="M54.3353 32.3453L62.6604 32.7308" stroke="#263238" stroke-width="0.229517" stroke-linecap="round" stroke-linejoin="round"/>
<path d="M55.1391 33.0711L54.3452 33.0344L54.3082 33.8218L55.1022 33.8585L55.1391 33.0711Z" stroke="#263238" stroke-width="0.114759" stroke-linecap="round" stroke-linejoin="round"/>
<path d="M56.5766 33.1368L55.7827 33.1001L55.7457 33.8875L56.5397 33.9241L56.5766 33.1368Z" stroke="#263238" stroke-width="0.114759" stroke-linecap="round" stroke-linejoin="round"/>
<path d="M58.0176 33.2037L57.2236 33.167L57.1867 33.9544L57.9806 33.991L58.0176 33.2037Z" stroke="#263238" stroke-width="0.114759" stroke-linecap="round" stroke-linejoin="round"/>
<path d="M59.456 33.2696L58.6621 33.2329L58.6251 34.0203L59.4191 34.0569L59.456 33.2696Z" stroke="#263238" stroke-width="0.114759" stroke-linecap="round" stroke-linejoin="round"/>
<path d="M53.8814 30.9216C53.88 30.9609 53.8667 30.9989 53.8435 31.0307C53.8202 31.0625 53.7879 31.0868 53.7507 31.1003C53.7134 31.1139 53.673 31.1162 53.6345 31.1069C53.596 31.0976 53.5611 31.0772 53.5343 31.0482C53.5075 31.0192 53.49 30.9829 53.4841 30.944C53.4781 30.9052 53.484 30.8654 53.5009 30.8298C53.5178 30.7943 53.5449 30.7645 53.5789 30.7443C53.6129 30.7241 53.6522 30.7143 53.6918 30.7163C53.7443 30.719 53.7936 30.742 53.8291 30.7804C53.8646 30.8188 53.8834 30.8695 53.8814 30.9216Z" fill="#263238"/>
<path d="M54.2228 34.7153L63.985 35.1659" stroke="#263238" stroke-width="0.229517" stroke-linecap="round" stroke-linejoin="round"/>
<path d="M54.1932 35.3603L63.9553 35.8124" stroke="#263238" stroke-width="0.229517" stroke-linecap="round" stroke-linejoin="round"/>
<path d="M54.1578 36.1158L62.4832 36.4998" stroke="#263238" stroke-width="0.229517" stroke-linecap="round" stroke-linejoin="round"/>
<path d="M54.9619 36.8394L54.168 36.8027L54.131 37.5901L54.9249 37.6268L54.9619 36.8394Z" stroke="#263238" stroke-width="0.114759" stroke-linecap="round" stroke-linejoin="round"/>
<path d="M56.4004 36.9063L55.6064 36.8696L55.5695 37.657L56.3634 37.6937L56.4004 36.9063Z" stroke="#263238" stroke-width="0.114759" stroke-linecap="round" stroke-linejoin="round"/>
<path d="M57.8398 36.9732L57.0459 36.9365L57.0089 37.7239L57.8029 37.7606L57.8398 36.9732Z" stroke="#263238" stroke-width="0.114759" stroke-linecap="round" stroke-linejoin="round"/>
<path d="M59.2788 37.0389L58.4849 37.0022L58.4479 37.7896L59.2418 37.8262L59.2788 37.0389Z" stroke="#263238" stroke-width="0.114759" stroke-linecap="round" stroke-linejoin="round"/>
<path d="M53.7046 34.6922C53.7028 34.7314 53.6894 34.7692 53.6659 34.8008C53.6424 34.8325 53.61 34.8564 53.5728 34.8698C53.5355 34.8831 53.4951 34.8852 53.4567 34.8757C53.4183 34.8662 53.3836 34.8456 53.357 34.8166C53.3304 34.7875 53.313 34.7513 53.3072 34.7124C53.3014 34.6736 53.3074 34.6339 53.3243 34.5984C53.3413 34.563 53.3685 34.5333 53.4025 34.5131C53.4364 34.493 53.4757 34.4833 53.5152 34.4854C53.5679 34.4881 53.6174 34.5113 53.6529 34.5501C53.6884 34.5888 53.707 34.6399 53.7046 34.6922Z" fill="#263238"/>
<path d="M54.0457 38.4833L63.8078 38.9354" stroke="#263238" stroke-width="0.229517" stroke-linecap="round" stroke-linejoin="round"/>
<path d="M54.0152 39.1306L63.776 39.581" stroke="#263238" stroke-width="0.229517" stroke-linecap="round" stroke-linejoin="round"/>
<path d="M53.9801 39.8846L62.3055 40.2686" stroke="#263238" stroke-width="0.229517" stroke-linecap="round" stroke-linejoin="round"/>
<path d="M54.7851 40.6075L53.9912 40.5708L53.9542 41.3582L54.7482 41.3948L54.7851 40.6075Z" stroke="#263238" stroke-width="0.114759" stroke-linecap="round" stroke-linejoin="round"/>
<path d="M56.2236 40.6744L55.4297 40.6377L55.3927 41.4251L56.1866 41.4617L56.2236 40.6744Z" stroke="#263238" stroke-width="0.114759" stroke-linecap="round" stroke-linejoin="round"/>
<path d="M57.6636 40.7427L56.8696 40.7061L56.8327 41.4934L57.6266 41.5301L57.6636 40.7427Z" stroke="#263238" stroke-width="0.114759" stroke-linecap="round" stroke-linejoin="round"/>
<path d="M59.1015 40.8084L58.3076 40.7717L58.2706 41.5591L59.0646 41.5958L59.1015 40.8084Z" stroke="#263238" stroke-width="0.114759" stroke-linecap="round" stroke-linejoin="round"/>
<path d="M53.5274 38.4603C53.5256 38.4995 53.5121 38.5373 53.4886 38.5689C53.4652 38.6005 53.4328 38.6245 53.3955 38.6378C53.3583 38.6512 53.3179 38.6532 53.2795 38.6437C53.2411 38.6343 53.2063 38.6137 53.1797 38.5846C53.1531 38.5556 53.1358 38.5193 53.13 38.4805C53.1242 38.4417 53.1301 38.402 53.1471 38.3665C53.164 38.331 53.1912 38.3013 53.2252 38.2812C53.2592 38.2611 53.2985 38.2514 53.338 38.2534C53.3907 38.2561 53.4402 38.2794 53.4757 38.3181C53.5111 38.3569 53.5297 38.408 53.5274 38.4603Z" fill="#263238"/>
<path d="M53.8646 42.3593L63.6251 42.8112" stroke="#263238" stroke-width="0.229517" stroke-linecap="round" stroke-linejoin="round"/>
<path d="M53.8338 43.0065L63.5943 43.4584" stroke="#263238" stroke-width="0.229517" stroke-linecap="round" stroke-linejoin="round"/>
<path d="M53.7967 43.7598L62.1219 44.1453" stroke="#263238" stroke-width="0.229517" stroke-linecap="round" stroke-linejoin="round"/>
<path d="M54.604 44.4847L53.8101 44.448L53.7731 45.2354L54.567 45.272L54.604 44.4847Z" stroke="#263238" stroke-width="0.114759" stroke-linecap="round" stroke-linejoin="round"/>
<path d="M56.0415 44.5511L55.2476 44.5144L55.2106 45.3018L56.0045 45.3384L56.0415 44.5511Z" stroke="#263238" stroke-width="0.114759" stroke-linecap="round" stroke-linejoin="round"/>
<path d="M57.4805 44.6175L56.6865 44.5808L56.6495 45.3682L57.4435 45.4048L57.4805 44.6175Z" stroke="#263238" stroke-width="0.114759" stroke-linecap="round" stroke-linejoin="round"/>
<path d="M58.9209 44.6832L58.127 44.6465L58.09 45.4339L58.8839 45.4705L58.9209 44.6832Z" stroke="#263238" stroke-width="0.114759" stroke-linecap="round" stroke-linejoin="round"/>
<path d="M53.3511 42.3371C53.3494 42.3759 53.3361 42.4134 53.3128 42.4447C53.2896 42.4761 53.2576 42.4999 53.2207 42.5131C53.1839 42.5264 53.1439 42.5286 53.1058 42.5193C53.0677 42.51 53.0333 42.4898 53.0068 42.4611C52.9803 42.4325 52.963 42.3966 52.957 42.3582C52.9511 42.3198 52.9567 42.2805 52.9733 42.2452C52.9898 42.21 53.0166 42.1804 53.0501 42.1602C53.0836 42.14 53.1224 42.1301 53.1615 42.1318C53.1876 42.1329 53.2132 42.1391 53.2368 42.15C53.2604 42.161 53.2817 42.1764 53.2993 42.1955C53.3169 42.2145 53.3305 42.2369 53.3394 42.2612C53.3483 42.2855 53.3523 42.3113 53.3511 42.3371Z" fill="#263238"/>
<path d="M54.6139 33.3618L54.7181 33.5362L55.1385 33.0719" stroke="#263238" stroke-width="0.229517" stroke-linecap="round" stroke-linejoin="round"/>
<path d="M57.318 37.2158L57.4219 37.3917L57.8426 36.9259" stroke="#263238" stroke-width="0.229517" stroke-linecap="round" stroke-linejoin="round"/>
<path d="M55.6969 40.9961L55.8024 41.1722L56.2215 40.7061" stroke="#263238" stroke-width="0.229517" stroke-linecap="round" stroke-linejoin="round"/>
<path d="M58.3766 44.9734L58.4805 45.1493L58.9012 44.6834" stroke="#263238" stroke-width="0.229517" stroke-linecap="round" stroke-linejoin="round"/>
</g>
<path opacity="0.2" d="M53.3372 48.5396C53.3372 48.5396 53.3215 55.9614 53.3372 56.3942C53.3529 56.827 53.9265 59.4336 53.9265 59.4336L52.1016 62.7563L53.6731 64.0062L56.7278 61.0386C56.7278 61.0386 59.3287 62.6263 59.804 64.8971C60.2794 67.1679 63.1102 68.8215 66.047 75.1098C68.9838 81.3982 72.3331 61.0386 72.3331 61.0386L63.2712 49.7681L53.3372 48.5396Z" fill="black" fill-opacity="0.7"/>
<path d="M80.6459 77.5585L66.6986 79.9031C66.6986 79.9031 64.2705 67.1614 62.8228 65.1526C61.375 63.1438 61.6441 62.319 60.9369 60.9662C60.5126 60.1491 58.3832 58.6255 56.7154 57.1214C56.57 56.9913 56.4286 56.8613 56.293 56.7332C56.2341 56.6808 56.1791 56.6245 56.1241 56.5721C55.9021 56.3547 55.6958 56.1432 55.5132 55.9355C55.4464 55.8617 55.3809 55.788 55.3167 55.7142C55.007 55.3736 54.7764 54.9702 54.641 54.5323C54.635 54.5127 54.631 54.4925 54.6292 54.4721C54.6235 54.4485 54.6195 54.4245 54.6174 54.4003C54.5801 54.0995 54.5408 53.7559 54.5015 53.3833C54.5015 53.3095 54.4858 53.2319 54.4759 53.1543L54.4642 53.0611C54.4308 52.7506 54.3934 52.4206 54.3502 52.081C54.307 51.7413 54.2599 51.357 54.2049 50.9863C54.1872 50.8582 54.1695 50.7301 54.1479 50.5982C54.1263 50.4545 54.1027 50.3109 54.0791 50.1653L54.0143 49.7927C54.0143 49.7713 54.0045 49.7519 54.0025 49.7345L53.9239 49.2978C53.9186 49.2821 53.9153 49.2658 53.9141 49.2493C53.8866 49.1231 53.8611 48.9989 53.8316 48.8727C53.7707 48.5913 53.702 48.3157 53.6352 48.0479C53.4999 47.5438 53.3259 47.0507 53.1146 46.5728C52.1088 44.3544 53.4171 45.156 52.6294 39.448C52.6294 39.448 53.2089 38.1243 54.861 39.1821C54.9886 39.2644 55.1119 39.3531 55.2303 39.448C55.5651 39.7155 55.8606 40.0277 56.1084 40.3757C56.4443 40.8494 56.7003 41.3738 56.8666 41.9284C57.1367 42.8279 57.2129 43.7733 57.0906 44.7038C57.0906 44.7038 58.3321 48.9077 58.9862 49.8645C59.6404 50.8214 62.3454 45.3249 62.1706 44.6844C62.1092 44.3971 62.0626 44.1069 62.0311 43.8149C62.0193 43.7198 62.0075 43.6208 61.9938 43.5121C61.98 43.4034 61.9682 43.2947 61.9564 43.1802C61.9564 43.1259 61.9427 43.0676 61.9348 43.0114C61.9348 42.9881 61.9348 42.9648 61.9348 42.9434C61.9113 42.7241 61.8838 42.4912 61.8582 42.2505C61.8582 42.1826 61.8445 42.1186 61.8366 42.0565L61.8013 41.7071C61.8001 41.6877 61.8001 41.6683 61.8013 41.6489C61.8013 41.5829 61.7855 41.515 61.7796 41.4451C61.7639 41.3092 61.7502 41.1714 61.7364 41.0336C61.7227 40.8958 61.7129 40.7969 61.7011 40.6785C61.6775 40.4553 61.6559 40.2321 61.6343 40.0166C61.6186 39.8555 61.6028 39.6964 61.5891 39.5411C61.5891 39.5062 61.5891 39.4712 61.5793 39.4383C61.4968 38.5843 61.4319 37.8856 61.4084 37.5828C61.4084 37.5828 59.444 34.7065 59.2475 33.3517C59.0511 31.997 59.0629 30.5705 59.886 29.9902C61.8347 28.6199 61.261 30.8286 62.1372 31.737C63.0133 32.6453 64.3471 34.1494 65.1054 34.6172C65.8047 35.0558 66.4294 36.7521 66.5178 37.0083C66.4176 36.6357 65.4177 32.9713 65.3961 32.2338C65.3706 31.4575 64.7695 27.3506 65.789 25.8775C66.8086 24.4044 68.1679 25.5476 68.2937 25.8387C68.4194 26.1298 68.4567 30.1086 68.8162 31.2149C69.1757 32.3211 70.6804 36.9346 70.6804 36.9346C70.6804 36.9346 70.7433 32.4473 71.0831 30.4385C71.423 28.4297 72.305 26.8596 73.1693 26.7703C74.0337 26.681 74.8332 27.6223 74.8332 27.6223C74.8332 27.6223 74.4914 30.8248 74.5896 31.5642C74.6878 32.3037 74.4482 34.9743 74.8587 36.4163C74.8587 36.4163 74.8116 32.5909 75.4127 32.1018C76.0138 31.6127 76.5305 31.3779 76.8683 31.7137C77.2062 32.0494 77.2789 34.3086 77.6227 35.6711C77.9664 37.0335 77.9232 38.8851 78.1491 41.0103C78.375 43.1356 79.2649 46.0857 79.0881 47.7723C78.9113 49.4589 78.3672 53.6414 77.9291 56.0966C77.4911 58.5518 76.3733 61.9191 76.3733 61.9191C76.3733 61.9191 76.8821 63.7144 76.7839 65.3156C76.6856 66.9168 80.6459 77.5585 80.6459 77.5585Z" fill="white"/>
<path opacity="0.8" d="M68.7926 31.2116C69.0598 32.0325 69.9516 34.773 70.3956 36.1413C70.3956 36.1413 68.4469 37.5562 68.496 38.8721C68.5451 40.188 68.1385 42.8431 67.2623 42.7674C66.3862 42.6917 66.4766 37.1661 66.1799 36.2384C66.3587 36.6265 66.4726 36.9623 66.4962 37.0264C66.4314 36.7876 65.3902 32.9855 65.3686 32.2324C65.3686 32.0539 65.3274 31.7026 65.2861 31.2465V31.2368C65.2861 31.2368 67.223 29.4046 68.6453 30.5264C68.6771 30.7581 68.7263 30.9871 68.7926 31.2116Z" fill="#FFE4C8"/>
<path opacity="0.8" d="M74.5841 32.8016C73.6765 33.6536 72.3073 35.1558 72.1345 36.6056C72.1345 36.6056 72.6413 40.6543 72.4252 42.4185L70.6572 36.9433C70.6572 36.9433 70.7201 32.4561 71.0599 30.4473L71.0894 30.2823C72.1928 29.7268 73.4106 29.4293 74.6489 29.4128C74.573 30.127 74.5474 30.8456 74.5723 31.5633C74.5984 31.9756 74.6023 32.3889 74.5841 32.8016Z" fill="#FFE4C8"/>
<path opacity="0.4" d="M75.3871 32.0944C75.3655 32.1099 75.3125 32.1507 75.2358 32.2167C75.2821 32.1292 75.3333 32.0443 75.3891 31.9624L75.3871 32.0944Z" fill="#92E3A9"/>
<path opacity="0.8" d="M75.8495 43.2818C75.8495 43.2818 74.6826 38.9576 74.6709 35.4757C74.661 34.187 74.8123 33.0128 75.2346 32.219C75.2809 32.1315 75.3321 32.0466 75.3879 31.9647V32.0909C75.5981 31.9095 75.832 31.7568 76.0833 31.6367C75.7552 32.1413 75.378 33.1292 75.8141 34.7421C76.4997 37.2535 75.9025 40.324 75.8495 43.2818Z" fill="#FFE4C8"/>
<path opacity="0.8" d="M59.7539 51.5287C59.7539 51.5287 60.0663 55.6492 56.715 57.1242C56.5696 56.9942 56.4282 56.8641 56.2926 56.736C56.2337 56.6836 56.1787 56.6273 56.1237 56.5749C55.9017 56.3576 55.6955 56.1441 55.5128 55.9383C55.444 55.8626 55.3831 55.7889 55.3163 55.7171C55.0066 55.3764 54.776 54.973 54.6406 54.5351C54.6348 54.5155 54.6308 54.4953 54.6288 54.4749C54.6231 54.4513 54.6192 54.4273 54.617 54.4031C54.5797 54.1023 54.5404 53.7588 54.5011 53.3861C54.5011 53.3124 54.4854 53.2347 54.4756 53.1571L54.4638 53.0639C54.4304 52.7515 54.3931 52.4235 54.3498 52.0838C54.3066 51.7442 54.2595 51.3599 54.2045 50.9892C54.1848 50.8611 54.1671 50.731 54.1475 50.601C54.1259 50.4574 54.1023 50.3118 54.0787 50.1682L54.0139 49.7955L54.0021 49.7373C53.9746 49.5918 53.9491 49.4501 53.9196 49.3064C53.9154 49.2905 53.9121 49.2743 53.9098 49.2579C53.8823 49.1318 53.8568 49.0056 53.8273 48.8814C53.7644 48.6 53.6957 48.3244 53.6309 48.0565C54.9568 46.795 58.0174 47.5869 56.5362 44.6659C56.5362 44.6659 57.2827 42.166 55.226 39.4566C56.6325 40.5765 57.3534 42.5465 57.0863 44.6969C57.0863 44.6969 58.3278 48.8989 58.9819 49.8576C59.6361 50.8164 62.3411 45.318 62.1663 44.6756C62.1048 44.389 62.0589 44.0994 62.0287 43.808C62.015 43.7129 62.0032 43.6139 61.9914 43.5052C61.9796 43.3965 61.9639 43.2879 61.9521 43.1714C61.9521 43.119 61.9384 43.0608 61.9305 43.0045C61.9305 42.9812 61.9305 42.9579 61.9305 42.9366C61.907 42.7153 61.8814 42.4843 61.8539 42.2417C61.8539 42.1758 61.8402 42.1117 61.8323 42.0477C61.8323 41.9312 61.8087 41.8148 61.7969 41.6983C61.7959 41.6789 61.7959 41.6595 61.7969 41.6401C61.7969 41.5741 61.7812 41.5062 61.7753 41.4363C61.7596 41.2985 61.7478 41.1626 61.7321 41.0248L61.6968 40.6677C61.6732 40.4465 61.6516 40.2233 61.63 40.0078C61.6162 39.8448 61.6005 39.6856 61.5848 39.5323C61.5848 39.4974 61.5848 39.4624 61.575 39.4294C61.63 39.6837 62.6259 44.367 63.1936 45.4597C63.7614 46.5815 61.2901 52.4991 59.7539 51.5287Z" fill="#FFE4C8"/>
<path opacity="0.8" d="M77.9037 56.0912C77.4657 58.5484 76.3479 61.9138 76.3479 61.9138C76.3479 61.9138 76.8567 63.7091 76.7585 65.3103C76.731 65.7411 77.0021 66.828 77.4067 68.1886C77.2908 67.8897 76.0317 64.6834 76.0592 63.5635C76.0827 62.399 75.7448 62.0671 75.0769 60.6251C74.409 59.183 73.4052 59.3402 73.4052 59.3402C73.4052 59.3402 73.0123 62.9386 72.1009 60.5746C71.1894 58.2106 71.0106 55.4605 73.3149 45.9115C73.3149 45.9115 73.6626 47.109 73.3718 50.6666C73.0811 54.2241 73.9415 55.3013 73.9415 55.3013C75.2372 53.0713 76.2656 50.6998 77.006 48.2347C77.006 48.2347 76.7074 52.3861 76.4422 54.2765C76.177 56.1669 77.3871 52.0853 78.2318 49.5641C79.0176 47.1963 79.0549 46.2977 78.7524 44.613C78.9763 45.7989 79.1453 46.9304 79.0588 47.7572C78.886 49.4419 78.3418 53.6283 77.9037 56.0912Z" fill="#FFE4C8"/>
<path opacity="0.8" d="M62.1431 64.0857C62.8228 65.1551 64.4866 66.5661 65.4826 70.4692C66.4785 74.3722 65.8499 78.644 65.8499 78.644L62.1431 64.0857Z" fill="#FFE4C8"/>
<path opacity="0.8" d="M56.7949 41.9309C56.7949 41.9309 53.3159 43.6777 53.0409 46.589C52.0351 44.3706 53.3434 45.1721 52.5557 39.4641C52.5557 39.4641 53.1352 38.1404 54.7872 39.1982C54.9149 39.2805 55.0382 39.3692 55.1565 39.4641C55.4914 39.7316 55.7869 40.0439 56.0346 40.3918L56.7949 41.9309Z" fill="#FFE4C8" fill-opacity="0.7"/>
<path d="M66.6986 79.9037C66.6986 79.9037 64.2726 67.162 62.8228 65.1533C61.3731 63.1445 61.6442 62.3196 60.937 60.9668C60.2298 59.6141 54.861 56.3204 54.6233 54.399C54.3856 52.4776 54.1146 48.7938 53.1068 46.5754C52.0991 44.357 53.4093 45.1586 52.6196 39.4486C52.6196 39.4486 53.209 38.1269 54.8532 39.1847C56.4974 40.2424 57.3735 42.356 57.0848 44.6986C57.0848 44.6986 58.3263 48.9006 58.9824 49.8594C59.6385 50.8181 62.3376 45.3197 62.1647 44.6773C61.9919 44.0349 61.4713 38.5694 61.3888 37.5738C61.3888 37.5738 59.4244 34.6955 59.2279 33.3408C59.0315 31.986 59.0433 30.5595 59.8664 29.9811C61.8151 28.6109 61.2415 30.8196 62.1176 31.7279C62.9937 32.6362 64.3276 34.1365 65.0839 34.6062C65.8402 35.0759 66.5081 37.0264 66.5081 37.0264C66.5081 37.0264 65.3982 33.0011 65.3766 32.2228C65.3549 31.4445 64.7499 27.3396 65.7694 25.8665C66.789 24.3934 68.1483 25.5366 68.2741 25.8277C68.3998 26.1188 68.4371 30.0976 68.7986 31.2019C69.16 32.3063 70.6589 36.9236 70.6589 36.9236C70.6589 36.9236 70.7237 32.4363 71.0635 30.4275C71.4034 28.4188 72.2874 26.8486 73.1498 26.7593C74.0121 26.67 74.8136 27.6114 74.8136 27.6114C74.8136 27.6114 74.4718 30.8138 74.5681 31.5532C74.6643 32.2927 74.4286 34.9614 74.8392 36.4054C74.8392 36.4054 74.792 32.5799 75.3931 32.0908C75.9942 31.6018 76.5109 31.3669 76.8488 31.7027C77.1866 32.0384 77.2593 34.2976 77.6031 35.6601C77.9469 37.0226 77.9056 38.8741 78.1296 40.9994C78.3535 43.1246 79.2453 46.0747 79.0685 47.7593C78.8918 49.444 78.3476 53.6304 77.9076 56.0856C77.4675 58.5408 76.3557 61.9082 76.3557 61.9082C76.3557 61.9082 76.8645 63.7034 76.7643 65.3046C76.6641 66.9059 80.6519 77.565 80.6519 77.565" stroke="#263238" stroke-width="0.114759" stroke-linecap="round" stroke-linejoin="round"/>
<path d="M70.6528 36.9329C71.0595 37.8761 72.0633 41.8568 72.4208 42.4099C72.6026 42.7154 72.8682 42.9637 73.1869 43.1261" stroke="#263238" stroke-width="0.114759" stroke-linecap="round" stroke-linejoin="round"/>
<path d="M74.8329 36.4094C74.8329 36.4094 74.7465 37.2246 75.1924 39.8273C75.6383 42.4299 75.8564 43.5362 76.1078 44.1165" stroke="#263238" stroke-width="0.114759" stroke-linecap="round" stroke-linejoin="round"/>
<path d="M66.5 37.0364C67.0441 38.6221 67.3526 41.149 67.6629 41.9099C67.9733 42.6707 68.2523 42.8279 68.2523 42.8279" stroke="#263238" stroke-width="0.114759" stroke-linecap="round" stroke-linejoin="round"/>
<path d="M67.3804 40.8401C67.7081 41.086 67.9676 41.4098 68.1347 41.7814" stroke="#263238" stroke-width="0.114759" stroke-linecap="round" stroke-linejoin="round"/>
<path d="M58.9819 49.8613C58.9819 49.8613 59.2805 51.9633 60.6124 51.8022" stroke="#263238" stroke-width="0.114759" stroke-linecap="round" stroke-linejoin="round"/>
<path d="M62.1644 44.679C62.1644 44.679 62.5081 47.1788 61.9424 48.2385" stroke="#263238" stroke-width="0.114759" stroke-linecap="round" stroke-linejoin="round"/>
<path d="M72.8173 44.7026C72.8173 44.7026 73.7131 45.2441 73.1139 46.8376C72.5148 48.431 71.4717 54.8397 71.4717 54.8397" stroke="#263238" stroke-width="0.114759" stroke-linecap="round" stroke-linejoin="round"/>
<path d="M76.7169 46.387C77.0921 47.8232 77.1254 47.8601 76.5204 49.6243C75.9154 51.3885 74.9233 55.7031 74.9233 55.7031" stroke="#263238" stroke-width="0.114759" stroke-linecap="round" stroke-linejoin="round"/>
<path d="M76.3492 61.9028C76.3492 61.9028 75.7599 60.7382 76.2471 59.7678" stroke="#263238" stroke-width="0.114759" stroke-linecap="round" stroke-linejoin="round"/>
<path d="M62.8228 65.1553C62.8228 65.1553 64.3039 67.2106 64.9483 69.5105" stroke="#263238" stroke-width="0.114759" stroke-linecap="round" stroke-linejoin="round"/>
<path d="M73.7212 29.1273L74.1219 28.7353L74.3027 28.6848L74.2909 28.8789L73.9235 29.3428L73.7212 29.1273Z" fill="#757575" stroke="#263238" stroke-width="0.114759" stroke-linecap="round" stroke-linejoin="round"/>
<path d="M74.0459 29.3425L73.3937 30.804L55.8711 53.8866L53.9204 52.658L56.5763 49.3741L72.3132 29.8685L73.7021 28.9971C73.7847 29.0204 73.8599 29.0645 73.9201 29.125C73.9804 29.1856 74.0237 29.2605 74.0459 29.3425Z" fill="#20446C"/>
<path opacity="0.3" d="M74.0459 29.3425L73.3937 30.804L55.8711 53.8866L53.9204 52.658L56.5763 49.3741C57.7923 49.2499 57.9966 49.9563 57.9966 49.9563L73.0872 30.4915C72.9379 29.9694 72.3015 29.8685 72.3015 29.8685L73.6903 28.9971C73.7751 29.0186 73.8527 29.0619 73.9151 29.1226C73.9776 29.1832 74.0227 29.2591 74.0459 29.3425Z" fill="black" fill-opacity="0.7"/>
<path d="M74.0459 29.3425L73.3937 30.804L55.8711 53.8866L53.9204 52.658L56.5763 49.3741L72.3132 29.8685L73.7021 28.9971C73.7847 29.0204 73.8599 29.0645 73.9201 29.125C73.9804 29.1856 74.0237 29.2605 74.0459 29.3425Z" stroke="#263238" stroke-width="0.114759" stroke-linecap="round" stroke-linejoin="round"/>
<path d="M61.5871 47.0529C61.5871 47.0529 59.6226 50.8881 57.7486 53.6014L56.4049 53.9449C56.4049 53.9449 53.3208 56.9726 51.4389 58.4826C51.0972 58.273 50.7876 58.0161 50.5195 57.7199C50.5195 57.7199 53.1911 52.6523 56.1476 49.4421C56.4939 49.5648 56.8201 49.7367 57.116 49.9526C57.5004 50.2204 57.8421 50.5436 58.1297 50.9114L61.424 46.8162L61.5871 47.0529Z" fill="#F0792E"/>
<path opacity="0.3" d="M61.5871 47.0522C61.5871 47.0522 59.6227 50.8873 57.7487 53.6006L56.405 53.9441C56.405 53.9441 53.3209 56.9719 51.439 58.4818L51.49 57.6609C53.5311 54.5807 56.1241 51.2211 57.1161 49.9518C57.5005 50.2196 57.8422 50.5428 58.1298 50.9106L56.2989 53.325L57.3479 53.1309L61.4241 46.8076L61.5871 47.0522Z" fill="black" fill-opacity="0.7"/>
<path d="M61.5871 47.0529C61.5871 47.0529 59.6226 50.8881 57.7486 53.6014L56.4049 53.9449C56.4049 53.9449 53.3208 56.9726 51.4389 58.4826C51.0972 58.273 50.7876 58.0161 50.5195 57.7199C50.5195 57.7199 53.1911 52.6523 56.1476 49.4421C56.4939 49.5648 56.8201 49.7367 57.116 49.9526C57.5004 50.2204 57.8421 50.5436 58.1297 50.9114L61.424 46.8162L61.5871 47.0529Z" stroke="#263238" stroke-width="0.114759" stroke-linecap="round" stroke-linejoin="round"/>
<path d="M68.2503 42.8272L62.7755 48.0675L61.9014 48.9098C62.5005 47.3882 62.2098 45.0281 62.1724 44.7506C62.1729 44.7422 62.1729 44.7338 62.1724 44.7254C62.1736 44.7112 62.1736 44.6969 62.1724 44.6827C62.111 44.3961 62.0651 44.1065 62.0349 43.8151C62.0212 43.72 62.0094 43.621 61.9976 43.5123C61.9858 43.4036 61.9701 43.295 61.9583 43.1785C61.9583 43.1261 61.9446 43.0679 61.9367 43.0116C61.9367 42.9883 61.9367 42.965 61.9367 42.9437C61.9131 42.7243 61.8856 42.4914 61.8601 42.2488C61.8601 42.1828 61.8464 42.1188 61.8385 42.0548C61.8385 41.9383 61.8149 41.8219 61.8031 41.7054C61.8021 41.686 61.8021 41.6666 61.8031 41.6472C61.8031 41.5812 61.7874 41.5133 61.7815 41.4434C61.7658 41.3056 61.754 41.1697 61.7383 41.0319L61.7029 40.6748C61.6794 40.4536 61.6578 40.2304 61.6362 40.0149C61.6204 39.8519 61.6047 39.6947 61.591 39.5394C61.591 39.5045 61.591 39.4695 61.5812 39.4365C61.4987 38.5826 61.4338 37.8839 61.4102 37.5811C61.4102 37.5811 59.4458 34.7047 59.2494 33.3481C59.0529 31.9914 59.0647 30.5668 59.8878 29.9885C61.8365 28.6182 61.2629 30.8269 62.1391 31.7352C63.0152 32.6436 64.349 34.1477 65.1073 34.6155C65.8655 35.0832 66.5295 37.0357 66.5295 37.0357C67.0737 38.6214 67.3821 41.1464 67.6925 41.9092C68.0028 42.6719 68.2503 42.8272 68.2503 42.8272Z" fill="white"/>
<path d="M67.3804 40.8401C67.7081 41.086 67.9676 41.4098 68.1347 41.7814" stroke="#263238" stroke-width="0.114759" stroke-linecap="round" stroke-linejoin="round"/>
<path opacity="0.8" d="M62.1092 31.7361C62.9775 32.6522 64.3113 34.1389 65.0696 34.6125C64.9635 34.5601 63.5668 33.8885 62.7869 34.6357C61.9756 35.4121 61.3883 37.5761 61.3883 37.5761C61.3883 37.5761 59.4239 34.6998 59.2274 33.3431C59.031 31.9865 59.0428 30.5619 59.8659 29.9835C61.8067 28.6133 61.237 30.822 62.1092 31.7361Z" fill="#FFE4C8"/>
<path opacity="0.8" d="M62.7754 48.0716L61.9012 48.9101C62.5004 47.3884 62.2097 45.0284 62.1723 44.7508C62.1747 44.7282 62.1747 44.7055 62.1723 44.6829C62.1109 44.3963 62.065 44.1067 62.0348 43.8153C62.0211 43.7202 62.0093 43.6212 61.9975 43.5126C61.9857 43.4039 61.97 43.2952 61.9582 43.1787C61.9582 43.1263 61.9445 43.0681 61.9366 43.0118C61.9366 42.9885 61.9366 42.9652 61.9366 42.9439C61.913 42.7226 61.8875 42.4917 61.86 42.2491C61.86 42.1831 61.8463 42.119 61.8384 42.055C61.8384 41.9385 61.8148 41.8221 61.803 41.7056C61.802 41.6862 61.802 41.6668 61.803 41.6474C61.803 41.5814 61.7873 41.5135 61.7814 41.4436C61.7657 41.3058 61.7539 41.1699 61.7382 41.0321L61.7028 40.675C61.6793 40.4538 61.6577 40.2306 61.6361 40.0151C61.6223 39.8521 61.6066 39.693 61.5909 39.5396C61.5909 39.5047 61.5909 39.4698 61.5811 39.4368C61.6361 39.691 62.632 44.3743 63.1997 45.467C63.3922 45.8746 63.1938 46.9382 62.7754 48.0716Z" fill="#FFE4C8"/>
<path d="M68.2503 42.8276C68.2503 42.8276 67.9733 42.6704 67.661 41.9096C67.3486 41.1488 67.0422 38.6218 66.4981 37.0361C66.4981 37.0361 65.8321 35.0953 65.0739 34.6159C64.3156 34.1365 62.9798 32.6537 62.1076 31.7376C61.2354 30.8215 61.8051 28.6128 59.8564 29.9908C59.0333 30.5731 59.0176 31.9957 59.2179 33.3505C59.4183 34.7052 61.3788 37.5835 61.3788 37.5835C61.4613 38.5791 61.9799 44.0465 62.1547 44.687" stroke="#263238" stroke-width="0.114759" stroke-linecap="round" stroke-linejoin="round"/>
<path d="M62.1644 44.679C62.1644 44.679 62.5081 47.1788 61.9424 48.2385" stroke="#263238" stroke-width="0.114759" stroke-linecap="round" stroke-linejoin="round"/>
<path opacity="0.2" d="M28.5646 47.7454C28.5646 47.7454 29.8081 53.4495 27.1148 57.601C24.4216 61.7525 22.3492 62.8568 21.418 64.0951C20.4869 65.3334 16.835 72.2486 16.835 72.2486L12.5723 59.7786L16.835 44.3469L28.5646 47.7454Z" fill="black" fill-opacity="0.7"/>
<g clip-path="url(#clip1_7_67730)">
<path d="M25.619 24.4072L13.5195 29.2664L20.8837 47.3015L32.9832 42.4424L25.619 24.4072Z" fill="white" stroke="#263238" stroke-width="0.114759" stroke-linecap="round" stroke-linejoin="round"/>
<path d="M14.9282 30.1294L18.0749 28.8583" stroke="#263238" stroke-width="0.229517" stroke-linecap="round" stroke-linejoin="round"/>
<path d="M15.174 30.7285L17.3137 29.8633" stroke="#263238" stroke-width="0.229517" stroke-linecap="round" stroke-linejoin="round"/>
<path d="M16.5218 31.8332L25.5723 28.1761" stroke="#263238" stroke-width="0.229517" stroke-linecap="round" stroke-linejoin="round"/>
<path d="M16.7675 32.4308L25.8184 28.7752" stroke="#263238" stroke-width="0.229517" stroke-linecap="round" stroke-linejoin="round"/>
<path d="M17.0552 33.1301L24.7739 30.0126" stroke="#263238" stroke-width="0.229517" stroke-linecap="round" stroke-linejoin="round"/>
<path d="M18.092 33.4531L17.356 33.7505L17.6558 34.4805L18.3919 34.1831L18.092 33.4531Z" stroke="#263238" stroke-width="0.114759" stroke-linecap="round" stroke-linejoin="round"/>
<path d="M19.4245 32.9143L18.6885 33.2117L18.9883 33.9416L19.7244 33.6442L19.4245 32.9143Z" stroke="#263238" stroke-width="0.114759" stroke-linecap="round" stroke-linejoin="round"/>
<path d="M20.7605 32.3745L20.0244 32.6719L20.3243 33.4018L21.0603 33.1045L20.7605 32.3745Z" stroke="#263238" stroke-width="0.114759" stroke-linecap="round" stroke-linejoin="round"/>
<path d="M22.0935 31.8349L21.3574 32.1323L21.6573 32.8623L22.3933 32.5649L22.0935 31.8349Z" stroke="#263238" stroke-width="0.114759" stroke-linecap="round" stroke-linejoin="round"/>
<path d="M16.0401 32.0262C16.0554 32.0625 16.0595 32.1024 16.0519 32.141C16.0442 32.1796 16.0251 32.215 15.9971 32.2428C15.9691 32.2707 15.9334 32.2896 15.8945 32.2972C15.8556 32.3048 15.8153 32.3008 15.7787 32.2856C15.7421 32.2705 15.7109 32.2448 15.689 32.212C15.6672 32.1792 15.6556 32.1407 15.6559 32.1014C15.6561 32.0621 15.6682 32.0237 15.6905 31.9912C15.7128 31.9587 15.7443 31.9335 15.7811 31.9188C15.8299 31.8994 15.8843 31.8998 15.9328 31.9198C15.9813 31.9399 16.0198 31.9781 16.0401 32.0262Z" fill="#263238"/>
<path d="M17.9564 35.3275L27.0068 31.6705" stroke="#263238" stroke-width="0.229517" stroke-linecap="round" stroke-linejoin="round"/>
<path d="M18.2025 35.9252L27.2534 32.2696" stroke="#263238" stroke-width="0.229517" stroke-linecap="round" stroke-linejoin="round"/>
<path d="M18.4902 36.6245L26.2084 33.5055" stroke="#263238" stroke-width="0.229517" stroke-linecap="round" stroke-linejoin="round"/>
<path d="M19.5266 36.9463L18.7905 37.2437L19.0904 37.9736L19.8264 37.6762L19.5266 36.9463Z" stroke="#263238" stroke-width="0.114759" stroke-linecap="round" stroke-linejoin="round"/>
<path d="M20.8601 36.4087L20.124 36.7061L20.4239 37.436L21.1599 37.1386L20.8601 36.4087Z" stroke="#263238" stroke-width="0.114759" stroke-linecap="round" stroke-linejoin="round"/>
<path d="M22.195 35.8686L21.459 36.166L21.7589 36.896L22.4949 36.5986L22.195 35.8686Z" stroke="#263238" stroke-width="0.114759" stroke-linecap="round" stroke-linejoin="round"/>
<path d="M23.5285 35.3305L22.7925 35.6279L23.0923 36.3579L23.8284 36.0605L23.5285 35.3305Z" stroke="#263238" stroke-width="0.114759" stroke-linecap="round" stroke-linejoin="round"/>
<path d="M17.4753 35.522C17.4903 35.5583 17.4941 35.5983 17.4862 35.6367C17.4782 35.6752 17.459 35.7105 17.4308 35.7381C17.4027 35.7657 17.3669 35.7844 17.328 35.7918C17.2891 35.7992 17.2489 35.795 17.2125 35.7797C17.176 35.7644 17.1449 35.7387 17.1232 35.7059C17.1015 35.673 17.0901 35.6346 17.0905 35.5953C17.0908 35.556 17.1029 35.5178 17.1253 35.4853C17.1476 35.4529 17.1791 35.4278 17.2158 35.4132C17.2648 35.3937 17.3196 35.3942 17.3682 35.4146C17.4168 35.4349 17.4553 35.4736 17.4753 35.522Z" fill="#263238"/>
<path d="M19.3925 38.8209L28.4434 35.1654" stroke="#263238" stroke-width="0.229517" stroke-linecap="round" stroke-linejoin="round"/>
<path d="M19.6375 39.4203L28.6865 35.7637" stroke="#263238" stroke-width="0.229517" stroke-linecap="round" stroke-linejoin="round"/>
<path d="M19.9253 40.1196L27.6435 37.0006" stroke="#263238" stroke-width="0.229517" stroke-linecap="round" stroke-linejoin="round"/>
<path d="M20.9616 40.4411L20.2256 40.7385L20.5255 41.4685L21.2615 41.1711L20.9616 40.4411Z" stroke="#263238" stroke-width="0.114759" stroke-linecap="round" stroke-linejoin="round"/>
<path d="M22.2961 39.9016L21.5601 40.199L21.8599 40.9289L22.596 40.6316L22.2961 39.9016Z" stroke="#263238" stroke-width="0.114759" stroke-linecap="round" stroke-linejoin="round"/>
<path d="M23.632 39.3635L22.896 39.6609L23.1959 40.3909L23.9319 40.0935L23.632 39.3635Z" stroke="#263238" stroke-width="0.114759" stroke-linecap="round" stroke-linejoin="round"/>
<path d="M24.9646 38.8249L24.2285 39.1223L24.5284 39.8523L25.2644 39.5549L24.9646 38.8249Z" stroke="#263238" stroke-width="0.114759" stroke-linecap="round" stroke-linejoin="round"/>
<path d="M18.9103 39.0157C18.9253 39.052 18.9291 39.0919 18.9212 39.1304C18.9133 39.1689 18.894 39.2041 18.8659 39.2317C18.8377 39.2593 18.802 39.278 18.7631 39.2854C18.7242 39.2928 18.684 39.2886 18.6475 39.2733C18.6111 39.258 18.58 39.2323 18.5583 39.1995C18.5366 39.1667 18.5252 39.1282 18.5255 39.089C18.5259 39.0497 18.538 39.0114 18.5603 38.979C18.5826 38.9466 18.6142 38.9215 18.6509 38.9068C18.6999 38.8873 18.7546 38.8878 18.8032 38.9082C18.8518 38.9286 18.8903 38.9672 18.9103 39.0157Z" fill="#263238"/>
<path d="M20.868 42.414L29.9175 38.7588" stroke="#263238" stroke-width="0.229517" stroke-linecap="round" stroke-linejoin="round"/>
<path d="M21.1141 43.0131L30.1635 39.3579" stroke="#263238" stroke-width="0.229517" stroke-linecap="round" stroke-linejoin="round"/>
<path d="M21.3999 43.7121L29.1186 40.5946" stroke="#263238" stroke-width="0.229517" stroke-linecap="round" stroke-linejoin="round"/>
<path d="M22.4392 44.0346L21.7031 44.332L22.003 45.062L22.739 44.7646L22.4392 44.0346Z" stroke="#263238" stroke-width="0.114759" stroke-linecap="round" stroke-linejoin="round"/>
<path d="M23.7717 43.4958L23.0356 43.7932L23.3355 44.5232L24.0716 44.2258L23.7717 43.4958Z" stroke="#263238" stroke-width="0.114759" stroke-linecap="round" stroke-linejoin="round"/>
<path d="M25.1062 42.957L24.3701 43.2544L24.67 43.9844L25.406 43.687L25.1062 42.957Z" stroke="#263238" stroke-width="0.114759" stroke-linecap="round" stroke-linejoin="round"/>
<path d="M26.4411 42.4172L25.7051 42.7146L26.0049 43.4446L26.741 43.1472L26.4411 42.4172Z" stroke="#263238" stroke-width="0.114759" stroke-linecap="round" stroke-linejoin="round"/>
<path d="M20.3933 42.6065C20.4081 42.6425 20.4119 42.682 20.4041 42.7201C20.3963 42.7582 20.3773 42.7932 20.3495 42.8206C20.3217 42.848 20.2863 42.8666 20.2478 42.8741C20.2093 42.8815 20.1695 42.8775 20.1333 42.8625C20.0971 42.8475 20.0662 42.8222 20.0446 42.7898C20.0229 42.7574 20.0114 42.7194 20.0115 42.6805C20.0116 42.6416 20.0233 42.6036 20.0451 42.5714C20.067 42.5391 20.098 42.514 20.1343 42.4992C20.1584 42.4893 20.1842 42.4843 20.2103 42.4844C20.2364 42.4844 20.2622 42.4896 20.2862 42.4996C20.3103 42.5095 20.3321 42.5241 20.3505 42.5425C20.3689 42.5608 20.3834 42.5826 20.3933 42.6065Z" fill="#263238"/>
<path d="M17.7392 33.9355L17.9075 34.0504L18.0925 33.4539" stroke="#263238" stroke-width="0.229517" stroke-linecap="round" stroke-linejoin="round"/>
<path d="M21.8232 36.3078L21.992 36.4242L22.1765 35.8262" stroke="#263238" stroke-width="0.229517" stroke-linecap="round" stroke-linejoin="round"/>
<path d="M21.954 40.4133L22.1243 40.5292L22.3073 39.9316" stroke="#263238" stroke-width="0.229517" stroke-linecap="round" stroke-linejoin="round"/>
<path d="M26.0702 42.9067L26.239 43.023L26.4235 42.4251" stroke="#263238" stroke-width="0.229517" stroke-linecap="round" stroke-linejoin="round"/>
</g>
<path d="M25.6102 45.384C26.0699 43.8313 27.8614 38.8608 27.6257 36.6618C27.6069 36.4787 27.5647 36.2987 27.5 36.1261C26.8713 34.4841 24.3019 34.6433 23.3157 36.0038C22.2314 37.5002 21.3513 40.1922 21.2708 41.8264C21.2019 42.6453 20.9322 43.4353 20.485 44.1282C20.3315 44.3844 20.1581 44.6284 19.9664 44.858L14.1066 31.1265C13.5148 31.6133 12.9979 32.1828 12.5723 32.8169C12.3328 33.1705 12.1782 33.5734 12.1205 33.995C12.0007 35.3536 10.4488 40.9122 9.80448 43.2587C9.7927 43.3092 9.77698 43.3558 9.7652 43.4043C9.14444 45.6596 10.7828 54.0363 10.3133 56.4682C9.84377 58.9001 9.555 58.8477 9.48625 60.575C9.43714 61.8366 7.61023 65.6736 5.55742 69.6116C4.37876 71.8669 3.13725 74.1552 2.10986 76.0164L17.1023 75.4012C17.3616 73.6001 17.6288 71.7019 17.8723 69.862C17.9782 69.0967 18.1278 68.3379 18.3202 67.5893C18.6503 66.2695 19.053 65.0759 19.3024 64.3772C19.6205 63.3501 19.8828 62.307 20.0882 61.2524C21.8306 59.4299 24.1172 56.5633 24.7792 54.6224V54.6088C24.9416 54.2096 24.9932 53.7747 24.9285 53.3492C24.8554 52.9998 24.8153 52.6444 24.8087 52.2876C24.7399 50.1759 25.2252 46.6766 25.6102 45.384Z" fill="white"/>
<path opacity="0.8" d="M20.4889 44.1399C20.0253 45.0618 19.4654 45.9585 19.1138 46.991C18.7621 48.0235 18.3712 48.171 17.3222 48.9784C16.2732 49.7858 15.5071 48.4563 15.5071 48.4563C15.5071 48.4563 16.8959 47.0298 16.4343 46.2379C15.9727 45.4461 14.2381 43.4761 14.3402 42.3815C14.4424 41.2868 13.2932 38.8491 13.2932 38.8491C13.2932 38.8491 15.9118 37.3314 15.403 35.5497C15.126 34.5851 13.7509 33.5525 12.5723 32.8169C12.9978 32.1828 13.5147 31.6133 14.1065 31.1265L19.9703 44.8696C20.162 44.64 20.3354 44.396 20.4889 44.1399Z" fill="#FFE4C8"/>
<path opacity="0.8" d="M10.9813 52.57C11.0167 52.6865 11.8693 55.4697 11.1503 56.6284C10.4313 57.7871 9.69268 59.3223 10.0443 60.8982C10.3233 62.1559 7.96792 66.6975 5.56348 69.6127C7.6104 65.6747 9.43731 61.8376 9.49231 60.5761C9.56107 58.8487 9.84984 58.9011 10.3193 56.4692C10.7888 54.0373 9.14068 45.6606 9.77126 43.4053C9.78305 43.3568 9.79876 43.3102 9.81055 43.2598C10.2683 45.8159 11.3349 50.9067 11.6276 52.5429C11.993 54.6254 11.0206 52.6535 10.9813 52.57Z" fill="#FFE4C8"/>
<path opacity="0.8" d="M16.3789 69.3526C18.1213 61.9424 23.9851 56.2577 24.7788 54.6138C24.1167 56.5546 21.8321 59.4213 20.0877 61.2437C19.8823 62.2984 19.62 63.3415 19.302 64.3685C19.0564 65.0672 18.6537 66.2608 18.3198 67.5806C16.6225 69.5642 16.3789 69.3526 16.3789 69.3526Z" fill="#FFE4C8"/>
<path opacity="0.8" d="M25.6099 45.384C25.217 46.6767 24.7397 50.176 24.8143 52.278C24.5059 50.9562 23.9127 49.2813 23.8145 46.9464C23.6475 42.9871 25.9183 44.4078 25.1267 42.4572C24.335 40.5067 22.0779 43.0065 23.1898 38.8783C24.003 35.8622 26.3132 35.8913 27.4997 36.1262C27.5644 36.2988 27.6067 36.4788 27.6254 36.6619C27.8612 38.8608 26.0696 43.8352 25.6099 45.384Z" fill="#FFE4C8"/>
<path d="M19.9708 44.8694C19.6154 45.5479 19.326 46.2582 19.1065 46.9907C18.8609 47.9418 17.6175 47.8059 16.9751 48.3959" stroke="#263238" stroke-width="0.114759" stroke-linecap="round" stroke-linejoin="round"/>
<path d="M15.2793 43.1963C15.2793 43.1963 16.9726 43.7785 17.9568 44.5452C18.941 45.3118 19.6698 45.4884 19.6698 45.4884" stroke="#263238" stroke-width="0.114759" stroke-linecap="round" stroke-linejoin="round"/>
<path d="M14.2012 39.0521C14.2012 39.0521 15.5664 39.4305 16.5781 38.955C16.6238 38.4708 16.7099 37.991 16.8355 37.5208" stroke="#263238" stroke-width="0.114759" stroke-linecap="round" stroke-linejoin="round"/>
<path d="M16.9033 39.1499C16.9033 39.1499 16.9171 39.344 17.6125 39.344" stroke="#263238" stroke-width="0.114759" stroke-linecap="round" stroke-linejoin="round"/>
<path d="M20.0865 61.2463C19.1341 62.1938 18.402 63.335 17.9414 64.5904" stroke="#263238" stroke-width="0.114759" stroke-linecap="round" stroke-linejoin="round"/>
<path d="M9.68408 43.8174C9.62318 44.9819 11.0042 49.112 11.4246 51.1655C11.8449 53.2189 12.0001 54.6706 12.0001 54.6706" stroke="#263238" stroke-width="0.114759" stroke-linecap="round" stroke-linejoin="round"/>
<path d="M4.396 71.9208C6.28577 68.5282 8.10285 65.0366 9.42883 61.2694C9.58795 60.7279 9.37579 60.0234 9.53491 59.4819C11.3147 54.5909 9.29525 49.5001 9.62724 44.4927C9.90422 42.5188 10.5427 40.5294 11.1831 38.5401C11.4836 37.1 11.5956 35.491 12.0769 34.0431C12.5719 32.9524 13.0591 31.683 14.114 31.1318C16.1177 35.6676 18.1155 40.2247 19.9778 44.875C20.8185 44.3956 20.96 43.3223 21.0955 42.4218C21.5473 40.2616 22.005 38.28 22.8321 36.4634C23.6728 35 25.814 34.3769 27.1282 35.5725C27.5054 35.9454 27.721 36.4486 27.7293 36.9757C27.474 39.4833 26.6764 42.022 25.873 44.3665C25.5567 45.4495 25.2345 46.3559 25.099 47.4311C25.1147 47.7863 25.1206 47.9649 25.1363 48.322C24.6707 50.125 25.099 51.7126 24.9929 53.5021C24.5863 56.7297 21.9736 58.9773 20.0819 61.3742C19.6163 63.1773 19.1488 64.9803 18.5103 66.7911C17.7246 69.4986 17.4731 72.1867 17.204 74.7971" stroke="#263238" stroke-width="0.114759" stroke-linecap="round" stroke-linejoin="round"/>
<path d="M49.0188 20.2104H32.7378V44.5713H49.0188V20.2104Z" fill="white" stroke="#263238" stroke-width="0.114759" stroke-linecap="round" stroke-linejoin="round"/>
<path d="M33.9577 21.8688L38.1954 21.8602" stroke="#263238" stroke-width="0.229517" stroke-linecap="round" stroke-linejoin="round"/>
<path d="M33.96 22.6789L36.8419 22.672" stroke="#263238" stroke-width="0.229517" stroke-linecap="round" stroke-linejoin="round"/>
<path d="M34.9963 24.5893L47.1851 24.5634" stroke="#263238" stroke-width="0.229517" stroke-linecap="round" stroke-linejoin="round"/>
<path d="M34.9984 25.3977L47.1871 25.3737" stroke="#263238" stroke-width="0.229517" stroke-linecap="round" stroke-linejoin="round"/>
<path d="M35.0008 26.3419L45.3954 26.3213" stroke="#263238" stroke-width="0.229517" stroke-linecap="round" stroke-linejoin="round"/>
<path d="M36.0469 27.2006L35.0557 27.2026L35.0578 28.1895L36.049 28.1874L36.0469 27.2006Z" stroke="#263238" stroke-width="0.114759" stroke-linecap="round" stroke-linejoin="round"/>
<path d="M37.8414 27.1954L36.8501 27.1975L36.8522 28.1843L37.8435 28.1823L37.8414 27.1954Z" stroke="#263238" stroke-width="0.114759" stroke-linecap="round" stroke-linejoin="round"/>
<path d="M39.6407 27.192L38.6494 27.1941L38.6515 28.1809L39.6428 28.1788L39.6407 27.192Z" stroke="#263238" stroke-width="0.114759" stroke-linecap="round" stroke-linejoin="round"/>
<path d="M41.4366 27.1881L40.4453 27.1902L40.4474 28.177L41.4387 28.1749L41.4366 27.1881Z" stroke="#263238" stroke-width="0.114759" stroke-linecap="round" stroke-linejoin="round"/>
<path d="M34.3491 24.588C34.3497 24.6372 34.3356 24.6855 34.3085 24.7267C34.2814 24.7679 34.2427 24.8001 34.1971 24.8193C34.1516 24.8386 34.1014 24.8439 34.0528 24.8346C34.0043 24.8253 33.9596 24.8018 33.9244 24.7672C33.8893 24.7325 33.8653 24.6883 33.8555 24.64C33.8457 24.5918 33.8506 24.5417 33.8694 24.4962C33.8883 24.4507 33.9203 24.4118 33.9614 24.3845C34.0026 24.3571 34.0509 24.3426 34.1004 24.3427C34.1659 24.3428 34.2287 24.3686 34.2753 24.4145C34.3218 24.4604 34.3484 24.5227 34.3491 24.588Z" fill="#263238"/>
<path d="M35.0061 29.3115L47.1949 29.2855" stroke="#263238" stroke-width="0.229517" stroke-linecap="round" stroke-linejoin="round"/>
<path d="M35.0082 30.1199L47.1968 30.0958" stroke="#263238" stroke-width="0.229517" stroke-linecap="round" stroke-linejoin="round"/>
<path d="M35.0114 31.0672L45.4061 31.0447" stroke="#263238" stroke-width="0.229517" stroke-linecap="round" stroke-linejoin="round"/>
<path d="M36.0562 31.9225L35.0649 31.9246L35.067 32.9114L36.0583 32.9093L36.0562 31.9225Z" stroke="#263238" stroke-width="0.114759" stroke-linecap="round" stroke-linejoin="round"/>
<path d="M37.8531 31.9208L36.8618 31.9229L36.8639 32.9097L37.8552 32.9076L37.8531 31.9208Z" stroke="#263238" stroke-width="0.114759" stroke-linecap="round" stroke-linejoin="round"/>
<path d="M39.65 31.9159L38.6587 31.918L38.6608 32.9048L39.6521 32.9027L39.65 31.9159Z" stroke="#263238" stroke-width="0.114759" stroke-linecap="round" stroke-linejoin="round"/>
<path d="M41.4464 31.9122L40.4551 31.9143L40.4572 32.9011L41.4484 32.8991L41.4464 31.9122Z" stroke="#263238" stroke-width="0.114759" stroke-linecap="round" stroke-linejoin="round"/>
<path d="M34.3589 29.3133C34.3591 29.3624 34.3446 29.4105 34.3173 29.4515C34.29 29.4924 34.2511 29.5244 34.2055 29.5433C34.1599 29.5622 34.1098 29.5672 34.0613 29.5577C34.0129 29.5482 33.9684 29.5245 33.9334 29.4898C33.8985 29.4551 33.8747 29.4108 33.8651 29.3626C33.8555 29.3144 33.8605 29.2644 33.8794 29.219C33.8984 29.1736 33.9304 29.1348 33.9716 29.1076C34.0127 29.0804 34.061 29.0659 34.1103 29.0661C34.1762 29.0663 34.2392 29.0924 34.2858 29.1387C34.3324 29.185 34.3586 29.2478 34.3589 29.3133Z" fill="#263238"/>
<path d="M35.016 34.0347L47.2047 34.0106" stroke="#263238" stroke-width="0.229517" stroke-linecap="round" stroke-linejoin="round"/>
<path d="M35.0178 34.8452L47.2047 34.819" stroke="#263238" stroke-width="0.229517" stroke-linecap="round" stroke-linejoin="round"/>
<path d="M35.0206 35.7898L45.4154 35.7674" stroke="#263238" stroke-width="0.229517" stroke-linecap="round" stroke-linejoin="round"/>
<path d="M36.066 36.6473L35.0747 36.6494L35.0768 37.6363L36.0681 37.6342L36.066 36.6473Z" stroke="#263238" stroke-width="0.114759" stroke-linecap="round" stroke-linejoin="round"/>
<path d="M37.8629 36.6437L36.8716 36.6458L36.8737 37.6326L37.8649 37.6305L37.8629 36.6437Z" stroke="#263238" stroke-width="0.114759" stroke-linecap="round" stroke-linejoin="round"/>
<path d="M39.6612 36.6405L38.6699 36.6426L38.672 37.6294L39.6633 37.6273L39.6612 36.6405Z" stroke="#263238" stroke-width="0.114759" stroke-linecap="round" stroke-linejoin="round"/>
<path d="M41.4561 36.6363L40.4648 36.6384L40.4669 37.6253L41.4582 37.6232L41.4561 36.6363Z" stroke="#263238" stroke-width="0.114759" stroke-linecap="round" stroke-linejoin="round"/>
<path d="M34.3682 34.0374C34.3684 34.0866 34.3539 34.1347 34.3266 34.1756C34.2993 34.2166 34.2604 34.2485 34.2148 34.2674C34.1692 34.2863 34.119 34.2913 34.0706 34.2818C34.0222 34.2723 33.9777 34.2487 33.9427 34.2139C33.9078 34.1792 33.884 34.1349 33.8744 34.0867C33.8648 34.0385 33.8698 33.9885 33.8887 33.9431C33.9077 33.8977 33.9397 33.859 33.9808 33.8317C34.0219 33.8045 34.0702 33.7901 34.1196 33.7902C34.1854 33.7904 34.2485 33.8165 34.2951 33.8628C34.3416 33.9091 34.3679 33.9719 34.3682 34.0374Z" fill="#263238"/>
<path d="M35.0268 38.8926L47.2135 38.8684" stroke="#263238" stroke-width="0.229517" stroke-linecap="round" stroke-linejoin="round"/>
<path d="M35.0292 39.7029L47.2159 39.6787" stroke="#263238" stroke-width="0.229517" stroke-linecap="round" stroke-linejoin="round"/>
<path d="M35.0291 40.6478L45.4237 40.6272" stroke="#263238" stroke-width="0.229517" stroke-linecap="round" stroke-linejoin="round"/>
<path d="M36.0777 41.5057L35.0864 41.5078L35.0885 42.4947L36.0798 42.4926L36.0777 41.5057Z" stroke="#263238" stroke-width="0.114759" stroke-linecap="round" stroke-linejoin="round"/>
<path d="M37.8726 41.5016L36.8813 41.5037L36.8834 42.4905L37.8747 42.4884L37.8726 41.5016Z" stroke="#263238" stroke-width="0.114759" stroke-linecap="round" stroke-linejoin="round"/>
<path d="M39.67 41.4974L38.6787 41.4995L38.6808 42.4863L39.6721 42.4843L39.67 41.4974Z" stroke="#263238" stroke-width="0.114759" stroke-linecap="round" stroke-linejoin="round"/>
<path d="M41.4683 41.493L40.4771 41.4951L40.4791 42.482L41.4704 42.4799L41.4683 41.493Z" stroke="#263238" stroke-width="0.114759" stroke-linecap="round" stroke-linejoin="round"/>
<path d="M34.3869 38.8944C34.3871 38.9431 34.3728 38.9908 34.3458 39.0313C34.3188 39.0719 34.2803 39.1036 34.2352 39.1225C34.1901 39.1413 34.1405 39.1464 34.0925 39.1371C34.0445 39.1278 34.0003 39.1046 33.9656 39.0703C33.9308 39.0361 33.9071 38.9923 33.8973 38.9446C33.8875 38.8969 33.8921 38.8474 33.9106 38.8024C33.9291 38.7573 33.9606 38.7187 34.0011 38.6914C34.0416 38.6641 34.0893 38.6494 34.1382 38.6492C34.1707 38.649 34.2029 38.6552 34.2331 38.6674C34.2632 38.6796 34.2906 38.6977 34.3137 38.7204C34.3368 38.7432 34.3551 38.7703 34.3677 38.8002C34.3803 38.83 34.3868 38.8621 34.3869 38.8944Z" fill="#263238"/>
<path d="M35.4112 27.595L35.5516 27.8068L36.0469 27.2008" stroke="#263238" stroke-width="0.229517" stroke-linecap="round" stroke-linejoin="round"/>
<path d="M39.0142 32.252L39.1544 32.4657L39.65 31.8578" stroke="#263238" stroke-width="0.229517" stroke-linecap="round" stroke-linejoin="round"/>
<path d="M37.2276 37.0772L37.3697 37.2911L37.8633 36.683" stroke="#263238" stroke-width="0.229517" stroke-linecap="round" stroke-linejoin="round"/>
<path d="M40.8086 41.8887L40.9488 42.1024L41.4444 41.4945" stroke="#263238" stroke-width="0.229517" stroke-linecap="round" stroke-linejoin="round"/>
<defs>
<clipPath id="clip0_7_67730">
<rect width="15.0258" height="20.7621" fill="white" transform="matrix(0.998836 0.0482276 -0.0490328 0.998797 51.8086 26.6672)"/>
</clipPath>
<clipPath id="clip1_7_67730">
<rect width="15.0086" height="20.7861" fill="white" transform="matrix(0.927964 -0.372671 0.378023 0.925796 12.3579 29.0298)"/>
</clipPath>
</defs>
</svg>
