<svg width="28" height="4" viewBox="0 0 28 4" fill="none" xmlns="http://www.w3.org/2000/svg">
<path d="M15.2363 -4.1702e-05L16.0285 1.45334L14.3632 2.90656L15.2363 -4.1702e-05Z" fill="#2B8B4B"/>
<path d="M14.6801 -4.1702e-05L15.4716 1.45334L13.8056 2.90656L14.6801 -4.1702e-05Z" fill="#D9782D"/>
<path d="M3.40665 2.10947C3.34581 2.22762 3.22288 2.31321 3.07618 2.3304H2.96762H0.838966L1.01901 1.73602H2.66145H3.16806H3.27769C3.36 1.75484 3.42457 1.8149 3.44337 1.89099C3.44585 1.90818 3.44745 1.92536 3.44745 1.9432C3.44745 1.9522 3.44692 1.9612 3.44603 1.97004C3.44585 1.9738 3.44585 1.9774 3.4455 1.98117L3.40665 2.10947ZM1.3706 0.57328H3.01143H3.52532H3.63353C3.69561 0.587354 3.74759 0.624666 3.77775 0.674579C3.78874 0.709601 3.79495 0.746422 3.79495 0.784389C3.79495 0.805009 3.79282 0.82481 3.78945 0.844612L3.7836 0.863596L3.76178 0.936257C3.7036 1.06276 3.57517 1.15489 3.42155 1.17208H3.31725H1.18948L1.3706 0.57328ZM3.72772 2.81169C3.80542 2.75654 3.85668 2.6883 3.88134 2.60696L4.14476 1.73602C4.16888 1.65681 4.15824 1.59037 4.11336 1.53669C4.06848 1.48301 4.00214 1.45617 3.91451 1.45617C4.00214 1.45617 4.08498 1.42868 4.16303 1.37353C4.24055 1.31838 4.29164 1.25128 4.31558 1.17208L4.57865 0.302274C4.60437 0.217667 4.59568 0.147952 4.55293 0.0924744C4.51018 0.0371604 4.4433 0.00933977 4.3523 0.00933977H0.916307L0.0432052 2.8945H3.47938C3.56701 2.8945 3.64985 2.86684 3.72772 2.81169Z" fill="#6D6E71"/>
<path d="M8.17762 0.0108693L7.83224 1.16968H5.35343L5.69898 0.0108693H5.08274L4.22507 2.88621H4.84149L5.1858 1.73247H7.66426L7.3203 2.88621H7.93673L8.79422 0.0108693H8.17762Z" fill="#6D6E71"/>
<path d="M8.97619 2.8945H8.35569L9.2185 0.0198141H9.83883L8.97619 2.8945Z" fill="#6D6E71"/>
<path d="M14.1527 0.0174881L11.5783 2.03039L10.6804 0.653598L10.2653 0.0174881H10.2541L10.0586 0.670781L9.39663 2.88383H10.0131L10.4771 1.33258L11.4604 2.88759L13.0881 1.51129L12.6799 2.88383H13.2965L13.898 0.872071L14.1538 0.0174881H14.1527Z" fill="#6D6E71"/>
<path d="M0.141555 3.398H0.171889C0.209672 3.398 0.237699 3.39342 0.255793 3.38442C0.273709 3.37542 0.285594 3.36037 0.291093 3.33909C0.297124 3.31569 0.293931 3.29932 0.282046 3.29C0.269984 3.2805 0.243731 3.27592 0.203641 3.27592H0.173308L0.141555 3.398ZM0.0929511 3.58588H0.120269C0.147941 3.58588 0.168873 3.58506 0.183241 3.58309C0.197432 3.58113 0.209317 3.57786 0.218719 3.57278C0.229894 3.56722 0.239473 3.55953 0.247278 3.5502C0.255083 3.54071 0.260405 3.5304 0.26342 3.51878C0.266791 3.5052 0.266613 3.49341 0.262888 3.48327C0.258986 3.47328 0.25189 3.46543 0.241247 3.45986C0.234506 3.45643 0.226524 3.45414 0.2173 3.4525C0.207898 3.45103 0.195481 3.45021 0.179339 3.45021H0.155392H0.128074L0.0929511 3.58588ZM0 3.64381L0.110335 3.21832H0.233619C0.268565 3.21832 0.294109 3.21995 0.310073 3.22339C0.326038 3.2265 0.33881 3.23206 0.348744 3.23959C0.361338 3.24925 0.369853 3.26201 0.37411 3.27772C0.378368 3.29327 0.378013 3.31078 0.373223 3.3296C0.367015 3.35235 0.356372 3.37133 0.340407 3.38655C0.324264 3.40161 0.30422 3.41224 0.27974 3.4183C0.307235 3.42206 0.326748 3.43352 0.338101 3.45217C0.349631 3.47083 0.35176 3.4944 0.344309 3.52287C0.339875 3.54005 0.33207 3.55658 0.321249 3.5718C0.310251 3.58751 0.297124 3.6006 0.281514 3.61157C0.265194 3.62335 0.246569 3.6317 0.22546 3.63661C0.20435 3.64135 0.170469 3.64381 0.123817 3.64381H0Z" fill="#434244"/>
<path d="M0.600854 3.64368L0.711189 3.21819H0.790481L0.74986 3.37513H0.989865L1.03066 3.21819H1.11013L0.999799 3.64368H0.920329L0.974077 3.43699H0.733717L0.680146 3.64368H0.600854Z" fill="#434244"/>
<path d="M1.46363 3.4766H1.59986L1.57503 3.37955C1.57361 3.37333 1.57255 3.36629 1.57148 3.35811C1.57059 3.35026 1.56971 3.34126 1.56918 3.33127C1.56385 3.3406 1.55906 3.34944 1.55392 3.35729C1.54878 3.36531 1.54381 3.37284 1.53902 3.37955L1.46363 3.4766ZM1.63978 3.64368L1.61299 3.5342H1.41946L1.33431 3.64368H1.25094L1.60217 3.2015L1.72368 3.64368H1.63978Z" fill="#434244"/>
<path d="M2.12001 3.39964H2.13438C2.17642 3.39964 2.20534 3.39555 2.22148 3.38704C2.23744 3.37837 2.24826 3.36315 2.25394 3.34171C2.25997 3.31814 2.25678 3.30161 2.24454 3.29212C2.2323 3.28247 2.20605 3.27772 2.16613 3.27772H2.15176L2.12001 3.39964ZM2.10121 3.45348L2.05172 3.64381H1.97739L2.08773 3.21848H2.19842C2.23088 3.21848 2.25571 3.22028 2.27257 3.22388C2.28959 3.22748 2.30325 3.2337 2.31372 3.24221C2.32614 3.25252 2.33447 3.26594 2.33838 3.28198C2.34246 3.29834 2.34192 3.31602 2.33696 3.33549C2.32809 3.36953 2.31159 3.3962 2.28764 3.41568C2.26387 3.43483 2.23301 3.44645 2.19505 3.45037L2.31301 3.64381H2.22325L2.11008 3.45348H2.10121Z" fill="#434244"/>
<path d="M2.70955 3.47672H2.84578L2.82095 3.37968C2.81953 3.37346 2.81829 3.36642 2.8174 3.35824C2.81651 3.35038 2.81563 3.34138 2.81509 3.3314C2.80977 3.34073 2.8048 3.34956 2.79984 3.35742C2.79452 3.36544 2.78955 3.37297 2.78494 3.37968L2.70955 3.47672ZM2.88569 3.64381L2.85891 3.53433H2.66538L2.58023 3.64381H2.49686L2.84809 3.20162L2.96942 3.64381H2.88569Z" fill="#434244"/>
<path d="M3.43765 3.27694L3.34239 3.64368H3.2631L3.35818 3.27694H3.22833L3.24359 3.21835H3.58187L3.56679 3.27694H3.43765Z" fill="#434244"/>
<path d="M4.15473 3.64368L4.26507 3.21819H4.34436L4.23403 3.64368H4.15473Z" fill="#434244"/>
<path d="M4.55664 3.64436L4.67124 3.20218L4.91408 3.46222C4.92064 3.46958 4.92721 3.47727 4.93359 3.48562C4.94016 3.49397 4.94672 3.50346 4.95364 3.51377L5.03009 3.21887H5.10353L4.98894 3.66089L4.74113 3.3961C4.73439 3.3889 4.72836 3.38154 4.7225 3.37352C4.71647 3.3655 4.71115 3.35715 4.70636 3.34848L4.62955 3.64436H4.55664Z" fill="#434244"/>
<path d="M5.56156 3.27694L5.46648 3.64368H5.38719L5.48227 3.27694H5.35242L5.36768 3.21835H5.70578L5.69088 3.27694H5.56156Z" fill="#434244"/>
<path d="M5.86084 3.64368L5.97117 3.21819H6.24364L6.22839 3.27694H6.03521L6.00754 3.38364H6.20071L6.18493 3.44436H5.99175L5.9561 3.58182H6.14927L6.13331 3.64368H5.86084Z" fill="#434244"/>
<path d="M6.57316 3.39964H6.58753C6.62957 3.39964 6.65849 3.39555 6.67463 3.38704C6.69059 3.37837 6.70142 3.36315 6.70709 3.34171C6.71312 3.31814 6.70993 3.30161 6.69769 3.29212C6.68545 3.28247 6.6592 3.27772 6.61929 3.27772H6.60492L6.57316 3.39964ZM6.55436 3.45348L6.50487 3.64381H6.43055L6.54088 3.21848H6.65157C6.68403 3.21848 6.70887 3.22028 6.72572 3.22388C6.74275 3.22748 6.75641 3.2337 6.76687 3.24221C6.77929 3.25252 6.78763 3.26594 6.79153 3.28198C6.79561 3.29834 6.79508 3.31602 6.79011 3.33549C6.78124 3.36953 6.76474 3.3962 6.7408 3.41568C6.71703 3.43483 6.68616 3.44645 6.6482 3.45037L6.76616 3.64381H6.6764L6.56323 3.45348H6.55436Z" fill="#434244"/>
<path d="M7.02035 3.64381L7.13068 3.21832H7.40315L7.38789 3.27707H7.19472L7.1674 3.38311H7.36058L7.34479 3.44383H7.15161L7.09964 3.64381H7.02035Z" fill="#434244"/>
<path d="M7.70847 3.47672H7.84453L7.81969 3.37968C7.81827 3.37346 7.81721 3.36642 7.81614 3.35824C7.81526 3.35038 7.81437 3.34138 7.81384 3.3314C7.80869 3.34073 7.80373 3.34956 7.79858 3.35742C7.79344 3.36544 7.78847 3.37297 7.78368 3.37968L7.70847 3.47672ZM7.88462 3.64381L7.85765 3.53433H7.66412L7.57915 3.64381H7.4956L7.84683 3.20162L7.96834 3.64381H7.88462Z" fill="#434244"/>
<path d="M8.68107 3.32088C8.66279 3.30418 8.64239 3.29175 8.61951 3.2834C8.59663 3.27522 8.57162 3.2708 8.54412 3.2708C8.49073 3.2708 8.44319 3.28586 8.40203 3.3158C8.36088 3.34542 8.33409 3.38421 8.32185 3.43167C8.30979 3.47749 8.31636 3.51529 8.34119 3.54524C8.36602 3.57519 8.40328 3.59008 8.45294 3.59008C8.48168 3.59008 8.51042 3.5855 8.5388 3.5765C8.56718 3.56766 8.59592 3.55424 8.62466 3.53608L8.60426 3.61447C8.57942 3.62772 8.55352 3.63787 8.52674 3.64441C8.49995 3.65096 8.47175 3.65423 8.44248 3.65423C8.40505 3.65423 8.37206 3.64883 8.34314 3.63819C8.31423 3.62756 8.29046 3.61185 8.27165 3.59106C8.25321 3.57077 8.24132 3.54688 8.23547 3.51922C8.22997 3.49173 8.23121 3.46211 8.23919 3.43101C8.24735 3.39976 8.26137 3.37063 8.28123 3.34313C8.3011 3.3158 8.32593 3.29158 8.35556 3.2708C8.38518 3.25002 8.41711 3.23431 8.45117 3.22334C8.48523 3.2127 8.52071 3.2073 8.55725 3.2073C8.58581 3.2073 8.61224 3.2109 8.63636 3.21827C8.66049 3.22547 8.68284 3.23643 8.70359 3.25116L8.68107 3.32088Z" fill="#434244"/>
<path d="M8.9063 3.64381L9.01664 3.21832H9.28911L9.27385 3.27707H9.08068L9.05318 3.38377H9.24636L9.23057 3.44448H9.03739L9.00174 3.58195H9.19491L9.17877 3.64381H8.9063Z" fill="#434244"/>
<path d="M9.88797 3.64381L9.9983 3.21832H10.2708L10.2555 3.27707H10.0623L10.0348 3.38311H10.228L10.2122 3.44383H10.0191L9.96726 3.64381H9.88797Z" fill="#434244"/>
<path d="M10.9238 3.43101C10.9295 3.40958 10.9302 3.38912 10.9263 3.36981C10.9222 3.3505 10.9138 3.33315 10.9009 3.31809C10.8883 3.3032 10.8722 3.29158 10.8526 3.28373C10.833 3.27571 10.8111 3.27145 10.787 3.27145C10.7632 3.27145 10.7393 3.27555 10.7155 3.28356C10.6918 3.29142 10.6694 3.30288 10.6487 3.31809C10.6279 3.33282 10.6105 3.35017 10.5965 3.36948C10.5827 3.38879 10.5729 3.40941 10.5672 3.43101C10.5617 3.45262 10.5608 3.47291 10.5649 3.49206C10.5688 3.5112 10.5772 3.52839 10.5901 3.54344C10.6031 3.5585 10.6194 3.57028 10.6389 3.57797C10.6584 3.58599 10.6802 3.59008 10.7045 3.59008C10.7283 3.59008 10.7519 3.58599 10.7755 3.57797C10.7991 3.57028 10.8213 3.5585 10.8424 3.54344C10.8631 3.52839 10.8807 3.5112 10.8945 3.49189C10.9085 3.47274 10.9185 3.45245 10.9238 3.43101ZM11.0066 3.43101C10.9988 3.46129 10.985 3.48976 10.9648 3.51677C10.9449 3.5436 10.9197 3.56766 10.8894 3.58877C10.8587 3.61005 10.826 3.62608 10.7916 3.63738C10.7572 3.6485 10.7224 3.65423 10.6879 3.65423C10.6527 3.65423 10.6206 3.6485 10.5917 3.63721C10.5628 3.62576 10.5387 3.60972 10.5197 3.58877C10.5002 3.56766 10.4876 3.54377 10.4816 3.51709C10.4757 3.49025 10.4766 3.46162 10.4846 3.43101C10.4924 3.40057 10.5062 3.3721 10.5263 3.3451C10.5461 3.31809 10.5713 3.29404 10.6018 3.2726C10.632 3.25149 10.6644 3.23561 10.6989 3.22449C10.7334 3.21336 10.7682 3.20796 10.8035 3.20796C10.8388 3.20796 10.8706 3.21336 10.8993 3.22449C10.9279 3.23561 10.9518 3.25149 10.9713 3.2726C10.9907 3.2942 11.0033 3.31859 11.0093 3.34559C11.0153 3.37259 11.0144 3.4009 11.0066 3.43101Z" fill="#434244"/>
<path d="M11.3932 3.39952H11.4076C11.4495 3.39952 11.4786 3.39542 11.4945 3.38691C11.5105 3.37824 11.5215 3.36302 11.527 3.34158C11.533 3.31802 11.53 3.30149 11.5176 3.292C11.5053 3.28234 11.4791 3.2776 11.4392 3.2776H11.4248L11.3932 3.39952ZM11.3743 3.45336L11.3248 3.64368H11.2504L11.3608 3.21835H11.4715C11.5039 3.21835 11.5288 3.22015 11.5456 3.22376C11.5626 3.22736 11.5763 3.23357 11.5869 3.24208C11.5992 3.25239 11.6075 3.26581 11.6114 3.28185C11.6155 3.29822 11.615 3.31589 11.61 3.33536C11.6011 3.3694 11.5846 3.39608 11.5609 3.41555C11.5371 3.4347 11.5061 3.44632 11.4681 3.45025L11.5861 3.64368H11.4963L11.3831 3.45336H11.3743Z" fill="#434244"/>
<path d="M12.7027 3.43358C12.7027 3.43031 12.7036 3.4213 12.7055 3.40625C12.7067 3.39398 12.708 3.38367 12.7087 3.37548C12.7043 3.38514 12.6989 3.39496 12.6927 3.40445C12.6865 3.41427 12.6794 3.42409 12.6711 3.43423L12.4847 3.66089L12.4169 3.42965C12.4139 3.42 12.4117 3.41083 12.4103 3.40199C12.4087 3.39299 12.4075 3.38416 12.4068 3.37548C12.4043 3.38432 12.4011 3.39381 12.397 3.40347C12.3931 3.41329 12.3883 3.42343 12.3827 3.43423L12.276 3.64371H12.203L12.4332 3.20021L12.5077 3.46876C12.5088 3.47302 12.5104 3.48006 12.5125 3.49004C12.5143 3.49986 12.5168 3.51197 12.5194 3.52653C12.5274 3.51442 12.5386 3.49888 12.5535 3.48006C12.5576 3.47515 12.5604 3.47122 12.5625 3.46844L12.7729 3.20021L12.7759 3.64371H12.7023L12.7027 3.43358Z" fill="#434244"/>
<path d="M13.5182 3.43101C13.5237 3.40958 13.5246 3.38912 13.5207 3.36981C13.5166 3.3505 13.5081 3.33315 13.4951 3.31809C13.4825 3.3032 13.4664 3.29158 13.4469 3.28373C13.4272 3.27571 13.4054 3.27145 13.3814 3.27145C13.3575 3.27145 13.3335 3.27555 13.3098 3.28356C13.286 3.29142 13.2636 3.30288 13.2429 3.31809C13.2221 3.33282 13.2047 3.35017 13.1909 3.36948C13.1769 3.38879 13.1671 3.40941 13.1615 3.43101C13.156 3.45262 13.1551 3.47291 13.1592 3.49206C13.1631 3.5112 13.1714 3.52839 13.1845 3.54344C13.1973 3.5585 13.2136 3.57028 13.2333 3.57797C13.2526 3.58599 13.2746 3.59008 13.2989 3.59008C13.3225 3.59008 13.3461 3.58599 13.3697 3.57797C13.3933 3.57028 13.4155 3.5585 13.4366 3.54344C13.4573 3.52839 13.4749 3.5112 13.4889 3.49189C13.5029 3.47274 13.5127 3.45245 13.5182 3.43101ZM13.6009 3.43101C13.5931 3.46129 13.5792 3.48976 13.559 3.51677C13.5391 3.5436 13.5141 3.56766 13.4836 3.58877C13.4531 3.61005 13.4205 3.62608 13.3859 3.63738C13.3514 3.6485 13.3169 3.65423 13.2821 3.65423C13.247 3.65423 13.2149 3.6485 13.1859 3.63721C13.157 3.62576 13.1329 3.60972 13.1141 3.58877C13.0944 3.56766 13.0818 3.54377 13.076 3.51709C13.0699 3.49025 13.071 3.46162 13.0788 3.43101C13.0866 3.40057 13.1006 3.3721 13.1205 3.3451C13.1404 3.31809 13.1655 3.29404 13.1961 3.2726C13.2262 3.25149 13.2589 3.23561 13.2933 3.22449C13.3277 3.21336 13.3626 3.20796 13.3979 3.20796C13.4332 3.20796 13.465 3.21336 13.4935 3.22449C13.5221 3.23561 13.5462 3.25149 13.5657 3.2726C13.5849 3.2942 13.5975 3.31859 13.6035 3.34559C13.6097 3.37259 13.6087 3.4009 13.6009 3.43101Z" fill="#434244"/>
<path d="M13.8458 3.64436L13.9604 3.20218L14.2034 3.46222C14.2098 3.46958 14.2163 3.47727 14.2229 3.48562C14.2293 3.49397 14.236 3.50346 14.2428 3.51377L14.3194 3.21887H14.3927L14.2782 3.66089L14.0303 3.3961C14.0235 3.3889 14.0175 3.38154 14.0116 3.37352C14.0056 3.3655 14.0004 3.35715 13.9955 3.34848L13.9187 3.64436H13.8458Z" fill="#434244"/>
<path d="M14.6014 3.64368L14.7117 3.21819H14.9842L14.9689 3.27694H14.7757L14.7481 3.38364H14.9412L14.9254 3.44436H14.7323L14.6966 3.58182H14.8898L14.8738 3.64368H14.6014Z" fill="#434244"/>
<path d="M15.2744 3.64381L15.325 3.44906L15.2203 3.21832H15.3037L15.3686 3.36266C15.37 3.36658 15.372 3.37133 15.3741 3.37722C15.376 3.38328 15.3782 3.38982 15.3803 3.3967C15.3849 3.38999 15.3899 3.3836 15.395 3.37755C15.4 3.37166 15.405 3.36626 15.4101 3.36086L15.5522 3.21832H15.6317L15.4037 3.44906L15.353 3.64381H15.2744Z" fill="#434244"/>
<path d="M17.6384 3.1702H17.7166L17.644 3.47361C17.6332 3.51862 17.6352 3.55251 17.6501 3.57512C17.665 3.59775 17.6926 3.60907 17.733 3.60907C17.7732 3.60907 17.8061 3.59775 17.8318 3.57512C17.8576 3.55251 17.8758 3.51862 17.8866 3.47361L17.9593 3.1702H18.0385L17.964 3.48111C17.9479 3.54868 17.919 3.59925 17.8777 3.63277C17.8364 3.66636 17.7823 3.68312 17.7153 3.68312C17.6482 3.68312 17.6022 3.66638 17.5772 3.63294C17.5521 3.59953 17.5477 3.5489 17.564 3.48111L17.6384 3.1702Z" fill="#434244"/>
<path d="M18.0296 3.67026L18.154 3.15086L18.3904 3.45629C18.3968 3.4649 18.4031 3.47413 18.4094 3.48392C18.4157 3.49371 18.4222 3.50472 18.4288 3.51702L18.5118 3.17064H18.585L18.4607 3.68965L18.2193 3.37877C18.2128 3.37039 18.2068 3.36153 18.2012 3.35218C18.1955 3.34284 18.1904 3.33305 18.1857 3.32283L18.1025 3.67026H18.0296Z" fill="#434244"/>
<path d="M18.5752 3.67056L18.6949 3.17094H18.7741L18.6544 3.67056H18.5752Z" fill="#434244"/>
<path d="M18.7692 3.67043L18.8888 3.17081H19.1607L19.1442 3.23973H18.9515L18.9217 3.36429H19.1144L19.0973 3.43561H18.9046L18.8484 3.67043H18.7692Z" fill="#434244"/>
<path d="M19.1309 3.67056L19.2505 3.17094H19.3297L19.2101 3.67056H19.1309Z" fill="#434244"/>
<path d="M19.3238 3.67056L19.4434 3.17094H19.7154L19.6988 3.23985H19.5061L19.4761 3.3651H19.6688L19.6518 3.43644H19.4591L19.4204 3.59786H19.6131L19.5957 3.67056H19.3238Z" fill="#434244"/>
<path d="M19.7793 3.5964H19.8458C19.8824 3.5964 19.9105 3.59389 19.93 3.5889C19.9495 3.5839 19.9674 3.57546 19.9838 3.56364C20.0061 3.54753 20.0247 3.52743 20.0397 3.50342C20.0546 3.47943 20.0659 3.45146 20.0736 3.4196C20.0811 3.38774 20.0832 3.35986 20.0798 3.3359C20.0763 3.31185 20.0673 3.29179 20.0528 3.27562C20.0419 3.26382 20.0274 3.25535 20.0094 3.25033C19.9914 3.24536 19.962 3.24285 19.9212 3.24285H19.8926H19.8639L19.7793 3.5964ZM19.6825 3.66981L19.8022 3.17015H19.909C19.9784 3.17015 20.0264 3.17371 20.053 3.18088C20.0796 3.18807 20.1015 3.2001 20.1188 3.21692C20.1417 3.23898 20.1562 3.26732 20.1625 3.30186C20.1687 3.33646 20.1665 3.37594 20.1559 3.4203C20.1453 3.46467 20.1286 3.50398 20.1059 3.53821C20.0832 3.57247 20.055 3.60072 20.0215 3.62302C19.9962 3.63986 19.969 3.65186 19.9402 3.65905C19.9112 3.66619 19.8681 3.66981 19.8106 3.66981H19.7893H19.6825Z" fill="#434244"/>
<path d="M20.5427 3.37967H20.563C20.6069 3.37967 20.6374 3.37474 20.6544 3.36497C20.6714 3.35521 20.6829 3.33791 20.6888 3.3131C20.6952 3.28649 20.6919 3.26769 20.6788 3.2568C20.6658 3.24588 20.6383 3.24038 20.5964 3.24038H20.5761L20.5427 3.37967ZM20.5218 3.44616L20.4681 3.67043H20.3939L20.5136 3.17081H20.6334C20.6689 3.17081 20.6945 3.17279 20.7103 3.17677C20.7261 3.18072 20.7391 3.18729 20.7494 3.19641C20.7619 3.20801 20.7701 3.22364 20.7741 3.24331C20.778 3.26301 20.7771 3.28468 20.7715 3.3083C20.7658 3.33198 20.7562 3.35382 20.7428 3.37386C20.7294 3.39387 20.7136 3.40959 20.6956 3.42093C20.681 3.43005 20.6648 3.43654 20.6472 3.44038C20.6295 3.44427 20.6029 3.44616 20.5674 3.44616H20.5518H20.5218Z" fill="#434244"/>
<path d="M20.8702 3.47434H21.0059L20.9833 3.36033C20.9822 3.35307 20.9812 3.34472 20.9803 3.33527C20.9795 3.32581 20.9789 3.31529 20.9786 3.30369C20.9733 3.31461 20.968 3.3248 20.9627 3.33425C20.9575 3.34368 20.9524 3.35237 20.9474 3.36033L20.8702 3.47434ZM21.0422 3.67056L21.0177 3.5419H20.8246L20.7373 3.67056H20.6541L21.0144 3.15115L21.1257 3.67056H21.0422Z" fill="#434244"/>
<path d="M21.2411 3.67056L21.2958 3.44189L21.1967 3.17094H21.2799L21.3414 3.34054C21.3429 3.34489 21.3446 3.35056 21.3465 3.35762C21.3485 3.36467 21.3504 3.37226 21.3522 3.38048C21.3572 3.37252 21.3623 3.36496 21.3674 3.35793C21.3725 3.35087 21.3777 3.34441 21.3829 3.33848L21.5278 3.17094H21.6071L21.3744 3.44189L21.3196 3.67056H21.2411Z" fill="#434244"/>
<path d="M21.9935 3.42261C21.9935 3.41874 21.9946 3.40808 21.9968 3.39055C21.9985 3.37599 21.9999 3.36391 22.0008 3.35434C21.9961 3.36575 21.9905 3.37715 21.9842 3.38849C21.9778 3.39987 21.9704 3.41146 21.962 3.42332L21.7708 3.68953L21.7084 3.41787C21.7057 3.40669 21.7037 3.39589 21.7024 3.38544C21.701 3.37497 21.7001 3.36462 21.6996 3.35434C21.6969 3.36484 21.6935 3.37579 21.6892 3.38731C21.685 3.39879 21.68 3.41081 21.6741 3.42332L21.5629 3.66938H21.4901L21.7299 3.14856L21.7982 3.46393C21.7992 3.46892 21.8006 3.47725 21.8024 3.48885C21.8041 3.50044 21.8062 3.51478 21.8086 3.53183C21.8167 3.51749 21.8283 3.49932 21.8436 3.47725C21.8477 3.47132 21.8508 3.46678 21.8529 3.46359L22.0688 3.14856L22.0619 3.66938H21.9883L21.9935 3.42261Z" fill="#434244"/>
<path d="M22.1271 3.66981L22.2468 3.17018H22.5187L22.5022 3.2391H22.3094L22.2795 3.36434H22.4722L22.4551 3.43569H22.2624L22.2237 3.59711H22.4164L22.399 3.66981H22.1271Z" fill="#434244"/>
<path d="M22.4908 3.67026L22.6152 3.15086L22.8516 3.45629C22.8579 3.4649 22.8643 3.47413 22.8706 3.48392C22.8769 3.49371 22.8834 3.50472 22.89 3.51702L22.9729 3.17064H23.0462L22.9218 3.68965L22.6805 3.37877C22.674 3.37039 22.668 3.36153 22.6624 3.35218C22.6567 3.34284 22.6516 3.33305 22.6469 3.32283L22.5637 3.67026H22.4908Z" fill="#434244"/>
<path d="M23.2974 3.23985L23.1942 3.67056H23.115L23.2181 3.23985H23.0887L23.1052 3.17094H23.4427L23.4262 3.23985H23.2974Z" fill="#434244"/>
<path d="M23.3791 3.56981L23.4495 3.53981C23.4502 3.56208 23.4571 3.5791 23.4702 3.59081C23.4834 3.60255 23.5024 3.60839 23.5273 3.60839C23.5508 3.60839 23.5711 3.60167 23.5882 3.58824C23.6053 3.57484 23.6165 3.55686 23.6219 3.53434C23.629 3.50496 23.6114 3.4788 23.5695 3.45586C23.5636 3.45244 23.5591 3.44993 23.556 3.44832C23.5087 3.42148 23.4787 3.39718 23.4661 3.37545C23.4534 3.35372 23.4508 3.32717 23.4584 3.29579C23.4681 3.25506 23.4895 3.22207 23.5225 3.19682C23.5555 3.17156 23.5939 3.15892 23.6376 3.15892C23.6735 3.15892 23.7019 3.16603 23.7227 3.18025C23.7434 3.1945 23.7553 3.21491 23.7582 3.24152L23.6885 3.27428C23.6825 3.25859 23.6745 3.24711 23.6646 3.2398C23.6547 3.23252 23.6422 3.22888 23.6271 3.22888C23.6059 3.22888 23.5876 3.2346 23.5723 3.24592C23.5571 3.25732 23.5471 3.27256 23.5425 3.2917C23.5354 3.32172 23.5562 3.34969 23.605 3.37562C23.6087 3.37766 23.6117 3.37929 23.6138 3.38042C23.6565 3.40314 23.6843 3.42541 23.697 3.44714C23.7098 3.46889 23.7123 3.49601 23.7045 3.52853C23.6932 3.57588 23.6696 3.61347 23.6339 3.64132C23.5981 3.66918 23.5555 3.68312 23.5061 3.68312C23.4645 3.68312 23.4329 3.67336 23.4111 3.65377C23.3892 3.63421 23.3786 3.60625 23.3791 3.56981Z" fill="#434244"/>
<path d="M23.9628 3.67043L24.0825 3.17081H24.1617L24.042 3.67043H23.9628Z" fill="#434244"/>
<path d="M24.1588 3.67026L24.2832 3.15086L24.5195 3.45629C24.5259 3.4649 24.5322 3.47413 24.5385 3.48392C24.5448 3.49371 24.5513 3.50472 24.5579 3.51702L24.6409 3.17064H24.7141L24.5898 3.68965L24.3484 3.37877C24.3419 3.37039 24.3359 3.36153 24.3303 3.35218C24.3246 3.34284 24.3195 3.33305 24.3148 3.32283L24.2316 3.67026H24.1588Z" fill="#434244"/>
<path d="M24.9673 3.2391L24.8641 3.66981H24.7849L24.8881 3.2391H24.7586L24.7751 3.17018H25.1126L25.0961 3.2391H24.9673Z" fill="#434244"/>
<path d="M25.051 3.66981L25.1707 3.17018H25.4426L25.4261 3.2391H25.2334L25.2033 3.36434H25.3961L25.379 3.43569H25.1863L25.1476 3.59711H25.3403L25.3229 3.66981H25.051Z" fill="#434244"/>
<path d="M25.5616 3.38374H25.5759C25.6178 3.38374 25.6469 3.37877 25.663 3.36875C25.6792 3.35873 25.6904 3.34101 25.6964 3.3155C25.703 3.28798 25.7003 3.26857 25.6882 3.25734C25.6762 3.24602 25.6502 3.2404 25.6103 3.2404H25.5959L25.5616 3.38374ZM25.5415 3.44687L25.4879 3.67043H25.4137L25.5334 3.17081H25.6439C25.6763 3.17081 25.7009 3.17296 25.7177 3.1773C25.7345 3.18162 25.7481 3.18876 25.7583 3.19881C25.7705 3.21083 25.7784 3.22646 25.7821 3.24557C25.7857 3.26465 25.7848 3.28559 25.7793 3.3083C25.7698 3.34835 25.7528 3.3797 25.7285 3.40236C25.7043 3.42497 25.6731 3.4386 25.6352 3.44311L25.7486 3.67043H25.659L25.5505 3.44687H25.5415Z" fill="#434244"/>
<path d="M25.7955 3.67056L25.9152 3.17094H26.1871L26.1706 3.23985H25.9779L25.948 3.36442H26.1408L26.1237 3.43573H25.931L25.8747 3.67056H25.7955Z" fill="#434244"/>
<path d="M26.2789 3.47346H26.4147L26.392 3.35945C26.3909 3.35219 26.3899 3.34384 26.389 3.33439C26.3882 3.32493 26.3876 3.31441 26.3873 3.30281C26.382 3.31373 26.3767 3.32392 26.3715 3.33337C26.3662 3.3428 26.3611 3.35149 26.3561 3.35945L26.2789 3.47346ZM26.4509 3.66968L26.4264 3.54102H26.2334L26.146 3.66968H26.0628L26.4231 3.15027L26.5344 3.66968H26.4509Z" fill="#434244"/>
<path d="M27.0541 3.29169C27.0364 3.27214 27.0162 3.25746 26.9936 3.24767C26.971 3.23793 26.9459 3.233 26.9184 3.233C26.8651 3.233 26.8176 3.25052 26.7758 3.28554C26.734 3.32059 26.7065 3.36597 26.6931 3.42174C26.6802 3.47567 26.6858 3.52012 26.7099 3.55514C26.7341 3.59019 26.7709 3.60774 26.8203 3.60774C26.8492 3.60774 26.8779 3.60249 26.9065 3.59202C26.935 3.58155 26.9639 3.56575 26.9929 3.54455L26.9709 3.63639C26.9458 3.65208 26.9198 3.66382 26.8929 3.67152C26.866 3.67925 26.8379 3.68312 26.8086 3.68312C26.7713 3.68312 26.7383 3.67688 26.7097 3.66435C26.6811 3.65185 26.6577 3.63345 26.6396 3.60907C26.6216 3.58519 26.61 3.55706 26.6051 3.5246C26.6001 3.4922 26.602 3.45766 26.6107 3.421C26.6195 3.3844 26.6342 3.35 26.6546 3.3178C26.6751 3.2856 26.7003 3.25732 26.7303 3.233C26.7604 3.20841 26.7926 3.18985 26.8269 3.17717C26.8612 3.16459 26.8966 3.15824 26.933 3.15824C26.9616 3.15824 26.9879 3.16253 27.0118 3.17108C27.0357 3.17957 27.0578 3.19247 27.0781 3.20983L27.0541 3.29169Z" fill="#434244"/>
<path d="M27.0575 3.66981L27.1772 3.17018H27.4491L27.4326 3.2391H27.2399L27.2099 3.36434H27.4026L27.3855 3.43569H27.1928L27.1541 3.59711H27.3469L27.3294 3.66981H27.0575Z" fill="#434244"/>
<path d="M25.6155 2.73524H25.0711L25.8283 0.00189916H26.3728L25.6155 2.73524Z" fill="#6D6E71"/>
<path d="M25.3281 0.0881708C25.2903 0.0361596 25.2321 0.00991379 25.153 0.00991379H22.1591L22.0108 0.545266H22.5555V0.544956H24.7344L24.5759 1.11705H22.397L22.3972 1.11587H21.8526L21.4007 2.74667H21.9455L22.2488 1.65209H24.6981C24.7746 1.65209 24.8466 1.62602 24.9143 1.57386C24.9818 1.52166 25.0263 1.45728 25.0476 1.38041L25.3509 0.285605C25.373 0.206163 25.3654 0.140238 25.3281 0.0881708Z" fill="#6D6E71"/>
<path d="M21.0865 2.56508C21.0564 2.67331 20.9578 2.74818 20.8454 2.74818H18.0362C17.9597 2.74818 17.9028 2.7221 17.8654 2.67001C17.828 2.61785 17.82 2.55334 17.8413 2.4765L18.5268 0.010349H19.0718L18.4595 2.213H20.6395L21.2517 0.010349H21.7965L21.0865 2.56508Z" fill="#6D6E71"/>
<path d="M27.3109 0.00648638L28.0002 1.3767L26.5511 2.74655L27.3109 0.00648638Z" fill="#2B8B4B"/>
<path d="M26.8287 0.00661197L27.5175 1.37683L26.0678 2.74667L26.8287 0.00661197Z" fill="#D9782D"/>
</svg>
