<svg width="88" height="80" viewBox="0 0 88 80" fill="none" xmlns="http://www.w3.org/2000/svg">
<path d="M29.4265 13.085C29.7315 13.8 29.816 14.591 29.6692 15.358C29.5224 16.125 29.151 16.8334 28.6019 17.3936C28.0528 17.9538 27.3507 18.3406 26.5845 18.5051C25.8183 18.6696 25.0224 18.6043 24.2976 18.3176C23.5727 18.0309 22.9515 17.5356 22.5125 16.8943C22.0736 16.2531 21.8366 15.4948 21.8315 14.7154C21.8265 13.936 22.0536 13.1705 22.4842 12.5158C22.9148 11.8611 23.5295 11.3466 24.2504 11.0374C24.7283 10.8318 25.2413 10.7217 25.7601 10.7133C26.2789 10.705 26.7934 10.7985 27.274 10.9887C27.7547 11.1788 28.1922 11.4618 28.5616 11.8215C28.9309 12.1812 29.2248 12.6105 29.4265 13.085Z" fill="#F9C0A8"/>
<path d="M28.5591 13.4574C28.7916 14.0023 28.8559 14.6051 28.744 15.1896C28.6321 15.7741 28.349 16.3139 27.9305 16.7408C27.512 17.1677 26.9769 17.4624 26.393 17.5877C25.8091 17.713 25.2026 17.6632 24.6502 17.4446C24.0979 17.2261 23.6245 16.8485 23.2901 16.3598C22.9556 15.8711 22.7751 15.2932 22.7713 14.6992C22.7676 14.1052 22.9408 13.5219 23.269 13.023C23.5973 12.5241 24.0658 12.1322 24.6153 11.8967C24.9794 11.7401 25.3703 11.6562 25.7656 11.6499C26.161 11.6436 26.5529 11.7149 26.9192 11.8599C27.2854 12.0048 27.6188 12.2205 27.9002 12.4946C28.1815 12.7687 28.4055 13.0959 28.5591 13.4574Z" fill="#FCD3C3"/>
<path d="M25.7398 13.0082C25.8284 12.9203 25.8309 12.7795 25.7455 12.6937C25.66 12.6079 25.5189 12.6095 25.4303 12.6974L24.1598 13.9578C24.0712 14.0457 24.0687 14.1866 24.1542 14.2724C24.2396 14.3582 24.3807 14.3566 24.4693 14.2687L24.8335 13.9074C24.9838 13.7578 25.2053 13.7072 25.3998 13.7781L24.6876 14.4847C24.599 14.5725 24.5965 14.7135 24.6819 14.7993C24.7674 14.8851 24.9086 14.8834 24.9971 14.7956L25.7094 14.0889C25.7782 14.2837 25.7263 14.504 25.5763 14.6535L25.2122 15.0147C25.1465 15.0801 25.1261 15.1777 25.1606 15.261C25.1952 15.3444 25.2778 15.3969 25.3692 15.3935L27.1052 15.3242C27.1623 15.3216 27.2168 15.2974 27.2576 15.2564C27.3015 15.2124 27.3264 15.1532 27.3268 15.0921C27.3262 15.0332 27.3023 14.9777 27.2601 14.9378C27.218 14.8979 27.1612 14.8768 27.1022 14.8792L25.9243 14.9262C26.2194 14.5986 26.2696 14.1229 26.0478 13.7563L26.2676 13.5383C26.3562 13.4504 26.3587 13.3095 26.2732 13.2237C26.1877 13.1378 26.0466 13.1395 25.958 13.2274L25.7383 13.4454C25.6425 13.3865 25.5366 13.3452 25.4254 13.3233L25.7414 13.0098L25.7398 13.0082Z" fill="#F38D5D"/>
<path d="M28.5221 13.3728C28.5048 13.3764 28.4429 13.265 28.3082 13.0732C28.1205 12.8029 27.8915 12.5638 27.6293 12.3644C27.4489 12.2292 27.2542 12.114 27.0485 12.0207C26.8119 11.9158 26.5625 11.8418 26.3064 11.8003C26.1688 11.7771 26.0295 11.7645 25.8898 11.7625C25.5942 11.7568 25.2991 11.7955 25.0142 11.8772C24.8648 11.9206 24.7188 11.975 24.5774 12.0401C24.4365 12.1067 24.3006 12.1833 24.1705 12.2692C24.045 12.3538 23.9261 12.4478 23.8149 12.5505C23.7067 12.6484 23.6066 12.7549 23.5155 12.8688C23.4271 12.9785 23.3469 13.0944 23.2756 13.2157C23.1423 13.4386 23.0382 13.6775 22.9658 13.9263C22.9032 14.1438 22.865 14.3674 22.8519 14.5929C22.8344 14.9225 22.8682 15.2525 22.9522 15.5709C23.012 15.7979 23.0593 15.9212 23.0428 15.9286C23.0263 15.9359 22.9542 15.8236 22.8668 15.5983C22.745 15.2766 22.6846 14.9345 22.6886 14.5896C22.6948 14.0711 22.8348 13.5618 23.0952 13.1107C23.2487 12.8436 23.4407 12.6003 23.6652 12.3885C23.784 12.2767 23.9117 12.1746 24.0469 12.0831C24.1864 11.9893 24.3329 11.9062 24.4849 11.8346C24.6377 11.7642 24.7956 11.7056 24.9573 11.6595C25.1144 11.6139 25.2747 11.5811 25.4369 11.5614C25.5927 11.5428 25.7497 11.5366 25.9063 11.5427C26.0563 11.5475 26.2056 11.5637 26.353 11.5913C26.6239 11.643 26.8863 11.7309 27.1331 11.8525C27.3462 11.957 27.5459 12.0864 27.7281 12.238C27.9937 12.4573 28.2156 12.7242 28.3826 13.0252C28.4993 13.2375 28.5349 13.3672 28.5221 13.3728Z" fill="#F38D5D"/>
<path d="M51.8254 60.6662C51.7514 61.2775 51.4961 61.8535 51.0917 62.3215C50.6872 62.7895 50.1519 63.1283 49.5534 63.2951C48.9548 63.4619 48.3201 63.4492 47.7294 63.2586C47.1387 63.068 46.6186 62.7081 46.2349 62.2243C45.8513 61.7406 45.6213 61.1548 45.5741 60.5411C45.527 59.9274 45.6647 59.3134 45.9699 58.7768C46.2751 58.2401 46.7341 57.805 47.2887 57.5264C47.8434 57.2479 48.4688 57.1384 49.0858 57.2119C49.495 57.2601 49.8905 57.3877 50.2497 57.5874C50.6088 57.7871 50.9247 58.0551 51.1791 58.3758C51.4335 58.6966 51.6215 59.064 51.7324 59.457C51.8433 59.85 51.8749 60.2609 51.8254 60.6662Z" fill="#F9C0A8"/>
<path d="M51.0822 60.5782C51.0258 61.0441 50.8312 61.4831 50.523 61.8397C50.2147 62.1963 49.8067 62.4545 49.3506 62.5815C48.8945 62.7086 48.4107 62.6989 47.9606 62.5536C47.5104 62.4083 47.1141 62.1339 46.8218 61.7652C46.5295 61.3966 46.3543 60.9501 46.3184 60.4824C46.2826 60.0148 46.3876 59.5468 46.6203 59.1379C46.8529 58.729 47.2028 58.3975 47.6255 58.1853C48.0482 57.9731 48.5248 57.8897 48.995 57.9458C49.3068 57.9826 49.6081 58.0799 49.8818 58.2321C50.1555 58.3843 50.3961 58.5885 50.5899 58.833C50.7837 59.0775 50.927 59.3574 51.0114 59.6569C51.0959 59.9563 51.1199 60.2694 51.0822 60.5782Z" fill="#FCD3C3"/>
<path d="M49.3267 59.1528C49.4223 59.1276 49.4798 59.032 49.4551 58.9393C49.4305 58.8466 49.333 58.7918 49.2375 58.817L47.8668 59.1784C47.7712 59.2036 47.7137 59.2993 47.7384 59.392C47.763 59.4847 47.8604 59.5394 47.956 59.5142L48.3489 59.4106C48.5112 59.3675 48.6832 59.4206 48.7886 59.5462L48.0202 59.7489C47.9246 59.7741 47.8671 59.8697 47.8917 59.9624C47.9163 60.0551 48.0138 60.1099 48.1094 60.0847L48.8778 59.882C48.8479 60.0429 48.725 60.1734 48.563 60.2166L48.1701 60.3202C48.0992 60.339 48.0465 60.3978 48.0372 60.4687C48.0279 60.5396 48.0638 60.6083 48.1278 60.6422L49.346 61.2822C49.3862 61.303 49.4333 61.3079 49.4775 61.296C49.525 61.2832 49.5655 61.2524 49.59 61.2107C49.6129 61.1701 49.6184 61.1225 49.6054 61.0785C49.5923 61.0344 49.5616 60.9974 49.5202 60.9757L48.6937 60.5415C49.0258 60.4337 49.2486 60.1272 49.2417 59.7879L49.4788 59.7254C49.5744 59.7002 49.6319 59.6046 49.6072 59.5118C49.5826 59.4191 49.4852 59.3644 49.3896 59.3896L49.1525 59.4521C49.1101 59.3738 49.0538 59.3034 48.9862 59.2444L49.3271 59.1545L49.3267 59.1528Z" fill="#F38D5D"/>
<path d="M51.09 60.5056C51.0767 60.5012 51.0784 60.4003 51.062 60.2154C51.0402 59.9557 50.9778 59.7009 50.877 59.4603C50.8068 59.2962 50.7188 59.14 50.6147 58.9946C50.4939 58.8289 50.3522 58.6794 50.1929 58.5495C50.1077 58.4791 50.0172 58.4152 49.9221 58.3586C49.7216 58.2376 49.5039 58.1472 49.2761 58.0905C49.1565 58.0611 49.0347 58.0406 48.912 58.0292C48.7889 58.0191 48.6653 58.0178 48.5421 58.0253C48.4225 58.0336 48.3037 58.051 48.1868 58.0773C48.0738 58.1017 47.9629 58.1351 47.8553 58.1772C47.7513 58.2174 47.6504 58.2651 47.5534 58.3201C47.3737 58.4202 47.2077 58.5428 47.0595 58.6849C46.9304 58.8092 46.8157 58.9475 46.7174 59.097C46.5748 59.3161 46.4674 59.5559 46.3989 59.8076C46.35 59.987 46.3336 60.0903 46.3194 60.0888C46.3051 60.0873 46.3002 59.9817 46.3294 59.7925C46.3733 59.5236 46.4673 59.265 46.6067 59.03C46.8162 58.6769 47.114 58.383 47.4713 58.1766C47.6823 58.0542 47.9104 57.9633 48.1482 57.907C48.2741 57.8773 48.4021 57.8578 48.5311 57.8487C48.6639 57.8396 48.7972 57.8406 48.9299 57.8517C49.0626 57.8638 49.1941 57.8862 49.3233 57.9186C49.4491 57.9496 49.5721 57.9906 49.6911 58.0413C49.8054 58.0902 49.9155 58.1481 50.0205 58.2144C50.1215 58.277 50.2175 58.3473 50.3076 58.4246C50.473 58.5673 50.6182 58.7315 50.7393 58.9127C50.8441 59.0688 50.9299 59.2366 50.9948 59.4127C51.0901 59.6683 51.1366 59.9393 51.132 60.2119C51.128 60.4038 51.101 60.5069 51.09 60.5056Z" fill="#F38D5D"/>
<path d="M19.5684 16.2859C19.81 16.8522 19.8769 17.4788 19.7606 18.0863C19.6444 18.6938 19.3502 19.2549 18.9152 19.6986C18.4803 20.1423 17.9242 20.4487 17.3174 20.579C16.7105 20.7092 16.0801 20.6576 15.506 20.4305C14.9319 20.2034 14.4398 19.811 14.0921 19.3031C13.7444 18.7953 13.5567 18.1946 13.5527 17.5773C13.5487 16.9599 13.7286 16.3536 14.0697 15.8351C14.4107 15.3165 14.8976 14.909 15.4687 14.6641C15.8472 14.5013 16.2535 14.414 16.6644 14.4074C17.0753 14.4008 17.4828 14.4749 17.8635 14.6255C18.2443 14.7761 18.5908 15.0003 18.8833 15.2852C19.1758 15.5701 19.4086 15.9101 19.5684 16.2859Z" fill="#F9C0A8"/>
<path d="M18.8814 16.5814C19.0655 17.013 19.1164 17.4905 19.0278 17.9534C18.9391 18.4164 18.7149 18.8439 18.3834 19.1821C18.052 19.5202 17.6282 19.7536 17.1657 19.8529C16.7032 19.9521 16.2228 19.9126 15.7853 19.7395C15.3478 19.5664 14.9729 19.2674 14.7079 18.8803C14.443 18.4932 14.3 18.0354 14.2971 17.565C14.2941 17.0945 14.4313 16.6325 14.6913 16.2373C14.9513 15.8422 15.3224 15.5317 15.7576 15.3452C16.046 15.2212 16.3556 15.1548 16.6688 15.1498C16.9819 15.1447 17.2923 15.2013 17.5824 15.3161C17.8725 15.4309 18.1365 15.6017 18.3594 15.8188C18.5823 16.0359 18.7596 16.295 18.8814 16.5814Z" fill="#FCD3C3"/>
<path d="M16.6493 16.2249C16.7195 16.1553 16.7215 16.0438 16.6538 15.9758C16.5861 15.9078 16.4743 15.9091 16.4041 15.9787L15.3979 16.9771C15.3277 17.0467 15.3257 17.1583 15.3934 17.2262C15.4611 17.2942 15.5728 17.2929 15.643 17.2233L15.9314 16.9371C16.0505 16.8186 16.226 16.7786 16.38 16.8347L15.8159 17.3944C15.7457 17.464 15.7437 17.5756 15.8114 17.6436C15.8791 17.7116 15.9909 17.7102 16.061 17.6406L16.6252 17.0809C16.6798 17.2352 16.6386 17.4096 16.5198 17.5281L16.2314 17.8142C16.1793 17.8659 16.1632 17.9433 16.1906 18.0093C16.2179 18.0753 16.2834 18.1169 16.3558 18.1142L17.7308 18.0593C17.776 18.0573 17.8192 18.0381 17.8515 18.0056C17.8863 17.9708 17.906 17.9239 17.9063 17.8754C17.9059 17.8288 17.8869 17.7849 17.8535 17.7533C17.8201 17.7216 17.7751 17.705 17.7284 17.7069L16.7955 17.744C17.0292 17.4846 17.069 17.1078 16.8933 16.8174L17.0673 16.6448C17.1375 16.5751 17.1395 16.4636 17.0718 16.3956C17.0041 16.3276 16.8923 16.3289 16.8222 16.3985L16.6481 16.5712C16.5723 16.5246 16.4883 16.4918 16.4003 16.4745L16.6506 16.2262L16.6493 16.2249Z" fill="#F38D5D"/>
<path d="M18.8527 16.5148C18.839 16.5176 18.79 16.4294 18.6833 16.2774C18.5346 16.0634 18.3532 15.874 18.1456 15.716C18.0027 15.609 17.8484 15.5177 17.6855 15.4438C17.4981 15.3608 17.3006 15.3021 17.0978 15.2693C16.9888 15.2509 16.8785 15.2409 16.7678 15.2393C16.5337 15.2348 16.2999 15.2654 16.0743 15.3301C15.956 15.3645 15.8403 15.4076 15.7282 15.4591C15.6167 15.512 15.509 15.5726 15.406 15.6407C15.3066 15.7077 15.2124 15.7821 15.1243 15.8634C15.0386 15.941 14.9593 16.0254 14.8872 16.1156C14.8172 16.2024 14.7537 16.2943 14.6972 16.3903C14.5916 16.5669 14.5091 16.7561 14.4518 16.9532C14.4022 17.1255 14.3719 17.3025 14.3616 17.4811C14.3477 17.7422 14.3745 18.0036 14.4411 18.2558C14.4884 18.4356 14.5259 18.5333 14.5128 18.5391C14.4997 18.5449 14.4426 18.456 14.3734 18.2775C14.2769 18.0227 14.2291 17.7517 14.2322 17.4785C14.2371 17.0679 14.348 16.6645 14.5543 16.3072C14.6758 16.0956 14.828 15.9029 15.0057 15.7352C15.0999 15.6466 15.201 15.5657 15.3081 15.4932C15.4186 15.4189 15.5346 15.3532 15.655 15.2964C15.776 15.2406 15.9011 15.1943 16.0292 15.1578C16.1536 15.1216 16.2806 15.0956 16.4091 15.08C16.5325 15.0653 16.6568 15.0603 16.7808 15.0652C16.8997 15.069 17.0179 15.0818 17.1346 15.1037C17.3492 15.1447 17.557 15.2142 17.7525 15.3106C17.9213 15.3934 18.0795 15.4958 18.2238 15.6159C18.4342 15.7896 18.6099 16.001 18.7422 16.2394C18.8347 16.4076 18.8629 16.5103 18.8527 16.5148Z" fill="#F38D5D"/>
<path d="M45.3313 65.5171C45.238 66.2888 44.9156 67.0161 44.405 67.6069C43.8944 68.1978 43.2185 68.6255 42.4628 68.8362C41.7072 69.0468 40.9058 69.0307 40.16 68.7901C39.4142 68.5494 38.7576 68.095 38.2732 67.4842C37.7888 66.8735 37.4985 66.1339 37.439 65.3591C37.3794 64.5843 37.5533 63.8091 37.9386 63.1316C38.324 62.4541 38.9034 61.9047 39.6037 61.553C40.3039 61.2013 41.0935 61.0631 41.8725 61.1558C42.3891 61.2167 42.8885 61.3778 43.3419 61.63C43.7954 61.8822 44.1942 62.2204 44.5154 62.6254C44.8366 63.0304 45.074 63.4943 45.214 63.9904C45.354 64.4866 45.3938 65.0054 45.3313 65.5171Z" fill="#F9C0A8"/>
<path d="M44.3942 65.4066C44.3231 65.9947 44.0774 66.549 43.6882 66.9992C43.299 67.4494 42.7839 67.7754 42.2081 67.9358C41.6322 68.0963 41.0215 68.084 40.4531 67.9005C39.8848 67.7171 39.3844 67.3707 39.0154 66.9052C38.6463 66.4397 38.4252 65.8761 38.3799 65.2856C38.3346 64.6952 38.4672 64.1044 38.7609 63.5882C39.0547 63.0719 39.4963 62.6533 40.03 62.3854C40.5637 62.1175 41.1655 62.0123 41.7591 62.0831C42.1528 62.1295 42.5332 62.2524 42.8787 62.4445C43.2242 62.6367 43.528 62.8945 43.7728 63.2032C44.0175 63.5118 44.1983 63.8652 44.3049 64.2433C44.4116 64.6214 44.4419 65.0167 44.3942 65.4066Z" fill="#FCD3C3"/>
<path d="M42.1773 63.6069C42.298 63.575 42.3706 63.4543 42.3395 63.3373C42.3084 63.2202 42.1854 63.1511 42.0647 63.1829L40.3342 63.6392C40.2135 63.671 40.141 63.7918 40.172 63.9088C40.2032 64.0259 40.3262 64.095 40.4469 64.0632L40.9428 63.9324C41.1478 63.878 41.365 63.9449 41.498 64.1036L40.5278 64.3594C40.4072 64.3912 40.3346 64.512 40.3656 64.629C40.3968 64.7461 40.5199 64.8152 40.6405 64.7834L41.6106 64.5275C41.5729 64.7307 41.4178 64.8955 41.2131 64.9499L40.7172 65.0807C40.6276 65.1044 40.5611 65.1788 40.5493 65.2683C40.5376 65.3578 40.5829 65.4445 40.6638 65.4873L42.2018 66.2953C42.2525 66.3216 42.3119 66.3278 42.3677 66.3127C42.4277 66.2966 42.4789 66.2577 42.5098 66.205C42.5387 66.1538 42.5457 66.0937 42.5292 66.0381C42.5127 65.9825 42.474 65.9358 42.4217 65.9084L41.3782 65.3601C41.7975 65.224 42.0788 64.8371 42.0701 64.4087L42.3694 64.3298C42.4901 64.2979 42.5627 64.1773 42.5316 64.0602C42.5004 63.9431 42.3774 63.874 42.2567 63.9058L41.9574 63.9847C41.9039 63.8859 41.8329 63.797 41.7475 63.7225L42.1779 63.609L42.1773 63.6069Z" fill="#F38D5D"/>
<path d="M44.4048 65.3149C44.3881 65.3093 44.3902 65.1819 44.3695 64.9484C44.342 64.6205 44.2633 64.2989 44.1359 63.9952C44.0473 63.7879 43.9362 63.5907 43.8048 63.4071C43.6523 63.198 43.4733 63.0092 43.2723 62.8452C43.1647 62.7563 43.0504 62.6757 42.9304 62.6041C42.6773 62.4514 42.4023 62.3373 42.1148 62.2657C41.9637 62.2286 41.81 62.2027 41.655 62.1883C41.4997 62.1756 41.3437 62.174 41.1881 62.1833C41.0371 62.1938 40.8871 62.2158 40.7395 62.2491C40.5968 62.2798 40.4569 62.322 40.321 62.3751C40.1896 62.4259 40.0622 62.4862 39.9398 62.5556C39.7129 62.682 39.5033 62.8367 39.3163 63.0161C39.1533 63.1731 39.0084 63.3476 38.8843 63.5364C38.7043 63.8131 38.5687 64.1158 38.4822 64.4336C38.4205 64.66 38.3998 64.7905 38.3818 64.7886C38.3638 64.7867 38.3576 64.6534 38.3945 64.4146C38.4499 64.075 38.5686 63.7486 38.7446 63.4519C39.0091 63.006 39.385 62.6349 39.8361 62.3744C40.1026 62.2199 40.3906 62.1051 40.6908 62.034C40.8497 61.9966 41.0113 61.972 41.1741 61.9604C41.3419 61.9489 41.5102 61.9502 41.6777 61.9642C41.8452 61.9795 42.0112 62.0078 42.1743 62.0487C42.3331 62.0878 42.4885 62.1395 42.6387 62.2035C42.783 62.2653 42.922 62.3384 43.0545 62.4221C43.1821 62.5012 43.3033 62.5899 43.4171 62.6874C43.6259 62.8677 43.8092 63.075 43.9621 63.3037C44.0944 63.5008 44.2027 63.7127 44.2847 63.9351C44.405 64.2578 44.4637 64.5999 44.4578 64.944C44.4528 65.1863 44.4188 65.3164 44.4048 65.3149Z" fill="#F38D5D"/>
<g clip-path="url(#clip0_7_51869)">
<path d="M65.8022 27.9954L52.7637 27.3659L51.8096 46.8006L64.8481 47.4302L65.8022 27.9954Z" fill="white" stroke="#263238" stroke-width="0.114759" stroke-linecap="round" stroke-linejoin="round"/>
<path d="M53.6766 28.7368L57.0706 28.8939" stroke="#263238" stroke-width="0.229517" stroke-linecap="round" stroke-linejoin="round"/>
<path d="M53.6453 29.3833L55.9535 29.4892" stroke="#263238" stroke-width="0.229517" stroke-linecap="round" stroke-linejoin="round"/>
<path d="M54.4005 30.947L64.1628 31.3976" stroke="#263238" stroke-width="0.229517" stroke-linecap="round" stroke-linejoin="round"/>
<path d="M54.3704 31.5913L64.1325 32.0434" stroke="#263238" stroke-width="0.229517" stroke-linecap="round" stroke-linejoin="round"/>
<path d="M54.3362 32.3453L62.6614 32.7308" stroke="#263238" stroke-width="0.229517" stroke-linecap="round" stroke-linejoin="round"/>
<path d="M55.1396 33.0709L54.3457 33.0343L54.3087 33.8216L55.1027 33.8583L55.1396 33.0709Z" stroke="#263238" stroke-width="0.114759" stroke-linecap="round" stroke-linejoin="round"/>
<path d="M56.5781 33.1366L55.7842 33.1L55.7472 33.8873L56.5411 33.924L56.5781 33.1366Z" stroke="#263238" stroke-width="0.114759" stroke-linecap="round" stroke-linejoin="round"/>
<path d="M58.0185 33.2036L57.2246 33.1669L57.1876 33.9543L57.9816 33.991L58.0185 33.2036Z" stroke="#263238" stroke-width="0.114759" stroke-linecap="round" stroke-linejoin="round"/>
<path d="M59.457 33.2694L58.6631 33.2327L58.6261 34.0201L59.42 34.0567L59.457 33.2694Z" stroke="#263238" stroke-width="0.114759" stroke-linecap="round" stroke-linejoin="round"/>
<path d="M53.8819 30.9216C53.8805 30.9609 53.8672 30.9988 53.8439 31.0307C53.8207 31.0625 53.7884 31.0867 53.7511 31.1003C53.7139 31.1139 53.6735 31.1161 53.635 31.1069C53.5964 31.0976 53.5616 31.0771 53.5348 31.0481C53.508 31.0191 53.4905 30.9829 53.4846 30.944C53.4786 30.9051 53.4845 30.8654 53.5014 30.8298C53.5182 30.7942 53.5454 30.7645 53.5794 30.7442C53.6134 30.724 53.6527 30.7143 53.6923 30.7163C53.7448 30.7189 53.7941 30.7419 53.8296 30.7804C53.8651 30.8188 53.8839 30.8695 53.8819 30.9216Z" fill="#263238"/>
<path d="M54.2237 34.7153L63.986 35.1659" stroke="#263238" stroke-width="0.229517" stroke-linecap="round" stroke-linejoin="round"/>
<path d="M54.1937 35.3602L63.9558 35.8123" stroke="#263238" stroke-width="0.229517" stroke-linecap="round" stroke-linejoin="round"/>
<path d="M54.1583 36.1157L62.4837 36.4997" stroke="#263238" stroke-width="0.229517" stroke-linecap="round" stroke-linejoin="round"/>
<path d="M54.9629 36.8392L54.1689 36.8026L54.132 37.5899L54.9259 37.6266L54.9629 36.8392Z" stroke="#263238" stroke-width="0.114759" stroke-linecap="round" stroke-linejoin="round"/>
<path d="M56.4014 36.9061L55.6074 36.8694L55.5704 37.6568L56.3644 37.6935L56.4014 36.9061Z" stroke="#263238" stroke-width="0.114759" stroke-linecap="round" stroke-linejoin="round"/>
<path d="M57.8408 36.9731L57.0469 36.9364L57.0099 37.7238L57.8038 37.7605L57.8408 36.9731Z" stroke="#263238" stroke-width="0.114759" stroke-linecap="round" stroke-linejoin="round"/>
<path d="M59.2793 37.0389L58.4854 37.0022L58.4484 37.7896L59.2423 37.8262L59.2793 37.0389Z" stroke="#263238" stroke-width="0.114759" stroke-linecap="round" stroke-linejoin="round"/>
<path d="M53.7051 34.692C53.7033 34.7312 53.6898 34.769 53.6664 34.8007C53.6429 34.8323 53.6105 34.8563 53.5733 34.8696C53.536 34.8829 53.4956 34.885 53.4572 34.8755C53.4188 34.866 53.3841 34.8455 53.3575 34.8164C53.3308 34.7873 53.3135 34.7511 53.3077 34.7122C53.3019 34.6734 53.3079 34.6337 53.3248 34.5983C53.3418 34.5628 53.369 34.5331 53.4029 34.513C53.4369 34.4928 53.4762 34.4832 53.5157 34.4852C53.5684 34.4879 53.6179 34.5111 53.6534 34.5499C53.6889 34.5886 53.7075 34.6397 53.7051 34.692Z" fill="#263238"/>
<path d="M54.0462 38.4832L63.8083 38.9353" stroke="#263238" stroke-width="0.229517" stroke-linecap="round" stroke-linejoin="round"/>
<path d="M54.0167 39.1306L63.7774 39.581" stroke="#263238" stroke-width="0.229517" stroke-linecap="round" stroke-linejoin="round"/>
<path d="M53.9815 39.8845L62.3069 40.2685" stroke="#263238" stroke-width="0.229517" stroke-linecap="round" stroke-linejoin="round"/>
<path d="M54.7861 40.6074L53.9922 40.5707L53.9552 41.3581L54.7491 41.3948L54.7861 40.6074Z" stroke="#263238" stroke-width="0.114759" stroke-linecap="round" stroke-linejoin="round"/>
<path d="M56.2246 40.6744L55.4307 40.6377L55.3937 41.4251L56.1876 41.4618L56.2246 40.6744Z" stroke="#263238" stroke-width="0.114759" stroke-linecap="round" stroke-linejoin="round"/>
<path d="M57.665 40.7426L56.8711 40.7059L56.8341 41.4933L57.628 41.5299L57.665 40.7426Z" stroke="#263238" stroke-width="0.114759" stroke-linecap="round" stroke-linejoin="round"/>
<path d="M59.1025 40.8083L58.3086 40.7717L58.2716 41.559L59.0655 41.5957L59.1025 40.8083Z" stroke="#263238" stroke-width="0.114759" stroke-linecap="round" stroke-linejoin="round"/>
<path d="M53.5283 38.4602C53.5266 38.4994 53.5131 38.5372 53.4896 38.5688C53.4661 38.6005 53.4337 38.6245 53.3965 38.6378C53.3593 38.6511 53.3189 38.6532 53.2805 38.6437C53.242 38.6342 53.2073 38.6136 53.1807 38.5846C53.1541 38.5555 53.1368 38.5193 53.131 38.4804C53.1252 38.4416 53.1311 38.4019 53.1481 38.3664C53.165 38.331 53.1922 38.3013 53.2262 38.2811C53.2602 38.261 53.2994 38.2513 53.339 38.2534C53.3917 38.2561 53.4412 38.2793 53.4766 38.3181C53.5121 38.3568 53.5307 38.4079 53.5283 38.4602Z" fill="#263238"/>
<path d="M53.8656 42.3592L63.6261 42.8111" stroke="#263238" stroke-width="0.229517" stroke-linecap="round" stroke-linejoin="round"/>
<path d="M53.8353 43.0063L63.5958 43.4582" stroke="#263238" stroke-width="0.229517" stroke-linecap="round" stroke-linejoin="round"/>
<path d="M53.7981 43.7596L62.1233 44.1452" stroke="#263238" stroke-width="0.229517" stroke-linecap="round" stroke-linejoin="round"/>
<path d="M54.6045 44.4846L53.8105 44.448L53.7736 45.2353L54.5675 45.272L54.6045 44.4846Z" stroke="#263238" stroke-width="0.114759" stroke-linecap="round" stroke-linejoin="round"/>
<path d="M56.042 44.551L55.248 44.5143L55.2111 45.3017L56.005 45.3384L56.042 44.551Z" stroke="#263238" stroke-width="0.114759" stroke-linecap="round" stroke-linejoin="round"/>
<path d="M57.4814 44.6174L56.6875 44.5807L56.6505 45.3681L57.4445 45.4048L57.4814 44.6174Z" stroke="#263238" stroke-width="0.114759" stroke-linecap="round" stroke-linejoin="round"/>
<path d="M58.9219 44.6832L58.1279 44.6465L58.091 45.4339L58.8849 45.4705L58.9219 44.6832Z" stroke="#263238" stroke-width="0.114759" stroke-linecap="round" stroke-linejoin="round"/>
<path d="M53.3516 42.3369C53.3499 42.3757 53.3365 42.4132 53.3133 42.4445C53.2901 42.4759 53.2581 42.4997 53.2212 42.513C53.1844 42.5262 53.1444 42.5284 53.1063 42.5191C53.0682 42.5098 53.0338 42.4896 53.0073 42.4609C52.9808 42.4323 52.9635 42.3964 52.9575 42.358C52.9516 42.3196 52.9572 42.2803 52.9738 42.245C52.9903 42.2098 53.0171 42.1802 53.0506 42.16C53.0841 42.1398 53.1229 42.1299 53.162 42.1316C53.1881 42.1327 53.2137 42.1389 53.2373 42.1498C53.2609 42.1608 53.2821 42.1762 53.2998 42.1953C53.3174 42.2143 53.331 42.2367 53.3399 42.261C53.3488 42.2853 53.3528 42.3111 53.3516 42.3369Z" fill="#263238"/>
<path d="M54.6154 33.3616L54.7195 33.536L55.14 33.0717" stroke="#263238" stroke-width="0.229517" stroke-linecap="round" stroke-linejoin="round"/>
<path d="M57.3185 37.2157L57.4224 37.3916L57.8431 36.9257" stroke="#263238" stroke-width="0.229517" stroke-linecap="round" stroke-linejoin="round"/>
<path d="M55.6974 40.9961L55.8029 41.1722L56.222 40.7061" stroke="#263238" stroke-width="0.229517" stroke-linecap="round" stroke-linejoin="round"/>
<path d="M58.3781 44.9732L58.482 45.1491L58.9027 44.6833" stroke="#263238" stroke-width="0.229517" stroke-linecap="round" stroke-linejoin="round"/>
</g>
<path opacity="0.2" d="M53.3382 48.5396C53.3382 48.5396 53.3224 55.9614 53.3382 56.3942C53.3539 56.827 53.9275 59.4336 53.9275 59.4336L52.1025 62.7563L53.6741 64.0062L56.7287 61.0387C56.7287 61.0387 59.3296 62.6263 59.805 64.8971C60.2804 67.1679 63.1111 68.8215 66.0479 75.1098C68.9847 81.3982 72.3341 61.0387 72.3341 61.0387L63.2722 49.7681L53.3382 48.5396Z" fill="black" fill-opacity="0.7"/>
<path d="M80.6464 77.5585L66.699 79.903C66.699 79.903 64.271 67.1613 62.8232 65.1525C61.3755 63.1438 61.6446 62.3189 60.9374 60.9661C60.5131 60.149 58.3837 58.6255 56.7159 57.1213C56.5705 56.9913 56.4291 56.8612 56.2935 56.7331C56.2346 56.6807 56.1796 56.6244 56.1246 56.572C55.9026 56.3547 55.6963 56.1431 55.5136 55.9354C55.4469 55.8617 55.3814 55.7879 55.3172 55.7142C55.0075 55.3735 54.7769 54.9701 54.6414 54.5322C54.6355 54.5126 54.6315 54.4924 54.6297 54.472C54.624 54.4484 54.62 54.4244 54.6179 54.4002C54.5805 54.0994 54.5413 53.7559 54.502 53.3832C54.502 53.3095 54.4863 53.2318 54.4764 53.1542L54.4646 53.061C54.4313 52.7505 54.3939 52.4206 54.3507 52.0809C54.3075 51.7413 54.2603 51.357 54.2053 50.9863C54.1877 50.8582 54.17 50.7301 54.1484 50.5981C54.1268 50.4545 54.1032 50.3108 54.0796 50.1653L54.0148 49.7926C54.0148 49.7713 54.005 49.7519 54.003 49.7344L53.9244 49.2977C53.9191 49.282 53.9158 49.2657 53.9146 49.2492C53.8871 49.123 53.8616 48.9988 53.8321 48.8727C53.7712 48.5913 53.7025 48.3157 53.6357 48.0478C53.5004 47.5437 53.3264 47.0506 53.1151 46.5728C52.1093 44.3544 53.4176 45.1559 52.6299 39.4479C52.6299 39.4479 53.2094 38.1242 54.8615 39.182C54.9891 39.2643 55.1124 39.353 55.2308 39.4479C55.5656 39.7154 55.8611 40.0277 56.1089 40.3756C56.4447 40.8494 56.7008 41.3737 56.8671 41.9283C57.1371 42.8278 57.2134 43.7733 57.0911 44.7037C57.0911 44.7037 58.3326 48.9076 58.9867 49.8645C59.6409 50.8213 62.3459 45.3248 62.1711 44.6843C62.1097 44.397 62.0631 44.1068 62.0316 43.8148C62.0198 43.7197 62.008 43.6207 61.9943 43.512C61.9805 43.4034 61.9687 43.2947 61.9569 43.1802C61.9569 43.1258 61.9432 43.0676 61.9353 43.0113C61.9353 42.988 61.9353 42.9647 61.9353 42.9434C61.9118 42.7241 61.8843 42.4912 61.8587 42.2505C61.8587 42.1826 61.845 42.1185 61.8371 42.0564L61.8017 41.707C61.8006 41.6877 61.8006 41.6682 61.8017 41.6488C61.8017 41.5828 61.786 41.5149 61.7801 41.445C61.7644 41.3092 61.7507 41.1714 61.7369 41.0336C61.7232 40.8958 61.7133 40.7968 61.7016 40.6784C61.678 40.4552 61.6564 40.232 61.6348 40.0166C61.6191 39.8555 61.6033 39.6963 61.5896 39.5411C61.5896 39.5061 61.5896 39.4712 61.5798 39.4382C61.4973 38.5842 61.4324 37.8855 61.4089 37.5827C61.4089 37.5827 59.4444 34.7064 59.248 33.3517C59.0516 31.997 59.0633 30.5704 59.8864 29.9901C61.8351 28.6199 61.2615 30.8286 62.1377 31.7369C63.0138 32.6452 64.3476 34.1494 65.1059 34.6171C65.8052 35.0557 66.4299 36.7521 66.5183 37.0082C66.4181 36.6356 65.4182 32.9713 65.3966 32.2337C65.3711 31.4574 64.77 27.3506 65.7895 25.8775C66.809 24.4044 68.1684 25.5475 68.2941 25.8386C68.4199 26.1298 68.4572 30.1085 68.8167 31.2148C69.1762 32.3211 70.6809 36.9345 70.6809 36.9345C70.6809 36.9345 70.7438 32.4472 71.0836 30.4385C71.4235 28.4297 72.3055 26.8595 73.1698 26.7702C74.0342 26.681 74.8337 27.6223 74.8337 27.6223C74.8337 27.6223 74.4919 30.8247 74.5901 31.5642C74.6883 32.3036 74.4487 34.9742 74.8592 36.4163C74.8592 36.4163 74.8121 32.5909 75.4132 32.1018C76.0143 31.6127 76.5309 31.3778 76.8688 31.7136C77.2067 32.0494 77.2794 34.3085 77.6232 35.671C77.9669 37.0335 77.9237 38.8851 78.1496 41.0103C78.3755 43.1355 79.2654 46.0856 79.0886 47.7722C78.9118 49.4588 78.3677 53.6413 77.9296 56.0965C77.4915 58.5517 76.3738 61.9191 76.3738 61.9191C76.3738 61.9191 76.8826 63.7144 76.7844 65.3156C76.6861 66.9168 80.6464 77.5585 80.6464 77.5585Z" fill="white"/>
<path opacity="0.8" d="M68.7936 31.2115C69.0608 32.0324 69.9526 34.7729 70.3966 36.1412C70.3966 36.1412 68.4479 37.5561 68.497 38.872C68.5461 40.1879 68.1394 42.843 67.2633 42.7673C66.3872 42.6916 66.4775 37.166 66.1809 36.2383C66.3597 36.6264 66.4736 36.9622 66.4972 37.0263C66.4324 36.7875 65.3912 32.9854 65.3696 32.2324C65.3696 32.0538 65.3284 31.7025 65.2871 31.2464V31.2367C65.2871 31.2367 67.224 29.4045 68.6463 30.5263C68.6781 30.758 68.7273 30.987 68.7936 31.2115Z" fill="#FFE4C8"/>
<path opacity="0.8" d="M74.5851 32.8015C73.6775 33.6536 72.3083 35.1558 72.1354 36.6056C72.1354 36.6056 72.6423 40.6542 72.4262 42.4185L70.6582 36.9433C70.6582 36.9433 70.7211 32.4561 71.0609 30.4473L71.0904 30.2823C72.1937 29.7267 73.4116 29.4292 74.6499 29.4128C74.574 30.127 74.5484 30.8456 74.5733 31.5633C74.5993 31.9755 74.6033 32.3889 74.5851 32.8015Z" fill="#FFE4C8"/>
<path opacity="0.4" d="M75.3876 32.0943C75.366 32.1098 75.3129 32.1506 75.2363 32.2166C75.2826 32.1291 75.3338 32.0442 75.3896 31.9623L75.3876 32.0943Z" fill="#92E3A9"/>
<path opacity="0.8" d="M75.851 43.2817C75.851 43.2817 74.6841 38.9575 74.6723 35.4756C74.6625 34.1868 74.8138 33.0126 75.2361 32.2188C75.2824 32.1313 75.3335 32.0465 75.3893 31.9646V32.0907C75.5996 31.9094 75.8335 31.7566 76.0847 31.6366C75.7567 32.1412 75.3795 33.1291 75.8156 34.7419C76.5012 37.2534 75.904 40.3238 75.851 43.2817Z" fill="#FFE4C8"/>
<path opacity="0.8" d="M59.7549 51.5287C59.7549 51.5287 60.0673 55.6491 56.716 57.1241C56.5706 56.9941 56.4292 56.8641 56.2936 56.736C56.2347 56.6836 56.1797 56.6273 56.1247 56.5749C55.9027 56.3575 55.6964 56.144 55.5137 55.9383C55.445 55.8626 55.3841 55.7888 55.3173 55.717C55.0076 55.3763 54.777 54.973 54.6415 54.535C54.6357 54.5154 54.6318 54.4953 54.6298 54.4749C54.6241 54.4513 54.6201 54.4272 54.618 54.4031C54.5806 54.1022 54.5414 53.7587 54.5021 53.3861C54.5021 53.3123 54.4864 53.2347 54.4765 53.157L54.4647 53.0639C54.4314 52.7514 54.394 52.4234 54.3508 52.0837C54.3076 51.7441 54.2604 51.3598 54.2054 50.9891C54.1858 50.861 54.1681 50.731 54.1485 50.6009C54.1269 50.4573 54.1033 50.3117 54.0797 50.1681L54.0149 49.7955L54.0031 49.7373C53.9756 49.5917 53.9501 49.45 53.9206 49.3064C53.9164 49.2904 53.9131 49.2742 53.9108 49.2579C53.8833 49.1317 53.8577 49.0056 53.8283 48.8813C53.7654 48.5999 53.6967 48.3243 53.6318 48.0565C54.9578 46.7949 58.0184 47.5868 56.5372 44.6658C56.5372 44.6658 57.2837 42.166 55.2269 39.4566C56.6335 40.5764 57.3544 42.5464 57.0872 44.6969C57.0872 44.6969 58.3288 48.8988 58.9829 49.8576C59.6371 50.8164 62.3421 45.3179 62.1672 44.6755C62.1058 44.389 62.0599 44.0994 62.0297 43.8079C62.016 43.7128 62.0042 43.6139 61.9924 43.5052C61.9806 43.3965 61.9649 43.2878 61.9531 43.1713C61.9531 43.1189 61.9394 43.0607 61.9315 43.0044C61.9315 42.9811 61.9315 42.9579 61.9315 42.9365C61.9079 42.7152 61.8824 42.4843 61.8549 42.2417C61.8549 42.1757 61.8411 42.1116 61.8333 42.0476C61.8333 41.9311 61.8097 41.8147 61.7979 41.6982C61.7969 41.6788 61.7969 41.6594 61.7979 41.64C61.7979 41.574 61.7822 41.5061 61.7763 41.4362C61.7606 41.2984 61.7488 41.1626 61.7331 41.0248L61.6977 40.6676C61.6742 40.4464 61.6526 40.2232 61.6309 40.0078C61.6172 39.8447 61.6015 39.6856 61.5858 39.5322C61.5858 39.4973 61.5858 39.4624 61.5759 39.4294C61.6309 39.6836 62.6269 44.3669 63.1946 45.4596C63.7623 46.5814 61.2911 52.4991 59.7549 51.5287Z" fill="#FFE4C8"/>
<path opacity="0.8" d="M77.9047 56.0912C77.4667 58.5484 76.3489 61.9138 76.3489 61.9138C76.3489 61.9138 76.8577 63.7091 76.7595 65.3103C76.732 65.7411 77.0031 66.828 77.4077 68.1886C77.2918 67.8897 76.0326 64.6834 76.0601 63.5635C76.0837 62.399 75.7458 62.0671 75.0779 60.6251C74.41 59.183 73.4062 59.3402 73.4062 59.3402C73.4062 59.3402 73.0133 62.9386 72.1018 60.5746C71.1903 58.2106 71.0116 55.4605 73.3158 45.9115C73.3158 45.9115 73.6635 47.109 73.3728 50.6666C73.0821 54.2241 73.9425 55.3013 73.9425 55.3013C75.2382 53.0713 76.2666 50.6998 77.007 48.2347C77.007 48.2347 76.7084 52.3861 76.4432 54.2765C76.178 56.1669 77.3881 52.0853 78.2328 49.5641C79.0185 47.1963 79.0559 46.2977 78.7534 44.613C78.9773 45.7989 79.1462 46.9304 79.0598 47.7572C78.8869 49.4419 78.3428 53.6283 77.9047 56.0912Z" fill="#FFE4C8"/>
<path opacity="0.8" d="M62.1445 64.0857C62.8242 65.1551 64.4881 66.5661 65.484 70.4691C66.48 74.3722 65.8514 78.644 65.8514 78.644L62.1445 64.0857Z" fill="#FFE4C8"/>
<path opacity="0.8" d="M56.7959 41.931C56.7959 41.931 53.3169 43.6778 53.0419 46.5891C52.0361 44.3707 53.3444 45.1722 52.5566 39.4642C52.5566 39.4642 53.1361 38.1405 54.7882 39.1983C54.9159 39.2806 55.0391 39.3693 55.1575 39.4642C55.4923 39.7317 55.7879 40.0439 56.0356 40.3919L56.7959 41.931Z" fill="#FFE4C8" fill-opacity="0.7"/>
<path d="M66.6991 79.9037C66.6991 79.9037 64.273 67.162 62.8233 65.1532C61.3736 63.1445 61.6447 62.3196 60.9375 60.9668C60.2303 59.614 54.8615 56.3204 54.6238 54.399C54.3861 52.4775 54.115 48.7938 53.1073 46.5754C52.0995 44.357 53.4098 45.1586 52.6201 39.4486C52.6201 39.4486 53.2094 38.1269 54.8537 39.1846C56.4979 40.2424 57.374 42.356 57.0852 44.6986C57.0852 44.6986 58.3268 48.9005 58.9829 49.8593C59.639 50.8181 62.3381 45.3197 62.1652 44.6772C61.9924 44.0348 61.4718 38.5694 61.3893 37.5737C61.3893 37.5737 59.4249 34.6954 59.2284 33.3407C59.032 31.986 59.0438 30.5595 59.8669 29.9811C61.8156 28.6109 61.2419 30.8196 62.1181 31.7279C62.9942 32.6362 64.328 34.1365 65.0843 34.6062C65.8406 35.0758 66.5086 37.0264 66.5086 37.0264C66.5086 37.0264 65.3987 33.0011 65.377 32.2228C65.3554 31.4445 64.7504 27.3396 65.7699 25.8665C66.7895 24.3934 68.1488 25.5366 68.2746 25.8277C68.4003 26.1188 68.4376 30.0976 68.7991 31.2019C69.1605 32.3062 70.6594 36.9235 70.6594 36.9235C70.6594 36.9235 70.7242 32.4363 71.064 30.4275C71.4039 28.4187 72.2879 26.8486 73.1502 26.7593C74.0126 26.67 74.8141 27.6113 74.8141 27.6113C74.8141 27.6113 74.4723 30.8137 74.5686 31.5532C74.6648 32.2927 74.4291 34.9613 74.8396 36.4053C74.8396 36.4053 74.7925 32.5799 75.3936 32.0908C75.9947 31.6017 76.5114 31.3669 76.8492 31.7026C77.1871 32.0384 77.2598 34.2976 77.6036 35.66C77.9474 37.0225 77.9061 38.8741 78.13 40.9993C78.354 43.1246 79.2458 46.0747 79.069 47.7593C78.8922 49.444 78.3481 53.6304 77.9081 56.0856C77.468 58.5407 76.3562 61.9081 76.3562 61.9081C76.3562 61.9081 76.865 63.7034 76.7648 65.3046C76.6646 66.9058 80.6524 77.565 80.6524 77.565" stroke="#263238" stroke-width="0.114759" stroke-linecap="round" stroke-linejoin="round"/>
<path d="M70.6543 36.9329C71.0609 37.8761 72.0647 41.8568 72.4223 42.41C72.604 42.7154 72.8697 42.9638 73.1884 43.1262" stroke="#263238" stroke-width="0.114759" stroke-linecap="round" stroke-linejoin="round"/>
<path d="M74.8339 36.4093C74.8339 36.4093 74.7475 37.2245 75.1934 39.8272C75.6393 42.4299 75.8573 43.5361 76.1088 44.1165" stroke="#263238" stroke-width="0.114759" stroke-linecap="round" stroke-linejoin="round"/>
<path d="M66.501 37.0363C67.0451 38.622 67.3535 41.149 67.6639 41.9098C67.9743 42.6706 68.2532 42.8278 68.2532 42.8278" stroke="#263238" stroke-width="0.114759" stroke-linecap="round" stroke-linejoin="round"/>
<path d="M67.3818 40.8399C67.7096 41.0859 67.969 41.4097 68.1362 41.7812" stroke="#263238" stroke-width="0.114759" stroke-linecap="round" stroke-linejoin="round"/>
<path d="M58.9824 49.8612C58.9824 49.8612 59.281 51.9631 60.6129 51.802" stroke="#263238" stroke-width="0.114759" stroke-linecap="round" stroke-linejoin="round"/>
<path d="M62.1653 44.6788C62.1653 44.6788 62.5091 47.1786 61.9434 48.2383" stroke="#263238" stroke-width="0.114759" stroke-linecap="round" stroke-linejoin="round"/>
<path d="M72.8183 44.7025C72.8183 44.7025 73.7141 45.244 73.1149 46.8375C72.5158 48.4309 71.4727 54.8396 71.4727 54.8396" stroke="#263238" stroke-width="0.114759" stroke-linecap="round" stroke-linejoin="round"/>
<path d="M76.7173 46.387C77.0925 47.8233 77.1259 47.8601 76.5209 49.6244C75.9159 51.3886 74.9238 55.7031 74.9238 55.7031" stroke="#263238" stroke-width="0.114759" stroke-linecap="round" stroke-linejoin="round"/>
<path d="M76.3497 61.9026C76.3497 61.9026 75.7604 60.7381 76.2476 59.7677" stroke="#263238" stroke-width="0.114759" stroke-linecap="round" stroke-linejoin="round"/>
<path d="M62.8232 65.1553C62.8232 65.1553 64.3044 67.2107 64.9487 69.5106" stroke="#263238" stroke-width="0.114759" stroke-linecap="round" stroke-linejoin="round"/>
<path d="M73.7227 29.1272L74.1234 28.7352L74.3041 28.6847L74.2923 28.8788L73.925 29.3426L73.7227 29.1272Z" fill="#757575" stroke="#263238" stroke-width="0.114759" stroke-linecap="round" stroke-linejoin="round"/>
<path d="M74.0464 29.3425L73.3942 30.8039L55.8716 53.8865L53.9209 52.6579L56.5768 49.374L72.3137 29.8684L73.7026 28.997C73.7852 29.0203 73.8603 29.0644 73.9206 29.1249C73.9808 29.1855 74.0242 29.2604 74.0464 29.3425Z" fill="#20446C"/>
<path opacity="0.3" d="M74.0464 29.3425L73.3942 30.8039L55.8716 53.8865L53.9209 52.6579L56.5768 49.374C57.7928 49.2498 57.9971 49.9563 57.9971 49.9563L73.0877 30.4914C72.9384 29.9693 72.302 29.8684 72.302 29.8684L73.6908 28.997C73.7756 29.0185 73.8532 29.0618 73.9156 29.1225C73.978 29.1831 74.0231 29.259 74.0464 29.3425Z" fill="black" fill-opacity="0.7"/>
<path d="M74.0464 29.3425L73.3942 30.8039L55.8716 53.8865L53.9209 52.6579L56.5768 49.374L72.3137 29.8684L73.7026 28.997C73.7852 29.0203 73.8603 29.0644 73.9206 29.1249C73.9808 29.1855 74.0242 29.2604 74.0464 29.3425Z" stroke="#263238" stroke-width="0.114759" stroke-linecap="round" stroke-linejoin="round"/>
<path d="M61.588 47.053C61.588 47.053 59.6236 50.8881 57.7496 53.6014L56.4059 53.945C56.4059 53.945 53.3218 56.9727 51.4399 58.4827C51.0982 58.273 50.7886 58.0162 50.5205 57.7199C50.5205 57.7199 53.1921 52.6524 56.1486 49.4422C56.4948 49.5648 56.8211 49.7368 57.117 49.9526C57.5014 50.2205 57.8431 50.5436 58.1307 50.9114L61.425 46.8162L61.588 47.053Z" fill="#F0792E"/>
<path opacity="0.3" d="M61.5886 47.0522C61.5886 47.0522 59.6242 50.8873 57.7501 53.6007L56.4065 53.9442C56.4065 53.9442 53.3223 56.9719 51.4404 58.4819L51.4915 57.6609C53.5325 54.5808 56.1256 51.2212 57.1176 49.9519C57.502 50.2197 57.8437 50.5429 58.1312 50.9106L56.3004 53.3251L57.3494 53.131L61.4256 46.8077L61.5886 47.0522Z" fill="black" fill-opacity="0.7"/>
<path d="M61.588 47.053C61.588 47.053 59.6236 50.8881 57.7496 53.6014L56.4059 53.945C56.4059 53.945 53.3218 56.9727 51.4399 58.4827C51.0982 58.273 50.7886 58.0162 50.5205 57.7199C50.5205 57.7199 53.1921 52.6524 56.1486 49.4422C56.4948 49.5648 56.8211 49.7368 57.117 49.9526C57.5014 50.2205 57.8431 50.5436 58.1307 50.9114L61.425 46.8162L61.588 47.053Z" stroke="#263238" stroke-width="0.114759" stroke-linecap="round" stroke-linejoin="round"/>
<path d="M68.2513 42.8273L62.7765 48.0676L61.9023 48.9099C62.5015 47.3883 62.2107 45.0282 62.1734 44.7507C62.1739 44.7423 62.1739 44.7338 62.1734 44.7254C62.1746 44.7112 62.1746 44.6969 62.1734 44.6827C62.1119 44.3962 62.066 44.1066 62.0359 43.8152C62.0222 43.7201 62.0104 43.6211 61.9986 43.5124C61.9868 43.4037 61.9711 43.295 61.9593 43.1786C61.9593 43.1262 61.9456 43.0679 61.9377 43.0117C61.9377 42.9884 61.9377 42.9651 61.9377 42.9437C61.9141 42.7244 61.8866 42.4915 61.8611 42.2489C61.8611 42.1829 61.8473 42.1189 61.8395 42.0548C61.8395 41.9384 61.8159 41.8219 61.8041 41.7055C61.803 41.6861 61.803 41.6666 61.8041 41.6472C61.8041 41.5812 61.7884 41.5133 61.7825 41.4434C61.7668 41.3056 61.755 41.1698 61.7393 41.032L61.7039 40.6749C61.6804 40.4536 61.6587 40.2304 61.6371 40.015C61.6214 39.8519 61.6057 39.6947 61.592 39.5395C61.592 39.5045 61.592 39.4696 61.5821 39.4366C61.4996 38.5826 61.4348 37.8839 61.4112 37.5811C61.4112 37.5811 59.4468 34.7048 59.2504 33.3481C59.0539 31.9915 59.0657 30.5669 59.8888 29.9885C61.8375 28.6183 61.2639 30.827 62.14 31.7353C63.0162 32.6436 64.35 34.1478 65.1083 34.6155C65.8665 35.0833 66.5305 37.0358 66.5305 37.0358C67.0746 38.6214 67.3831 41.1465 67.6934 41.9092C68.0038 42.672 68.2513 42.8273 68.2513 42.8273Z" fill="white"/>
<path d="M67.3818 40.8399C67.7096 41.0859 67.969 41.4097 68.1362 41.7812" stroke="#263238" stroke-width="0.114759" stroke-linecap="round" stroke-linejoin="round"/>
<path opacity="0.8" d="M62.1097 31.7361C62.978 32.6522 64.3118 34.1389 65.0701 34.6125C64.964 34.5601 63.5673 33.8885 62.7874 34.6358C61.9761 35.4121 61.3888 37.5762 61.3888 37.5762C61.3888 37.5762 59.4243 34.6998 59.2279 33.3432C59.0315 31.9865 59.0433 30.5619 59.8663 29.9835C61.8072 28.6133 61.2375 30.822 62.1097 31.7361Z" fill="#FFE4C8"/>
<path opacity="0.8" d="M62.7764 48.0716L61.9022 48.91C62.5014 47.3884 62.2106 45.0283 62.1733 44.7508C62.1757 44.7282 62.1757 44.7054 62.1733 44.6828C62.1118 44.3963 62.0659 44.1067 62.0358 43.8153C62.0221 43.7202 62.0103 43.6212 61.9985 43.5125C61.9867 43.4038 61.971 43.2951 61.9592 43.1787C61.9592 43.1263 61.9454 43.068 61.9376 43.0118C61.9376 42.9885 61.9376 42.9652 61.9376 42.9438C61.914 42.7226 61.8885 42.4916 61.861 42.249C61.861 42.183 61.8472 42.119 61.8394 42.0549C61.8394 41.9385 61.8158 41.822 61.804 41.7056C61.8029 41.6862 61.8029 41.6667 61.804 41.6473C61.804 41.5813 61.7883 41.5134 61.7824 41.4435C61.7667 41.3057 61.7549 41.1699 61.7392 41.0321L61.7038 40.675C61.6803 40.4537 61.6586 40.2305 61.637 40.0151C61.6233 39.852 61.6076 39.6929 61.5919 39.5396C61.5919 39.5046 61.5919 39.4697 61.582 39.4367C61.637 39.691 62.633 44.3742 63.2007 45.4669C63.3932 45.8745 63.1948 46.9381 62.7764 48.0716Z" fill="#FFE4C8"/>
<path d="M68.2513 42.8276C68.2513 42.8276 67.9743 42.6704 67.662 41.9096C67.3496 41.1488 67.0432 38.6218 66.499 37.0361C66.499 37.0361 65.8331 35.0953 65.0748 34.6159C64.3166 34.1365 62.9808 32.6537 62.1086 31.7376C61.2364 30.8215 61.806 28.6128 59.8573 29.9908C59.0343 30.5731 59.0185 31.9957 59.2189 33.3504C59.4193 34.7051 61.3798 37.5834 61.3798 37.5834C61.4623 38.5791 61.9809 44.0465 62.1557 44.687" stroke="#263238" stroke-width="0.114759" stroke-linecap="round" stroke-linejoin="round"/>
<path d="M62.1653 44.6788C62.1653 44.6788 62.5091 47.1786 61.9434 48.2383" stroke="#263238" stroke-width="0.114759" stroke-linecap="round" stroke-linejoin="round"/>
<path opacity="0.2" d="M28.5646 47.7452C28.5646 47.7452 29.8081 53.4494 27.1148 57.6009C24.4216 61.7523 22.3492 62.8567 21.418 64.0949C20.4869 65.3332 16.835 72.2485 16.835 72.2485L12.5723 59.7785L16.835 44.3468L28.5646 47.7452Z" fill="black" fill-opacity="0.7"/>
<g clip-path="url(#clip1_7_51869)">
<path d="M25.62 24.4071L13.5205 29.2662L20.8847 47.3014L32.9842 42.4422L25.62 24.4071Z" fill="white" stroke="#263238" stroke-width="0.114759" stroke-linecap="round" stroke-linejoin="round"/>
<path d="M14.9291 30.1293L18.0758 28.8582" stroke="#263238" stroke-width="0.229517" stroke-linecap="round" stroke-linejoin="round"/>
<path d="M15.175 30.7284L17.3146 29.8632" stroke="#263238" stroke-width="0.229517" stroke-linecap="round" stroke-linejoin="round"/>
<path d="M16.5223 31.8331L25.5728 28.1761" stroke="#263238" stroke-width="0.229517" stroke-linecap="round" stroke-linejoin="round"/>
<path d="M16.768 32.4306L25.8189 28.7751" stroke="#263238" stroke-width="0.229517" stroke-linecap="round" stroke-linejoin="round"/>
<path d="M17.0566 33.1299L24.7753 30.0123" stroke="#263238" stroke-width="0.229517" stroke-linecap="round" stroke-linejoin="round"/>
<path d="M18.0925 33.4529L17.3564 33.7503L17.6563 34.4803L18.3924 34.1829L18.0925 33.4529Z" stroke="#263238" stroke-width="0.114759" stroke-linecap="round" stroke-linejoin="round"/>
<path d="M19.4255 32.9142L18.6895 33.2116L18.9893 33.9415L19.7254 33.6442L19.4255 32.9142Z" stroke="#263238" stroke-width="0.114759" stroke-linecap="round" stroke-linejoin="round"/>
<path d="M20.7614 32.3742L20.0254 32.6716L20.3253 33.4016L21.0613 33.1042L20.7614 32.3742Z" stroke="#263238" stroke-width="0.114759" stroke-linecap="round" stroke-linejoin="round"/>
<path d="M22.0944 31.8348L21.3584 32.1322L21.6583 32.8622L22.3943 32.5648L22.0944 31.8348Z" stroke="#263238" stroke-width="0.114759" stroke-linecap="round" stroke-linejoin="round"/>
<path d="M16.0416 32.0262C16.0569 32.0625 16.061 32.1024 16.0533 32.141C16.0457 32.1796 16.0266 32.215 15.9986 32.2428C15.9706 32.2707 15.9348 32.2896 15.8959 32.2972C15.857 32.3048 15.8167 32.3008 15.7801 32.2856C15.7436 32.2705 15.7124 32.2448 15.6905 32.212C15.6686 32.1792 15.6571 32.1407 15.6574 32.1014C15.6576 32.0621 15.6697 32.0237 15.692 31.9912C15.7143 31.9587 15.7458 31.9335 15.7826 31.9188C15.8313 31.8994 15.8858 31.8998 15.9343 31.9198C15.9828 31.9399 16.0213 31.9781 16.0416 32.0262Z" fill="#263238"/>
<path d="M17.9569 35.3275L27.0073 31.6704" stroke="#263238" stroke-width="0.229517" stroke-linecap="round" stroke-linejoin="round"/>
<path d="M18.2035 35.925L27.2544 32.2694" stroke="#263238" stroke-width="0.229517" stroke-linecap="round" stroke-linejoin="round"/>
<path d="M18.4917 36.6245L26.2099 33.5054" stroke="#263238" stroke-width="0.229517" stroke-linecap="round" stroke-linejoin="round"/>
<path d="M19.5271 36.9461L18.791 37.2435L19.0909 37.9734L19.8269 37.676L19.5271 36.9461Z" stroke="#263238" stroke-width="0.114759" stroke-linecap="round" stroke-linejoin="round"/>
<path d="M20.8611 36.4085L20.125 36.7059L20.4249 37.4359L21.1609 37.1385L20.8611 36.4085Z" stroke="#263238" stroke-width="0.114759" stroke-linecap="round" stroke-linejoin="round"/>
<path d="M22.196 35.8685L21.46 36.1659L21.7598 36.8959L22.4959 36.5985L22.196 35.8685Z" stroke="#263238" stroke-width="0.114759" stroke-linecap="round" stroke-linejoin="round"/>
<path d="M23.53 35.3304L22.7939 35.6277L23.0938 36.3577L23.8299 36.0603L23.53 35.3304Z" stroke="#263238" stroke-width="0.114759" stroke-linecap="round" stroke-linejoin="round"/>
<path d="M17.4767 35.5219C17.4918 35.5583 17.4955 35.5982 17.4876 35.6367C17.4797 35.6751 17.4605 35.7104 17.4323 35.738C17.4041 35.7656 17.3684 35.7843 17.3295 35.7917C17.2906 35.7991 17.2504 35.7949 17.2139 35.7796C17.1775 35.7643 17.1464 35.7386 17.1247 35.7058C17.103 35.673 17.0916 35.6345 17.0919 35.5952C17.0923 35.556 17.1044 35.5177 17.1267 35.4853C17.149 35.4529 17.1806 35.4277 17.2173 35.4131C17.2663 35.3936 17.321 35.3941 17.3696 35.4145C17.4182 35.4349 17.4568 35.4735 17.4767 35.5219Z" fill="#263238"/>
<path d="M19.393 38.8208L28.4439 35.1653" stroke="#263238" stroke-width="0.229517" stroke-linecap="round" stroke-linejoin="round"/>
<path d="M19.6385 39.4202L28.6875 35.7636" stroke="#263238" stroke-width="0.229517" stroke-linecap="round" stroke-linejoin="round"/>
<path d="M19.9262 40.1194L27.6445 37.0004" stroke="#263238" stroke-width="0.229517" stroke-linecap="round" stroke-linejoin="round"/>
<path d="M20.9626 40.441L20.2266 40.7384L20.5264 41.4684L21.2625 41.171L20.9626 40.441Z" stroke="#263238" stroke-width="0.114759" stroke-linecap="round" stroke-linejoin="round"/>
<path d="M22.2966 39.9016L21.5605 40.199L21.8604 40.9289L22.5965 40.6315L22.2966 39.9016Z" stroke="#263238" stroke-width="0.114759" stroke-linecap="round" stroke-linejoin="round"/>
<path d="M23.6325 39.3634L22.8965 39.6608L23.1964 40.3908L23.9324 40.0934L23.6325 39.3634Z" stroke="#263238" stroke-width="0.114759" stroke-linecap="round" stroke-linejoin="round"/>
<path d="M24.9655 38.8247L24.2295 39.1221L24.5294 39.8521L25.2654 39.5547L24.9655 38.8247Z" stroke="#263238" stroke-width="0.114759" stroke-linecap="round" stroke-linejoin="round"/>
<path d="M18.9113 39.0156C18.9263 39.0519 18.9301 39.0919 18.9222 39.1303C18.9143 39.1688 18.895 39.2041 18.8669 39.2317C18.8387 39.2593 18.8029 39.278 18.7641 39.2854C18.7252 39.2928 18.685 39.2886 18.6485 39.2733C18.612 39.258 18.581 39.2323 18.5593 39.1995C18.5375 39.1666 18.5261 39.1282 18.5265 39.0889C18.5269 39.0496 18.539 39.0114 18.5613 38.9789C18.5836 38.9465 18.6151 38.9214 18.6519 38.9068C18.7008 38.8873 18.7556 38.8878 18.8042 38.9081C18.8528 38.9285 18.8913 38.9672 18.9113 39.0156Z" fill="#263238"/>
<path d="M20.8685 42.4138L29.9179 38.7587" stroke="#263238" stroke-width="0.229517" stroke-linecap="round" stroke-linejoin="round"/>
<path d="M21.1146 43.0129L30.164 39.3577" stroke="#263238" stroke-width="0.229517" stroke-linecap="round" stroke-linejoin="round"/>
<path d="M21.4014 43.7121L29.1201 40.5945" stroke="#263238" stroke-width="0.229517" stroke-linecap="round" stroke-linejoin="round"/>
<path d="M22.4402 44.0345L21.7041 44.3319L22.004 45.0619L22.74 44.7645L22.4402 44.0345Z" stroke="#263238" stroke-width="0.114759" stroke-linecap="round" stroke-linejoin="round"/>
<path d="M23.7732 43.4957L23.0371 43.7931L23.337 44.5231L24.073 44.2257L23.7732 43.4957Z" stroke="#263238" stroke-width="0.114759" stroke-linecap="round" stroke-linejoin="round"/>
<path d="M25.1071 42.957L24.3711 43.2544L24.671 43.9843L25.407 43.687L25.1071 42.957Z" stroke="#263238" stroke-width="0.114759" stroke-linecap="round" stroke-linejoin="round"/>
<path d="M26.4421 42.417L25.7061 42.7144L26.0059 43.4444L26.742 43.147L26.4421 42.417Z" stroke="#263238" stroke-width="0.114759" stroke-linecap="round" stroke-linejoin="round"/>
<path d="M20.3943 42.6063C20.4091 42.6423 20.4129 42.6818 20.4051 42.7199C20.3973 42.758 20.3783 42.793 20.3505 42.8204C20.3226 42.8478 20.2872 42.8664 20.2488 42.8738C20.2103 42.8813 20.1704 42.8773 20.1343 42.8623C20.0981 42.8473 20.0672 42.822 20.0455 42.7896C20.0238 42.7572 20.0123 42.7192 20.0124 42.6803C20.0125 42.6414 20.0243 42.6034 20.0461 42.5711C20.068 42.5389 20.099 42.5137 20.1353 42.4989C20.1594 42.4891 20.1852 42.4841 20.2113 42.4841C20.2373 42.4842 20.2632 42.4894 20.2872 42.4993C20.3113 42.5093 20.3331 42.5239 20.3515 42.5422C20.3698 42.5606 20.3844 42.5824 20.3943 42.6063Z" fill="#263238"/>
<path d="M17.7401 33.9353L17.9085 34.0502L18.0935 33.4537" stroke="#263238" stroke-width="0.229517" stroke-linecap="round" stroke-linejoin="round"/>
<path d="M21.8241 36.3077L21.9929 36.424L22.1774 35.8261" stroke="#263238" stroke-width="0.229517" stroke-linecap="round" stroke-linejoin="round"/>
<path d="M21.955 40.4131L22.1253 40.5291L22.3083 39.9315" stroke="#263238" stroke-width="0.229517" stroke-linecap="round" stroke-linejoin="round"/>
<path d="M26.0712 42.9066L26.24 43.023L26.4245 42.425" stroke="#263238" stroke-width="0.229517" stroke-linecap="round" stroke-linejoin="round"/>
</g>
<path d="M25.6107 45.3837C26.0703 43.831 27.8619 38.8605 27.6262 36.6615C27.6074 36.4784 27.5652 36.2984 27.5004 36.1258C26.8718 34.4838 24.3024 34.643 23.3162 36.0035C22.2319 37.4999 21.3518 40.1919 21.2713 41.8261C21.2024 42.645 20.9327 43.435 20.4855 44.1279C20.332 44.3841 20.1586 44.6281 19.9669 44.8577L14.107 31.1262C13.5152 31.613 12.9984 32.1825 12.5728 32.8166C12.3333 33.1702 12.1787 33.5731 12.121 33.9947C12.0012 35.3533 10.4493 40.9119 9.80497 43.2584C9.79319 43.3089 9.77747 43.3555 9.76568 43.404C9.14493 45.6593 10.7833 54.036 10.3138 56.4679C9.84426 58.8998 9.55549 58.8474 9.48674 60.5747C9.43763 61.8363 7.61072 65.6733 5.5579 69.6113C4.37925 71.8666 3.13774 74.1549 2.11035 76.0161L17.1028 75.4009C17.3621 73.5998 17.6292 71.7016 17.8728 69.8617C17.9787 69.0964 18.1282 68.3376 18.3207 67.589C18.6507 66.2692 19.0534 65.0756 19.3029 64.3768C19.621 63.3498 19.8833 62.3067 20.0887 61.2521C21.8311 59.4296 24.1177 56.563 24.7797 54.6221V54.6085C24.9421 54.2093 24.9937 53.7744 24.929 53.3489C24.8559 52.9995 24.8157 52.6441 24.8092 52.2873C24.7404 50.1756 25.2256 46.6763 25.6107 45.3837Z" fill="white"/>
<path opacity="0.8" d="M20.4889 44.1396C20.0253 45.0615 19.4654 45.9582 19.1138 46.9907C18.7621 48.0232 18.3712 48.1707 17.3222 48.9781C16.2732 49.7855 15.5071 48.456 15.5071 48.456C15.5071 48.456 16.8959 47.0295 16.4343 46.2376C15.9727 45.4458 14.2381 43.4758 14.3402 42.3812C14.4424 41.2865 13.2932 38.8488 13.2932 38.8488C13.2932 38.8488 15.9118 37.3311 15.403 35.5494C15.126 34.5848 13.7509 33.5522 12.5723 32.8166C12.9978 32.1825 13.5147 31.613 14.1065 31.1262L19.9703 44.8693C20.162 44.6397 20.3354 44.3957 20.4889 44.1396Z" fill="#FFE4C8"/>
<path opacity="0.8" d="M10.9813 52.5698C11.0167 52.6863 11.8693 55.4695 11.1503 56.6281C10.4313 57.7868 9.69268 59.3221 10.0443 60.898C10.3233 62.1557 7.96792 66.6973 5.56348 69.6125C7.6104 65.6745 9.43731 61.8374 9.49231 60.5758C9.56107 58.8485 9.84984 58.9009 10.3193 56.469C10.7888 54.0371 9.14068 45.6604 9.77126 43.4051C9.78305 43.3566 9.79876 43.31 9.81055 43.2596C10.2683 45.8157 11.3349 50.9065 11.6276 52.5427C11.993 54.6252 11.0206 52.6533 10.9813 52.5698Z" fill="#FFE4C8"/>
<path opacity="0.8" d="M16.3799 69.3524C18.1223 61.9422 23.9861 56.2575 24.7797 54.6136C24.1177 56.5544 21.8331 59.4211 20.0887 61.2435C19.8833 62.2982 19.621 63.3413 19.3029 64.3683C19.0574 65.067 18.6547 66.2606 18.3207 67.5804C16.6235 69.564 16.3799 69.3524 16.3799 69.3524Z" fill="#FFE4C8"/>
<path opacity="0.8" d="M25.6099 45.3839C25.217 46.6765 24.7397 50.1758 24.8143 52.2778C24.5059 50.9561 23.9127 49.2811 23.8145 46.9463C23.6475 42.9869 25.9183 44.4076 25.1267 42.4571C24.335 40.5065 22.0779 43.0063 23.1898 38.8781C24.003 35.862 26.3132 35.8912 27.4997 36.126C27.5644 36.2986 27.6067 36.4786 27.6254 36.6617C27.8612 38.8607 26.0696 43.8351 25.6099 45.3839Z" fill="#FFE4C8"/>
<path d="M19.9713 44.8691C19.6159 45.5476 19.3265 46.2579 19.107 46.9905C18.8614 47.9415 17.618 47.8057 16.9756 48.3957" stroke="#263238" stroke-width="0.114759" stroke-linecap="round" stroke-linejoin="round"/>
<path d="M15.2793 43.1962C15.2793 43.1962 16.9726 43.7785 17.9568 44.5451C18.941 45.3117 19.6698 45.4883 19.6698 45.4883" stroke="#263238" stroke-width="0.114759" stroke-linecap="round" stroke-linejoin="round"/>
<path d="M14.2021 39.052C14.2021 39.052 15.5674 39.4305 16.5791 38.9549C16.6248 38.4707 16.7109 37.991 16.8364 37.5207" stroke="#263238" stroke-width="0.114759" stroke-linecap="round" stroke-linejoin="round"/>
<path d="M16.9043 39.1497C16.9043 39.1497 16.918 39.3438 17.6135 39.3438" stroke="#263238" stroke-width="0.114759" stroke-linecap="round" stroke-linejoin="round"/>
<path d="M20.0865 61.2462C19.1341 62.1936 18.402 63.3348 17.9414 64.5902" stroke="#263238" stroke-width="0.114759" stroke-linecap="round" stroke-linejoin="round"/>
<path d="M9.68457 43.8172C9.62367 44.9817 11.0047 49.1118 11.425 51.1652C11.8454 53.2187 12.0006 54.6704 12.0006 54.6704" stroke="#263238" stroke-width="0.114759" stroke-linecap="round" stroke-linejoin="round"/>
<path d="M4.39648 71.9207C6.28625 68.528 8.10334 65.0364 9.42932 61.2692C9.58844 60.7278 9.37628 60.0232 9.5354 59.4817C11.3152 54.5908 9.29574 49.4999 9.62773 44.4925C9.90471 42.5187 10.5431 40.5293 11.1835 38.5399C11.4841 37.0998 11.5961 35.4908 12.0774 34.043C12.5724 32.9522 13.0596 31.6829 14.1145 31.1317C16.1182 35.6675 18.116 40.2246 19.9782 44.8749C20.819 44.3955 20.9604 43.3222 21.096 42.4216C21.5478 40.2615 22.0055 38.2798 22.8325 36.4632C23.6733 34.9998 25.8145 34.3768 27.1287 35.5724C27.5059 35.9452 27.7215 36.4485 27.7298 36.9756C27.4745 39.4832 26.6769 42.0218 25.8735 44.3664C25.5572 45.4494 25.235 46.3557 25.0995 47.431C25.1152 47.7861 25.1211 47.9647 25.1368 48.3218C24.6712 50.1249 25.0995 51.7125 24.9934 53.502C24.5868 56.7296 21.9741 58.9771 20.0824 61.3741C19.6168 63.1771 19.1493 64.9802 18.5108 66.791C17.7251 69.4985 17.4736 72.1865 17.2045 74.797" stroke="#263238" stroke-width="0.114759" stroke-linecap="round" stroke-linejoin="round"/>
<path d="M49.0184 20.2104H32.7373V44.5713H49.0184V20.2104Z" fill="white" stroke="#263238" stroke-width="0.114759" stroke-linecap="round" stroke-linejoin="round"/>
<path d="M33.9572 21.8688L38.1949 21.8602" stroke="#263238" stroke-width="0.229517" stroke-linecap="round" stroke-linejoin="round"/>
<path d="M33.9595 22.6789L36.8414 22.672" stroke="#263238" stroke-width="0.229517" stroke-linecap="round" stroke-linejoin="round"/>
<path d="M34.9963 24.5893L47.1851 24.5633" stroke="#263238" stroke-width="0.229517" stroke-linecap="round" stroke-linejoin="round"/>
<path d="M34.9975 25.3976L47.1861 25.3736" stroke="#263238" stroke-width="0.229517" stroke-linecap="round" stroke-linejoin="round"/>
<path d="M35.0008 26.3418L45.3954 26.3212" stroke="#263238" stroke-width="0.229517" stroke-linecap="round" stroke-linejoin="round"/>
<path d="M36.0469 27.2004L35.0557 27.2025L35.0578 28.1894L36.049 28.1873L36.0469 27.2004Z" stroke="#263238" stroke-width="0.114759" stroke-linecap="round" stroke-linejoin="round"/>
<path d="M37.8409 27.1955L36.8496 27.1976L36.8517 28.1844L37.843 28.1824L37.8409 27.1955Z" stroke="#263238" stroke-width="0.114759" stroke-linecap="round" stroke-linejoin="round"/>
<path d="M39.6397 27.1919L38.6484 27.194L38.6505 28.1808L39.6418 28.1787L39.6397 27.1919Z" stroke="#263238" stroke-width="0.114759" stroke-linecap="round" stroke-linejoin="round"/>
<path d="M41.4366 27.1882L40.4453 27.1903L40.4474 28.1771L41.4387 28.175L41.4366 27.1882Z" stroke="#263238" stroke-width="0.114759" stroke-linecap="round" stroke-linejoin="round"/>
<path d="M34.3481 24.588C34.3487 24.6372 34.3346 24.6855 34.3075 24.7267C34.2805 24.7679 34.2417 24.8001 34.1962 24.8193C34.1506 24.8386 34.1004 24.8439 34.0518 24.8346C34.0033 24.8253 33.9586 24.8018 33.9235 24.7672C33.8883 24.7325 33.8643 24.6883 33.8545 24.64C33.8447 24.5918 33.8496 24.5417 33.8685 24.4962C33.8873 24.4507 33.9193 24.4118 33.9605 24.3845C34.0016 24.3571 34.05 24.3426 34.0994 24.3427C34.1649 24.3428 34.2278 24.3686 34.2743 24.4145C34.3209 24.4604 34.3474 24.5227 34.3481 24.588Z" fill="#263238"/>
<path d="M35.0061 29.3114L47.1949 29.2854" stroke="#263238" stroke-width="0.229517" stroke-linecap="round" stroke-linejoin="round"/>
<path d="M35.0082 30.1198L47.1968 30.0957" stroke="#263238" stroke-width="0.229517" stroke-linecap="round" stroke-linejoin="round"/>
<path d="M35.0104 31.0671L45.4052 31.0446" stroke="#263238" stroke-width="0.229517" stroke-linecap="round" stroke-linejoin="round"/>
<path d="M36.0557 31.9226L35.0645 31.9247L35.0665 32.9115L36.0578 32.9094L36.0557 31.9226Z" stroke="#263238" stroke-width="0.114759" stroke-linecap="round" stroke-linejoin="round"/>
<path d="M37.8526 31.9208L36.8613 31.9229L36.8634 32.9097L37.8547 32.9076L37.8526 31.9208Z" stroke="#263238" stroke-width="0.114759" stroke-linecap="round" stroke-linejoin="round"/>
<path d="M39.6495 31.9159L38.6582 31.9179L38.6603 32.9048L39.6516 32.9027L39.6495 31.9159Z" stroke="#263238" stroke-width="0.114759" stroke-linecap="round" stroke-linejoin="round"/>
<path d="M41.4464 31.9123L40.4551 31.9143L40.4572 32.9012L41.4484 32.8991L41.4464 31.9123Z" stroke="#263238" stroke-width="0.114759" stroke-linecap="round" stroke-linejoin="round"/>
<path d="M34.3579 29.3133C34.3581 29.3625 34.3436 29.4106 34.3163 29.4515C34.289 29.4925 34.2501 29.5244 34.2045 29.5433C34.159 29.5622 34.1088 29.5673 34.0603 29.5577C34.0119 29.5482 33.9674 29.5246 33.9325 29.4898C33.8975 29.4551 33.8738 29.4108 33.8641 29.3626C33.8545 29.3144 33.8595 29.2644 33.8785 29.219C33.8974 29.1736 33.9295 29.1349 33.9706 29.1077C34.0117 29.0804 34.06 29.066 34.1094 29.0661C34.1752 29.0663 34.2383 29.0924 34.2848 29.1387C34.3314 29.185 34.3577 29.2478 34.3579 29.3133Z" fill="#263238"/>
<path d="M35.016 34.0347L47.2047 34.0107" stroke="#263238" stroke-width="0.229517" stroke-linecap="round" stroke-linejoin="round"/>
<path d="M35.0178 34.8451L47.2047 34.819" stroke="#263238" stroke-width="0.229517" stroke-linecap="round" stroke-linejoin="round"/>
<path d="M35.0202 35.7899L45.4149 35.7674" stroke="#263238" stroke-width="0.229517" stroke-linecap="round" stroke-linejoin="round"/>
<path d="M36.0655 36.6472L35.0742 36.6493L35.0763 37.6362L36.0676 37.6341L36.0655 36.6472Z" stroke="#263238" stroke-width="0.114759" stroke-linecap="round" stroke-linejoin="round"/>
<path d="M37.8624 36.6436L36.8711 36.6457L36.8732 37.6325L37.8645 37.6305L37.8624 36.6436Z" stroke="#263238" stroke-width="0.114759" stroke-linecap="round" stroke-linejoin="round"/>
<path d="M39.6612 36.6405L38.6699 36.6426L38.672 37.6294L39.6633 37.6274L39.6612 36.6405Z" stroke="#263238" stroke-width="0.114759" stroke-linecap="round" stroke-linejoin="round"/>
<path d="M41.4561 36.6363L40.4648 36.6384L40.4669 37.6252L41.4582 37.6231L41.4561 36.6363Z" stroke="#263238" stroke-width="0.114759" stroke-linecap="round" stroke-linejoin="round"/>
<path d="M34.3677 34.0374C34.3679 34.0865 34.3534 34.1346 34.3261 34.1756C34.2988 34.2165 34.2599 34.2485 34.2143 34.2674C34.1687 34.2863 34.1185 34.2913 34.0701 34.2818C34.0217 34.2723 33.9772 34.2486 33.9422 34.2139C33.9073 34.1792 33.8835 34.1349 33.8739 34.0867C33.8643 34.0384 33.8693 33.9885 33.8882 33.9431C33.9072 33.8977 33.9392 33.8589 33.9803 33.8317C34.0215 33.8045 34.0698 33.79 34.1191 33.7902C34.185 33.7904 34.248 33.8165 34.2946 33.8628C34.3412 33.9091 34.3674 33.9718 34.3677 34.0374Z" fill="#263238"/>
<path d="M35.0258 38.8927L47.2125 38.8684" stroke="#263238" stroke-width="0.229517" stroke-linecap="round" stroke-linejoin="round"/>
<path d="M35.0287 39.7029L47.2154 39.6787" stroke="#263238" stroke-width="0.229517" stroke-linecap="round" stroke-linejoin="round"/>
<path d="M35.0291 40.6478L45.4237 40.6273" stroke="#263238" stroke-width="0.229517" stroke-linecap="round" stroke-linejoin="round"/>
<path d="M36.0772 41.5058L35.0859 41.5078L35.088 42.4947L36.0793 42.4926L36.0772 41.5058Z" stroke="#263238" stroke-width="0.114759" stroke-linecap="round" stroke-linejoin="round"/>
<path d="M37.8721 41.5015L36.8809 41.5036L36.8829 42.4905L37.8742 42.4884L37.8721 41.5015Z" stroke="#263238" stroke-width="0.114759" stroke-linecap="round" stroke-linejoin="round"/>
<path d="M39.67 41.4973L38.6787 41.4994L38.6808 42.4862L39.6721 42.4841L39.67 41.4973Z" stroke="#263238" stroke-width="0.114759" stroke-linecap="round" stroke-linejoin="round"/>
<path d="M41.4678 41.493L40.4766 41.4951L40.4787 42.4819L41.4699 42.4798L41.4678 41.493Z" stroke="#263238" stroke-width="0.114759" stroke-linecap="round" stroke-linejoin="round"/>
<path d="M34.3864 38.8944C34.3866 38.9431 34.3723 38.9907 34.3453 39.0313C34.3183 39.0719 34.2799 39.1036 34.2348 39.1224C34.1897 39.1412 34.14 39.1463 34.092 39.1371C34.044 39.1278 33.9998 39.1045 33.9651 39.0703C33.9303 39.036 33.9066 38.9923 33.8968 38.9446C33.887 38.8969 33.8916 38.8474 33.9101 38.8023C33.9286 38.7572 33.9601 38.7186 34.0006 38.6914C34.0411 38.6641 34.0888 38.6494 34.1377 38.6491C34.1702 38.6489 34.2025 38.6551 34.2326 38.6674C34.2627 38.6796 34.2901 38.6976 34.3132 38.7204C34.3363 38.7432 34.3546 38.7703 34.3672 38.8001C34.3798 38.83 34.3863 38.862 34.3864 38.8944Z" fill="#263238"/>
<path d="M35.4107 27.595L35.5511 27.8068L36.0464 27.2008" stroke="#263238" stroke-width="0.229517" stroke-linecap="round" stroke-linejoin="round"/>
<path d="M39.0142 32.2521L39.1544 32.4658L39.65 31.8579" stroke="#263238" stroke-width="0.229517" stroke-linecap="round" stroke-linejoin="round"/>
<path d="M37.2271 37.0772L37.3692 37.2911L37.8629 36.683" stroke="#263238" stroke-width="0.229517" stroke-linecap="round" stroke-linejoin="round"/>
<path d="M40.8081 41.8888L40.9483 42.1025L41.4439 41.4946" stroke="#263238" stroke-width="0.229517" stroke-linecap="round" stroke-linejoin="round"/>
<defs>
<clipPath id="clip0_7_51869">
<rect width="15.0258" height="20.7621" fill="white" transform="matrix(0.998836 0.0482276 -0.0490328 0.998797 51.8096 26.6672)"/>
</clipPath>
<clipPath id="clip1_7_51869">
<rect width="15.0086" height="20.7861" fill="white" transform="matrix(0.927964 -0.372671 0.378023 0.925796 12.3584 29.0296)"/>
</clipPath>
</defs>
</svg>
