<svg width="20" height="16" viewBox="0 0 20 16" fill="none" xmlns="http://www.w3.org/2000/svg">
<path fill-rule="evenodd" clip-rule="evenodd" d="M13.6774 5.04548e-05C13.6208 0.000915691 13.5645 0.0129857 13.5126 0.035417C13.4607 0.0578482 13.4132 0.0905974 13.3738 0.131199C13.3345 0.1718 13.3031 0.220231 13.2822 0.272838C13.2614 0.325422 13.2509 0.38216 13.2517 0.438747V1.47061H12.221C12.1638 1.46952 12.1064 1.48008 12.0533 1.5013C12.0001 1.5225 11.9512 1.5544 11.9104 1.59453C11.8696 1.63468 11.8369 1.683 11.8148 1.73582C11.7926 1.78864 11.7811 1.84588 11.7811 1.90316C11.7811 1.96044 11.7926 2.01767 11.8148 2.07049C11.8369 2.1233 11.8696 2.17164 11.9104 2.21177C11.9512 2.25191 12.0001 2.28382 12.0533 2.30502C12.1064 2.32624 12.1638 2.33673 12.221 2.33571H13.2517V3.36757C13.251 3.42463 13.2617 3.48185 13.2831 3.53478C13.3044 3.58771 13.3363 3.63634 13.3764 3.67696C13.4165 3.71756 13.4646 3.75011 13.5172 3.77213C13.5699 3.79413 13.6269 3.80558 13.6839 3.80558C13.7409 3.80558 13.7979 3.79411 13.8505 3.77213C13.9031 3.75011 13.9513 3.71756 13.9914 3.67696C14.0314 3.63634 14.0634 3.58771 14.0847 3.53478C14.106 3.48185 14.1167 3.42463 14.116 3.36757V2.33571H15.1468C15.204 2.33679 15.2614 2.32624 15.3146 2.30502C15.3677 2.28382 15.4166 2.25191 15.4574 2.21177C15.4982 2.17164 15.5309 2.1233 15.5531 2.07049C15.5752 2.01767 15.5867 1.96044 15.5867 1.90316C15.5867 1.84588 15.5752 1.78864 15.5531 1.73582C15.5309 1.683 15.4982 1.63468 15.4574 1.59453C15.4166 1.5544 15.3677 1.5225 15.3146 1.5013C15.2614 1.48008 15.204 1.46959 15.1468 1.47061H14.116V0.438747C14.1168 0.381057 14.106 0.323238 14.0843 0.269809C14.0626 0.216359 14.0301 0.167344 13.9894 0.12657C13.9486 0.0857953 13.8996 0.0533057 13.8462 0.0316532C13.7928 0.00997903 13.735 -0.000836412 13.6774 5.04548e-05Z" fill="#E77817"/>
<path fill-rule="evenodd" clip-rule="evenodd" d="M13.6774 6.30041C13.6208 6.30127 13.5645 6.31334 13.5126 6.33577C13.4607 6.3582 13.4132 6.39095 13.3738 6.43156C13.3345 6.47216 13.3031 6.52059 13.2822 6.57319C13.2614 6.62578 13.2509 6.68252 13.2517 6.7391V7.77096H12.221C12.1638 7.76988 12.1064 7.78044 12.0533 7.80166C12.0001 7.82285 11.9512 7.85476 11.9104 7.89488C11.8696 7.93503 11.8369 7.98336 11.8148 8.03618C11.7926 8.089 11.7811 8.14624 11.7811 8.20351C11.7811 8.26079 11.7926 8.31803 11.8148 8.37085C11.8369 8.42365 11.8696 8.472 11.9104 8.51212C11.9512 8.55227 12.0001 8.58418 12.0533 8.60537C12.1064 8.62659 12.1638 8.63708 12.221 8.63607H13.2517V9.66793C13.251 9.72499 13.2617 9.7822 13.2831 9.83513C13.3044 9.88807 13.3363 9.93669 13.3764 9.97731C13.4165 10.0179 13.4646 10.0505 13.5172 10.0725C13.5699 10.0945 13.6269 10.1059 13.6839 10.1059C13.7409 10.1059 13.7979 10.0945 13.8505 10.0725C13.9031 10.0505 13.9513 10.0179 13.9914 9.97731C14.0314 9.93669 14.0634 9.88807 14.0847 9.83513C14.106 9.7822 14.1167 9.72499 14.116 9.66793V8.63607H15.1468C15.204 8.63715 15.2614 8.62659 15.3146 8.60537C15.3677 8.58418 15.4166 8.55227 15.4574 8.51212C15.4982 8.472 15.5309 8.42365 15.5531 8.37085C15.5752 8.31803 15.5867 8.26079 15.5867 8.20351C15.5867 8.14624 15.5752 8.089 15.5531 8.03618C15.5309 7.98336 15.4982 7.93503 15.4574 7.89488C15.4166 7.85476 15.3677 7.82285 15.3146 7.80166C15.2614 7.78044 15.204 7.76994 15.1468 7.77096H14.116V6.7391C14.1168 6.68141 14.106 6.62359 14.0843 6.57017C14.0626 6.51672 14.0301 6.4677 13.9894 6.42693C13.9486 6.38615 13.8996 6.35366 13.8462 6.33201C13.7928 6.31034 13.735 6.29952 13.6774 6.30041Z" fill="#E77817"/>
<path fill-rule="evenodd" clip-rule="evenodd" d="M8.89588 3.0002C8.83935 3.00106 8.783 3.01313 8.73109 3.03556C8.67919 3.05799 8.63176 3.09074 8.59236 3.13135C8.55297 3.17195 8.52166 3.22038 8.50076 3.27298C8.47989 3.32557 8.46945 3.38231 8.47025 3.43889V4.47075H7.43951C7.38231 4.46967 7.32492 4.48023 7.27178 4.50145C7.21862 4.52264 7.16977 4.55455 7.12895 4.59467C7.08813 4.63482 7.05541 4.68315 7.03328 4.73597C7.01114 4.78879 6.99964 4.84603 6.99964 4.9033C6.99964 4.96058 7.01114 5.01782 7.03328 5.07064C7.05541 5.12344 7.08813 5.17179 7.12895 5.21191C7.16977 5.25206 7.21862 5.28397 7.27178 5.30516C7.32492 5.32638 7.38231 5.33687 7.43951 5.33586H8.47025V6.36772C8.46954 6.42478 8.48026 6.48199 8.50158 6.53492C8.52291 6.58786 8.55483 6.63648 8.59491 6.6771C8.63497 6.71771 8.68316 6.75026 8.73576 6.77228C8.78838 6.79428 8.84538 6.80572 8.90241 6.80572C8.95941 6.80572 9.01641 6.79426 9.06903 6.77228C9.12163 6.75026 9.16982 6.71771 9.20988 6.6771C9.24996 6.63648 9.28188 6.58786 9.30321 6.53492C9.32453 6.48199 9.33525 6.42478 9.33454 6.36772V5.33586H10.3653C10.4225 5.33694 10.4799 5.32638 10.5331 5.30516C10.5862 5.28397 10.6351 5.25206 10.6759 5.21191C10.7167 5.17179 10.7494 5.12344 10.7716 5.07064C10.7937 5.01782 10.8052 4.96058 10.8052 4.9033C10.8052 4.84603 10.7937 4.78879 10.7716 4.73597C10.7494 4.68315 10.7167 4.63482 10.6759 4.59467C10.6351 4.55455 10.5862 4.52264 10.5331 4.50145C10.4799 4.48023 10.4225 4.46974 10.3653 4.47075H9.33454V3.43889C9.33536 3.3812 9.32449 3.32338 9.30282 3.26996C9.28112 3.21651 9.24862 3.16749 9.20787 3.12672C9.16709 3.08594 9.11808 3.05345 9.06469 3.0318C9.01127 3.01013 8.95349 2.99931 8.89588 3.0002Z" fill="#E77817"/>
<path fill-rule="evenodd" clip-rule="evenodd" d="M17.8963 5.00029C17.8398 5.00116 17.7834 5.01323 17.7315 5.03566C17.6796 5.05809 17.6322 5.09084 17.5928 5.13144C17.5534 5.17204 17.5221 5.22048 17.5012 5.27308C17.4803 5.32567 17.4699 5.3824 17.4707 5.43899V6.47085H16.4399C16.3827 6.46977 16.3254 6.48032 16.2722 6.50154C16.2191 6.52274 16.1702 6.55465 16.1294 6.59477C16.0886 6.63492 16.0559 6.68324 16.0337 6.73607C16.0116 6.78889 16.0001 6.84612 16.0001 6.9034C16.0001 6.96068 16.0116 7.01792 16.0337 7.07074C16.0559 7.12354 16.0886 7.17188 16.1294 7.21201C16.1702 7.25216 16.2191 7.28406 16.2722 7.30526C16.3254 7.32648 16.3827 7.33697 16.4399 7.33596H17.4707V8.36781C17.47 8.42488 17.4807 8.48209 17.502 8.53502C17.5234 8.58795 17.5553 8.63658 17.5954 8.6772C17.6354 8.7178 17.6836 8.75036 17.7362 8.77238C17.7888 8.79438 17.8458 8.80582 17.9028 8.80582C17.9598 8.80582 18.0169 8.79436 18.0695 8.77238C18.1221 8.75036 18.1703 8.7178 18.2103 8.6772C18.2504 8.63658 18.2823 8.58795 18.3036 8.53502C18.325 8.48209 18.3357 8.42488 18.335 8.36781V7.33596H19.3658C19.423 7.33704 19.4804 7.32648 19.5335 7.30526C19.5867 7.28406 19.6355 7.25216 19.6763 7.21201C19.7172 7.17188 19.7499 7.12354 19.772 7.07074C19.7942 7.01792 19.8057 6.96068 19.8057 6.9034C19.8057 6.84612 19.7942 6.78889 19.772 6.73607C19.7499 6.68324 19.7172 6.63492 19.6763 6.59477C19.6355 6.55465 19.5867 6.52274 19.5335 6.50154C19.4804 6.48032 19.423 6.46983 19.3658 6.47085H18.335V5.43899C18.3358 5.3813 18.3249 5.32348 18.3033 5.27005C18.2816 5.2166 18.2491 5.16759 18.2083 5.12681C18.1675 5.08604 18.1185 5.05355 18.0651 5.0319C18.0117 5.01022 17.9539 4.99941 17.8963 5.00029Z" fill="#E77817"/>
<path d="M2.91684 14.276H0.625037C0.280016 14.276 0 13.9941 0 13.6468V6.51551C0 6.16817 0.280016 5.88627 0.625037 5.88627C3.54687 5.88627 4.90695 6.90731 4.96279 6.95093C5.16447 7.10614 5.25364 7.36874 5.18697 7.6154L3.52021 13.8121C3.44687 14.0856 3.19935 14.276 2.91684 14.276ZM1.25007 13.0176H2.43848L3.85356 7.75635C3.4177 7.54912 2.56598 7.24038 1.25007 7.16319V13.0176Z" fill="#20446C"/>
<path d="M10.8326 15.9543C8.82497 15.9543 4.98974 14.2763 2.88295 13.2771L3.41548 12.1386C6.84068 13.7645 9.54418 14.6966 10.8326 14.6966C12.5227 14.6966 16.3596 12.8593 18.3705 11.7988C18.1388 11.6654 17.7938 11.5505 17.2913 11.5505C16.5596 11.5505 15.6545 11.8533 14.7803 12.1478C13.8111 12.4733 12.8094 12.8089 11.8743 12.8089C10.1184 12.8089 7.79991 11.9674 7.7024 11.9322L8.12909 10.7492C8.15076 10.7576 10.3392 11.5505 11.8743 11.5505C12.606 11.5505 13.5111 11.2476 14.3853 10.9531C15.3545 10.6276 16.3562 10.292 17.2913 10.292C19.3573 10.292 19.9315 11.6772 19.9548 11.7367C20.0723 12.032 19.9523 12.3676 19.6764 12.5212C19.4248 12.6604 13.4636 15.9543 10.8326 15.9543Z" fill="#20446C"/>
<path d="M14.3756 11.8346H13.1255V11.457C13.1255 10.9603 12.7755 10.5283 12.293 10.4293L4.26583 8.77481L4.51668 7.54236L12.543 9.19598C13.6047 9.41327 14.3756 10.3647 14.3756 11.4562V11.8346Z" fill="#20446C"/>
</svg>
