<svg width="30" height="30" viewBox="0 0 30 30" fill="none" xmlns="http://www.w3.org/2000/svg">
<path d="M21.2451 17.5002C16.4201 17.5002 12.495 13.5739 12.495 8.75011C12.495 3.9263 16.4201 0 21.2451 0C26.0702 0 29.9952 3.9263 29.9952 8.75011C29.9952 13.5739 26.0702 17.5002 21.2451 17.5002ZM21.2451 1.87502C17.4538 1.87502 14.37 4.96006 14.37 8.75011C14.37 12.5402 17.4538 15.6252 21.2451 15.6252C25.0364 15.6252 28.1202 12.5402 28.1202 8.75011C28.1202 4.96006 25.0364 1.87502 21.2451 1.87502Z" fill="#F0792E"/>
<path d="M23.9961 6.21051C24.2021 6.21051 24.3692 6.03647 24.3692 5.82179C24.3692 5.60711 24.2021 5.43306 23.9961 5.43306H19.4447C19.2387 5.43306 19.0716 5.60711 19.0716 5.82179C19.0716 6.03647 19.2387 6.21051 19.4447 6.21051H21.0116C21.4979 6.21051 21.9126 6.53554 22.0666 6.98799H19.4447C19.2387 6.98799 19.0716 7.16203 19.0716 7.37671C19.0716 7.59139 19.2387 7.76544 19.4447 7.76544H22.0666C21.9126 8.21786 21.4979 8.54289 21.0115 8.54289H19.4696C19.3242 8.54289 19.192 8.6309 19.131 8.76838C19.07 8.90586 19.0911 9.06777 19.1852 9.18325L22.2692 12.9668C22.343 13.0574 22.448 13.104 22.5537 13.1039C22.6391 13.1039 22.7249 13.0736 22.795 13.0115C22.9521 12.8725 22.9713 12.6272 22.8379 12.4636L20.2759 9.32031H21.0116C21.9124 9.32031 22.666 8.6515 22.8394 7.76541H23.9961C24.2022 7.76541 24.3692 7.59137 24.3692 7.37669C24.3692 7.16201 24.2022 6.98796 23.9961 6.98796H22.8394C22.7832 6.70085 22.6661 6.43662 22.5028 6.21049H23.9961V6.21051Z" fill="#F0792E" stroke="#F0792E" stroke-width="0.0933824"/>
<path d="M4.37506 27.5H0.937513C0.420006 27.5 0 27.08 0 26.5625V15.9374C0 15.4199 0.420006 14.9999 0.937513 14.9999C5.31882 14.9999 7.3601 16.5211 7.44385 16.5861C7.74636 16.8174 7.88011 17.2087 7.78011 17.5762L5.28007 26.8088C5.16882 27.2163 4.79882 27.5 4.37506 27.5ZM1.87503 25.625H3.65755L5.78008 17.7862C5.12632 17.4774 3.84755 17.0174 1.87378 16.9024V25.625H1.87503Z" fill="#F0792E"/>
<path d="M16.2479 29.9999C13.2366 29.9999 7.48401 27.4999 4.32272 26.0111L5.12273 24.3148C10.2603 26.7374 14.3153 28.1261 16.2479 28.1261C18.7829 28.1261 24.538 25.3886 27.553 23.8086C27.2055 23.6098 26.688 23.4386 25.9355 23.4386C24.838 23.4386 23.4817 23.8898 22.1692 24.3286C20.7154 24.8136 19.2116 25.3136 17.8104 25.3136C15.1753 25.3136 11.6991 24.0598 11.5528 24.0073L12.1928 22.2448C12.2253 22.2573 15.5079 23.4386 17.8104 23.4386C18.9079 23.4386 20.2642 22.9873 21.5767 22.5486C23.0304 22.0636 24.5342 21.5635 25.9355 21.5635C29.0343 21.5635 29.8955 23.6273 29.9305 23.7161C30.1068 24.1561 29.928 24.6561 29.513 24.8848C29.1355 25.0923 20.1942 29.9999 16.2479 29.9999Z" fill="#F0792E"/>
<path d="M21.5605 23.8627H19.6855V23.3002C19.6855 22.5602 19.1605 21.9165 18.4355 21.769L6.3979 19.3039L6.77415 17.4676L18.8118 19.9314C20.4043 20.2552 21.5618 21.6727 21.5618 23.299V23.8627H21.5605Z" fill="#F0792E"/>
</svg>
