<svg width="20" height="19" viewBox="0 0 20 19" fill="none" xmlns="http://www.w3.org/2000/svg">
<path d="M19.0753 9.16848C19.1411 11.0463 18.6463 12.9014 17.6533 14.4991C16.6604 16.0969 15.2139 17.3656 13.4968 18.1448C11.7797 18.9239 9.86919 19.1786 8.00677 18.8765C6.14435 18.5744 4.41371 17.7292 3.0337 16.4477C1.6537 15.1663 0.686322 13.5061 0.253897 11.6771C-0.178528 9.84816 -0.0565754 7.93259 0.604335 6.17266C1.26524 4.41272 2.43542 2.88746 3.9669 1.78977C5.49837 0.692069 7.32234 0.0712328 9.20817 0.00577324C11.7368 -0.0820005 14.197 0.834027 16.0474 2.55235C17.8978 4.27067 18.987 6.65055 19.0753 9.16848Z" fill="#20446C"/>
<g opacity="0.1">
<path opacity="0.1" d="M9.20749 0.00685735C6.67885 0.0947906 4.28884 1.17933 2.5632 3.02189C0.837567 4.86446 -0.0823494 7.31414 0.00579787 9.83207C0.00579787 9.83207 6.72014 9.89893 8.24612 7.15468C9.77211 4.41042 9.20749 0.00685735 9.20749 0.00685735Z" fill="white"/>
</g>
<path d="M16.6322 9.10156C16.6827 10.5293 16.3067 11.94 15.5519 13.1549C14.797 14.3699 13.6971 15.3345 12.3915 15.9268C11.0858 16.5191 9.63305 16.7124 8.21703 16.4823C6.801 16.2521 5.48537 15.6089 4.4366 14.634C3.38784 13.659 2.6531 12.3962 2.32535 11.0053C1.9976 9.61439 2.09159 8.15794 2.59541 6.82025C3.09923 5.48256 3.99024 4.32375 5.15569 3.49048C6.32113 2.65721 7.70863 2.18692 9.14259 2.13913C11.0625 2.07515 12.9295 2.77236 14.3337 4.07772C15.7379 5.38307 16.5645 7.1899 16.6322 9.10156Z" fill="#20446C"/>
<g opacity="0.2">
<path opacity="0.2" d="M16.6302 9.10156C16.6807 10.5293 16.3048 11.94 15.5499 13.1549C14.795 14.3699 13.6952 15.3345 12.3895 15.9268C11.0839 16.5191 9.63109 16.7124 8.21507 16.4823C6.79904 16.2521 5.48341 15.6089 4.43464 14.634C3.38588 13.659 2.65114 12.3962 2.32339 11.0053C1.99564 9.61439 2.08963 8.15794 2.59345 6.82025C3.09727 5.48256 3.98828 4.32375 5.15373 3.49048C6.31917 2.65721 7.70667 2.18692 9.14063 2.13913C11.0606 2.07515 12.9275 2.77236 14.3317 4.07772C15.7359 5.38307 16.5626 7.1899 16.6302 9.10156Z" fill="#20446C"/>
</g>
<path d="M16.8494 9.39638C16.8987 10.8043 16.5275 12.1952 15.783 13.3931C15.0384 14.591 13.9539 15.5422 12.6665 16.1264C11.379 16.7106 9.94658 16.9015 8.55019 16.6751C7.15379 16.4487 5.85617 15.8151 4.82138 14.8544C3.7866 13.8937 3.06112 12.649 2.73668 11.2778C2.41224 9.90654 2.5034 8.4703 2.99865 7.15064C3.49389 5.83099 4.37098 4.68719 5.51901 3.86386C6.66703 3.04053 8.03444 2.57465 9.44836 2.52512C11.3447 2.45948 13.1897 3.14645 14.5776 4.43496C15.9654 5.72348 16.7826 7.50807 16.8494 9.39638Z" fill="#F0792E"/>
<path d="M11.6104 7.67527C11.8545 7.67527 12.0524 7.48101 12.0524 7.24133C12.0524 7.00181 11.8545 6.80739 11.6104 6.80739H8.10955C7.8654 6.80739 7.66752 7.00181 7.66752 7.24133C7.66752 7.48101 7.8654 7.67527 8.10955 7.67527H9.11291C9.52783 7.67459 9.90477 7.91224 10.0766 8.28278H8.11386C7.86988 8.28278 7.67184 8.4772 7.67184 8.71672C7.67184 8.9564 7.86988 9.15066 8.11386 9.15066H10.0766C9.90321 9.52018 9.52714 9.75715 9.11291 9.75817H8.10955C7.92825 9.75834 7.76525 9.86699 7.69808 10.0323C7.63091 10.1975 7.67304 10.3864 7.80444 10.5089L10.3064 12.8305C10.3891 12.9064 10.4982 12.9483 10.6113 12.9476C10.7329 12.9469 10.8491 12.8985 10.934 12.8132C11.0145 12.7298 11.0578 12.6184 11.0546 12.5037C11.0513 12.3889 11.0015 12.2801 10.9164 12.2013L9.21893 10.626C10.08 10.5772 10.8063 9.97904 11.0048 9.15506H11.6104C11.8545 9.15506 12.0524 8.96081 12.0524 8.72112C12.0524 8.48144 11.8545 8.28719 11.6104 8.28719H11.0048C10.9534 8.07106 10.8636 7.86528 10.7396 7.67967H11.6104V7.67527Z" fill="white"/>
<g opacity="0.2">
<path opacity="0.2" d="M16.8494 9.39638C16.8987 10.8043 16.5275 12.1952 15.783 13.3931C15.0384 14.591 13.9539 15.5422 12.6665 16.1264C11.379 16.7106 9.94658 16.9015 8.55019 16.6751C7.15379 16.4487 5.85617 15.8151 4.82138 14.8544C3.7866 13.8937 3.06112 12.649 2.73668 11.2778C2.41224 9.90654 2.5034 8.4703 2.99865 7.15064C3.49389 5.83099 4.37098 4.68719 5.51901 3.86386C6.66703 3.04053 8.03444 2.57465 9.44836 2.52512C11.3447 2.45948 13.1897 3.14645 14.5776 4.43496C15.9654 5.72348 16.7826 7.50807 16.8494 9.39638Z" fill="white"/>
</g>
<path d="M9.81786 16.8388H9.87585L10.0468 16.8236L10.3275 16.7963C10.4547 16.7875 10.5811 16.7703 10.706 16.7446L11.179 16.6535C11.2682 16.6369 11.356 16.6135 11.4415 16.5836L11.7253 16.4985C11.8286 16.4723 11.9305 16.4408 12.0305 16.4043L12.3357 16.2766C12.4426 16.231 12.5555 16.1915 12.6623 16.1368L12.998 15.9606C13.4914 15.695 13.9532 15.3749 14.3745 15.0063L14.7071 14.6872L14.875 14.5231C14.9269 14.4623 14.9757 14.4015 15.0306 14.3407C15.1314 14.2161 15.2443 14.0976 15.3358 13.9639L15.6227 13.5536L15.696 13.4473C15.7204 13.4138 15.7387 13.3743 15.7601 13.3379L15.8883 13.113L16.0164 12.885C16.0622 12.8091 16.0897 12.724 16.1294 12.645C16.1996 12.4809 16.2759 12.3198 16.34 12.1526L16.5139 11.633C16.719 10.9003 16.8147 10.1415 16.7978 9.38103C16.7623 8.62071 16.6132 7.86991 16.3552 7.15342C16.285 6.98323 16.2179 6.81305 16.1477 6.6459C16.0775 6.47875 15.9829 6.3268 15.9005 6.16877C15.8619 6.08955 15.8191 6.01245 15.7723 5.9378L15.6288 5.71899L15.4854 5.50322C15.461 5.46675 15.4396 5.43028 15.4152 5.39685L15.3328 5.29656L15.0276 4.90757C14.9177 4.78297 14.7987 4.67052 14.6888 4.55504L14.521 4.38485C14.463 4.33015 14.4019 4.28153 14.3409 4.22986L13.9899 3.92596C13.5425 3.58726 13.0583 3.29978 12.5463 3.06895L12.2015 2.917C12.0885 2.86837 11.9726 2.84102 11.8657 2.80152L11.5422 2.69515C11.4415 2.65868 11.3347 2.64652 11.237 2.61917L10.9471 2.55535C10.8589 2.53234 10.7692 2.51609 10.6785 2.50673L10.2024 2.44899C10.076 2.43132 9.94851 2.4232 9.82091 2.42467H9.54012H9.36616H9.82091C9.94836 2.42088 10.0759 2.42698 10.2024 2.44291L10.6816 2.49457C10.773 2.50409 10.8637 2.51931 10.9532 2.54016L11.2584 2.60397C11.3561 2.62829 11.4629 2.64044 11.5636 2.67691L11.8871 2.78024C11.997 2.81671 12.116 2.8471 12.2289 2.89572L12.5769 3.04463C13.0931 3.27521 13.5823 3.56159 14.0357 3.89861L14.3897 4.20251L14.5728 4.3575L14.7407 4.52769C14.8536 4.64621 14.9757 4.75865 15.0856 4.88325L15.3908 5.27529L15.4732 5.37558L15.5464 5.48195L15.6899 5.70076L15.8364 5.91957C15.8883 5.9925 15.9218 6.0776 15.9676 6.15358C16.05 6.31161 16.1385 6.45748 16.2179 6.63374C16.2972 6.81001 16.3552 6.97411 16.4254 7.14734C16.9694 8.59769 17.0251 10.1848 16.5841 11.6694L16.4132 12.1952C16.3461 12.3654 16.2667 12.5264 16.1965 12.6905C16.1568 12.7726 16.1294 12.8577 16.0836 12.9337C16.0378 13.0096 15.9951 13.0856 15.9524 13.1616L15.8242 13.3895C15.8028 13.426 15.7814 13.4655 15.757 13.502L15.6838 13.6083L15.3786 14.0216C15.2779 14.1554 15.1649 14.2739 15.0734 14.3985L14.9147 14.5808L14.7468 14.748L14.4111 15.0701C13.9835 15.4392 13.5157 15.7593 13.0163 16.0244L12.6806 16.1976C12.5707 16.2523 12.4578 16.2888 12.348 16.3344L12.0428 16.462C11.9427 16.4985 11.8408 16.5299 11.7376 16.5562L11.4507 16.6383C11.364 16.6673 11.2752 16.6896 11.1851 16.7051L10.7121 16.7902C10.5863 16.8146 10.4587 16.8288 10.3306 16.8328L10.0498 16.854H9.87585L9.81786 16.8388Z" fill="#263238"/>
<path d="M1.58081 14.2375C1.56278 14.215 1.54742 14.1906 1.53503 14.1646L1.4099 13.9518C1.35802 13.8607 1.29393 13.7452 1.22984 13.6054C1.16575 13.4656 1.08334 13.3167 1.0162 13.1374L0.903276 12.8608C0.8636 12.7636 0.833079 12.6603 0.796455 12.5569C0.717104 12.3442 0.659119 12.1132 0.588924 11.8671C0.459032 11.3347 0.370267 10.7932 0.323405 10.2473C0.28723 9.69951 0.294375 9.14978 0.344771 8.60314C0.375291 8.35394 0.399702 8.11386 0.445482 7.89505C0.466845 7.7826 0.482109 7.67624 0.506525 7.57291C0.53094 7.46958 0.55535 7.37537 0.576714 7.26901C0.619441 7.08059 0.674377 6.91648 0.720156 6.77061C0.754825 6.64577 0.796604 6.52299 0.845288 6.40288L0.936843 6.17495C0.944225 6.14717 0.955533 6.12056 0.970419 6.09594C0.966543 6.12501 0.959374 6.15356 0.949053 6.18103L0.872754 6.412C0.836131 6.51228 0.796454 6.63689 0.756778 6.78276C0.717103 6.92863 0.665222 7.08666 0.625546 7.27812C0.6052 7.37335 0.583839 7.47465 0.561458 7.58203C0.537042 7.68232 0.524833 7.79172 0.50347 7.90113C0.460742 8.11994 0.439382 8.35698 0.411915 8.60618C0.363701 9.14892 0.358593 9.69461 0.396649 10.2381C0.440584 10.7808 0.52629 11.3193 0.653013 11.8488C0.720156 12.092 0.778141 12.3229 0.851388 12.5357C0.888012 12.639 0.91854 12.7454 0.955163 12.8396L1.06197 13.1192C1.12912 13.2985 1.20542 13.4504 1.26646 13.5902C1.3275 13.73 1.38548 13.8455 1.43431 13.9397L1.54724 14.1585C1.56272 14.1828 1.57407 14.2095 1.58081 14.2375Z" fill="white"/>
<path d="M9.77983 1.92938C9.70272 1.9373 9.62499 1.9373 9.54787 1.92938H9.2732C9.16943 1.92938 9.04735 1.92938 8.91307 1.92938C8.77878 1.92938 8.63534 1.94457 8.47663 1.9628C8.31793 1.98104 8.15618 2.00231 7.98221 2.02966C7.22614 2.1594 6.49439 2.40331 5.81225 2.75296C5.65659 2.83805 5.50705 2.91402 5.37581 2.99912C5.24883 3.07087 5.12558 3.14897 5.00653 3.23312C4.8936 3.30606 4.79899 3.379 4.70133 3.44282C4.60366 3.50664 4.54567 3.56134 4.48768 3.60996C4.42964 3.66163 4.36737 3.70839 4.30152 3.74976C4.35379 3.69239 4.40987 3.63858 4.46937 3.58869C4.52431 3.53703 4.5945 3.47624 4.67691 3.41243C4.75931 3.34861 4.85392 3.26655 4.96685 3.19058C5.07977 3.1146 5.19574 3.02951 5.33308 2.94745C5.47042 2.8654 5.61387 2.78031 5.76952 2.69521C6.11232 2.51716 6.46842 2.36577 6.83466 2.2424C7.20104 2.12056 7.57661 2.02808 7.95779 1.96585C8.13481 1.94153 8.30266 1.91418 8.46137 1.90506C8.62007 1.89595 8.76657 1.88379 8.90085 1.88075C9.03514 1.87772 9.15722 1.88075 9.26404 1.88075C9.37086 1.88075 9.46243 1.88075 9.53567 1.89899C9.61771 1.90305 9.69932 1.9132 9.77983 1.92938Z" fill="white"/>
<path d="M11.0179 18.4619C10.9645 18.4864 10.908 18.5038 10.85 18.5135C10.7401 18.5439 10.5784 18.5773 10.38 18.6108C9.33079 18.7837 8.25553 18.7109 7.2395 18.398C7.04722 18.3403 6.89158 18.2826 6.78781 18.24C6.73263 18.2209 6.67947 18.1965 6.6291 18.1671C6.68662 18.1758 6.74296 18.1911 6.79696 18.2127C6.90378 18.2491 7.05943 18.2978 7.25476 18.3525C8.26804 18.6344 9.3287 18.7057 10.3708 18.5622C10.5723 18.5348 10.734 18.5075 10.8439 18.4862C10.9006 18.4705 10.9591 18.4623 11.0179 18.4619Z" fill="white"/>
</svg>
