<svg width="1" height="7" viewBox="0 0 1 7" fill="none" xmlns="http://www.w3.org/2000/svg">
<path d="M0.199871 6.9999C0.146865 6.9999 0.096023 6.97884 0.0585422 6.94135C0.0210613 6.90386 3.0174e-06 6.85302 3.0174e-06 6.8V6.20029C3.0174e-06 6.14727 0.0210613 6.09642 0.0585422 6.05894C0.096023 6.02145 0.146865 6.00039 0.199871 6.00039C0.252877 6.00039 0.303705 6.02145 0.341186 6.05894C0.378667 6.09642 0.399725 6.14727 0.399725 6.20029V6.8C0.399725 6.85302 0.378667 6.90386 0.341186 6.94135C0.303705 6.97884 0.252877 6.9999 0.199871 6.9999ZM0.199871 4.99978C0.146865 4.99978 0.096023 4.97871 0.0585422 4.94122C0.0210613 4.90373 3.0174e-06 4.85289 3.0174e-06 4.79987V4.20016C3.0174e-06 4.14714 0.0210613 4.0963 0.0585422 4.05881C0.096023 4.02132 0.146865 4.00026 0.199871 4.00026C0.252877 4.00026 0.303705 4.02132 0.341186 4.05881C0.378667 4.0963 0.399725 4.14714 0.399725 4.20016V4.79987C0.399725 4.85289 0.378667 4.90373 0.341186 4.94122C0.303705 4.97871 0.252877 4.99978 0.199871 4.99978ZM0.199871 2.99965C0.146865 2.99965 0.096023 2.97859 0.0585422 2.9411C0.0210613 2.90361 3.0174e-06 2.85276 3.0174e-06 2.79974V2.20003C3.0174e-06 2.14702 0.0210613 2.09617 0.0585422 2.05868C0.096023 2.02119 0.146865 2.00013 0.199871 2.00013C0.252877 2.00013 0.303705 2.02119 0.341186 2.05868C0.378667 2.09617 0.399725 2.14702 0.399725 2.20003V2.79974C0.399725 2.85276 0.378667 2.90361 0.341186 2.9411C0.303705 2.97859 0.252877 2.99965 0.199871 2.99965ZM0.199871 0.99952C0.173584 0.999665 0.147527 0.994594 0.123214 0.984599C0.0989005 0.974604 0.0768098 0.959883 0.0582222 0.941292C0.0396347 0.9227 0.0249137 0.900604 0.0149211 0.876286C0.00492854 0.851967 -0.000141814 0.825907 3.0174e-06 0.799615V0.199905C3.0174e-06 0.146888 0.0210613 0.0960414 0.0585422 0.0585522C0.096023 0.021063 0.146865 0 0.199871 0C0.252877 0 0.303705 0.021063 0.341186 0.0585522C0.378667 0.0960414 0.399725 0.146888 0.399725 0.199905V0.799615C0.39987 0.825907 0.3948 0.851967 0.384807 0.876286C0.374814 0.900604 0.360093 0.9227 0.341506 0.941292C0.322918 0.959883 0.300828 0.974604 0.276514 0.984599C0.252201 0.994594 0.226157 0.999665 0.199871 0.99952Z" fill="#90B9E7"/>
</svg>
