<svg width="18" height="18" viewBox="0 0 18 18" fill="none" xmlns="http://www.w3.org/2000/svg">
<path d="M17.9945 8.68587C18.0566 10.4648 17.5898 12.2223 16.6531 13.7359C15.7164 15.2496 14.3519 16.4515 12.7321 17.1897C11.1123 17.9278 9.31001 18.1691 7.55311 17.8829C5.79621 17.5967 4.16363 16.796 2.86182 15.582C1.56 14.3679 0.647435 12.7951 0.239511 11.0625C-0.168413 9.32977 -0.0533699 7.51504 0.570093 5.84774C1.19356 4.18045 2.29744 2.73547 3.74214 1.69556C5.18684 0.65564 6.90747 0.0674833 8.68644 0.00546935C11.0718 -0.0776842 13.3926 0.790126 15.1381 2.418C16.8837 4.04588 17.9112 6.30048 17.9945 8.68587Z" fill="#20446C"/>
<g opacity="0.1">
<path opacity="0.1" d="M8.68581 0.0068722C6.30043 0.0901768 4.04584 1.11763 2.41797 2.8632C0.790111 4.60878 -0.0776836 6.92951 0.00546937 9.31491C0.00546937 9.31491 6.33938 9.37825 7.77891 6.77845C9.21843 4.17865 8.68581 0.0068722 8.68581 0.0068722Z" fill="white"/>
</g>
<path d="M15.6877 8.62241C15.7353 9.97504 15.3807 11.3114 14.6686 12.4624C13.9565 13.6134 12.9189 14.5273 11.6873 15.0884C10.4556 15.6495 9.08513 15.8327 7.74934 15.6146C6.41355 15.3966 5.17245 14.7872 4.18311 13.8636C3.19377 12.94 2.50066 11.7436 2.19148 10.4259C1.8823 9.10825 1.97096 7.72846 2.44624 6.46118C2.92151 5.1939 3.76204 4.0961 4.86145 3.30668C5.96086 2.51727 7.26975 2.07174 8.62246 2.02647C10.4336 1.96585 12.1948 2.62637 13.5194 3.86301C14.8441 5.09966 15.6239 6.81137 15.6877 8.62241Z" fill="#20446C"/>
<g opacity="0.2">
<path opacity="0.2" d="M15.6877 8.62241C15.7353 9.97504 15.3807 11.3114 14.6686 12.4624C13.9565 13.6134 12.9189 14.5273 11.6873 15.0884C10.4556 15.6495 9.08513 15.8327 7.74934 15.6146C6.41355 15.3966 5.17245 14.7872 4.18311 13.8636C3.19377 12.94 2.50066 11.7436 2.19148 10.4259C1.8823 9.10825 1.97096 7.72846 2.44624 6.46118C2.92151 5.1939 3.76204 4.0961 4.86145 3.30668C5.96086 2.51727 7.26975 2.07174 8.62246 2.02647C10.4336 1.96585 12.1948 2.62637 13.5194 3.86301C14.8441 5.09966 15.6239 6.81137 15.6877 8.62241Z" fill="#20446C"/>
</g>
<path d="M15.8924 8.90174C15.9388 10.2356 15.5887 11.5532 14.8863 12.6881C14.1839 13.8229 13.1608 14.724 11.9464 15.2775C10.7319 15.8309 9.38062 16.0118 8.06334 15.7974C6.74606 15.5829 5.52196 14.9826 4.54581 14.0725C3.56965 13.1623 2.88528 11.9832 2.57922 10.6841C2.27317 9.38505 2.35916 8.02441 2.82634 6.77422C3.29353 5.52403 4.12092 4.44044 5.2039 3.66045C6.28688 2.88045 7.57682 2.43909 8.91062 2.39217C10.6996 2.32999 12.44 2.98079 13.7492 4.20148C15.0584 5.42218 15.8293 7.11283 15.8924 8.90174Z" fill="#F0792E"/>
<path d="M10.95 7.27101C11.1803 7.27101 11.3669 7.08698 11.3669 6.85992C11.3669 6.63301 11.1803 6.44882 10.95 6.44882H7.64748C7.41716 6.44882 7.2305 6.63301 7.2305 6.85992C7.2305 7.08698 7.41716 7.27101 7.64748 7.27101H8.594C8.98541 7.27037 9.34098 7.49551 9.50305 7.84655H7.65155C7.4214 7.84655 7.23457 8.03074 7.23457 8.25765C7.23457 8.48471 7.4214 8.66874 7.65155 8.66874H9.50305C9.33952 9.01882 8.98476 9.24332 8.594 9.24428H7.64748C7.47645 9.24444 7.32269 9.34737 7.25933 9.50394C7.19596 9.66051 7.23571 9.83941 7.35966 9.95551L9.71985 12.1549C9.79787 12.2268 9.90082 12.2665 10.0075 12.2658C10.1222 12.2652 10.2318 12.2193 10.3119 12.1385C10.3878 12.0595 10.4287 11.954 10.4256 11.8453C10.4225 11.7366 10.3756 11.6335 10.2953 11.5588L8.69401 10.0665C9.50631 10.0202 10.1914 9.45352 10.3787 8.67292H10.95C11.1803 8.67292 11.3669 8.48889 11.3669 8.26182C11.3669 8.03475 11.1803 7.85072 10.95 7.85072H10.3787C10.3302 7.64598 10.2455 7.45103 10.1285 7.27519H10.95V7.27101Z" fill="white"/>
<g opacity="0.2">
<path opacity="0.2" d="M15.8924 8.90174C15.9388 10.2356 15.5887 11.5532 14.8863 12.6881C14.1839 13.8229 13.1608 14.724 11.9464 15.2775C10.7319 15.8309 9.38062 16.0118 8.06334 15.7974C6.74606 15.5829 5.52196 14.9826 4.54581 14.0725C3.56965 13.1623 2.88528 11.9832 2.57922 10.6841C2.27317 9.38505 2.35916 8.02441 2.82634 6.77422C3.29353 5.52403 4.12092 4.44044 5.2039 3.66045C6.28688 2.88045 7.57682 2.43909 8.91062 2.39217C10.6996 2.32999 12.44 2.98079 13.7492 4.20148C15.0584 5.42218 15.8293 7.11283 15.8924 8.90174Z" fill="white"/>
</g>
<path d="M9.26179 15.9525H9.31649L9.47772 15.9381L9.74259 15.9122C9.86256 15.9039 9.98182 15.8876 10.0996 15.8633L10.5458 15.7769C10.63 15.7612 10.7127 15.7391 10.7934 15.7107L11.0612 15.6301C11.1586 15.6053 11.2547 15.5755 11.3491 15.5408L11.637 15.4199C11.7378 15.3767 11.8443 15.3393 11.9451 15.2875L12.2618 15.1205C12.7272 14.8689 13.1628 14.5657 13.5602 14.2164L13.874 13.9141L14.0324 13.7587C14.0813 13.7011 14.1274 13.6435 14.1792 13.5859C14.2742 13.4679 14.3808 13.3556 14.4671 13.2289L14.7378 12.8402L14.8069 12.7395C14.8299 12.7078 14.8472 12.6704 14.8673 12.6358L14.9882 12.4228L15.1092 12.2068C15.1524 12.1349 15.1783 12.0543 15.2157 11.9794C15.2819 11.8239 15.3539 11.6713 15.4144 11.513L15.5784 11.0207C15.772 10.3265 15.8622 9.6077 15.8462 8.88728C15.8128 8.16698 15.6721 7.45569 15.4287 6.77692C15.3625 6.61569 15.2992 6.45446 15.233 6.29611C15.1668 6.13776 15.0775 5.99381 14.9998 5.8441C14.9634 5.76905 14.923 5.69601 14.8788 5.62529L14.7435 5.41799L14.6082 5.21358C14.5852 5.17903 14.565 5.14448 14.542 5.11281L14.4642 5.0178L14.1764 4.64928C14.0727 4.53124 13.9604 4.42471 13.8568 4.31531L13.6984 4.15408C13.6437 4.10226 13.5861 4.0562 13.5286 4.00725L13.1975 3.71934C12.7754 3.39848 12.3186 3.12613 11.8357 2.90744L11.5103 2.76349C11.4038 2.71743 11.2944 2.69152 11.1936 2.65409L10.8885 2.55332C10.7934 2.51877 10.6927 2.50725 10.6005 2.48134L10.327 2.42088C10.2439 2.39908 10.1592 2.38369 10.0737 2.37482L9.62455 2.32012C9.50534 2.30338 9.38504 2.29568 9.26467 2.29708H8.99979H8.83568H9.26467C9.38489 2.29349 9.50522 2.29927 9.62455 2.31436L10.0766 2.3633C10.1628 2.37231 10.2484 2.38674 10.3328 2.40649L10.6207 2.46695C10.7128 2.48998 10.8136 2.5015 10.9086 2.53605L11.2138 2.63393C11.3174 2.66848 11.4297 2.69727 11.5362 2.74334L11.8645 2.88441C12.3514 3.10285 12.8129 3.37416 13.2407 3.69343L13.5746 3.98134L13.7474 4.12817L13.9057 4.2894C14.0122 4.40168 14.1274 4.50821 14.2311 4.62625L14.519 4.99765L14.5967 5.09266L14.6658 5.19343L14.8011 5.40072L14.9393 5.60801C14.9882 5.67711 15.0199 5.75773 15.0631 5.8297C15.1408 5.97942 15.2243 6.11761 15.2992 6.2846C15.374 6.45158 15.4287 6.60705 15.495 6.77116C16.0081 8.14516 16.0606 9.64875 15.6447 11.0552L15.4834 11.5533C15.4201 11.7145 15.3452 11.8671 15.279 12.0226C15.2416 12.1003 15.2157 12.1809 15.1725 12.2529C15.1293 12.3249 15.089 12.3969 15.0487 12.4688L14.9278 12.6848C14.9076 12.7193 14.8875 12.7568 14.8644 12.7913L14.7953 12.8921L14.5074 13.2836C14.4124 13.4103 14.3059 13.5226 14.2195 13.6406L14.0698 13.8134L13.9115 13.9717L13.5948 14.2769C13.1914 14.6266 12.7501 14.9298 12.279 15.1809L11.9623 15.345C11.8587 15.3969 11.7522 15.4314 11.6485 15.4746L11.3606 15.5955C11.2662 15.6301 11.1701 15.6599 11.0727 15.6848L10.8021 15.7625C10.7203 15.79 10.6366 15.8112 10.5516 15.8258L10.1053 15.9065C9.98667 15.9295 9.86632 15.943 9.74547 15.9468L9.4806 15.9669H9.31649L9.26179 15.9525Z" fill="#263238"/>
<path d="M1.49028 13.4881C1.47328 13.4668 1.45879 13.4436 1.4471 13.419L1.32906 13.2175C1.28011 13.1311 1.21965 13.0217 1.15919 12.8893C1.09873 12.7568 1.021 12.6158 0.957658 12.4459L0.851135 12.1839C0.813708 12.0918 0.784915 11.9939 0.750367 11.896C0.675512 11.6945 0.620812 11.4757 0.554594 11.2425C0.432061 10.7381 0.348326 10.2251 0.304119 9.70791C0.269994 9.18899 0.276734 8.66819 0.324274 8.15033C0.353065 7.91425 0.376093 7.6868 0.419279 7.47951C0.439432 7.37298 0.453831 7.27222 0.476863 7.17433C0.499896 7.07644 0.522922 6.98719 0.543076 6.88642C0.583382 6.70792 0.635205 6.55245 0.678391 6.41425C0.711095 6.29598 0.750507 6.17967 0.796433 6.06588L0.8828 5.84995C0.889764 5.82363 0.900431 5.79843 0.914474 5.7751C0.910817 5.80264 0.904054 5.82969 0.894319 5.85571L0.822343 6.07452C0.787794 6.16953 0.750366 6.28757 0.712938 6.42577C0.67551 6.56396 0.626569 6.71368 0.589141 6.89506C0.569948 6.98527 0.549797 7.08124 0.528684 7.18296C0.505652 7.27797 0.494135 7.38162 0.473981 7.48527C0.433675 7.69256 0.413525 7.91713 0.387614 8.15321C0.342132 8.66738 0.337313 9.18434 0.373213 9.69927C0.414659 10.2133 0.495509 10.7235 0.615052 11.2252C0.678391 11.4555 0.733091 11.6743 0.802188 11.8758C0.836736 11.9737 0.865534 12.0745 0.900083 12.1638L1.00084 12.4286C1.06418 12.5985 1.13616 12.7424 1.19374 12.8749C1.25132 13.0073 1.30602 13.1167 1.35209 13.206L1.45861 13.4133C1.47322 13.4363 1.48392 13.4616 1.49028 13.4881Z" fill="white"/>
<path d="M9.22251 1.82773C9.14977 1.83524 9.07644 1.83524 9.0037 1.82773H8.74459C8.6467 1.82773 8.53154 1.82773 8.40486 1.82773C8.27818 1.82773 8.14287 1.84213 7.99316 1.8594C7.84344 1.87668 7.69085 1.89683 7.52675 1.92274C6.81352 2.04565 6.12322 2.27672 5.47973 2.60796C5.3329 2.68857 5.19182 2.76055 5.06802 2.84116C4.94824 2.90914 4.83197 2.98313 4.71966 3.06285C4.61313 3.13195 4.52388 3.20105 4.43175 3.26151C4.33962 3.32197 4.28492 3.37379 4.23021 3.41985C4.17546 3.4688 4.11672 3.5131 4.0546 3.55229C4.10391 3.49795 4.15681 3.44697 4.21294 3.3997C4.26476 3.35076 4.33098 3.29318 4.40872 3.23272C4.48645 3.17226 4.5757 3.09452 4.68223 3.02255C4.78876 2.95057 4.89815 2.86995 5.02771 2.79222C5.15727 2.71449 5.29259 2.63387 5.43943 2.55326C5.7628 2.38457 6.09873 2.24115 6.44422 2.12427C6.78984 2.00885 7.14413 1.92124 7.50371 1.86228C7.6707 1.83925 7.82904 1.81334 7.97875 1.8047C8.12847 1.79606 8.26666 1.78455 8.39334 1.78167C8.52002 1.77879 8.63518 1.78167 8.73595 1.78167C8.83672 1.78167 8.92309 1.78167 8.99219 1.79894C9.06958 1.80279 9.14656 1.81241 9.22251 1.82773Z" fill="white"/>
<path d="M10.3918 17.49C10.3415 17.5132 10.2882 17.5297 10.2335 17.5389C10.1299 17.5677 9.97726 17.5994 9.79012 17.631C8.80035 17.7949 7.78601 17.7259 6.82755 17.4295C6.64617 17.3748 6.49934 17.3201 6.40145 17.2798C6.34941 17.2617 6.29925 17.2386 6.25174 17.2107C6.306 17.2189 6.35914 17.2334 6.41009 17.2539C6.51086 17.2884 6.65769 17.3345 6.84195 17.3863C7.79781 17.6534 8.79838 17.721 9.78148 17.585C9.9715 17.5591 10.1241 17.5331 10.2277 17.513C10.2812 17.4981 10.3364 17.4903 10.3918 17.49Z" fill="white"/>
</svg>
