<svg width="11" height="11" viewBox="0 0 11 11" fill="none" xmlns="http://www.w3.org/2000/svg">
<path d="M5.5 10.6333C4.82589 10.6333 4.15838 10.5005 3.53559 10.2425C2.91279 9.98455 2.3469 9.60643 1.87023 9.12976C1.39357 8.6531 1.01545 8.08721 0.757483 7.46441C0.499513 6.84162 0.366737 6.17411 0.366737 5.5C0.366737 4.82589 0.499513 4.15838 0.757483 3.53559C1.01545 2.91279 1.39357 2.3469 1.87023 1.87023C2.3469 1.39357 2.91279 1.01545 3.53559 0.757483C4.15838 0.499513 4.82589 0.366737 5.5 0.366737C6.86143 0.366737 8.16709 0.907561 9.12976 1.87024C10.0924 2.83291 10.6333 4.13857 10.6333 5.5C10.6333 6.86143 10.0924 8.16709 9.12976 9.12976C8.16709 10.0924 6.86143 10.6333 5.5 10.6333Z" fill="#4CAF50" stroke="#4CAF50" stroke-width="0.678571"/>
<path d="M8.324 3.54569L8.2731 3.50467L8.22223 3.54573L4.72883 6.36606L3.31696 5.23011L3.26604 5.18914L3.21521 5.23023L2.47717 5.82668L2.39899 5.88986L2.4773 5.95287L4.67942 7.72452L4.73031 7.76547L4.78114 7.72444L9.06315 4.26747L9.14133 4.20435L9.06309 4.1413L8.324 3.54569Z" fill="white" stroke="white" stroke-width="0.15"/>
</svg>
