<svg width="4" height="4" viewBox="0 0 4 4" fill="none" xmlns="http://www.w3.org/2000/svg">
<path opacity="0.8" d="M2.16287 0.000944431C1.05645 0.0347402 0.0779369 0.947231 0.00433673 2.04197C-0.0692634 3.13672 0.803078 3.9804 1.92639 3.89833C3.02194 3.81746 3.94134 2.89049 3.99805 1.83678C4.05475 0.783078 3.24153 -0.0316444 2.16287 0.000944431ZM1.99033 2.84945C1.87289 2.86144 1.75426 2.84751 1.64278 2.80865C1.53131 2.76979 1.42971 2.70694 1.34515 2.62454C1.2606 2.54214 1.19513 2.44219 1.15338 2.33173C1.11163 2.22127 1.09461 2.10299 1.10351 1.98524C1.12774 1.73306 1.24167 1.49796 1.42458 1.32274C1.6075 1.14751 1.84722 1.04381 2.10013 1.03051C2.2156 1.02159 2.33164 1.03763 2.44037 1.07754C2.54909 1.11746 2.64796 1.18031 2.73025 1.26183C2.81255 1.34336 2.87634 1.44163 2.9173 1.55C2.95826 1.65837 2.97543 1.7743 2.96765 1.88989C2.94509 2.13984 2.83439 2.37362 2.65534 2.54941C2.47629 2.72521 2.24057 2.83156 1.99033 2.84945Z" fill="white"/>
</svg>
