<svg width="11" height="11" viewBox="0 0 11 11" fill="none" xmlns="http://www.w3.org/2000/svg">
<path d="M5.5 10.6504C4.82364 10.6504 4.15389 10.5172 3.52901 10.2584C2.90413 9.99955 2.33635 9.62017 1.85809 9.14191C1.37983 8.66364 1.00045 8.09587 0.741619 7.47099C0.482786 6.84611 0.349566 6.17636 0.349566 5.5C0.349566 4.82364 0.482786 4.15389 0.741619 3.52901C1.00045 2.90413 1.37983 2.33635 1.85809 1.85809C2.33635 1.37983 2.90413 1.00045 3.52901 0.741619C4.15389 0.482786 4.82364 0.349566 5.5 0.349566C6.86598 0.349566 8.17601 0.892199 9.14191 1.85809C10.1078 2.82399 10.6504 4.13402 10.6504 5.5C10.6504 6.86598 10.1078 8.17601 9.14191 9.14191C8.17601 10.1078 6.86598 10.6504 5.5 10.6504Z" fill="#FF4E4E" stroke="#FF4E4E" stroke-width="0.678571"/>
<path d="M4.00483 7.58716L4.00485 7.58713L5.49998 6.09196L6.99515 7.58714C7.15986 7.75184 7.42643 7.75184 7.59113 7.58714C7.75588 7.42243 7.75588 7.15586 7.59113 6.99116C7.59112 6.99115 7.59111 6.99114 7.5911 6.99113L6.096 5.49599L7.5911 4.00084C7.59111 4.00083 7.59112 4.00082 7.59113 4.00081C7.75588 3.83611 7.75588 3.56954 7.59113 3.40484C7.59112 3.40483 7.59111 3.40482 7.5911 3.40481L7.48187 3.5141C7.42981 3.46204 7.36148 3.43589 7.29314 3.43589C7.22481 3.43589 7.15647 3.46204 7.10441 3.5141L4.00483 7.58716ZM4.00483 7.58716C3.8401 7.75181 3.57362 7.75185 3.4089 7.58716H4.00483ZM4.90401 5.49599L3.4089 6.99113C3.40889 6.99114 3.40888 6.99115 3.40888 6.99116C3.24413 7.15586 3.24413 7.42243 3.40888 7.58714L4.90401 5.49599ZM4.90401 5.49599L3.4089 4.00084C3.40889 4.00083 3.40888 4.00082 3.40888 4.00081L4.90401 5.49599ZM4.00485 3.40484L5.49998 4.90001L3.51813 3.89156C3.41372 3.7872 3.41372 3.61846 3.51813 3.5141L3.40883 3.40489C3.40885 3.40486 3.40888 3.40484 3.4089 3.40481C3.49103 3.32265 3.59921 3.28137 3.70686 3.28137C3.81459 3.28137 3.92271 3.3227 4.00485 3.40484L3.8956 3.5141L4.00485 3.40484Z" fill="white" stroke="white" stroke-width="0.3"/>
</svg>
