<svg width="29" height="29" viewBox="0 0 29 29" fill="none" xmlns="http://www.w3.org/2000/svg">
<g clip-path="url(#clip0_7_52937)">
<path d="M14.5009 28.9994C22.2205 28.9994 28.4784 22.7415 28.4784 15.0219C28.4784 7.30237 22.2205 1.04443 14.5009 1.04443C6.78137 1.04443 0.523438 7.30237 0.523438 15.0219C0.523438 22.7415 6.78137 28.9994 14.5009 28.9994Z" fill="#FDF4E2"/>
<path d="M15.4268 4.32398V5.35652L11.5744 5.61739L7.48438 5.35652V4.32398C7.48438 4.14504 7.62942 4 7.80835 4H15.1028C15.2818 4 15.4268 4.14504 15.4268 4.32398Z" fill="#7CA1B1"/>
<path d="M15.4264 4.32382V5.35652L13.7657 5.46031V4.32382C13.7657 4.14479 13.6204 4 13.4414 4H15.102C15.2811 4 15.4264 4.14479 15.4264 4.32382Z" fill="#678D98"/>
<path d="M19.9103 6.92729V27.8106C19.9103 28.6783 19.2071 29.3815 18.3395 29.3815H4.57136C3.70369 29.3815 3 28.6783 3 27.8106V6.92729C3 6.05961 3.70369 5.35645 4.57136 5.35645H5.40037L11.4556 5.75572L17.3708 5.35645H18.3395C19.2071 5.35645 19.9103 6.05961 19.9103 6.92729Z" fill="#20446C"/>
<path d="M19.9108 6.92751V27.8108C19.9108 28.6785 19.2076 29.3817 18.34 29.3817H17.3711C18.2388 29.3817 18.9419 28.6785 18.9419 27.8108V6.92751C18.9419 5.30181 17.5512 5.35666 17.5512 5.35666H18.34C19.2076 5.35666 19.9108 6.05983 19.9108 6.92751Z" fill="#08182B"/>
<path d="M18.3384 6.14524V25.957C18.3384 26.3929 17.985 26.7457 17.5496 26.7457H5.35911C4.92319 26.7457 4.57031 26.3929 4.57031 25.957V6.14524C4.57031 5.70985 4.92319 5.35645 5.35911 5.35645H17.5496C17.985 5.35645 18.3384 5.70985 18.3384 6.14524Z" fill="#E3EDF8"/>
<path d="M18.3408 6.14524V25.957C18.3408 26.3929 17.9874 26.7457 17.552 26.7457H16.1602C16.5961 26.7457 16.9489 26.3929 16.9489 25.957V6.14524C16.9489 5.70985 16.5961 5.35645 16.1602 5.35645H17.552C17.9874 5.35645 18.3408 5.70985 18.3408 6.14524Z" fill="#9DB6D1"/>
<path d="M16.2394 10.8063H6.91127C6.74022 10.8063 6.60156 10.6677 6.60156 10.4966V9.55922C6.60156 9.38817 6.74022 9.24951 6.91127 9.24951H16.2394C16.4104 9.24951 16.5491 9.38817 16.5491 9.55922V10.4966C16.5491 10.6677 16.4104 10.8063 16.2394 10.8063Z" fill="#7CA1B1"/>
<path d="M13.9889 5.35645V6.08556C13.9889 6.57908 13.5877 6.98074 13.0942 6.98074H9.81761C9.32409 6.98074 8.92295 6.57908 8.92295 6.08556V5.35645H8.14453V6.08556C8.14453 7.00824 8.89492 7.75915 9.81761 7.75915H13.0942C14.0169 7.75915 14.7673 7.00824 14.7673 6.08556V5.35645H13.9889Z" fill="white"/>
<path d="M9.16115 13.7638H6.99077C6.77582 13.7638 6.60156 13.5895 6.60156 13.3746C6.60156 13.1596 6.77582 12.9854 6.99077 12.9854H9.16115C9.3761 12.9854 9.55036 13.1596 9.55036 13.3746C9.55036 13.5895 9.3761 13.7638 9.16115 13.7638Z" fill="#7CA1B1"/>
<path d="M13.9172 16.3321H6.99077C6.77582 16.3321 6.60156 16.1579 6.60156 15.9429C6.60156 15.728 6.77582 15.5537 6.99077 15.5537H13.9171C14.1321 15.5537 14.3063 15.728 14.3063 15.9429C14.3063 16.1579 14.1321 16.3321 13.9172 16.3321Z" fill="#7CA1B1"/>
<path d="M13.229 18.9005H6.99077C6.77582 18.9005 6.60156 18.7262 6.60156 18.5113C6.60156 18.2963 6.77582 18.1221 6.99077 18.1221H13.2289C13.4439 18.1221 13.6181 18.2963 13.6181 18.5113C13.6181 18.7262 13.4439 18.9005 13.229 18.9005Z" fill="#7CA1B1"/>
<path d="M12.5408 21.4688H6.99077C6.77582 21.4688 6.60156 21.2946 6.60156 21.0796C6.60156 20.8647 6.77582 20.6904 6.99077 20.6904H12.5408C12.7558 20.6904 12.93 20.8647 12.93 21.0796C12.93 21.2946 12.7558 21.4688 12.5408 21.4688Z" fill="#7CA1B1"/>
<path d="M9.16115 24.037H6.99077C6.77582 24.037 6.60156 23.8627 6.60156 23.6478C6.60156 23.4328 6.77582 23.2585 6.99077 23.2585H9.16115C9.3761 23.2585 9.55036 23.4328 9.55036 23.6478C9.55036 23.8627 9.3761 24.037 9.16115 24.037Z" fill="#7CA1B1"/>
<path d="M27.4533 13.9448L17.2332 11.2064C16.9438 11.1288 16.6463 11.3006 16.5687 11.59L12.6085 26.3699C12.5309 26.6593 12.7027 26.9568 12.9921 27.0344L23.2122 29.7729C23.5017 29.8505 23.7992 29.6786 23.8768 29.3892L27.837 14.6094C27.9146 14.3199 27.7428 14.0224 27.4533 13.9448Z" fill="#9DB6D1"/>
<path d="M26.5557 12.392L22.5955 27.1717C22.518 27.4609 22.2204 27.6331 21.9312 27.5557L11.711 24.8171C11.4218 24.7397 11.2497 24.4416 11.3272 24.1523L15.2874 9.37265C15.365 9.08292 15.663 8.91131 15.9522 8.98884L26.1724 11.7274C26.4616 11.8048 26.6334 12.1023 26.5557 12.392Z" fill="#EAF6FF"/>
<path d="M26.5551 12.3918L22.595 27.1718C22.5177 27.4608 22.2198 27.6331 21.9308 27.5558L20.293 27.1168C20.582 27.1941 20.8804 27.0223 20.9577 26.7328L24.9178 11.9532C24.9951 11.6652 24.8254 11.3689 24.539 11.29L26.1716 11.7275C26.4611 11.8048 26.6329 12.1022 26.5551 12.3918Z" fill="#C8EFFE"/>
<path d="M18.2745 24.5927C20.3872 24.5927 22.0998 22.8801 22.0998 20.7674C22.0998 18.6548 20.3872 16.9421 18.2745 16.9421C16.1619 16.9421 14.4492 18.6548 14.4492 20.7674C14.4492 22.8801 16.1619 24.5927 18.2745 24.5927Z" fill="#46CC8D"/>
<path d="M23.1767 16.1089L16.3547 14.2809C16.1978 14.2388 16.1048 14.0777 16.1468 13.9209L16.789 11.5241C16.831 11.3673 16.9922 11.2742 17.1491 11.3162L23.9711 13.1442C24.1279 13.1863 24.221 13.3474 24.1789 13.5042L23.5367 15.901C23.4947 16.0578 23.3335 16.1508 23.1767 16.1089Z" fill="#366192"/>
<path d="M18.0618 21.9442C17.9273 21.9442 17.7964 21.8744 17.7243 21.7495L16.4663 19.5705C16.3588 19.3843 16.4226 19.1463 16.6087 19.0388C16.7949 18.9313 17.0329 18.9951 17.1404 19.1813L18.2038 21.0232L21.641 19.0388C21.8272 18.9313 22.0652 18.9951 22.1727 19.1813C22.2802 19.3674 22.2164 19.6054 22.0302 19.7129L18.256 21.892C18.1947 21.9273 18.1278 21.9442 18.0618 21.9442Z" fill="white"/>
</g>
<defs>
<clipPath id="clip0_7_52937">
<path d="M0 0H29V14.5C29 22.5081 22.5081 29 14.5 29C6.49187 29 0 22.5081 0 14.5V0Z" fill="white"/>
</clipPath>
</defs>
</svg>
