<svg width="29" height="30" viewBox="0 0 29 30" fill="none" xmlns="http://www.w3.org/2000/svg">
<mask id="path-1-outside-1_176_4489" maskUnits="userSpaceOnUse" x="-0.817126" y="-0.81613" width="29.5919" height="24.4899" fill="black">
<rect fill="white" x="-0.817126" y="-0.81613" width="29.5919" height="24.4899"/>
<path d="M3.20872 5.52158H6.67652V10.7526C6.84269 10.7048 7.01474 10.6804 7.18766 10.6802C7.32699 10.6811 7.46576 10.6979 7.60127 10.7303V2.63175C7.60131 2.08592 7.41635 1.5562 7.07657 1.12903H21.3569C21.7553 1.12949 22.1373 1.28796 22.419 1.56967C22.7007 1.85139 22.8592 2.23334 22.8596 2.63175V3.5522C23.0028 3.47905 23.1612 3.4409 23.322 3.4409C23.4827 3.4409 23.6412 3.47905 23.7844 3.5522V2.63175C23.7836 1.98816 23.5277 1.37115 23.0726 0.916067C22.6175 0.460985 22.0005 0.205004 21.3569 0.204282L5.17381 0.204282C4.53022 0.205004 3.91321 0.460985 3.45813 0.916067C3.00305 1.37115 2.74706 1.98816 2.74634 2.63175V5.05921C2.74635 5.18184 2.79506 5.29944 2.88178 5.38615C2.96849 5.47286 3.08609 5.52158 3.20872 5.52158ZM3.67109 2.63175C3.67109 2.2332 3.82941 1.85098 4.11123 1.56916C4.39304 1.28735 4.77526 1.12903 5.17381 1.12903C5.57235 1.12903 5.95457 1.28735 6.23639 1.56916C6.5182 1.85098 6.67652 2.2332 6.67652 2.63175V4.59683H3.67109V2.63175ZM12.225 22.3982V21.4735C12.2247 21.2283 12.1272 20.9932 11.9539 20.8199C11.7805 20.6465 11.5454 20.549 11.3003 20.5487H11.0691V19.1616C11.0688 18.9164 10.9713 18.6814 10.7979 18.508C10.6246 18.3346 10.3895 18.2371 10.1443 18.2369H2.28397C2.03879 18.2371 1.80373 18.3346 1.63036 18.508C1.45699 18.6814 1.35948 18.9164 1.35922 19.1616V20.5487H1.12803C0.882855 20.549 0.647793 20.6465 0.474426 20.8199C0.301059 20.9932 0.203546 21.2283 0.203285 21.4735V22.3982C0.203546 22.6434 0.301059 22.8785 0.474426 23.0518C0.647793 23.2252 0.882855 23.3227 1.12803 23.323H11.3003C11.5454 23.3227 11.7805 23.2252 11.9539 23.0518C12.1272 22.8785 12.2247 22.6434 12.225 22.3982ZM2.28397 19.1616H10.1443L10.145 20.5487H2.28397V19.1616ZM1.12803 21.4735H11.3003L11.3009 22.3982H1.12803V21.4735ZM28.0447 9.45482C28.076 9.36138 28.1182 9.27198 28.1706 9.18854C28.3518 8.9377 28.4295 8.6267 28.3874 8.32012C28.287 8.0187 28.0754 7.76696 27.7957 7.61631C27.7188 7.56698 27.6462 7.51128 27.5787 7.4498C27.5661 7.35479 27.5648 7.25862 27.5748 7.1633C27.6265 6.8555 27.5574 6.53961 27.382 6.28146C27.1597 6.05505 26.861 5.91965 26.5442 5.90172C26.4512 5.8897 26.3594 5.86976 26.2698 5.84212C26.2181 5.76267 26.1754 5.67767 26.1427 5.58871C26.0523 5.28589 25.8498 5.02891 25.5766 4.87009C25.2796 4.76048 24.9525 4.76487 24.6586 4.88239C24.5673 4.90991 24.4742 4.93099 24.38 4.94549C24.3003 4.89675 24.2261 4.83956 24.1586 4.77492C24.0595 4.64752 23.9326 4.54443 23.7876 4.47351C23.6426 4.4026 23.4834 4.36573 23.322 4.36573C23.1606 4.36573 23.0013 4.4026 22.8563 4.47351C22.7113 4.54443 22.5844 4.64752 22.4853 4.77492C22.4199 4.83653 22.3494 4.89267 22.2748 4.94278C22.1764 4.93444 22.0794 4.91416 21.9859 4.88239C21.6918 4.76489 21.3647 4.76046 21.0676 4.86997C20.7944 5.02875 20.5919 5.28569 20.5015 5.58848C20.4692 5.67401 20.4295 5.75657 20.3829 5.83523C20.2914 5.8677 20.1965 5.88992 20.1 5.90149C19.7832 5.91943 19.4845 6.05483 19.2622 6.28124C19.0868 6.53938 19.0177 6.85527 19.0694 7.16307C19.0782 7.25523 19.0785 7.34799 19.0703 7.44021C19.003 7.50678 18.9285 7.56576 18.8483 7.61608C18.5686 7.76688 18.3569 8.01873 18.2565 8.32024C18.2147 8.62666 18.2923 8.93745 18.4733 9.18821C18.5244 9.27037 18.5666 9.35769 18.5992 9.44873C18.568 9.54218 18.5257 9.63158 18.4733 9.71502C18.2921 9.96586 18.2145 10.2769 18.2566 10.5834C18.3569 10.8849 18.5686 11.1366 18.8483 11.2873C18.9251 11.3366 18.9977 11.3923 19.0653 11.4538C19.0778 11.5488 19.0792 11.6449 19.0692 11.7402C19.0175 12.0481 19.0866 12.3639 19.262 12.6221C19.4843 12.8485 19.783 12.9839 20.0998 13.0018C20.1928 13.0138 20.2846 13.0338 20.3742 13.0614C20.4259 13.1409 20.4685 13.2259 20.5012 13.3149C20.5856 13.5748 20.7456 13.8038 20.9606 13.9725V17.7744C20.961 17.86 20.9852 17.9439 21.0305 18.0165C21.0759 18.0892 21.1405 18.1478 21.2173 18.1858C21.2947 18.2247 21.3812 18.242 21.4677 18.2357C21.5541 18.2294 21.6373 18.1998 21.7082 18.15L23.322 17.0157L24.9358 18.15C25.0068 18.1997 25.0899 18.2292 25.1763 18.2355C25.2627 18.2418 25.3492 18.2246 25.4267 18.1858C25.5034 18.1478 25.5681 18.0892 25.6134 18.0165C25.6587 17.9439 25.683 17.86 25.6834 17.7744V13.9725C25.8983 13.8038 26.0581 13.5749 26.1425 13.3151C26.1748 13.2296 26.2144 13.147 26.261 13.0683C26.3526 13.0359 26.4475 13.0136 26.544 13.0021C26.8608 12.9841 27.1595 12.8487 27.3818 12.6223C27.5572 12.3642 27.6263 12.0483 27.5745 11.7405C27.5658 11.6483 27.5655 11.5556 27.5736 11.4634C27.641 11.3968 27.7155 11.3378 27.7957 11.2875C28.0754 11.1367 28.2871 10.8848 28.3874 10.5833C28.4293 10.2769 28.3517 9.96612 28.1707 9.71536C28.1196 9.6332 28.0774 9.54587 28.0447 9.45482ZM24.7388 16.8733L23.5973 16.071C23.5166 16.0145 23.4205 15.9842 23.322 15.9842C23.2235 15.9842 23.1273 16.0145 23.0466 16.071L21.9052 16.8733V14.043C21.9323 14.0357 21.9594 14.0283 21.9854 14.0212C22.0762 13.992 22.1694 13.9709 22.264 13.9581C22.3437 14.0068 22.4179 14.064 22.4854 14.1286C22.5844 14.256 22.7113 14.3591 22.8563 14.43C23.0013 14.501 23.1606 14.5378 23.322 14.5378C23.4834 14.5378 23.6427 14.501 23.7877 14.43C23.9326 14.3591 24.0595 14.256 24.1586 14.1286C24.2241 14.067 24.2945 14.0109 24.3692 13.9608C24.4675 13.9699 24.5644 13.9901 24.6581 14.0212C24.6842 14.0284 24.7115 14.0358 24.7388 14.0431L24.7388 16.8733ZM27.3421 10.159C27.3836 10.2297 27.4208 10.3027 27.4537 10.3778C27.3884 10.4342 27.3196 10.4865 27.2478 10.5343C27.0321 10.6604 26.8524 10.8399 26.7261 11.0555C26.6309 11.287 26.5982 11.5394 26.6311 11.7874C26.6376 11.8708 26.6386 11.9545 26.6341 12.0381C26.5514 12.0609 26.4673 12.0786 26.3823 12.091C26.1293 12.1139 25.8862 12.2006 25.6758 12.343C25.4894 12.5099 25.3497 12.7224 25.2704 12.9597C25.239 13.0386 25.2025 13.1154 25.1613 13.1896C25.0781 13.1751 24.9958 13.1557 24.915 13.1313C24.6743 13.0444 24.4156 13.0194 24.1628 13.0585C23.9233 13.129 23.7058 13.2595 23.5309 13.4377C23.4653 13.4979 23.3955 13.5534 23.322 13.6037C23.2485 13.5534 23.1787 13.4979 23.1131 13.4377C22.9382 13.2595 22.7207 13.129 22.4812 13.0585C22.4106 13.043 22.3386 13.0352 22.2663 13.0355C22.0836 13.0429 21.9028 13.0751 21.7288 13.1312C21.6479 13.1556 21.5657 13.175 21.4825 13.1895C21.4412 13.1153 21.4047 13.0384 21.3734 12.9595C21.294 12.7223 21.1543 12.5097 20.968 12.3427C20.7576 12.2003 20.5145 12.1136 20.2614 12.0908C20.1765 12.0784 20.0924 12.0607 20.0096 12.0378C20.0052 11.9543 20.0062 11.8706 20.0126 11.7872C20.0456 11.5391 20.0128 11.2867 19.9176 11.0553C19.7913 10.8397 19.6118 10.6603 19.3962 10.5341C19.3243 10.4864 19.2555 10.4341 19.1903 10.3777C19.2231 10.3026 19.2604 10.2295 19.3019 10.1589C19.442 9.9479 19.5253 9.70436 19.5438 9.45177C19.5254 9.19914 19.4421 8.95554 19.3019 8.74456C19.2604 8.6739 19.2231 8.60085 19.1903 8.52579C19.2555 8.4693 19.3243 8.417 19.3962 8.36922C19.6119 8.24312 19.7915 8.06365 19.9178 7.84805C20.013 7.61659 20.0458 7.3642 20.0128 7.11611C20.0064 7.03273 20.0054 6.94901 20.0098 6.8655C20.0926 6.84266 20.1767 6.82499 20.2616 6.81257C20.5147 6.7897 20.7578 6.70301 20.9682 6.56062C21.1546 6.39368 21.2943 6.18111 21.3736 5.94381C21.405 5.86493 21.4414 5.78816 21.4827 5.71398C21.5659 5.72843 21.6481 5.74788 21.729 5.77224C21.9696 5.8593 22.2283 5.88434 22.4812 5.84505C22.7207 5.77452 22.9382 5.64401 23.1131 5.46588C23.1787 5.40568 23.2485 5.35019 23.322 5.29983C23.3955 5.35019 23.4653 5.40568 23.5309 5.46589C23.7058 5.64402 23.9233 5.77453 24.1628 5.84505C24.4157 5.88408 24.6744 5.85909 24.9152 5.77236C24.9961 5.748 25.0783 5.72855 25.1615 5.7141C25.2028 5.78831 25.2392 5.86512 25.2706 5.94404C25.35 6.18131 25.4897 6.39386 25.676 6.56085C25.8864 6.70324 26.1295 6.78993 26.3825 6.81281C26.4675 6.82522 26.5516 6.8429 26.6344 6.86573C26.6388 6.94925 26.6378 7.03296 26.6314 7.11634C26.5984 7.36443 26.6312 7.61683 26.7264 7.84828C26.8526 8.06382 27.0322 8.24328 27.2478 8.36945C27.3197 8.41718 27.3884 8.46943 27.4537 8.52591C27.4208 8.60097 27.3836 8.67402 27.3421 8.74468C27.202 8.95566 27.1187 9.19919 27.1002 9.45177C27.1186 9.70441 27.2019 9.94802 27.3421 10.159H27.3421Z"/>
</mask>
<path d="M3.20872 5.52158H6.67652V10.7526C6.84269 10.7048 7.01474 10.6804 7.18766 10.6802C7.32699 10.6811 7.46576 10.6979 7.60127 10.7303V2.63175C7.60131 2.08592 7.41635 1.5562 7.07657 1.12903H21.3569C21.7553 1.12949 22.1373 1.28796 22.419 1.56967C22.7007 1.85139 22.8592 2.23334 22.8596 2.63175V3.5522C23.0028 3.47905 23.1612 3.4409 23.322 3.4409C23.4827 3.4409 23.6412 3.47905 23.7844 3.5522V2.63175C23.7836 1.98816 23.5277 1.37115 23.0726 0.916067C22.6175 0.460985 22.0005 0.205004 21.3569 0.204282L5.17381 0.204282C4.53022 0.205004 3.91321 0.460985 3.45813 0.916067C3.00305 1.37115 2.74706 1.98816 2.74634 2.63175V5.05921C2.74635 5.18184 2.79506 5.29944 2.88178 5.38615C2.96849 5.47286 3.08609 5.52158 3.20872 5.52158ZM3.67109 2.63175C3.67109 2.2332 3.82941 1.85098 4.11123 1.56916C4.39304 1.28735 4.77526 1.12903 5.17381 1.12903C5.57235 1.12903 5.95457 1.28735 6.23639 1.56916C6.5182 1.85098 6.67652 2.2332 6.67652 2.63175V4.59683H3.67109V2.63175ZM12.225 22.3982V21.4735C12.2247 21.2283 12.1272 20.9932 11.9539 20.8199C11.7805 20.6465 11.5454 20.549 11.3003 20.5487H11.0691V19.1616C11.0688 18.9164 10.9713 18.6814 10.7979 18.508C10.6246 18.3346 10.3895 18.2371 10.1443 18.2369H2.28397C2.03879 18.2371 1.80373 18.3346 1.63036 18.508C1.45699 18.6814 1.35948 18.9164 1.35922 19.1616V20.5487H1.12803C0.882855 20.549 0.647793 20.6465 0.474426 20.8199C0.301059 20.9932 0.203546 21.2283 0.203285 21.4735V22.3982C0.203546 22.6434 0.301059 22.8785 0.474426 23.0518C0.647793 23.2252 0.882855 23.3227 1.12803 23.323H11.3003C11.5454 23.3227 11.7805 23.2252 11.9539 23.0518C12.1272 22.8785 12.2247 22.6434 12.225 22.3982ZM2.28397 19.1616H10.1443L10.145 20.5487H2.28397V19.1616ZM1.12803 21.4735H11.3003L11.3009 22.3982H1.12803V21.4735ZM28.0447 9.45482C28.076 9.36138 28.1182 9.27198 28.1706 9.18854C28.3518 8.9377 28.4295 8.6267 28.3874 8.32012C28.287 8.0187 28.0754 7.76696 27.7957 7.61631C27.7188 7.56698 27.6462 7.51128 27.5787 7.4498C27.5661 7.35479 27.5648 7.25862 27.5748 7.1633C27.6265 6.8555 27.5574 6.53961 27.382 6.28146C27.1597 6.05505 26.861 5.91965 26.5442 5.90172C26.4512 5.8897 26.3594 5.86976 26.2698 5.84212C26.2181 5.76267 26.1754 5.67767 26.1427 5.58871C26.0523 5.28589 25.8498 5.02891 25.5766 4.87009C25.2796 4.76048 24.9525 4.76487 24.6586 4.88239C24.5673 4.90991 24.4742 4.93099 24.38 4.94549C24.3003 4.89675 24.2261 4.83956 24.1586 4.77492C24.0595 4.64752 23.9326 4.54443 23.7876 4.47351C23.6426 4.4026 23.4834 4.36573 23.322 4.36573C23.1606 4.36573 23.0013 4.4026 22.8563 4.47351C22.7113 4.54443 22.5844 4.64752 22.4853 4.77492C22.4199 4.83653 22.3494 4.89267 22.2748 4.94278C22.1764 4.93444 22.0794 4.91416 21.9859 4.88239C21.6918 4.76489 21.3647 4.76046 21.0676 4.86997C20.7944 5.02875 20.5919 5.28569 20.5015 5.58848C20.4692 5.67401 20.4295 5.75657 20.3829 5.83523C20.2914 5.8677 20.1965 5.88992 20.1 5.90149C19.7832 5.91943 19.4845 6.05483 19.2622 6.28124C19.0868 6.53938 19.0177 6.85527 19.0694 7.16307C19.0782 7.25523 19.0785 7.34799 19.0703 7.44021C19.003 7.50678 18.9285 7.56576 18.8483 7.61608C18.5686 7.76688 18.3569 8.01873 18.2565 8.32024C18.2147 8.62666 18.2923 8.93745 18.4733 9.18821C18.5244 9.27037 18.5666 9.35769 18.5992 9.44873C18.568 9.54218 18.5257 9.63158 18.4733 9.71502C18.2921 9.96586 18.2145 10.2769 18.2566 10.5834C18.3569 10.8849 18.5686 11.1366 18.8483 11.2873C18.9251 11.3366 18.9977 11.3923 19.0653 11.4538C19.0778 11.5488 19.0792 11.6449 19.0692 11.7402C19.0175 12.0481 19.0866 12.3639 19.262 12.6221C19.4843 12.8485 19.783 12.9839 20.0998 13.0018C20.1928 13.0138 20.2846 13.0338 20.3742 13.0614C20.4259 13.1409 20.4685 13.2259 20.5012 13.3149C20.5856 13.5748 20.7456 13.8038 20.9606 13.9725V17.7744C20.961 17.86 20.9852 17.9439 21.0305 18.0165C21.0759 18.0892 21.1405 18.1478 21.2173 18.1858C21.2947 18.2247 21.3812 18.242 21.4677 18.2357C21.5541 18.2294 21.6373 18.1998 21.7082 18.15L23.322 17.0157L24.9358 18.15C25.0068 18.1997 25.0899 18.2292 25.1763 18.2355C25.2627 18.2418 25.3492 18.2246 25.4267 18.1858C25.5034 18.1478 25.5681 18.0892 25.6134 18.0165C25.6587 17.9439 25.683 17.86 25.6834 17.7744V13.9725C25.8983 13.8038 26.0581 13.5749 26.1425 13.3151C26.1748 13.2296 26.2144 13.147 26.261 13.0683C26.3526 13.0359 26.4475 13.0136 26.544 13.0021C26.8608 12.9841 27.1595 12.8487 27.3818 12.6223C27.5572 12.3642 27.6263 12.0483 27.5745 11.7405C27.5658 11.6483 27.5655 11.5556 27.5736 11.4634C27.641 11.3968 27.7155 11.3378 27.7957 11.2875C28.0754 11.1367 28.2871 10.8848 28.3874 10.5833C28.4293 10.2769 28.3517 9.96612 28.1707 9.71536C28.1196 9.6332 28.0774 9.54587 28.0447 9.45482ZM24.7388 16.8733L23.5973 16.071C23.5166 16.0145 23.4205 15.9842 23.322 15.9842C23.2235 15.9842 23.1273 16.0145 23.0466 16.071L21.9052 16.8733V14.043C21.9323 14.0357 21.9594 14.0283 21.9854 14.0212C22.0762 13.992 22.1694 13.9709 22.264 13.9581C22.3437 14.0068 22.4179 14.064 22.4854 14.1286C22.5844 14.256 22.7113 14.3591 22.8563 14.43C23.0013 14.501 23.1606 14.5378 23.322 14.5378C23.4834 14.5378 23.6427 14.501 23.7877 14.43C23.9326 14.3591 24.0595 14.256 24.1586 14.1286C24.2241 14.067 24.2945 14.0109 24.3692 13.9608C24.4675 13.9699 24.5644 13.9901 24.6581 14.0212C24.6842 14.0284 24.7115 14.0358 24.7388 14.0431L24.7388 16.8733ZM27.3421 10.159C27.3836 10.2297 27.4208 10.3027 27.4537 10.3778C27.3884 10.4342 27.3196 10.4865 27.2478 10.5343C27.0321 10.6604 26.8524 10.8399 26.7261 11.0555C26.6309 11.287 26.5982 11.5394 26.6311 11.7874C26.6376 11.8708 26.6386 11.9545 26.6341 12.0381C26.5514 12.0609 26.4673 12.0786 26.3823 12.091C26.1293 12.1139 25.8862 12.2006 25.6758 12.343C25.4894 12.5099 25.3497 12.7224 25.2704 12.9597C25.239 13.0386 25.2025 13.1154 25.1613 13.1896C25.0781 13.1751 24.9958 13.1557 24.915 13.1313C24.6743 13.0444 24.4156 13.0194 24.1628 13.0585C23.9233 13.129 23.7058 13.2595 23.5309 13.4377C23.4653 13.4979 23.3955 13.5534 23.322 13.6037C23.2485 13.5534 23.1787 13.4979 23.1131 13.4377C22.9382 13.2595 22.7207 13.129 22.4812 13.0585C22.4106 13.043 22.3386 13.0352 22.2663 13.0355C22.0836 13.0429 21.9028 13.0751 21.7288 13.1312C21.6479 13.1556 21.5657 13.175 21.4825 13.1895C21.4412 13.1153 21.4047 13.0384 21.3734 12.9595C21.294 12.7223 21.1543 12.5097 20.968 12.3427C20.7576 12.2003 20.5145 12.1136 20.2614 12.0908C20.1765 12.0784 20.0924 12.0607 20.0096 12.0378C20.0052 11.9543 20.0062 11.8706 20.0126 11.7872C20.0456 11.5391 20.0128 11.2867 19.9176 11.0553C19.7913 10.8397 19.6118 10.6603 19.3962 10.5341C19.3243 10.4864 19.2555 10.4341 19.1903 10.3777C19.2231 10.3026 19.2604 10.2295 19.3019 10.1589C19.442 9.9479 19.5253 9.70436 19.5438 9.45177C19.5254 9.19914 19.4421 8.95554 19.3019 8.74456C19.2604 8.6739 19.2231 8.60085 19.1903 8.52579C19.2555 8.4693 19.3243 8.417 19.3962 8.36922C19.6119 8.24312 19.7915 8.06365 19.9178 7.84805C20.013 7.61659 20.0458 7.3642 20.0128 7.11611C20.0064 7.03273 20.0054 6.94901 20.0098 6.8655C20.0926 6.84266 20.1767 6.82499 20.2616 6.81257C20.5147 6.7897 20.7578 6.70301 20.9682 6.56062C21.1546 6.39368 21.2943 6.18111 21.3736 5.94381C21.405 5.86493 21.4414 5.78816 21.4827 5.71398C21.5659 5.72843 21.6481 5.74788 21.729 5.77224C21.9696 5.8593 22.2283 5.88434 22.4812 5.84505C22.7207 5.77452 22.9382 5.64401 23.1131 5.46588C23.1787 5.40568 23.2485 5.35019 23.322 5.29983C23.3955 5.35019 23.4653 5.40568 23.5309 5.46589C23.7058 5.64402 23.9233 5.77453 24.1628 5.84505C24.4157 5.88408 24.6744 5.85909 24.9152 5.77236C24.9961 5.748 25.0783 5.72855 25.1615 5.7141C25.2028 5.78831 25.2392 5.86512 25.2706 5.94404C25.35 6.18131 25.4897 6.39386 25.676 6.56085C25.8864 6.70324 26.1295 6.78993 26.3825 6.81281C26.4675 6.82522 26.5516 6.8429 26.6344 6.86573C26.6388 6.94925 26.6378 7.03296 26.6314 7.11634C26.5984 7.36443 26.6312 7.61683 26.7264 7.84828C26.8526 8.06382 27.0322 8.24328 27.2478 8.36945C27.3197 8.41718 27.3884 8.46943 27.4537 8.52591C27.4208 8.60097 27.3836 8.67402 27.3421 8.74468C27.202 8.95566 27.1187 9.19919 27.1002 9.45177C27.1186 9.70441 27.2019 9.94802 27.3421 10.159H27.3421Z" fill="#F0792E"/>
<path d="M3.20872 5.52158H6.67652V10.7526C6.84269 10.7048 7.01474 10.6804 7.18766 10.6802C7.32699 10.6811 7.46576 10.6979 7.60127 10.7303V2.63175C7.60131 2.08592 7.41635 1.5562 7.07657 1.12903H21.3569C21.7553 1.12949 22.1373 1.28796 22.419 1.56967C22.7007 1.85139 22.8592 2.23334 22.8596 2.63175V3.5522C23.0028 3.47905 23.1612 3.4409 23.322 3.4409C23.4827 3.4409 23.6412 3.47905 23.7844 3.5522V2.63175C23.7836 1.98816 23.5277 1.37115 23.0726 0.916067C22.6175 0.460985 22.0005 0.205004 21.3569 0.204282L5.17381 0.204282C4.53022 0.205004 3.91321 0.460985 3.45813 0.916067C3.00305 1.37115 2.74706 1.98816 2.74634 2.63175V5.05921C2.74635 5.18184 2.79506 5.29944 2.88178 5.38615C2.96849 5.47286 3.08609 5.52158 3.20872 5.52158ZM3.67109 2.63175C3.67109 2.2332 3.82941 1.85098 4.11123 1.56916C4.39304 1.28735 4.77526 1.12903 5.17381 1.12903C5.57235 1.12903 5.95457 1.28735 6.23639 1.56916C6.5182 1.85098 6.67652 2.2332 6.67652 2.63175V4.59683H3.67109V2.63175ZM12.225 22.3982V21.4735C12.2247 21.2283 12.1272 20.9932 11.9539 20.8199C11.7805 20.6465 11.5454 20.549 11.3003 20.5487H11.0691V19.1616C11.0688 18.9164 10.9713 18.6814 10.7979 18.508C10.6246 18.3346 10.3895 18.2371 10.1443 18.2369H2.28397C2.03879 18.2371 1.80373 18.3346 1.63036 18.508C1.45699 18.6814 1.35948 18.9164 1.35922 19.1616V20.5487H1.12803C0.882855 20.549 0.647793 20.6465 0.474426 20.8199C0.301059 20.9932 0.203546 21.2283 0.203285 21.4735V22.3982C0.203546 22.6434 0.301059 22.8785 0.474426 23.0518C0.647793 23.2252 0.882855 23.3227 1.12803 23.323H11.3003C11.5454 23.3227 11.7805 23.2252 11.9539 23.0518C12.1272 22.8785 12.2247 22.6434 12.225 22.3982ZM2.28397 19.1616H10.1443L10.145 20.5487H2.28397V19.1616ZM1.12803 21.4735H11.3003L11.3009 22.3982H1.12803V21.4735ZM28.0447 9.45482C28.076 9.36138 28.1182 9.27198 28.1706 9.18854C28.3518 8.9377 28.4295 8.6267 28.3874 8.32012C28.287 8.0187 28.0754 7.76696 27.7957 7.61631C27.7188 7.56698 27.6462 7.51128 27.5787 7.4498C27.5661 7.35479 27.5648 7.25862 27.5748 7.1633C27.6265 6.8555 27.5574 6.53961 27.382 6.28146C27.1597 6.05505 26.861 5.91965 26.5442 5.90172C26.4512 5.8897 26.3594 5.86976 26.2698 5.84212C26.2181 5.76267 26.1754 5.67767 26.1427 5.58871C26.0523 5.28589 25.8498 5.02891 25.5766 4.87009C25.2796 4.76048 24.9525 4.76487 24.6586 4.88239C24.5673 4.90991 24.4742 4.93099 24.38 4.94549C24.3003 4.89675 24.2261 4.83956 24.1586 4.77492C24.0595 4.64752 23.9326 4.54443 23.7876 4.47351C23.6426 4.4026 23.4834 4.36573 23.322 4.36573C23.1606 4.36573 23.0013 4.4026 22.8563 4.47351C22.7113 4.54443 22.5844 4.64752 22.4853 4.77492C22.4199 4.83653 22.3494 4.89267 22.2748 4.94278C22.1764 4.93444 22.0794 4.91416 21.9859 4.88239C21.6918 4.76489 21.3647 4.76046 21.0676 4.86997C20.7944 5.02875 20.5919 5.28569 20.5015 5.58848C20.4692 5.67401 20.4295 5.75657 20.3829 5.83523C20.2914 5.8677 20.1965 5.88992 20.1 5.90149C19.7832 5.91943 19.4845 6.05483 19.2622 6.28124C19.0868 6.53938 19.0177 6.85527 19.0694 7.16307C19.0782 7.25523 19.0785 7.34799 19.0703 7.44021C19.003 7.50678 18.9285 7.56576 18.8483 7.61608C18.5686 7.76688 18.3569 8.01873 18.2565 8.32024C18.2147 8.62666 18.2923 8.93745 18.4733 9.18821C18.5244 9.27037 18.5666 9.35769 18.5992 9.44873C18.568 9.54218 18.5257 9.63158 18.4733 9.71502C18.2921 9.96586 18.2145 10.2769 18.2566 10.5834C18.3569 10.8849 18.5686 11.1366 18.8483 11.2873C18.9251 11.3366 18.9977 11.3923 19.0653 11.4538C19.0778 11.5488 19.0792 11.6449 19.0692 11.7402C19.0175 12.0481 19.0866 12.3639 19.262 12.6221C19.4843 12.8485 19.783 12.9839 20.0998 13.0018C20.1928 13.0138 20.2846 13.0338 20.3742 13.0614C20.4259 13.1409 20.4685 13.2259 20.5012 13.3149C20.5856 13.5748 20.7456 13.8038 20.9606 13.9725V17.7744C20.961 17.86 20.9852 17.9439 21.0305 18.0165C21.0759 18.0892 21.1405 18.1478 21.2173 18.1858C21.2947 18.2247 21.3812 18.242 21.4677 18.2357C21.5541 18.2294 21.6373 18.1998 21.7082 18.15L23.322 17.0157L24.9358 18.15C25.0068 18.1997 25.0899 18.2292 25.1763 18.2355C25.2627 18.2418 25.3492 18.2246 25.4267 18.1858C25.5034 18.1478 25.5681 18.0892 25.6134 18.0165C25.6587 17.9439 25.683 17.86 25.6834 17.7744V13.9725C25.8983 13.8038 26.0581 13.5749 26.1425 13.3151C26.1748 13.2296 26.2144 13.147 26.261 13.0683C26.3526 13.0359 26.4475 13.0136 26.544 13.0021C26.8608 12.9841 27.1595 12.8487 27.3818 12.6223C27.5572 12.3642 27.6263 12.0483 27.5745 11.7405C27.5658 11.6483 27.5655 11.5556 27.5736 11.4634C27.641 11.3968 27.7155 11.3378 27.7957 11.2875C28.0754 11.1367 28.2871 10.8848 28.3874 10.5833C28.4293 10.2769 28.3517 9.96612 28.1707 9.71536C28.1196 9.6332 28.0774 9.54587 28.0447 9.45482ZM24.7388 16.8733L23.5973 16.071C23.5166 16.0145 23.4205 15.9842 23.322 15.9842C23.2235 15.9842 23.1273 16.0145 23.0466 16.071L21.9052 16.8733V14.043C21.9323 14.0357 21.9594 14.0283 21.9854 14.0212C22.0762 13.992 22.1694 13.9709 22.264 13.9581C22.3437 14.0068 22.4179 14.064 22.4854 14.1286C22.5844 14.256 22.7113 14.3591 22.8563 14.43C23.0013 14.501 23.1606 14.5378 23.322 14.5378C23.4834 14.5378 23.6427 14.501 23.7877 14.43C23.9326 14.3591 24.0595 14.256 24.1586 14.1286C24.2241 14.067 24.2945 14.0109 24.3692 13.9608C24.4675 13.9699 24.5644 13.9901 24.6581 14.0212C24.6842 14.0284 24.7115 14.0358 24.7388 14.0431L24.7388 16.8733ZM27.3421 10.159C27.3836 10.2297 27.4208 10.3027 27.4537 10.3778C27.3884 10.4342 27.3196 10.4865 27.2478 10.5343C27.0321 10.6604 26.8524 10.8399 26.7261 11.0555C26.6309 11.287 26.5982 11.5394 26.6311 11.7874C26.6376 11.8708 26.6386 11.9545 26.6341 12.0381C26.5514 12.0609 26.4673 12.0786 26.3823 12.091C26.1293 12.1139 25.8862 12.2006 25.6758 12.343C25.4894 12.5099 25.3497 12.7224 25.2704 12.9597C25.239 13.0386 25.2025 13.1154 25.1613 13.1896C25.0781 13.1751 24.9958 13.1557 24.915 13.1313C24.6743 13.0444 24.4156 13.0194 24.1628 13.0585C23.9233 13.129 23.7058 13.2595 23.5309 13.4377C23.4653 13.4979 23.3955 13.5534 23.322 13.6037C23.2485 13.5534 23.1787 13.4979 23.1131 13.4377C22.9382 13.2595 22.7207 13.129 22.4812 13.0585C22.4106 13.043 22.3386 13.0352 22.2663 13.0355C22.0836 13.0429 21.9028 13.0751 21.7288 13.1312C21.6479 13.1556 21.5657 13.175 21.4825 13.1895C21.4412 13.1153 21.4047 13.0384 21.3734 12.9595C21.294 12.7223 21.1543 12.5097 20.968 12.3427C20.7576 12.2003 20.5145 12.1136 20.2614 12.0908C20.1765 12.0784 20.0924 12.0607 20.0096 12.0378C20.0052 11.9543 20.0062 11.8706 20.0126 11.7872C20.0456 11.5391 20.0128 11.2867 19.9176 11.0553C19.7913 10.8397 19.6118 10.6603 19.3962 10.5341C19.3243 10.4864 19.2555 10.4341 19.1903 10.3777C19.2231 10.3026 19.2604 10.2295 19.3019 10.1589C19.442 9.9479 19.5253 9.70436 19.5438 9.45177C19.5254 9.19914 19.4421 8.95554 19.3019 8.74456C19.2604 8.6739 19.2231 8.60085 19.1903 8.52579C19.2555 8.4693 19.3243 8.417 19.3962 8.36922C19.6119 8.24312 19.7915 8.06365 19.9178 7.84805C20.013 7.61659 20.0458 7.3642 20.0128 7.11611C20.0064 7.03273 20.0054 6.94901 20.0098 6.8655C20.0926 6.84266 20.1767 6.82499 20.2616 6.81257C20.5147 6.7897 20.7578 6.70301 20.9682 6.56062C21.1546 6.39368 21.2943 6.18111 21.3736 5.94381C21.405 5.86493 21.4414 5.78816 21.4827 5.71398C21.5659 5.72843 21.6481 5.74788 21.729 5.77224C21.9696 5.8593 22.2283 5.88434 22.4812 5.84505C22.7207 5.77452 22.9382 5.64401 23.1131 5.46588C23.1787 5.40568 23.2485 5.35019 23.322 5.29983C23.3955 5.35019 23.4653 5.40568 23.5309 5.46589C23.7058 5.64402 23.9233 5.77453 24.1628 5.84505C24.4157 5.88408 24.6744 5.85909 24.9152 5.77236C24.9961 5.748 25.0783 5.72855 25.1615 5.7141C25.2028 5.78831 25.2392 5.86512 25.2706 5.94404C25.35 6.18131 25.4897 6.39386 25.676 6.56085C25.8864 6.70324 26.1295 6.78993 26.3825 6.81281C26.4675 6.82522 26.5516 6.8429 26.6344 6.86573C26.6388 6.94925 26.6378 7.03296 26.6314 7.11634C26.5984 7.36443 26.6312 7.61683 26.7264 7.84828C26.8526 8.06382 27.0322 8.24328 27.2478 8.36945C27.3197 8.41718 27.3884 8.46943 27.4537 8.52591C27.4208 8.60097 27.3836 8.67402 27.3421 8.74468C27.202 8.95566 27.1187 9.19919 27.1002 9.45177C27.1186 9.70441 27.2019 9.94802 27.3421 10.159H27.3421Z" stroke="#F0792E" stroke-width="0.4" mask="url(#path-1-outside-1_176_4489)"/>
<path d="M16.4141 11.2936L16.4139 11.2938L15.7596 11.9478C15.7596 11.9478 15.7596 11.9478 15.7596 11.9478C15.6643 12.0432 15.5511 12.1188 15.4265 12.1704C15.302 12.222 15.1685 12.2485 15.0336 12.2485C14.8988 12.2485 14.7653 12.2219 14.6407 12.1703C14.5477 12.1318 14.461 12.0798 14.3834 12.0163L13.7885 12.6112L20.9092 19.7319C21.1885 20.0112 21.3454 20.39 21.3454 20.785C21.3454 21.1799 21.1885 21.5587 20.9093 21.838C20.63 22.1173 20.2512 22.2742 19.8562 22.2742C19.4613 22.2742 19.0825 22.1173 18.8032 21.8381L18.8753 21.7659L18.8032 21.8381L11.6825 14.7172L11.2509 15.1488C11.4002 15.3316 11.4827 15.561 11.4827 15.799C11.4827 16.0712 11.3747 16.3323 11.1825 16.525L11.1824 16.5251L10.5286 17.1789C10.5286 17.1789 10.5286 17.1789 10.5286 17.1789C10.4333 17.2742 10.3201 17.3499 10.1955 17.4015C10.071 17.4531 9.93745 17.4797 9.80261 17.4797C9.66777 17.4797 9.53425 17.4531 9.40968 17.4015C9.28512 17.3499 9.17195 17.2742 9.07663 17.1789L16.4141 11.2936ZM16.4141 11.2936C16.6061 11.1009 16.7139 10.8398 16.7139 10.5677C16.7138 10.2956 16.6059 10.0346 16.4138 9.84193L16.4137 9.84181L13.1441 6.57234L13.144 6.57227C12.9514 6.38002 12.6903 6.27204 12.4181 6.27204C12.146 6.27204 11.8849 6.38002 11.6922 6.57227L11.6922 6.57235L11.0383 7.22616C10.943 7.32149 10.8673 7.43467 10.8157 7.55924C10.7641 7.68382 10.7375 7.81734 10.7375 7.95218C10.7375 8.08702 10.7641 8.22055 10.8157 8.34512C10.8542 8.43815 10.9062 8.52483 10.9697 8.60247L7.83728 11.735C7.65455 11.5857 7.42499 11.5031 7.18695 11.5031C6.91472 11.5031 6.65361 11.6111 6.46093 11.8034L6.46086 11.8035L5.80706 12.4573C5.80706 12.4573 5.80705 12.4573 5.80705 12.4573C5.71168 12.5527 5.63603 12.6659 5.58442 12.7904C5.5328 12.915 5.50624 13.0485 5.50624 13.1834C5.50624 13.3182 5.5328 13.4518 5.58442 13.5763C5.63603 13.7009 5.71168 13.8141 5.80705 13.9094C5.80705 13.9094 5.80706 13.9094 5.80706 13.9094L9.07661 17.1789L16.4141 11.2936ZM23.3213 6.34423H23.3212C22.7066 6.34423 22.1058 6.52648 21.5948 6.86794C21.0837 7.20939 20.6854 7.69471 20.4502 8.26253C20.215 8.83034 20.1535 9.45515 20.2734 10.0579C20.3933 10.6607 20.6893 11.2144 21.1239 11.649C21.5584 12.0836 22.1121 12.3796 22.7149 12.4995C23.3177 12.6194 23.9425 12.5578 24.5104 12.3226C25.0782 12.0874 25.5635 11.6891 25.9049 11.1781C26.2464 10.6671 26.4286 10.0663 26.4286 9.45171V9.45159C26.4277 8.62775 26.1 7.83793 25.5175 7.25539C24.935 6.67285 24.1451 6.34517 23.3213 6.34423ZM20.1108 20.53L20.1109 20.53C20.1443 20.5634 20.1709 20.6032 20.189 20.6469C20.2071 20.6906 20.2165 20.7375 20.2165 20.7848C20.2165 20.8321 20.2072 20.879 20.1891 20.9227C20.171 20.9665 20.1444 21.0062 20.111 21.0397C20.0775 21.0731 20.0378 21.0997 19.9941 21.1178C19.9504 21.1359 19.9035 21.1453 19.8562 21.1453C19.8088 21.1453 19.762 21.136 19.7182 21.1179C19.6745 21.0998 19.6348 21.0733 19.6013 21.0398C19.6013 21.0398 19.6013 21.0398 19.6013 21.0398L12.4807 13.9191L12.9904 13.4094L20.1108 20.53ZM23.3211 11.4303C22.9298 11.4303 22.5473 11.3143 22.2219 11.0969C21.8965 10.8795 21.6429 10.5704 21.4931 10.2089C21.3434 9.84735 21.3042 9.44951 21.3806 9.06569C21.4569 8.68187 21.6453 8.32931 21.9221 8.05259C22.1988 7.77588 22.5513 7.58743 22.9352 7.51108C23.319 7.43474 23.7168 7.47392 24.0784 7.62368C24.4399 7.77344 24.7489 8.02704 24.9664 8.35243C25.1837 8.67779 25.2998 9.06029 25.2998 9.45159C25.2992 9.97621 25.0906 10.4792 24.7196 10.8501C24.3486 11.2211 23.8457 11.4298 23.3211 11.4303ZM11.9086 7.95226L12.4181 7.44264L15.5434 10.5678L15.0341 11.0777L11.9086 7.95226ZM10.3122 15.7991L9.80322 16.309L6.67734 13.1834L7.18707 12.6738L10.3122 15.7991ZM10.4564 14.3469L8.63907 12.5296L11.7644 9.4043L13.5817 11.2217L10.4564 14.3469Z" fill="#F0792E" stroke="#F0792E" stroke-width="0.2"/>
<path d="M26.277 28.3586C26.5396 28.096 26.6873 27.7399 26.6877 27.3686V26.4304H11.6335V27.3686M26.277 28.3586L11.5314 27.3687H11.6335V27.3686M26.277 28.3586C26.0144 28.6212 25.6583 28.7689 25.287 28.7693M26.277 28.3586L25.287 28.7693M11.6335 27.3686C11.634 27.8687 11.4857 28.356 11.2097 28.7693H25.287M11.6335 27.3686L25.287 28.7693M27.2522 25.3015H23.8864V18.4861V18.4338L23.8439 18.4033L23.3815 18.0713L23.322 18.0285L23.2625 18.0713L22.8001 18.4032L22.7576 18.4338V18.4861V25.3015H11.0691C10.9194 25.3015 10.7758 25.361 10.67 25.4669C10.5641 25.5727 10.5047 25.7163 10.5047 25.866V27.3687C10.5047 27.7402 10.3571 28.0964 10.0944 28.3591C9.83173 28.6218 9.47547 28.7693 9.10398 28.7693C8.7325 28.7693 8.37624 28.6218 8.11356 28.3591C7.85088 28.0964 7.70331 27.7402 7.70331 27.3687V24.2476V24.1456H7.60127H6.67652H6.57448V24.2476L6.57448 27.3687L6.57448 27.3688C6.57523 28.0394 6.84196 28.6823 7.31615 29.1565C7.79034 29.6307 8.43326 29.8974 9.10387 29.8982H9.10398H25.2871H25.2872C25.9578 29.8974 26.6007 29.6307 27.0749 29.1565C27.5491 28.6823 27.8158 28.0394 27.8166 27.3688V27.3687V25.866C27.8166 25.7163 27.7571 25.5727 27.6513 25.4669C27.5454 25.361 27.4019 25.3015 27.2522 25.3015Z" fill="#F0792E" stroke="#F0792E" stroke-width="0.2"/>
</svg>
