<svg width="16" height="16" viewBox="0 0 16 16" fill="none" xmlns="http://www.w3.org/2000/svg">
<path d="M15.9947 7.72058C16.0499 9.30185 15.635 10.864 14.8024 12.2094C13.9698 13.5549 12.7569 14.6232 11.3171 15.2793C9.87737 15.9354 8.27536 16.1499 6.71371 15.8955C5.15206 15.6412 3.70091 14.9294 2.54377 13.8503C1.38664 12.7712 0.575484 11.3732 0.212894 9.83305C-0.149696 8.29293 -0.0474388 6.67987 0.506737 5.19787C1.06091 3.71586 2.04211 2.43147 3.32626 1.50713C4.61041 0.582777 6.13982 0.0599837 7.72109 0.00486153C9.84139 -0.0690509 11.9042 0.702317 13.4558 2.14928C15.0074 3.59625 15.9207 5.60029 15.9947 7.72058Z" fill="#20446C"/>
<g opacity="0.1">
<path opacity="0.1" d="M7.72053 0.00554715C5.60025 0.0795939 3.59621 0.992859 2.14926 2.54445C0.702304 4.09603 -0.0690504 6.15885 0.00486154 8.27915C0.00486154 8.27915 5.63487 8.33545 6.91441 6.02458C8.19396 3.7137 7.72053 0.00554715 7.72053 0.00554715Z" fill="white"/>
</g>
<path d="M13.9453 7.66411C13.9877 8.86641 13.6724 10.0543 13.0395 11.0774C12.4065 12.1004 11.4843 12.9128 10.3895 13.4115C9.29466 13.9103 8.07651 14.0731 6.88917 13.8793C5.70182 13.6855 4.59866 13.1438 3.71927 12.3228C2.83987 11.5018 2.22379 10.4384 1.94897 9.2672C1.67415 8.09595 1.75296 6.8695 2.17541 5.74306C2.59787 4.61662 3.34499 3.64081 4.32222 2.93913C5.29945 2.23745 6.46288 1.84143 7.66526 1.80119C9.27513 1.74731 10.8406 2.33442 12.018 3.43363C13.1954 4.53284 13.8886 6.05433 13.9453 7.66411Z" fill="#20446C"/>
<g opacity="0.2">
<path opacity="0.2" d="M13.9453 7.66411C13.9877 8.86641 13.6724 10.0543 13.0395 11.0774C12.4065 12.1004 11.4843 12.9128 10.3895 13.4115C9.29466 13.9103 8.07651 14.0731 6.88917 13.8793C5.70182 13.6855 4.59866 13.1438 3.71927 12.3228C2.83987 11.5018 2.22379 10.4384 1.94897 9.2672C1.67415 8.09595 1.75296 6.8695 2.17541 5.74306C2.59787 4.61662 3.34499 3.64081 4.32222 2.93913C5.29945 2.23745 6.46288 1.84143 7.66526 1.80119C9.27513 1.74731 10.8406 2.33442 12.018 3.43363C13.1954 4.53284 13.8886 6.05433 13.9453 7.66411Z" fill="#20446C"/>
</g>
<path d="M14.1276 7.91232C14.1689 9.0979 13.8577 10.2691 13.2334 11.2779C12.6091 12.2866 11.6997 13.0876 10.6202 13.5795C9.54066 14.0714 8.33953 14.2322 7.16865 14.0416C5.99776 13.8509 4.9097 13.3174 4.04203 12.5084C3.17436 11.6994 2.56604 10.6513 2.294 9.4966C2.02195 8.34191 2.09839 7.13248 2.51366 6.02123C2.92892 4.90998 3.66436 3.94681 4.62699 3.2535C5.58961 2.56019 6.7362 2.16788 7.92177 2.12617C9.5119 2.0709 11.0589 2.64938 12.2226 3.73441C13.3864 4.81944 14.0716 6.32221 14.1276 7.91232Z" fill="#F0792E"/>
<path d="M9.73458 6.46304C9.9393 6.46304 10.1052 6.29947 10.1052 6.09763C10.1052 5.89594 9.9393 5.73222 9.73458 5.73222H6.79912C6.5944 5.73222 6.42848 5.89594 6.42848 6.09763C6.42848 6.29947 6.5944 6.46304 6.79912 6.46304H7.64045C7.98836 6.46247 8.30442 6.66259 8.44848 6.97462H6.80274C6.59816 6.97462 6.4321 7.13834 6.4321 7.34003C6.4321 7.54186 6.59816 7.70544 6.80274 7.70544H8.44848C8.30311 8.01661 7.98778 8.21616 7.64045 8.21702H6.79912C6.6471 8.21716 6.51042 8.30865 6.4541 8.44782C6.39778 8.58699 6.43311 8.746 6.54329 8.8492L8.64118 10.8041C8.71053 10.8681 8.80203 10.9034 8.89687 10.9028C8.99879 10.9022 9.09623 10.8614 9.16746 10.7896C9.23493 10.7194 9.27127 10.6256 9.26852 10.5289C9.26577 10.4323 9.22407 10.3407 9.1527 10.2743L7.72934 8.94784C8.45137 8.90673 9.06033 8.403 9.22682 7.70915H9.73458C9.9393 7.70915 10.1052 7.54557 10.1052 7.34374C10.1052 7.14191 9.9393 6.97833 9.73458 6.97833H9.22682C9.18368 6.79634 9.10839 6.62305 9.00444 6.46676H9.73458V6.46304Z" fill="white"/>
<g opacity="0.2">
<path opacity="0.2" d="M14.1276 7.91232C14.1689 9.0979 13.8577 10.2691 13.2334 11.2779C12.6091 12.2866 11.6997 13.0876 10.6202 13.5795C9.54066 14.0714 8.33953 14.2322 7.16865 14.0416C5.99776 13.8509 4.9097 13.3174 4.04203 12.5084C3.17436 11.6994 2.56604 10.6513 2.294 9.4966C2.02195 8.34191 2.09839 7.13248 2.51366 6.02123C2.92892 4.90998 3.66436 3.94681 4.62699 3.2535C5.58961 2.56019 6.7362 2.16788 7.92177 2.12617C9.5119 2.0709 11.0589 2.64938 12.2226 3.73441C13.3864 4.81944 14.0716 6.32221 14.1276 7.91232Z" fill="white"/>
</g>
<path d="M8.23251 14.1796H8.28113L8.42444 14.1668L8.65988 14.1438C8.76651 14.1364 8.87252 14.1219 8.97721 14.1003L9.37387 14.0235C9.44863 14.0096 9.52221 13.9899 9.59395 13.9647L9.83195 13.893C9.91855 13.871 10.004 13.8445 10.0879 13.8137L10.3438 13.7062C10.4333 13.6678 10.528 13.6345 10.6176 13.5885L10.8991 13.44C11.3128 13.2165 11.7 12.9469 12.0532 12.6365L12.3322 12.3678L12.4729 12.2296C12.5165 12.1784 12.5574 12.1272 12.6035 12.076C12.6879 11.9711 12.7826 11.8713 12.8594 11.7587L13.0999 11.4132L13.1613 11.3237C13.1818 11.2955 13.1972 11.2622 13.2151 11.2315L13.3226 11.0422L13.4301 10.8502C13.4684 10.7863 13.4915 10.7146 13.5247 10.6481C13.5836 10.5099 13.6476 10.3742 13.7013 10.2335L13.8472 9.79588C14.0192 9.17889 14.0994 8.53993 14.0852 7.89957C14.0555 7.25932 13.9304 6.62708 13.7141 6.02374C13.6553 5.88043 13.599 5.73712 13.5401 5.59637C13.4812 5.45562 13.4019 5.32767 13.3328 5.19459C13.3005 5.12788 13.2646 5.06296 13.2253 5.0001L13.105 4.81584L12.9848 4.63415C12.9643 4.60344 12.9464 4.57273 12.9259 4.54458L12.8568 4.46012L12.6009 4.13256C12.5088 4.02764 12.409 3.93295 12.3168 3.8357L12.1761 3.69239C12.1275 3.64633 12.0763 3.60538 12.0251 3.56188L11.7308 3.30597C11.3557 3.02076 10.9496 2.77867 10.5203 2.5843L10.2312 2.45634C10.1365 2.41539 10.0392 2.39236 9.94966 2.3591L9.6784 2.26953C9.59395 2.23882 9.50438 2.22858 9.42249 2.20555L9.17938 2.1518C9.10547 2.13243 9.03018 2.11874 8.95418 2.11086L8.55496 2.06224C8.449 2.04737 8.34206 2.04052 8.23507 2.04176H7.99963H7.85376H8.23507C8.34194 2.03857 8.44889 2.04371 8.55496 2.05712L8.95673 2.10062C9.03338 2.10864 9.10945 2.12146 9.18449 2.13901L9.44041 2.19275C9.5223 2.21322 9.61187 2.22346 9.69632 2.25417L9.96758 2.34118C10.0597 2.37189 10.1595 2.39748 10.2542 2.43843L10.5459 2.56382C10.9788 2.75798 11.389 2.99914 11.7692 3.28294L12.066 3.53885L12.2196 3.66936L12.3603 3.81267C12.455 3.91248 12.5574 4.00716 12.6495 4.11209L12.9054 4.44221L12.9745 4.52666L13.0359 4.61623L13.1562 4.80049L13.2791 4.98474C13.3226 5.04616 13.3507 5.11782 13.3891 5.1818C13.4582 5.31487 13.5324 5.43771 13.599 5.58614C13.6655 5.73456 13.7141 5.87275 13.773 6.01862C14.2291 7.23993 14.2758 8.57642 13.906 9.82658L13.7627 10.2693C13.7064 10.4126 13.6399 10.5483 13.581 10.6864C13.5478 10.7555 13.5247 10.8272 13.4863 10.8912C13.448 10.9552 13.4121 11.0191 13.3763 11.0831L13.2688 11.275C13.2509 11.3058 13.233 11.339 13.2125 11.3697L13.1511 11.4593L12.8952 11.8073C12.8107 11.9199 12.7161 12.0197 12.6393 12.1247L12.5062 12.2782L12.3655 12.419L12.084 12.6902C11.7254 13.001 11.3332 13.2706 10.9145 13.4938L10.6329 13.6397C10.5408 13.6857 10.4461 13.7164 10.354 13.7548L10.0981 13.8623C10.0142 13.893 9.92877 13.9195 9.84219 13.9416L9.60163 14.0107C9.52897 14.0352 9.45454 14.054 9.37899 14.067L8.98232 14.1387C8.87683 14.1592 8.76985 14.1712 8.66244 14.1745L8.427 14.1924H8.28113L8.23251 14.1796Z" fill="#263238"/>
<path d="M1.32246 11.9895C1.30734 11.9706 1.29447 11.95 1.28408 11.9281L1.17915 11.7489C1.13565 11.6722 1.08191 11.5749 1.02817 11.4572C0.974427 11.3395 0.905328 11.2141 0.849028 11.0631L0.754344 10.8302C0.721075 10.7483 0.695483 10.6613 0.664774 10.5743C0.598238 10.3952 0.549617 10.2007 0.490758 9.99339C0.381843 9.54507 0.307413 9.08907 0.268119 8.62938C0.237786 8.16813 0.243778 7.70521 0.286035 7.2449C0.311625 7.03505 0.332095 6.83288 0.370481 6.64863C0.388394 6.55394 0.401193 6.46437 0.421666 6.37736C0.442138 6.29035 0.462606 6.21102 0.48052 6.12145C0.516347 5.96279 0.562411 5.8246 0.600797 5.70176C0.629867 5.59663 0.664899 5.49325 0.70572 5.3921L0.78249 5.20017C0.788679 5.17677 0.798161 5.15437 0.810644 5.13364C0.807393 5.15812 0.801382 5.18216 0.792728 5.20529L0.728751 5.39978C0.698042 5.48423 0.664773 5.58916 0.631505 5.71199C0.598237 5.83483 0.554734 5.96791 0.521466 6.12913C0.504405 6.20932 0.486494 6.29462 0.467727 6.38504C0.447255 6.46949 0.437018 6.56162 0.419104 6.65375C0.383277 6.838 0.365366 7.03761 0.342335 7.24746C0.301908 7.70449 0.297624 8.164 0.329535 8.6217C0.366374 9.07865 0.438239 9.53209 0.544497 9.97803C0.600797 10.1828 0.649418 10.3773 0.710836 10.5564C0.741545 10.6434 0.767142 10.733 0.797851 10.8123L0.887413 11.0477C0.943713 11.1987 1.00769 11.3267 1.05888 11.4444C1.11006 11.5621 1.15868 11.6594 1.19962 11.7387L1.29431 11.923C1.30729 11.9434 1.31681 11.9659 1.32246 11.9895Z" fill="white"/>
<path d="M8.19924 1.62453C8.13458 1.63121 8.0694 1.63121 8.00474 1.62453H7.77443C7.68742 1.62453 7.58505 1.62453 7.47245 1.62453C7.35985 1.62453 7.23958 1.63733 7.1065 1.65268C6.97343 1.66804 6.8378 1.68595 6.69193 1.70898C6.05796 1.81823 5.44438 2.02362 4.8724 2.31805C4.74189 2.38971 4.61649 2.45368 4.50645 2.52534C4.39998 2.58576 4.29663 2.65153 4.1968 2.72239C4.10211 2.78381 4.02278 2.84523 3.94089 2.89897C3.859 2.95271 3.81037 2.99877 3.76175 3.03972C3.71308 3.08323 3.66086 3.1226 3.60565 3.15744C3.64948 3.10913 3.6965 3.06382 3.7464 3.0218C3.79246 2.9783 3.85132 2.92712 3.92041 2.87338C3.98951 2.81964 4.06884 2.75054 4.16353 2.68656C4.25822 2.62258 4.35546 2.55093 4.47062 2.48183C4.58578 2.41274 4.70606 2.34108 4.83658 2.26943C5.12401 2.11949 5.42261 1.99201 5.7297 1.88812C6.03691 1.78552 6.35183 1.70765 6.67145 1.65524C6.81988 1.63477 6.96063 1.61173 7.0937 1.60406C7.22678 1.59638 7.34961 1.58615 7.46222 1.58359C7.57482 1.58103 7.67718 1.58359 7.76675 1.58359C7.85632 1.58359 7.93309 1.58359 7.99451 1.59894C8.0633 1.60236 8.13173 1.61091 8.19924 1.62453Z" fill="white"/>
<path d="M9.23825 15.5463C9.19347 15.5669 9.14614 15.5816 9.09751 15.5898C9.00538 15.6154 8.86974 15.6435 8.7034 15.6717C7.82362 15.8173 6.92201 15.756 6.07007 15.4925C5.90884 15.4439 5.77833 15.3953 5.69132 15.3595C5.64506 15.3434 5.60048 15.3228 5.55825 15.298C5.60648 15.3054 5.65372 15.3183 5.699 15.3364C5.78857 15.3671 5.91908 15.4081 6.08287 15.4541C6.9325 15.6915 7.82188 15.7516 8.69572 15.6307C8.86462 15.6077 9.00025 15.5847 9.09238 15.5667C9.13989 15.5535 9.18894 15.5466 9.23825 15.5463Z" fill="white"/>
</svg>
