<svg width="20" height="19" viewBox="0 0 20 19" fill="none" xmlns="http://www.w3.org/2000/svg">
<path d="M19.076 9.16836C19.1419 11.0461 18.647 12.9012 17.6541 14.499C16.6611 16.0967 15.2147 17.3654 13.4976 18.1445C11.7806 18.9237 9.87004 19.1783 8.00765 18.8763C6.14525 18.5742 4.41463 17.729 3.03464 16.4475C1.65466 15.1661 0.687292 13.5059 0.254873 11.677C-0.177546 9.84803 -0.0555951 7.93249 0.605306 6.17258C1.26621 4.41267 2.43637 2.88743 3.96782 1.78974C5.49928 0.69206 7.32323 0.0712319 9.20903 0.00577317C11.7377 -0.0819994 14.1978 0.834016 16.0482 2.55232C17.8986 4.27062 18.9877 6.65047 19.076 9.16836Z" fill="#20446C"/>
<g opacity="0.1">
<path opacity="0.1" d="M9.20738 0.00685726C6.67876 0.0947893 4.28878 1.17931 2.56317 3.02185C0.837556 4.8644 -0.0823484 7.31404 0.00579779 9.83194C0.00579779 9.83194 6.72005 9.8988 8.24602 7.15458C9.77198 4.41037 9.20738 0.00685726 9.20738 0.00685726Z" fill="white"/>
</g>
<path d="M16.631 9.10144C16.6815 10.5292 16.3055 11.9398 15.5507 13.1547C14.7958 14.3697 13.696 15.3343 12.3903 15.9266C11.0847 16.5189 9.63195 16.7122 8.21594 16.4821C6.79993 16.2519 5.48432 15.6087 4.43557 14.6338C3.38682 13.6588 2.65208 12.396 2.32434 11.0051C1.9966 9.61427 2.09058 8.15784 2.59439 6.82016C3.09821 5.48249 3.98921 4.3237 5.15464 3.49043C6.32007 2.65717 7.70755 2.18689 9.14149 2.1391C11.0614 2.07512 12.9283 2.77232 14.3325 4.07766C15.7367 5.383 16.5633 7.1898 16.631 9.10144Z" fill="#20446C"/>
<g opacity="0.2">
<path opacity="0.2" d="M16.631 9.10144C16.6815 10.5292 16.3055 11.9398 15.5507 13.1547C14.7958 14.3697 13.696 15.3343 12.3903 15.9266C11.0847 16.5189 9.63195 16.7122 8.21594 16.4821C6.79993 16.2519 5.48432 15.6087 4.43557 14.6338C3.38682 13.6588 2.65208 12.396 2.32434 11.0051C1.9966 9.61427 2.09058 8.15784 2.59439 6.82016C3.09821 5.48249 3.98921 4.3237 5.15464 3.49043C6.32007 2.65717 7.70755 2.18689 9.14149 2.1391C11.0614 2.07512 12.9283 2.77232 14.3325 4.07766C15.7367 5.383 16.5633 7.1898 16.631 9.10144Z" fill="#20446C"/>
</g>
<path d="M16.8502 9.3965C16.8994 10.8044 16.5283 12.1953 15.7837 13.3932C15.0392 14.5911 13.9547 15.5422 12.6673 16.1264C11.3799 16.7106 9.94743 16.9016 8.55106 16.6752C7.15468 16.4487 5.85707 15.8151 4.8223 14.8544C3.78753 13.8937 3.06206 12.6491 2.73763 11.2779C2.41319 9.90666 2.50435 8.47043 2.99959 7.1508C3.49483 5.83116 4.3719 4.68738 5.51991 3.86406C6.66793 3.04074 8.03532 2.57486 9.44921 2.52533C11.3456 2.4597 13.1905 3.14665 14.5783 4.43515C15.9662 5.72365 16.7834 7.50822 16.8502 9.3965Z" fill="#F0792E"/>
<path d="M11.6092 7.67517C11.8534 7.67517 12.0513 7.48091 12.0513 7.24123C12.0513 7.00172 11.8534 6.8073 11.6092 6.8073H8.10846C7.86431 6.8073 7.66644 7.00172 7.66644 7.24123C7.66644 7.48091 7.86431 7.67517 8.10846 7.67517H9.11182C9.52673 7.67449 9.90366 7.91213 10.0755 8.28267H8.11278C7.8688 8.28267 7.67076 8.47709 7.67076 8.71661C7.67076 8.95629 7.8688 9.15054 8.11278 9.15054H10.0755C9.9021 9.52006 9.52604 9.75703 9.11182 9.75804H8.10846C7.92716 9.75821 7.76417 9.86687 7.697 10.0321C7.62984 10.1974 7.67197 10.3862 7.80336 10.5088L10.3053 12.8303C10.388 12.9063 10.4971 12.9481 10.6102 12.9475C10.7318 12.9468 10.848 12.8983 10.9329 12.813C11.0134 12.7296 11.0567 12.6183 11.0534 12.5035C11.0502 12.3888 11.0004 12.2799 10.9153 12.2011L9.21783 10.6259C10.0789 10.5771 10.8051 9.97891 11.0037 9.15495H11.6092C11.8534 9.15495 12.0513 8.96069 12.0513 8.72101C12.0513 8.48133 11.8534 8.28708 11.6092 8.28708H11.0037C10.9523 8.07096 10.8625 7.86518 10.7385 7.67957H11.6092V7.67517Z" fill="white"/>
<g opacity="0.2">
<path opacity="0.2" d="M16.8502 9.3965C16.8994 10.8044 16.5283 12.1953 15.7837 13.3932C15.0392 14.5911 13.9547 15.5422 12.6673 16.1264C11.3799 16.7106 9.94743 16.9016 8.55106 16.6752C7.15468 16.4487 5.85707 15.8151 4.8223 14.8544C3.78753 13.8937 3.06206 12.6491 2.73763 11.2779C2.41319 9.90666 2.50435 8.47043 2.99959 7.1508C3.49483 5.83116 4.3719 4.68738 5.51991 3.86406C6.66793 3.04074 8.03532 2.57486 9.44921 2.52533C11.3456 2.4597 13.1905 3.14665 14.5783 4.43515C15.9662 5.72365 16.7834 7.50822 16.8502 9.3965Z" fill="white"/>
</g>
<path d="M9.81969 16.8386H9.87768L10.0486 16.8234L10.3294 16.7961C10.4565 16.7873 10.583 16.77 10.7078 16.7444L11.1809 16.6532C11.27 16.6367 11.3578 16.6133 11.4433 16.5833L11.7272 16.4983C11.8304 16.4721 11.9323 16.4406 12.0324 16.404L12.3375 16.2764C12.4444 16.2308 12.5573 16.1913 12.6641 16.1366L12.9998 15.9603C13.4932 15.6948 13.955 15.3747 14.3762 15.0061L14.7089 14.687L14.8768 14.5229C14.9287 14.4621 14.9775 14.4013 15.0324 14.3406C15.1331 14.216 15.246 14.0974 15.3376 13.9637L15.6245 13.5535L15.6977 13.4471C15.7221 13.4137 15.7405 13.3742 15.7618 13.3377L15.89 13.1128L16.0182 12.8849C16.064 12.8089 16.0914 12.7238 16.1311 12.6448C16.2013 12.4807 16.2776 12.3196 16.3417 12.1525L16.5157 11.6328C16.7208 10.9001 16.8164 10.1414 16.7995 9.38091C16.7641 8.6206 16.6149 7.86981 16.357 7.15332C16.2868 6.98314 16.2196 6.81296 16.1494 6.64581C16.0792 6.47867 15.9846 6.32672 15.9022 6.16869C15.8637 6.08947 15.8209 6.01237 15.774 5.93773L15.6306 5.71892L15.4871 5.50315C15.4627 5.46668 15.4414 5.43021 15.417 5.39678L15.3346 5.2965L15.0294 4.9075C14.9195 4.7829 14.8005 4.67046 14.6906 4.55498L14.5227 4.3848C14.4648 4.33009 14.4037 4.28147 14.3427 4.22981L13.9917 3.92591C13.5443 3.58722 13.0601 3.29974 12.5481 3.06891L12.2033 2.91696C12.0903 2.86833 11.9744 2.84099 11.8675 2.80148L11.544 2.69511C11.4433 2.65864 11.3365 2.64649 11.2388 2.61914L10.9489 2.55532C10.8608 2.53231 10.771 2.51606 10.6803 2.5067L10.2042 2.44895C10.0779 2.43129 9.95034 2.42317 9.82274 2.42464H9.54196H9.368H9.82274C9.95019 2.42085 10.0777 2.42695 10.2042 2.44287L10.6834 2.49454C10.7748 2.50405 10.8655 2.51928 10.955 2.54012L11.2602 2.60394C11.3579 2.62825 11.4647 2.64041 11.5654 2.67688L11.8889 2.7802C11.9988 2.81667 12.1178 2.84706 12.2307 2.89569L12.5787 3.0446C13.0949 3.27517 13.5841 3.56154 14.0375 3.89856L14.3915 4.20246L14.5746 4.35745L14.7425 4.52763C14.8554 4.64615 14.9775 4.75859 15.0874 4.88319L15.3925 5.27522L15.4749 5.37551L15.5482 5.48187L15.6916 5.70068L15.8381 5.91949C15.89 5.99243 15.9236 6.07752 15.9694 6.1535C16.0518 6.31152 16.1403 6.4574 16.2196 6.63366C16.299 6.80992 16.357 6.97402 16.4272 7.14725C16.9711 8.59758 17.0268 10.1847 16.5859 11.6693L16.415 12.195C16.3478 12.3652 16.2685 12.5263 16.1983 12.6904C16.1586 12.7724 16.1311 12.8575 16.0853 12.9335C16.0396 13.0095 15.9968 13.0855 15.9541 13.1614L15.8259 13.3894C15.8046 13.4258 15.7832 13.4653 15.7588 13.5018L15.6855 13.6082L15.3803 14.0215C15.2796 14.1552 15.1667 14.2737 15.0751 14.3983L14.9164 14.5806L14.7486 14.7478L14.4129 15.0699C13.9853 15.439 13.5175 15.7591 13.0181 16.0242L12.6824 16.1974C12.5725 16.2521 12.4596 16.2886 12.3498 16.3341L12.0446 16.4618C11.9445 16.4983 11.8426 16.5297 11.7394 16.556L11.4525 16.638C11.3658 16.6671 11.2771 16.6894 11.187 16.7049L10.7139 16.79C10.5881 16.8144 10.4605 16.8286 10.3324 16.8325L10.0516 16.8538H9.87768L9.81969 16.8386Z" fill="#263238"/>
<path d="M1.57981 14.2376C1.56178 14.2151 1.54643 14.1906 1.53403 14.1646L1.4089 13.9519C1.35702 13.8607 1.29293 13.7453 1.22884 13.6055C1.16475 13.4657 1.08235 13.3168 1.0152 13.1375L0.902285 12.8609C0.86261 12.7637 0.832088 12.6603 0.795465 12.557C0.716115 12.3443 0.658131 12.1133 0.587937 11.8672C0.458046 11.3348 0.369283 10.7933 0.322421 10.2474C0.286247 9.69963 0.293392 9.14991 0.343787 8.60328C0.374306 8.35408 0.398717 8.114 0.444496 7.89519C0.46586 7.78275 0.481123 7.67638 0.505538 7.57306C0.529954 7.46973 0.554363 7.37552 0.575727 7.26916C0.618454 7.08074 0.673389 6.91663 0.719167 6.77076C0.753836 6.64592 0.795614 6.52315 0.844297 6.40304L0.935851 6.17512C0.943233 6.14733 0.954541 6.12073 0.969427 6.0961C0.96555 6.12518 0.958382 6.15373 0.948061 6.1812L0.871763 6.41216C0.83514 6.51245 0.795464 6.63704 0.755789 6.78292C0.716114 6.92879 0.664234 7.08682 0.624559 7.27827C0.604212 7.3735 0.582852 7.4748 0.560471 7.58217C0.536055 7.68246 0.523847 7.79187 0.502484 7.90127C0.459757 8.12008 0.438397 8.35712 0.41093 8.60632C0.362717 9.14905 0.357609 9.69473 0.395664 10.2383C0.439599 10.7809 0.525303 11.3194 0.652025 11.8489C0.719167 12.092 0.777152 12.323 0.850398 12.5357C0.887021 12.6391 0.917548 12.7454 0.954171 12.8396L1.06098 13.1192C1.12812 13.2985 1.20443 13.4505 1.26546 13.5903C1.3265 13.7301 1.38449 13.8455 1.43332 13.9398L1.54624 14.1586C1.56172 14.1829 1.57307 14.2096 1.57981 14.2376Z" fill="white"/>
<path d="M9.77872 1.92935C9.70161 1.93728 9.62388 1.93728 9.54677 1.92935H9.2721C9.16833 1.92935 9.04626 1.92935 8.91197 1.92935C8.77769 1.92935 8.63425 1.94455 8.47554 1.96278C8.31684 1.98101 8.15509 2.00229 7.98113 2.02964C7.22507 2.15937 6.49333 2.40328 5.81119 2.75292C5.65554 2.83801 5.506 2.91399 5.37476 2.99908C5.24778 3.07083 5.12453 3.14893 5.00548 3.23308C4.89256 3.30602 4.79795 3.37895 4.70029 3.44277C4.60262 3.50659 4.54463 3.56129 4.48665 3.60991C4.4286 3.66158 4.36633 3.70834 4.30048 3.74971C4.35275 3.69234 4.40883 3.63853 4.46834 3.58864C4.52327 3.53698 4.59346 3.4762 4.67587 3.41238C4.75827 3.34856 4.85288 3.26651 4.9658 3.19054C5.07873 3.11456 5.19469 3.02947 5.33203 2.94742C5.46937 2.86536 5.61282 2.78027 5.76847 2.69518C6.11126 2.51712 6.46736 2.36574 6.8336 2.24237C7.19997 2.12053 7.57554 2.02806 7.95671 1.96582C8.13372 1.94151 8.30158 1.91415 8.46028 1.90504C8.61898 1.89592 8.76547 1.88377 8.89976 1.88073C9.03405 1.87769 9.15612 1.88073 9.26294 1.88073C9.36976 1.88073 9.46132 1.88073 9.53457 1.89896C9.6166 1.90302 9.69821 1.91318 9.77872 1.92935Z" fill="white"/>
<path d="M11.0197 18.4616C10.9663 18.4862 10.9098 18.5035 10.8518 18.5133C10.742 18.5437 10.5802 18.5771 10.3818 18.6105C9.33263 18.7835 8.25738 18.7107 7.24136 18.3978C7.04909 18.3401 6.89345 18.2823 6.78968 18.2398C6.73451 18.2207 6.68134 18.1963 6.63097 18.1668C6.6885 18.1756 6.74483 18.1909 6.79883 18.2124C6.90565 18.2489 7.0613 18.2975 7.25663 18.3522C8.26989 18.6341 9.33054 18.7055 10.3727 18.5619C10.5741 18.5346 10.7359 18.5072 10.8457 18.4859C10.9024 18.4702 10.9609 18.462 11.0197 18.4616Z" fill="white"/>
</svg>
