<svg width="20" height="20" viewBox="0 0 20 20" fill="none" xmlns="http://www.w3.org/2000/svg">
<g clip-path="url(#clip0_176_4790)">
<path d="M6.04683 4.75112C7.78696 4.75112 9.20264 6.1668 9.20264 7.90694C9.20264 9.64707 7.78696 11.0627 6.04683 11.0627C4.3067 11.0627 2.89102 9.64707 2.89102 7.90694C2.89102 6.1668 4.3067 4.75112 6.04683 4.75112ZM4.31892 7.90694C4.31892 8.85985 5.09392 9.63484 6.04683 9.63484C6.99974 9.63484 7.77474 8.85985 7.77474 7.90694C7.77474 6.95403 6.99974 6.17903 6.04683 6.17903C5.09392 6.17903 4.31892 6.95403 4.31892 7.90694Z" fill="#F0792E" stroke="white" stroke-width="0.2"/>
<path d="M15.8144 6.61172C17.5545 6.61172 18.9702 8.0274 18.9702 9.76753C18.9702 11.5077 17.5545 12.9233 15.8144 12.9233C14.0743 12.9233 12.6586 11.5077 12.6586 9.76753C12.6586 8.0274 14.0743 6.61172 15.8144 6.61172ZM14.0865 9.76753C14.0865 10.7204 14.8615 11.4954 15.8144 11.4954C16.7673 11.4954 17.5423 10.7204 17.5423 9.76753C17.5423 8.81462 16.7673 8.03963 15.8144 8.03963C14.8615 8.03963 14.0865 8.81462 14.0865 9.76753Z" fill="#F0792E" stroke="white" stroke-width="0.2"/>
<path d="M12.9163 14.6136L12.9163 14.6136C13.6867 13.8249 14.7067 13.3913 15.7895 13.3913C16.872 13.3913 17.9003 13.8227 18.6845 14.6075C19.4689 15.3925 19.9 16.4214 19.9 17.505V19.1684C19.9 19.5726 19.5727 19.9 19.169 19.9H12.4654C12.0617 19.9 11.7343 19.5726 11.7343 19.1684H11.6343H11.5343C11.5343 19.5726 11.207 19.9 10.8033 19.9H0.831025C0.427315 19.9 0.1 19.5726 0.1 19.1684V17.505C0.1 14.3186 2.6657 11.7279 5.81717 11.7279C8.96865 11.7279 11.5343 14.3186 11.5343 17.505H11.6343H11.7343C11.7343 16.4207 12.1538 15.394 12.9163 14.6136ZM9.9723 18.4367H10.0723V18.3367V17.505C10.0723 15.1277 8.16488 13.1913 5.81717 13.1913C3.46947 13.1913 1.56205 15.1277 1.56205 17.505V18.3367V18.4367H1.66205H9.9723ZM18.3379 18.4367H18.438V18.3367V17.505C18.438 16.0674 17.2261 14.8546 15.7895 14.8546C14.3806 14.8546 13.1964 16.0695 13.1964 17.505V18.3367V18.4367H13.2964H18.3379Z" fill="#20446C" stroke="white" stroke-width="0.2"/>
<path d="M15.1652 4.13684L13.1014 6.45426L12.3022 5.71127L13.9775 3.83012L14.0368 3.7636L13.9775 3.69709L12.3014 1.81598L13.1013 1.07294L15.1652 3.3904C15.1652 3.39041 15.1652 3.39043 15.1652 3.39044C15.3533 3.60239 15.3533 3.92485 15.1652 4.13679C15.1652 4.13681 15.1652 4.13682 15.1652 4.13684Z" fill="#20446C" stroke="white" stroke-width="0.2"/>
<path d="M14.418 3.25586L14.418 4.33161L8.37143 4.33161L8.37143 3.25586L14.418 3.25586Z" fill="#20446C"/>
<path d="M11.6992 16L11.6992 20" stroke="white" stroke-width="0.4"/>
</g>
<defs>
<clipPath id="clip0_176_4790">
<rect width="20" height="20" fill="white"/>
</clipPath>
</defs>
</svg>
