<svg width="135" height="122" viewBox="0 0 135 122" fill="none" xmlns="http://www.w3.org/2000/svg">
<path d="M61.9019 0.337474C99.6771 -2.89113 99.7532 17.634 116.779 36.7708C133.806 55.9076 137.446 64.5691 131.03 86.641C124.615 108.713 102.97 125.989 76.226 116.192C49.4818 106.394 34.1433 115.804 17.2693 107.093C0.395408 98.3814 -5.88319 81.5809 6.47904 61.7719C18.8413 41.963 15.3105 4.33507 61.9019 0.337474Z" fill="#FFF5EC"/>
<path d="M49.7986 24.9752C50.2427 26.0126 50.3662 27.1601 50.1534 28.2725C49.9406 29.3849 49.401 30.4122 48.6031 31.2244C47.8051 32.0365 46.7846 32.5971 45.6707 32.835C44.5567 33.073 43.3995 32.9777 42.3453 32.5612C41.2912 32.1447 40.3875 31.4257 39.7487 30.4952C39.1099 29.5647 38.7647 28.4646 38.7567 27.334C38.7488 26.2034 39.0784 25.0932 39.704 24.1439C40.3295 23.1945 41.2229 22.4488 42.2709 22.0009C42.9656 21.7031 43.7114 21.5437 44.4658 21.532C45.2201 21.5203 45.9682 21.6565 46.6673 21.9327C47.3663 22.2089 48.0027 22.6197 48.54 23.1418C49.0773 23.6638 49.505 24.2868 49.7986 24.9752Z" fill="#F9C0A8"/>
<path d="M48.5376 25.5147C48.876 26.3053 48.97 27.1798 48.8078 28.0275C48.6456 28.8752 48.2343 29.6581 47.6262 30.2769C47.018 30.8958 46.2403 31.3229 45.3914 31.5042C44.5424 31.6854 43.6605 31.6127 42.8572 31.2952C42.0539 30.9777 41.3654 30.4296 40.8787 29.7205C40.3919 29.0113 40.129 28.1729 40.1231 27.3113C40.1172 26.4497 40.3685 25.6036 40.8454 24.8803C41.3223 24.1569 42.0032 23.5887 42.802 23.2476C43.3313 23.0207 43.8996 22.8994 44.4744 22.8906C45.0492 22.8817 45.6192 22.9855 46.1519 23.1961C46.6845 23.4066 47.1694 23.7197 47.5787 24.1176C47.9881 24.5154 48.3139 24.9901 48.5376 25.5147Z" fill="#FCD3C3"/>
<path d="M44.4381 24.8619C44.5669 24.7345 44.5705 24.5304 44.4461 24.4058C44.3218 24.2814 44.1165 24.2836 43.9877 24.411L42.1409 26.2374C42.0121 26.3647 42.0087 26.569 42.133 26.6935C42.2574 26.818 42.4626 26.8157 42.5914 26.6883L43.1207 26.1649C43.3392 25.948 43.6614 25.8749 43.9443 25.9778L42.9089 27.0017C42.7802 27.129 42.7767 27.3334 42.901 27.4578C43.0254 27.5824 43.2307 27.58 43.3594 27.4527L44.3948 26.4287C44.4951 26.7112 44.4197 27.0305 44.2017 27.2472L43.6724 27.7706C43.5769 27.8653 43.5473 28.0068 43.5976 28.1277C43.6479 28.2486 43.7682 28.3248 43.9011 28.3199L46.4258 28.2209C46.5089 28.2172 46.5882 28.182 46.6475 28.1227C46.7113 28.0589 46.7474 27.9731 46.748 27.8845C46.7471 27.7992 46.7122 27.7187 46.6509 27.6608C46.5896 27.6029 46.5069 27.5723 46.4211 27.5757L44.7081 27.6428C45.137 27.1682 45.2096 26.4785 44.8867 25.9467L45.2062 25.6308C45.335 25.5035 45.3385 25.2993 45.2141 25.1747C45.0897 25.0502 44.8845 25.0525 44.7557 25.1799L44.4363 25.4958C44.297 25.4103 44.1428 25.3503 43.9811 25.3185L44.4404 24.8642L44.4381 24.8619Z" fill="#F38D5D"/>
<path d="M48.4851 25.3929C48.46 25.398 48.3699 25.2363 48.1739 24.9579C47.9007 24.5656 47.5675 24.2185 47.1861 23.929C46.9236 23.7327 46.6403 23.5654 46.3411 23.4299C45.997 23.2775 45.6342 23.1699 45.2618 23.1096C45.0617 23.0757 44.8591 23.0573 44.6559 23.0543C44.226 23.0458 43.7968 23.1017 43.3827 23.22C43.1655 23.2828 42.9532 23.3617 42.7475 23.4559C42.5427 23.5526 42.3451 23.6636 42.1561 23.7881C41.9736 23.9107 41.8007 24.047 41.6391 24.1959C41.4819 24.3379 41.3363 24.4923 41.204 24.6575C41.0755 24.8165 40.959 24.9847 40.8554 25.1606C40.6617 25.4839 40.5105 25.8303 40.4055 26.1913C40.3146 26.5068 40.2592 26.8312 40.2404 27.1583C40.2151 27.6366 40.2646 28.1153 40.387 28.5774C40.4742 28.9068 40.543 29.0858 40.519 29.0964C40.495 29.1071 40.3901 28.9441 40.2629 28.6171C40.0855 28.1502 39.9973 27.6538 40.0029 27.1534C40.0114 26.4012 40.2147 25.6624 40.5929 25.0081C40.8159 24.6207 41.095 24.2678 41.4212 23.9608C41.594 23.7987 41.7796 23.6506 41.9762 23.518C42.179 23.382 42.3918 23.2616 42.6129 23.1578C42.835 23.0558 43.0647 22.9709 43.2997 22.9042C43.5281 22.8381 43.7613 22.7906 43.9971 22.7622C44.2237 22.7353 44.4519 22.7264 44.6797 22.7355C44.8979 22.7425 45.115 22.7661 45.3293 22.8063C45.7233 22.8816 46.105 23.0092 46.464 23.1859C46.774 23.3377 47.0646 23.5256 47.3296 23.7456C47.716 24.0641 48.0389 24.4515 48.282 24.8883C48.452 25.1965 48.5038 25.3847 48.4851 25.3929Z" fill="#F38D5D"/>
<path d="M82.3786 93.963C82.2704 94.8497 81.8985 95.6856 81.3099 96.3649C80.7214 97.0441 79.9426 97.5362 79.0722 97.7788C78.2017 98.0214 77.2788 98.0036 76.4201 97.7278C75.5614 97.452 74.8056 96.9304 74.2483 96.2291C73.6911 95.5279 73.3574 94.6784 73.2894 93.7883C73.2215 92.8981 73.4225 92.0073 73.8669 91.2286C74.3112 90.4499 74.979 89.8182 75.7858 89.4135C76.5926 89.0088 77.502 88.8494 78.399 88.9553C78.994 89.0248 79.5689 89.2095 80.0909 89.4988C80.6129 89.7881 81.0719 90.1764 81.4414 90.6414C81.811 91.1065 82.084 91.6392 82.2448 92.2091C82.4056 92.779 82.451 93.375 82.3786 93.963Z" fill="#F9C0A8"/>
<path d="M81.2991 93.8361C81.2167 94.5119 80.9332 95.1489 80.4846 95.6665C80.0361 96.1841 79.4426 96.559 78.7792 96.7439C78.1159 96.9287 77.4125 96.9151 76.7582 96.7048C76.1038 96.4945 75.5279 96.097 75.1033 95.5625C74.6786 95.028 74.4244 94.3807 74.3728 93.7023C74.3211 93.024 74.4744 92.3451 74.8131 91.7517C75.1519 91.1583 75.6609 90.677 76.2758 90.3688C76.8906 90.0605 77.5837 89.9391 78.2673 90.02C78.7206 90.073 79.1587 90.2138 79.5564 90.4343C79.9541 90.6548 80.3038 90.9507 80.5853 91.3051C80.8669 91.6595 81.0749 92.0654 81.1973 92.4997C81.3198 92.934 81.3544 93.3881 81.2991 93.8361Z" fill="#FCD3C3"/>
<path d="M78.7474 91.7717C78.8866 91.7351 78.9704 91.5965 78.9346 91.4621C78.8989 91.3277 78.7571 91.2484 78.6179 91.285L76.6226 91.8105C76.4835 91.8471 76.3997 91.9858 76.4354 92.1201C76.4712 92.2546 76.6129 92.3338 76.7521 92.2972L77.324 92.1466C77.5603 92.0839 77.8106 92.1606 77.9638 92.3426L76.8452 92.6372C76.7061 92.6738 76.6222 92.8126 76.658 92.9469C76.6937 93.0813 76.8356 93.1605 76.9746 93.1239L78.0933 92.8293C78.0496 93.0626 77.8706 93.2519 77.6347 93.3146L77.0628 93.4652C76.9595 93.4925 76.8828 93.5779 76.8692 93.6807C76.8556 93.7834 76.9077 93.883 77.0009 93.932L78.7732 94.8584C78.8317 94.8886 78.9001 94.8957 78.9645 94.8783C79.0337 94.8597 79.0927 94.8151 79.1284 94.7545C79.1618 94.6957 79.1699 94.6267 79.1509 94.5629C79.1319 94.499 79.0873 94.4454 79.0271 94.414L77.8246 93.7854C78.3081 93.6288 78.6328 93.1843 78.623 92.6925L78.9681 92.6016C79.1073 92.5649 79.1911 92.4263 79.1554 92.2919C79.1196 92.1575 78.9778 92.0783 78.8387 92.1149L78.4936 92.2058C78.432 92.0923 78.3501 91.9904 78.2518 91.9049L78.7481 91.7742L78.7474 91.7717Z" fill="#F38D5D"/>
<path d="M81.3091 93.7319C81.2898 93.7255 81.2923 93.579 81.2686 93.3108C81.2374 92.934 81.1469 92.5645 81.0005 92.2155C80.8985 91.9774 80.7708 91.7509 80.6196 91.54C80.4441 91.2998 80.2381 91.083 80.0067 90.8948C79.8829 90.7927 79.7513 90.7002 79.6131 90.618C79.3216 90.4427 79.0051 90.3119 78.6739 90.2298C78.4999 90.1873 78.3229 90.1577 78.1444 90.1412C77.9655 90.1268 77.7858 90.125 77.6065 90.1359C77.4326 90.1481 77.2598 90.1735 77.0898 90.2119C76.9254 90.2474 76.7641 90.2959 76.6076 90.3571C76.4562 90.4155 76.3094 90.4849 76.1684 90.5648C75.9069 90.7102 75.6653 90.8883 75.4497 91.0945C75.2618 91.2751 75.0948 91.4758 74.9517 91.6928C74.7441 92.011 74.5876 92.3589 74.4877 92.7242C74.4164 92.9845 74.3925 93.1344 74.3718 93.1323C74.3511 93.1301 74.344 92.9769 74.3867 92.7024C74.4509 92.3122 74.5879 91.9369 74.7908 91.5958C75.0959 91.0832 75.5293 90.6564 76.049 90.3567C76.3561 90.1788 76.688 90.0468 77.0338 89.9647C77.2169 89.9216 77.4031 89.8932 77.5907 89.8797C77.7839 89.8664 77.9778 89.8677 78.1706 89.8837C78.3636 89.9012 78.5549 89.9335 78.7427 89.9804C78.9256 90.0251 79.1044 90.0845 79.2775 90.1579C79.4436 90.2288 79.6037 90.3127 79.7562 90.4087C79.9031 90.4995 80.0427 90.6013 80.1737 90.7133C80.414 90.9203 80.6249 91.1584 80.8009 91.4211C80.9531 91.6474 81.0777 91.8909 81.1719 92.1463C81.3102 92.5171 81.3776 92.9102 81.3705 93.3057C81.3644 93.5841 81.3251 93.7337 81.3091 93.7319Z" fill="#F38D5D"/>
<path d="M35.4605 29.6162C35.8123 30.4379 35.9101 31.3468 35.7415 32.2279C35.573 33.109 35.1456 33.9226 34.5136 34.5659C33.8816 35.2092 33.0733 35.6532 32.191 35.8416C31.3087 36.0301 30.392 35.9546 29.5571 35.6247C28.7221 35.2948 28.0064 34.7254 27.5004 33.9884C26.9944 33.2514 26.721 32.38 26.7147 31.4845C26.7084 30.589 26.9695 29.7096 27.465 28.9577C27.9605 28.2058 28.668 27.6151 29.4982 27.2604C30.0484 27.0245 30.6391 26.8983 31.2366 26.889C31.8341 26.8797 32.4266 26.9875 32.9803 27.2063C33.534 27.4251 34.0381 27.7505 34.4636 28.164C34.8892 28.5775 35.228 29.071 35.4605 29.6162Z" fill="#F9C0A8"/>
<path d="M34.462 30.0441C34.73 30.6703 34.8045 31.363 34.676 32.0344C34.5475 32.7059 34.2218 33.3259 33.7401 33.8161C33.2584 34.3063 32.6424 34.6446 31.97 34.7882C31.2976 34.9317 30.5991 34.8741 29.9628 34.6226C29.3265 34.3711 28.7811 33.9371 28.3956 33.3754C28.0101 32.8137 27.8019 32.1496 27.7972 31.4671C27.7925 30.7847 27.9916 30.1146 28.3693 29.5416C28.747 28.9687 29.2863 28.5186 29.919 28.2485C30.3383 28.0688 30.7884 27.9727 31.2437 27.9657C31.699 27.9587 32.1504 28.0409 32.5723 28.2076C32.9942 28.3744 33.3782 28.6224 33.7025 28.9375C34.0267 29.2526 34.2848 29.6287 34.462 30.0441Z" fill="#FCD3C3"/>
<path d="M31.2151 29.5261C31.3171 29.4252 31.3199 29.2635 31.2214 29.1648C31.1229 29.0662 30.9603 29.068 30.8583 29.1689L29.3956 30.6155C29.2935 30.7164 29.2908 30.8782 29.3893 30.9768C29.4878 31.0754 29.6503 31.0736 29.7523 30.9727L30.1716 30.5581C30.3447 30.3863 30.5998 30.3284 30.824 30.4099L30.0039 31.2209C29.9019 31.3218 29.8991 31.4836 29.9976 31.5822C30.0961 31.6808 30.2587 31.6789 30.3606 31.5781L31.1807 30.7671C31.2602 30.9908 31.2005 31.2437 31.0278 31.4153L30.6086 31.8299C30.5329 31.9049 30.5094 32.017 30.5493 32.1128C30.5892 32.2085 30.6844 32.2689 30.7897 32.265L32.7895 32.1866C32.8552 32.1837 32.918 32.1558 32.965 32.1088C33.0155 32.0583 33.0442 31.9903 33.0446 31.9201C33.0439 31.8525 33.0163 31.7888 32.9677 31.7429C32.9192 31.6971 32.8537 31.6728 32.7857 31.6756L31.4289 31.7287C31.7686 31.3528 31.8261 30.8065 31.5704 30.3853L31.8234 30.1351C31.9254 30.0342 31.9282 29.8725 31.8297 29.7738C31.7312 29.6752 31.5687 29.677 31.4666 29.7779L31.2136 30.0281C31.1033 29.9605 30.9812 29.9129 30.8531 29.8877L31.2169 29.5279L31.2151 29.5261Z" fill="#F38D5D"/>
<path d="M34.4208 29.9483C34.4009 29.9523 34.3295 29.8243 34.1743 29.6038C33.9579 29.2931 33.6939 29.0181 33.3919 28.7888C33.1839 28.6334 32.9596 28.5008 32.7226 28.3935C32.45 28.2728 32.1627 28.1876 31.8677 28.1398C31.7092 28.113 31.5488 28.0984 31.3878 28.0961C31.0473 28.0893 30.7074 28.1335 30.3794 28.2273C30.2073 28.277 30.0391 28.3395 29.8763 28.4141C29.7141 28.4907 29.5575 28.5786 29.4078 28.6773C29.2633 28.7744 29.1264 28.8823 28.9983 29.0002C28.8738 29.1127 28.7585 29.235 28.6537 29.3659C28.5519 29.4918 28.4596 29.625 28.3776 29.7643C28.2242 30.0204 28.1044 30.2948 28.0212 30.5807C27.9492 30.8306 27.9054 31.0875 27.8905 31.3466C27.8705 31.7255 27.9097 32.1046 28.0066 32.4706C28.0756 32.7315 28.1302 32.8733 28.1112 32.8817C28.0922 32.8902 28.0091 32.761 27.9083 32.5021C27.7678 32.1322 27.6979 31.7391 27.7023 31.3427C27.7091 30.747 27.8701 30.1618 28.1697 29.6435C28.3463 29.3367 28.5674 29.0572 28.8258 28.814C28.9626 28.6856 29.1096 28.5683 29.2653 28.4633C29.426 28.3556 29.5946 28.2602 29.7696 28.178C29.9456 28.0972 30.1275 28.03 30.3137 27.9771C30.4945 27.9248 30.6793 27.8872 30.866 27.8646C31.0455 27.8434 31.2263 27.8363 31.4066 27.8435C31.5795 27.849 31.7515 27.8678 31.9212 27.8996C32.2333 27.9592 32.5356 28.0603 32.8199 28.2003C33.0655 28.3205 33.2956 28.4693 33.5056 28.6436C33.8116 28.8958 34.0674 29.2027 34.2599 29.5487C34.3945 29.7928 34.4356 29.9419 34.4208 29.9483Z" fill="#F38D5D"/>
<path d="M72.9332 100.996C72.7966 102.115 72.3271 103.171 71.584 104.028C70.8409 104.886 69.8577 105.507 68.7588 105.813C67.6598 106.12 66.4946 106.097 65.4105 105.749C64.3264 105.401 63.3721 104.742 62.6685 103.857C61.9649 102.972 61.5436 101.899 61.4579 100.775C61.3721 99.6515 61.6258 98.5268 62.1869 97.5436C62.7479 96.5604 63.5911 95.7629 64.6096 95.252C65.6282 94.7411 66.7764 94.5398 67.9089 94.6735C68.66 94.7612 69.3859 94.9944 70.045 95.3597C70.704 95.725 71.2834 96.2152 71.75 96.8023C72.2166 97.3895 72.5613 98.062 72.7643 98.7816C72.9673 99.5011 73.0247 100.254 72.9332 100.996Z" fill="#F9C0A8"/>
<path d="M71.5715 100.837C71.4674 101.69 71.1095 102.494 70.5432 103.147C69.9768 103.801 69.2275 104.274 68.39 104.508C67.5525 104.741 66.6645 104.724 65.8384 104.458C65.0122 104.193 64.2851 103.691 63.749 103.016C63.2129 102.341 62.8919 101.524 62.8267 100.668C62.7615 99.8112 62.955 98.9541 63.3827 98.205C63.8104 97.4558 64.453 96.8481 65.2293 96.4589C66.0056 96.0697 66.8806 95.9165 67.7437 96.0185C68.316 96.0855 68.8691 96.2632 69.3712 96.5416C69.8734 96.82 70.3148 97.1936 70.6703 97.6411C71.0258 98.0885 71.2883 98.601 71.443 99.1493C71.5976 99.6976 71.6413 100.271 71.5715 100.837Z" fill="#FCD3C3"/>
<path d="M68.3505 98.23C68.5262 98.1837 68.632 98.0087 68.5869 97.839C68.5417 97.6694 68.3627 97.5692 68.1871 97.6155L65.6679 98.2788C65.4922 98.3251 65.3865 98.5003 65.4316 98.6698C65.4767 98.8395 65.6557 98.9396 65.8314 98.8933L66.5534 98.7032C66.8518 98.6241 67.1678 98.7209 67.3612 98.9507L65.9489 99.3226C65.7733 99.3689 65.6674 99.544 65.7126 99.7136C65.7577 99.8833 65.9368 99.9833 66.1124 99.9371L67.5247 99.5652C67.4695 99.8597 67.2436 100.099 66.9457 100.178L66.2237 100.368C66.0932 100.403 65.9964 100.51 65.9792 100.64C65.962 100.77 66.0279 100.896 66.1455 100.957L68.3831 102.127C68.4569 102.165 68.5434 102.174 68.6246 102.152C68.712 102.129 68.7864 102.072 68.8315 101.996C68.8737 101.922 68.8839 101.834 68.8599 101.754C68.836 101.673 68.7797 101.606 68.7036 101.566L67.1854 100.772C67.7959 100.575 68.2058 100.013 68.1935 99.3924L68.6292 99.2777C68.8049 99.2314 68.9107 99.0564 68.8656 98.8867C68.8204 98.717 68.6414 98.6169 68.4658 98.6632L68.03 98.7779C67.9523 98.6347 67.8489 98.506 67.7248 98.3981L68.3513 98.2331L68.3505 98.23Z" fill="#F38D5D"/>
<path d="M71.586 100.705C71.5617 100.697 71.5649 100.512 71.535 100.173C71.4955 99.6976 71.3813 99.2311 71.1965 98.7905C71.0677 98.4898 70.9065 98.2039 70.7155 97.9376C70.494 97.6344 70.234 97.3606 69.9417 97.123C69.7854 96.9941 69.6193 96.8773 69.4448 96.7736C69.0768 96.5523 68.6771 96.387 68.2591 96.2834C68.0394 96.2297 67.8159 96.1924 67.5905 96.1716C67.3647 96.1534 67.1377 96.1512 66.9115 96.165C66.6919 96.1803 66.4737 96.2124 66.259 96.2608C66.0515 96.3056 65.8479 96.3669 65.6503 96.4441C65.4592 96.5179 65.2738 96.6056 65.0958 96.7064C64.7656 96.89 64.4607 97.1148 64.1884 97.3752C63.9512 97.6032 63.7403 97.8566 63.5597 98.1305C63.2976 98.5322 63.1 98.9715 62.9739 99.4327C62.8839 99.7613 62.8536 99.9506 62.8275 99.9479C62.8013 99.9452 62.7924 99.7518 62.8464 99.4052C62.9273 98.9125 63.1003 98.4387 63.3565 98.0081C63.7418 97.3609 64.2888 96.8221 64.9451 96.4436C65.3328 96.2191 65.7517 96.0524 66.1884 95.9488C66.4195 95.8944 66.6546 95.8584 66.8914 95.8414C67.1354 95.8246 67.3801 95.8263 67.6237 95.8464C67.8673 95.8685 68.1088 95.9094 68.3459 95.9686C68.5768 96.025 68.8026 96.1 69.0211 96.1927C69.2308 96.2822 69.4329 96.3881 69.6255 96.5093C69.811 96.6239 69.9872 96.7525 70.1525 96.8939C70.456 97.1552 70.7223 97.4558 70.9444 97.7875C71.1366 98.0733 71.2939 98.3806 71.4129 98.7031C71.5875 99.1712 71.6725 99.6675 71.6635 100.167C71.6559 100.518 71.6063 100.707 71.586 100.705Z" fill="#F38D5D"/>
<g clip-path="url(#clip0_7_68086)">
<path d="M102.711 46.5935L83.7456 45.6807L82.3578 73.8611L101.323 74.7739L102.711 46.5935Z" fill="white" stroke="#263238" stroke-width="0.114759" stroke-linecap="round" stroke-linejoin="round"/>
<path d="M85.0726 47.6686L90.0094 47.8963" stroke="#263238" stroke-width="0.229517" stroke-linecap="round" stroke-linejoin="round"/>
<path d="M85.0289 48.6059L88.3864 48.7596" stroke="#263238" stroke-width="0.229517" stroke-linecap="round" stroke-linejoin="round"/>
<path d="M86.1268 50.8732L100.326 51.5265" stroke="#263238" stroke-width="0.229517" stroke-linecap="round" stroke-linejoin="round"/>
<path d="M86.0832 51.8077L100.283 52.4633" stroke="#263238" stroke-width="0.229517" stroke-linecap="round" stroke-linejoin="round"/>
<path d="M86.0334 52.9007L98.1428 53.4597" stroke="#263238" stroke-width="0.229517" stroke-linecap="round" stroke-linejoin="round"/>
<path d="M87.2022 53.9531L86.0474 53.8999L85.9936 55.0416L87.1484 55.0948L87.2022 53.9531Z" stroke="#263238" stroke-width="0.114759" stroke-linecap="round" stroke-linejoin="round"/>
<path d="M89.293 54.0483L88.1382 53.9951L88.0844 55.1368L89.2392 55.19L89.293 54.0483Z" stroke="#263238" stroke-width="0.114759" stroke-linecap="round" stroke-linejoin="round"/>
<path d="M91.3887 54.1455L90.2339 54.0923L90.1801 55.234L91.3349 55.2871L91.3887 54.1455Z" stroke="#263238" stroke-width="0.114759" stroke-linecap="round" stroke-linejoin="round"/>
<path d="M93.481 54.2407L92.3262 54.1875L92.2724 55.3292L93.4272 55.3824L93.481 54.2407Z" stroke="#263238" stroke-width="0.114759" stroke-linecap="round" stroke-linejoin="round"/>
<path d="M85.373 50.8364C85.3709 50.8934 85.3516 50.9484 85.3178 50.9946C85.2839 51.0407 85.2369 51.0759 85.1828 51.0955C85.1286 51.1152 85.0698 51.1185 85.0138 51.1051C84.9578 51.0916 84.907 51.0619 84.8681 51.0199C84.8291 50.9779 84.8037 50.9253 84.795 50.8689C84.7864 50.8126 84.7949 50.7549 84.8194 50.7034C84.844 50.6518 84.8835 50.6086 84.933 50.5793C84.9825 50.5499 85.0396 50.5358 85.0972 50.5387C85.1735 50.5426 85.2452 50.5759 85.2969 50.6316C85.3485 50.6874 85.3758 50.7609 85.373 50.8364Z" fill="#263238"/>
<path d="M85.87 56.3373L100.07 56.9906" stroke="#263238" stroke-width="0.229517" stroke-linecap="round" stroke-linejoin="round"/>
<path d="M85.8259 57.2725L100.025 57.9281" stroke="#263238" stroke-width="0.229517" stroke-linecap="round" stroke-linejoin="round"/>
<path d="M85.7743 58.3677L97.884 58.9245" stroke="#263238" stroke-width="0.229517" stroke-linecap="round" stroke-linejoin="round"/>
<path d="M86.9444 59.4169L85.7896 59.3638L85.7358 60.5055L86.8906 60.5586L86.9444 59.4169Z" stroke="#263238" stroke-width="0.114759" stroke-linecap="round" stroke-linejoin="round"/>
<path d="M89.0371 59.5141L87.8823 59.4609L87.8285 60.6026L88.9833 60.6558L89.0371 59.5141Z" stroke="#263238" stroke-width="0.114759" stroke-linecap="round" stroke-linejoin="round"/>
<path d="M91.1314 59.611L89.9766 59.5579L89.9228 60.6995L91.0776 60.7527L91.1314 59.611Z" stroke="#263238" stroke-width="0.114759" stroke-linecap="round" stroke-linejoin="round"/>
<path d="M93.2237 59.7065L92.0688 59.6533L92.0151 60.795L93.1699 60.8482L93.2237 59.7065Z" stroke="#263238" stroke-width="0.114759" stroke-linecap="round" stroke-linejoin="round"/>
<path d="M85.1161 56.3035C85.1135 56.3604 85.0939 56.4152 85.0597 56.461C85.0256 56.5069 84.9785 56.5417 84.9243 56.561C84.8701 56.5803 84.8114 56.5833 84.7555 56.5695C84.6996 56.5558 84.6491 56.526 84.6104 56.4838C84.5717 56.4417 84.5465 56.3891 84.5381 56.3328C84.5296 56.2765 84.5383 56.219 84.5629 56.1675C84.5876 56.1161 84.6271 56.073 84.6766 56.0439C84.726 56.0147 84.7831 56.0007 84.8406 56.0036C84.9173 56.0075 84.9893 56.0412 85.0409 56.0974C85.0925 56.1536 85.1195 56.2277 85.1161 56.3035Z" fill="#263238"/>
<path d="M85.6115 61.8009L99.8109 62.4564" stroke="#263238" stroke-width="0.229517" stroke-linecap="round" stroke-linejoin="round"/>
<path d="M85.5677 62.7396L99.7652 63.3926" stroke="#263238" stroke-width="0.229517" stroke-linecap="round" stroke-linejoin="round"/>
<path d="M85.517 63.8328L97.6266 64.3896" stroke="#263238" stroke-width="0.229517" stroke-linecap="round" stroke-linejoin="round"/>
<path d="M86.6865 64.8808L85.5317 64.8276L85.478 65.9693L86.6328 66.0225L86.6865 64.8808Z" stroke="#263238" stroke-width="0.114759" stroke-linecap="round" stroke-linejoin="round"/>
<path d="M88.7803 64.978L87.6255 64.9248L87.5717 66.0665L88.7265 66.1197L88.7803 64.978Z" stroke="#263238" stroke-width="0.114759" stroke-linecap="round" stroke-linejoin="round"/>
<path d="M90.874 65.0769L89.7192 65.0237L89.6655 66.1654L90.8203 66.2185L90.874 65.0769Z" stroke="#263238" stroke-width="0.114759" stroke-linecap="round" stroke-linejoin="round"/>
<path d="M92.9649 65.1723L91.8101 65.1191L91.7563 66.2608L92.9111 66.314L92.9649 65.1723Z" stroke="#263238" stroke-width="0.114759" stroke-linecap="round" stroke-linejoin="round"/>
<path d="M84.8573 61.7673C84.8547 61.8242 84.8351 61.8791 84.801 61.9249C84.7668 61.9707 84.7197 62.0055 84.6655 62.0248C84.6113 62.0442 84.5526 62.0471 84.4967 62.0334C84.4408 62.0197 84.3903 61.9898 84.3516 61.9477C84.3129 61.9056 84.2877 61.853 84.2793 61.7967C84.2708 61.7404 84.2795 61.6828 84.3041 61.6314C84.3288 61.58 84.3683 61.5369 84.4178 61.5077C84.4672 61.4785 84.5243 61.4645 84.5818 61.4675C84.6585 61.4714 84.7305 61.5051 84.7821 61.5613C84.8337 61.6175 84.8607 61.6915 84.8573 61.7673Z" fill="#263238"/>
<path d="M85.3483 67.421L99.5454 68.0762" stroke="#263238" stroke-width="0.229517" stroke-linecap="round" stroke-linejoin="round"/>
<path d="M85.3034 68.3592L99.5005 69.0145" stroke="#263238" stroke-width="0.229517" stroke-linecap="round" stroke-linejoin="round"/>
<path d="M85.2502 69.4517L97.3596 70.0107" stroke="#263238" stroke-width="0.229517" stroke-linecap="round" stroke-linejoin="round"/>
<path d="M86.4234 70.5029L85.2686 70.4497L85.2148 71.5914L86.3696 71.6446L86.4234 70.5029Z" stroke="#263238" stroke-width="0.114759" stroke-linecap="round" stroke-linejoin="round"/>
<path d="M88.5147 70.5991L87.3599 70.5459L87.3061 71.6876L88.4609 71.7408L88.5147 70.5991Z" stroke="#263238" stroke-width="0.114759" stroke-linecap="round" stroke-linejoin="round"/>
<path d="M90.607 70.6953L89.4521 70.6421L89.3984 71.7838L90.5532 71.8369L90.607 70.6953Z" stroke="#263238" stroke-width="0.114759" stroke-linecap="round" stroke-linejoin="round"/>
<path d="M92.7027 70.7907L91.5479 70.7375L91.4941 71.8792L92.6489 71.9324L92.7027 70.7907Z" stroke="#263238" stroke-width="0.114759" stroke-linecap="round" stroke-linejoin="round"/>
<path d="M84.6016 67.3887C84.5991 67.4451 84.5797 67.4994 84.5459 67.5448C84.5121 67.5902 84.4655 67.6248 84.4119 67.644C84.3583 67.6632 84.3002 67.6664 84.2448 67.6529C84.1894 67.6395 84.1393 67.6101 84.1007 67.5686C84.0622 67.527 84.037 67.4751 84.0284 67.4193C84.0197 67.3636 84.0279 67.3066 84.052 67.2555C84.0761 67.2044 84.115 67.1615 84.1637 67.1322C84.2124 67.103 84.2689 67.0886 84.3258 67.0911C84.3637 67.0927 84.4009 67.1017 84.4353 67.1175C84.4697 67.1333 84.5005 67.1557 84.5262 67.1834C84.5518 67.211 84.5716 67.2434 84.5846 67.2786C84.5975 67.3139 84.6033 67.3513 84.6016 67.3887Z" fill="#263238"/>
<path d="M86.4381 54.3746L86.5896 54.6274L87.2012 53.9542" stroke="#263238" stroke-width="0.229517" stroke-linecap="round" stroke-linejoin="round"/>
<path d="M90.3712 59.963L90.5224 60.218L91.1343 59.5426" stroke="#263238" stroke-width="0.229517" stroke-linecap="round" stroke-linejoin="round"/>
<path d="M88.0133 65.4444L88.1667 65.6998L88.7763 65.024" stroke="#263238" stroke-width="0.229517" stroke-linecap="round" stroke-linejoin="round"/>
<path d="M91.9112 71.2112L92.0624 71.4663L92.6743 70.7908" stroke="#263238" stroke-width="0.229517" stroke-linecap="round" stroke-linejoin="round"/>
</g>
<path opacity="0.2" d="M84.5814 76.3826C84.5814 76.3826 84.5586 87.1442 84.5814 87.7718C84.6043 88.3994 85.4386 92.1789 85.4386 92.1789L82.7842 96.9968L85.07 98.8092L89.5132 94.5062C89.5132 94.5062 93.2963 96.8083 93.9878 100.101C94.6793 103.394 98.7967 105.791 103.068 114.909C107.34 124.028 112.212 94.5062 112.212 94.5062L99.031 78.164L84.5814 76.3826Z" fill="black" fill-opacity="0.7"/>
<path d="M124.303 118.46L104.016 121.859C104.016 121.859 100.484 103.384 98.3785 100.471C96.2726 97.5585 96.6641 96.3625 95.6354 94.4009C95.0182 93.2162 91.9209 91.007 89.495 88.8259C89.2836 88.6374 89.0778 88.4488 88.8807 88.2631C88.795 88.1871 88.715 88.1055 88.635 88.0295C88.3121 87.7143 88.0121 87.4076 87.7463 87.1065C87.6492 86.9995 87.5539 86.8926 87.4606 86.7856C87.0101 86.2916 86.6747 85.7067 86.4777 85.0718C86.469 85.0433 86.4632 85.0141 86.4605 84.9845C86.4523 84.9503 86.4465 84.9155 86.4434 84.8804C86.3891 84.4442 86.3319 83.9461 86.2748 83.4057C86.2748 83.2988 86.2519 83.1862 86.2377 83.0736L86.2205 82.9386C86.1719 82.4883 86.1176 82.0099 86.0548 81.5174C85.9919 81.0249 85.9233 80.4677 85.8433 79.9302C85.8176 79.7444 85.7919 79.5587 85.7605 79.3673C85.729 79.159 85.6948 78.9508 85.6605 78.7397L85.5662 78.1994C85.5662 78.1684 85.5519 78.1403 85.549 78.115L85.4347 77.4818C85.4269 77.459 85.4222 77.4354 85.4205 77.4114C85.3805 77.2285 85.3433 77.0484 85.3004 76.8654C85.2119 76.4574 85.1119 76.0578 85.0147 75.6694C84.818 74.9385 84.5649 74.2235 84.2575 73.5306C82.7946 70.3139 84.6975 71.4762 83.5518 63.1995C83.5518 63.1995 84.3947 61.2802 86.7977 62.814C86.9834 62.9333 87.1627 63.062 87.3349 63.1995C87.8219 63.5874 88.2517 64.0402 88.6121 64.5447C89.1007 65.2317 89.4731 65.992 89.715 66.7961C90.1078 68.1004 90.2187 69.4713 90.0408 70.8205C90.0408 70.8205 91.8466 76.9161 92.7981 78.3035C93.7496 79.6909 97.6841 71.721 97.4298 70.7923C97.3405 70.3757 97.2728 69.9549 97.227 69.5315C97.2098 69.3937 97.1927 69.2501 97.1727 69.0925C97.1527 68.9349 97.1355 68.7773 97.1184 68.6113C97.1184 68.5325 97.0984 68.4481 97.0869 68.3665C97.0869 68.3327 97.0869 68.2989 97.0869 68.268C97.0527 67.9499 97.0127 67.6122 96.9755 67.2633C96.9755 67.1648 96.9555 67.0719 96.9441 66.9819L96.8927 66.4753C96.891 66.4472 96.891 66.419 96.8927 66.3909C96.8927 66.2952 96.8698 66.1967 96.8612 66.0954C96.8384 65.8984 96.8184 65.6986 96.7984 65.4987C96.7784 65.2989 96.7641 65.1554 96.7469 64.9837C96.7126 64.6601 96.6812 64.3365 96.6498 64.0241C96.6269 63.7905 96.6041 63.5597 96.5841 63.3346C96.5841 63.2839 96.5841 63.2333 96.5698 63.1854C96.4498 61.9472 96.3555 60.9341 96.3212 60.495C96.3212 60.495 93.4639 56.3243 93.1781 54.36C92.8924 52.3957 92.9095 50.3272 94.1068 49.4857C96.9412 47.4989 96.1069 50.7015 97.3813 52.0186C98.6556 53.3356 100.596 55.5167 101.699 56.1949C102.716 56.8309 103.625 59.2905 103.753 59.662C103.607 59.1217 102.153 53.8084 102.122 52.739C102.084 51.6133 101.21 45.6584 102.693 43.5224C104.176 41.3864 106.153 43.044 106.336 43.4661C106.519 43.8882 106.573 49.6574 107.096 51.2615C107.619 52.8656 109.808 59.5551 109.808 59.5551C109.808 59.5551 109.899 53.0486 110.394 50.1358C110.888 47.2231 112.171 44.9464 113.428 44.8169C114.685 44.6875 115.848 46.0524 115.848 46.0524C115.848 46.0524 115.351 50.6959 115.494 51.7681C115.637 52.8403 115.288 56.7127 115.885 58.8037C115.885 58.8037 115.817 53.2568 116.691 52.5476C117.565 51.8384 118.317 51.4979 118.808 51.9848C119.3 52.4716 119.406 55.7474 119.906 57.723C120.406 59.6986 120.343 62.3834 120.671 65.465C121 68.5466 122.294 72.8242 122.037 75.2698C121.78 77.7153 120.989 83.78 120.351 87.34C119.714 90.9 118.088 95.7827 118.088 95.7827C118.088 95.7827 118.828 98.3859 118.686 100.708C118.543 103.029 124.303 118.46 124.303 118.46Z" fill="white"/>
<path opacity="0.8" d="M107.062 51.2567C107.45 52.4471 108.748 56.4208 109.393 58.4049C109.393 58.4049 106.559 60.4565 106.63 62.3645C106.702 64.2726 106.11 68.1224 104.836 68.0127C103.562 67.9029 103.693 59.8908 103.262 58.5456C103.522 59.1084 103.687 59.5953 103.722 59.6882C103.627 59.342 102.113 53.8289 102.081 52.737C102.081 52.4781 102.021 51.9687 101.961 51.3074V51.2933C101.961 51.2933 104.779 48.6367 106.847 50.2633C106.894 50.5992 106.965 50.9313 107.062 51.2567Z" fill="#FFE4C8"/>
<path opacity="0.8" d="M115.486 53.5623C114.166 54.7978 112.174 56.976 111.923 59.0782C111.923 59.0782 112.66 64.9487 112.346 67.5069L109.774 59.5679C109.774 59.5679 109.865 53.0614 110.36 50.1487L110.403 49.9095C112.007 49.1039 113.779 48.6725 115.58 48.6487C115.47 49.6843 115.432 50.7262 115.469 51.7669C115.506 52.3646 115.512 52.964 115.486 53.5623Z" fill="#FFE4C8"/>
<path opacity="0.4" d="M116.654 52.5368C116.623 52.5593 116.546 52.6184 116.434 52.7141C116.501 52.5873 116.576 52.4642 116.657 52.3455L116.654 52.5368Z" fill="#92E3A9"/>
<path opacity="0.8" d="M117.327 68.7585C117.327 68.7585 115.63 62.4883 115.613 57.4396C115.599 55.571 115.819 53.8683 116.433 52.7173C116.5 52.5905 116.575 52.4674 116.656 52.3487V52.5316C116.962 52.2686 117.302 52.0471 117.667 51.873C117.19 52.6047 116.642 54.0372 117.276 56.3758C118.273 60.0174 117.404 64.4696 117.327 68.7585Z" fill="#FFE4C8"/>
<path opacity="0.8" d="M93.9161 80.7166C93.9161 80.7166 94.3704 86.6912 89.4958 88.83C89.2843 88.6415 89.0786 88.4529 88.8815 88.2672C88.7957 88.1912 88.7157 88.1096 88.6357 88.0336C88.3128 87.7184 88.0128 87.4088 87.7471 87.1105C87.6471 87.0007 87.5585 86.8938 87.4614 86.7897C87.0109 86.2957 86.6755 85.7108 86.4784 85.0758C86.47 85.0473 86.4642 85.0181 86.4613 84.9886C86.453 84.9543 86.4473 84.9195 86.4441 84.8844C86.3899 84.4482 86.3327 83.9501 86.2756 83.4098C86.2756 83.3028 86.2527 83.1903 86.2384 83.0777L86.2213 82.9426C86.1727 82.4895 86.1184 82.0139 86.0556 81.5214C85.9927 81.0289 85.9241 80.4717 85.8441 79.9342C85.8155 79.7485 85.7898 79.5599 85.7612 79.3714C85.7298 79.1631 85.6955 78.952 85.6612 78.7438L85.5669 78.2034L85.5498 78.119C85.5098 77.908 85.4727 77.7025 85.4298 77.4943C85.4237 77.4711 85.4189 77.4476 85.4155 77.4239C85.3755 77.241 85.3384 77.0581 85.2955 76.8779C85.2041 76.4699 85.1041 76.0703 85.0098 75.6819C86.9385 73.8526 91.3902 75.0008 89.2358 70.7654C89.2358 70.7654 90.3215 67.1407 87.3299 63.212C89.3758 64.8358 90.4244 67.6923 90.0358 70.8104C90.0358 70.8104 91.8416 76.9033 92.7931 78.2935C93.7446 79.6837 97.6792 71.711 97.4249 70.7795C97.3355 70.364 97.2687 69.9441 97.2249 69.5215C97.2049 69.3836 97.1877 69.2401 97.1706 69.0825C97.1534 68.9249 97.1306 68.7673 97.1134 68.5985C97.1134 68.5225 97.0934 68.438 97.082 68.3564C97.082 68.3227 97.082 68.2889 97.082 68.2579C97.0477 67.9371 97.0106 67.6022 96.9706 67.2504C96.9706 67.1548 96.9506 67.0619 96.9391 66.969C96.9391 66.8002 96.9048 66.6313 96.8877 66.4625C96.8861 66.4343 96.8861 66.4061 96.8877 66.378C96.8877 66.2823 96.8648 66.1838 96.8563 66.0825C96.8334 65.8827 96.8163 65.6857 96.7934 65.4859L96.742 64.9681C96.7077 64.6473 96.6763 64.3236 96.6448 64.0113C96.6248 63.7749 96.602 63.5441 96.5791 63.3218C96.5791 63.2711 96.5791 63.2204 96.5648 63.1726C96.6448 63.5413 98.0935 70.332 98.9193 71.9164C99.745 73.5431 96.1505 82.1237 93.9161 80.7166Z" fill="#FFE4C8"/>
<path opacity="0.8" d="M120.315 87.3324C119.678 90.8952 118.052 95.7751 118.052 95.7751C118.052 95.7751 118.792 98.3782 118.649 100.7C118.609 101.325 119.004 102.901 119.592 104.873C119.424 104.44 117.592 99.791 117.632 98.1672C117.666 96.4786 117.175 95.9974 116.203 93.9064C115.232 91.8154 113.772 92.0434 113.772 92.0434C113.772 92.0434 113.2 97.261 111.875 93.8332C110.549 90.4055 110.289 86.4177 113.64 72.5717C113.64 72.5717 114.146 74.3081 113.723 79.4666C113.3 84.6251 114.552 86.187 114.552 86.187C116.437 82.9534 117.932 79.5147 119.009 75.9403C119.009 75.9403 118.575 81.96 118.189 84.701C117.804 87.4421 119.564 81.5238 120.792 77.8681C121.935 74.4347 121.99 73.1317 121.549 70.689C121.875 72.4085 122.121 74.0492 121.995 75.248C121.744 77.6908 120.952 83.7611 120.315 87.3324Z" fill="#FFE4C8"/>
<path opacity="0.8" d="M97.3906 98.9243C98.3793 100.475 100.799 102.521 102.248 108.18C103.697 113.84 102.782 120.034 102.782 120.034L97.3906 98.9243Z" fill="#FFE4C8"/>
<path opacity="0.8" d="M89.6105 66.7999C89.6105 66.7999 84.5501 69.3327 84.1501 73.5541C82.6871 70.3374 84.5901 71.4997 83.4443 63.223C83.4443 63.223 84.2873 61.3037 86.6903 62.8375C86.8759 62.9568 87.0552 63.0855 87.2274 63.223C87.7144 63.6109 88.1443 64.0637 88.5047 64.5682L89.6105 66.7999Z" fill="#FFE4C8" fill-opacity="0.7"/>
<path d="M104.017 121.86C104.017 121.86 100.488 103.385 98.3791 100.472C96.2704 97.5595 96.6647 96.3635 95.636 94.402C94.6074 92.4404 86.7983 87.6647 86.4526 84.8786C86.1068 82.0925 85.7125 76.7511 84.2467 73.5344C82.7809 70.3177 84.6867 71.48 83.5381 63.2005C83.5381 63.2005 84.3953 61.284 86.7869 62.8178C89.1785 64.3516 90.4528 67.4163 90.0328 70.813C90.0328 70.813 91.8386 76.9059 92.793 78.2961C93.7473 79.6863 97.6733 71.7136 97.4219 70.7821C97.1704 69.8506 96.4132 61.9257 96.2932 60.482C96.2932 60.482 93.4359 56.3085 93.1502 54.3441C92.8644 52.3798 92.8816 50.3113 94.0788 49.4727C96.9133 47.4858 96.0789 50.6884 97.3533 52.0055C98.6277 53.3226 100.568 55.498 101.668 56.179C102.768 56.8601 103.739 59.6884 103.739 59.6884C103.739 59.6884 102.125 53.8516 102.094 52.7231C102.062 51.5946 101.182 45.6425 102.665 43.5065C104.148 41.3705 106.125 43.0281 106.308 43.4502C106.491 43.8724 106.545 49.6415 107.071 51.2428C107.597 52.8441 109.777 59.5392 109.777 59.5392C109.777 59.5392 109.871 53.0327 110.366 50.12C110.86 47.2072 112.146 44.9305 113.4 44.8011C114.654 44.6716 115.82 46.0365 115.82 46.0365C115.82 46.0365 115.323 50.68 115.463 51.7522C115.603 52.8244 115.26 56.694 115.857 58.7878C115.857 58.7878 115.789 53.2409 116.663 52.5318C117.538 51.8226 118.289 51.4821 118.78 51.9689C119.272 52.4558 119.378 55.7315 119.878 57.7071C120.378 59.6827 120.318 62.3675 120.643 65.4491C120.969 68.5307 122.266 72.8083 122.009 75.2511C121.752 77.6938 120.961 83.7641 120.321 87.3242C119.681 90.8842 118.063 95.7669 118.063 95.7669C118.063 95.7669 118.803 98.37 118.658 100.692C118.512 103.014 124.312 118.469 124.312 118.469" stroke="#263238" stroke-width="0.114759" stroke-linecap="round" stroke-linejoin="round"/>
<path d="M109.768 59.5527C110.36 60.9205 111.82 66.6925 112.34 67.4945C112.604 67.9374 112.99 68.2975 113.454 68.533" stroke="#263238" stroke-width="0.114759" stroke-linecap="round" stroke-linejoin="round"/>
<path d="M115.849 58.7935C115.849 58.7935 115.723 59.9754 116.372 63.7493C117.021 67.5232 117.338 69.1273 117.704 69.9688" stroke="#263238" stroke-width="0.114759" stroke-linecap="round" stroke-linejoin="round"/>
<path d="M103.728 59.7026C104.52 62.0019 104.968 65.666 105.42 66.7692C105.871 67.8724 106.277 68.1003 106.277 68.1003" stroke="#263238" stroke-width="0.114759" stroke-linecap="round" stroke-linejoin="round"/>
<path d="M105.008 65.218C105.484 65.5746 105.862 66.0442 106.105 66.5829" stroke="#263238" stroke-width="0.114759" stroke-linecap="round" stroke-linejoin="round"/>
<path d="M92.792 78.2988C92.792 78.2988 93.2263 81.3466 95.1636 81.1131" stroke="#263238" stroke-width="0.114759" stroke-linecap="round" stroke-linejoin="round"/>
<path d="M97.4215 70.7844C97.4215 70.7844 97.9215 74.4092 97.0986 75.9457" stroke="#263238" stroke-width="0.114759" stroke-linecap="round" stroke-linejoin="round"/>
<path d="M112.917 70.8188C112.917 70.8188 114.22 71.604 113.349 73.9145C112.477 76.225 110.96 85.5176 110.96 85.5176" stroke="#263238" stroke-width="0.114759" stroke-linecap="round" stroke-linejoin="round"/>
<path d="M118.588 73.2612C119.134 75.3438 119.183 75.3972 118.303 77.9554C117.422 80.5135 115.979 86.7696 115.979 86.7696" stroke="#263238" stroke-width="0.114759" stroke-linecap="round" stroke-linejoin="round"/>
<path d="M118.054 95.759C118.054 95.759 117.197 94.0704 117.906 92.6633" stroke="#263238" stroke-width="0.114759" stroke-linecap="round" stroke-linejoin="round"/>
<path d="M98.3794 100.475C98.3794 100.475 100.534 103.456 101.471 106.79" stroke="#263238" stroke-width="0.114759" stroke-linecap="round" stroke-linejoin="round"/>
<path d="M114.232 48.2344L114.815 47.6659L115.078 47.5928L115.061 47.8742L114.526 48.5468L114.232 48.2344Z" fill="#757575" stroke="#263238" stroke-width="0.114759" stroke-linecap="round" stroke-linejoin="round"/>
<path d="M114.704 48.5466L113.755 50.6657L88.2675 84.1354L85.4302 82.354L89.2933 77.5923L112.183 49.3092L114.204 48.0457C114.324 48.0794 114.433 48.1434 114.521 48.2312C114.608 48.319 114.671 48.4276 114.704 48.5466Z" fill="#20446C"/>
<path opacity="0.3" d="M114.704 48.5466L113.755 50.6657L88.2675 84.1354L85.4302 82.354L89.2933 77.5923C91.062 77.4122 91.3591 78.4366 91.3591 78.4366L113.309 50.2126C113.092 49.4556 112.166 49.3092 112.166 49.3092L114.186 48.0457C114.31 48.0769 114.423 48.1396 114.513 48.2276C114.604 48.3156 114.67 48.4256 114.704 48.5466Z" fill="black" fill-opacity="0.7"/>
<path d="M114.704 48.5466L113.755 50.6657L88.2675 84.1354L85.4302 82.354L89.2933 77.5923L112.183 49.3092L114.204 48.0457C114.324 48.0794 114.433 48.1434 114.521 48.2312C114.608 48.319 114.671 48.4276 114.704 48.5466Z" stroke="#263238" stroke-width="0.114759" stroke-linecap="round" stroke-linejoin="round"/>
<path d="M96.5816 74.2269C96.5816 74.2269 93.7243 79.7878 90.9984 83.7221L89.044 84.2202C89.044 84.2202 84.558 88.6104 81.8206 90.7999C81.3236 90.4959 80.8733 90.1235 80.4834 89.6939C80.4834 89.6939 84.3694 82.346 88.6697 77.6912C89.1733 77.869 89.6479 78.1184 90.0783 78.4313C90.6375 78.8197 91.1344 79.2883 91.5527 79.8216L96.3445 73.8835L96.5816 74.2269Z" fill="#F0792E"/>
<path opacity="0.3" d="M96.5813 74.2257C96.5813 74.2257 93.724 79.7866 90.9981 83.7209L89.0437 84.219C89.0437 84.219 84.5576 88.6092 81.8203 90.7987L81.8946 89.6083C84.8634 85.1421 88.6351 80.2707 90.078 78.4302C90.6371 78.8185 91.1341 79.2871 91.5524 79.8204L88.8894 83.3213L90.4152 83.0399L96.3441 73.8711L96.5813 74.2257Z" fill="black" fill-opacity="0.7"/>
<path d="M96.5816 74.2269C96.5816 74.2269 93.7243 79.7878 90.9984 83.7221L89.044 84.2202C89.044 84.2202 84.558 88.6104 81.8206 90.7999C81.3236 90.4959 80.8733 90.1235 80.4834 89.6939C80.4834 89.6939 84.3694 82.346 88.6697 77.6912C89.1733 77.869 89.6479 78.1184 90.0783 78.4313C90.6375 78.8197 91.1344 79.2883 91.5527 79.8216L96.3445 73.8835L96.5816 74.2269Z" stroke="#263238" stroke-width="0.114759" stroke-linecap="round" stroke-linejoin="round"/>
<path d="M106.274 68.0996L98.3102 75.6981L97.0387 76.9194C97.9102 74.7131 97.4873 71.291 97.433 70.8885C97.4338 70.8764 97.4338 70.8641 97.433 70.8519C97.4347 70.8313 97.4347 70.8106 97.433 70.79C97.3436 70.3745 97.2769 69.9546 97.233 69.5321C97.213 69.3942 97.1959 69.2506 97.1787 69.0931C97.1616 68.9355 97.1387 68.7779 97.1216 68.609C97.1216 68.533 97.1016 68.4486 97.0902 68.367C97.0902 68.3332 97.0902 68.2994 97.0902 68.2685C97.0559 67.9505 97.0159 67.6128 96.9787 67.261C96.9787 67.1653 96.9587 67.0724 96.9473 66.9796C96.9473 66.8107 96.913 66.6418 96.8959 66.473C96.8943 66.4449 96.8943 66.4167 96.8959 66.3886C96.8959 66.2929 96.873 66.1944 96.8644 66.0931C96.8416 65.8933 96.8244 65.6963 96.8016 65.4965L96.7501 64.9786C96.7159 64.6578 96.6844 64.3342 96.653 64.0218C96.6301 63.7854 96.6073 63.5574 96.5873 63.3323C96.5873 63.2816 96.5873 63.231 96.573 63.1832C96.453 61.9449 96.3587 60.9318 96.3244 60.4927C96.3244 60.4927 93.4671 56.322 93.1813 54.3549C92.8956 52.3877 92.9127 50.3221 94.11 49.4834C96.9444 47.4966 96.1101 50.6992 97.3845 52.0163C98.6588 53.3333 100.599 55.5144 101.702 56.1926C102.805 56.8708 103.771 59.7019 103.771 59.7019C104.562 62.0012 105.011 65.6625 105.462 66.7685C105.914 67.8745 106.274 68.0996 106.274 68.0996Z" fill="white"/>
<path d="M105.008 65.218C105.484 65.5746 105.862 66.0442 106.105 66.5829" stroke="#263238" stroke-width="0.114759" stroke-linecap="round" stroke-linejoin="round"/>
<path opacity="0.8" d="M97.3408 52.0175C98.6038 53.3458 100.544 55.5015 101.647 56.1882C101.493 56.1122 99.461 55.1385 98.3266 56.222C97.1465 57.3477 96.2922 60.4856 96.2922 60.4856C96.2922 60.4856 93.4348 56.3149 93.1491 54.3477C92.8634 52.3806 92.8805 50.3149 94.0777 49.4763C96.9008 47.4894 96.0722 50.692 97.3408 52.0175Z" fill="#FFE4C8"/>
<path opacity="0.8" d="M98.31 75.7039L97.0385 76.9196C97.91 74.7133 97.4871 71.2912 97.4328 70.8887C97.4363 70.856 97.4363 70.823 97.4328 70.7902C97.3434 70.3747 97.2766 69.9548 97.2328 69.5323C97.2128 69.3944 97.1957 69.2508 97.1785 69.0932C97.1614 68.9356 97.1385 68.778 97.1214 68.6092C97.1214 68.5332 97.1014 68.4488 97.0899 68.3672C97.0899 68.3334 97.0899 68.2996 97.0899 68.2687C97.0556 67.9478 97.0185 67.6129 96.9785 67.2612C96.9785 67.1655 96.9585 67.0726 96.9471 66.9797C96.9471 66.8109 96.9128 66.642 96.8956 66.4732C96.8941 66.4451 96.8941 66.4169 96.8956 66.3888C96.8956 66.2931 96.8728 66.1946 96.8642 66.0933C96.8413 65.8935 96.8242 65.6965 96.8013 65.4966L96.7499 64.9788C96.7156 64.658 96.6842 64.3344 96.6528 64.022C96.6328 63.7856 96.6099 63.5548 96.587 63.3325C96.587 63.2818 96.587 63.2312 96.5728 63.1833C96.6528 63.552 98.1014 70.3428 98.9272 71.9272C99.2072 72.5182 98.9186 74.0604 98.31 75.7039Z" fill="#FFE4C8"/>
<path d="M106.275 68.1C106.275 68.1 105.872 67.8721 105.417 66.7689C104.963 65.6657 104.517 62.0016 103.726 59.7024C103.726 59.7024 102.757 56.8881 101.654 56.193C100.551 55.4979 98.6083 53.3478 97.3396 52.0195C96.071 50.6912 96.8996 47.4886 94.0651 49.4867C92.8679 50.3309 92.8451 52.3938 93.1365 54.3581C93.428 56.3225 96.2796 60.496 96.2796 60.496C96.3996 61.9397 97.1539 69.8674 97.4082 70.7961" stroke="#263238" stroke-width="0.114759" stroke-linecap="round" stroke-linejoin="round"/>
<path d="M97.4215 70.7844C97.4215 70.7844 97.9215 74.4092 97.0986 75.9457" stroke="#263238" stroke-width="0.114759" stroke-linecap="round" stroke-linejoin="round"/>
<path opacity="0.2" d="M48.5482 75.2305C48.5482 75.2305 50.3569 83.5015 46.4395 89.5211C42.5221 95.5408 39.5076 97.1421 38.1532 98.9376C36.7988 100.733 31.487 110.76 31.487 110.76L25.2866 92.6787L31.487 70.3027L48.5482 75.2305Z" fill="black" fill-opacity="0.7"/>
<g clip-path="url(#clip1_7_68086)">
<path d="M44.2638 41.3902L26.6646 48.436L37.376 74.587L54.9753 67.5412L44.2638 41.3902Z" fill="white" stroke="#263238" stroke-width="0.114759" stroke-linecap="round" stroke-linejoin="round"/>
<path d="M28.7137 49.6876L33.2907 47.8446" stroke="#263238" stroke-width="0.229517" stroke-linecap="round" stroke-linejoin="round"/>
<path d="M29.0706 50.5562L32.1829 49.3016" stroke="#263238" stroke-width="0.229517" stroke-linecap="round" stroke-linejoin="round"/>
<path d="M31.0315 52.1581L44.1958 46.8553" stroke="#263238" stroke-width="0.229517" stroke-linecap="round" stroke-linejoin="round"/>
<path d="M31.3888 53.0243L44.5537 47.7237" stroke="#263238" stroke-width="0.229517" stroke-linecap="round" stroke-linejoin="round"/>
<path d="M31.808 54.0384L43.0352 49.518" stroke="#263238" stroke-width="0.229517" stroke-linecap="round" stroke-linejoin="round"/>
<path d="M33.3152 54.5068L32.2446 54.938L32.6808 55.9964L33.7514 55.5652L33.3152 54.5068Z" stroke="#263238" stroke-width="0.114759" stroke-linecap="round" stroke-linejoin="round"/>
<path d="M35.2532 53.7255L34.1826 54.1567L34.6188 55.2152L35.6894 54.784L35.2532 53.7255Z" stroke="#263238" stroke-width="0.114759" stroke-linecap="round" stroke-linejoin="round"/>
<path d="M37.1961 52.9426L36.1255 53.3738L36.5617 54.4322L37.6323 54.001L37.1961 52.9426Z" stroke="#263238" stroke-width="0.114759" stroke-linecap="round" stroke-linejoin="round"/>
<path d="M39.1365 52.1606L38.0659 52.5918L38.5021 53.6503L39.5727 53.219L39.1365 52.1606Z" stroke="#263238" stroke-width="0.114759" stroke-linecap="round" stroke-linejoin="round"/>
<path d="M30.3303 52.4381C30.3526 52.4907 30.3585 52.5486 30.3474 52.6046C30.3362 52.6605 30.3085 52.7119 30.2677 52.7522C30.227 52.7926 30.175 52.82 30.1184 52.831C30.0618 52.8421 30.0032 52.8362 29.95 52.8142C29.8968 52.7923 29.8514 52.7551 29.8196 52.7076C29.7878 52.66 29.771 52.6042 29.7714 52.5472C29.7718 52.4901 29.7893 52.4345 29.8217 52.3874C29.8542 52.3403 29.9001 52.3037 29.9536 52.2824C30.0244 52.2542 30.1037 52.2547 30.1742 52.2839C30.2447 52.313 30.3008 52.3684 30.3303 52.4381Z" fill="#263238"/>
<path d="M33.1179 57.2247L46.2822 51.922" stroke="#263238" stroke-width="0.229517" stroke-linecap="round" stroke-linejoin="round"/>
<path d="M33.4757 58.0912L46.6406 52.7906" stroke="#263238" stroke-width="0.229517" stroke-linecap="round" stroke-linejoin="round"/>
<path d="M33.8946 59.1055L45.1211 54.5829" stroke="#263238" stroke-width="0.229517" stroke-linecap="round" stroke-linejoin="round"/>
<path d="M35.4012 59.5717L34.3306 60.0029L34.7667 61.0614L35.8374 60.6302L35.4012 59.5717Z" stroke="#263238" stroke-width="0.114759" stroke-linecap="round" stroke-linejoin="round"/>
<path d="M37.3421 58.7924L36.2715 59.2236L36.7077 60.2821L37.7783 59.8509L37.3421 58.7924Z" stroke="#263238" stroke-width="0.114759" stroke-linecap="round" stroke-linejoin="round"/>
<path d="M39.283 58.0092L38.2124 58.4404L38.6486 59.4989L39.7192 59.0677L39.283 58.0092Z" stroke="#263238" stroke-width="0.114759" stroke-linecap="round" stroke-linejoin="round"/>
<path d="M41.223 57.2289L40.1523 57.6602L40.5885 58.7186L41.6591 58.2874L41.223 57.2289Z" stroke="#263238" stroke-width="0.114759" stroke-linecap="round" stroke-linejoin="round"/>
<path d="M32.419 57.5068C32.4409 57.5595 32.4464 57.6174 32.4349 57.6732C32.4233 57.7289 32.3953 57.7801 32.3544 57.8201C32.3134 57.8601 32.2614 57.8872 32.2048 57.898C32.1483 57.9087 32.0898 57.9026 32.0368 57.8804C31.9837 57.8582 31.9385 57.821 31.9069 57.7734C31.8754 57.7258 31.8588 57.67 31.8593 57.6131C31.8598 57.5562 31.8774 57.5007 31.9099 57.4536C31.9424 57.4066 31.9882 57.3702 32.0417 57.349C32.1129 57.3207 32.1926 57.3214 32.2633 57.351C32.3339 57.3806 32.39 57.4366 32.419 57.5068Z" fill="#263238"/>
<path d="M35.2066 62.2902L48.3716 56.9896" stroke="#263238" stroke-width="0.229517" stroke-linecap="round" stroke-linejoin="round"/>
<path d="M35.5642 63.1593L48.7263 57.8572" stroke="#263238" stroke-width="0.229517" stroke-linecap="round" stroke-linejoin="round"/>
<path d="M35.9815 64.1731L47.208 59.6506" stroke="#263238" stroke-width="0.229517" stroke-linecap="round" stroke-linejoin="round"/>
<path d="M37.4896 64.6393L36.4189 65.0706L36.8551 66.129L37.9257 65.6978L37.4896 64.6393Z" stroke="#263238" stroke-width="0.114759" stroke-linecap="round" stroke-linejoin="round"/>
<path d="M39.43 63.8574L38.3594 64.2886L38.7955 65.347L39.8662 64.9158L39.43 63.8574Z" stroke="#263238" stroke-width="0.114759" stroke-linecap="round" stroke-linejoin="round"/>
<path d="M41.3729 63.0768L40.3022 63.5081L40.7384 64.5665L41.809 64.1353L41.3729 63.0768Z" stroke="#263238" stroke-width="0.114759" stroke-linecap="round" stroke-linejoin="round"/>
<path d="M43.3109 62.2958L42.2402 62.7271L42.6764 63.7855L43.747 63.3543L43.3109 62.2958Z" stroke="#263238" stroke-width="0.114759" stroke-linecap="round" stroke-linejoin="round"/>
<path d="M34.506 62.5725C34.5278 62.6251 34.5333 62.683 34.5218 62.7388C34.5103 62.7946 34.4823 62.8457 34.4413 62.8858C34.4004 62.9258 34.3483 62.9529 34.2918 62.9636C34.2352 62.9744 34.1767 62.9683 34.1237 62.9461C34.0706 62.9239 34.0255 62.8867 33.9939 62.8391C33.9623 62.7915 33.9457 62.7357 33.9462 62.6788C33.9467 62.6218 33.9643 62.5663 33.9968 62.5193C34.0293 62.4723 34.0751 62.4359 34.1286 62.4147C34.1998 62.3864 34.2795 62.3871 34.3502 62.4167C34.4209 62.4462 34.4769 62.5022 34.506 62.5725Z" fill="#263238"/>
<path d="M37.3536 67.4999L50.5164 62.2" stroke="#263238" stroke-width="0.229517" stroke-linecap="round" stroke-linejoin="round"/>
<path d="M37.7115 68.3686L50.8743 63.0686" stroke="#263238" stroke-width="0.229517" stroke-linecap="round" stroke-linejoin="round"/>
<path d="M38.1273 69.3824L49.3545 64.862" stroke="#263238" stroke-width="0.229517" stroke-linecap="round" stroke-linejoin="round"/>
<path d="M39.6385 69.85L38.5679 70.2812L39.004 71.3397L40.0747 70.9085L39.6385 69.85Z" stroke="#263238" stroke-width="0.114759" stroke-linecap="round" stroke-linejoin="round"/>
<path d="M41.5765 69.0688L40.5059 69.5L40.942 70.5585L42.0127 70.1272L41.5765 69.0688Z" stroke="#263238" stroke-width="0.114759" stroke-linecap="round" stroke-linejoin="round"/>
<path d="M43.5179 68.2875L42.4473 68.7188L42.8834 69.7772L43.9541 69.346L43.5179 68.2875Z" stroke="#263238" stroke-width="0.114759" stroke-linecap="round" stroke-linejoin="round"/>
<path d="M45.4603 67.5048L44.3896 67.936L44.8258 68.9945L45.8964 68.5633L45.4603 67.5048Z" stroke="#263238" stroke-width="0.114759" stroke-linecap="round" stroke-linejoin="round"/>
<path d="M36.6622 67.7791C36.6838 67.8313 36.6892 67.8886 36.6779 67.9439C36.6666 67.9991 36.6389 68.0498 36.5984 68.0895C36.558 68.1292 36.5065 68.1562 36.4505 68.167C36.3946 68.1778 36.3366 68.172 36.284 68.1503C36.2314 68.1285 36.1865 68.0919 36.1549 68.0449C36.1234 67.9979 36.1066 67.9428 36.1068 67.8864C36.1069 67.83 36.124 67.7749 36.1558 67.7281C36.1876 67.6813 36.2327 67.6449 36.2854 67.6234C36.3205 67.6092 36.3581 67.6019 36.396 67.602C36.4339 67.6021 36.4715 67.6096 36.5064 67.624C36.5414 67.6385 36.5732 67.6596 36.5999 67.6862C36.6266 67.7128 36.6478 67.7444 36.6622 67.7791Z" fill="#263238"/>
<path d="M32.8018 55.2063L33.0466 55.3728L33.3157 54.5079" stroke="#263238" stroke-width="0.229517" stroke-linecap="round" stroke-linejoin="round"/>
<path d="M38.7432 58.6462L38.9887 58.8149L39.2571 57.9478" stroke="#263238" stroke-width="0.229517" stroke-linecap="round" stroke-linejoin="round"/>
<path d="M38.9336 64.5991L39.1813 64.7672L39.4475 63.9007" stroke="#263238" stroke-width="0.229517" stroke-linecap="round" stroke-linejoin="round"/>
<path d="M44.9194 68.2146L45.165 68.3833L45.4333 67.5162" stroke="#263238" stroke-width="0.229517" stroke-linecap="round" stroke-linejoin="round"/>
</g>
<path d="M44.2511 71.8062C44.9197 69.5548 47.5256 62.3475 47.1828 59.159C47.1555 58.8935 47.094 58.6325 46.9999 58.3823C46.0855 56.0014 42.3481 56.2322 40.9138 58.205C39.3365 60.3748 38.0564 64.2781 37.9393 66.6477C37.839 67.8351 37.4468 68.9807 36.7963 69.9854C36.5731 70.3568 36.3209 70.7106 36.042 71.0435L27.5186 51.1328C26.6578 51.8388 25.906 52.6645 25.287 53.584C24.9385 54.0966 24.7137 54.6809 24.6298 55.2923C24.4555 57.2622 22.1982 65.3222 21.261 68.7246C21.2439 68.7978 21.221 68.8653 21.2039 68.9357C20.301 72.2058 22.684 84.3521 22.0011 87.8783C21.3182 91.4045 20.8981 91.3285 20.7981 93.8332C20.7267 95.6625 18.0694 101.226 15.0835 106.936C13.3691 110.206 11.5632 113.524 10.0688 116.223L31.876 115.331C32.2532 112.72 32.6418 109.967 32.9961 107.299C33.1501 106.19 33.3676 105.089 33.6476 104.004C34.1276 102.09 34.7134 100.359 35.0762 99.3463C35.5389 97.8571 35.9204 96.3447 36.2192 94.8154C38.7536 92.1728 42.0796 88.0162 43.0425 85.202V85.1823C43.2787 84.6033 43.3536 83.9728 43.2596 83.3558C43.1532 82.8491 43.0949 82.3338 43.0853 81.8164C42.9853 78.7545 43.6911 73.6805 44.2511 71.8062Z" fill="white"/>
<path opacity="0.8" d="M36.8017 70.0023C36.1273 71.339 35.313 72.6392 34.8015 74.1364C34.2901 75.6336 33.7215 75.8474 32.1957 77.0182C30.6698 78.1889 29.5555 76.2611 29.5555 76.2611C29.5555 76.2611 31.5756 74.1927 30.9041 73.0445C30.2327 71.8962 27.7096 69.0398 27.8582 67.4526C28.0068 65.8653 26.3353 62.3307 26.3353 62.3307C26.3353 62.3307 30.1441 60.1299 29.404 57.5465C29.0012 56.1478 27.001 54.6506 25.2866 53.584C25.9056 52.6645 26.6574 51.8388 27.5182 51.1328L36.0473 71.0604C36.3262 70.7274 36.5784 70.3737 36.8017 70.0023Z" fill="#FFE4C8"/>
<path opacity="0.8" d="M22.9723 82.2262C23.0238 82.3951 24.2638 86.4307 23.2181 88.1108C22.1723 89.7909 21.0979 92.017 21.6094 94.3021C22.0151 96.1257 18.5892 102.711 15.0918 106.938C18.0691 101.228 20.7265 95.6642 20.8065 93.8349C20.9065 91.3303 21.3265 91.4063 22.0094 87.88C22.6923 84.3538 20.295 72.2075 21.2122 68.9374C21.2294 68.867 21.2522 68.7995 21.2694 68.7263C21.9351 72.4327 23.4866 79.8144 23.9124 82.1868C24.4439 85.2065 23.0295 82.3472 22.9723 82.2262Z" fill="#FFE4C8"/>
<path opacity="0.8" d="M30.8242 106.561C33.3587 95.8162 41.8878 87.5734 43.0422 85.1897C42.0793 88.0039 38.7562 92.1606 36.2189 94.8031C35.9201 96.3324 35.5386 97.8449 35.0759 99.334C34.7188 100.347 34.133 102.078 33.6473 103.992C31.1785 106.868 30.8242 106.561 30.8242 106.561Z" fill="#FFE4C8"/>
<path opacity="0.8" d="M44.2506 71.8067C43.6792 73.681 42.9848 78.755 43.0934 81.8028C42.6448 79.8863 41.7819 77.4577 41.639 74.0721C41.3962 68.3311 44.6992 70.3911 43.5477 67.5628C42.3962 64.7345 39.1131 68.3592 40.7304 62.3734C41.9133 58 45.2736 58.0422 46.9994 58.3828C47.0935 58.633 47.155 58.894 47.1823 59.1595C47.5251 62.348 44.9192 69.5609 44.2506 71.8067Z" fill="#FFE4C8"/>
<path d="M36.0493 71.0603C35.5323 72.0441 35.1113 73.0741 34.7921 74.1363C34.4349 75.5153 32.6262 75.3183 31.6919 76.1738" stroke="#263238" stroke-width="0.114759" stroke-linecap="round" stroke-linejoin="round"/>
<path d="M29.2241 68.6345C29.2241 68.6345 31.6871 69.4788 33.1187 70.5904C34.5502 71.702 35.6103 71.9581 35.6103 71.9581" stroke="#263238" stroke-width="0.114759" stroke-linecap="round" stroke-linejoin="round"/>
<path d="M27.6558 62.6255C27.6558 62.6255 29.6416 63.1742 31.1131 62.4847C31.1796 61.7826 31.3048 61.087 31.4874 60.405" stroke="#263238" stroke-width="0.114759" stroke-linecap="round" stroke-linejoin="round"/>
<path d="M31.5864 62.7671C31.5864 62.7671 31.6064 63.0485 32.6179 63.0485" stroke="#263238" stroke-width="0.114759" stroke-linecap="round" stroke-linejoin="round"/>
<path d="M36.2169 94.8069C34.8315 96.1807 33.7667 97.8354 33.0967 99.6558" stroke="#263238" stroke-width="0.114759" stroke-linecap="round" stroke-linejoin="round"/>
<path d="M21.0863 69.5349C20.9978 71.2235 23.0065 77.2122 23.6179 80.1896C24.2294 83.1671 24.4551 85.2721 24.4551 85.2721" stroke="#263238" stroke-width="0.114759" stroke-linecap="round" stroke-linejoin="round"/>
<path d="M13.3936 110.285C16.1423 105.366 18.7853 100.303 20.714 94.8403C20.9455 94.0552 20.6369 93.0336 20.8683 92.2484C23.4571 85.1566 20.5197 77.7748 21.0026 70.5141C21.4055 67.652 22.3342 64.7674 23.2656 61.8828C23.7028 59.7947 23.8657 57.4616 24.5657 55.3622C25.2858 53.7806 25.9944 51.9401 27.5288 51.1409C30.4433 57.7177 33.3492 64.3256 36.0579 71.0685C37.2809 70.3734 37.4866 68.8171 37.6838 67.5113C38.3409 64.379 39.0067 61.5057 40.2096 58.8716C41.4326 56.7496 44.5471 55.8463 46.4586 57.5798C47.0072 58.1205 47.3208 58.8502 47.333 59.6145C46.9615 63.2505 45.8014 66.9316 44.6328 70.3312C44.1728 71.9015 43.7042 73.2158 43.507 74.7748C43.5299 75.2898 43.5384 75.5488 43.5613 76.0666C42.8841 78.681 43.507 80.983 43.3527 83.5778C42.7612 88.2578 38.961 91.5167 36.2094 94.9923C35.5322 97.6067 34.8521 100.221 33.9235 102.847C32.7806 106.773 32.4148 110.67 32.0234 114.456" stroke="#263238" stroke-width="0.114759" stroke-linecap="round" stroke-linejoin="round"/>
<path d="M78.3002 35.3052H54.6187V70.6283H78.3002V35.3052Z" fill="white" stroke="#263238" stroke-width="0.114759" stroke-linecap="round" stroke-linejoin="round"/>
<path d="M56.3931 37.7099L62.557 37.6975" stroke="#263238" stroke-width="0.229517" stroke-linecap="round" stroke-linejoin="round"/>
<path d="M56.3969 38.8845L60.5889 38.8745" stroke="#263238" stroke-width="0.229517" stroke-linecap="round" stroke-linejoin="round"/>
<path d="M57.9037 41.6546L75.6329 41.6169" stroke="#263238" stroke-width="0.229517" stroke-linecap="round" stroke-linejoin="round"/>
<path d="M57.9074 42.8266L75.6363 42.7917" stroke="#263238" stroke-width="0.229517" stroke-linecap="round" stroke-linejoin="round"/>
<path d="M57.9107 44.1955L73.0301 44.1657" stroke="#263238" stroke-width="0.229517" stroke-linecap="round" stroke-linejoin="round"/>
<path d="M59.4316 45.4406L57.9897 45.4436L57.9928 46.8745L59.4346 46.8715L59.4316 45.4406Z" stroke="#263238" stroke-width="0.114759" stroke-linecap="round" stroke-linejoin="round"/>
<path d="M62.0424 45.4335L60.6006 45.4365L60.6036 46.8674L62.0455 46.8644L62.0424 45.4335Z" stroke="#263238" stroke-width="0.114759" stroke-linecap="round" stroke-linejoin="round"/>
<path d="M64.6586 45.4284L63.2168 45.4314L63.2198 46.8623L64.6617 46.8593L64.6586 45.4284Z" stroke="#263238" stroke-width="0.114759" stroke-linecap="round" stroke-linejoin="round"/>
<path d="M67.271 45.423L65.8291 45.426L65.8321 46.8569L67.274 46.8539L67.271 45.423Z" stroke="#263238" stroke-width="0.114759" stroke-linecap="round" stroke-linejoin="round"/>
<path d="M56.9616 41.6526C56.9624 41.724 56.9419 41.794 56.9025 41.8538C56.8631 41.9135 56.8068 41.9603 56.7405 41.9881C56.6743 42.016 56.6013 42.0237 56.5306 42.0102C56.46 41.9967 56.395 41.9627 56.3439 41.9125C56.2928 41.8623 56.2579 41.7981 56.2436 41.7281C56.2294 41.6581 56.2364 41.5856 56.2639 41.5196C56.2913 41.4536 56.3379 41.3972 56.3977 41.3576C56.4575 41.3179 56.5279 41.2968 56.5998 41.297C56.6951 41.2972 56.7865 41.3346 56.8542 41.4012C56.9219 41.4677 56.9605 41.5581 56.9616 41.6526Z" fill="#263238"/>
<path d="M57.9189 48.5015L75.648 48.4638" stroke="#263238" stroke-width="0.229517" stroke-linecap="round" stroke-linejoin="round"/>
<path d="M57.9206 49.6737L75.6495 49.6389" stroke="#263238" stroke-width="0.229517" stroke-linecap="round" stroke-linejoin="round"/>
<path d="M57.9256 51.0472L73.0452 51.0146" stroke="#263238" stroke-width="0.229517" stroke-linecap="round" stroke-linejoin="round"/>
<path d="M59.4458 52.2878L58.0039 52.2908L58.0069 53.7217L59.4488 53.7187L59.4458 52.2878Z" stroke="#263238" stroke-width="0.114759" stroke-linecap="round" stroke-linejoin="round"/>
<path d="M62.0595 52.2851L60.6177 52.2881L60.6207 53.719L62.0626 53.716L62.0595 52.2851Z" stroke="#263238" stroke-width="0.114759" stroke-linecap="round" stroke-linejoin="round"/>
<path d="M64.6728 52.278L63.231 52.281L63.234 53.7119L64.6758 53.7089L64.6728 52.278Z" stroke="#263238" stroke-width="0.114759" stroke-linecap="round" stroke-linejoin="round"/>
<path d="M67.2866 52.2729L65.8447 52.2759L65.8478 53.7068L67.2896 53.7038L67.2866 52.2729Z" stroke="#263238" stroke-width="0.114759" stroke-linecap="round" stroke-linejoin="round"/>
<path d="M56.9773 48.5043C56.9775 48.5756 56.9565 48.6453 56.9168 48.7047C56.877 48.7641 56.8204 48.8104 56.7542 48.8378C56.6879 48.8653 56.6149 48.8725 56.5444 48.8587C56.4739 48.8449 56.4092 48.8106 56.3584 48.7603C56.3076 48.7099 56.273 48.6457 56.259 48.5758C56.245 48.5059 56.2523 48.4334 56.2798 48.3676C56.3074 48.3018 56.354 48.2456 56.4138 48.2061C56.4736 48.1666 56.5439 48.1457 56.6157 48.1459C56.7115 48.1461 56.8032 48.184 56.8709 48.2511C56.9387 48.3183 56.9769 48.4093 56.9773 48.5043Z" fill="#263238"/>
<path d="M57.9328 55.3505L75.6617 55.3156" stroke="#263238" stroke-width="0.229517" stroke-linecap="round" stroke-linejoin="round"/>
<path d="M57.9359 56.5254L75.6623 56.4875" stroke="#263238" stroke-width="0.229517" stroke-linecap="round" stroke-linejoin="round"/>
<path d="M57.9388 57.8953L73.0584 57.8627" stroke="#263238" stroke-width="0.229517" stroke-linecap="round" stroke-linejoin="round"/>
<path d="M59.4594 59.1386L58.0176 59.1416L58.0206 60.5725L59.4625 60.5695L59.4594 59.1386Z" stroke="#263238" stroke-width="0.114759" stroke-linecap="round" stroke-linejoin="round"/>
<path d="M62.0732 59.1332L60.6313 59.1362L60.6344 60.5671L62.0762 60.5641L62.0732 59.1332Z" stroke="#263238" stroke-width="0.114759" stroke-linecap="round" stroke-linejoin="round"/>
<path d="M64.6899 59.1288L63.248 59.1318L63.2511 60.5628L64.6929 60.5597L64.6899 59.1288Z" stroke="#263238" stroke-width="0.114759" stroke-linecap="round" stroke-linejoin="round"/>
<path d="M67.3003 59.1227L65.8584 59.1257L65.8614 60.5566L67.3033 60.5536L67.3003 59.1227Z" stroke="#263238" stroke-width="0.114759" stroke-linecap="round" stroke-linejoin="round"/>
<path d="M56.9899 55.3542C56.9902 55.4254 56.9692 55.4952 56.9295 55.5546C56.8897 55.6139 56.8331 55.6603 56.7669 55.6877C56.7006 55.7151 56.6276 55.7224 56.5571 55.7086C56.4866 55.6948 56.4219 55.6605 56.3711 55.6101C56.3203 55.5598 56.2857 55.4955 56.2717 55.4256C56.2577 55.3557 56.265 55.2833 56.2925 55.2175C56.3201 55.1516 56.3667 55.0954 56.4265 55.056C56.4863 55.0165 56.5566 54.9955 56.6284 54.9957C56.7241 54.996 56.8159 55.0338 56.8836 55.101C56.9514 55.1681 56.9896 55.2591 56.9899 55.3542Z" fill="#263238"/>
<path d="M57.9479 62.3944L75.674 62.3593" stroke="#263238" stroke-width="0.229517" stroke-linecap="round" stroke-linejoin="round"/>
<path d="M57.9509 63.5692L75.677 63.5341" stroke="#263238" stroke-width="0.229517" stroke-linecap="round" stroke-linejoin="round"/>
<path d="M57.9512 64.9394L73.0706 64.9096" stroke="#263238" stroke-width="0.229517" stroke-linecap="round" stroke-linejoin="round"/>
<path d="M59.4765 66.1833L58.0347 66.1863L58.0377 67.6172L59.4796 67.6142L59.4765 66.1833Z" stroke="#263238" stroke-width="0.114759" stroke-linecap="round" stroke-linejoin="round"/>
<path d="M62.0878 66.1772L60.646 66.1802L60.649 67.6111L62.0909 67.6081L62.0878 66.1772Z" stroke="#263238" stroke-width="0.114759" stroke-linecap="round" stroke-linejoin="round"/>
<path d="M64.7021 66.1711L63.2603 66.1741L63.2633 67.605L64.7051 67.602L64.7021 66.1711Z" stroke="#263238" stroke-width="0.114759" stroke-linecap="round" stroke-linejoin="round"/>
<path d="M67.3178 66.165L65.876 66.168L65.879 67.5989L67.3209 67.5959L67.3178 66.165Z" stroke="#263238" stroke-width="0.114759" stroke-linecap="round" stroke-linejoin="round"/>
<path d="M57.0178 62.397C57.018 62.4676 56.9972 62.5367 56.958 62.5955C56.9187 62.6544 56.8627 62.7004 56.7971 62.7276C56.7315 62.7549 56.6593 62.7623 56.5894 62.7489C56.5196 62.7354 56.4554 62.7017 56.4048 62.6521C56.3543 62.6024 56.3197 62.539 56.3055 62.4698C56.2913 62.4006 56.298 62.3288 56.3249 62.2635C56.3518 62.1981 56.3976 62.1422 56.4565 62.1026C56.5154 62.0631 56.5848 62.0418 56.656 62.0414C56.7033 62.0411 56.7501 62.0501 56.7939 62.0678C56.8377 62.0856 56.8776 62.1117 56.9112 62.1447C56.9448 62.1778 56.9715 62.217 56.9898 62.2603C57.0081 62.3036 57.0176 62.3501 57.0178 62.397Z" fill="#263238"/>
<path d="M58.5071 46.0127L58.7113 46.3198L59.4319 45.4411" stroke="#263238" stroke-width="0.229517" stroke-linecap="round" stroke-linejoin="round"/>
<path d="M63.7488 52.7657L63.9527 53.0755L64.6736 52.194" stroke="#263238" stroke-width="0.229517" stroke-linecap="round" stroke-linejoin="round"/>
<path d="M61.1492 59.762L61.356 60.0721L62.0739 59.1904" stroke="#263238" stroke-width="0.229517" stroke-linecap="round" stroke-linejoin="round"/>
<path d="M66.3577 66.7388L66.5616 67.0487L67.2824 66.1672" stroke="#263238" stroke-width="0.229517" stroke-linecap="round" stroke-linejoin="round"/>
<defs>
<clipPath id="clip0_7_68086">
<rect width="21.8555" height="30.1053" fill="white" transform="matrix(0.998844 0.0480773 -0.0491862 0.99879 82.3584 44.6675)"/>
</clipPath>
<clipPath id="clip1_7_68086">
<rect width="21.8213" height="30.1534" fill="white" transform="matrix(0.928366 -0.371667 0.379038 0.925381 24.9756 48.093)"/>
</clipPath>
</defs>
</svg>
