<svg width="29" height="29" viewBox="0 0 29 29" fill="none" xmlns="http://www.w3.org/2000/svg">
<g clip-path="url(#clip0_7_52868)">
<path d="M29 14.5C29 22.1572 23.0635 28.4291 15.5422 28.9626C15.1978 28.9875 14.8506 29 14.5 29C13.6187 29 12.756 28.9213 11.9183 28.7706C11.9178 28.7706 11.9166 28.7706 11.9161 28.77C11.8317 28.7553 11.7478 28.7395 11.6646 28.7225C11.314 28.6534 10.9679 28.5712 10.6269 28.4766C10.3596 28.403 10.0951 28.3214 9.83395 28.2325C8.85689 27.9012 7.92686 27.4679 7.05629 26.9462C6.83822 26.8154 6.62355 26.6794 6.41342 26.5378C5.81189 26.1323 5.24152 25.6831 4.70854 25.1943C4.06396 24.6036 3.47264 23.9556 2.94361 23.2578C2.79691 23.0658 2.65588 22.8692 2.51938 22.6698C2.51938 22.6698 2.51938 22.6693 2.51881 22.6693C2.07758 22.023 1.68676 21.3388 1.35258 20.6229C0.946465 19.7517 0.623613 18.8336 0.395918 17.8786C0.395918 17.878 0.395918 17.878 0.395918 17.878C0.13707 16.7945 0 15.6634 0 14.5C0 6.49215 6.49215 0 14.5 0C22.5079 0 29 6.49215 29 14.5Z" fill="#FDF4E2"/>
<path d="M26.6343 5.24145V22.4421C24.0436 26.3916 19.5769 28.9999 14.5007 28.9999C9.42461 28.9999 4.95793 26.3916 2.36719 22.4421V5.24145C2.36719 3.26186 3.97182 1.65723 5.95141 1.65723H23.0501C25.0297 1.65723 26.6343 3.26186 26.6343 5.24145Z" fill="#F4AA39"/>
<path d="M7.31984 1.65723C5.50791 1.65723 4.0092 3.00244 3.76961 4.74924C3.74695 4.9101 3.73563 5.07436 3.73563 5.24145V24.2138C3.23549 23.6604 2.77783 23.0679 2.36719 22.4421V5.24145C2.36719 3.26186 3.97182 1.65723 5.95141 1.65723H7.31984Z" fill="#C98001"/>
<path d="M19.8058 7.57572H9.19221C8.43237 7.57572 7.81641 6.95975 7.81641 6.19992V4.38215C7.81641 3.62231 8.43237 3.00635 9.19221 3.00635H19.8058C20.5656 3.00635 21.1816 3.62231 21.1816 4.38215V6.19986C21.1816 6.95975 20.5656 7.57572 19.8058 7.57572Z" fill="#C98001"/>
<path d="M23.0378 8.30794V26.2211C22.4459 26.6533 21.82 27.0413 21.1646 27.3805C20.5269 27.7113 19.8619 27.9962 19.1732 28.2301H9.82746C9.13814 27.9962 8.47262 27.7113 7.83484 27.3805C6.96371 26.9285 6.14412 26.391 5.38797 25.7787C5.19143 25.6207 4.99998 25.457 4.8125 25.2882V8.30794C4.8125 7.86444 5.04982 7.47646 5.40383 7.26405C5.58734 7.15304 5.80201 7.0896 6.03141 7.0896H21.8188C22.4917 7.0896 23.0378 7.63505 23.0378 8.30794Z" fill="#C98001"/>
<path d="M23.6114 7.45857V25.779C23.4239 25.9314 23.2319 26.0786 23.0365 26.2214C22.4446 26.6535 21.8187 27.0415 21.1634 27.3808H7.83359C6.96246 26.9288 6.14287 26.3913 5.38672 25.779V7.45857C5.38672 7.3923 5.39182 7.32773 5.40258 7.2643C5.4949 6.68373 5.99844 6.24023 6.60506 6.24023H22.3931C23.066 6.24023 23.6114 6.78568 23.6114 7.45857Z" fill="#F1F4F6"/>
<path d="M18.1871 9.68942H10.8143C9.6093 9.68942 8.62891 8.70908 8.62891 7.50405V4.52051C8.62891 4.17642 8.90786 3.89746 9.25195 3.89746H19.7494C20.0935 3.89746 20.3724 4.17642 20.3724 4.52051V7.504C20.3724 8.70902 19.3921 9.68942 18.1871 9.68942ZM9.875 5.14355V7.504C9.875 8.02192 10.2964 8.44327 10.8143 8.44327H18.1871C18.705 8.44327 19.1264 8.02192 19.1264 7.504V5.14355H9.875Z" fill="#D0E2E7"/>
<path d="M19.0844 21.2022C18.8325 21.2022 18.5957 21.0753 18.4567 20.8621L16.7702 18.2762C16.5441 17.9295 16.6419 17.4651 16.9886 17.239C17.3353 17.0129 17.7997 17.1106 18.0259 17.4573L18.9621 18.8929L21.4736 13.2879C21.6428 12.9101 22.0864 12.7412 22.4641 12.9104C22.8419 13.0797 23.0109 13.5232 22.8416 13.9009L19.7685 20.7592C19.6563 21.0094 19.4165 21.1785 19.1431 21.1999C19.1235 21.2015 19.1039 21.2022 19.0844 21.2022Z" fill="#E94A47"/>
<path d="M15.5691 28.7474C15.564 28.8205 15.5544 28.8924 15.5408 28.9627C15.1964 28.9876 14.8492 29 14.4986 29C7.65415 29 1.91646 24.257 0.394531 17.8781C0.437578 16.0894 0.521973 14.3007 0.648281 12.512C0.711152 11.6176 1.40217 10.8954 2.29256 10.794C6.17017 10.3506 10.0472 10.3506 13.9248 10.794C14.8152 10.8954 15.5062 11.6176 15.5691 12.512C15.9514 17.924 15.9514 23.3354 15.5691 28.7474Z" fill="#20446C"/>
<path d="M2.54914 10.7656C2.03937 11.0822 1.69047 11.6305 1.64572 12.2621C1.44918 15.0494 1.35119 17.8361 1.35119 20.6228C0.945078 19.7517 0.622227 18.8335 0.394531 17.8786C0.394531 17.878 0.394531 17.878 0.394531 17.878C0.437578 16.0893 0.521973 14.3006 0.648281 12.5119C0.711152 11.6181 1.4016 10.8959 2.29256 10.7939C2.37752 10.7843 2.46361 10.7753 2.54914 10.7656Z" fill="#0A2E43"/>
<path d="M12.7009 18.2588H3.51609C2.81041 18.2588 2.23828 17.6867 2.23828 16.981V13.8642C2.23828 13.1586 2.81035 12.5864 3.51609 12.5864H12.7009C13.4066 12.5864 13.9787 13.1585 13.9787 13.8642V16.981C13.9787 17.6867 13.4067 18.2588 12.7009 18.2588Z" fill="#F0F0F0"/>
<path d="M4.99011 21.7059H3.00049C2.57954 21.7059 2.23828 21.3647 2.23828 20.9437V19.7712C2.23828 19.3503 2.57954 19.009 3.00049 19.009H4.99011C5.41106 19.009 5.75232 19.3503 5.75232 19.7712V20.9437C5.75232 21.3647 5.41106 21.7059 4.99011 21.7059Z" fill="#F1F4F6"/>
<path d="M3.70408 21.7061H3.00061C2.57948 21.7061 2.23828 21.3642 2.23828 20.9437V19.7709C2.23828 19.3504 2.57943 19.0085 3.00061 19.0085H3.70408C3.28296 19.0085 2.94176 19.3504 2.94176 19.7709V20.9437C2.94176 21.3642 3.2829 21.7061 3.70408 21.7061Z" fill="#D0E2E7"/>
<path d="M9.1034 21.7941H7.11378C6.69282 21.7941 6.35156 21.4528 6.35156 21.0318V19.8594C6.35156 19.4384 6.69282 19.0972 7.11378 19.0972H9.1034C9.52435 19.0972 9.86561 19.4384 9.86561 19.8594V21.0318C9.86561 21.4528 9.52435 21.7941 9.1034 21.7941Z" fill="#F1F4F6"/>
<path d="M13.2167 21.7941H11.2271C10.8061 21.7941 10.4648 21.4528 10.4648 21.0318V19.8594C10.4648 19.4384 10.8061 19.0972 11.2271 19.0972H13.2167C13.6376 19.0972 13.9789 19.4384 13.9789 19.8594V21.0318C13.9789 21.4528 13.6376 21.7941 13.2167 21.7941Z" fill="#F1F4F6"/>
<path d="M7.81737 21.7939H7.11389C6.69277 21.7939 6.35156 21.4521 6.35156 21.0316V19.8588C6.35156 19.4383 6.69271 19.0964 7.11389 19.0964H7.81737C7.39624 19.0964 7.05504 19.4383 7.05504 19.8588V21.0316C7.05504 21.4522 7.39619 21.7939 7.81737 21.7939Z" fill="#D0E2E7"/>
<path d="M11.9306 21.7939H11.2272C10.806 21.7939 10.4648 21.4521 10.4648 21.0316V19.8588C10.4648 19.4383 10.806 19.0964 11.2272 19.0964H11.9306C11.5095 19.0964 11.1683 19.4383 11.1683 19.8588V21.0316C11.1683 21.4522 11.5095 21.7939 11.9306 21.7939Z" fill="#D0E2E7"/>
<path d="M5.75134 23.2594V24.4318C5.75134 24.8532 5.4098 25.1942 4.98896 25.1942H4.70576C3.88334 24.4409 3.14814 23.5941 2.5166 22.6697C2.64801 22.5621 2.81566 22.4976 2.99918 22.4976H4.98896C5.4098 22.4976 5.75134 22.8385 5.75134 23.2594Z" fill="#F1F4F6"/>
<path d="M3.70225 22.4971C3.28197 22.4971 2.94156 22.8375 2.94043 23.2578C2.79373 23.0657 2.6527 22.8692 2.51619 22.6698C2.51619 22.6698 2.51619 22.6693 2.51562 22.6693C2.64703 22.5622 2.81525 22.4971 2.99877 22.4971H3.70225Z" fill="#D0E2E7"/>
<path d="M9.1034 25.2823H7.11378C6.69282 25.2823 6.35156 24.9411 6.35156 24.5201V23.3477C6.35156 22.9267 6.69282 22.5854 7.11378 22.5854H9.1034C9.52435 22.5854 9.86561 22.9267 9.86561 23.3477V24.5201C9.86561 24.9411 9.52435 25.2823 9.1034 25.2823Z" fill="#F1F4F6"/>
<path d="M13.2167 25.2823H11.2271C10.8061 25.2823 10.4648 24.9411 10.4648 24.5201V23.3477C10.4648 22.9267 10.8061 22.5854 11.2271 22.5854H13.2167C13.6376 22.5854 13.9789 22.9267 13.9789 23.3477V24.5201C13.9789 24.9411 13.6376 25.2823 13.2167 25.2823Z" fill="#F1F4F6"/>
<path d="M7.81737 25.2825H7.11389C6.69277 25.2825 6.35156 24.9406 6.35156 24.5201V23.3473C6.35156 22.9268 6.69271 22.585 7.11389 22.585H7.81737C7.39624 22.585 7.05504 22.9268 7.05504 23.3473V24.5201C7.05504 24.9406 7.39619 25.2825 7.81737 25.2825Z" fill="#D0E2E7"/>
<path d="M11.9306 25.2825H11.2272C10.806 25.2825 10.4648 24.9406 10.4648 24.5201V23.3473C10.4648 22.9268 10.806 22.585 11.2272 22.585H11.9306C11.5095 22.585 11.1683 22.9268 11.1683 23.3473V24.5201C11.1683 24.9406 11.5095 25.2825 11.9306 25.2825Z" fill="#D0E2E7"/>
<path d="M9.86409 26.8355V28.008C9.86409 28.0862 9.8522 28.1615 9.83068 28.2323C8.60894 27.8177 7.46084 27.2445 6.41016 26.5376C6.52627 26.2646 6.79701 26.0737 7.11193 26.0737H9.10171C9.52255 26.0737 9.86409 26.4147 9.86409 26.8355Z" fill="#F1F4F6"/>
<path d="M13.9749 26.8355V28.008C13.9749 28.4294 13.6339 28.7704 13.2131 28.7704H11.9132C11.4754 28.6917 11.0449 28.5937 10.6218 28.4764C10.521 28.3473 10.4609 28.1847 10.4609 28.008V26.8355C10.4609 26.4147 10.8025 26.0737 11.2233 26.0737H13.2131C13.6339 26.0737 13.9749 26.4147 13.9749 26.8355Z" fill="#F1F4F6"/>
<path d="M7.8154 26.0732C7.39456 26.0732 7.05302 26.4148 7.05302 26.8356V26.9461C6.83496 26.8152 6.62029 26.6793 6.41016 26.5377C6.52627 26.2647 6.79701 26.0732 7.11193 26.0732H7.8154Z" fill="#D0E2E7"/>
<path d="M11.9141 28.77C11.919 28.7706 11.9245 28.7706 11.9294 28.7706H11.9162C11.9157 28.7706 11.9146 28.7706 11.9141 28.77Z" fill="#D0E2E7"/>
<path d="M11.6595 28.7223C11.3088 28.6532 10.9628 28.5711 10.6218 28.4765C10.521 28.3468 10.4609 28.1842 10.4609 28.0081V26.8356C10.4609 26.4148 10.8025 26.0732 11.2233 26.0732H11.9268C11.506 26.0732 11.1644 26.4148 11.1644 26.8356V28.0081C11.1644 28.3349 11.3706 28.6141 11.6595 28.7223Z" fill="#D0E2E7"/>
<path d="M4.13887 17.2781C4.10636 17.2781 4.07328 17.2717 4.04139 17.2584C3.91293 17.2044 3.85255 17.0566 3.90642 16.9282L5.26183 13.6986C5.31575 13.5702 5.46347 13.5098 5.59198 13.5636C5.72045 13.6176 5.78082 13.7654 5.72696 13.8938L4.37155 17.1234C4.33105 17.2199 4.23743 17.2781 4.13887 17.2781Z" fill="#434B53"/>
<path d="M3.87843 15.2896C3.40916 15.2896 3.02734 14.8643 3.02734 14.3414C3.02734 13.8186 3.40916 13.3933 3.87843 13.3933C4.34775 13.3933 4.72951 13.8186 4.72951 14.3414C4.72956 14.8643 4.34775 15.2896 3.87843 15.2896ZM3.87843 13.8978C3.68726 13.8978 3.53179 14.0968 3.53179 14.3415C3.53179 14.5862 3.68732 14.7852 3.87843 14.7852C4.06959 14.7852 4.22512 14.5862 4.22512 14.3415C4.22512 14.0968 4.06959 13.8978 3.87843 13.8978Z" fill="#434B53"/>
<path d="M5.71046 17.4979C5.24113 17.4979 4.85938 17.0726 4.85938 16.5497C4.85938 16.0269 5.24119 15.6016 5.71046 15.6016C6.17972 15.6016 6.56154 16.0269 6.56154 16.5497C6.56154 17.0726 6.17972 17.4979 5.71046 17.4979ZM5.71046 16.1061C5.51929 16.1061 5.36376 16.3051 5.36376 16.5498C5.36376 16.7945 5.51929 16.9935 5.71046 16.9935C5.90162 16.9935 6.0571 16.7945 6.0571 16.5498C6.0571 16.3051 5.90156 16.1061 5.71046 16.1061Z" fill="#434B53"/>
<path d="M7.49434 17.2781C7.46183 17.2781 7.42875 17.2717 7.39686 17.2584C7.2684 17.2044 7.20802 17.0566 7.26189 16.9282L8.6173 13.6986C8.67122 13.5702 8.81894 13.5098 8.94745 13.5636C9.07592 13.6176 9.13629 13.7654 9.08243 13.8938L7.72702 17.1234C7.68652 17.2199 7.5929 17.2781 7.49434 17.2781Z" fill="#434B53"/>
<path d="M7.23389 15.2896C6.76463 15.2896 6.38281 14.8643 6.38281 14.3414C6.38281 13.8186 6.76463 13.3933 7.23389 13.3933C7.70321 13.3933 8.08497 13.8186 8.08497 14.3414C8.08503 14.8643 7.70321 15.2896 7.23389 15.2896ZM7.23389 13.8978C7.04273 13.8978 6.88725 14.0968 6.88725 14.3415C6.88725 14.5862 7.04279 14.7852 7.23389 14.7852C7.42505 14.7852 7.58059 14.5862 7.58059 14.3415C7.58059 14.0968 7.42505 13.8978 7.23389 13.8978Z" fill="#434B53"/>
<path d="M9.06593 17.4979C8.5966 17.4979 8.21484 17.0726 8.21484 16.5497C8.21484 16.0269 8.59666 15.6016 9.06593 15.6016C9.53519 15.6016 9.91701 16.0269 9.91701 16.5497C9.91701 17.0726 9.53525 17.4979 9.06593 17.4979ZM9.06593 16.1061C8.87476 16.1061 8.71923 16.3051 8.71923 16.5498C8.71923 16.7945 8.87476 16.9935 9.06593 16.9935C9.25709 16.9935 9.41257 16.7945 9.41257 16.5498C9.41257 16.3051 9.25709 16.1061 9.06593 16.1061Z" fill="#434B53"/>
<path d="M10.8498 17.2781C10.8173 17.2781 10.7842 17.2717 10.7523 17.2584C10.6239 17.2044 10.5635 17.0566 10.6174 16.9282L11.9728 13.6986C12.0267 13.5702 12.1744 13.5098 12.3029 13.5636C12.4314 13.6176 12.4918 13.7654 12.4379 13.8938L11.0825 17.1234C11.042 17.2199 10.9484 17.2781 10.8498 17.2781Z" fill="#434B53"/>
<path d="M10.5894 15.2896C10.1201 15.2896 9.73828 14.8643 9.73828 14.3414C9.73828 13.8186 10.1201 13.3933 10.5894 13.3933C11.0587 13.3933 11.4404 13.8186 11.4404 14.3414C11.4405 14.8643 11.0587 15.2896 10.5894 15.2896ZM10.5894 13.8978C10.3982 13.8978 10.2427 14.0968 10.2427 14.3415C10.2427 14.5862 10.3983 14.7852 10.5894 14.7852C10.7805 14.7852 10.9361 14.5862 10.9361 14.3415C10.9361 14.0968 10.7805 13.8978 10.5894 13.8978Z" fill="#434B53"/>
<path d="M12.4214 17.4979C11.9521 17.4979 11.5703 17.0726 11.5703 16.5497C11.5703 16.0269 11.9521 15.6016 12.4214 15.6016C12.8907 15.6016 13.2725 16.0269 13.2725 16.5497C13.2725 17.0726 12.8907 17.4979 12.4214 17.4979ZM12.4214 16.1061C12.2302 16.1061 12.0747 16.3051 12.0747 16.5498C12.0747 16.7945 12.2302 16.9935 12.4214 16.9935C12.6126 16.9935 12.768 16.7945 12.768 16.5498C12.768 16.3051 12.6126 16.1061 12.4214 16.1061Z" fill="#434B53"/>
</g>
<defs>
<clipPath id="clip0_7_52868">
<rect width="29" height="29" fill="white"/>
</clipPath>
</defs>
</svg>
